<?xml version="1.0" encoding="utf-8"?>
<!-- Generator: Adobe Illustrator 26.0.3, SVG Export Plug-In . SVG Version: 6.00 Build 0)  -->
<svg version="1.1" xmlns="http://www.w3.org/2000/svg" xmlns:xlink="http://www.w3.org/1999/xlink" x="0px" y="0px"
	 viewBox="0 0 360 504" style="enable-background:new 0 0 360 504;" xml:space="preserve">
<style type="text/css">
	.st0{fill:none;stroke:#000000;stroke-linecap:round;stroke-linejoin:round;stroke-miterlimit:10;}
	.st1{fill:#010101;}
</style>
<g id="Text">
</g>
<g id="Artwork">
</g>
<g id="Outline">
	<polyline class="st0" points="68.4,464.4 68.4,504 291.6,504 291.6,464.4 	"/>
	<path class="st0" d="M37.8,468"/>
	<line class="st0" x1="291.6" y1="464.4" x2="315" y2="464.4"/>
	<line class="st0" x1="68.4" y1="464.4" x2="45" y2="464.4"/>
	<line class="st0" x1="315" y1="464.4" x2="315" y2="185.4"/>
	<line class="st0" x1="45" y1="464.4" x2="45" y2="185.4"/>
	<line class="st0" x1="53.2" y1="176.4" x2="306.8" y2="176.4"/>
	<path class="st0" d="M45,185.4c0-5,3.7-9,8.2-9"/>
	<path class="st0" d="M306.8,176.4c4.5,0,8.2,4,8.2,9"/>
	<g>
		<path class="st1" d="M165,365c-1.4,0-2.6-1-2.8-2.4c-0.2-1.5,0.8-2.8,2.2-3.1c-1.6-8.9-5.9-13.8-10.4-19c-3.5-4-7.2-8.2-10.1-14.4
			c-2.8-6.1-4.4-12.4-4.4-18.9c0.1-6.5,1.7-13.3,5.3-20.2c0,0,0-0.1,0.1-0.1l0,0c4.7-8,11.3-13.4,18.7-16.4
			c6.2-2.5,12.9-3.4,19.5-2.8c6.6,0.6,13,2.7,18.6,6c7.1,4.2,13,10.5,16.2,18.4c1.7,4.3,2.9,9.1,3.1,14.3c0.1,5.2-0.7,10.8-3.2,16.8
			c-3.2,8-7.5,12.9-11.5,17.5c-3.7,4.3-7.1,8.2-9,14.3c1.1,0.3,1.9,1.1,2.1,2.3c0.2,1.5-0.8,2.9-2.3,3.1l-0.9,0.1
			c-0.2,1.3-0.3,2.7-0.3,4.2l0.3,0c1.5-0.2,2.9,0.8,3.1,2.3s-0.8,2.9-2.3,3.1l-0.9,0.1c0,0.2,0,0.4,0,0.5l0,0c0.1,1.1,0.1,2.1,0,3.1
			l0.2,0c1.5-0.2,2.9,0.9,3.1,2.4c0.2,1.5-0.9,2.9-2.4,3.1l-2,0.3c-1.5,3.8-4,6.6-7.1,8.4c-2.1,1.2-4.4,1.9-6.8,2.1
			c-2.4,0.1-4.8-0.3-7-1.4c-2.5-1.2-4.8-3.3-6.4-6.2c-0.8-0.4-1.4-1.2-1.5-2.1c0-0.4,0-0.7,0.1-1.1c-0.5-1.4-0.8-2.9-1.1-4.6l-0.1,0
			c-1.5,0.2-2.9-0.8-3.1-2.3s0.8-2.9,2.3-3.1l0.7-0.1C165.1,367.8,165.1,366.4,165,365L165,365L165,365z M192,290.4
			c0.7,0,1.4,0.1,2.1,0.4c1.5,0.5,2.8,1.5,3.9,2.7c1.1,1.3,1.9,2.9,2,4.7c0.1,0.8,0.1,1.6-0.1,2.4c0.7,0.7,1.4,1.5,1.9,2.3
			c0.8,1.3,1.2,2.8,1.1,4.3c0,1.5-0.5,3-1.6,4.4c-0.6,0.8-1.4,1.6-2.4,2.3c0.1,2.2-0.6,4.2-1.7,5.8c-1.2,1.7-2.9,2.9-4.7,3.3
			c-0.4,1.6-1.5,2.9-2.8,3.9c-1.7,1.2-4,1.8-6.1,1.3c-1.4-0.4-2.7-1.3-3.7-2.8c-1.1,1.7-2.6,2.6-4.2,3c-2,0.4-4.1-0.2-5.7-1.4
			c-1.2-0.9-2.1-2.3-2.5-3.8c-0.6,0-1.2-0.2-1.7-0.4c-1.4-0.5-2.8-1.4-3.8-2.6c-1.1-1.2-1.9-2.8-2.1-4.5c-0.1-0.9-0.1-1.8,0.1-2.7
			c-0.7-0.6-1.2-1.3-1.7-2c-0.8-1.3-1.3-2.8-1.2-4.3c0-1.5,0.5-3.1,1.6-4.6c0.6-0.8,1.4-1.6,2.4-2.3c0-0.2,0-0.5,0-0.7
			c0.1-2.2,0.9-4.2,2.1-5.7c0,0,0.1-0.1,0.1-0.1c1.2-1.4,2.8-2.4,4.4-2.6c0.1-0.2,0.1-0.4,0.2-0.6c0.6-1.5,1.7-2.8,3.1-3.7
			c1.4-0.8,3.1-1.2,4.8-0.8c1.5,0.3,2.9,1.2,4.1,2.7c1.1-1.6,2.6-2.4,4.1-2.7c1.5-0.3,3.1,0,4.4,0.6c1.3,0.7,2.5,1.7,3.1,3
			C191.7,289.4,191.9,289.9,192,290.4L192,290.4z M192.4,319.4c0.7-0.3,1.5-0.9,2-1.7c0.8-1.1,1.2-2.7,1-4.4l0,0l0,0l0,0
			c-0.1-0.7,0.2-1.3,0.8-1.7c1.1-0.6,1.8-1.3,2.3-2c0.6-0.8,0.9-1.6,0.9-2.5c0-0.8-0.2-1.7-0.7-2.5c-0.4-0.7-1-1.4-1.8-2
			c-0.6-0.4-0.9-1.2-0.7-2c0.3-0.7,0.3-1.5,0.2-2.2c-0.1-1.1-0.6-2-1.3-2.8c-0.7-0.8-1.5-1.4-2.4-1.7c-0.4-0.1-0.7-0.2-1.1-0.2
			c-0.3,0.8-0.7,1.6-1.4,2.4c-0.6,0.7-1.7,0.8-2.4,0.2s-0.8-1.7-0.2-2.4c1-1.2,1-2.4,0.5-3.4c-0.4-0.7-1-1.2-1.7-1.6
			c-0.7-0.4-1.5-0.5-2.2-0.3c-1.1,0.2-2.1,1.1-2.8,3v28.7c0.1,0.2,0.2,0.4,0.3,0.7c0.4,2.4,1.4,3.5,2.5,3.8c1,0.3,2.2-0.1,3.2-0.7
			c0.9-0.7,1.6-1.7,1.6-2.7c0-1.2-0.9-2.5-3.3-3.7c-0.8-0.4-1.2-1.5-0.7-2.3c0.4-0.8,1.5-1.2,2.3-0.7
			C190.4,316,191.8,317.7,192.4,319.4L192.4,319.4z M167.7,293.9c-0.7,0.2-1.4,0.7-1.9,1.4c0,0,0,0.1-0.1,0.1
			c-0.8,0.9-1.3,2.2-1.4,3.7c0,0.4,0,0.8,0.1,1.2l0,0c0.1,0.6-0.2,1.3-0.8,1.7c-1,0.6-1.8,1.3-2.3,2c-0.6,0.8-0.9,1.7-0.9,2.6
			c0,0.9,0.3,1.7,0.7,2.5c0.4,0.7,1,1.3,1.7,1.8c0.6,0.4,0.9,1.2,0.7,1.9c-0.3,0.8-0.3,1.6-0.2,2.3c0.1,1,0.6,2,1.3,2.8
			c0.7,0.8,1.5,1.3,2.4,1.6c0.3,0.1,0.6,0.2,0.8,0.2c0.6-1.8,2.2-3.6,5-5c0.8-0.4,1.9-0.1,2.3,0.7c0.4,0.8,0.1,1.9-0.7,2.3
			c-2.5,1.3-3.5,2.7-3.5,4c0,1,0.6,1.9,1.4,2.5c0.8,0.6,1.9,1,2.9,0.8c1.2-0.3,2.5-1.4,3.1-4c0-0.2,0.1-0.3,0.2-0.5v-27.2
			c0-0.1-0.1-0.1-0.1-0.2l0,0l0,0l0,0v0v0l0,0v0v0h0l0,0c0,0,0-0.1,0-0.1c-0.6-2.6-1.9-3.7-3.1-4c-0.8-0.2-1.7,0-2.4,0.5
			c-0.7,0.4-1.4,1.1-1.6,1.9c-0.4,1-0.1,2.3,1.1,3.5c0.7,0.6,0.7,1.7,0.1,2.4c-0.6,0.7-1.7,0.7-2.4,0.1
			C168.8,296,168.1,295,167.7,293.9L167.7,293.9z M168.1,299.5c0.7-0.7,1.7-0.7,2.4,0c0.7,0.7,0.7,1.7,0,2.4
			c-1.2,1.1-1.8,2.6-1.9,4.2c-0.1,1.6,0.4,3.2,1.5,4.5c0.6,0.7,0.5,1.8-0.3,2.4c-0.7,0.6-1.8,0.5-2.4-0.3c-1.6-2-2.4-4.4-2.3-6.8
			C165.3,303.6,166.3,301.3,168.1,299.5L168.1,299.5z M188.4,301.3c-0.8-0.6-0.9-1.6-0.4-2.4c0.6-0.8,1.6-0.9,2.4-0.4
			c0.3,0.2,0.6,0.4,0.8,0.7c1.9,1.7,3,4,3.2,6.4c0.2,2.3-0.5,4.7-1.9,6.8c0,0-0.1,0.1-0.1,0.1c-0.2,0.3-0.4,0.5-0.6,0.7
			c-0.6,0.7-1.7,0.7-2.4,0.1c-0.7-0.6-0.7-1.7-0.1-2.4c0.2-0.2,0.3-0.3,0.4-0.5c0,0,0-0.1,0.1-0.1c1-1.4,1.4-3,1.3-4.5
			c-0.1-1.5-0.8-3-2-4.1C188.8,301.6,188.6,301.5,188.4,301.3L188.4,301.3z M114.3,312.8c-1.4,0-2.6-1.1-2.6-2.5
			c0-1.4,1.1-2.6,2.5-2.6l10.5-0.4c1.4,0,2.6,1.1,2.6,2.5c0,1.4-1.1,2.6-2.5,2.6L114.3,312.8L114.3,312.8z M245.5,302.4
			c1.4-0.1,2.7,0.9,2.8,2.3c0.1,1.4-0.9,2.7-2.3,2.8l-10.5,1.1c-1.4,0.1-2.7-0.9-2.8-2.3c-0.1-1.4,0.9-2.7,2.3-2.8L245.5,302.4
			L245.5,302.4z M226.4,259.5c0.8-1.2,2.4-1.5,3.5-0.7c1.2,0.8,1.5,2.4,0.7,3.5l-5.9,8.8c-0.8,1.2-2.4,1.5-3.5,0.7
			c-1.2-0.8-1.5-2.4-0.7-3.5L226.4,259.5L226.4,259.5z M181.4,244.1c0-1.4,1.2-2.5,2.6-2.5c1.4,0,2.5,1.2,2.5,2.6l-0.3,10.5
			c0,1.4-1.2,2.5-2.6,2.5c-1.4,0-2.5-1.2-2.5-2.6L181.4,244.1L181.4,244.1z M128.4,260.4c-1-1-1.1-2.6-0.1-3.6c1-1,2.6-1.1,3.6-0.1
			l7.7,7.2c1,1,1.1,2.6,0.1,3.6c-1,1-2.6,1.1-3.6,0.1L128.4,260.4L128.4,260.4z M169.6,358.9l22.4-3.2c1.9-8.1,6.1-13,10.6-18.2
			c3.7-4.3,7.7-9,10.6-16.1c2.1-5.3,2.9-10.2,2.8-14.7c-0.1-4.5-1.2-8.7-2.7-12.5c-2.8-6.8-7.9-12.2-14.1-15.9
			c-5-2.9-10.6-4.8-16.4-5.3c-5.8-0.5-11.7,0.2-17.1,2.4c-6.4,2.6-12.1,7.2-16.2,14.2c-3.2,6.2-4.7,12.1-4.7,17.8
			c0,5.7,1.3,11.3,3.9,16.7c2.6,5.5,6,9.4,9.3,13.2C163,343.1,167.9,348.6,169.6,358.9L169.6,358.9L169.6,358.9z M191,361.4l-20.9,3
			c0.1,1.3,0.1,2.7,0.1,4.2l20.6-2.9C190.8,364.1,190.9,362.7,191,361.4L191,361.4L191,361.4z M170.3,374.1c0.1,1.1,0.4,2.1,0.6,3.1
			l20-2.5c0.1-1,0.2-2.1,0.1-3.3l0,0v0l0-0.2L170.3,374.1L170.3,374.1L170.3,374.1z M173.8,382.3c0.8,0.8,1.6,1.4,2.5,1.9
			c1.4,0.7,2.9,1,4.4,0.9c1.5-0.1,3.1-0.6,4.5-1.4c1.3-0.8,2.5-1.9,3.5-3.2L173.8,382.3L173.8,382.3L173.8,382.3z"/>
	</g>
	<g>
		<g>
			<path d="M115.7,241.2c-1.3,1.1-2.5,2.2-3.8,3.4c-0.6,0.5-1.2,0.8-1.8,0.8c-0.7,0-1.2-0.2-1.6-0.6c0,0-0.1-0.1-0.1-0.1
				c-3.4-4.2-7.3-8.6-11.7-13.1c-0.4-0.4-0.9-0.9-1.3-1.3c-4-4-7.9-7.9-11.9-11.6c-0.5-0.5-0.6-1.1-0.4-1.9c0.2-0.8,0.7-1.6,1.4-2.3
				c1.3-1.2,2.5-2.3,3.8-3.4c0,0,0,0-0.1-0.1c6-5.1,12.3-9.5,18.8-13.4c0.9-0.5,1.7-0.7,2.5-0.7c0.8,0,1.3,0.3,1.6,0.8
				c0.6,1,1.2,2.1,1.8,3.1c0.3,0.5,0.3,1.2-0.1,1.9c-0.3,0.7-0.9,1.3-1.7,1.8c-4.5,2.7-8.9,5.8-13.2,9.1c1.7,2.2,3.5,4.6,5.5,7.1
				c2.9-2.2,5.9-4.3,8.9-6.2c0.7-0.5,1.5-0.7,2.2-0.6c0.7,0.1,1.2,0.3,1.5,0.9c0.6,1,1.3,2,1.9,3c0.3,0.5,0.4,1.1,0.1,1.8
				c-0.2,0.7-0.7,1.2-1.4,1.7c-2.8,1.8-5.6,3.8-8.2,5.9c3.3,4.3,5.9,7.9,7.9,10.6c0.3,0.5,0.4,1.1,0.3,1.7
				C116.6,240.2,116.3,240.7,115.7,241.2z"/>
			<path d="M145.7,223.8C145.7,223.8,145.7,223.8,145.7,223.8c-4,1.2-7.7,1-11.7-0.6c-3.2-1.5-5.8-4-7.8-7.8c0-0.1-0.1-0.2-0.1-0.2
				c-2.3-4.6-2.6-9-0.4-13.3c1.2-2.4,3.3-4.4,6.1-5.9c0.9-0.5,1.9-0.9,2.9-1.3c2-0.7,4.2-1.1,6.4-1.2c2.3-0.1,4.3,0.2,6,0.8
				c2.6,1,4.6,2.5,6,4.3c1.4,1.9,2.2,3.9,2.7,6c1.1,5.9,0,10.6-3,14.3C151,221.1,148.6,222.7,145.7,223.8z M142.9,216.3
				C142.9,216.3,142.9,216.3,142.9,216.3c1.2-0.5,2-1,2.5-1.8c0.4-0.5,0.5-1.3,0.6-2.4c0-0.9-0.1-2.1-0.6-3.5
				c-0.1-0.4-0.3-0.7-0.4-1.1c-1.5-3.9-3.4-5.8-5.6-5.6c-0.3,0.1-0.6,0.2-0.9,0.2c-0.9,0.3-1.5,0.7-1.8,1.2c-1.2,1.6-1.2,4-0.2,7.2
				c0.1,0.3,0.2,0.7,0.4,1c1.1,2.8,2.5,4.4,4.1,4.9C141.5,216.6,142.2,216.6,142.9,216.3z"/>
			<path d="M178.3,218.4c-2.4,0-4.9-0.5-7.7-1.4c-2.5-0.9-4.5-2.2-6.2-4.2c-2.2-2.5-3.7-5.5-4.3-9.1c-0.3-1.6-0.3-3.3,0-4.9
				c0.7-3.7,2.6-6.7,5.9-8.8c3-2,6.8-3,11.3-3.1c0.4,0,0.9,0,1.3,0c3.5,0.2,6.3,1.1,8.2,2.3c1.9,1.3,3.2,2.7,3.8,4.1
				c0.7,1.5,0.9,2.8,0.8,3.9c-0.1,0.7-0.4,1.2-1,1.5c-0.6,0.4-1.3,0.5-2.1,0.4c-1.1-0.1-2.2-0.2-3.4-0.3c-0.7-0.1-1.2-0.3-1.7-0.6
				c-0.5-0.3-0.8-0.8-0.9-1.3c0-0.1-0.2-0.3-0.4-0.6c-0.2-0.3-0.7-0.6-1.3-0.9c-0.8-0.3-1.9-0.5-3.2-0.5c-2.5,0-4.3,0.9-5.5,2.4
				c-1.2,1.6-1.7,3.4-1.6,5.4c0.1,1.8,0.7,3.5,1.7,5c1.2,1.9,3,2.8,5.3,3c0.2,0,0.3,0,0.5,0c0.7,0,1.5-0.1,2.5-0.4
				c1-0.3,1.8-0.9,2.3-2c0.5-0.9,1.4-1.4,2.6-1.3c1,0.1,2,0.2,3.1,0.3c0.8,0.1,1.4,0.4,1.9,0.9c0.5,0.5,0.6,1.1,0.6,1.7
				c-0.7,3.2-2.7,5.5-6,7C182.8,217.9,180.6,218.4,178.3,218.4z"/>
			<path d="M220.6,228.1c-1.7-0.8-3.4-1.6-5.1-2.3c-0.5-0.2-0.9-0.6-1.1-1c-0.2-0.5-0.3-1-0.1-1.5c-1.7,0.1-3.9-0.4-6.6-1.3
				c-1.9-0.6-3.7-1.5-5.3-2.8c-1.6-1.2-2.8-2.6-3.7-4.1c-1.8-3.6-2.4-8.4-1.4-14.5c0.4-2.5,0.9-4.8,1.6-7c0.2-0.8,0.4-1.6,0.6-2.4
				c0.1-0.5,0.5-0.9,1-1.1c0.6-0.2,1.2-0.3,1.9-0.2c2.8,0.5,5.5,1.2,8.3,1.9c0.7,0.2,1.3,0.5,1.7,1c0.4,0.5,0.5,1,0.4,1.5
				c0,0.1-0.1,0.3-0.1,0.4c-0.8,2.4-1.8,5.5-2.9,9.3c-0.3,0.9-0.5,1.8-0.8,2.7c-1.1,4.4-0.3,6.9,2.4,7.8c2.1,0.7,4.2-0.9,6.2-5.1
				c1.3-2.6,2.6-5.5,3.8-8.9c0.4-1,0.8-2.1,1.2-3.1c0.2-0.5,0.6-0.8,1.2-0.9c0.6-0.1,1.3,0,2.1,0.3c3,1.2,5.9,2.6,8.8,4
				c0.7,0.3,1.2,0.8,1.5,1.4c0.3,0.6,0.3,1.1,0.1,1.6c-0.1,0.1-0.1,0.2-0.2,0.3c-4.8,8.8-9,16.4-12.7,22.9c-0.1,0.1-0.1,0.2-0.2,0.3
				c-0.3,0.5-0.7,0.7-1.2,0.9C221.5,228.4,221,228.4,220.6,228.1z"/>
			<path d="M235.6,237.3c-1.6-1.2-2.9-2.4-3.9-3.7c-1.1-1.5-1.7-2.9-1.8-4.3c-0.1-1.4-0.1-2.5,0.2-3.5c0.3-0.9,0.4-1.5,0.6-1.7
				c0.2-0.3,0.3-0.6,0.5-1c0.3-0.4,0.7-0.7,1.2-0.8c0.6-0.1,1.1,0,1.7,0.4c1.1,0.7,2.2,1.5,3.3,2.2c0.5,0.3,0.8,0.7,1,1.1
				c0.2,0.4,0.2,0.9,0,1.3c-0.1,0.2-0.2,0.5-0.3,0.7c-0.2,0.4-0.2,0.9-0.1,1.6c0.2,0.6,0.7,1.3,1.6,1.9c0.3,0.2,0.5,0.4,0.6,0.4
				c0.3,0.2,0.6,0.4,0.9,0.4c0.2,0.1,0.4,0.1,0.5,0.1c0.1,0,0.2-0.1,0.4-0.3c0.4-0.5,0.3-1.5-0.2-2.9c-0.9-2.4-1.7-4.8-2.5-7.4
				c-1.2-4-1.4-7-0.2-9.1c1.1-1.9,3-3.1,5.6-3.4c2.6-0.2,5.5,0.4,8.6,2c1.4,0.7,2.6,1.5,3.8,2.5c1.5,1.2,2.9,2.6,4,4.1
				c3.4,4.8,3.6,8.9,1,12c-0.2,0.2-0.4,0.5-0.7,0.7c-0.4,0.4-0.9,0.5-1.5,0.4c-0.6-0.1-1.2-0.4-1.8-0.9c-1.1-1.1-2.2-2.2-3.4-3.3
				c-0.5-0.4-0.8-0.9-0.9-1.4c-0.2-0.5-0.1-1,0.1-1.4c0.1-0.2,0.2-0.5,0.4-0.7c0.2-0.3,0.3-0.8,0.1-1.4c-0.2-0.6-0.7-1.3-1.7-2
				c-0.5-0.4-1-0.7-1.6-0.8c-0.6-0.1-1,0-1.3,0.5c-0.5,0.7-0.6,1.8-0.2,3.2c0.4,1.4,1.1,3.2,2,5.4c0.7,1.7,1.2,3.4,1.7,5.1
				c0.5,2.2,0.1,4.2-1,5.9c-0.2,0.3-0.4,0.6-0.7,0.8c-1.2,1.2-2.8,1.8-4.9,2c-1.9,0.1-3.8-0.4-5.8-1.3
				C239.1,239.6,237.3,238.5,235.6,237.3z"/>
		</g>
	</g>
	<g>
		<g>
			<path d="M111.3,436.6c-2.1-1.4-4.1-2.8-6.2-4.3c-0.9-0.6-1.5-1.4-1.8-2.2c-0.3-0.8-0.3-1.5,0.1-2c6.1-7.5,12.7-15.6,19.9-24.4
				c-2.5-2-4.4-3.8-5.8-5.2c-0.6-0.6-0.9-1.2-0.9-1.9c-0.1-0.7,0.1-1.2,0.5-1.6c0.6-0.6,1.2-1.2,1.8-1.8c0.4-0.4,1-0.6,1.7-0.6
				c0.7,0.1,1.3,0.3,1.8,0.8c6.9,6.6,14,11.1,20.5,14.3c0.6,0.3,1.1,0.8,1.3,1.4c0.3,0.6,0.3,1.2,0,1.7c-0.4,0.8-0.7,1.6-1.1,2.4
				c-0.3,0.6-0.7,1-1.4,1.1c-0.7,0.2-1.3,0.1-2.1-0.2c-0.2-0.1-0.3-0.2-0.5-0.2c-1.7-0.8-4-2-6.6-3.7c-2.6,4.3-5.5,9-8.8,14.2
				c-3.3,5.2-6,9.3-8.2,12.4c-0.4,0.5-1,0.7-1.8,0.7C113,437.5,112.1,437.2,111.3,436.6z"/>
			<path d="M143.3,451.2c-2.2-0.6-4.4-1.4-6.5-2.1c-1-0.4-1.7-0.9-2.2-1.5c-0.5-0.7-0.7-1.3-0.4-1.9c4.1-10,7.4-17.6,9.7-23
				c0.3-0.6,0.7-0.9,1.4-1.1c0.7-0.2,1.3-0.2,2.1,0.1c1.7,0.6,3.4,1.1,5.1,1.6c0.8,0.2,1.3,0.6,1.8,1.2c0.4,0.6,0.6,1.1,0.4,1.8
				c-0.1,0.4-0.2,0.9-0.3,1.3c-0.7,2.8-1.7,6.5-3.1,11.1c-1.4,4.7-2.6,8.5-3.7,11.5c-0.3,0.6-0.8,1-1.5,1.2
				C145.1,451.5,144.3,451.5,143.3,451.2z M150.3,419.8c-1.5-0.5-2.6-1.3-3.1-2.3c-0.8-1.2-0.9-2.4-0.4-3.7c1.2-2.7,3.3-3.7,6.1-3.3
				c0.3,0.1,0.6,0.1,0.8,0.2c1.3,0.4,2.3,1.1,3.1,2.2c0.8,1.2,1,2.4,0.7,3.6c0,0,0,0.1,0,0.1c-0.9,2.6-2.9,3.8-6,3.3
				C151,420,150.6,419.9,150.3,419.8z"/>
			<path d="M218.7,449.4c-2.5,0.9-5,1.7-7.5,2.4c-1,0.3-2,0.3-2.7,0c-0.8-0.3-1.3-0.7-1.4-1.3c-0.8-3.8-1.5-6.9-2.1-9.6
				c-0.2-0.9-0.5-1.8-0.7-2.7c-1.3-4.4-3.4-6.2-6.6-5.5c-0.8,0.2-1.5,0.5-1.9,0.9c-1.2,1.3-1.8,3.8-1.6,7.7c0.2,1.2,0.4,2.3,0.6,3.4
				c0.4,2.7,0.6,5.2,0.6,7.3c0,0.3,0.1,0.6,0.1,1c0.1,0.6-0.2,1.1-0.8,1.6c-0.6,0.5-1.3,0.8-2.3,0.9c-2.9,0.3-5.8,0.6-8.7,0.7
				c-1,0-1.8-0.1-2.5-0.5c-0.7-0.4-1-0.9-1-1.5c0-0.1,0-0.1,0-0.2c0.1-3.8,0.1-7.1,0.1-9.8c0-0.9-0.1-1.9-0.1-2.8
				c-0.2-4.6-2-6.8-5.2-6.9c-2.4-0.1-4,1.8-4.9,5.8c-0.6,5.5-1.1,9.9-1.7,13.4c0,0.3-0.1,0.6-0.1,0.9c0,0.4-0.3,0.7-0.7,0.9
				c-0.4,0.2-0.9,0.3-1.5,0.2c-3.3-0.3-6.6-0.8-9.9-1.4c-0.6-0.1-1.1-0.3-1.4-0.7c-0.4-0.3-0.5-0.7-0.4-1c0.1-0.3,0.1-0.6,0.2-0.9
				c2.1-9.9,4.1-18.4,5.7-25.7c0.1-0.3,0.1-0.6,0.2-0.9c0.1-0.3,0.3-0.6,0.7-0.8c0.4-0.2,0.7-0.2,1.2-0.2c2.6,0.5,5.2,0.8,7.8,1
				c0.8,0.1,1.3,0.3,1.3,0.6c0,0.2,0,0.5-0.1,0.7c1.4-0.2,3.2-0.2,5.4-0.2c3.8,0.2,7,1.1,10,2.9c0.9-1.1,2.1-2.1,3.8-2.9
				c1.7-0.8,3.9-1.4,6.8-2.1c4.4-0.8,8.3-0.4,12,1.3c3.8,2.1,7,5.9,9.2,11.6c0.9,2.3,1.7,4.6,2.3,6.9c0,0.1,0,0.2,0,0.2
				c0.2,0.7,0.4,1.3,0.5,1.9c0.2,0.6,0,1.2-0.5,1.8C220.4,448.6,219.7,449.1,218.7,449.4z"/>
			<path d="M250.5,432.4c-3.5,2.6-7.6,4.5-12.1,5.7c-3.6,0.8-6.7,0.5-9.2-0.6c-3-1.3-5.1-3.6-6.4-6.5c-0.8-1.8-1.3-3.8-1.4-5.8
				c-0.1-4,0.9-7.4,2.9-10.6c1.7-2.6,3.9-4.8,6.8-6.9c0.7-0.5,1.4-1,2.1-1.4c2.7-1.6,5.1-2.7,7.3-3c2.1-0.3,4-0.3,5.5,0.2
				c1.3,0.5,2.4,1,3.1,1.7c0.1,0.1,0.2,0.2,0.2,0.2c0.4,0.3,0.8,0.7,1.3,1c0.8,0.7,1.3,1.2,1.6,1.4c0.3,0.3,0.5,0.7,0.6,1.2
				c0.1,0.5,0.1,1.1-0.1,1.6c-0.4,1.2-1.1,2.4-2.2,3.5c-0.7,0.7-1.4,1.4-2.1,2.2c-6.3,6.2-10.9,9.4-12.9,10.9
				c0.7,0.7,1.6,1.3,2.6,1.6c2.3,0.9,4.7,0.6,7-0.9c0.3-0.2,0.6-0.4,0.9-0.6c2.7-2,3.9-3.9,3.5-5.4c-0.1-0.6,0-1.1,0.3-1.8
				c0.3-0.6,0.8-1.2,1.4-1.7c1.1-0.9,2.2-1.8,3.3-2.7c0.8-0.7,1.6-1.1,2.3-1.2c0.7-0.1,1.3,0,1.7,0.4c0.1,0.1,0.1,0.1,0.2,0.2
				c1.6,2.4,1.3,5.8-1.2,9.9C255.8,427.7,253.4,430.2,250.5,432.4z M232.2,420.8c3.4-2.5,6.7-5.3,9.9-8.3c-0.1-0.1-0.2-0.2-0.3-0.3
				c-0.1-0.1-0.4-0.3-0.9-0.5c-0.5-0.3-1.1-0.4-1.9-0.5c-0.8,0-1.7,0.2-2.7,0.8c-0.3,0.2-0.6,0.4-0.9,0.6c-1.6,1.2-2.6,2.6-3,4.5
				C232.1,418.2,232,419.5,232.2,420.8z"/>
		</g>
	</g>
</g>
</svg>
