<svg id="Layer_1" data-name="Layer 1" xmlns="http://www.w3.org/2000/svg" width="85.14mm" height="19.17mm" viewBox="0 0 241.33 54.35">
  <defs>
    <style>
      .cls-1 {
        fill: #231f20;
      }
    </style>
  </defs>
  <text x="-9.15" y="-25.35"/>  <g>
    <path class="cls-1" d="M27.86,65.12V76L24.05,79.7V65.86h-.68a14.05,14.05,0,0,1-7-1.84,12.37,12.37,0,0,1-4.72-4.34,18.72,18.72,0,0,1-2-4.28,14.28,14.28,0,0,1-.49-3.82,14.19,14.19,0,0,1,7.14-12.34,14,14,0,0,1,7.08-1.88h.68V25.78H36.48V29.6H27.86v7.76H36.3L37.59,41H27.86V61.12a10,10,0,0,0,3-2.15l2.52,2.77a13.61,13.61,0,0,1-5.29,3.38Zm-3.81-3.07V41h-.68a11.29,11.29,0,0,0-2.81.31,11.18,11.18,0,0,0-3,1.38,9.41,9.41,0,0,0-3.19,3.59A10.66,10.66,0,0,0,13,51.55a10.27,10.27,0,0,0,3,7.37,9.91,9.91,0,0,0,7.38,3.13Z" transform="translate(-9.15 -25.35)"/>
    <path class="cls-1" d="M47.38,29.6v7.7h8.37L57.05,41H47.38V68.14h8.56V72H43.56V41h-2L40.3,37.3h3.26V25.78H55.94V29.6Z" transform="translate(-9.15 -25.35)"/>
    <path class="cls-1" d="M66.83,29.6v7.7h8.38L76.5,41H66.83V68.14h8.56V72H63V41H61L59.75,37.3H63V25.78H75.39V29.6Z" transform="translate(-9.15 -25.35)"/>
    <path class="cls-1" d="M86.35,72H82.53V41H80.44L79.21,37.3h3.32V25.78H94.91V29.6H86.35v7.7h8.37L96,41H86.35Z" transform="translate(-9.15 -25.35)"/>
    <path class="cls-1" d="M105.8,29.6v7.7h8.38L115.47,41H105.8V68.14h8.56V72H102V41h-2L98.72,37.3H102V25.78h12.37V29.6Z" transform="translate(-9.15 -25.35)"/>
    <path class="cls-1" d="M118.18,25.78H122a17.62,17.62,0,0,1,9.23,2.56,19.16,19.16,0,0,1,6.8,7,18.43,18.43,0,0,1,2.56,9.45,18.68,18.68,0,0,1-3.85,11.32,17,17,0,0,1-9.51,6.72L138.56,72l-5.52,0-11-8.79V72h-3.82ZM122,59.89a14,14,0,0,0,5.72-1.14,19.55,19.55,0,0,0,5.82-4.52q3.22-3.39,3.23-9.48,0-6.28-3.26-9.58a20.65,20.65,0,0,0-5.85-4.43A13.86,13.86,0,0,0,122,29.6Z" transform="translate(-9.15 -25.35)"/>
    <path class="cls-1" d="M182.45,58.47a21.44,21.44,0,0,1-5.17,1.79v7.88h8.25V72H173.46V60.57a14.68,14.68,0,0,1-6.34-1.39A23.66,23.66,0,0,1,160.5,54q-3.66-3.81-3.66-10.77a17,17,0,0,1,2.31-8.71,17.26,17.26,0,0,1,6.4-6.35,17,17,0,0,1,8.65-2.37h3.08V56.44A14.34,14.34,0,0,0,181,55Zm-9-1.72V29.6a11.21,11.21,0,0,0-4.86,1.08,18.63,18.63,0,0,0-5.11,4q-2.84,3-2.83,8.5,0,5.85,3,8.74a20.61,20.61,0,0,0,5.11,3.85A11.28,11.28,0,0,0,173.46,56.75Z" transform="translate(-9.15 -25.35)"/>
    <path class="cls-1" d="M191.56,41h-2.09l-1.23-3.69h3.32v-4a7.8,7.8,0,0,1,2.25-5.6,8.16,8.16,0,0,1,8.77-1.75A8.44,8.44,0,0,1,205,27.63a7.7,7.7,0,0,1,2.37,5.66V72h-3.82V41h-8.19V72h-3.82Zm12-3.69v-4a4.52,4.52,0,0,0-1.07-2.95,3.78,3.78,0,0,0-3.09-1.29,4.16,4.16,0,0,0-2.81,1.07,4,4,0,0,0-1.22,3.17v4Z" transform="translate(-9.15 -25.35)"/>
    <path class="cls-1" d="M219.51,38.54a16.92,16.92,0,0,1,8.59,6.34,17.31,17.31,0,0,1,3.42,10.46,15.92,15.92,0,0,1-2.34,8.53,16.18,16.18,0,0,1-6.53,5.93,19.3,19.3,0,0,1-9,2.16h-3.57V25.78H214a7.4,7.4,0,0,1,3.84,1,8,8,0,0,1,2.82,2.81,7.35,7.35,0,0,1,1.08,3.88A6.45,6.45,0,0,1,219.51,38.54Zm-2.7-2.18a4,4,0,0,0-2.9-6.76v7.94A3.91,3.91,0,0,0,216.81,36.36Zm-2.9,31.78a14.9,14.9,0,0,0,7.05-1.6,12.72,12.72,0,0,0,4.9-4.48,12.15,12.15,0,0,0,1.84-6.69,13.58,13.58,0,0,0-1.81-6.82,14.35,14.35,0,0,0-5.11-5.19,13.1,13.1,0,0,0-6.87-2Z" transform="translate(-9.15 -25.35)"/>
    <path class="cls-1" d="M240.38,72h-6.15V68.14h6.15a5.9,5.9,0,0,0,4.47-1.91,6.16,6.16,0,0,0,1.81-4.37,6.54,6.54,0,0,0-.36-2.34L236.57,38.4a8.81,8.81,0,0,1-.74-3.69,8.7,8.7,0,0,1,2.58-6.28,8.49,8.49,0,0,1,6.28-2.65h4.56V29.6h-4.53a4.94,4.94,0,0,0-3.54,1.47,4.85,4.85,0,0,0-1.53,3.66,5.21,5.21,0,0,0,.36,2l9.57,20.92a9.45,9.45,0,0,1,.9,4.19A10.19,10.19,0,0,1,240.38,72Z" transform="translate(-9.15 -25.35)"/>
  </g>
</svg>
