<?xml version="1.0" encoding="utf-8"?>
<!-- Generator: Adobe Illustrator 26.0.3, SVG Export Plug-In . SVG Version: 6.00 Build 0)  -->
<svg version="1.1" id="_x30_" xmlns="http://www.w3.org/2000/svg" xmlns:xlink="http://www.w3.org/1999/xlink" x="0px" y="0px"
	 viewBox="0 0 792 1368" style="enable-background:new 0 0 792 1368;" xml:space="preserve">
<style type="text/css">
	.st0{fill:none;stroke:#000000;stroke-width:0.7087;stroke-linecap:round;stroke-linejoin:round;stroke-miterlimit:10;}
</style>
<g id="LWPOLYLINE">
	<path class="st0" d="M387,297.1C173.3,302,4.1,479.3,9.1,692.9s182.2,382.9,395.9,377.9s382.9-182.2,377.9-395.9
		C778.1,468.3,611.7,301.9,405,297.1V314c197.3,4.8,356.2,163.6,361,361c5,204.3-156.6,374-361,379S31,897.3,26,692.9
		s156.6-374,361-379V297.1z"/>
</g>
<g id="ARC">
	<path class="st0" d="M387,314c-204.3,5-365.9,174.6-361,379s174.6,365.9,379,361s365.9-174.6,361-379
		c-4.8-197.3-163.6-356.2-361-361"/>
</g>
</svg>
