<?xml version="1.0" encoding="utf-8"?>
<!-- Generator: Adobe Illustrator 26.0.1, SVG Export Plug-In . SVG Version: 6.00 Build 0)  -->
<svg version="1.1" id="Layer_1" xmlns="http://www.w3.org/2000/svg" xmlns:xlink="http://www.w3.org/1999/xlink" x="0px" y="0px"
	 viewBox="0 0 522 378" style="enable-background:new 0 0 522 378;" xml:space="preserve">
<style type="text/css">
	.st0{fill:none;stroke:#000000;stroke-linecap:round;stroke-linejoin:round;stroke-miterlimit:10;}
</style>
<path class="st0" d="M0,198c0,9.9,8.1,18,18,18"/>
<path class="st0" d="M504,216c9.9,0,18-8.1,18-18"/>
<path class="st0" d="M522,18c0-9.9-8.1-18-18-18"/>
<path class="st0" d="M18,0C8.1,0,0,8.1,0,18"/>
<line class="st0" x1="18" y1="0" x2="504" y2="0"/>
<line class="st0" x1="0" y1="18" x2="0" y2="198"/>
<line class="st0" x1="522" y1="18" x2="522" y2="198"/>
<line class="st0" x1="149.4" y1="255.6" x2="372.6" y2="255.6"/>
<line class="st0" x1="149.4" y1="255.6" x2="149.4" y2="216"/>
<line class="st0" x1="372.6" y1="255.6" x2="372.6" y2="216"/>
<line class="st0" x1="18" y1="216" x2="149.4" y2="216"/>
<line class="st0" x1="372.6" y1="216" x2="504" y2="216"/>
<g>
	<path d="M209.9,47.1h11.3l-5.4,31.7h16.3l-1.7,9.8h-27.6L209.9,47.1z"/>
	<path d="M241.6,47.1h28.1l-1.7,9.3h-17.2l-1,6.1h16l-1.6,9h-16l-1.4,7.8h17.2l-1.7,9.3h-28L241.6,47.1z"/>
	<path d="M271.3,57.3l1.8-10.2h33.9l-1.8,10.2h-11.2l-5.3,31.2h-11.4l5.4-31.2H271.3z"/>
	<path d="M312.6,47.1h10.5l-8.7,15.5h-7.5L312.6,47.1z"/>
	<path d="M331.5,73.4c0.9,2,2.1,3.7,3.5,4.9c1.4,1.3,3,1.9,5.1,1.9c1.3,0,2.4-0.3,3.4-0.9c1-0.6,1.6-1.5,1.7-2.6
		c0.2-0.9,0-1.6-0.6-2.2s-1.4-1.1-2.4-1.6s-2.3-1-3.7-1.6c-1.5-0.7-3-1.6-4.5-2.7c-1.5-1.1-2.7-2.6-3.6-4.3c-0.9-1.7-1.2-3.7-1-6.1
		c0.3-2.6,1.3-4.8,2.9-6.6c1.6-1.8,3.7-3.2,6.1-4.2c2.4-0.9,5-1.4,7.7-1.4c2.6,0,4.8,0.4,6.7,1.3c1.9,0.8,3.5,2,4.7,3.4
		c1.3,1.4,2.2,2.9,3,4.6l-9,4.6c-0.7-1.3-1.6-2.3-2.5-3.1c-1-0.8-2.2-1.2-3.7-1.2c-1.1,0-2.1,0.2-2.9,0.7c-0.8,0.5-1.4,1.2-1.5,2
		c-0.2,0.9,0.2,1.7,1,2.3c0.8,0.7,1.9,1.2,3.1,1.7c1.3,0.5,2.5,1,3.7,1.4c2.8,1.1,5.1,2.7,6.6,4.9c1.6,2.1,2.2,4.7,1.9,7.8
		c-0.4,2.9-1.4,5.3-3.2,7.4c-1.8,2-3.9,3.6-6.5,4.6c-2.6,1.1-5.2,1.6-8.1,1.6c-2.6,0-5-0.5-7.2-1.4s-4.1-2.2-5.6-3.9
		c-1.6-1.7-2.7-3.6-3.4-5.7L331.5,73.4z"/>
	<path d="M401.6,73.9l1.5-8.5H424c-0.3,3.3-1.1,6.5-2.3,9.4c-1.2,3-2.8,5.6-4.9,7.9c-2.1,2.3-4.5,4.1-7.4,5.4c-2.9,1.3-6.2,2-9.9,2
		c-3.3,0-6.2-0.6-8.8-1.7s-4.7-2.7-6.5-4.8c-1.7-2-3-4.4-3.7-7.1c-0.7-2.7-0.8-5.6-0.4-8.7c0.5-3.2,1.5-6.1,3-8.8
		c1.6-2.7,3.5-5,5.9-6.9s5.1-3.4,8-4.5c3-1.1,6.1-1.6,9.4-1.6c4.1,0,7.6,0.9,10.4,2.8c2.8,1.9,5.1,4.3,6.9,7.3l-10.9,4.9
		c-0.6-1.5-1.5-2.8-2.7-3.8c-1.2-1-2.7-1.5-4.7-1.5c-2.2,0-4.3,0.5-6.2,1.5c-1.9,1-3.5,2.4-4.8,4.3c-1.3,1.8-2.2,3.9-2.5,6.2
		c-0.4,2.2-0.3,4.3,0.3,6.1c0.5,1.9,1.5,3.4,2.9,4.6c1.4,1.2,3.3,1.7,5.6,1.7c2.6,0,4.7-0.6,6.4-1.7c1.7-1.2,3-2.7,4-4.6H401.6z"/>
	<path d="M427.5,67.8c0.5-3.1,1.5-6,3-8.6c1.5-2.6,3.4-5,5.7-6.9c2.3-2,4.9-3.5,7.8-4.6c2.9-1.1,5.9-1.6,9.1-1.6
		c3.2,0,6,0.6,8.5,1.7c2.5,1.1,4.6,2.7,6.3,4.7c1.7,2,2.9,4.3,3.6,6.9c0.7,2.6,0.8,5.5,0.4,8.5c-0.5,3.1-1.5,6-2.9,8.7
		c-1.5,2.7-3.4,5.1-5.7,7.1c-2.3,2-4.9,3.6-7.8,4.7c-2.9,1.1-6,1.7-9.2,1.7c-3.2,0-6.1-0.6-8.6-1.7c-2.5-1.2-4.6-2.8-6.2-4.8
		c-1.7-2.1-2.8-4.4-3.5-7.1C427.2,73.7,427.1,70.8,427.5,67.8z M439.5,67.8c-0.3,1.9-0.2,3.8,0.2,5.5c0.5,1.7,1.3,3.1,2.6,4.2
		c1.3,1.1,3,1.6,5.1,1.6c2.2,0,4.1-0.5,5.9-1.5c1.7-1,3.2-2.4,4.3-4.1c1.1-1.7,1.9-3.6,2.2-5.7c0.3-1.9,0.3-3.8-0.2-5.5
		c-0.4-1.7-1.3-3.1-2.5-4.2c-1.3-1.1-3-1.6-5.2-1.6c-2.2,0-4.1,0.5-5.9,1.5c-1.7,1-3.2,2.4-4.3,4.1S439.8,65.7,439.5,67.8z"/>
	<path d="M220.5,148.1c-0.4,2.8-1.4,5-3.1,6.7c-1.7,1.7-3.8,2.9-6.4,3.6c-2.6,0.8-5.4,1.1-8.5,1.1H185l7.1-41.4H208
		c1.9,0,3.7,0.2,5.4,0.6c1.7,0.4,3.3,1.1,4.6,1.9c1.3,0.9,2.3,2,3,3.3c0.7,1.3,0.8,2.9,0.6,4.8c-0.3,2.1-1.1,3.9-2.5,5.3
		c-1.3,1.5-3,2.6-4.9,3.5c2.1,0.9,3.8,2.2,5,3.9C220.4,143.2,220.9,145.4,220.5,148.1z M204,142.3h-4.8l-1.5,8.6h4.4
		c1.1,0,2.1-0.2,3.1-0.5c1-0.3,1.9-0.7,2.6-1.4s1.2-1.5,1.4-2.7c0.2-1.5-0.2-2.6-1.2-3.1C206.8,142.6,205.5,142.3,204,142.3z
		 M202,126.9l-1.4,7.6h3.2c1.4,0,2.7-0.4,3.7-1.1c1.1-0.7,1.7-1.7,2-2.9c0.2-1.2-0.1-2.1-0.8-2.7s-1.7-0.9-3.1-0.9H202z"/>
	<path d="M232,118.1h15.5c3.3,0,6,0.6,8.3,1.7s3.9,2.8,4.9,4.8c1,2.1,1.4,4.5,1,7.3c-0.4,3-1.4,5.5-3.1,7.6c-1.7,2.1-4,3.7-6.7,4.8
		l7.4,15.2h-12.8l-5.6-13.7h-2.4l-2.4,13.7h-11.3L232,118.1z M245.5,127.8h-3.8l-1.6,9.3h3.3c1.7,0,3.1-0.4,4.4-1.2
		c1.2-0.8,2-2,2.3-3.5c0.2-1.4-0.1-2.5-0.9-3.4C248.3,128.2,247.1,127.8,245.5,127.8z"/>
	<path d="M290.6,159.5l-2.1-6.7h-11.8l-4.4,6.7h-13.1l29.7-44.3l14.3,44.3H290.6z M285.4,135.1l-5.4,9.3h7.8L285.4,135.1z"/>
	<path d="M341.1,118.1h10.8l-7.4,43.4l-23-23.1l-3.7,21.1H307l7.4-43.4l23,23.1L341.1,118.1z"/>
	<path d="M368.4,159.5h-15.5l7.1-41.4h7.6h7.2c4.3,0,8,0.9,11.1,2.6c3,1.8,5.2,4.2,6.6,7.3c1.4,3.1,1.8,6.7,1.2,10.8
		c-0.7,4.2-2.2,7.8-4.4,10.9c-2.3,3.1-5.2,5.5-8.8,7.2C376.9,158.7,372.8,159.5,368.4,159.5z M373.2,128.1H370l-3.7,21.4h2.7
		c2.1,0,4-0.4,5.8-1.1c1.8-0.7,3.4-1.9,4.6-3.5c1.3-1.6,2.1-3.6,2.5-6.1c0.6-3.6,0-6.3-1.7-8.1C378.6,129,376.2,128.1,373.2,128.1z"
		/>
	<path d="M397.1,138.8c0.5-3.1,1.5-6,3-8.6c1.5-2.6,3.4-5,5.7-6.9c2.3-2,4.9-3.5,7.8-4.6c2.9-1.1,5.9-1.6,9.1-1.6
		c3.2,0,6,0.6,8.5,1.7c2.5,1.1,4.6,2.7,6.3,4.7c1.7,2,2.9,4.3,3.6,6.9c0.7,2.6,0.8,5.5,0.4,8.5c-0.5,3.1-1.5,6-2.9,8.7
		c-1.5,2.7-3.4,5.1-5.7,7.1c-2.3,2-4.9,3.6-7.8,4.7c-2.9,1.1-6,1.7-9.2,1.7c-3.2,0-6.1-0.6-8.6-1.7c-2.5-1.2-4.6-2.8-6.2-4.8
		c-1.7-2.1-2.8-4.4-3.5-7.1C396.8,144.7,396.7,141.9,397.1,138.8z M409.1,138.8c-0.3,1.9-0.2,3.8,0.2,5.5c0.5,1.7,1.3,3.1,2.6,4.2
		c1.3,1.1,3,1.6,5.1,1.6c2.2,0,4.1-0.5,5.9-1.5c1.7-1,3.2-2.4,4.3-4.1c1.1-1.7,1.9-3.6,2.2-5.7c0.3-1.9,0.3-3.8-0.2-5.5
		c-0.4-1.7-1.3-3.1-2.5-4.2c-1.3-1.1-3-1.6-5.2-1.6c-2.2,0-4.1,0.5-5.9,1.5c-1.7,1-3.2,2.4-4.3,4.1S409.4,136.7,409.1,138.8z"/>
	<path d="M477.7,118.1h10.8l-7.4,43.4l-23-23.1l-3.7,21.1h-10.8l7.4-43.4l23,23.1L477.7,118.1z"/>
	<path d="M490.2,155.5c0-1.7,0.6-3.1,1.7-4.1s2.7-1.6,4.5-1.6c1.8,0,3.3,0.5,4.5,1.6s1.7,2.4,1.7,4.1c0,1.7-0.6,3-1.7,4.1
		c-1.2,1-2.7,1.6-4.5,1.6c-1.9,0-3.4-0.5-4.5-1.6C490.7,158.5,490.2,157.2,490.2,155.5z M496.5,118.1h12.4l-6.7,27.2h-8.3
		L496.5,118.1z"/>
</g>
<polygon points="202.8,42.5 158,42.5 125.5,159.4 170.3,159.4 "/>
<path d="M93.5,42.5L60.9,159.6h21.8L115,42.5C115,42.5,93.5,42.5,93.5,42.5z M123.9,42.5L91.3,159.6h21.8l32.4-117.1L123.9,42.5
	L123.9,42.5z"/>
<path d="M45.6,42.5L13.1,159.6h13.5L58.9,42.5C58.9,42.5,45.6,42.5,45.6,42.5z M67.7,42.5L35.2,159.6h13.5L81.1,42.5
	C81.1,42.5,67.7,42.5,67.7,42.5z"/>
</svg>
