<?xml version="1.0" encoding="utf-8"?>
<!-- Generator: Adobe Illustrator 26.0.2, SVG Export Plug-In . SVG Version: 6.00 Build 0)  -->
<svg version="1.1" id="_x30_" xmlns="http://www.w3.org/2000/svg" xmlns:xlink="http://www.w3.org/1999/xlink" x="0px" y="0px"
	 viewBox="0 0 1404 792" style="enable-background:new 0 0 1404 792;" xml:space="preserve">
<style type="text/css">
	.st0{fill:none;stroke:#000000;stroke-width:0.7087;stroke-linecap:round;stroke-linejoin:round;stroke-miterlimit:10;}
	.st1{fill:#231F20;stroke:#231F20;stroke-miterlimit:10;}
</style>
<g id="LWPOLYLINE">
	<path class="st0" d="M25.8,0"/>
	<path class="st0" d="M0,0"/>
	<path class="st0" d="M186.2,213.4H159v4.3h4.3v6H159v7.1h4.3v5h-14.6c3-3.2,3-8.2,0-11.5c-3.2-3.4-8.5-3.6-11.9-0.4
		c-3.4,3.2-3.6,8.5-0.4,11.9H120v-6.2c0-7-5.7-12.8-12.8-12.8s-12.8,5.7-12.8,12.8v6.2H78.2c3-3.2,3-8.2,0-11.5
		c-3.2-3.4-8.5-3.6-11.9-0.4c-3.4,3.2-3.6,8.5-0.4,11.9H51.3v-5h4.3v-7.1h-4.3v-6h4.3v-4.3H28.3"/>
	<line class="st0" x1="28.3" y1="0" x2="186.2" y2="0"/>
</g>
<path class="st0" d="M0,16.6"/>
<path class="st0" d="M0,28.3C0,12.7,12.7,0,28.3,0"/>
<path class="st0" d="M28.3,213.4C12.7,213.4,0,200.8,0,185.1"/>
<path class="st0" d="M214.6,185.1c0,15.7-12.7,28.3-28.3,28.3"/>
<path class="st0" d="M214.6,28.3c0-15.7-12.7-28.3-28.3-28.3"/>
<line class="st0" x1="0" y1="185.1" x2="0" y2="28.3"/>
<line class="st0" x1="214.6" y1="185.1" x2="214.6" y2="28.3"/>
<g>
	<g>
		<g>
			<g>
				<g>
					<g>
						<path class="st1" d="M180.4,202.6H34.1c-8.1,0-14.8-6.6-14.8-14.8v-30.5c0-8.1,6.6-14.8,14.8-14.8h146.3
							c8.1,0,14.8,6.6,14.8,14.8v30.5C195.2,196,188.6,202.6,180.4,202.6z M34.1,144.8c-6.9,0-12.6,5.6-12.6,12.6v30.5
							c0,6.9,5.6,12.6,12.6,12.6h146.3c6.9,0,12.6-5.6,12.6-12.6v-30.5c0-6.9-5.6-12.6-12.6-12.6H34.1z"/>
					</g>
				</g>
			</g>
		</g>
	</g>
</g>
<g>
	<g>
		<g>
			<g>
				<g>
					<path class="st1" d="M103.6,7.1c-0.1,0.7-0.5,1.3-0.8,1.9c-0.6,1.5-1,3.1-1,5c1.4-1.7,3.2-2.5,5.3-2.9
						c-0.5,1.1-0.9,2.3-1.2,3.6c0.9-0.6,1.8-1.1,2.7-1.5c3.6-1.4,7.2-1.2,10.8,0.1c2.6,0.9,5.1,2,7.6,3.1c2.3,1,4.5,1,6.6-0.5
						c0.2-0.2,0.5-0.3,0.7-0.4c0.1,0,0.1,0,0.2,0c-0.6,1.9-1.3,3.6-2.9,4.9c4.3,1.1,7.4,3.5,9.1,7.6c-0.1,0.1-0.1,0-0.2-0.1
						c-0.1,0-0.1-0.1-0.3,0c2.3,2.3,3.6,5.1,4.4,8.2c0.9,3,1,6.2,1.3,9.3c-0.4-1-0.9-2.1-1.3-3.1c-0.4-1.1-1-2.1-1.6-3.1
						c-0.6-1-1.3-2-2.1-2.8c0.6,1.6,1.1,3.2,1.4,4.8c0.3,1.7,0.4,3.4,0.5,5.1c-0.8-1.2-1.5-2.4-2.3-3.6c0.5,2,0.8,4,0.7,6.1
						c-0.1,2.9-0.3,5.8-1.3,8.5c-1.4,4-4.4,6.7-8,8.8c-0.4,0.2-0.5,0.5-0.5,1c0.1,1,0.4,1.9,0.8,2.8c0.1,0.3,0.2,0.6,0.4,1
						c-0.5-0.3-0.9-0.4-1.3-0.6c1.4,2.3,2.2,4.8,3.7,6.9c0.7,1,1.4,1.9,2.7,2.1c0.2,0,0.2,0.2,0.3,0.3c0.1,0.6,0,1.3-0.6,1.6
						c-0.4,0.3-0.4,0.4-0.1,0.8c2.6,4.3,4.7,8.8,6.1,13.6c0.3,1.1,0.4,2.2,0.9,3.2c0.5,0.9,1.8,1.2,2.6,1.9c3.6,2.9,5.8,6.7,7.2,11
						c0.4,1.3,0.7,2.6,1,4.2c-0.5-0.5-0.9-1-1.3-1.4c0,0-0.1,0-0.1,0.1c0.1,0.4,0.2,0.8,0.2,1.2c0.7,3.3,0.7,6.7-0.6,9.9
						c-0.1,0.4-0.1,0.5,0.3,0.6c2.9,0.5,4.3,3,3.4,5.8c-0.2,0.5,0.3,0.9,0.5,1.4c0,0.4,0,0.8,0,1.2c-0.8,2.4-2.5,2.8-4.4,2.7
						c-0.3,0-0.7,0-1-0.1c-2.7-0.7-5.4-1-8.2-0.9c-1.1,0.1-2.1,0-3.2,0c-2.5,0.1-4.9,0.1-7.3,0.3c-0.8,0.1-1.3,0.3-1.5,1.1
						c-0.1,0.3-0.2,0.5-0.1,0.8c0.1,0.9,0.2,1.8,0.1,2.7c-0.1,0.8-0.4,1.4-1.1,1.7c-1.4,0.8-2.9,1-4.5,0.8c-0.2,0-0.4-0.2-0.5,0
						c-0.7,0.7-1.5,0.7-2.4,1c-0.8,0-1.6,0-2.3,0c-0.9-0.3-1.9-0.4-2.6-1.1c-0.1-0.1-0.2-0.1-0.4,0c-1.2,0.4-2.5,0.2-3.6-0.2
						c-1.6-0.5-2.1-1.2-2.2-2.9c-0.1-1.6,0-3.2,0.4-4.8c0.1-0.4,0-0.5-0.4-0.4c-0.9,0.2-1.8,0.2-2.7,0.2c-2.3,0-4.5-0.1-6.7-0.4
						c-0.3,0-0.6-0.1-0.7,0.4c-0.7,2.1-2.2,3.5-4.2,4.3c-1.2,0.5-2.5,0.8-3.8,0.9c-0.7,0.1-1.3,0.1-2-0.2c-0.6-0.3-1.2-0.2-1.9-0.1
						c-2,0.5-4.1,0.4-6.1,0.1c-0.5-0.1-1.1-0.2-1.3-0.6c-0.4-0.7-1-0.9-1.6-1.2c-0.8-0.5-1.4-1.1-1.3-2.1c0.1-0.6-0.2-0.6-0.7-0.6
						c-2.1,0.1-4.3,0.1-6.4,0.2c-1.1,0-2.2,0.1-3.3,0.5c-1.2,0.4-2.5,0.6-3.8,0.4c-0.7-0.1-1.4,0-2,0c-1.9,0.1-3.7,0.1-5.3-1.2
						c-0.1-0.1-0.3-0.1-0.4-0.1c-1.3-0.2-2.3-0.8-2.6-2.2c0-0.6,0-1.3,0-1.9c0-0.1,0.1-0.2,0.1-0.2c0.3-2.8,2.1-4.1,4.5-4.8
						c1.7-0.5,3.5-0.4,5.3-0.5c0.6,0,0.7-0.1,0.4-0.7c-0.7-1.1-0.8-2.4-0.8-3.7c-0.3,0-0.4,0.3-0.7,0.4c-0.6-1.9-0.5-3.8,0-5.6
						c0.2-0.7,0.5-1.4,0.8-2.1c0.1-0.2,0.2-0.4-0.2-0.4c-1.4-0.3-2-0.6-3.1-1.7c0.1-0.2,0.3-0.1,0.5-0.2c1.4-0.1,2.4-0.9,3.1-2
						c0.7-1.1,1-2.4,1.3-3.7c1.4-6.2,5.4-9.8,11.5-11.3c0.5-0.1,0.7-0.3,0.6-0.8c0-1.4,0-2.8,0-4.1c-0.1,0.1-0.3,0.3-0.5,0.6
						c-0.3-1.1-0.4-2.1-0.5-3.2c-0.3-4.9,0.9-9.4,3.4-13.5c0.3-0.5,0.2-0.6-0.2-0.8c-2.1-0.9-4-2.3-5.5-4.1c-0.9-1-2-1.9-2.9-3.1
						c-1.8-2.4-3-5-3.2-8c0-0.1,0-0.2-0.1-0.3c-0.7-1.1-1.1-2.3-1.4-3.6c-0.1,0-0.1,0-0.2,0c-0.2,1.7-0.4,3.5-0.6,5.2
						c0,0-0.1,0-0.1,0c-0.2-1.1-0.4-2.2-0.6-3.3c-0.4-2.1-0.9-4.3-1-6.4c-0.1-2.9,0.2-5.8,1.4-8.5c-0.2-0.1-0.3,0.1-0.4,0.1
						c0.2-3.3,1.2-6.8,6-10.3c-1.9-0.7-3.1-2-4.4-3.6c0.7,0.1,1.4,0.1,2,0.2c1.7,0.2,3.2-0.2,4.5-1.3c1.8-1.6,3.6-3.3,5.5-4.9
						c1.9-1.7,3.9-3.3,6.4-4.1c2-0.7,4-0.9,6-0.6c0.1,0,0.2,0,0.4,0.1c-0.7-1.8-2.5-2.3-4-3.1c2.9-1.2,5.7-1.2,8.3,0.4
						c0.6,0.3,0.7,0.3,0.9-0.3c0.5-2.2,1.7-3.9,3.6-5.2c0.7-0.4,1.4-0.8,1.9-1.4C103.6,7.1,103.6,7.1,103.6,7.1z M80.7,86.1
						c0,0,0.1,0,0.1,0.1c0,0.2-0.1,0.5-0.1,0.7c-0.6,4.4-0.7,8.8-0.1,13.2c0.2,1.5,0.8,3,0.9,4.5c0.1,1.4,0.3,2.9-0.4,4.3
						c-0.3,0.7-0.3,0.8,0.5,0.8c0.2,0,0.5-0.1,0.7-0.2c0.4-0.2,0.6-0.1,0.6,0.4c0.1,1.6,0.3,3.1,0.5,4.7c0.5,5,1,10,1.4,15
						c0.1,1.2,0.1,2.4-0.4,3.5c-0.2,0.5-0.5,0.8-1,0.9c-1.2,0.2-1.9,1-2,2.3c0,0.5,0.1,0.8,0.5,1.1c0.2,0.1,0.3,0.3,0.5,0.2
						c0.2-0.1,0.1-0.3,0.1-0.5c0.1-0.4,0.2-0.9,0.4-1.3c0.4-1,1.1-1.4,2.4-1.4c-1.3,0.9-1.2,2.1-1.2,3.3c0,1,0.1,1.1,1.1,1.3
						c1.5,0.2,3,0.2,4.5,0.2c0.7,0,0.9-0.2,0.9-0.9c0-0.9,0-1.8,0.2-2.8c0.6,0.8,0.9,1.5,1,2.4c0.1,1.1,0.2,1.2,1.3,1.3
						c0.4,0,0.7,0,1.1,0c1.3-0.2,2.7-0.4,4-0.8c1.7-0.6,2-1,1.5-2.8c0-0.1,0-0.1,0-0.2c0.4,0.3,0.7,0.7,1,1c0.8-1.2,0.8-2.4,0.7-3.7
						c-0.2-4.1-0.3-8.3,0-12.4c0.2-2.3,0.5-4.6,0.7-6.9c0-0.3,0.1-0.5-0.3-0.7c-1.4-0.7-2.5-1.9-3.5-3.2c-0.3,0.4-0.6,0.8-1,1.2
						c-0.2-0.7-0.4-1.3-0.7-1.8c-0.8-1.8-2-3.2-3.3-4.5c-1.8-1.8-2.5-4-2.2-6.5c0-0.1,0-0.2,0.2-0.2c0,0.1,0,0.2,0.1,0.3
						c0.4,2.3,1.2,4.4,3,5.9c1.3,1.1,2.4,2.4,3.2,3.9c0,0.1,0.1,0.1,0.2,0.1c0.5-0.8,0.9-1.7,0.6-2.8c0.7,0.7,0.8,1.5,0.6,2.3
						c-0.1,0.3,0,0.6,0.1,0.9c1.2,2.1,3,3.7,5.4,4.4c0.9,0.3,1.7,0.5,2.8,0.8c-1.2,0.3-2.3,0.2-3.4,0c-0.4-0.1-0.5,0-0.5,0.4
						c-0.1,0.8-0.2,1.5-0.3,2.3c-0.7,5.7-0.7,11.5-0.4,17.2c0,0.4,0.2,0.5,0.5,0.5c0.7,0.1,1.4,0.2,2.1,0.2c2.6,0.3,5.2,0.4,7.8-0.2
						c0.6-0.1,0.8-0.5,0.8-1c0-0.6,0-1.2,0-1.9c0-5.2-0.1-10.4-0.5-15.6c-0.1-1.1-0.1-2.2-0.3-3.4c-0.8,0.7-1.6,1.2-2.4,1.6
						c-0.1-0.1-0.1-0.2,0-0.4c0.4-2,0.2-4-0.2-5.9c-0.2-1-0.2-2-0.1-2.9c0.2-1.5,0.7-2.9,1.7-4.1c0.1,0.1,0.1,0.2,0,0.3
						c-0.5,1.8-0.8,3.5-0.6,5.4c0.3,1.6,0.8,3.2,0.8,5c0.5-0.4,0.7-0.9,0.7-1.4c-0.2-1.4-0.1-2.9,0.2-4.3c0.5-2,2.1-3.4,4.1-3.6
						c-0.2,0.2-0.4,0.3-0.6,0.5c-1,0.7-1.7,1.6-2.1,2.7c-0.5,1.3-0.6,2.6-0.4,3.9c0.6,3.9,0.8,7.9,1.1,11.9
						c0.3,4.2,0.1,8.4-0.1,12.6c0,0.2-0.1,0.5-0.2,0.7c-1,2.3-1,4.7-0.9,7.1c0,0.5,0.3,0.7,0.7,0.9c0.7,0.3,1.5,0.5,2.3,0.6
						c0.6,0.1,0.9-0.1,1-0.7c0.2-1.3,0.4-2.6,0-4.1c0.7,0.4,1,1,1.1,1.6c0.2,0.7,0.2,1.5,0.1,2.3c-0.1,0.9,0.1,1.2,1,1.5
						c1.3,0.4,2.7,0.4,4.1,0.1c0.6-0.1,0.9-0.5,0.9-1c0.1-1.9,0.6-3.9-0.7-5.7c1,0.6,1.5,1.3,1.7,2.2c0.2,1.1,0.3,2.1,0.2,3.2
						c0,0.4,0.1,0.5,0.5,0.6c1.1,0,2.1-0.1,3.2-0.6c0.4-0.2,0.6-0.4,0.6-0.8c0.1-1.7,0.4-3.4-0.5-5c0,0,0-0.1,0.1-0.1
						c0.4,0,0.6,0.4,0.9,0.5c0.5-1.2,0.5-2.4,0.3-3.6c-0.3-1.7-0.3-3.4,0.2-5.1c1.2-4.8,2.8-9.4,4.6-14c0.1-0.2,0.3-0.4,0.2-0.7
						c-1.1,0.1-1.9,0.6-2.7,1.5c0.1-0.6,0.3-0.9,0.6-1.2c0.3-0.4,0.7-0.6,0.9-1c0.7-1.3,1-2.7,1.3-4.1c-1.4,0.6-1.5,0.6-2.1,0.4
						c1.4-1.4,1.5-1.5,1.7-3.4c0.2-2.1-0.1-4.1-0.5-6.1c-0.1-0.4-0.3-0.7-0.7-0.8c-1.3-0.5-2.1-1.5-2.4-3c1.8,1.8,2.4,2.2,3.7,2
						c-1.3-2.6-1.4-3-1.4-4.6c0-0.9,0-1.8,0-2.8c0-0.8-0.1-1.7-0.2-2.5c-0.6-2.7-2-4-4.9-4.6c-0.2,0-0.5,0-0.7-0.3
						c2.2-0.5,4-0.1,5.5,1.6c0.9,1,1.2,2.1,1.5,3.3c0.4,2,0.2,3.9,0.3,5.9c0.1,1.2,0.5,2.3,1.3,3.2c0.2,0.2,0.4,0.4,0.8,0.4
						c1.4,0.1,2.8,0.4,4.2,0.9c0.1,0,0.3,0.2,0.5,0c-1.6-6.5-4.5-12.4-8.3-18c0.7,0.1,1.3,0.2,2.1,0.3c-2.1-1.7-2.8-2.6-4-5.1
						c-0.9-1.9-2-3.8-3.2-5.6c-0.3-0.4-0.6-0.9-0.9-1.3c0,2-0.2,4-0.7,6c-0.1-0.2-0.1-0.3-0.2-0.4c-0.1-0.3-0.2-0.5-0.3-0.8
						c-0.6-2.1-1.9-3.8-3.5-5.2c-0.3-0.2-0.6-0.7-0.9-0.6c-0.2,0-0.3,0.6-0.4,0.9c-0.1,0.1-0.1,0.3-0.2,0.4c-1.2,2-2.9,3.2-5,4.2
						c-0.4,0.2-0.4,0-0.4-0.3c0-0.3,0-0.7,0-1.1c-1.6,0.8-3.1,1.4-4.7,1.4c-0.4,0-0.9-0.2-1.1,0c-0.2,0.2,0.1,0.7,0.1,1.1
						c0,0.4-0.1,0.4-0.4,0.2c-0.7-0.3-1.3-0.6-1.9-1c-0.4-0.3-0.8-1-1.1-0.9c-0.4,0-0.7,0.7-1.1,1c-2.1,1.6-4.6,2.3-7.1,2.6
						c-0.9,0.1-0.9,0.1-0.6-0.8c0.1-0.2,0.2-0.4,0.2-0.7c-1.3,0.2-2.6,0-3.8-0.4c-0.1,0-0.3-0.2-0.3,0.1c0.1,0.6-0.3,0.3-0.5,0.2
						c-1.4-0.4-2.6-0.9-3.7-1.9c-1.2,2.2-2.2,4.5-3.1,6.8c-0.4-1.4-1-2.7-1.3-4.3c-0.6,0.6-1.1,1.2-1.8,1.6
						c-0.7,0.4-1.4,0.8-2.2,1.3c0.4-1.1,0.8-2,1-2.9c0.1-0.3,0.2-0.6-0.2-0.8c-0.4-0.2-0.5,0.2-0.7,0.4c-1.8,3.1-3,6.4-3.3,10
						c-0.1,1.1-0.1,2.1,0,3.3C79.8,87.2,80.2,86.7,80.7,86.1z M80.8,54.2c0.2-1.6,0.3-3,1.1-4.2c0.2-0.3,0.3-0.6,0.3-1
						c-0.3-3.7-0.2-7.3,0.6-10.9c0.5-2,1.2-3.9,2.6-5.6c0.6-0.7,1.4-1.2,2.3-1.4c-1.6,1.4-2.7,3.2-3.3,5.2c-0.4,1.4-0.7,2.9-0.8,4.3
						c-0.3,2.4-0.2,4.8-0.2,7.2c0,0.4,0.1,0.5,0.4,0.3c0.4-0.2,0.8-0.4,1.3-0.4c-1.1,1.1-2.3,2.1-2.6,3.6c1.1-0.1,2.1-0.5,3.2-0.8
						c-2,3.2-2.4,4.1-2.3,5.2c0.8-0.3,1.5-0.6,2.4-0.5c-2.3,1.2-2.8,1.7-3.1,2.5c0.5-0.1,1-0.2,1.5-0.2c-2,2-3,4.3-3,7.1
						c0,2.7,0.9,5.1,2.3,7.6c0-1.5,0-2.8,0-4.1c0.1-2.1,0.4-4.1,1.8-5.8c0.4-0.5,0.8-0.9,1.6-1.2c-0.8,0.9-1.2,1.8-1.5,2.7
						c-0.5,1.4-0.6,2.9-0.5,4.3c0.1,2.1,0.4,4.2,0,6.4c0.8-0.7,1.3-1.5,1.4-2.6c0-0.9,0.2-1.8,0.5-2.6c0.4-1.4,1.3-2.9,2.2-3.5
						c-1.2,2.9-1.6,5.9-0.9,9.1c0.9-2,1.9-3.8,3.1-5.4c1.2-1.7,2.5-3.2,4.3-4.3c-1.1,1.5-2.2,2.9-3.1,4.4c-0.9,1.6-0.9,1.8,0.9,2.6
						c0,0,0.1,0,0.2,0c-0.1-0.4-0.1-0.8-0.2-1.3c1.3,1,2.5,1.7,4,2c1.5,0.3,2.9-0.3,4.3-0.9c-0.3,0.8-0.5,1.5-0.8,2.3
						c2.8-0.7,5.5-1.4,6.8-4.3c0.1-0.2,0.1-0.5,0.4-0.4c0.2,0,0.2,0.3,0.3,0.5c0.3,0.6,0.6,1.2,1.3,1.6c0-0.5-0.2-0.9-0.1-1.4
						c1.4,1.2,3,1.3,4.7,0.9c1.3-0.4,2.5-1,3.7-1.8c0.4-0.3,0.6-0.2,0.5,0.3c0,0.4,0,0.8,0,1.2c1.6-0.8,3-2.4,3.4-3.8
						c0.1-0.5,0.1-0.8-0.4-1.1c-0.8-0.5-1.5-1-2.3-1.5c-0.5-0.3-1.1-0.7-1.6-1c3.9,1,7.3,2.9,10,6.1c-0.2-4.3-1.8-7.9-4.3-11.1
						c1.8,1.4,3.1,3.1,4.2,5.3c-0.3-3.6-2-6.3-6.4-9.9c0.2-0.1,0.3,0,0.4,0.1c3.5,1.6,5.8,4.3,6.9,8c0.3,1.1,0.4,2.3,0.7,3.4
						c0.3,1,0.8,2,1.7,2.8c-0.2-1.7-0.2-3.2,0-4.8c0.5-4.3-0.9-7.7-4.1-10.5c-0.2-0.1-0.3-0.2-0.5-0.4c-0.2-0.1-0.4-0.2-0.5-0.5
						c4.4,2.2,6.3,5.8,6.6,10.4c1.8-4.6,0.7-8.5-3.1-11.7c0.3-0.1,0.6-0.2,0.9-0.3c-1.6-1.3-3.3-2.1-5.4-2.3
						c1.4-0.3,2.8-0.2,4.3,0.4c0.6,0.2,0.7,0.2,0.6-0.5c-0.2-1.3-1-2.1-2-2.8c-0.4-0.3-0.8-0.6-1.3-0.9c0.7-0.1,1.3,0,1.8,0.2
						c0.5,0.2,1,0.4,1.6,0.7c-0.4-0.9-1-1.6-1.6-2.2c-0.7-0.6-1.4-1-2.2-1.5c0.6-0.1,1.1,0.1,1.7,0.2c-0.3-0.9-0.8-1.5-1.3-2.2
						c0.5,0.2,0.8,0.6,1.3,0.9c-1.1-3-2.3-5.7-3.9-8.2c-1.6-2.5-3.5-4.7-6.6-5.9c1.1-0.1,1.9,0.2,2.6,0.7c2.1,1.2,3.7,3,5,4.9
						c2.2,3.3,3.7,6.9,5,10.7c0.1,0.4,0.3,0.7,0.5,1c0.9,1,1.2,2.3,1.3,3.6c0,0.6-0.3,0.3-0.5,0.3c0.1,0.6,0.2,1.1,0,1.5
						c-0.1,0.4,0,0.6,0.3,0.8c0.5,0.4,0.9,0.8,1.3,1.3c-0.3,0.1-0.6,0.2-0.9,0.3c3.3,4.2,3.4,8.6,0.8,13.3c1.5-1,2.7-2,3.8-3.2
						c1.6-1.7,2.8-3.7,3.3-5.9c0.7-2.8,0.3-5.6-0.6-8.2c-0.6-1.6-1.3-3.2-2-4.8c1.5,1.5,2.5,3.3,3.3,5.3c-0.1-5-1.8-9.2-5.8-12.3
						c3,1,4.6,3.6,6.8,5.8c-1.4-5.8-4.3-10.2-10.4-11.9c0.3-0.2,0.5-0.1,0.7-0.1c2.1,0,3.9,0.8,5.6,2c0.6,0.4,1.1,1,1.6,1.3
						c1.6,1,3,2.3,4.2,3.9c0.3,0.5,0.7,0.9,1,1.4c-0.5-2.5-1.3-4.7-2.7-6.8c-1.7-2.5-4-4.3-7-4.8c-0.6-0.1-1.2-0.3-2-0.5
						c2-1,3.9-0.5,5.7-0.1c0.1-0.2-0.1-0.2-0.1-0.3c-1.8-1.9-4-2.9-6.4-3.5c-0.5-0.1-1.1-0.2-1.6,0c-1.2,0.3-2.1,0.2-2.8-0.4
						c3-0.8,4.3-1.6,5-3c-1.7,0.5-3.2,0.1-4.8-0.5c-2.8-1.1-5.5-2.4-8.3-3.3c-4.1-1.4-8.1-1.2-11.8,1.2c-0.7,0.4-1.5,0.8-1,1.9
						c-0.7-0.6-1-1.3-1.1-2.1c-0.1-0.8,0-1.5,0-2.3c-1.9,1-2.8,2.6-3.6,4.5c-0.7-2.3-0.9-4.6-0.2-7c-0.6,0.5-0.9,1-1.1,1.5
						c-0.8,1.4-1,3-1.1,4.8c-1-0.8-1.8-1.6-2.9-2.2c-1.1-0.5-2.2-0.8-3.6-0.7c0.6,0.6,1.2,1.1,1.4,1.7c0.3,0.9,0.7,1.8,1.7,2.2
						c0,0,0,0,0,0.1c0,0,0,0-0.1,0c-0.5-0.1-1-0.1-1.5-0.2c-4.4-0.7-8.3,0.4-11.6,3.4c-1.4,1.2-2.8,2.5-4.1,3.7
						c-1.9,1.7-3.6,3.7-6.5,3.9c1.9,1.3,3.8,1.5,5.8,1c-0.6,0.8-1.4,1.2-2.3,1.3c-0.7,0-1.3,0.3-1.8,0.7c-0.7,0.5-1.4,1-2,1.5
						c-1.3,1.2-2.3,2.6-3,4.3c1.7-1.1,3.3-2.2,5.4-1.9c-6.4,3.2-7.5,8.8-6.9,15c0.5-1.5,1-2.9,1.8-4.3c0.8-1.4,1.8-2.5,3.4-3.2
						c-3.9,4.8-3.5,8-2.6,11.2c0.5-2.7,1.3-5.2,3.3-7.1c-1,2.6-2.1,5.3-2.2,8.1c-0.1,2.9,0.7,5.6,2.3,8.2
						c-1.1-5.3,0.3-10.6,1.9-12.9c0.1,0.3-0.1,0.5-0.1,0.7c-0.7,2.8-1.1,5.5-1,8.4c0.1,3.3,1.1,6.3,3.4,8.7c1.4,1.4,3,2.5,5,3.4
						c-2.2-4.2-3-8.4-0.9-12.8c-0.3-0.1-0.5,0.1-0.7-0.1c0,0,0-0.1,0-0.1c0.1-0.1,0.1-0.3,0.2-0.4c0.6-1.1,1.2-2.2,1.2-3.5
						c0-0.9,0.4-1.6,0.8-2.6C82,53.2,81.5,53.7,80.8,54.2z M79.2,126.3c-1.5,0.6-3,0.7-4.4,0.8c-4.1,0.2-8.2,0.5-12.2,0.7
						c-1.2,0.1-2.4,0.4-3.5,1c-0.5,0.3-1,0.6-1.3,1.2c-0.6,1.1-0.8,2.3-0.7,3.6c0,0.4,0.3,0.7,0.6,0.8c0.4,0.2,0.5,0.1,0.5-0.3
						c-0.1-1.2,0-2.3,0.5-3.4c0.8-1.9,3.3-3,5.2-2.3c-0.9,0.3-1.8,0.5-2.6,0.9c-0.9,0.5-1.5,1.2-1.7,2.2c-0.2,1-0.2,2,0,3.1
						c0.1,0.4,0.3,0.7,0.7,0.8c1.1,0.3,2.2,0.4,3.3,0.4c0.4,0,0.4-0.2,0.3-0.5c-0.2-0.5-0.3-1-0.3-1.5c-0.2-3.2,2-5.3,5.6-4.6
						c-0.7,0.2-1.4,0.5-2.1,0.7c-1.4,0.5-2.1,1.5-2.2,3c0,0.8,0.2,1.4,0.4,2.1c0.1,0.4,0.4,0.5,0.8,0.6c2,0.2,3.9-0.2,5.8-1
						c0.9-0.4,1.7-0.9,2-2.1c0.3,1-0.1,1.6-0.4,2.1c2.2,0,4.4,0,6.6,0c0.5,0,0.8-0.1,1.1-0.6c0.4-0.7,1-1.1,1.8-1.3
						c0.4-0.1,0.5-0.3,0.6-0.6c0.3-0.9,0.2-1.9,0.2-2.8c-0.6-6-1.2-12-1.7-17.9c0-0.4-0.2-0.5-0.6-0.6c-1-0.1-1.7-0.7-2.1-1.6
						c-0.1-0.2-0.2-0.4,0.1-0.5c0.6-0.2,0.8-0.7,0.9-1.2c0.3-1.5,0.1-2.9-0.2-4.4c-0.4-1.9-0.8-3.7-1-5.6c-0.1-1.4-0.1-1.5-1.6-1
						c-5.3,1.6-8.4,5.1-9.5,10.5c-0.4,2.1-1.2,4-2.9,5.4c0,0,0,0.1,0,0.1c1.1,0.3,2-0.5,3-0.6c-2.3,4-3.1,6.4-2.6,7.7
						c0.6-0.5,1.2-1,1.9-1.5c-0.2,0.8-0.5,1.5-0.6,2.1c-0.4,1.9-0.3,3.6,0.9,5.2c0.2,0.3,0.5,0.5,0.9,0.4c2.1-0.1,4.1-0.1,6.2-0.2
						C76.1,125.8,77.6,125.8,79.2,126.3z M136.9,111.9c0.5,0,0.9,0,1.3,0c0.4,0,0.5,0.1,0.3,0.5c-1.6,3.3-2.8,6.7-3.9,10.2
						c-0.5,1.5-1.1,3-1.4,4.7c0.2-0.1,0.3-0.1,0.3-0.1c3.8-1.7,7.8-3,12-3.5c2-0.2,4-0.3,6,0.5c1.1,0.4,1.1,0.4,1.4-0.7
						c1-4.1,0.3-8.1-1.3-11.9c-0.4-0.9-0.8-1.9-1.3-2.8c0,0,0.1,0,0.1-0.1c0.8,0.8,1.6,1.7,2.5,2.6c0-0.1,0-0.2,0-0.3
						c-0.7-2-1.7-3.8-2.8-5.5c-2.6-3.7-6-6.3-10.6-7c-0.6-0.1-1.2-0.2-1.8-0.1c-0.5,0-0.6,0.2-0.5,0.7c0.5,1.9,0.6,3.9,0.4,5.9
						c0,0.2-0.1,0.3,0,0.5c0.4-0.5,0.7-1,1.1-1.4C138.4,106.8,138.1,109.4,136.9,111.9z M149.7,135.3c2,1,5,1.1,6.1,0.1
						c-1,0.4-1.9,0.5-2.9,0.4c-0.9-0.1-1.4-0.7-1.1-1.4c0.2-0.6,0.1-0.8-0.5-0.8c0.1-0.3,0.3-0.2,0.5-0.3c1.2-0.4,2.4-0.6,3.4-1.2
						c0.4-0.2,0.9-0.4,1-0.9c0.2-1.2-0.1-2.2-1-3.1c-0.8-0.8-1.7-0.8-2.7-0.3c-1,0.5-2,1-3,1.5c-0.5,0.3-1.1,0.5-1.7,0.6
						c-0.8,0.1-1.2-0.2-1.3-1c-0.1-1.2,0.6-2.4,1.7-3c1.1-0.6,2.3-0.4,3.3,0.6c0.3,0.3,0.5,0.3,0.8,0.1c0.3-0.3-0.1-0.5-0.3-0.6
						c-0.9-0.7-2-0.9-3.1-0.9c-5.5-0.2-10.6,1.6-15.5,3.9c-0.2,0.1-0.3,0.3-0.4,0.5c-0.1,1-0.1,1.9,0,2.9c0.2,0.9,0.3,1.9,0.1,2.8
						c0,0.3,0,0.5,0.4,0.4c3.9-0.4,7.8-0.4,11.7-0.3c0.1,0,0.3,0.1,0.4-0.2c-0.6-0.6-0.7-1.4-0.5-2.2c0.2-1.5,1.4-2.5,2.7-2.3
						C149.2,130.7,151.3,133.6,149.7,135.3z M146.8,133.6c0.7-0.1,1.4,0,2-0.3c0.2-0.1,0.5-0.1,0.3-0.5c-0.4-0.7-0.8-1.3-1.6-1.5
						c-0.7-0.1-1.6,0.6-1.7,1.6C145.8,133.7,146.6,133.2,146.8,133.6z M147.3,128.3c1-0.5,2-0.9,2.7-1.7
						C148.7,126.1,147.6,126.8,147.3,128.3z M152.6,134.5c0.9,0,1.8,0.1,2.6-0.2c0.1,0,0.3,0,0.3-0.3c0-0.2-0.1-0.3-0.3-0.4
						C154.6,133.4,153,133.9,152.6,134.5z"/>
				</g>
			</g>
		</g>
		<g>
			<g>
				<g>
					<path class="st1" d="M117.6,57.4c0.4,2.2-1.4,4.4-3.7,4.7c-2.1,0.3-4.1-0.3-6.1-0.9c-0.7-0.2-1.5-0.5-2.2-0.9
						c-0.4-0.2-0.6-0.1-0.8,0.2c-1.2,1.2-2.4,2.3-3.9,3.1c-2.3,1.3-5.3,0.3-6.4-2.1c0.8,0.6,1.5,1.1,2.4,1.5
						c1.3,0.5,2.5,0.4,3.6-0.4c1.4-1,2.6-2.1,3.7-3.3c0.4-0.5,0-1.7-0.6-1.9c-1.4-0.5-2.7-1.2-3.9-2.2c-1.5-1.3-1.3-3.3,0.4-4.2
						c2.2-1.2,4.6-1.5,7.1-1.1c1.8,0.3,2.7,2.3,1.6,3.9c-0.9,1.3-1.9,2.4-3.2,3.3c-0.5,0.4-0.4,1.6,0.2,1.8c2.2,0.9,4.4,1.7,6.7,1.9
						c1.9,0.2,3.3-0.5,4.2-2.1C117,58.4,117.3,58,117.6,57.4z"/>
				</g>
			</g>
		</g>
		<g>
			<g>
				<g>
					<path class="st1" d="M114.5,48.4c1-1.1,2.3-1.1,3.5-1.8c-2.2-0.3-4.1,0.2-5.8,1.2c0.4-0.5,1-0.9,1.6-1.3c-1-0.2-1.6,0-5.6,1.8
						c0.5-0.8,1.2-1.4,1.9-1.8c0.5-0.3,0.5-0.5,0.3-0.9c-0.6-1.2-0.9-2.4-0.7-3.7c0.3-2.4,2.2-4,4.8-4.2c3.9-0.2,6.5,3,5.7,7
						c-0.2,1.1-0.2,1.1,0.8,1.7c-0.2,0.3-0.7,0.2-0.9,0.6c1,0.3,1.9,0.6,2.7,1.4C120,47.7,117.3,47.9,114.5,48.4z M113,39
						c-1.4,0.6-2.2,1.5-2.4,2.9c-0.1,1.2,0.2,2.4,0.7,3.5c0.1,0.2,0.3,0.3,0.5,0.3c0.5-0.1,1-0.2,1.5-0.4
						C111.7,43.3,111.5,41.2,113,39z M118.1,41.1c0-0.7-0.5-1.3-1.2-1.3c-0.7,0-1.2,0.5-1.2,1.1c0,0.7,0.5,1.3,1.2,1.3
						C117.6,42.3,118.1,41.7,118.1,41.1z M114.9,44c0.1,0.4,0.3,0.8,0.8,0.8c0.4,0,0.8-0.3,0.7-0.7c0-0.4-0.2-0.8-0.7-0.8
						C115.2,43.3,115,43.5,114.9,44z"/>
				</g>
			</g>
		</g>
		<g>
			<g>
				<g>
					<path class="st1" d="M89.5,51.9c-0.4,0-0.8-0.1-1.4-0.1c1.4-0.7,0.7-1.3,0.3-2c-1.5-2.5-1.2-5.4,0.8-7.2
						c1.5-1.4,3.4-1.8,5.3-1.5c1.8,0.3,2.7,1.7,3.2,3.3c0.3,0.9,0.4,1.8,0.3,2.8c-0.1,0.5,0,0.8,0.6,0.9c0.8,0.1,1.6,0.4,2.4,1.1
						c-1.7-0.3-3.2-0.5-4.7-0.2c-0.4,0.1-0.8,0.1-1.2,0.4c0.7,0.3,1.4,0.3,2.1,0.8c-2.1-0.3-4-0.2-6,0.8c1.4,0.2,2.6-0.2,3.9,0.4
						c-1.4,0.3-2.8,0.6-4,1c-1.3,0.5-2.5,1.1-3.6,1.9C87.7,53.4,88.1,52.9,89.5,51.9z M91.7,42.4c-1.2,0.3-2.1,0.9-2.6,1.8
						c-1,2-0.7,3.9,0.6,5.7c0.1,0.2,0.3,0.4,0.6,0.2c0.4-0.2,0.8-0.4,1.3-0.6C89.3,47.2,89.6,44.3,91.7,42.4z M95.5,44.4
						c0-0.8-0.5-1.3-1.3-1.3c-0.7,0-1.3,0.6-1.3,1.2c0,0.8,0.5,1.4,1.3,1.4C94.9,45.7,95.5,45.1,95.5,44.4z M93.9,47.5
						c0-0.4-0.2-0.7-0.7-0.8c-0.5,0-0.7,0.2-0.8,0.7c0,0.5,0.2,0.8,0.7,0.8C93.6,48.2,93.9,47.9,93.9,47.5z"/>
				</g>
			</g>
		</g>
		<g>
			<g>
				<g>
					<path class="st1" d="M110,39.4c0.2-2.1-0.5-4.4,0.9-6.3c-0.3,1-0.5,2-0.4,3c0.7-1.4,1.5-2.6,2.8-3.4c0.4-0.3,0.9-0.5,1.5-0.5
						C112.1,33.8,111.1,36.6,110,39.4z"/>
				</g>
			</g>
		</g>
		<g>
			<g>
				<g>
					<path class="st1" d="M109.3,62.8c-1.3,2-5.2,2.4-6.6,1.2C105,63.9,107.2,63.5,109.3,62.8z"/>
				</g>
			</g>
		</g>
		<g>
			<g>
				<g>
					<path class="st1" d="M92.4,33.8c2.6-0.1,4.7,2.5,3.9,5.4C95.9,36.7,94.7,34.9,92.4,33.8z"/>
				</g>
			</g>
		</g>
		<g>
			<g>
				<g>
					<path class="st1" d="M110,30.7c-1.5,1.9-1.6,4.2-2.1,6.4C107,35.7,107.6,31.2,110,30.7z"/>
				</g>
			</g>
		</g>
		<g>
			<g>
				<g>
					<path class="st1" d="M93.7,37.8c-0.2-0.4-0.4-0.8-0.7-1.3c0.7,0.5,1,1,1.4,3c-1.3-1.4-2.9-2.4-4.7-3
						C90.8,36.2,92.2,36.7,93.7,37.8z"/>
				</g>
			</g>
		</g>
		<g>
			<g>
				<g>
					<path class="st1" d="M152.5,132.6c-0.4,0-0.8,0-1.2-0.2c-1.2-0.4-1.5-1.5-0.7-2.5c0.9-1.1,3.3-1.5,4.5-0.8
						c1.1,0.7,1.2,1.8,0.1,2.6C154.5,132.3,153.5,132.6,152.5,132.6z M151.9,131c0.8-0.1,1.6-0.2,2.3-0.7c0.2-0.1,0.4-0.2,0.4-0.4
						c0-0.2-0.3-0.3-0.5-0.3c-0.9-0.1-1.7,0-2.5,0.4c-0.2,0.1-0.6,0.4-0.5,0.7C151.2,131,151.6,130.9,151.9,131z"/>
				</g>
			</g>
		</g>
	</g>
</g>
<g>
	<path d="M51.1,184.6c-1.6,0-3.3-0.3-5.1-0.9c-2.9-1-5.2-2.7-6.8-5.2c-2.3-3.5-3.4-7.6-3.4-12.5c0-2,0.2-4,0.7-5.9
		c1-4.5,2.9-8,5.7-10.3c2.3-1.9,4.9-2.9,8-2.9c0.6,0,1.2,0,1.8,0.1c2.4,0.3,4.2,1.1,5.6,2.2s2.4,2.5,3,4.1c0.6,1.5,0.8,3,0.8,4.6
		v1.1c0,0.5-0.2,0.8-0.5,1.1c-0.3,0.3-0.7,0.5-1.1,0.5l-3.8,0c-0.5,0-0.9-0.2-1.2-0.5c-0.3-0.3-0.4-0.7-0.4-1.1V158
		c0-0.5-0.1-1-0.3-1.5c-0.5-1.2-1.5-1.8-3.2-1.8c-0.4,0-0.8,0-1.2,0.1c-0.3,0-0.7,0.2-1.1,0.4c-0.4,0.2-0.9,0.6-1.3,1
		c-0.6,0.6-1.1,1.3-1.5,2.1c-0.4,0.8-0.6,1.8-0.8,3c-0.3,1.7-0.4,3.4-0.4,5.1c0,1.9,0.2,3.7,0.6,5.5c0.5,2.2,1.5,3.7,3.1,4.8
		c0.8,0.5,1.8,0.8,3,0.8h0.4c1,0,1.9-0.4,2.7-1.1c0.9-0.8,1.4-2.2,1.6-4.4l0.1-0.8c0-0.4,0.2-0.8,0.5-1.1c0.3-0.3,0.7-0.4,1.1-0.4
		l3.8,0.1c0.5,0,0.8,0.2,1.1,0.5c0.3,0.3,0.4,0.7,0.4,1.1c0,0.3,0,0.6-0.1,0.9c0,0.6-0.2,1.5-0.4,2.8c-0.7,3.3-2.4,5.9-5,7.7
		C55.5,184,53.4,184.6,51.1,184.6z"/>
	<path d="M82.9,183.9c-0.7,0-1.3-0.2-1.8-0.7c-0.3-0.2-0.5-0.6-0.6-1.1c-1.8,1.2-3.8,1.8-6,1.8c-0.3,0-0.6,0-1-0.1
		c-3.1-0.3-5.3-1.6-6.6-4c-0.6-1.2-0.9-2.4-0.9-3.7c0-1.7,0.5-3.4,1.5-5.1c1.9-3,5-4.6,9.4-4.7h0.3c1.2,0,2.5,0.2,3.7,0.5
		c-0.1-1.8-0.3-3.1-0.7-3.8c-0.6-1.1-1.6-1.7-3.1-1.7c-0.1,0-0.3,0-0.7,0c-0.4,0-0.8,0.2-1.3,0.5c-0.5,0.3-0.8,0.7-0.8,1.1
		c-0.1,0.5-0.3,1-0.6,1.3c-0.4,0.3-0.8,0.5-1.3,0.5l-2.9,0c-0.6,0-1.1-0.2-1.5-0.6c-0.4-0.4-0.6-0.9-0.6-1.4c0.1-3.4,2-5.7,5.6-7
		c1.5-0.5,3.1-0.7,4.7-0.7c1,0,2.5,0.2,4.4,0.5c1.9,0.3,3.4,1.2,4.7,2.7c1,1.4,1.7,3.2,2,5.3c0.3,1.8,0.4,3.8,0.4,5.9
		c0,2.6-0.2,5.6-0.5,9c-0.1,1-0.1,1.7-0.2,2.3c-0.1,0.7-0.4,1.4-0.9,2c-0.6,0.6-1.2,0.9-2.1,1l-2.5,0L82.9,183.9z M75.9,178.9
		c1.7,0,3-0.6,3.9-1.6c0.6-0.8,1-1.8,1.2-2.9l0.1-1.9c-0.7-0.6-1.9-1-3.5-1c-1.6,0.1-2.8,0.6-3.6,1.6c-0.6,0.9-1,1.8-1,2.7
		c0,1.1,0.4,1.9,1.1,2.6C74.5,178.7,75.1,178.9,75.9,178.9L75.9,178.9z"/>
	<path d="M113.9,184h-4.5c-0.6,0-1-0.2-1.4-0.6c-0.4-0.4-0.6-0.9-0.6-1.5c0.1-2.3,0.1-5.2,0.1-8.7l0-2.5c-0.1-4.1-1.2-6.1-3.3-6.1
		c-1.7,0-2.7,2-3,6.1c-0.1,3.8-0.2,7.1-0.3,9.9l0,2.2c0,0.3-0.1,0.6-0.4,0.9c-0.2,0.2-0.5,0.4-0.8,0.4h-5.3c-0.3,0-0.6-0.1-0.9-0.4
		c-0.2-0.2-0.4-0.5-0.4-0.9V182c0.1-9,0.2-16.8,0.4-23.4c0-0.6,0.2-1,0.6-1.4s0.9-0.6,1.4-0.6h4.6c0.4,0,0.7,0.1,0.9,0.3
		c0.2,0.2,0.3,0.5,0.3,0.8c1.1-0.3,2.4-0.4,3.9-0.4c1.6,0,3.1,0.4,4.6,1.1c1.5,0.7,2.6,1.7,3.5,2.8c2,2.9,3,7,3,12.5
		c0,2.2-0.1,4.4-0.2,6.4c0,0.1-0.1,0.8-0.1,1.9c0,0.5-0.2,1-0.6,1.4C114.9,183.8,114.4,184,113.9,184z"/>
	<path d="M141.7,184h-4.6c-0.5,0-0.8-0.2-1.2-0.5c-0.3-0.3-0.5-0.7-0.5-1.2c-1.7,1.1-3.5,1.6-5.5,1.6c-0.8,0-1.7-0.1-2.5-0.3
		c-2.8-0.7-4.9-2.5-6.4-5.3c-1.1-2.2-1.6-4.7-1.6-7.5c0-2.7,0.5-5.2,1.5-7.7c1.2-2.6,2.8-4.5,4.7-5.5c1.8-1,3.5-1.5,5.3-1.5
		c1.8,0,3.3,0.4,4.7,1.1l0.1-8.2c0-0.5,0.2-0.9,0.5-1.2c0.3-0.3,0.7-0.5,1.1-0.5h4.7c0.5,0,0.8,0.2,1.1,0.5s0.5,0.7,0.5,1.2
		c0,4.2,0,9.7-0.1,16.5c-0.1,6.8-0.2,12.3-0.4,16.5l0,0.3c0,0.5-0.2,0.8-0.5,1.1C142.5,183.9,142.1,184,141.7,184z M131.8,178
		c0.4,0,0.9-0.1,1.5-0.3c1.1-0.4,1.9-1.3,2.2-2.7c0-0.2,0.1-0.4,0.1-0.6l0.1-7.4c-0.1-0.9-0.3-1.6-0.7-2c-0.4-0.5-0.9-0.8-1.4-1
		s-1.1-0.3-1.6-0.3c-0.4,0-0.9,0.1-1.5,0.2c-0.6,0.1-1.3,0.6-1.9,1.2c-0.8,1-1.3,2.4-1.5,4.4c0,0.3-0.1,0.7-0.1,1
		c0,1.6,0.3,3.1,1,4.6C128.7,177.1,130,178,131.8,178z"/>
	<path d="M158,198.2c-1.5,0-3.1-0.3-4.6-0.9c-1.4-0.5-2.7-1.3-3.8-2.3c-0.4-0.3-0.5-0.7-0.5-1.2c0-0.3,0.1-0.5,0.2-0.8l1.8-3.2
		c0.3-0.6,0.8-0.9,1.4-0.9c0.3,0,0.6,0.1,0.9,0.3c0.3,0.2,0.5,0.4,0.8,0.6c0.8,0.5,1.7,0.8,2.6,0.9l0.7,0c0.6,0,1-0.1,1.2-0.2
		c1.8-0.8,3-3.2,3.8-7.4c-1.1,0.3-2.5,0.5-4.2,0.5c-1.6,0-3.2-0.4-4.7-1.1s-2.7-1.7-3.6-2.8c-2-2.8-3-7-3-12.5
		c0-2.3,0.1-4.4,0.2-6.4l0.1-1.9c0-0.6,0.2-1,0.6-1.4c0.4-0.4,0.8-0.5,1.4-0.5h4.5c0.6,0,1,0.2,1.4,0.6s0.6,0.9,0.6,1.5
		c-0.1,2.2-0.1,5.2-0.1,8.7v2.5c0.1,3.9,1.1,6,3.1,6.1c0.7,0,1.2-0.2,1.5-0.5c0.9-1,1.5-2.9,1.7-5.7c0.2-2.6,0.3-5.5,0.3-8.6V159
		c0-0.6,0.2-1,0.6-1.4c0.4-0.4,0.9-0.6,1.4-0.6l4.1-0.1c0.5,0,1,0.2,1.4,0.5c0.4,0.3,0.6,0.8,0.7,1.3c0.1,0.5,0.2,2,0.3,4.5
		c0.2,3.1,0.3,6.4,0.3,9.9c0,8.9-0.9,15.3-2.7,19.1c-1,1.9-2.5,3.4-4.3,4.5C162.3,197.7,160.2,198.2,158,198.2z"/>
</g>
</svg>
