<svg xmlns="http://www.w3.org/2000/svg" viewBox="0 0 415.28 84.02"><defs><style>.cls-1{fill:#231f20;}</style></defs><g id="Layer_2" data-name="Layer 2"><g id="Layer_1-2" data-name="Layer 1"><path class="cls-1" d="M31.25,61.48V78.31L24.88,84V62.63H23.75A24.91,24.91,0,0,1,12,59.77a20.16,20.16,0,0,1-7.89-6.71A27.89,27.89,0,0,1,.82,46.45,20.52,20.52,0,0,1,0,40.55,20.31,20.31,0,0,1,3.22,29.46a22.63,22.63,0,0,1,8.71-8,24.91,24.91,0,0,1,11.82-2.9h1.13V.67H45.64v5.9H31.25v12H45.33l2.16,5.61H31.25V55.3a17.05,17.05,0,0,0,5-3.33l4.21,4.28a23.26,23.26,0,0,1-8.84,5.23Zm-6.37-4.75V24.17H23.75a20.66,20.66,0,0,0-4.7.48,20.28,20.28,0,0,0-5,2.14,14.93,14.93,0,0,0-5.32,5.55A15.59,15.59,0,0,0,6.37,40.5a15.29,15.29,0,0,0,5.06,11.39,17.2,17.2,0,0,0,12.32,4.84Z"/><path class="cls-1" d="M65.07,6.57V18.46h14l2.16,5.71H65.07v42H79.36v5.9H58.69V24.17H55.3l-2-5.71h5.44V.67H79.36v5.9Z"/><path class="cls-1" d="M98.78,6.57V18.46h14l2.16,5.71H98.78v42h14.29v5.9H92.41V24.17H89L87,18.46h5.45V.67h20.66v5.9Z"/><path class="cls-1" d="M132.6,72.05h-6.37V24.17h-3.5l-2-5.71h5.55V.67h20.66v5.9H132.6V18.46h14l2.16,5.71H132.6Z"/><path class="cls-1" d="M166.32,6.57V18.46h14l2.16,5.71H166.32v42H180.6v5.9H159.94V24.17h-3.39l-2.05-5.71h5.44V.67H180.6v5.9Z"/><path class="cls-1" d="M188.21.67h6.37a31.46,31.46,0,0,1,26.78,14.7A27.07,27.07,0,0,1,225.63,30a27.61,27.61,0,0,1-6.43,17.51,28.39,28.39,0,0,1-15.88,10.38l18.92,14.18L213,72,194.58,58.42V72.05h-6.37Zm6.37,52.72a24.93,24.93,0,0,0,9.56-1.76q4.32-1.76,9.72-7T219.25,30q0-9.7-5.44-14.8T204,8.33a24.89,24.89,0,0,0-9.46-1.76Z"/><path class="cls-1" d="M298,51.21A39.14,39.14,0,0,1,289.36,54V66.15h13.77v5.9H283V54.44A26.22,26.22,0,0,1,272.4,52.3q-4.93-2.14-11-8T255.23,27.6a24.87,24.87,0,0,1,3.85-13.47,27.92,27.92,0,0,1,10.69-9.8A30.18,30.18,0,0,1,284.22.67h5.14V48.06a25.18,25.18,0,0,0,6.16-2.28Zm-15-2.67v-42a20,20,0,0,0-8.12,1.66,30.84,30.84,0,0,0-8.53,6.24Q261.61,19,261.6,27.6q0,9,5,13.52a34.07,34.07,0,0,0,8.53,6A20,20,0,0,0,283,48.54Z"/><path class="cls-1" d="M314.44,24.17h-3.5l-2.05-5.71h5.55V12.28a11.61,11.61,0,0,1,3.75-8.66A13,13,0,0,1,327.6,0a13.63,13.63,0,0,1,5.24.9,14.57,14.57,0,0,1,4.06,2.62,12.32,12.32,0,0,1,2.93,3.9,11.38,11.38,0,0,1,1,4.86V72.05h-6.38V24.17H320.81V72.05h-6.37Zm20-5.71V12.28a6.66,6.66,0,0,0-1.78-4.57,6.57,6.57,0,0,0-5.16-2,7.22,7.22,0,0,0-4.69,1.67,6,6,0,0,0-2,4.9v6.18Z"/><path class="cls-1" d="M362.34,20.39a28.16,28.16,0,0,1,14.34,9.8,25.47,25.47,0,0,1,5.7,16.17,23.22,23.22,0,0,1-3.9,13.18,26.45,26.45,0,0,1-10.9,9.18,34.44,34.44,0,0,1-15,3.33h-6V.67h6.51a13.2,13.2,0,0,1,6.41,1.57,12.88,12.88,0,0,1,4.7,4.34,10.7,10.7,0,0,1,1.81,6A9.66,9.66,0,0,1,362.34,20.39ZM357.82,17a5.67,5.67,0,0,0,1.85-4.31,5.75,5.75,0,0,0-1.91-4.37A6.73,6.73,0,0,0,353,6.57V18.85A6.83,6.83,0,0,0,357.82,17ZM353,66.15a26.57,26.57,0,0,0,11.77-2.47,20.8,20.8,0,0,0,8.18-6.93A17.82,17.82,0,0,0,376,46.4a19.79,19.79,0,0,0-3-10.54,22.94,22.94,0,0,0-8.53-8A23.2,23.2,0,0,0,353,24.75Z"/><path class="cls-1" d="M398.42,72.05H388.14v-5.9h10.28a10.27,10.27,0,0,0,7.45-3,9.6,9.6,0,0,0,2.42-10.38L392.05,20.18a13,13,0,0,1-1.24-5.71,12.93,12.93,0,0,1,4.32-9.71A14.67,14.67,0,0,1,405.61.67h7.61v5.9h-7.56a8.65,8.65,0,0,0-5.92,2.26,7.27,7.27,0,0,0-2.55,5.67,7.47,7.47,0,0,0,.6,3.11l16,32.34a13.76,13.76,0,0,1,1.51,6.48,14.52,14.52,0,0,1-5,11A16.86,16.86,0,0,1,398.42,72.05Z"/></g></g></svg>