<?xml version="1.0" encoding="utf-8"?>
<!-- Generator: Adobe Illustrator 26.0.3, SVG Export Plug-In . SVG Version: 6.00 Build 0)  -->
<svg version="1.1" id="_x30_" xmlns="http://www.w3.org/2000/svg" xmlns:xlink="http://www.w3.org/1999/xlink" x="0px" y="0px"
	 viewBox="0 0 1404 792" style="enable-background:new 0 0 1404 792;" xml:space="preserve">
<style type="text/css">
	.st0{fill:none;stroke:#000000;stroke-width:0.7087;stroke-linecap:round;stroke-linejoin:round;stroke-miterlimit:10;}
	.st1{stroke:#000000;stroke-miterlimit:10;}
</style>
<g id="LWPOLYLINE">
	<path class="st0" d="M25.8,0"/>
	<path class="st0" d="M0,0"/>
	<path class="st0" d="M186.2,213.4H159v4.3h4.3v6H159v7.1h4.3v5h-14.6c3-3.2,3-8.2,0-11.5c-3.2-3.4-8.5-3.6-11.9-0.4
		c-3.4,3.2-3.6,8.5-0.4,11.9H120v-6.2c0-7-5.7-12.8-12.8-12.8s-12.8,5.7-12.8,12.8v6.2H78.2c3-3.2,3-8.2,0-11.5
		c-3.2-3.4-8.5-3.6-11.9-0.4c-3.4,3.2-3.6,8.5-0.4,11.9H51.3v-5h4.3v-7.1h-4.3v-6h4.3v-4.3H28.3"/>
	<line class="st0" x1="28.3" y1="0" x2="186.2" y2="0"/>
</g>
<path class="st0" d="M0,16.6"/>
<path class="st0" d="M0,28.3C0,12.7,12.7,0,28.3,0"/>
<path class="st0" d="M28.3,213.4C12.7,213.4,0,200.8,0,185.1"/>
<path class="st0" d="M214.6,185.1c0,15.7-12.7,28.3-28.3,28.3"/>
<path class="st0" d="M214.6,28.3c0-15.7-12.7-28.3-28.3-28.3"/>
<line class="st0" x1="0" y1="185.1" x2="0" y2="28.3"/>
<line class="st0" x1="214.6" y1="185.1" x2="214.6" y2="28.3"/>
<g>
	<path d="M62.8,196.7c-1.4,0-2.8-0.3-4.3-1c-1.5-0.7-2.8-1.8-4-3.4c-1.2-1.6-1.9-3.3-2.1-5.3c-0.1-0.4-0.1-0.7-0.1-1.1
		c0-1.6,0.4-3.2,1.3-4.8c1.2-2,2.4-3,3.8-3c0.5,0,1,0.2,1.4,0.6c0.4,0.4,0.6,1,0.6,1.8c0,0.6-0.1,1.3-0.4,2.3
		c-0.4,1.2-0.6,2.2-0.6,3c0,0.8,0.2,1.6,0.6,2.4c0.5,0.9,1.4,1.3,2.5,1.3c0.9,0,1.7-0.3,2.5-1c0.8-0.7,1.4-1.8,1.8-3.4
		c0.1-0.6,0.1-1.4,0.1-2.4c0-1,0-2.1-0.1-3.2c0-1-0.1-1.9-0.1-2.7c0-0.8,0-1.5,0.1-2c0-0.2-0.2-0.2-0.5-0.3c-0.4,0-0.9,0-1.5,0.1
		s-1.3,0.1-2,0.1c-0.5,0-1.3,0-2.2-0.1c-0.9-0.1-1.8-0.5-2.6-1.2c-0.4-0.4-0.6-0.9-0.6-1.4c0-0.2,0.1-0.5,0.2-0.9
		c0.1-0.4,0.7-0.8,1.5-1.1c2.9-0.9,5.1-1.4,6.6-1.4l0.8,0c1,0,1.9,0.1,2.6,0.3c0.8,0.1,1.5,0.2,2.1,0.2c0.4,0,0.8,0,1.3-0.1
		c0.2,0,0.4,0,0.6,0c0.9,0,1.6,0.3,2,0.8c0.3,0.4,0.5,0.9,0.5,1.3c0,0.3-0.1,0.6-0.3,1.2s-1,0.9-2.3,1.2l0.2,0.5
		c1,3.3,1.5,6.5,1.5,9.4c0,1.6-0.2,3.3-0.7,5.1c-0.4,1.8-1.4,3.4-2.8,4.9c-1.9,1.8-3.8,2.9-5.8,3.2
		C63.9,196.7,63.3,196.7,62.8,196.7z"/>
	<path d="M89.4,196.3c-0.3,0-1.1-0.1-2.2-0.2c-1.1-0.1-2.4-1-3.9-2.6c-1.4-1.6-2.3-4.1-2.7-7.4c-0.1-1.7-0.2-3.2-0.2-4.6
		c0-2.1,0.2-4.1,0.6-6.1c0.4-2,1-3.4,1.8-4.3c0.6-0.6,1.1-0.9,1.6-0.9c0.3,0,0.6,0.2,1.1,0.5s0.8,1.3,1.1,3c0,0.6,0.1,1.2,0.1,1.9
		c0,0.7,0,1.5-0.1,2.5s-0.1,1.9-0.1,2.8c0,0.8,0,1.8,0.1,3.1s0.3,2.6,0.7,4s1.1,2.4,2.1,2.9c0.4,0.2,0.9,0.3,1.3,0.3
		c0.7,0,1.4-0.3,2.2-0.8c0.8-0.6,1.4-1.4,1.9-2.6c0.9-2.5,1.4-4.7,1.6-6.6c0.2-1.7,0.3-3.2,0.3-4.5v-0.8c0-1,0.1-1.8,0.2-2.5
		c0.1-0.7,0.4-1.2,0.9-1.5c0.2-0.1,0.4-0.2,0.6-0.2c0.4,0,0.7,0.2,1.1,0.5c0.5,0.5,0.7,1.1,0.7,1.9l0,0.9l0,2.4c0,0.8,0,1.9-0.1,3.3
		c0,1.4-0.2,3.1-0.6,5.1c-0.4,2-1,3.9-1.9,5.6c-0.9,1.6-2.2,2.9-3.9,3.8C92.4,195.9,91,196.3,89.4,196.3z"/>
	<path d="M112.6,197.4c-1.2,0-2.4-0.4-3.6-1.2c-1.2-0.8-2-2.1-2.6-3.9c-0.3-1.1-0.5-2.2-0.5-3.3c0-0.8,0.1-2,0.4-3.4
		c0.3-1.5,1.2-3,2.7-4.7s3.5-2.8,6.2-3.4c1.2-0.2,2.2-0.3,3.1-0.3c0.8,0,1.7,0.1,2.7,0.4c1,0.3,1.7,0.6,2.2,0.9
		c0.2,0.1,0.3,0.2,0.4,0.2c0-0.1,0-0.3,0.1-0.7c0.2-3.5,0.7-6,1.6-7.5c0.6-0.9,1.2-1.4,1.7-1.4c0.2,0,0.5,0.1,0.9,0.4
		c0.4,0.3,0.8,1.2,1.3,2.8s0.8,3.5,1,5.7c0.2,2.5,0.4,4.8,0.4,7.1c0,4.8-0.4,7.9-1.1,9.3c-0.5,0.9-1.2,1.3-2.1,1.3
		c-0.4,0-0.8-0.1-1.3-0.4c-1-0.6-1.7-2.5-2.1-5.7l-0.1-0.9c-0.1,0.1-0.2,0.3-0.5,0.8c-2,3.9-4.8,6.4-8.3,7.5
		C114.1,197.3,113.3,197.4,112.6,197.4z M114.9,191.8c0.6,0,1.4-0.3,2.2-0.8c1.2-0.8,2.2-1.6,3-2.6c0.8-1,1.6-2.1,2.4-3.3l0.8-1.1
		l0.1-0.3c0-0.1-0.1-0.1-0.2-0.2s-0.4-0.2-0.8-0.3c-0.4-0.1-1-0.3-1.7-0.6c-0.4-0.1-0.9-0.2-1.4-0.2c-0.5,0-1.3,0.1-2.2,0.3
		c-0.9,0.2-1.7,0.7-2.3,1.4c-1.3,1.6-1.9,3.2-1.9,4.9c0,1,0.3,1.8,0.9,2.4C114.1,191.7,114.5,191.8,114.9,191.8z"/>
	<path d="M147.1,196.5c-0.7,0-1.8-0.2-3.4-0.5c-1.6-0.3-3.1-1.4-4.5-3.4c-1.6-2.1-2.4-4.6-2.4-7.6c0-2.4,0.6-4.8,1.9-7.2
		s3.3-4.6,6.3-6.5c1.1-0.7,2.3-1.1,3.7-1.4c0.6-0.1,1.2-0.2,1.8-0.2c0.8,0,1.6,0.1,2.3,0.3c1.5,0.5,2.5,1.4,3.1,2.7
		c0.4,1,0.7,2,0.7,3.2c0,0.3-0.1,1-0.2,2s-0.6,2.2-1.5,3.6c-0.9,1.4-2,2.5-3.4,3.3c-1.4,0.7-2.7,1-3.8,1c-1.1,0-2-0.1-2.7-0.4
		c-0.2-0.1-0.4-0.1-0.5-0.1h0l0,0.4c0,1.4,0.4,2.5,1.3,3.6s2,1.8,3.4,2.3c1.1,0.4,2.2,0.6,3.3,0.6c0.3,0,0.7,0,1-0.1
		c0.1,0,0.2,0,0.4,0c0.7,0,1.2,0.1,1.5,0.4c0.2,0.1,0.2,0.3,0.2,0.5c0,0.1,0,0.2-0.1,0.3c-0.2,0.6-0.6,1.1-1.2,1.4
		C151.6,195.9,149.2,196.5,147.1,196.5z M148.4,182.6c0.7,0,1.4-0.2,2.3-0.5c0.9-0.3,1.6-1,2.2-2s0.9-2.1,0.9-3.2c0,0,0-0.3,0-0.9
		c0-0.6-0.3-1.2-0.9-2c-0.3-0.3-0.8-0.5-1.5-0.5c-0.2,0-0.6,0-1.2,0.1c-0.6,0.1-1.5,0.7-2.6,1.9c-1.1,1.2-2,3.1-2.6,5.8
		c0,0.1,0,0.2,0,0.3c0,0.1,0,0.1,0,0.2c0,0.1,0.1,0.1,0.4,0.2C146.5,182.4,147.5,182.6,148.4,182.6z"/>
</g>
<g>
	<g>
		<g>
			<g>
				<g>
					<path class="st1" d="M92.8,124.2c-2.3,13-0.5,24.8,8.8,35.4c-5.8-1.5-10.7-3.9-15.6-6.3c-3.4-1.6-5.6-4-7-7.6
						c-4.6-12.1-5.5-24.5-2.4-37.1c0.6-2.2,1.7-4.3,2.4-6.6c-6.1,5.5-10.2,12.5-13.7,19.9c0.5-6.4,2.5-12.3,5.4-17.8
						c2.9-5.5,6.1-10.9,10.8-15.2c1-0.9,0.6-1.7,0.2-2.6c-1.6-3.7-1.9-7.6-0.9-12.3c0.7,2.5,1.1,4.4,1.8,6.1
						c2.4,5.8,6.6,10,11.5,13.7c5.7,4.3,12.1,7.5,18.5,10.7c-6.9-1.3-13.5-3.8-20.5-7.3c1.4,4.5,2.2,8.3,5.6,10.9
						c8.5,6.7,17.5,11.8,28.9,11.3c6.9-0.3,13.8-0.2,21.1-0.5c-1-1.7-2.8-2.4-3.5-4.3c5.8,2.6,11.5,4,17.4,4.9
						c6.4,1,11.6-0.5,15.1-6.3c0.2-0.3,0.4-0.7,0.5-1.1c0.1-0.2,0-0.4,0-0.7c-12.3-1.9-24.7-3.4-35.7-10.3c1.3,0.2,2.7,0.4,4.9,0.8
						c-4.7-3.6-8.4-7-12.7-9.5c-3.1-1.8-6.6-0.7-9.9-0.8c-0.8,0-1.6,0.2-2.4,0.3c-7.4,1.4-13.1-1-17.7-7c-2.8-3.7-6-7.1-10.7-9.7
						c5.8,0.6,10.1,2.8,13.7,6.2c2.4,2.3,4.4,3.6,7.8,1.5c3.5-2.1,7.7-2.9,12.4-3.3c-2.6-1.6-5.1-0.8-8-1.4c3.5-1.4,6.7-1.8,9.9-1.3
						c4.7,0.8,9.2,2.3,13.4,4.7c1.5,0.9,3.2,1.6,4.7,2.6c7.8,5.2,16.3,3.8,24.8,2.6c1.1-3,3.9-1.6,5.9-2.3c2.5-0.8,5.2-1.4,7.7-2.3
						c2.3-0.8,3.3-2.2,3.3-4.6c0.1-4.8-0.9-9.4-2.6-13.9c-0.6-1.6-1.4-2-3.1-1.3c-4.2,1.6-8.3,1.3-12.3-2.1c1.2-0.1,2-0.1,2.5-0.2
						c-9.2-7.2-20.7-6.9-31.7-8.7c0.3,1.3,1.9,1.4,2.5,2.7c-2.2,0.2-4-0.6-5.6-1.6c-2.2-1.4-4.3-2.8-6.3-4.4
						c-4.8-3.9-10-4.6-15.9-3.1c-4.9,1.3-9.4,3.4-14.6,6c1.2-2.4,3-3.1,4.4-4.9c-8.3-0.3-16.2,0.6-24,2.8c0.9-0.7,1.9-1.5,2.8-2.2
						c-11.6,3-21.2,9.3-29.5,17.7C47.1,73,40.8,82.8,35.6,93.9c-1.9-3.8-3.2-7.4-4.4-11c-0.3-0.7,0.2-1.3,0.5-1.9
						C42.4,63,56.4,48.7,76.5,41.5c12.6-4.5,25.4-4.7,38.3-1.4c1.6,0.4,3,0.5,4.6,0c4.7-1.5,9-0.5,12.7,2.8c1.4,1.3,2.7,1.4,4.3,0.7
						c2-0.8,4.1-1.6,6.1-2.4c3.8-1.5,5.5-1.4,7.5,2.2c2,3.5,4.2,4.7,8.2,4.3c3.2-0.3,6,1.7,8.8,3.3c3.4,2,6.8,4.1,10.3,5.9
						c4,2.1,4.8,1.9,7.2-1.9c1.4-2.2,2.2-1.8,3.5-0.1c6.1,7.4,7.9,22.1,3.4,30.4c-0.6,1.1-0.7,2.2-0.9,3.4c-0.9,5.4-2.9,10-7.6,13.3
						c-2.5,1.7-2.4,3.2,0.2,4.6c2.1,1.2,1.6,3.2,1,5c-2.5,8-11.5,14.4-19.9,12.4c-8.7-2.1-17.1-0.4-25.6-0.1
						c-8.3,0.3-16.6,1.2-24.9-0.5c-2.1-0.4-1.3,1.3-1.3,2.1c0,7.3,1.5,14.4,4.2,21.1c1,2.5,2.1,4.9,3.6,7.2c0.7,1.1,0.7,1.6-0.7,2.2
						c-3.5,1.6-7.2,2.8-10.9,3.9c-1.6,0.5-2.3-0.4-3.1-1.5c-7.1-9.8-11.4-20.6-12.2-32.7c0-0.5-0.1-1-0.1-1.5
						C93.3,124.3,93.2,124.3,92.8,124.2z M133.5,84c-1-0.8-1.9-0.5-2.7-0.5c-4.3,0-8,2.3-12.2,2.9c-0.1,0-0.1,0.3-0.4,1
						C123.3,85.5,129.1,88.9,133.5,84z M175,99.3c1.4-1.8,1.8-3.6,2.3-5.2c0.2-0.8,0.8-1.9,0-2.4c-0.6-0.4-1.7,0-2.5,0.3
						c-1.3,0.4-0.6,1.4-0.5,2.2C174.5,95.7,174.7,97.2,175,99.3z M179.9,99.2c1.6-2.3,2.2-4.6,2.8-6.8c0.2-0.7,1-2-0.4-2.1
						c-0.9-0.1-2.5-0.1-2.4,1.8C179.9,94.2,179.9,96.4,179.9,99.2z M156.1,101.2c1.9-2,2.5-3.8,3.1-5.6c0.3-0.8,0.5-1.6-0.8-1.6
						c-0.9,0-1.8-0.1-1.8,1.2C156.5,97,156.3,98.8,156.1,101.2z M170.6,99.3c1.5-1.7,1.6-3.5,2-5.2c0.2-0.7,0.6-1.8-0.7-1.7
						c-0.9,0.1-2.3,0-2,1.7C170.1,95.7,170.3,97.2,170.6,99.3z M152,99c1.4-1.2,2-2.6,2.7-3.8c0.3-0.5,0.8-1.1,0.2-1.5
						c-0.6-0.4-1.5-0.6-2.2-0.6c-0.7,0-0.7,0.9-0.7,1.4C152,95.9,152,97.2,152,99z M166.3,99.9c1.1-2.1,1.6-3.6,1.8-5.1
						c0.1-0.7,0.6-1.7-0.8-1.6c-0.9,0.1-2.1,0.1-1.8,1.6C165.8,96.2,166,97.7,166.3,99.9z M147.7,47.7c-2.5-3-3.8-3-7-0.7
						C143,47.2,145.1,47.4,147.7,47.7z M184.1,96.4c1.5-2.2,2.2-3.8,2.6-5.5c0.2-0.6,1-1.7-0.2-1.9c-0.8-0.2-2,0.1-2,1.6
						C184.4,92.2,184.2,93.8,184.1,96.4z M177.3,100.8c-0.1,0-0.3-0.1-0.4-0.1c-0.6,1.2-1.2,2.4-1.8,3.6c-0.2,0.5-1,1.3,0.2,1.6
						c0.8,0.2,1.8,0.4,1.9-0.7C177.4,103.6,177.3,102.2,177.3,100.8z M163.7,100c-0.7,1.5-2,2.7-1.9,4.5c0,0.1,1.6,0.5,1.9,0.2
						C165.1,103.3,164.2,101.6,163.7,100z M161.7,98.9c0.8-1.8,1.8-3.2,1.2-4.9c-0.1-0.2-1.3-0.2-1.6,0
						C160.1,95.6,161.3,97,161.7,98.9z"/>
				</g>
			</g>
		</g>
		<g>
			<g>
				<g>
					<path class="st1" d="M74.1,67.2c-15.6,21.1-20.8,43.6-10.6,68.7c-0.4,0.1-0.6-0.4-0.9-0.6c-0.3-0.3-0.6-0.6-0.8-0.8
						c-7.1-7.5-13.1-15.8-18.3-24.8c-0.6-1.1-1.2-2.1-0.6-3.6C49.6,90.1,60.1,77.2,74.1,67.2z"/>
				</g>
			</g>
		</g>
		<g>
			<g>
				<g>
					<path class="st1" d="M137.9,58.7c-6.2,0.5-11.3,4.8-17.6,3.4c0.4-0.3,0.9-0.6,1.5-1.1c-4.6-0.5-7.7-2.7-9.9-6.5
						c-0.8-1.3,0.7-1.6,1.1-2.4c-0.8-0.9-1.6,0.3-2.7-0.2c2.2-2.7,5.1-4,8.3-4.4c0.9-0.1,1.5,0.3,2,1c4,5.3,9.5,8.3,15.8,9.8
						C136.9,58.3,137.3,58.5,137.9,58.7z M116.3,54.3c3.1,3.5,5.3,4.1,9.9,2.9C122.8,57.1,121.1,51.3,116.3,54.3z"/>
				</g>
			</g>
		</g>
		<g>
			<g>
				<g>
					<path class="st1" d="M152.8,77.7c2.2-0.4,4.5-0.3,6.7-0.9c4-1.1,4.9-3.4,2.4-6.8c-2.1-2.9-5.1-4.9-8.2-6.8
						c-0.9-0.5-1.9-1-2.7-1.7c5.8,1.4,11.4,3.3,15.5,8.1c3.4,4,1.9,8.2-3.3,9.3C159.7,79.7,156.2,79.1,152.8,77.7z"/>
				</g>
			</g>
		</g>
		<g>
			<g>
				<g>
					<path class="st1" d="M48.1,82.3c-3.8,5.6-6.8,11.5-9.2,17.9c-3.1-3.8-3.1-4.5-0.4-8C41.4,88.5,44.4,85.1,48.1,82.3z"/>
				</g>
			</g>
		</g>
		<g>
			<g>
				<g>
					<path class="st1" d="M93.8,67.3c5.3-4.3,5-6.3-2.2-12.5c4.5,0.2,8.8,3.4,9.1,6.8C100.8,64.5,98,66.8,93.8,67.3z"/>
				</g>
			</g>
		</g>
		<g>
			<g>
				<g>
					<path class="st1" d="M128.2,102.1c-4.4-2.8-9.2-4.7-14.2-5.9C118.2,93.8,124.1,96.2,128.2,102.1z"/>
				</g>
			</g>
		</g>
		<g>
			<g>
				<g>
					<path class="st1" d="M180.3,74.2c-4-2.8-7.5-5.2-11.1-7.8C174,65.5,177.2,67.7,180.3,74.2z"/>
				</g>
			</g>
		</g>
	</g>
</g>
</svg>
