<?xml version="1.0" encoding="UTF-8"?>
<svg id="Outline" xmlns="http://www.w3.org/2000/svg" width="3.66in" height="4.18in" viewBox="0 0 263.83 300.83">
  <defs>
    <style>
      .cls-1 {
        fill: none;
        stroke: #231f20;
        stroke-linecap: round;
        stroke-linejoin: round;
      }

      .cls-2 {
        fill: #231f20;
      }

      .cls-3 {
        fill: #010101;
      }
    </style>
  </defs>
  <polyline class="cls-1" points="42.05 258.93 42.05 300.33 242.34 300.33 242.34 258.93"/>
  <line class="cls-1" x1="242.34" y1="258.93" x2="263.33" y2="258.93"/>
  <line class="cls-1" x1="42.05" y1="258.93" x2="21.05" y2="258.93"/>
  <line class="cls-1" x1="263.33" y1="258.93" x2="263.33" y2="8.58"/>
  <line class="cls-1" x1="21.05" y1="258.93" x2="21.05" y2="8.58"/>
  <line class="cls-1" x1="28.44" y1=".5" x2="255.95" y2=".5"/>
  <path class="cls-1" d="M21.05,8.58c0-4.46,3.3-8.08,7.39-8.08"/>
  <path class="cls-1" d="M255.95,.5c4.08,0,7.39,3.61,7.39,8.08"/>
  <g>
    <path class="cls-3" d="M132.95,12.42c-38.93,3.78-72.52,26.6-89.96,61.17-8.23,16.24-12.01,32.21-12.01,50.58,0,23.49,7.47,46.45,21.27,65.27,1.51,2.09,2.76,3.87,2.76,4.05,0,.13-3.69,8.85-8.23,19.4-6.18,14.41-8.23,19.53-8.23,20.91,0,2.49,1.51,4.67,3.83,5.47,1.74,.62,3.25,.4,32.34-4.72l30.56-5.38,4.09,1.33c10.94,3.47,20.73,4.89,33.28,4.94,18.29,.04,33.81-3.6,49.96-11.75,34.3-17.26,57.52-51.03,61.26-89.07,.76-7.79,.36-21.98-.85-29.05-3.11-18.42-10.01-34.43-21.31-49.56-4.36-5.83-14.06-15.75-19.66-20.06-16.02-12.41-33.23-19.8-53.39-22.87-5.61-.85-19.93-1.2-25.71-.67Zm21.71,12.5c9.7,1.11,21.67,4.49,30.43,8.59,19.8,9.25,36.79,25.76,46.54,45.2,10.19,20.33,13.12,42.4,8.63,64.87-7.39,37.15-36.21,67.36-73.32,76.83-17.75,4.54-38.44,3.78-55.21-2-2.18-.8-4.8-1.38-5.83-1.38s-12.68,1.91-26.03,4.27c-13.3,2.31-24.47,4.23-24.74,4.23s2.62-7.25,6.41-16.11c8.05-18.77,7.87-17.71,3.92-22.73-15.08-19.22-22.11-39.24-22.16-63.04-.04-12.15,1.38-20.64,5.25-32.03,5.07-14.73,12.41-26.43,23.8-37.86,8.54-8.59,15.3-13.52,25.71-18.77,17.44-8.85,36.97-12.32,56.59-10.05Z"/>
    <g>
      <path class="cls-2" d="M94.71,86c-1.85,0-3.92-.15-6.22-.43h-.65c-.58,0-1.07-.2-1.47-.61-.4-.41-.61-.91-.62-1.51,.09-13.27,.23-24.81,.41-34.61,.04-.6,.25-1.09,.65-1.48,.4-.39,.88-.58,1.44-.58h6.28v.08c.63-.09,1.28-.14,1.93-.14,1.41,0,3.07,.28,4.98,.84,1.91,.56,3.57,1.82,4.98,3.78,1.16,1.79,1.74,3.72,1.74,5.79,0,1.7-.43,3.29-1.3,4.75-.78,1.32-1.95,2.44-3.5,3.34,1.23,.4,2.47,1.06,3.72,1.98,1.83,1.41,3.05,3.13,3.67,5.16,.29,.91,.43,1.81,.43,2.72,0,3.28-1.56,5.97-4.67,8.07-2.79,1.9-6.72,2.85-11.79,2.85Zm.92-6.82c1.9,0,3.47-.32,4.7-.95,1.63-.83,2.44-2.06,2.44-3.69,0-.51-.15-1.09-.45-1.75-.3-.66-.89-1.21-1.78-1.64-1.36-.62-2.53-.92-3.5-.92-1.14,0-2.06,.22-2.74,.65-.05,3.01-.12,5.76-.19,8.26,.54,.04,1.05,.05,1.52,.05Zm-1.2-17.28c1.88,0,3.47-.53,4.75-1.6,.91-.83,1.42-1.72,1.55-2.66,.04-.33,.05-.63,.05-.92,0-.6-.08-1.15-.24-1.66-.29-1.32-1.62-2-3.99-2.04-.24-.02-.5-.03-.79-.03-.71,0-1.12,.05-1.25,.14l-.08,8.77Z"/>
      <path class="cls-2" d="M127.63,85.13c-2.34,0-4.75-.59-7.25-1.77-1.96-1.03-3.45-2.55-4.48-4.56-1.23-2.34-1.85-5-1.85-7.99,0-1.88,.26-3.69,.79-5.41,1.07-3.35,2.81-5.84,5.22-7.47,1.97-1.32,4.25-1.98,6.82-1.98,.62,0,1.24,.04,1.87,.11,2.3,.33,4.08,1.04,5.34,2.15,1.26,1.11,2.13,2.33,2.62,3.67,.42,1.18,.62,2.23,.62,3.15v.33l.11,1.49c.05,.98,.08,1.63,.08,1.96,0,.4-.09,.8-.26,1.2-.17,.4-.41,.74-.72,1.03-.67,.6-1.46,.92-2.36,.98l-1.82,.19c-5.29,.62-8.68,1.01-10.19,1.17,.16,.92,.43,1.77,.79,2.55,.87,1.87,2.09,2.84,3.67,2.93l.62,.03c1.94,0,3.1-.65,3.48-1.96,.14-.47,.41-.84,.79-1.1,.38-.26,.81-.39,1.28-.39l2.47,.14c.62,.05,1.1,.29,1.44,.69,.34,.41,.52,.87,.52,1.37v.22c-.33,2.61-1.72,4.61-4.18,6-1.63,.85-3.43,1.28-5.41,1.28Zm-5.11-18.39l8.34-.95c0-.13,0-.25-.01-.37,0-.12-.08-.42-.22-.9-.14-.48-.4-.96-.8-1.44-.4-.48-.99-.8-1.77-.96-.25-.04-.5-.05-.73-.05-1.34,0-2.47,.61-3.4,1.82-.6,.8-1.07,1.75-1.41,2.85Z"/>
    </g>
  </g>
  <g>
    <path class="cls-2" d="M135.38,135.83c-.3,0-.62-.06-.94-.18-4.22-1.96-7.89-4.31-11.02-7.05-.04,1.82-.09,3.4-.15,4.75-.04,.65-.28,1.18-.73,1.6-.44,.42-.98,.64-1.6,.64h-4.51c-.65,0-1.19-.23-1.63-.68-.44-.46-.68-1.01-.7-1.68,.1-14.79,.25-27.65,.45-38.57,.04-.67,.28-1.22,.73-1.65,.44-.43,.98-.65,1.6-.65h6.99v.06c1.94,.1,3.92,.46,5.95,1.08,2.03,.62,3.74,1.57,5.13,2.86,1.63,1.68,2.72,3.36,3.27,5.06,.71,2.24,1.06,4.71,1.06,7.42,0,5.21-1.62,9.42-4.87,12.62-.95,.91-2.06,1.62-3.33,2.12,2.4,1.59,4.73,2.97,6.99,4.12,.56,.3,.95,.73,1.15,1.27,.1,.26,.15,.53,.15,.79,0,.3-.07,.62-.21,.94l-1.67,3.78c-.28,.59-.72,.99-1.3,1.21-.26,.1-.54,.15-.82,.15Zm-11.72-18.35c.54-.12,1.28-.32,2.21-.61,1.21-.44,2.19-1.32,2.94-2.63,1.03-1.8,1.54-3.92,1.54-6.36,0-1.01-.11-2-.33-2.97-.44-2.02-1.38-3.51-2.82-4.48-.75-.5-1.7-.76-2.85-.76h-.48c-.04,5.31-.11,11.24-.21,17.8Z"/>
    <path class="cls-2" d="M149.73,135.38h-4.27c-.65,0-1.19-.23-1.63-.68-.44-.45-.68-1.01-.7-1.68,.12-11.14,.26-19.73,.42-25.76,.04-.65,.28-1.19,.73-1.62,.44-.43,.98-.65,1.6-.65h4.42c.65,0,1.19,.23,1.63,.68,.44,.45,.68,1,.7,1.65v1.42c0,2.95-.05,6.92-.15,11.93-.1,5.01-.24,9.17-.42,12.5-.06,.65-.31,1.18-.74,1.59-.43,.41-.96,.62-1.59,.62Zm-1.91-33.12c-1.33,0-2.38-.38-3.15-1.15-.97-.89-1.46-2.02-1.48-3.39,.14-3.01,1.54-4.78,4.21-5.33,.28-.04,.55-.06,.82-.06,1.27,0,2.38,.43,3.33,1.3,.97,.95,1.45,2.1,1.45,3.45v.15c-.2,2.85-1.62,4.5-4.24,4.96-.34,.04-.66,.06-.94,.06Z"/>
    <path class="cls-2" d="M168.65,151.82c-.65,0-1.31-.04-2-.12-1.21-.14-2.52-.5-3.94-1.06-1.41-.57-2.65-1.33-3.72-2.3-.28-.28-.57-.56-.85-.82-.28-.26-.42-.59-.42-.97,0-.22,.06-.44,.18-.67l2.75-4.54c.26-.44,.62-.67,1.09-.67,.28,0,.55,.1,.82,.3l1.33,1.03c.91,.62,1.92,.98,3.03,1.06l.94,.03c.67,0,1.2-.05,1.6-.15,2.46-.69,4.12-3.71,4.96-9.08-1.82,.97-3.72,1.45-5.72,1.45-.97,0-1.92-.12-2.85-.36-3.27-.87-5.73-2.94-7.39-6.21-1.23-2.58-1.85-5.48-1.85-8.69s.58-6.09,1.73-8.96c1.37-3.05,3.21-5.18,5.51-6.39,2.08-1.13,4.12-1.7,6.12-1.7,1.63,0,3.1,.28,4.39,.85,.02-.38,.16-.7,.41-.95,.25-.25,.56-.38,.92-.38l6.57,.09c.34,.02,.64,.15,.88,.38,.24,.23,.37,.52,.39,.86,.34,5.11,.51,9.94,.51,14.5,0,1.23-.02,3.3-.06,6.21-.04,2.91-.32,6.46-.85,10.67-.53,4.21-1.43,7.52-2.72,9.95-1.23,2.12-2.87,3.75-4.92,4.9s-4.33,1.73-6.86,1.73Zm2.18-23.43c.5,0,1.07-.1,1.7-.3,1.33-.42,2.19-1.45,2.57-3.09,.02-.08,.03-.83,.03-2.24,0-3.13-.08-5.98-.24-8.57-.57-1.03-1.28-1.67-2.15-1.94-.63-.22-1.25-.33-1.88-.33-.42,0-1.01,.09-1.76,.26-.75,.17-1.49,.65-2.24,1.44-.95,1.13-1.52,2.84-1.73,5.12-.04,.38-.06,.77-.06,1.15,0,1.86,.37,3.63,1.12,5.33,1.01,2.12,2.55,3.18,4.63,3.18Z"/>
    <path class="cls-2" d="M214.51,135.86h-4.99c-.67,0-1.22-.23-1.67-.7-.44-.46-.67-1.04-.67-1.73l.03-3.39c0-3.21-.06-6.45-.18-9.72-.1-2.24-.29-3.88-.58-4.92-.28-1.04-.69-1.72-1.22-2.03-.54-.31-1.33-.47-2.38-.47-.99,0-1.74,.25-2.24,.76-.85,.89-1.43,2.22-1.76,4-.12,6.42-.25,11.61-.39,15.56-.04,.65-.28,1.18-.73,1.6-.44,.42-.98,.64-1.6,.64h-4.51c-.65,0-1.19-.23-1.63-.68-.44-.46-.68-1.01-.7-1.68,.1-14.47,.25-27.11,.45-37.93,.04-.65,.28-1.19,.73-1.62,.44-.43,.98-.65,1.6-.65h4.66c.65,0,1.19,.22,1.63,.67,.44,.44,.68,1,.7,1.67v2.72l-.03,6.99c1.17-.28,2.56-.42,4.18-.42l1.7,.06c4,.3,7.01,1.92,9.05,4.84,1.25,2.04,2.11,4.37,2.57,6.99,.42,2.5,.63,5.03,.63,7.57v2.21c0,1.37-.07,3.07-.21,5.09l-.12,2.33c-.04,.63-.28,1.16-.73,1.59-.45,.43-.98,.65-1.61,.65Z"/>
    <path class="cls-2" d="M235.22,135.74h-.24c-.99,0-2.34-.12-4.04-.36-1.71-.24-3.34-.88-4.9-1.91-1.56-1.03-2.53-2.69-2.89-5-.38-3.55-.58-8.82-.58-15.8,0-1.8,0-3.49,.03-5.09h-2c-.26,0-.48-.09-.67-.27s-.27-.4-.27-.67v-4.66c0-.26,.09-.48,.27-.67s.4-.27,.67-.27h2.15l.06-3.94c.04-.67,.29-1.21,.74-1.63,.45-.42,1.01-.64,1.68-.64l5.39,.18c.67,.04,1.21,.28,1.62,.73,.41,.44,.63,.99,.65,1.63-.02,1.27-.05,2.49-.09,3.66h2.12c.26,0,.48,.09,.67,.27s.27,.4,.27,.67v4.66c0,.26-.09,.48-.27,.67s-.4,.27-.67,.27h-2.27c-.1,2.87-.15,5.45-.15,7.75,0,1.74,.04,3.77,.12,6.12,.12,3.49,.98,5.28,2.57,5.36,.62,.02,1.15,.24,1.57,.67s.66,.95,.7,1.57l.15,4.27c0,.69-.22,1.26-.67,1.73-.44,.46-1.02,.7-1.73,.7Z"/>
  </g>
  <g>
    <path class="cls-2" d="M89.08,192.23c-1.73,0-3.67-.14-5.82-.41h-.61c-.54,0-1-.19-1.37-.57-.37-.38-.57-.85-.58-1.41,.08-12.42,.21-23.21,.38-32.38,.03-.56,.24-1.02,.61-1.39,.37-.36,.82-.55,1.35-.55h5.87v.08c.59-.09,1.19-.13,1.8-.13,1.32,0,2.88,.26,4.66,.79,1.79,.52,3.34,1.7,4.66,3.53,1.08,1.68,1.63,3.48,1.63,5.41,0,1.59-.41,3.07-1.22,4.45-.73,1.24-1.82,2.28-3.28,3.13,1.15,.37,2.31,.99,3.48,1.86,1.71,1.32,2.85,2.93,3.43,4.83,.27,.85,.41,1.69,.41,2.54,0,3.07-1.46,5.58-4.37,7.55-2.61,1.78-6.29,2.67-11.03,2.67Zm.86-6.38c1.78,0,3.24-.3,4.4-.89,1.52-.78,2.29-1.93,2.29-3.46,0-.47-.14-1.02-.42-1.64-.28-.62-.83-1.13-1.66-1.54-1.27-.58-2.36-.86-3.28-.86-1.07,0-1.92,.2-2.57,.61-.05,2.81-.11,5.39-.18,7.73,.51,.03,.98,.05,1.42,.05Zm-1.12-16.16c1.76,0,3.24-.5,4.45-1.5,.85-.78,1.33-1.61,1.45-2.49,.03-.3,.05-.59,.05-.86,0-.56-.08-1.08-.23-1.55-.27-1.24-1.52-1.87-3.74-1.91-.22-.02-.47-.03-.74-.03-.66,0-1.05,.04-1.17,.13l-.08,8.21Z"/>
    <path class="cls-2" d="M123.54,191.54c-.69,0-1.27-.22-1.73-.66-.25-.22-.46-.58-.61-1.09-1.76,1.17-3.7,1.75-5.82,1.75-.3,0-.62-.02-.94-.05-3.02-.29-5.16-1.6-6.43-3.94-.56-1.15-.84-2.35-.84-3.58,0-1.61,.47-3.28,1.42-5.01,1.81-2.93,4.87-4.46,9.17-4.57h.3c1.2,0,2.41,.18,3.63,.53-.1-1.76-.34-2.99-.71-3.68-.58-1.08-1.59-1.63-3.05-1.63-.07,0-.28,0-.64,.03-.36,.02-.79,.18-1.3,.48s-.76,.67-.76,1.09c-.05,.52-.25,.95-.61,1.28-.36,.33-.79,.5-1.3,.52l-2.87,.03c-.58,0-1.05-.19-1.42-.57-.37-.38-.56-.85-.56-1.41,.14-3.32,1.96-5.59,5.46-6.81,1.49-.44,3.02-.66,4.57-.66,1.02,0,2.44,.16,4.28,.5,1.84,.33,3.35,1.2,4.54,2.6,.98,1.36,1.64,3.09,1.98,5.21,.29,1.78,.43,3.68,.43,5.72,0,2.51-.16,5.43-.48,8.77-.09,.93-.14,1.67-.15,2.21-.07,.73-.37,1.37-.91,1.92-.54,.55-1.21,.88-2.01,.98l-2.39,.03-.28,.03Zm-6.86-4.85c1.69-.03,2.95-.55,3.76-1.55,.58-.78,.97-1.73,1.17-2.85l.1-1.83c-.68-.63-1.81-.95-3.41-.97-1.59,.07-2.77,.59-3.53,1.58-.63,.88-.94,1.74-.94,2.59,0,1.05,.37,1.89,1.12,2.52,.37,.34,.94,.51,1.7,.51h.03Z"/>
    <path class="cls-2" d="M145.9,191.8c-1.93,0-3.95-.48-6.05-1.45-1.88-.91-3.35-2.3-4.4-4.17-1.39-2.44-2.08-5.21-2.08-8.31,0-1.44,.17-2.84,.51-4.19,.8-3.05,2.25-5.37,4.37-6.96,1.93-1.44,4.25-2.16,6.96-2.16l.79,.03c2.12,.19,3.79,.76,5.01,1.73s2.09,2.06,2.6,3.29c.52,1.23,.78,2.32,.8,3.27,0,.58-.19,1.05-.56,1.42s-.83,.56-1.37,.56l-2.24-.08c-.44-.03-.83-.19-1.16-.46-.33-.27-.54-.63-.62-1.07-.02-.09-.11-.25-.27-.51-.16-.25-.45-.51-.85-.76-.51-.29-1.2-.43-2.08-.43-1.58,0-2.79,.66-3.63,1.98s-1.27,2.85-1.27,4.6c0,1.59,.32,3.07,.97,4.42,.81,1.66,2.08,2.57,3.81,2.72l.38,.03c.52,0,1.15-.12,1.87-.36,.72-.24,1.27-.84,1.66-1.8,.32-.81,.93-1.25,1.83-1.3h2.19c.56,.02,1.02,.22,1.39,.6,.36,.38,.55,.85,.55,1.41-.19,2.81-1.52,5.01-3.99,6.58-1.52,.91-3.23,1.37-5.11,1.37Z"/>
    <path class="cls-2" d="M175.4,191.69c-.49,0-.92-.16-1.3-.48-3.51-3.12-6.06-5.91-7.67-8.39-.07,2.78-.14,5.09-.2,6.94-.03,.54-.24,.99-.61,1.35s-.82,.53-1.35,.53h-3.79c-.54,0-1-.19-1.37-.56s-.57-.84-.58-1.4c.09-12.2,.21-22.8,.38-31.79,.03-.54,.24-1,.61-1.36,.37-.36,.82-.55,1.35-.55h3.91c.54,0,1,.19,1.37,.56s.56,.84,.57,1.41c0,.57,.01,1.17,.01,1.82,0,3.25-.03,7.38-.1,12.38,1.95-1.74,3.9-3.88,5.87-6.4,.42-.52,.95-.79,1.58-.79,.37,0,.74,.11,1.09,.33l2.49,1.68c.58,.41,.86,.95,.86,1.63,0,.42-.14,.82-.41,1.19-2.52,3.22-4.96,5.79-7.29,7.73,2.12,2.71,4.83,5.63,8.13,8.77,.42,.41,.64,.89,.64,1.45s-.22,1.04-.66,1.45l-2.24,2.01c-.39,.34-.82,.51-1.3,.51Z"/>
    <path class="cls-2" d="M187.86,193.42c-.95,0-1.79-.29-2.52-.86-.83-.71-1.28-1.65-1.35-2.82v-.1c0-1.32,.33-2.35,.99-3.1,.8-.88,1.78-1.32,2.95-1.32,.95,0,1.8,.32,2.57,.97,.88,.8,1.34,1.8,1.37,3-.02,1.17-.26,2.05-.74,2.64s-.97,1-1.5,1.22-.9,.34-1.13,.36c-.23,.02-.45,.03-.65,.03Zm2.13-12.78h-3.76c-.54,0-1-.19-1.38-.57-.38-.38-.57-.85-.57-1.41,.09-7.57,.21-14.37,.38-20.41,.03-.54,.24-1,.61-1.36,.37-.36,.82-.55,1.35-.55h3.91c.52,0,.98,.19,1.36,.56,.38,.37,.58,.84,.6,1.4,0,2.47-.05,5.85-.15,10.13-.1,4.28-.23,7.74-.38,10.38-.05,.52-.26,.96-.62,1.31-.36,.35-.81,.52-1.33,.52Z"/>
  </g>
  <text/>
</svg>