<?xml version="1.0" encoding="utf-8"?>
<!-- Generator: Adobe Illustrator 26.0.3, SVG Export Plug-In . SVG Version: 6.00 Build 0)  -->
<svg version="1.1" xmlns="http://www.w3.org/2000/svg" xmlns:xlink="http://www.w3.org/1999/xlink" x="0px" y="0px"
	 viewBox="0 0 360 504" style="enable-background:new 0 0 360 504;" xml:space="preserve">
<style type="text/css">
	.st0{fill:none;stroke:#000000;stroke-linecap:round;stroke-linejoin:round;stroke-miterlimit:10;}
	.st1{fill:#010101;}
	.st2{fill:none;}
</style>
<g id="Text">
</g>
<g id="Artwork">
</g>
<g id="Outline">
	<polyline class="st0" points="68.4,464.4 68.4,504 291.6,504 291.6,464.4 	"/>
	<path class="st0" d="M37.8,468"/>
	<line class="st0" x1="291.6" y1="464.4" x2="315" y2="464.4"/>
	<line class="st0" x1="68.4" y1="464.4" x2="45" y2="464.4"/>
	<line class="st0" x1="315" y1="464.4" x2="315" y2="185.4"/>
	<line class="st0" x1="45" y1="464.4" x2="45" y2="185.4"/>
	<line class="st0" x1="53.2" y1="176.4" x2="306.8" y2="176.4"/>
	<path class="st0" d="M45,185.4c0-5,3.7-9,8.2-9"/>
	<path class="st0" d="M306.8,176.4c4.5,0,8.2,4,8.2,9"/>
	<g transform="translate(0.000000,512.000000) scale(0.100000,-0.100000)">
		<path class="st1" d="M1697,3223.2c-433.8-42.1-808.1-296.5-1002.5-681.7c-91.7-181-133.9-359-133.9-563.7
			c0-261.8,83.3-517.6,237-727.3c16.9-23.3,30.7-43.1,30.7-45.1c0-1.5-41.2-98.7-91.7-216.2c-68.9-160.6-91.7-217.7-91.7-233
			c0-27.8,16.9-52.1,42.6-61c19.3-6.9,36.2-4.5,360.4,52.6l340.6,60l45.6-14.9c122-38.7,231-54.5,370.9-55
			c203.8-0.5,376.8,40.2,556.8,130.9c382.3,192.4,641.1,568.7,682.7,992.6c8.4,86.8,4,244.9-9.4,323.8
			c-34.7,205.3-111.6,383.7-237.5,552.3c-48.6,64.9-156.7,175.5-219.1,223.6c-178.5,138.3-370.4,220.6-595,254.8
			C1921.1,3225.2,1761.4,3229.1,1697,3223.2z M1938.9,3083.9c108.1-12.4,241.5-50.1,339.1-95.7c220.6-103.1,410-287.1,518.6-503.7
			c113.5-226.6,146.3-472.5,96.2-722.9c-82.3-414-403.6-750.6-817.1-856.2c-197.8-50.6-428.4-42.1-615.3,22.3
			c-24.3,8.9-53.5,15.4-64.9,15.4c-10.9,0-141.3-21.3-290-47.6c-148.2-25.8-272.7-47.1-275.7-47.1c-3,0,29.3,80.8,71.4,179.5
			c89.7,209.2,87.8,197.3,43.6,253.4c-168.1,214.2-246.4,437.3-246.9,702.5c-0.5,135.4,15.4,230,58.5,357
			c56.5,164.1,138.3,294.5,265.2,421.9c95.2,95.7,170.6,150.7,286.6,209.2C1502.6,3070.5,1720.3,3109.2,1938.9,3083.9z"/>
		<g>
			<path d="M1270.8,2403.2c-20.6,0-43.7,1.6-69.3,4.8h-7.3c-6.5,0-11.9,2.3-16.3,6.8c-4.4,4.6-6.8,10.1-7,16.8
				c1,147.9,2.5,276.5,4.5,385.7c0.4,6.7,2.8,12.2,7.3,16.5c4.4,4.3,9.8,6.5,16,6.5h69.9v-0.9c7.1,1,14.2,1.5,21.5,1.5
				c15.7,0,34.3-3.1,55.6-9.4c21.3-6.3,39.8-20.3,55.6-42.1c12.9-20,19.4-41.5,19.4-64.5c0-19-4.8-36.6-14.5-53
				c-8.7-14.7-21.7-27.1-39.1-37.2c13.7-4.4,27.5-11.8,41.5-22.1c20.4-15.7,34-34.9,40.9-57.5c3.2-10.1,4.8-20.2,4.8-30.3
				c0-36.5-17.4-66.5-52.1-89.9C1371.1,2413.8,1327.3,2403.2,1270.8,2403.2z M1281.1,2479.2c21.2,0,38.6,3.5,52.4,10.6
				c18.2,9.3,27.2,23,27.2,41.2c0,5.6-1.7,12.2-5,19.5c-3.3,7.4-9.9,13.5-19.8,18.3c-15.1,6.9-28.2,10.3-39.1,10.3
				c-12.7,0-22.9-2.4-30.6-7.3c-0.6-33.5-1.3-64.2-2.1-92C1270.2,2479.4,1275.8,2479.2,1281.1,2479.2z M1267.8,2671.7
				c21,0,38.6,6,53,17.9c10.1,9.3,15.8,19.2,17.3,29.7c0.4,3.6,0.6,7.1,0.6,10.3c0,6.7-0.9,12.8-2.7,18.5
				c-3.2,14.7-18.1,22.3-44.5,22.7c-2.6,0.2-5.6,0.3-8.8,0.3c-7.9,0-12.5-0.5-13.9-1.5L1267.8,2671.7z"/>
			<path d="M1637.7,2412.9c-26,0-53,6.6-80.8,19.7c-21.8,11.5-38.4,28.5-50,50.9c-13.7,26-20.6,55.7-20.6,89c0,21,2.9,41.1,8.8,60.2
				c11.9,37.3,31.3,65.1,58.1,83.3c22,14.7,47.3,22.1,76,22.1c6.9,0,13.8-0.4,20.9-1.2c25.6-3.6,45.5-11.6,59.5-23.9
				c14-12.3,23.8-25.9,29.2-40.9c4.6-13.1,7-24.8,7-35.1v-3.6l1.2-16.7c0.6-10.9,0.9-18.2,0.9-21.8c0-4.4-1-8.9-2.9-13.3
				c-1.9-4.4-4.6-8.3-8-11.5c-7.5-6.7-16.2-10.3-26.3-10.9l-20.3-2.1c-58.9-6.9-96.8-11.2-113.5-13c1.8-10.3,4.7-19.8,8.8-28.5
				c9.7-20.8,23.3-31.7,40.9-32.7l7-0.3c21.6,0,34.5,7.3,38.8,21.8c1.6,5.2,4.5,9.3,8.8,12.3c4.2,2.9,9,4.4,14.2,4.4l27.5-1.5
				c6.9-0.6,12.2-3.2,16-7.7c3.8-4.6,5.8-9.6,5.8-15.3v-2.4c-3.6-29.1-19.2-51.4-46.6-66.9
				C1679.8,2417.6,1659.7,2412.9,1637.7,2412.9z M1580.8,2617.9l92.9,10.6c0,1.4,0,2.8-0.1,4.1c-0.1,1.3-0.9,4.6-2.4,10
				c-1.5,5.3-4.5,10.7-8.9,16c-4.4,5.3-11,8.9-19.7,10.7c-2.8,0.4-5.6,0.6-8.2,0.6c-14.9,0-27.5-6.8-37.8-20.3
				C1589.9,2640.8,1584.6,2630.2,1580.8,2617.9z"/>
		</g>
	</g>
	<g>
		<path d="M173.2,328.5c-0.3,0-0.6-0.1-0.9-0.2c-4.2-2-7.9-4.3-11-7.1c0,1.8-0.1,3.4-0.2,4.8c0,0.6-0.3,1.2-0.7,1.6
			c-0.4,0.4-1,0.6-1.6,0.6h-4.5c-0.6,0-1.2-0.2-1.6-0.7c-0.4-0.5-0.7-1-0.7-1.7c0.1-14.8,0.3-27.6,0.5-38.6c0-0.7,0.3-1.2,0.7-1.6
			c0.4-0.4,1-0.7,1.6-0.7h7v0.1c1.9,0.1,3.9,0.5,5.9,1.1c2,0.6,3.7,1.6,5.1,2.9c1.6,1.7,2.7,3.4,3.3,5.1c0.7,2.2,1.1,4.7,1.1,7.4
			c0,5.2-1.6,9.4-4.9,12.6c-0.9,0.9-2.1,1.6-3.3,2.1c2.4,1.6,4.7,3,7,4.1c0.6,0.3,0.9,0.7,1.2,1.3c0.1,0.3,0.2,0.5,0.2,0.8
			c0,0.3-0.1,0.6-0.2,0.9l-1.7,3.8c-0.3,0.6-0.7,1-1.3,1.2C173.7,328.5,173.5,328.5,173.2,328.5z M161.5,310.2
			c0.5-0.1,1.3-0.3,2.2-0.6c1.2-0.4,2.2-1.3,2.9-2.6c1-1.8,1.5-3.9,1.5-6.4c0-1-0.1-2-0.3-3c-0.4-2-1.4-3.5-2.8-4.5
			c-0.7-0.5-1.7-0.8-2.8-0.8h-0.5C161.6,297.7,161.6,303.6,161.5,310.2z"/>
		<path d="M187.5,328.1h-4.3c-0.6,0-1.2-0.2-1.6-0.7c-0.4-0.5-0.7-1-0.7-1.7c0.1-11.1,0.3-19.7,0.4-25.8c0-0.6,0.3-1.2,0.7-1.6
			c0.4-0.4,1-0.7,1.6-0.7h4.4c0.6,0,1.2,0.2,1.6,0.7c0.4,0.5,0.7,1,0.7,1.6v1.4c0,2.9-0.1,6.9-0.2,11.9c-0.1,5-0.2,9.2-0.4,12.5
			c-0.1,0.6-0.3,1.2-0.7,1.6C188.7,327.9,188.2,328.1,187.5,328.1z M185.6,295c-1.3,0-2.4-0.4-3.1-1.2c-1-0.9-1.5-2-1.5-3.4
			c0.1-3,1.5-4.8,4.2-5.3c0.3,0,0.6-0.1,0.8-0.1c1.3,0,2.4,0.4,3.3,1.3c1,0.9,1.5,2.1,1.5,3.5v0.2c-0.2,2.8-1.6,4.5-4.2,5
			C186.2,295,185.9,295,185.6,295z"/>
		<path d="M206.5,344.5c-0.6,0-1.3,0-2-0.1c-1.2-0.1-2.5-0.5-3.9-1.1c-1.4-0.6-2.7-1.3-3.7-2.3c-0.3-0.3-0.6-0.6-0.8-0.8
			c-0.3-0.3-0.4-0.6-0.4-1c0-0.2,0.1-0.4,0.2-0.7l2.8-4.5c0.3-0.4,0.6-0.7,1.1-0.7c0.3,0,0.6,0.1,0.8,0.3l1.3,1c0.9,0.6,1.9,1,3,1.1
			l0.9,0c0.7,0,1.2-0.1,1.6-0.2c2.5-0.7,4.1-3.7,5-9.1c-1.8,1-3.7,1.5-5.7,1.5c-1,0-1.9-0.1-2.8-0.4c-3.3-0.9-5.7-2.9-7.4-6.2
			c-1.2-2.6-1.8-5.5-1.8-8.7c0-3.1,0.6-6.1,1.7-9c1.4-3,3.2-5.2,5.5-6.4c2.1-1.1,4.1-1.7,6.1-1.7c1.6,0,3.1,0.3,4.4,0.8
			c0-0.4,0.2-0.7,0.4-1c0.3-0.3,0.6-0.4,0.9-0.4l6.6,0.1c0.3,0,0.6,0.1,0.9,0.4c0.2,0.2,0.4,0.5,0.4,0.9c0.3,5.1,0.5,9.9,0.5,14.5
			c0,1.2,0,3.3-0.1,6.2c0,2.9-0.3,6.5-0.8,10.7c-0.5,4.2-1.4,7.5-2.7,9.9c-1.2,2.1-2.9,3.8-4.9,4.9S209,344.5,206.5,344.5z
			 M208.6,321.1c0.5,0,1.1-0.1,1.7-0.3c1.3-0.4,2.2-1.5,2.6-3.1c0-0.1,0-0.8,0-2.2c0-3.1-0.1-6-0.2-8.6c-0.6-1-1.3-1.7-2.1-1.9
			c-0.6-0.2-1.3-0.3-1.9-0.3c-0.4,0-1,0.1-1.8,0.3c-0.7,0.2-1.5,0.7-2.2,1.4c-0.9,1.1-1.5,2.8-1.7,5.1c0,0.4-0.1,0.8-0.1,1.2
			c0,1.9,0.4,3.6,1.1,5.3C205,320,206.6,321.1,208.6,321.1z"/>
		<path d="M252.3,328.6h-5c-0.7,0-1.2-0.2-1.7-0.7c-0.4-0.5-0.7-1-0.7-1.7l0-3.4c0-3.2-0.1-6.4-0.2-9.7c-0.1-2.2-0.3-3.9-0.6-4.9
			c-0.3-1-0.7-1.7-1.2-2c-0.5-0.3-1.3-0.5-2.4-0.5c-1,0-1.7,0.3-2.2,0.8c-0.8,0.9-1.4,2.2-1.8,4c-0.1,6.4-0.3,11.6-0.4,15.6
			c0,0.6-0.3,1.2-0.7,1.6c-0.4,0.4-1,0.6-1.6,0.6h-4.5c-0.6,0-1.2-0.2-1.6-0.7c-0.4-0.5-0.7-1-0.7-1.7c0.1-14.5,0.3-27.1,0.5-37.9
			c0-0.6,0.3-1.2,0.7-1.6c0.4-0.4,1-0.7,1.6-0.7h4.7c0.6,0,1.2,0.2,1.6,0.7c0.4,0.4,0.7,1,0.7,1.7v2.7l0,7c1.2-0.3,2.6-0.4,4.2-0.4
			l1.7,0.1c4,0.3,7,1.9,9.1,4.8c1.3,2,2.1,4.4,2.6,7c0.4,2.5,0.6,5,0.6,7.6v2.2c0,1.4-0.1,3.1-0.2,5.1l-0.1,2.3
			c0,0.6-0.3,1.2-0.7,1.6C253.5,328.4,252.9,328.6,252.3,328.6z"/>
		<path d="M273,328.5h-0.2c-1,0-2.3-0.1-4-0.4c-1.7-0.2-3.3-0.9-4.9-1.9c-1.6-1-2.5-2.7-2.9-5c-0.4-3.6-0.6-8.8-0.6-15.8
			c0-1.8,0-3.5,0-5.1h-2c-0.3,0-0.5-0.1-0.7-0.3s-0.3-0.4-0.3-0.7v-4.7c0-0.3,0.1-0.5,0.3-0.7s0.4-0.3,0.7-0.3h2.1l0.1-3.9
			c0-0.7,0.3-1.2,0.7-1.6c0.5-0.4,1-0.6,1.7-0.6l5.4,0.2c0.7,0,1.2,0.3,1.6,0.7c0.4,0.4,0.6,1,0.7,1.6c0,1.3-0.1,2.5-0.1,3.7h2.1
			c0.3,0,0.5,0.1,0.7,0.3s0.3,0.4,0.3,0.7v4.7c0,0.3-0.1,0.5-0.3,0.7s-0.4,0.3-0.7,0.3h-2.3c-0.1,2.9-0.2,5.4-0.2,7.8
			c0,1.7,0,3.8,0.1,6.1c0.1,3.5,1,5.3,2.6,5.4c0.6,0,1.2,0.2,1.6,0.7s0.7,0.9,0.7,1.6l0.2,4.3c0,0.7-0.2,1.3-0.7,1.7
			C274.3,328.2,273.7,328.5,273,328.5z"/>
	</g>
	<g>
		<path d="M120.8,390.1c-1.9,0-4.1-0.2-6.5-0.5h-0.7c-0.6,0-1.1-0.2-1.5-0.6c-0.4-0.4-0.6-0.9-0.7-1.6c0.1-13.8,0.2-25.9,0.4-36.1
			c0-0.6,0.3-1.1,0.7-1.5c0.4-0.4,0.9-0.6,1.5-0.6h6.5v0.1c0.7-0.1,1.3-0.1,2-0.1c1.5,0,3.2,0.3,5.2,0.9c2,0.6,3.7,1.9,5.2,3.9
			c1.2,1.9,1.8,3.9,1.8,6c0,1.8-0.5,3.4-1.4,5c-0.8,1.4-2,2.5-3.7,3.5c1.3,0.4,2.6,1.1,3.9,2.1c1.9,1.5,3.2,3.3,3.8,5.4
			c0.3,0.9,0.5,1.9,0.5,2.8c0,3.4-1.6,6.2-4.9,8.4C130.2,389.1,126.1,390.1,120.8,390.1z M121.8,383c2,0,3.6-0.3,4.9-1
			c1.7-0.9,2.5-2.2,2.5-3.9c0-0.5-0.2-1.1-0.5-1.8c-0.3-0.7-0.9-1.3-1.9-1.7c-1.4-0.6-2.6-1-3.7-1c-1.2,0-2.1,0.2-2.9,0.7
			c-0.1,3.1-0.1,6-0.2,8.6C120.8,382.9,121.3,383,121.8,383z M120.5,364.9c2,0,3.6-0.6,5-1.7c0.9-0.9,1.5-1.8,1.6-2.8
			c0-0.3,0.1-0.7,0.1-1c0-0.6-0.1-1.2-0.3-1.7c-0.3-1.4-1.7-2.1-4.2-2.1c-0.2,0-0.5,0-0.8,0c-0.7,0-1.2,0-1.3,0.1L120.5,364.9z"/>
		<path d="M159.2,389.3c-0.8,0-1.4-0.2-1.9-0.7c-0.3-0.2-0.5-0.7-0.7-1.2c-2,1.3-4.1,2-6.5,2c-0.3,0-0.7,0-1-0.1
			c-3.4-0.3-5.7-1.8-7.2-4.4c-0.6-1.3-0.9-2.6-0.9-4c0-1.8,0.5-3.7,1.6-5.6c2-3.3,5.4-5,10.2-5.1h0.3c1.3,0,2.7,0.2,4,0.6
			c-0.1-2-0.4-3.3-0.8-4.1c-0.6-1.2-1.8-1.8-3.4-1.8c-0.1,0-0.3,0-0.7,0s-0.9,0.2-1.4,0.5s-0.8,0.7-0.8,1.2
			c-0.1,0.6-0.3,1.1-0.7,1.4c-0.4,0.4-0.9,0.6-1.4,0.6l-3.2,0c-0.6,0-1.2-0.2-1.6-0.6c-0.4-0.4-0.6-0.9-0.6-1.6
			c0.2-3.7,2.2-6.2,6.1-7.6c1.7-0.5,3.4-0.7,5.1-0.7c1.1,0,2.7,0.2,4.8,0.6c2,0.4,3.7,1.3,5.1,2.9c1.1,1.5,1.8,3.4,2.2,5.8
			c0.3,2,0.5,4.1,0.5,6.4c0,2.8-0.2,6.1-0.5,9.8c-0.1,1-0.2,1.9-0.2,2.5c-0.1,0.8-0.4,1.5-1,2.1c-0.6,0.6-1.3,1-2.2,1.1l-2.7,0
			L159.2,389.3z M151.6,383.9c1.9,0,3.3-0.6,4.2-1.7c0.6-0.9,1.1-1.9,1.3-3.2l0.1-2c-0.8-0.7-2-1.1-3.8-1.1
			c-1.8,0.1-3.1,0.7-3.9,1.8c-0.7,1-1,1.9-1,2.9c0,1.2,0.4,2.1,1.2,2.8C150.1,383.7,150.7,383.9,151.6,383.9L151.6,383.9z"/>
		<path d="M184.1,389.6c-2.2,0-4.4-0.5-6.7-1.6c-2.1-1-3.7-2.6-4.9-4.6c-1.5-2.7-2.3-5.8-2.3-9.3c0-1.6,0.2-3.2,0.6-4.7
			c0.9-3.4,2.5-6,4.9-7.8c2.2-1.6,4.7-2.4,7.8-2.4l0.9,0c2.4,0.2,4.2,0.8,5.6,1.9s2.3,2.3,2.9,3.7c0.6,1.4,0.9,2.6,0.9,3.6
			c0,0.6-0.2,1.2-0.6,1.6s-0.9,0.6-1.5,0.6l-2.5-0.1c-0.5,0-0.9-0.2-1.3-0.5c-0.4-0.3-0.6-0.7-0.7-1.2c0-0.1-0.1-0.3-0.3-0.6
			c-0.2-0.3-0.5-0.6-0.9-0.8c-0.6-0.3-1.3-0.5-2.3-0.5c-1.8,0-3.1,0.7-4,2.2s-1.4,3.2-1.4,5.1c0,1.8,0.4,3.4,1.1,4.9
			c0.9,1.9,2.3,2.9,4.2,3l0.4,0c0.6,0,1.3-0.1,2.1-0.4c0.8-0.3,1.4-0.9,1.9-2c0.4-0.9,1-1.4,2-1.4h2.4c0.6,0,1.1,0.2,1.5,0.7
			c0.4,0.4,0.6,0.9,0.6,1.6c-0.2,3.1-1.7,5.6-4.4,7.3C188.1,389.1,186.2,389.6,184.1,389.6z"/>
		<path d="M217,389.5c-0.5,0-1-0.2-1.4-0.5c-3.9-3.5-6.8-6.6-8.6-9.3c-0.1,3.1-0.2,5.7-0.2,7.7c0,0.6-0.3,1.1-0.7,1.5
			s-0.9,0.6-1.5,0.6h-4.2c-0.6,0-1.1-0.2-1.5-0.6s-0.6-0.9-0.7-1.6c0.1-13.6,0.2-25.4,0.4-35.4c0-0.6,0.3-1.1,0.7-1.5
			c0.4-0.4,0.9-0.6,1.5-0.6h4.4c0.6,0,1.1,0.2,1.5,0.6s0.6,0.9,0.6,1.6c0,0.6,0,1.3,0,2c0,3.6,0,8.2-0.1,13.8
			c2.2-1.9,4.4-4.3,6.5-7.1c0.5-0.6,1.1-0.9,1.8-0.9c0.4,0,0.8,0.1,1.2,0.4l2.8,1.9c0.6,0.5,1,1.1,1,1.8c0,0.5-0.2,0.9-0.5,1.3
			c-2.8,3.6-5.5,6.5-8.1,8.6c2.4,3,5.4,6.3,9.1,9.8c0.5,0.5,0.7,1,0.7,1.6s-0.2,1.2-0.7,1.6l-2.5,2.2
			C218,389.3,217.5,389.5,217,389.5z"/>
		<path d="M230.9,391.4c-1.1,0-2-0.3-2.8-1c-0.9-0.8-1.4-1.8-1.5-3.1v-0.1c0-1.5,0.4-2.6,1.1-3.5c0.9-1,2-1.5,3.3-1.5
			c1.1,0,2,0.4,2.9,1.1c1,0.9,1.5,2,1.5,3.3c0,1.3-0.3,2.3-0.8,2.9s-1.1,1.1-1.7,1.4s-1,0.4-1.3,0.4
			C231.4,391.4,231.1,391.4,230.9,391.4z M233.3,377.2h-4.2c-0.6,0-1.1-0.2-1.5-0.6c-0.4-0.4-0.6-0.9-0.6-1.6
			c0.1-8.4,0.2-16,0.4-22.7c0-0.6,0.3-1.1,0.7-1.5c0.4-0.4,0.9-0.6,1.5-0.6h4.4c0.6,0,1.1,0.2,1.5,0.6c0.4,0.4,0.6,0.9,0.7,1.6
			c0,2.8-0.1,6.5-0.2,11.3c-0.1,4.8-0.3,8.6-0.4,11.6c-0.1,0.6-0.3,1.1-0.7,1.5C234.3,377,233.9,377.2,233.3,377.2z"/>
	</g>
	<rect x="184.4" y="244.6" class="st2" width="6.6" height="0"/>
</g>
</svg>
