<?xml version="1.0" encoding="utf-8"?>
<!-- Generator: Adobe Illustrator 26.0.3, SVG Export Plug-In . SVG Version: 6.00 Build 0)  -->
<svg version="1.1" xmlns="http://www.w3.org/2000/svg" xmlns:xlink="http://www.w3.org/1999/xlink" x="0px" y="0px"
	 viewBox="0 0 360 504" style="enable-background:new 0 0 360 504;" xml:space="preserve">
<style type="text/css">
	.st0{fill:none;stroke:#000000;stroke-linecap:round;stroke-linejoin:round;stroke-miterlimit:10;}
	.st1{fill:#010101;}
	.st2{fill:none;}
</style>
<g id="Text">
</g>
<g id="Artwork">
</g>
<g id="Outline">
	<polyline class="st0" points="79.9,451.6 79.9,487.2 280.1,487.2 280.1,451.6 	"/>
	<path class="st0" d="M37.8,468"/>
	<line class="st0" x1="280.1" y1="451.6" x2="301.1" y2="451.6"/>
	<line class="st0" x1="79.9" y1="451.6" x2="58.9" y2="451.6"/>
	<line class="st0" x1="301.1" y1="451.6" x2="301.1" y2="201.3"/>
	<line class="st0" x1="58.9" y1="451.6" x2="58.9" y2="201.3"/>
	<line class="st0" x1="66.2" y1="193.2" x2="293.8" y2="193.2"/>
	<path class="st0" d="M58.9,201.3c0-4.5,3.3-8.1,7.4-8.1"/>
	<path class="st0" d="M293.8,193.2c4.1,0,7.4,3.6,7.4,8.1"/>
	<g transform="translate(0.000000,512.000000) scale(0.100000,-0.100000)">
		<path class="st1" d="M1707.6,3068.7c-389.3-37.8-725.2-266-899.6-611.7c-82.3-162.4-120.1-322.1-120.1-505.8
			c0-234.9,74.7-464.5,212.7-652.7c15.1-20.9,27.6-38.7,27.6-40.5c0-1.3-36.9-88.5-82.3-194c-61.8-144.1-82.3-195.3-82.3-209.1
			c0-24.9,15.1-46.7,38.3-54.7c17.4-6.2,32.5-4,323.4,47.2l305.6,53.8l40.9-13.3c109.4-34.7,207.3-48.9,332.8-49.4
			c182.9-0.4,338.1,36,499.6,117.5c343,172.6,575.2,510.3,612.6,890.7c7.6,77.9,3.6,219.8-8.5,290.5
			c-31.1,184.2-100.1,344.3-213.1,495.6c-43.6,58.3-140.6,157.5-196.6,200.6c-160.2,124.1-332.3,198-533.9,228.7
			C1908.7,3070.4,1765.4,3074,1707.6,3068.7z M1924.7,2943.6c97-11.1,216.7-44.9,304.3-85.9c198-92.5,367.9-257.6,465.4-452
			c101.9-203.3,131.2-424,86.3-648.7c-73.9-371.5-362.1-673.6-733.2-768.3c-177.5-45.4-384.4-37.8-552.1,20
			c-21.8,8-48,13.8-58.3,13.8c-9.8,0-126.8-19.1-260.3-42.7c-133-23.1-244.7-42.3-247.4-42.3c-2.7,0,26.2,72.5,64.1,161.1
			c80.5,187.7,78.7,177.1,39.2,227.3c-150.8,192.2-221.1,392.4-221.6,630.4c-0.4,121.5,13.8,206.4,52.5,320.3
			c50.7,147.3,124.1,264.3,238,378.6c85.4,85.9,153,135.2,257.1,187.7C1533.2,2931.6,1728.5,2966.3,1924.7,2943.6z"/>
		<g>
			<path d="M1325.1,2332.9c-18.5,0-39.2,1.5-62.2,4.3h-6.5c-5.8,0-10.7,2-14.7,6.1c-4,4.1-6.1,9.1-6.2,15.1
				c0.9,132.7,2.3,248.1,4.1,346.1c0.4,6,2.5,10.9,6.5,14.8c4,3.9,8.8,5.8,14.4,5.8h62.8v-0.8c6.3,0.9,12.8,1.4,19.3,1.4
				c14.1,0,30.7-2.8,49.8-8.4c19.1-5.6,35.7-18.2,49.8-37.8c11.6-17.9,17.4-37.2,17.4-57.9c0-17-4.3-32.9-13-47.5
				c-7.8-13.2-19.5-24.4-35-33.4c12.3-4,24.7-10.6,37.2-19.8c18.3-14.1,30.5-31.3,36.7-51.6c2.9-9.1,4.3-18.1,4.3-27.2
				c0-32.8-15.6-59.7-46.7-80.7C1415.1,2342.4,1375.8,2332.9,1325.1,2332.9z M1334.4,2401.1c19,0,34.7,3.2,47,9.5
				c16.3,8.3,24.4,20.6,24.4,36.9c0,5.1-1.5,10.9-4.5,17.5c-3,6.6-8.9,12.1-17.8,16.4c-13.6,6.2-25.3,9.2-35,9.2
				c-11.4,0-20.6-2.2-27.4-6.5c-0.5-30.1-1.2-57.6-1.9-82.6C1324.6,2401.2,1329.7,2401.1,1334.4,2401.1z M1322.4,2573.8
				c18.8,0,34.7,5.3,47.5,16c9.1,8.3,14.2,17.2,15.5,26.6c0.4,3.3,0.5,6.3,0.5,9.2c0,6-0.8,11.5-2.4,16.6
				c-2.9,13.2-16.2,20-39.9,20.4c-2.4,0.2-5,0.3-7.9,0.3c-7.1,0-11.2-0.5-12.5-1.4L1322.4,2573.8z"/>
			<path d="M1654.4,2341.6c-23.4,0-47.5,5.9-72.5,17.7c-19.6,10.3-34.5,25.5-44.8,45.6c-12.3,23.4-18.5,50-18.5,79.9
				c0,18.8,2.6,36.9,7.9,54.1c10.7,33.5,28.1,58.4,52.2,74.7c19.7,13.2,42.5,19.8,68.2,19.8c6.2,0,12.4-0.4,18.7-1.1
				c23-3.3,40.8-10.4,53.4-21.5c12.6-11.1,21.3-23.3,26.2-36.7c4.2-11.8,6.2-22.3,6.2-31.5v-3.3l1.1-14.9c0.5-9.8,0.8-16.3,0.8-19.6
				c0-4-0.9-8-2.6-12c-1.7-4-4.1-7.4-7.2-10.3c-6.7-6-14.6-9.2-23.6-9.8l-18.2-1.9c-52.9-6.2-86.8-10.1-101.9-11.7
				c1.6-9.2,4.3-17.7,7.9-25.5c8.7-18.7,20.9-28.4,36.7-29.3l6.2-0.3c19.4,0,31,6.5,34.8,19.6c1.4,4.7,4.1,8.4,7.9,11
				c3.8,2.6,8.1,3.9,12.8,3.9l24.7-1.4c6.2-0.5,11-2.9,14.4-6.9c3.4-4.1,5.2-8.7,5.2-13.7v-2.2c-3.3-26.1-17.2-46.1-41.8-60
				C1692.1,2345.8,1674.1,2341.6,1654.4,2341.6z M1603.3,2525.5l83.4,9.5c0,1.3,0,2.5-0.1,3.7c-0.1,1.2-0.8,4.2-2.2,9
				c-1.4,4.8-4,9.6-8,14.4c-4,4.8-9.9,8-17.7,9.6c-2.5,0.4-5,0.5-7.3,0.5c-13.4,0-24.7-6.1-34-18.2
				C1611.5,2546,1606.7,2536.5,1603.3,2525.5z"/>
		</g>
	</g>
	<g>
		<path d="M173.2,328.5c-0.3,0-0.6-0.1-0.9-0.2c-4.2-2-7.9-4.3-11-7.1c0,1.8-0.1,3.4-0.2,4.8c0,0.6-0.3,1.2-0.7,1.6
			c-0.4,0.4-1,0.6-1.6,0.6h-4.5c-0.6,0-1.2-0.2-1.6-0.7c-0.4-0.5-0.7-1-0.7-1.7c0.1-14.8,0.3-27.6,0.5-38.6c0-0.7,0.3-1.2,0.7-1.6
			c0.4-0.4,1-0.7,1.6-0.7h7v0.1c1.9,0.1,3.9,0.5,5.9,1.1c2,0.6,3.7,1.6,5.1,2.9c1.6,1.7,2.7,3.4,3.3,5.1c0.7,2.2,1.1,4.7,1.1,7.4
			c0,5.2-1.6,9.4-4.9,12.6c-0.9,0.9-2.1,1.6-3.3,2.1c2.4,1.6,4.7,3,7,4.1c0.6,0.3,0.9,0.7,1.2,1.3c0.1,0.3,0.2,0.5,0.2,0.8
			c0,0.3-0.1,0.6-0.2,0.9l-1.7,3.8c-0.3,0.6-0.7,1-1.3,1.2C173.7,328.5,173.5,328.5,173.2,328.5z M161.5,310.2
			c0.5-0.1,1.3-0.3,2.2-0.6c1.2-0.4,2.2-1.3,2.9-2.6c1-1.8,1.5-3.9,1.5-6.4c0-1-0.1-2-0.3-3c-0.4-2-1.4-3.5-2.8-4.5
			c-0.7-0.5-1.7-0.8-2.8-0.8h-0.5C161.6,297.7,161.6,303.6,161.5,310.2z"/>
		<path d="M187.5,328.1h-4.3c-0.6,0-1.2-0.2-1.6-0.7c-0.4-0.5-0.7-1-0.7-1.7c0.1-11.1,0.3-19.7,0.4-25.8c0-0.6,0.3-1.2,0.7-1.6
			c0.4-0.4,1-0.7,1.6-0.7h4.4c0.6,0,1.2,0.2,1.6,0.7c0.4,0.5,0.7,1,0.7,1.6v1.4c0,2.9-0.1,6.9-0.2,11.9c-0.1,5-0.2,9.2-0.4,12.5
			c-0.1,0.6-0.3,1.2-0.7,1.6C188.7,327.9,188.2,328.1,187.5,328.1z M185.6,295c-1.3,0-2.4-0.4-3.1-1.2c-1-0.9-1.5-2-1.5-3.4
			c0.1-3,1.5-4.8,4.2-5.3c0.3,0,0.6-0.1,0.8-0.1c1.3,0,2.4,0.4,3.3,1.3c1,0.9,1.5,2.1,1.5,3.5v0.2c-0.2,2.8-1.6,4.5-4.2,5
			C186.2,295,185.9,295,185.6,295z"/>
		<path d="M206.5,344.5c-0.6,0-1.3,0-2-0.1c-1.2-0.1-2.5-0.5-3.9-1.1c-1.4-0.6-2.7-1.3-3.7-2.3c-0.3-0.3-0.6-0.6-0.8-0.8
			c-0.3-0.3-0.4-0.6-0.4-1c0-0.2,0.1-0.4,0.2-0.7l2.8-4.5c0.3-0.4,0.6-0.7,1.1-0.7c0.3,0,0.6,0.1,0.8,0.3l1.3,1c0.9,0.6,1.9,1,3,1.1
			l0.9,0c0.7,0,1.2-0.1,1.6-0.2c2.5-0.7,4.1-3.7,5-9.1c-1.8,1-3.7,1.5-5.7,1.5c-1,0-1.9-0.1-2.8-0.4c-3.3-0.9-5.7-2.9-7.4-6.2
			c-1.2-2.6-1.8-5.5-1.8-8.7c0-3.1,0.6-6.1,1.7-9c1.4-3,3.2-5.2,5.5-6.4c2.1-1.1,4.1-1.7,6.1-1.7c1.6,0,3.1,0.3,4.4,0.8
			c0-0.4,0.2-0.7,0.4-1c0.3-0.3,0.6-0.4,0.9-0.4l6.6,0.1c0.3,0,0.6,0.1,0.9,0.4c0.2,0.2,0.4,0.5,0.4,0.9c0.3,5.1,0.5,9.9,0.5,14.5
			c0,1.2,0,3.3-0.1,6.2c0,2.9-0.3,6.5-0.8,10.7c-0.5,4.2-1.4,7.5-2.7,9.9c-1.2,2.1-2.9,3.8-4.9,4.9S209,344.5,206.5,344.5z
			 M208.6,321.1c0.5,0,1.1-0.1,1.7-0.3c1.3-0.4,2.2-1.5,2.6-3.1c0-0.1,0-0.8,0-2.2c0-3.1-0.1-6-0.2-8.6c-0.6-1-1.3-1.7-2.1-1.9
			c-0.6-0.2-1.3-0.3-1.9-0.3c-0.4,0-1,0.1-1.8,0.3c-0.7,0.2-1.5,0.7-2.2,1.4c-0.9,1.1-1.5,2.8-1.7,5.1c0,0.4-0.1,0.8-0.1,1.2
			c0,1.9,0.4,3.6,1.1,5.3C205,320,206.6,321.1,208.6,321.1z"/>
		<path d="M252.3,328.6h-5c-0.7,0-1.2-0.2-1.7-0.7c-0.4-0.5-0.7-1-0.7-1.7l0-3.4c0-3.2-0.1-6.4-0.2-9.7c-0.1-2.2-0.3-3.9-0.6-4.9
			c-0.3-1-0.7-1.7-1.2-2c-0.5-0.3-1.3-0.5-2.4-0.5c-1,0-1.7,0.3-2.2,0.8c-0.8,0.9-1.4,2.2-1.8,4c-0.1,6.4-0.3,11.6-0.4,15.6
			c0,0.6-0.3,1.2-0.7,1.6c-0.4,0.4-1,0.6-1.6,0.6h-4.5c-0.6,0-1.2-0.2-1.6-0.7c-0.4-0.5-0.7-1-0.7-1.7c0.1-14.5,0.3-27.1,0.5-37.9
			c0-0.6,0.3-1.2,0.7-1.6c0.4-0.4,1-0.7,1.6-0.7h4.7c0.6,0,1.2,0.2,1.6,0.7c0.4,0.4,0.7,1,0.7,1.7v2.7l0,7c1.2-0.3,2.6-0.4,4.2-0.4
			l1.7,0.1c4,0.3,7,1.9,9.1,4.8c1.3,2,2.1,4.4,2.6,7c0.4,2.5,0.6,5,0.6,7.6v2.2c0,1.4-0.1,3.1-0.2,5.1l-0.1,2.3
			c0,0.6-0.3,1.2-0.7,1.6C253.5,328.4,252.9,328.6,252.3,328.6z"/>
		<path d="M273,328.5h-0.2c-1,0-2.3-0.1-4-0.4c-1.7-0.2-3.3-0.9-4.9-1.9c-1.6-1-2.5-2.7-2.9-5c-0.4-3.6-0.6-8.8-0.6-15.8
			c0-1.8,0-3.5,0-5.1h-2c-0.3,0-0.5-0.1-0.7-0.3s-0.3-0.4-0.3-0.7v-4.7c0-0.3,0.1-0.5,0.3-0.7s0.4-0.3,0.7-0.3h2.1l0.1-3.9
			c0-0.7,0.3-1.2,0.7-1.6c0.5-0.4,1-0.6,1.7-0.6l5.4,0.2c0.7,0,1.2,0.3,1.6,0.7c0.4,0.4,0.6,1,0.7,1.6c0,1.3-0.1,2.5-0.1,3.7h2.1
			c0.3,0,0.5,0.1,0.7,0.3s0.3,0.4,0.3,0.7v4.7c0,0.3-0.1,0.5-0.3,0.7s-0.4,0.3-0.7,0.3h-2.3c-0.1,2.9-0.2,5.4-0.2,7.8
			c0,1.7,0,3.8,0.1,6.1c0.1,3.5,1,5.3,2.6,5.4c0.6,0,1.2,0.2,1.6,0.7s0.7,0.9,0.7,1.6l0.2,4.3c0,0.7-0.2,1.3-0.7,1.7
			C274.3,328.2,273.7,328.5,273,328.5z"/>
	</g>
	<g>
		<path d="M126.9,384.9c-1.7,0-3.7-0.1-5.8-0.4h-0.6c-0.5,0-1-0.2-1.4-0.6c-0.4-0.4-0.6-0.9-0.6-1.4c0.1-12.4,0.2-23.2,0.4-32.4
			c0-0.6,0.2-1,0.6-1.4c0.4-0.4,0.8-0.5,1.3-0.5h5.9v0.1c0.6-0.1,1.2-0.1,1.8-0.1c1.3,0,2.9,0.3,4.7,0.8c1.8,0.5,3.3,1.7,4.7,3.5
			c1.1,1.7,1.6,3.5,1.6,5.4c0,1.6-0.4,3.1-1.2,4.4c-0.7,1.2-1.8,2.3-3.3,3.1c1.2,0.4,2.3,1,3.5,1.9c1.7,1.3,2.9,2.9,3.4,4.8
			c0.3,0.8,0.4,1.7,0.4,2.5c0,3.1-1.5,5.6-4.4,7.5C135.3,384.1,131.6,384.9,126.9,384.9z M127.7,378.6c1.8,0,3.2-0.3,4.4-0.9
			c1.5-0.8,2.3-1.9,2.3-3.5c0-0.5-0.1-1-0.4-1.6c-0.3-0.6-0.8-1.1-1.7-1.5c-1.3-0.6-2.4-0.9-3.3-0.9c-1.1,0-1.9,0.2-2.6,0.6
			c-0.1,2.8-0.1,5.4-0.2,7.7C126.8,378.5,127.3,378.6,127.7,378.6z M126.6,362.4c1.8,0,3.2-0.5,4.4-1.5c0.8-0.8,1.3-1.6,1.4-2.5
			c0-0.3,0.1-0.6,0.1-0.9c0-0.6-0.1-1.1-0.2-1.6c-0.3-1.2-1.5-1.9-3.7-1.9c-0.2,0-0.5,0-0.7,0c-0.7,0-1.1,0-1.2,0.1L126.6,362.4z"/>
		<path d="M161.3,384.3c-0.7,0-1.3-0.2-1.7-0.7c-0.3-0.2-0.5-0.6-0.6-1.1c-1.8,1.2-3.7,1.8-5.8,1.8c-0.3,0-0.6,0-0.9-0.1
			c-3-0.3-5.2-1.6-6.4-3.9c-0.6-1.2-0.8-2.3-0.8-3.6c0-1.6,0.5-3.3,1.4-5c1.8-2.9,4.9-4.5,9.2-4.6h0.3c1.2,0,2.4,0.2,3.6,0.5
			c-0.1-1.8-0.3-3-0.7-3.7c-0.6-1.1-1.6-1.6-3-1.6c-0.1,0-0.3,0-0.6,0c-0.4,0-0.8,0.2-1.3,0.5s-0.8,0.7-0.8,1.1
			c-0.1,0.5-0.3,1-0.6,1.3c-0.4,0.3-0.8,0.5-1.3,0.5l-2.9,0c-0.6,0-1.1-0.2-1.4-0.6c-0.4-0.4-0.6-0.9-0.6-1.4c0.1-3.3,2-5.6,5.5-6.8
			c1.5-0.4,3-0.7,4.6-0.7c1,0,2.4,0.2,4.3,0.5c1.8,0.3,3.4,1.2,4.5,2.6c1,1.4,1.6,3.1,2,5.2c0.3,1.8,0.4,3.7,0.4,5.7
			c0,2.5-0.2,5.4-0.5,8.8c-0.1,0.9-0.1,1.7-0.2,2.2c-0.1,0.7-0.4,1.4-0.9,1.9c-0.5,0.6-1.2,0.9-2,1l-2.4,0L161.3,384.3z
			 M154.5,379.4c1.7,0,2.9-0.6,3.8-1.6c0.6-0.8,1-1.7,1.2-2.8l0.1-1.8c-0.7-0.6-1.8-0.9-3.4-1c-1.6,0.1-2.8,0.6-3.5,1.6
			c-0.6,0.9-0.9,1.7-0.9,2.6c0,1.1,0.4,1.9,1.1,2.5C153.1,379.2,153.7,379.4,154.5,379.4L154.5,379.4z"/>
		<path d="M183.7,384.5c-1.9,0-3.9-0.5-6-1.4c-1.9-0.9-3.3-2.3-4.4-4.2c-1.4-2.4-2.1-5.2-2.1-8.3c0-1.4,0.2-2.8,0.5-4.2
			c0.8-3,2.3-5.4,4.4-7c1.9-1.4,4.3-2.2,7-2.2l0.8,0c2.1,0.2,3.8,0.8,5,1.7c1.2,1,2.1,2.1,2.6,3.3c0.5,1.2,0.8,2.3,0.8,3.3
			c0,0.6-0.2,1.1-0.6,1.4c-0.4,0.4-0.8,0.6-1.4,0.6l-2.2-0.1c-0.4,0-0.8-0.2-1.2-0.5c-0.3-0.3-0.5-0.6-0.6-1.1
			c0-0.1-0.1-0.3-0.3-0.5c-0.2-0.3-0.4-0.5-0.9-0.8c-0.5-0.3-1.2-0.4-2.1-0.4c-1.6,0-2.8,0.7-3.6,2s-1.3,2.9-1.3,4.6
			c0,1.6,0.3,3.1,1,4.4c0.8,1.7,2.1,2.6,3.8,2.7l0.4,0c0.5,0,1.1-0.1,1.9-0.4c0.7-0.2,1.3-0.8,1.7-1.8c0.3-0.8,0.9-1.2,1.8-1.3h2.2
			c0.6,0,1,0.2,1.4,0.6c0.4,0.4,0.5,0.9,0.5,1.4c-0.2,2.8-1.5,5-4,6.6C187.3,384.1,185.6,384.5,183.7,384.5z"/>
		<path d="M213.2,384.4c-0.5,0-0.9-0.2-1.3-0.5c-3.5-3.1-6.1-5.9-7.7-8.4c-0.1,2.8-0.1,5.1-0.2,6.9c0,0.5-0.2,1-0.6,1.3
			c-0.4,0.4-0.8,0.5-1.3,0.5h-3.8c-0.5,0-1-0.2-1.4-0.6c-0.4-0.4-0.6-0.8-0.6-1.4c0.1-12.2,0.2-22.8,0.4-31.8c0-0.5,0.2-1,0.6-1.4
			c0.4-0.4,0.8-0.5,1.3-0.5h3.9c0.5,0,1,0.2,1.4,0.6c0.4,0.4,0.6,0.8,0.6,1.4c0,0.6,0,1.2,0,1.8c0,3.3,0,7.4-0.1,12.4
			c1.9-1.7,3.9-3.9,5.9-6.4c0.4-0.5,0.9-0.8,1.6-0.8c0.4,0,0.7,0.1,1.1,0.3l2.5,1.7c0.6,0.4,0.9,0.9,0.9,1.6c0,0.4-0.1,0.8-0.4,1.2
			c-2.5,3.2-5,5.8-7.3,7.7c2.1,2.7,4.8,5.6,8.1,8.8c0.4,0.4,0.6,0.9,0.6,1.4s-0.2,1-0.7,1.4l-2.2,2
			C214.1,384.2,213.7,384.4,213.2,384.4z"/>
		<path d="M225.7,386.1c-0.9,0-1.8-0.3-2.5-0.9c-0.8-0.7-1.3-1.7-1.3-2.8v-0.1c0-1.3,0.3-2.4,1-3.1c0.8-0.9,1.8-1.3,2.9-1.3
			c0.9,0,1.8,0.3,2.6,1c0.9,0.8,1.3,1.8,1.4,3c0,1.2-0.3,2-0.7,2.6c-0.5,0.6-1,1-1.5,1.2c-0.5,0.2-0.9,0.3-1.1,0.4
			C226.1,386.1,225.9,386.1,225.7,386.1z M227.8,373.4H224c-0.5,0-1-0.2-1.4-0.6c-0.4-0.4-0.6-0.9-0.6-1.4
			c0.1-7.6,0.2-14.4,0.4-20.4c0-0.5,0.2-1,0.6-1.4c0.4-0.4,0.8-0.5,1.3-0.5h3.9c0.5,0,1,0.2,1.4,0.6c0.4,0.4,0.6,0.8,0.6,1.4
			c0,2.5-0.1,5.8-0.2,10.1c-0.1,4.3-0.2,7.7-0.4,10.4c-0.1,0.5-0.3,1-0.6,1.3C228.8,373.2,228.3,373.4,227.8,373.4z"/>
	</g>
	<rect x="184" y="254.4" class="st2" width="5.9" height="0"/>
</g>
</svg>
