<?xml version="1.0" encoding="utf-8"?>
<!-- Generator: Adobe Illustrator 26.0.2, SVG Export Plug-In . SVG Version: 6.00 Build 0)  -->
<svg version="1.1" id="_x30_" xmlns="http://www.w3.org/2000/svg" xmlns:xlink="http://www.w3.org/1999/xlink" x="0px" y="0px"
	 viewBox="0 0 1404 792" style="enable-background:new 0 0 1404 792;" xml:space="preserve">
<style type="text/css">
	.st0{fill:none;stroke:#000000;stroke-width:0.7087;stroke-linecap:round;stroke-linejoin:round;stroke-miterlimit:10;}
	.st1{fill:#231F20;stroke:#231F20;stroke-miterlimit:10;}
</style>
<g id="LWPOLYLINE">
	<path class="st0" d="M25.8,0"/>
	<path class="st0" d="M0,0"/>
	<path class="st0" d="M186.2,213.4H159v4.3h4.3v6H159v7.1h4.3v5h-14.6c3-3.2,3-8.2,0-11.5c-3.2-3.4-8.5-3.6-11.9-0.4
		c-3.4,3.2-3.6,8.5-0.4,11.9H120v-6.2c0-7-5.7-12.8-12.8-12.8s-12.8,5.7-12.8,12.8v6.2H78.2c3-3.2,3-8.2,0-11.5
		c-3.2-3.4-8.5-3.6-11.9-0.4c-3.4,3.2-3.6,8.5-0.4,11.9H51.3v-5h4.3v-7.1h-4.3v-6h4.3v-4.3H28.3"/>
	<line class="st0" x1="28.3" y1="0" x2="186.2" y2="0"/>
</g>
<g>
	<g>
		<g>
			<g>
				<path class="st1" d="M73.7,15.9c0.6-0.4,0.7-1,0.7-1.7c0-1.3-0.1-2.5,0-3.8c0-1.3,0.8-2.1,2.1-2.2c1.2-0.1,1.9,0.5,2.1,1.9
					c0.1,1.3,0.1,2.5,0.1,3.8c0,0.8,0.2,1.1,1,0.8c1-0.4,2-0.3,2.8,0.4c0.8,0.6,1.2,0.3,1.5-0.5c0.5-1.3,1-2.5,1.7-3.7
					c0.8-1.4,1.9-1.7,3-1.1c1.1,0.6,1.3,1.4,0.7,2.9c-0.5,1.1-1,2.2-1.5,3.2c-0.2,0.5-0.4,1.1-0.1,1.7c3.2-1.8,6.3-0.6,9.3,0.6
					c1.6,0.6,1.6,1.7,0.1,2.5c-2.4,1.4-4.9,2.5-7.8,2c-0.2,0-0.5-0.1-0.6,0.2c-0.4,0.8-0.1,2.2,0.7,2.8c0.2,0.2,0.5,0.4,0.5,0.5
					c-0.2,1.1,0.6,1.9,0.6,2.9c0,0.6,0.2,0.9,0.5,1.3c0.3,0.3,0.7,0.7,0.3,1.2c-0.3,0.3-0.2,0.5,0.1,0.7c0.1,0.1,0.4,0.4,0.3,0.5
					c-0.6,1.1,0.2,2,0.2,3c0,0.5,0.1,0.9,0.1,1.3c-0.2,1.2,1.1,2.3,0.2,3.5c0,0.1-0.1,0.2-0.1,0.2c1.4,0.7,0.8,2.2,1,3.3
					c0.2,1.2,1.5,2.3,0.5,3.6c-0.2,0.3,0.1,0.4,0.2,0.6c0.4,0.5,0.7,1.1,0.2,1.7c-0.1,0.1-0.1,0.3-0.1,0.3c1.4,2,0.2,4.2,0.7,6.3
					c0,0.1,0,0.4-0.1,0.5c-1.3,0.8-0.5,1.8-0.3,2.8c0.8,4.1,2.3,7.8,5.2,10.8c2.8,3,6.3,4.1,10.1,4.7c5.6,0.8,11.3,1.4,16.9,2.8
					c2.8,0.7,5.4,1.7,7.5,4c0.9,1,2.1,1.6,3.1,2.5c2.7,2.4,4.7,5.4,6.2,8.7c0.2,0.4,0.4,0.7,0.6,1.1c0.7,1.6,1.7,2.7,3.4,3.3
					c3.1,1.2,4.6,3.7,4.8,7c0.1,1.4,0.1,2.9-0.2,4.3c-0.1,0.3-0.3,0.9-0.5,0.4c-0.6-1.1-1.8-1-2.6-1.6c-0.7-0.5-1.5-0.9-2.3-1.4
					c-2.5-1.8-3.3-4.3-2.8-7.3c0.2-1,0-1.8-0.6-2.6c-1.7-2.4-2.9-5.2-4.8-7.5c-0.5-0.6-0.9-1.2-1.7-1.8c0.5,2.7,0.7,5.2,0.8,7.7
					c0,2.4-0.3,4.7-0.5,7.1c-0.1,1.4,0,2.8,0.8,4c0.4,0.7,0.6,1.4,1,2.1c1.1,2.4,1.3,4.9,0.5,7.5c-1,3.2-2.1,6.4-2.7,9.6
					c-0.3,1.4-0.2,2.9-0.3,4.3c-0.2,2.9-0.8,5.7-0.4,8.6c0.1,1.2-0.4,1.9-1.7,2.1c-2.6,0.4-5.1,0.7-7.7,0.1c-1.8-0.4-2.2-1.2-1.4-3
					c0.1-0.2,0.2-0.5,0.4-0.7c2.6-3.1,3.2-7,4.7-10.6c1.5-3.6,2.5-7.5,3.4-11.3c0.4-1.6,0.1-2.7-1.3-3.6c-1.2-0.8-2.2-1.7-3.4-2.5
					c-2.3,4.3-4.8,8.3-6.2,12.9c-0.4,1.4-0.9,2.7-0.5,4.2c0.1,0.4,0,0.9-0.1,1.4c-0.3,1.2-0.4,2.4-0.1,3.6c0.3,2-0.5,3.2-2.4,3.7
					c-2.2,0.6-4.5,0.7-6.8,0.2c-1.8-0.4-2.1-1.1-1.3-2.7c0.2-0.5,0.5-1,0.8-1.5c1-1.6,1.9-3.2,2.2-5.2c0.3-2.1,1.7-3.9,2.7-5.8
					c1.4-2.8,2.8-5.5,4.1-8.3c0.6-1.3,0.3-2.3-0.7-3.3c-1.3-1.3-2.5-2.1-4.5-2.2c-4-0.3-7.8-1.6-11.4-3.3c-0.8-0.4-1.1-0.3-1.2,0.6
					c-0.2,1.6-0.4,3.2-0.7,4.8c-0.1,0.5-0.1,0.9,0.2,1.3c1.3,1.8,1.2,3.7,0.3,5.5c-0.7,1.3-0.8,2.7-0.9,4.2
					c-0.2,4.4,0.2,8.7,0.2,13.1c0,1,0.4,2.1,0.6,3.1c0.1,0.6,0.2,1.3,0.2,1.9c0,1.8-0.5,2.6-2.3,3c-2.4,0.5-4.7,0.4-7-0.3
					c-1.2-0.3-1.3-1.3-1-2.2c0.4-1.7,1.3-3.3,2.2-4.9c0.4-0.7,0.6-1.4,0.6-2.3c0-1.2,0.4-2.4,0.8-3.6c0.2-0.6,0.1-1-0.5-1.2
					c-3-0.9-4.5-3.2-5.6-5.9c-0.9-2.3-2.3-4.4-4-6.3c-2.2-2.5-2.7-5.2-1.7-8.5c1.4-4.5,2.8-8.9,4.3-13.4c0.2-0.5,0.4-0.9,0.1-1.4
					c-2.4-3.7-3.1-7.9-3.8-12.1c-1.8-11.3-3.1-22.7-4.4-34.1c-0.1-1.1-0.4-1.5-1.6-1.1c-3.4,1.3-6.4,0.7-9-1.9
					c-1.6-1.6-1.9-3-0.5-4.8c0.7-0.9,0.8-1.8,0.7-2.8c-0.2-4.3-0.6-8.6,0-12.9c0.1-0.6-0.2-0.6-0.6-0.7c-3.1-0.6-5.4-2.4-7.4-4.8
					c-0.6-0.7-0.5-1.3,0.3-1.8c1.9-1.1,8-0.4,9.6,1C73,15,73.3,15.5,73.7,15.9z M120.5,88.9c0.1,0.2,0.1,0.2,0.1,0.3
					c0,0.2,0,0.3-0.1,0.5c-1.3,3.1-0.8,6.1,0.3,9.1c1.4,3.6,4.1,6.2,7,8.5c1.8,1.4,3.6,2.8,5.4,4.2c1.1,0.8,1.5,1.9,1.1,3.2
					c-0.3,1.1-0.4,2.2-0.7,3.2c-1.2,4.4-2.4,8.7-4.4,12.8c-0.7,1.5-0.3,2.4,1.2,3c0.8,0.4,1.7,0.3,2.6,0.3c1.3,0.1,1.8-0.5,2-1.8
					c0.3-2,0-4.1,0.3-6.1c0.7-3.7,2-7.2,3-10.7c0.5-1.9,0.5-3.7-0.2-5.5c-0.5-1.3-1.2-2.6-1.7-3.9c-0.3-0.7-0.6-1-1.3-1.1
					c-0.4-0.1-1.2-0.2-1-0.8c0.2-0.5,0.3-1.5,1.3-1.1c0.5,0.2,0.5-0.1,0.5-0.4c0.1-0.9,0.2-1.8,0.3-2.6c0-0.4,0-0.7-0.3-1
					c-0.9-0.9-0.8-1.8,0-2.7c0.5-0.6,0.6-1.3,0.6-2c-0.1-1.2-0.2-2.4-0.3-3.5c0-0.6-0.2-0.9-0.9-0.7c-0.6,0.2-1.3,0.3-1.6-0.4
					c-0.7-1.3,0.1-2.8,1.6-2.9c-0.3-0.9-0.4-1.9-1.6-0.9c-0.1,0.1-0.3,0.1-0.5,0.2c-1,0.3-2.7-0.8-3-2.1c-0.3-1.2,1-1,1.5-1.4
					c0.2-0.1,0.5-0.1,0.6-0.4c-0.7-0.9-1.3-1.4-2.6-0.5c-2.2,1.5-3.6,0.7-4-2.1c-0.1-0.4-0.3-0.5-0.6-0.5c-0.9-0.2-1.7-0.3-2.8-0.5
					c0.7,1.4-0.2,1.9-1.1,2.3c-0.9,0.4-1.8,0.9-2.8,1.3c-0.3,0.1-0.7,0.3-1,0.1c-1-0.7-2.3-1.5-2.6-2.7c-0.3-1,1.2-1,1.8-1.7
					c0,0,0-0.1,0.1-0.2c-0.8-0.4-1.5-0.3-2.3,0c-0.7,0.3-1.5,0.6-2,0c-0.8-0.8-1.7-1-2.7-1.1c-0.8-0.1-1.5-0.5-1.4,0.9
					c0,0.4-0.4,0.6-0.8,0.7c-0.9,0.4-1.8,0.7-2.7,1c-0.8,0.3-1.4,0.2-1.9-0.5c-0.6-0.9-1.6-2-0.9-2.8c1.1-1.3,0.2-1.6-0.6-2.2
					c-0.3-0.2-0.7-0.5-1-0.8c-0.6-0.5-1.2-1.4-1.8-0.1c-0.1,0.3-0.5,0.3-0.8,0.3c-0.6-0.1-1.6,0.1-1.8-0.7c-0.3-1-0.8-2.1,0.1-3
					c0.6-0.6,0.5-1,0.1-1.6c-1.1-1.8-1.8-3.7-2.2-5.8c-0.3-1.4-0.7-2.8-1-4.3c-0.3,0.3-0.4,0.5-0.5,0.6c-0.6,0.8-1.3,1.4-2.5,0.8
					c-1.2-0.6-1.2-1.4-1-2.5c0.4-1.8,0.4-1.8,2.3-1.8c0.4,0,1.1,0.3,0.9-0.6c-0.3-1.2-0.5-2.4-0.8-3.7c-0.3,0.3-0.4,0.4-0.5,0.6
					c-0.3,0.5-0.7,0.9-1.3,0.6c-0.7-0.4-1.6-0.6-1.7-1.7c-0.1-1.1,1-2.6,2-2.9c0.3-0.1,0.7,0,0.8-0.5c0.1-1.1-0.8-2.7-1.9-3.3
					c-1.5-0.7-2-4.1-0.8-5.1c0.9-0.7,1-2,0.1-2.6c-1.1-0.8-1.2-2-0.8-3.1c0.4-1,0.1-1.8-0.3-2.9c-0.5,1.1-1,1.9-0.6,3.1
					c0.5,1.2,0.2,1.5-1.1,1.5c-0.2,0-0.4,0-0.5,0.2c-0.6,1.6-2,2.9-1.5,4.8c0.3,1.1,0,2.1-1.1,2.8c-0.5,0.3-0.6,0.7-0.5,1.3
					c0.2,1.4,0.4,2.9,0.5,4.3c1.3,10.9,2.5,21.8,4.3,32.6c1,5.8,3.2,11,7.4,15.2c0.2,0.2,0.4,0.6,1,0.6c-0.2-3.7-1-7.4-1.1-11.3
					c0.6,0.5,0.6,0.9,0.6,1.3c0.1,0.9,0.5,1.3,1.3,1.3c0.8,0.1,1.2,0.5,1.2,1.3c-0.1,0.8,0.3,1.9-1.1,2.1c-0.4,0.1-0.8,0.1-0.7,0.7
					c0.3,2.3,0.6,4.5,0.9,6.8c0,0.3,0,0.7,0.5,0.5c0.8-0.3,1.1,0.3,1.4,0.8c0.4,0.6,0.1,1.2-0.4,1.6c-1,0.8-1,1.8-0.8,2.9
					c0.3,2.6,1.1,5.2,0.1,7.9c-0.5,1.4,0.1,2.6,1,3.6c0.5,0.6,0.6,1.1,0.6,1.9c0.2,4.2-0.4,8.3-1.7,12.4c-0.5,1.6-0.1,2.2,1.6,2.6
					c2.5,0.7,3.3,0.1,3.1-2.5c-0.3-3.8-0.3-7.7-0.2-11.5c0-1.1,0.2-2.2,0.7-3.2c0.9-1.8,1.1-3.6-0.3-5.2c-0.3-0.4-0.3-0.8-0.2-1.3
					c0.3-1.8,0.8-3.6,0.7-5.4c-0.1-1.4-0.1-2.3,0.8-3.6c1.4-2.2,2.5-4.7,2.2-7.5c0-0.2,0-0.4,0.3-0.5c0.3,0.6,0.5,1.2,0.5,1.9
					c0,1.4-0.3,2.8-0.9,4.1c-0.4,1-0.8,2-1.2,2.9c-0.4,0.8-0.1,1.3,0.8,1.6c2.1,0.9,4.2,1.8,6.4,2.4c3.7,1,7.3,1.6,11.1,0.7
					c1-0.3,1.3-0.4,0.5-1.4c-2.7-3.2-4.2-6.9-3.9-11.2C118.9,91.2,119.1,89.8,120.5,88.9z M76.4,17c1.5-1.9,1.5-1.9,1.5-4.4
					c0-0.2,0-0.4,0-0.6c0.1-0.9-0.1-1.5-1.2-1.4c-0.9,0.1-1.6,0.3-1.4,1.5c0.5,2.4-0.3,4.4-2.2,6.1c-1.9,1.7-1.8,4.2-1.9,6.5
					c0,0.4,0.3,0.5,0.6,0.7c1.1,0.6,1.2,1.5,0.1,2.1c-1.1,0.6-0.9,1.2-0.2,2c0.2,0.2,0.5,0.5,0.3,0.7c-1.2,1-0.6,2.2-0.5,3.3
					c0.1,1.4-0.1,2.5-1,3.6c-1,1.3-0.8,2.2,0.3,3.4c2.4,2.6,5.3,3,8.6,1.9c3.3-1.1,3.7-1.9,2.4-5.1c-0.2-0.5-0.5-1-0.2-1.6
					c0.6,0.1,0.6,0.8,1.1,1c0.5-1.2,1.1-2.4,1.6-3.5c0.1-0.2,0.2-0.5,0.1-0.6c-0.8-0.7-0.2-1.1,0.4-1.4c0.8-0.6,1.4-1.2,0.3-2
					c-0.5-0.4-0.6-1-0.2-1.6c0.3-0.5,0.8-1.1,1.4-0.8c0.7,0.4,0.7,0,0.9-0.5c0.8-2.2,1.1-4.5,0.2-6.7C86.6,17.5,87,15.8,88,14
					c0.1-0.3,0.2-0.6,0.4-0.8c0.5-0.7,0-1.1-0.5-1.3c-0.6-0.2-1.3-0.7-1.8,0.3c-0.4,1.1-0.8,2.3-1.4,3.2c-0.6,0.9-0.8,1.5-0.2,2.4
					c0,0-0.1,0.1-0.1,0.2c-1.2-0.9-1.8-2.7-3.5-2.7C79.3,15.2,78.1,16.5,76.4,17z M93,123.1c0.9-1.2,1.5-2.3,2-3.5
					c0.5-1,0.4-1.9-0.4-2.8c-1.3-1.5-2.6-3.1-3.9-4.7c-2.5-3-2.6-3.3-0.4-6.6c1.4-2.2,2.9-4.4,4.5-6.6c0.6-0.8,0.5-1.3-0.3-1.9
					c-0.4-0.3-0.8-0.7-1.3-0.5c-0.7,0.2-1-0.2-1-0.8c0-1.6-1.3-2.3-2-3.5c-0.4,0.6-0.4,0.9-0.1,1.4c0.7,0.9,1.2,1.8-0.7,1.8
					c-0.6,0-0.5,0.6-0.7,1c-0.1,0.3,0.1,0.3,0.4,0.3c1.1-0.2,1.2,0.7,1.1,1.4c-0.1,0.8-0.7,1.2-1.6,1c-0.3,0-0.7-0.4-0.8,0.1
					c-0.2,0.8-0.8,1.6-0.5,2.5c0.1,0.3,0.2,0.7,0,0.8c-1.4,0.8-1.2,2.3-1.6,3.5c-1,2.6-0.4,4.8,1.4,6.8c2.2,2.5,3.8,5.5,5.2,8.5
					C92.4,121.9,92.6,122.4,93,123.1z M120.1,106.6c0,0,0,0.1-0.1,0.1c0.4,0.4,0.7,0.8,1.1,1.2c1.2,1.2,1.7,2.6,0.8,4.2
					c-0.2,0.3-0.3,0.7-0.4,1c-1.7,3.9-3.9,7.6-5.7,11.4c-1.5,3.3-1.2,3.8,2.4,4.4c2.4,0.4,2.9,0.3,2.8-2.7c0-1.4,0.1-2.8,0.5-4.1
					c1.1-3.6,2.7-7,4.6-10.3c0.5-0.9,1.1-1.8,1.4-2.8c0.1-0.3,0.4-0.9-0.5-0.5c-0.9,0.4-1.4-0.2-1.3-1.2c0-0.3,0.1-0.6-0.1-0.6
					c-1.1,0-1.9-1-3-0.6c-0.4,0.1-0.6,0.2-0.6,0.6c0.1,0.9-0.5,0.7-1,0.4C120.7,107,120.4,106.8,120.1,106.6z M95.4,99.6
					c-1.8,2.5-3.4,4.8-4.8,7.1c-1.3,2.1-1.3,2.1,0.3,4.1c1.6,2.1,3.6,4,5,6.2c0.4,0.6,0.9,1.2,1.4,0.8c0.4-0.3,0.3-1.2-0.2-1.7
					c-0.1-0.1-0.1-0.1-0.1-0.2c-1.2-1.5-1.5-3.3-0.9-5.1c0.2-0.6,0.4-1.3,0.3-2C96.1,105.9,95.8,102.9,95.4,99.6z M98.1,139.9
					c0.9-0.1,1.8-0.2,2.7-0.3c1-0.2,1.5-0.8,1.5-1.8c0-1.4-0.3-2.7-0.6-4c-0.1-0.4-0.3-0.6-0.8-0.5c-1.3,0.3-2.6,0.1-3.8-0.5
					c-0.4-0.2-0.6-0.1-0.8,0.2c-0.9,1.6-1.8,3.2-2.4,5c-0.3,0.9,0,1.4,1,1.5C96,139.6,97,139.7,98.1,139.9z M130.1,140.3
					c0.7,0,1.5-0.1,2.3-0.2c2.5-0.3,2.5-0.3,2.4-2.7c0-0.5-0.1-1-0.1-1.5c0-0.9-0.3-1.2-1.2-1.1c-1.5,0.2-3,0.1-4.2-0.8
					c-0.4-0.3-0.6-0.2-0.8,0.1c-1,1.4-2,2.8-2.8,4.4c-0.4,0.8-0.1,1.2,0.6,1.4C127.5,140.3,128.8,140.3,130.1,140.3z M151.4,108.1
					c1-4.4-1.5-8.9-5.1-9.4c-0.1,0.7,1,1.4,0.5,1.7c-0.7,0.5-1.1-0.7-1.8-1c-0.1,0-0.2,0-0.2,0c-1,3.5,0.6,7,4.7,8.3
					c0.1-0.4-0.4-0.7-0.1-1.2C150.2,106.7,150.7,107.5,151.4,108.1z M115.5,134.7c1.3,0,2.6-0.1,3.9-0.5c1.4-0.5,2.1-2.8,1.2-4.1
					c-0.2-0.3-0.4-0.2-0.7-0.2c-1.6,0.1-3.2-0.2-4.7-0.9c-0.4-0.2-0.6-0.1-0.8,0.2c-0.8,1.4-1.5,2.7-2.3,4.1
					c-0.4,0.6-0.1,0.9,0.5,1.1C113.5,134.7,114.5,134.7,115.5,134.7z M89.4,26.9c-1-1.1-1.1-1.1-1.6,0.1c-0.2,0.6-0.3,1.1-0.1,1.7
					c1.5,7.3,3.1,14.5,4.5,21.8c0.2,1.1,0.6,1.8,1.9,1.5c-0.1-1.1-1.3-1.3-1.7-2.2c0.4-0.5,1,0.1,1.4-0.4c-0.3-0.7-0.9-1.2-1.5-1.7
					c-0.1-0.1-0.4-0.3-0.3-0.5c0.1-0.3,0.3-0.2,0.5-0.2c0.3,0,0.6,0.3,0.8-0.1c0.1-0.4-0.3-0.6-0.5-0.8c-0.3-0.2-0.6-0.3-0.9-0.5
					c-0.3-0.2-0.4-0.6,0.1-0.6c1.5-0.1,0.6-0.6,0.2-1.1c-0.2-0.2-0.5-0.4-0.8-0.6c-0.2-0.1-0.4-0.2-0.3-0.5c0.1-0.3,0.3-0.2,0.5-0.2
					c0.3,0,0.6,0.2,0.8-0.1c0.1-0.3-0.2-0.5-0.4-0.8c-0.2-0.2-0.4-0.4-0.6-0.6c-0.3-0.3-1-0.4-0.8-1c0.2-0.6,0.8,0,1.2-0.2
					c0.1,0,0.1-0.1,0.1-0.2c-0.1-0.4-0.4-0.5-0.6-0.7c-0.4-0.4-1.4-0.5-1.2-1.1c0.2-0.6,0.9,0.4,1.5-0.2c-0.2-0.6-0.8-0.9-1.3-1.3
					c-0.3-0.2-0.9-0.3-0.7-0.8c0.2-0.5,0.6,0,1,0.1c0.2,0,0.5,0.3,0.7,0c0.1-0.3-0.1-0.5-0.3-0.6c-0.5-0.4-1-0.9-1.6-1.3
					c-0.2-0.1-0.4-0.3-0.3-0.5c0.1-0.2,0.3-0.2,0.6-0.1c0.5,0.1,0.9,0.4,1.5,0.1c-0.6-0.9-1.4-1.2-2.1-1.6c-0.2-0.1-0.4-0.2-0.3-0.5
					c0.1-0.2,0.3-0.2,0.5-0.1c0.4,0.1,0.9,0.5,1.4,0.2c-0.6-1-1.8-1-2.3-1.9c0.4-0.5,1,0.2,1.4-0.3c-0.1-0.4-0.5-0.5-0.8-0.8
					c-0.3-0.3-0.9-0.3-0.8-0.8C88.4,26.9,89.1,27.4,89.4,26.9z M72.8,17.2c-0.1-1.4-1-2.4-2.6-2.8c-2-0.5-4.1-0.6-6.2-0.2
					c-0.7,0.1-0.9,0.4-0.4,0.9c0.7,0.8,1.5,1.6,2.4,2.2c1.3,0.9,2.7,1.6,4.2,1.9c1,0.2,1.3-0.6,1.7-1.2c0.4-0.6-0.3-0.9-0.6-1.2
					c-0.7-0.7-1.5-1.1-2.4-1.5C70.5,15.3,71.5,16.5,72.8,17.2z M93.1,18.9c-1.2,0.1-2.3,0-3.4,0.5c-0.7,0.3-1.3,0.5-1.1,1.5
					c0.2,1,0.9,1,1.6,1.1c2.4,0.2,4.5-0.8,6.6-2c0.9-0.5,0.3-0.8-0.2-1c-1.8-0.8-3.7-1.3-5.6-1.3c-0.8,0-1.5,0.2-2.1,0.7
					c-0.3,0.2-0.6,0.4-0.4,0.8c0.2,0.3,0.5,0,0.8,0C90.5,18.7,91.8,18.7,93.1,18.9z M97.5,121.6c0-0.7,0-1.3,0-1.8
					c0-0.6-0.4-0.7-0.9-0.9c-0.6-0.2-0.7,0.2-0.9,0.6c-0.3,0.7-0.6,1.3-0.9,2c-0.3,0.8-1.6,1.5-1,2.3c0.4,0.7,1.6,0.9,2.4,1.4
					c0.7,0.4,0.9,0.1,0.9-0.6C97.3,123.5,97.4,122.5,97.5,121.6z M143.8,96.4c-1.9-4.4-4-8.6-8.1-11.4
					C138.8,88.5,141.6,92.2,143.8,96.4z M76.5,10.1c0.4,0.1,1,0.6,1-0.3c0-0.5-0.4-0.8-1-0.7c-0.6,0-1.4,0.2-1.2,0.9
					C75.6,11,76.2,10,76.5,10.1z M87.8,10.4c-0.3-0.1-0.9,0-0.9,0.4c0,1,1.3,0.1,1.5,1c0,0.2,0.4,0.1,0.5-0.1c0.1-0.2,0-0.5-0.1-0.7
					C88.6,10.6,88.2,10.5,87.8,10.4z"/>
			</g>
		</g>
		<g>
			<g>
				<path class="st1" d="M109.7,79.8c1,0.2,1.8,0.7,2.4,1.5c0.3,0.5,0.3,1-0.1,1.5c-0.1,0.1-0.2,0.2-0.3,0.3
					c-2.7,2.6-4.7,2.2-6.1-1.3c-0.1-0.3-0.4-0.7,0.1-0.9C107,80.4,108.3,79.9,109.7,79.8z"/>
			</g>
		</g>
		<g>
			<g>
				<path class="st1" d="M96.8,80.1c-1.5-0.1-3.1-1.9-2.8-3.4c0.2-1.2,1.1-1.8,2.3-1.6c0.5,0.1,1.1,0.2,1.6,0.4
					c1.6,0.5,2.1,1.1,2.1,2.8c0,0.8-0.2,1.3-1.1,1.4C98.2,79.8,97.5,80,96.8,80.1z"/>
			</g>
		</g>
		<g>
			<g>
				<path class="st1" d="M127.9,91.1c0.1,1.2-2.5,2.8-3.5,2.2c-0.7-0.4-1.3-0.8-1.6-1.5c-0.4-0.7-0.8-1.5,0-2.2
					c0.7-0.6,1.6-1,2.6-0.5c0.7,0.4,1.3,0.8,2,1.2C127.6,90.5,127.9,90.8,127.9,91.1z"/>
			</g>
		</g>
		<g>
			<g>
				<path class="st1" d="M90,69.6c1.9,0,2.3,0.4,2.3,2.1c0,1.5-0.4,1.8-2.3,1.8c-1.2,0-1.5-0.6-1.6-2.6C88.5,69.6,89.3,69.5,90,69.6
					z"/>
			</g>
		</g>
		<g>
			<g>
				<path class="st1" d="M94.4,66.5c0,0.7-0.3,1.4-1,1.7c-0.8,0.4-1.3-0.3-1.9-0.7c-0.7-0.5-0.5-1.1-0.3-1.7
					c0.1-0.4,0.3-0.7,0.4-1.1c0.1-0.7,0.5-1.2,1.3-1c0.7,0.1,1.4,0.3,1.4,1.3C94.2,65.5,94.3,65.9,94.4,66.5z"/>
			</g>
		</g>
		<g>
			<g>
				<path class="st1" d="M99.3,82.3c0.8,0,1.9,1.3,2,2.3c0,0.7-1.4,1.7-2.4,1.7c-0.6,0-1.8-1.7-1.6-2.7
					C97.4,82.3,98.7,82.6,99.3,82.3z"/>
			</g>
		</g>
		<g>
			<g>
				<path class="st1" d="M123,82.6c0.8,0,2,1.1,2,1.8c0,0.7-1.3,1.8-2.1,1.7c-0.8,0-2.8-1.5-2.8-2C120.2,83.7,122.4,82.5,123,82.6z"
					/>
			</g>
		</g>
		<g>
			<g>
				<path class="st1" d="M88.7,60.4c1.1,0,2.4,1,2.5,1.8c0,0.8-1.1,2.1-1.8,2.2c-0.7,0-2.2-1.6-2.2-2.5C87.2,60.8,88,60.6,88.7,60.4
					z"/>
			</g>
		</g>
		<g>
			<g>
				<path class="st1" d="M128.3,85.7c1.2,0,2.3,1,2.3,2.1c0,0.7-1,1.4-2.1,1.4c-0.9,0-2-1.3-1.9-2.4
					C126.6,85.5,127.7,85.9,128.3,85.7z"/>
			</g>
		</g>
		<g>
			<g>
				<path class="st1" d="M103.6,87.5c0-0.9,1-2.4,1.5-2.4c0.7,0,2.3,1.8,2.2,2.5c-0.1,0.9-0.7,1.4-1.6,1.5
					C104.8,89.2,103.6,88.2,103.6,87.5z"/>
			</g>
		</g>
		<g>
			<g>
				<path class="st1" d="M99.2,90.2c0-1.1,0.9-2.2,1.7-2.2c0.6,0,1.9,1.6,1.9,2.5c0,0.6-1.5,1.5-2.4,1.4
					C99.4,91.7,99.3,90.9,99.2,90.2z"/>
			</g>
		</g>
		<g>
			<g>
				<path class="st1" d="M127.7,99.3c-0.7,0-2.5-1.8-2.3-2.4c0.2-0.8,0.9-1.3,1.8-1.4c0.9-0.1,2.1,1,2.1,1.7
					C129.3,97.9,128.3,99.3,127.7,99.3z"/>
			</g>
		</g>
		<g>
			<g>
				<path class="st1" d="M133.9,94.5c-0.2,0.7-0.3,1.7-1.4,1.8c-0.8,0.1-2.2-1.3-2.2-2c0.1-0.7,1.2-2,1.8-2
					C132.9,92.3,133.9,93.6,133.9,94.5z"/>
			</g>
		</g>
		<g>
			<g>
				<path class="st1" d="M115.7,87.5c-1-0.3-1.6-1-2.1-1.8c-0.4-0.5,0-0.8,0.4-1.2c0.7-0.7,1.5-0.6,2.3-0.1c0.6,0.4,1.5,0.7,1.3,1.7
					C117.4,87,116.5,87.2,115.7,87.5z"/>
			</g>
		</g>
		<g>
			<g>
				<path class="st1" d="M96.2,94.2c-0.1-0.7,0.4-1.1,0.9-1.4c0.6-0.3,1,0.2,1.2,0.6c0.4,0.6,1.2,1.2,0.7,2.1
					c-0.3,0.5-0.5,1.2-1.2,1.1c-0.7-0.1-1.3-0.5-1.4-1.3C96.4,95,96.3,94.6,96.2,94.2z"/>
			</g>
		</g>
		<g>
			<g>
				<path class="st1" d="M87.7,45.3c-0.2,0.6-0.1,1.5-1,1.8c-0.7,0.2-2.1-1.3-2-1.9c0.1-0.8,0.1-1.8,1.2-1.9
					C86.6,43.2,87.7,44.6,87.7,45.3z"/>
			</g>
		</g>
		<g>
			<g>
				<path class="st1" d="M85.3,53.8c0.2-0.6,0.1-1.5,1-1.8c0.4-0.1,2.1,1.8,2.1,2.2c0,0.4-1.2,1.7-1.6,1.7
					C86.4,55.9,85.3,54.5,85.3,53.8z"/>
			</g>
		</g>
		<g>
			<g>
				<path class="st1" d="M103.8,95.2c0,0.9-1,2.2-1.5,2c-0.8-0.4-1.2-1.2-1.2-2c0-0.9,0.7-1.6,1.5-1.6
					C103.7,93.6,103.7,94.6,103.8,95.2z"/>
			</g>
		</g>
		<g>
			<g>
				<path class="st1" d="M84,38.3c0.1-0.6,0.3-1.4,1-1.9c0.5-0.3,0.9,0.1,1.2,0.4c0.9,0.8,0.2,1.6-0.1,2.4c-0.2,0.5-0.6,0.9-1.2,0.6
					C84.3,39.6,83.9,39.2,84,38.3z"/>
			</g>
		</g>
		<g>
			<g>
				<path class="st1" d="M134.1,100.8c0,0.6-0.2,1.1-1,1c-0.8-0.2-1.8,0-2.3-0.9c-0.1-0.3,1.4-2,1.8-2
					C133.1,98.8,134.1,99.9,134.1,100.8z"/>
			</g>
		</g>
		<g>
			<g>
				<path class="st1" d="M124.1,99.7c1.3,0,2.3,1.4,2,2.6c-0.2,0.6-0.5,0.6-0.9,0.3c-0.6-0.5-1.2-1-1.7-1.5c-0.2-0.2-0.6-0.5-0.4-1
					C123.2,99.7,123.7,99.8,124.1,99.7z"/>
			</g>
		</g>
		<g>
			<g>
				<path class="st1" d="M123.1,95c-0.2,0.6-0.2,1.4-1,1.6c-0.5,0.1-1.7-1-1.6-1.6c0.1-0.6,0.2-1.5,1.1-1.5
					C122.2,93.7,122.9,94.1,123.1,95z"/>
			</g>
		</g>
		<g>
			<g>
				<path class="st1" d="M98.7,104.6c0.2-0.5,0.1-1.5,1.1-1.5c0.7,0,1.3,0.6,1.5,1.3c0.1,0.5-1.1,1.6-1.6,1.6
					C99.2,106,98.7,105.4,98.7,104.6z"/>
			</g>
		</g>
		<g>
			<g>
				<path class="st1" d="M131.3,104.1c-0.2,0.4,0,1.1-0.7,1.2c-0.5,0.1-1.9-1.3-1.8-1.7c0.1-0.5,0.4-1,1.1-1
					C130.5,102.6,131.3,103.4,131.3,104.1z"/>
			</g>
		</g>
		<g>
			<g>
				<path class="st1" d="M92.6,82.4c0.1-0.6-0.1-1.2,0.7-1.1c0.7,0.1,1.6,0.1,1.6,1.2c0,1-0.7,1.2-1.4,1.2
					C92.4,83.8,92.8,82.9,92.6,82.4z"/>
			</g>
		</g>
		<g>
			<g>
				<path class="st1" d="M91.8,77.1c-0.2,0.5-0.1,1.8-0.6,1.7c-1-0.2-1-1.5-1.2-2.4c-0.1-0.4,0.1-0.7,0.5-0.7
					C91.1,75.9,91.8,76,91.8,77.1z"/>
			</g>
		</g>
		<g>
			<g>
				<path class="st1" d="M101.4,99.7c-0.1,0.6-0.1,1.4-0.9,1.3c-0.8-0.1-1.1-1-1.2-1.7c0-0.5,0.3-1.1,0.9-1
					C100.9,98.4,101.3,99,101.4,99.7z"/>
			</g>
		</g>
		<g>
			<g>
				<path class="st1" d="M134.2,108.3c0,0.3,0,0.6-0.5,0.5c-0.9-0.2-1.5-0.6-1.5-1.6c0-0.5,0.1-0.7,0.6-0.7
					C133.7,106.5,134.2,107.2,134.2,108.3z"/>
			</g>
		</g>
		<g>
			<g>
				<path class="st1" d="M86,23.5c0,0.9-0.9,1.8-1.8,1.8c-0.9,0-1.7-0.8-1.7-1.9c0-1.1,1-2.1,2-2.1C85.4,21.4,86,22.3,86,23.5z"/>
			</g>
		</g>
		<g>
			<g>
				<path class="st1" d="M74.2,23.9c-0.9,0-1.6-0.7-1.6-1.7c0-0.9,0.8-1.9,1.5-1.9c0.6,0,1.6,1.2,1.6,1.9
					C75.8,23,75.1,23.9,74.2,23.9z"/>
			</g>
		</g>
		<g>
			<g>
				<path class="st1" d="M75,37.3c-0.7-0.3-1.2-0.8-1.3-1.5c-0.1-0.4,0.1-0.9,0.5-1c0.4-0.1,0.6,0.3,0.6,0.6
					C74.9,36,75.2,36.6,75,37.3z"/>
			</g>
		</g>
		<g>
			<g>
				<path class="st1" d="M76.9,37.7c0-0.8,0.4-1.2,0.7-1.7c0.2-0.3,0.5-0.7,0.9-0.4c0.4,0.3,0.3,0.8,0.1,1.1
					C78.2,37.3,77.6,37.5,76.9,37.7z"/>
			</g>
		</g>
		<g>
			<g>
				<path class="st1" d="M73.9,28.7c-0.1,0.4-0.3,0.7-0.7,0.8c-0.3,0-0.6-0.2-0.6-0.5c0-0.4,0.3-0.7,0.7-0.7
					C73.7,28.1,73.9,28.4,73.9,28.7z"/>
			</g>
		</g>
		<g>
			<g>
				<path class="st1" d="M83.6,29.3c0.4,0.2,0.7,0.3,0.7,0.8c0,0.4-0.4,0.5-0.6,0.5c-0.5,0-0.7-0.3-0.6-0.7
					C83.1,29.4,83.3,29.3,83.6,29.3z"/>
			</g>
		</g>
		<g>
			<g>
				<path class="st1" d="M78.2,34.3c0.6-0.4,1.1-0.2,1.5,0.2c0.4,0.4,0.5,0.9,0.1,1.6c0-1.2-0.6-1.7-1.6-1.7
					C78.2,34.4,78.2,34.3,78.2,34.3z"/>
			</g>
		</g>
		<g>
			<g>
				<path class="st1" d="M93,99.2c0.1,0.5-0.1,0.7-0.6,0.7c-0.5,0-1-0.1-0.9-0.7c0-0.5,0.3-0.9,0.8-0.9C92.9,98.2,92.9,98.7,93,99.2
					z"/>
			</g>
		</g>
		<g>
			<g>
				<path class="st1" d="M89.7,101.9c-0.6,0.2-0.7-0.2-0.8-0.6c-0.1-0.5,0.3-0.8,0.7-0.8c0.6,0,0.8,0.5,0.8,0.9
					C90.5,102.1,89.9,101.8,89.7,101.9z"/>
			</g>
		</g>
		<g>
			<g>
				<path class="st1" d="M89.1,103.3c0.6-0.4,1.1-0.7,1.6-0.2c0.2,0.2,0,0.5-0.2,0.7C89.9,104.2,89.7,103.4,89.1,103.3z"/>
			</g>
		</g>
		<g>
			<g>
				<path class="st1" d="M123.4,107.8c0.6,0,0.8,0.4,0.9,0.9c0.1,0.5-0.2,0.5-0.6,0.6c-0.5,0-0.9-0.2-0.9-0.7
					C122.7,108,123,107.8,123.4,107.8z"/>
			</g>
		</g>
	</g>
	<g>
		<g>
			<g>
				<g>
					<g>
						<path class="st1" d="M180.4,199.9H34.1c-8.1,0-14.8-6.6-14.8-14.8v-30.5c0-8.1,6.6-14.8,14.8-14.8h146.3
							c8.1,0,14.8,6.6,14.8,14.8v30.5C195.2,193.3,188.6,199.9,180.4,199.9z M34.1,142.1c-6.9,0-12.6,5.6-12.6,12.6v30.5
							c0,6.9,5.6,12.6,12.6,12.6h146.3c6.9,0,12.6-5.6,12.6-12.6v-30.5c0-6.9-5.6-12.6-12.6-12.6H34.1z"/>
					</g>
				</g>
			</g>
		</g>
	</g>
</g>
<path class="st0" d="M0,16.6"/>
<path class="st0" d="M0,28.3C0,12.7,12.7,0,28.3,0"/>
<path class="st0" d="M28.3,213.4C12.7,213.4,0,200.8,0,185.1"/>
<path class="st0" d="M214.6,185.1c0,15.7-12.7,28.3-28.3,28.3"/>
<path class="st0" d="M214.6,28.3c0-15.7-12.7-28.3-28.3-28.3"/>
<line class="st0" x1="0" y1="185.1" x2="0" y2="28.3"/>
<line class="st0" x1="214.6" y1="185.1" x2="214.6" y2="28.3"/>
<g>
	<path d="M37.3,184.6c-1.3,0-2.7-0.2-4.2-0.7c-2.4-0.8-4.2-2.2-5.6-4.3c-1.9-2.9-2.8-6.3-2.8-10.2c0-1.6,0.2-3.3,0.5-4.9
		c0.9-3.7,2.4-6.5,4.7-8.4c1.9-1.6,4.1-2.4,6.5-2.4c0.5,0,1,0,1.5,0.1c1.9,0.3,3.5,0.9,4.6,1.8c1.1,1,2,2.1,2.5,3.4
		c0.5,1.2,0.7,2.5,0.7,3.7v0.9c0,0.4-0.1,0.7-0.4,0.9c-0.2,0.2-0.6,0.4-0.9,0.4l-3.1,0c-0.4,0-0.7-0.1-1-0.4
		c-0.2-0.2-0.3-0.5-0.3-0.9v-0.8c0-0.4-0.1-0.8-0.2-1.3c-0.4-1-1.3-1.5-2.7-1.5c-0.3,0-0.6,0-1,0.1c-0.2,0-0.5,0.1-0.9,0.3
		c-0.4,0.2-0.7,0.5-1.1,0.8c-0.5,0.5-0.9,1.1-1.2,1.7s-0.5,1.5-0.7,2.5c-0.2,1.4-0.4,2.8-0.4,4.2c0,1.6,0.2,3.1,0.5,4.5
		c0.4,1.8,1.2,3.1,2.5,3.9c0.7,0.4,1.5,0.6,2.5,0.6h0.3c0.8,0,1.5-0.3,2.2-0.9c0.7-0.6,1.1-1.8,1.3-3.6l0-0.6c0-0.4,0.2-0.6,0.4-0.9
		s0.5-0.3,0.9-0.3l3.1,0.1c0.4,0,0.7,0.2,0.9,0.4c0.2,0.3,0.3,0.6,0.3,0.9c0,0.2,0,0.5,0,0.7c0,0.5-0.1,1.2-0.4,2.3
		c-0.6,2.7-2,4.8-4.1,6.3C40.9,184.1,39.2,184.6,37.3,184.6z"/>
	<path d="M67.5,184.4H64c-0.5,0-0.9-0.2-1.2-0.5s-0.5-0.7-0.5-1.2l0-2.4c0-2.3,0-4.6-0.1-6.9c-0.1-1.6-0.2-2.7-0.4-3.5
		c-0.2-0.7-0.5-1.2-0.9-1.4c-0.4-0.2-0.9-0.3-1.7-0.3c-0.7,0-1.2,0.2-1.6,0.5c-0.6,0.6-1,1.6-1.2,2.8c-0.1,4.5-0.2,8.2-0.3,11
		c0,0.5-0.2,0.8-0.5,1.1s-0.7,0.4-1.1,0.4h-3.2c-0.5,0-0.8-0.2-1.2-0.5c-0.3-0.3-0.5-0.7-0.5-1.2c0.1-10.2,0.2-19.1,0.3-26.8
		c0-0.5,0.2-0.8,0.5-1.1c0.3-0.3,0.7-0.5,1.1-0.5h3.3c0.5,0,0.8,0.2,1.2,0.5c0.3,0.3,0.5,0.7,0.5,1.2v1.9l0,4.9
		c0.8-0.2,1.8-0.3,2.9-0.3l1.2,0c2.8,0.2,5,1.4,6.4,3.4c0.9,1.4,1.5,3.1,1.8,4.9c0.3,1.8,0.4,3.5,0.4,5.3v1.6c0,1-0.1,2.2-0.1,3.6
		l-0.1,1.6c0,0.4-0.2,0.8-0.5,1.1C68.3,184.3,67.9,184.4,67.5,184.4z"/>
	<path d="M77.1,184.1h-3c-0.5,0-0.8-0.2-1.2-0.5c-0.3-0.3-0.5-0.7-0.5-1.2c0.1-7.9,0.2-13.9,0.3-18.2c0-0.5,0.2-0.8,0.5-1.1
		c0.3-0.3,0.7-0.5,1.1-0.5h3.1c0.5,0,0.8,0.2,1.2,0.5c0.3,0.3,0.5,0.7,0.5,1.2v1c0,2.1,0,4.9-0.1,8.4c-0.1,3.5-0.2,6.5-0.3,8.8
		c0,0.5-0.2,0.8-0.5,1.1C77.9,183.9,77.5,184.1,77.1,184.1z M75.7,160.7c-0.9,0-1.7-0.3-2.2-0.8c-0.7-0.6-1-1.4-1-2.4
		c0.1-2.1,1.1-3.4,3-3.8c0.2,0,0.4,0,0.6,0c0.9,0,1.7,0.3,2.4,0.9c0.7,0.7,1,1.5,1,2.4v0.1c-0.1,2-1.1,3.2-3,3.5
		C76.1,160.7,75.9,160.7,75.7,160.7z"/>
	<path d="M92.7,184.2c-1.5,0-2.8-0.4-4.1-1.2l-0.1-0.1c0,0.3-0.1,0.6-0.4,0.8c-0.2,0.2-0.5,0.3-0.8,0.3h-4.1c-0.3,0-0.6-0.1-0.8-0.3
		c-0.2-0.2-0.3-0.5-0.3-0.8c0-1.8,0-6.6,0.1-14.4c0.1-7.9,0.1-12.3,0.2-13.2c0-0.3,0.1-0.6,0.4-0.8c0.2-0.2,0.5-0.3,0.8-0.3h4.3
		c0.3,0,0.6,0.1,0.8,0.3c0.2,0.2,0.3,0.5,0.3,0.8v2.2l0,4.5c1-0.5,2.1-0.7,3.4-0.7c1.4,0,2.9,0.4,4.5,1.2c1.6,0.8,2.8,2.3,3.8,4.5
		c0.7,1.8,1.1,3.7,1.1,5.7c0,2-0.4,3.9-1.1,5.7c-1.1,2.6-2.8,4.4-5.1,5.3C94.5,184,93.6,184.2,92.7,184.2z M91.4,179.1
		c1.3,0,2.3-0.7,3-2.2c0.6-1.3,1-2.7,1-4.3c0-0.1,0-0.6,0-1.5c0-0.9-0.3-1.8-1-2.6c-0.6-0.8-1.5-1.2-2.6-1.2c-0.4,0-0.7,0-1,0.1
		s-0.7,0.3-1.1,0.6c-0.4,0.3-0.7,0.8-0.9,1.4c0,2.5-0.1,4.8-0.1,7.1l0.1,0c0,0.3,0,0.6,0.1,0.9c0.1,0.4,0.3,0.7,0.5,1
		c0.5,0.5,1.2,0.7,2,0.7H91.4z"/>
	<path d="M122.6,184.1h-3.7c-0.4,0-0.7-0.1-1-0.4c-0.3-0.3-0.4-0.6-0.4-1c-1,0.5-2.4,0.8-4.3,0.8c-1.3,0-2.6-0.3-3.8-0.9
		c-1.2-0.6-2.2-1.4-2.9-2.3c-1.6-2.3-2.4-5.7-2.4-10.2c0-1.9,0.1-3.6,0.2-5.2l0.1-1.8c0-0.4,0.2-0.7,0.4-0.9s0.6-0.4,0.9-0.4h4.3
		c0.4,0,0.7,0.1,1,0.4s0.4,0.6,0.4,1v0.3c-0.1,1.8-0.1,4.2-0.1,7.1v2.1c0.1,3.3,1,4.9,2.7,4.9c1.4,0,2.2-1.7,2.5-5
		c0.2-2.1,0.2-4.4,0.2-7l0-2.4c0-0.4,0.1-0.7,0.4-1c0.3-0.3,0.6-0.4,1-0.4h4.9c0.4,0,0.7,0.1,1,0.4c0.3,0.3,0.4,0.6,0.4,1v0.3
		c-0.1,7.3-0.2,13.7-0.3,19.1v0.3c0,0.4-0.2,0.7-0.4,1C123.3,183.9,123,184.1,122.6,184.1z"/>
	<path d="M137.5,183.9c-1.8,0-3.7-0.5-5.7-1.4c-1.5-0.8-2.7-2-3.5-3.6c-1-1.8-1.5-3.9-1.5-6.3c0-1.5,0.2-2.9,0.6-4.3
		c0.8-2.6,2.2-4.6,4.1-5.9c1.6-1,3.3-1.6,5.4-1.6c0.5,0,1,0,1.5,0.1c1.8,0.3,3.2,0.8,4.2,1.7c1,0.9,1.7,1.8,2.1,2.9
		c0.3,0.9,0.5,1.8,0.5,2.5v0.3l0.1,1.2c0,0.8,0.1,1.3,0.1,1.5c0,0.3-0.1,0.6-0.2,0.9c-0.1,0.3-0.3,0.6-0.6,0.8
		c-0.5,0.5-1.1,0.7-1.9,0.8l-1.4,0.1c-4.2,0.5-6.8,0.8-8,0.9c0.1,0.7,0.3,1.4,0.6,2c0.7,1.5,1.6,2.2,2.9,2.3l0.5,0
		c1.5,0,2.4-0.5,2.7-1.5c0.1-0.4,0.3-0.7,0.6-0.9s0.6-0.3,1-0.3l1.9,0.1c0.5,0,0.9,0.2,1.1,0.5c0.3,0.3,0.4,0.7,0.4,1.1v0.2
		c-0.3,2.1-1.4,3.6-3.3,4.7C140.5,183.5,139.1,183.9,137.5,183.9z M133.5,169.4l6.6-0.7c0-0.1,0-0.2,0-0.3s-0.1-0.3-0.2-0.7
		c-0.1-0.4-0.3-0.8-0.6-1.1c-0.3-0.4-0.8-0.6-1.4-0.8c-0.2,0-0.4,0-0.6,0c-1.1,0-1.9,0.5-2.7,1.4
		C134.1,167.8,133.8,168.5,133.5,169.4z"/>
	<path d="M156.2,184.3c-1.8,0-3.3,0-4.3-0.1c-1,0-1.8-0.1-2.3-0.2c-0.5-0.1-0.9-0.2-1-0.3c-0.2-0.1-0.3-0.3-0.4-0.5
		c-0.2-0.3-0.3-0.6-0.3-0.9c0-0.2,0-0.4,0.1-0.7c0.8-1.7,2-3.6,3.7-5.9c1.7-2.3,3.3-4.4,4.9-6.4l1-1.3l-6.8,0.1
		c-0.5,0-0.9-0.2-1.2-0.5c-0.3-0.3-0.5-0.7-0.5-1.2l0.1-3c0-0.5,0.2-0.8,0.5-1.1c0.3-0.3,0.7-0.4,1.1-0.5l8.7,0c2.1,0,3.8,0,5.1,0h0
		c0.9,0,1.5,0.6,2.1,1.7c0.2,0.5,0.4,1.1,0.4,1.8l0,0.3c0,0.6-0.2,1.2-0.6,1.6c-1.3,1.5-2.7,3.3-4.3,5.4c-1.6,2.1-3.1,4-4.4,5.7
		l2.5,0c1.4,0,2.8,0,4.2-0.1c0.5,0,0.8,0.1,1.2,0.4c0.3,0.3,0.5,0.7,0.5,1.1l0.1,2.7c0,0.5-0.1,0.8-0.4,1.2
		c-0.3,0.3-0.7,0.5-1.2,0.5C161.2,184.2,158.4,184.3,156.2,184.3z"/>
	<path d="M180.7,183.9c-1.8,0-3.7-0.5-5.7-1.4c-1.5-0.8-2.7-2-3.5-3.6c-1-1.8-1.5-3.9-1.5-6.3c0-1.5,0.2-2.9,0.6-4.3
		c0.8-2.6,2.2-4.6,4.1-5.9c1.6-1,3.3-1.6,5.4-1.6c0.5,0,1,0,1.5,0.1c1.8,0.3,3.2,0.8,4.2,1.7c1,0.9,1.7,1.8,2.1,2.9
		c0.3,0.9,0.5,1.8,0.5,2.5v0.3l0.1,1.2c0,0.8,0.1,1.3,0.1,1.5c0,0.3-0.1,0.6-0.2,0.9c-0.1,0.3-0.3,0.6-0.6,0.8
		c-0.5,0.5-1.1,0.7-1.9,0.8l-1.4,0.1c-4.2,0.5-6.8,0.8-8,0.9c0.1,0.7,0.3,1.4,0.6,2c0.7,1.5,1.6,2.2,2.9,2.3l0.5,0
		c1.5,0,2.4-0.5,2.7-1.5c0.1-0.4,0.3-0.7,0.6-0.9s0.6-0.3,1-0.3l1.9,0.1c0.5,0,0.9,0.2,1.1,0.5c0.3,0.3,0.4,0.7,0.4,1.1v0.2
		c-0.3,2.1-1.4,3.6-3.3,4.7C183.7,183.5,182.3,183.9,180.7,183.9z M176.7,169.4l6.6-0.7c0-0.1,0-0.2,0-0.3s-0.1-0.3-0.2-0.7
		c-0.1-0.4-0.3-0.8-0.6-1.1c-0.3-0.4-0.8-0.6-1.4-0.8c-0.2,0-0.4,0-0.6,0c-1.1,0-1.9,0.5-2.7,1.4C177.3,167.8,177,168.5,176.7,169.4
		z"/>
</g>
</svg>
