<?xml version="1.0" encoding="utf-8"?>
<!-- Generator: Adobe Illustrator 25.2.3, SVG Export Plug-In . SVG Version: 6.00 Build 0)  -->
<svg version="1.1" xmlns="http://www.w3.org/2000/svg" xmlns:xlink="http://www.w3.org/1999/xlink" x="0px" y="0px"
	 viewBox="0 0 360 504" style="enable-background:new 0 0 360 504;" xml:space="preserve">
<style type="text/css">
	.st0{fill:none;stroke:#000000;stroke-linecap:round;stroke-linejoin:round;stroke-miterlimit:10;}
</style>
<g id="Text">
	<g>
		<path d="M62.1,239.3h-4.9L49,212.7h5.1l6.1,20.4l6.2-20.4h4L62.1,239.3z"/>
		<path d="M77.6,217.3h-4.5v-4.6h4.5V217.3z M77.6,239.3h-4.5v-19.7h4.5V239.3z"/>
		<path d="M87.4,239.3H83v-19.7h4v4.7c0.6-1.8,1.4-3.2,2.4-4c1-0.8,2-1.3,3.1-1.3c0.1,0,0.3,0,0.6,0v4.8c-2.3,0-3.8,0.7-4.5,2.2
			c-0.7,1.4-1.1,2.8-1.1,4.2V239.3z"/>
		<path d="M106.2,235.9v3.5c-1.3,0.3-2.4,0.4-3.1,0.4c-1.2,0-2.2-0.2-3.1-0.7s-1.5-1.1-1.9-2c-0.4-0.8-0.6-2.1-0.6-3.8v-10.2h-2.5
			v-3.5h2.7l0.4-5.1l3.7-0.3v5.5h4v3.5h-4v9.6c0,1.2,0.2,2.1,0.7,2.5s1.3,0.7,2.5,0.7C105.4,235.9,105.8,235.9,106.2,235.9z"/>
		<path d="M126.2,239.3H122v-4.3c-1.1,3.1-3.2,4.7-6.2,4.7c-1.8,0-3.2-0.6-4.3-1.7s-1.6-2.7-1.6-4.7v-13.8h4.6v12.9
			c0,1.4,0.3,2.4,0.9,2.8c0.6,0.4,1.2,0.7,1.8,0.7c1,0,1.9-0.4,2.9-1.3c1-0.9,1.5-2.7,1.5-5.5v-9.5h4.5V239.3z"/>
		<path d="M148.4,239.3h-4.2c-0.4-1.2-0.6-2.5-0.7-4c-1.2,2.9-3.4,4.4-6.7,4.4c-2,0-3.5-0.6-4.7-1.7s-1.8-2.6-1.8-4.3
			c0-4.5,4-6.8,11.9-6.8c0.3,0,0.7,0,1.3,0v-1.5c0-2-1.4-3.1-4.2-3.1c-2.7,0-4.2,1-4.6,3.1l-3.8-0.6c0.2-1.6,1.1-3,2.5-4.1
			c1.5-1.1,3.6-1.6,6.4-1.6c1.5,0,2.8,0.1,3.7,0.4c1,0.3,1.8,0.7,2.4,1.3s1.1,1.3,1.4,2c0.3,0.7,0.4,1.9,0.4,3.6v8.9
			C147.8,236.6,148,238,148.4,239.3z M143.5,229.3c-5.8,0-8.6,1.4-8.6,4.1c0,0.8,0.3,1.5,0.9,2.1c0.6,0.6,1.5,0.9,2.6,0.9
			c1.7,0,3-0.5,3.8-1.6c0.9-1.1,1.3-2.3,1.3-3.7V229.3z"/>
		<path d="M157.6,239.3h-4.5v-26.7h4.5V239.3z"/>
		<path d="M199.3,239.3h-4.9V216l-7.4,23.3h-2.5l-7.4-23.3v23.3h-3.9v-26.7h7.5l5.6,17.2l5.5-17.2h7.6V239.3z"/>
		<path d="M217.5,233l4,0.5c-0.5,1.8-1.5,3.3-3,4.4c-1.5,1.2-3.4,1.7-5.7,1.7c-2.7,0-4.9-0.9-6.6-2.8s-2.5-4.3-2.5-7.5
			c0-3,0.8-5.4,2.5-7.4s4-2.9,6.8-2.9c2.8,0,5,1,6.5,2.9c1.5,1.9,2.3,4.4,2.3,7.4l0,0.5h-13.5c0,1.3,0.1,2.4,0.4,3.2
			c0.3,0.8,0.8,1.5,1.5,2.1c0.8,0.6,1.7,0.9,2.8,0.9C215.2,236.2,216.7,235.2,217.5,233z M217.2,227.1c0-1.4-0.4-2.6-1.3-3.5
			s-1.9-1.3-3.1-1.3c-1.2,0-2.2,0.4-3.1,1.3s-1.3,2-1.4,3.6H217.2z"/>
		<path d="M238.5,233l4,0.5c-0.5,1.8-1.5,3.3-3,4.4c-1.5,1.2-3.4,1.7-5.7,1.7c-2.7,0-4.9-0.9-6.6-2.8s-2.5-4.3-2.5-7.5
			c0-3,0.8-5.4,2.5-7.4s4-2.9,6.8-2.9c2.8,0,5,1,6.5,2.9c1.5,1.9,2.3,4.4,2.3,7.4l0,0.5h-13.5c0,1.3,0.1,2.4,0.4,3.2
			c0.3,0.8,0.8,1.5,1.5,2.1c0.8,0.6,1.7,0.9,2.8,0.9C236.2,236.2,237.7,235.2,238.5,233z M238.2,227.1c0-1.4-0.4-2.6-1.3-3.5
			s-1.9-1.3-3.1-1.3c-1.2,0-2.2,0.4-3.1,1.3s-1.3,2-1.4,3.6H238.2z"/>
		<path d="M255.8,235.9v3.5c-1.3,0.3-2.4,0.4-3.1,0.4c-1.2,0-2.2-0.2-3.1-0.7s-1.5-1.1-1.9-2c-0.4-0.8-0.6-2.1-0.6-3.8v-10.2h-2.5
			v-3.5h2.7l0.4-5.1l3.7-0.3v5.5h4v3.5h-4v9.6c0,1.2,0.2,2.1,0.7,2.5s1.3,0.7,2.5,0.7C255,235.9,255.4,235.9,255.8,235.9z"/>
		<path d="M264,217.3h-4.5v-4.6h4.5V217.3z M264,239.3h-4.5v-19.7h4.5V239.3z"/>
		<path d="M285.7,239.3h-4.5V227c0-1.3-0.3-2.3-0.9-2.9c-0.6-0.7-1.3-1-2.2-1c-1.2,0-2.2,0.5-3,1.5s-1.3,2.5-1.3,4.6v10.1h-4.5
			v-19.7h4.1v4.6c1.4-3.3,3.4-5,6-5c1.7,0,3.2,0.5,4.4,1.6s1.8,3,1.8,5.8V239.3z"/>
		<path d="M309,215.8v3.4h-1.4c-0.6,0-1.1,0.1-1.6,0.2c-0.4,0.1-0.9,0.6-1.3,1.4c1.6,1.3,2.3,2.7,2.3,4.3c0,1.7-0.7,3.2-2.2,4.3
			c-1.5,1.1-3.4,1.7-5.8,1.7c-1,0-2.3-0.2-3.7-0.5c-0.9,0.4-1.4,1.1-1.4,1.9c0,0.5,0.2,0.9,0.7,1.3c0.4,0.4,1.1,0.6,2,0.6h5.9
			c2,0,3.6,0.5,4.7,1.6s1.7,2.3,1.7,3.9c0,1.9-0.9,3.4-2.6,4.6c-1.7,1.2-4.3,1.8-7.7,1.8c-6.4,0-9.6-1.8-9.6-5.3c0-1.8,1-3.1,2.9-4
			c-1.2-1-1.8-2.1-1.8-3.3c0-1.7,1-3.1,3.1-4.1c-1.8-1.1-2.7-2.6-2.7-4.6c0-1.6,0.7-3,2-4.2c1.3-1.2,3.4-1.7,6.1-1.7
			c1.2,0,2.5,0.1,3.8,0.4c0.6-2.5,2.2-3.8,4.7-3.8H309z M294,238.3c-0.6,0.6-1,1.2-1,1.7c0,0.9,0.5,1.7,1.6,2.4s2.8,1,5.1,1
			c3.4,0,5.1-0.9,5.1-2.6c0-0.7-0.3-1.1-0.9-1.5s-1.3-0.5-2.1-0.5h-4.7C296.3,238.7,295.2,238.6,294,238.3z M298.9,228.5
			c2.4,0,3.6-1.1,3.6-3.4c0-0.9-0.3-1.6-0.9-2.2c-0.6-0.6-1.5-0.9-2.6-0.9c-1.2,0-2.1,0.3-2.7,0.9s-1,1.4-1,2.3c0,1,0.3,1.7,1,2.3
			C296.9,228.2,297.7,228.5,298.9,228.5z"/>
	</g>
</g>
<g id="Artwork">
	<g>
		<path d="M234.6,269.9C234.6,269.9,234.5,269.9,234.6,269.9l-103.9,0.3c0,0,0,0,0,0c-8,0-14.5,6.5-14.5,14.5v94.4
			c0,0.1,0,0.1,0,0.2c0,0.1,0,0.2,0,0.3c0,0.1,0,0.2,0.1,0.2c0,0.1,0,0.2,0.1,0.2c0,0.1,0.1,0.1,0.1,0.2c0,0.1,0.1,0.1,0.1,0.2
			c0,0.1,0.1,0.1,0.1,0.2c0,0.1,0.1,0.1,0.2,0.2c0.1,0.1,0.1,0.1,0.2,0.2c0,0,0.1,0.1,0.1,0.1c0,0,0,0,0.1,0c0,0,0.1,0.1,0.1,0.1
			c0.1,0.1,0.2,0.1,0.3,0.1c0,0,0.1,0,0.1,0.1c0.1,0,0.2,0.1,0.3,0.1c0,0,0.1,0,0.1,0c0.2,0,0.3,0,0.5,0c0,0,0,0,0,0c0,0,0,0,0,0
			c0.2,0,0.4,0,0.5-0.1c0,0,0.1,0,0.1,0c0.1,0,0.3-0.1,0.4-0.1c0.1,0,0.1-0.1,0.2-0.1c0.1-0.1,0.2-0.1,0.3-0.2
			c0.1,0,0.1-0.1,0.2-0.1c0.1-0.1,0.2-0.2,0.3-0.3c0,0,0.1-0.1,0.1-0.1l22.9-30.8h91c8,0,14.5-6.5,14.5-14.5v-50.9
			C249.1,276.4,242.6,269.9,234.6,269.9z M234.6,344.8h-92.3c-0.1,0-0.1,0-0.2,0c-0.1,0-0.2,0-0.3,0c-0.1,0-0.1,0-0.2,0.1
			c-0.1,0-0.2,0-0.2,0.1c-0.1,0-0.1,0.1-0.2,0.1c-0.1,0-0.1,0.1-0.2,0.1c-0.1,0-0.1,0.1-0.2,0.1c-0.1,0-0.1,0.1-0.2,0.2
			c-0.1,0.1-0.1,0.1-0.2,0.2c0,0-0.1,0.1-0.1,0.1l-19.2,25.8v-86.9c0-5.3,4.3-9.5,9.5-9.5c0,0,0,0,0,0l103.9-0.3
			c5.3,0,9.5,4.3,9.5,9.5v50.9C244.1,340.6,239.8,344.8,234.6,344.8z"/>
		<path d="M213.7,297.9c-0.5-0.3-1-0.3-1.5,0l-10.7,5.9v-8.1c0-2.8-2.2-5-5-5h-35.6c-2.8,0-5,2.2-5,5v26.7c0,2.8,2.2,5,5,5h35.6
			c2.8,0,5-2.2,5-5v-8.8l10.7,5.9c0.2,0.1,0.5,0.2,0.7,0.2c0.3,0,0.5-0.1,0.8-0.2c0.5-0.3,0.7-0.8,0.7-1.3v-18.9
			C214.4,298.7,214.1,298.2,213.7,297.9z M198.5,322.4c0,1.1-0.9,2-2,2h-35.6c-1.1,0-2-0.9-2-2v-26.7c0-1.1,0.9-2,2-2h35.6
			c1.1,0,2,0.9,2,2V322.4z M211.4,315.6l-9.7-5.4c-0.1,0-0.2-0.1-0.3-0.1v-2.9c0.1,0,0.3-0.1,0.4-0.1l9.5-5.3V315.6z"/>
	</g>
</g>
<g id="Outline">
	<polyline class="st0" points="72,464.4 72,504 288,504 288,464.4 	"/>
	<path class="st0" d="M37.8,468"/>
	<line class="st0" x1="288" y1="464.4" x2="315" y2="464.4"/>
	<line class="st0" x1="72" y1="464.4" x2="45" y2="464.4"/>
	<line class="st0" x1="315" y1="464.4" x2="315" y2="185.4"/>
	<line class="st0" x1="45" y1="464.4" x2="45" y2="185.4"/>
	<line class="st0" x1="53.2" y1="176.4" x2="306.8" y2="176.4"/>
	<path class="st0" d="M45,185.4c0-5,3.7-9,8.2-9"/>
	<path class="st0" d="M306.8,176.4c4.5,0,8.2,4,8.2,9"/>
	<g>
		<path d="M93,428h-4.8v-26.7H93V428z"/>
		<path d="M114.9,428h-4.5v-12.3c0-1.3-0.3-2.3-0.9-2.9s-1.3-1-2.2-1c-1.2,0-2.2,0.5-3,1.5s-1.3,2.5-1.3,4.6V428h-4.5v-19.7h4.1v4.6
			c1.4-3.3,3.4-5,6-5c1.7,0,3.2,0.5,4.4,1.6s1.8,3,1.8,5.8V428z"/>
		<path d="M135.3,428h-4.8v-26.7h10.9c3.1,0,5.4,0.8,6.9,2.4s2.3,3.4,2.3,5.6c0,2.4-0.8,4.4-2.4,5.9s-3.7,2.3-6.2,2.3h-6.7V428z
			 M135.3,413.3h5.7c1.5,0,2.6-0.4,3.4-1.1s1.2-1.7,1.2-2.9c0-1.1-0.4-2-1.1-2.8s-2-1.2-3.9-1.2h-5.3V413.3z"/>
		<path d="M158.6,428h-4.5v-19.7h4v4.7c0.6-1.8,1.4-3.2,2.4-4s2-1.3,3.1-1.3c0.1,0,0.3,0,0.6,0v4.8c-2.3,0-3.8,0.7-4.5,2.2
			s-1.1,2.8-1.1,4.2V428z"/>
		<path d="M174.9,428.4c-2.9,0-5.1-1-6.7-3.1s-2.3-4.5-2.3-7.2c0-2.9,0.8-5.3,2.5-7.3s3.9-2.9,6.7-2.9c2.6,0,4.8,0.9,6.5,2.8
			s2.5,4.3,2.5,7.4c0,3.1-0.9,5.6-2.6,7.5S177.6,428.4,174.9,428.4z M175.1,424.8c3,0,4.5-2.2,4.5-6.7c0-2-0.4-3.6-1.1-4.8
			s-1.8-1.7-3.3-1.7c-1.5,0-2.7,0.6-3.4,1.8s-1.1,2.8-1.1,4.8c0,2.1,0.4,3.8,1.2,4.9S173.7,424.8,175.1,424.8z"/>
		<path d="M206.4,404.5v3.4H205c-0.6,0-1.1,0.1-1.6,0.2s-0.9,0.6-1.3,1.4c1.6,1.3,2.3,2.7,2.3,4.3c0,1.7-0.7,3.2-2.2,4.3
			s-3.4,1.7-5.8,1.7c-1,0-2.3-0.2-3.7-0.5c-0.9,0.4-1.4,1.1-1.4,1.9c0,0.5,0.2,0.9,0.7,1.3s1.1,0.6,2,0.6h5.9c2,0,3.6,0.5,4.7,1.6
			s1.7,2.3,1.7,3.9c0,1.9-0.9,3.4-2.6,4.6s-4.3,1.8-7.7,1.8c-6.4,0-9.6-1.8-9.6-5.3c0-1.8,1-3.1,2.9-4c-1.2-1-1.8-2.1-1.8-3.3
			c0-1.7,1-3.1,3.1-4.1c-1.8-1.1-2.7-2.6-2.7-4.6c0-1.6,0.7-3,2-4.2s3.4-1.7,6.1-1.7c1.2,0,2.5,0.1,3.8,0.4c0.6-2.5,2.2-3.8,4.7-3.8
			H206.4z M191.4,426.9c-0.6,0.6-1,1.2-1,1.7c0,0.9,0.5,1.7,1.6,2.4s2.8,1,5.1,1c3.4,0,5.1-0.9,5.1-2.6c0-0.7-0.3-1.1-0.9-1.5
			s-1.3-0.5-2.1-0.5h-4.7C193.7,427.4,192.6,427.3,191.4,426.9z M196.2,417.2c2.4,0,3.6-1.1,3.6-3.4c0-0.9-0.3-1.6-0.9-2.2
			s-1.5-0.9-2.6-0.9c-1.2,0-2.1,0.3-2.7,0.9s-1,1.4-1,2.3c0,1,0.3,1.7,1,2.3S195.1,417.2,196.2,417.2z"/>
		<path d="M213.5,428h-4.5v-19.7h4v4.7c0.6-1.8,1.4-3.2,2.4-4s2-1.3,3.1-1.3c0.1,0,0.3,0,0.6,0v4.8c-2.3,0-3.8,0.7-4.5,2.2
			s-1.1,2.8-1.1,4.2V428z"/>
		<path d="M234.9,421.7l4,0.5c-0.5,1.8-1.5,3.3-3,4.4s-3.4,1.7-5.7,1.7c-2.7,0-4.9-0.9-6.6-2.8s-2.5-4.3-2.5-7.5
			c0-3,0.8-5.4,2.5-7.4s4-2.9,6.8-2.9c2.8,0,5,1,6.5,2.9s2.3,4.4,2.3,7.4l0,0.5h-13.5c0,1.3,0.1,2.4,0.4,3.2s0.8,1.5,1.5,2.1
			s1.7,0.9,2.8,0.9C232.6,424.9,234.1,423.9,234.9,421.7z M234.6,415.8c0-1.4-0.4-2.6-1.3-3.5s-1.9-1.3-3.1-1.3
			c-1.2,0-2.2,0.4-3.1,1.3s-1.3,2-1.4,3.6H234.6z"/>
		<path d="M240.9,423.5l4.2-0.8c0.6,1.6,2,2.4,4.2,2.4c2.8,0,4.1-0.8,4.1-2.4c0-0.5-0.2-1-0.6-1.3s-0.9-0.6-1.5-0.7l-3.6-0.7
			c-4-0.8-6-2.7-6-5.8c0-1.7,0.6-3.2,1.9-4.4s3.1-1.8,5.6-1.8c4.2,0,6.7,1.5,7.6,4.6l-4,0.8c-0.4-1.5-1.6-2.2-3.6-2.2
			c-2.4,0-3.6,0.7-3.6,2.2c0,1,1,1.7,2.9,2.1l4.2,0.9c3.3,0.7,4.9,2.6,4.9,5.7c0,2.2-0.8,3.8-2.5,4.9s-3.7,1.6-6,1.6
			c-2,0-3.8-0.4-5.4-1.2S241.4,425.2,240.9,423.5z"/>
		<path d="M259.1,423.5l4.2-0.8c0.6,1.6,2,2.4,4.2,2.4c2.8,0,4.1-0.8,4.1-2.4c0-0.5-0.2-1-0.6-1.3s-0.9-0.6-1.5-0.7l-3.6-0.7
			c-4-0.8-6-2.7-6-5.8c0-1.7,0.6-3.2,1.9-4.4s3.1-1.8,5.6-1.8c4.2,0,6.7,1.5,7.6,4.6l-4,0.8c-0.4-1.5-1.6-2.2-3.6-2.2
			c-2.4,0-3.6,0.7-3.6,2.2c0,1,1,1.7,2.9,2.1l4.2,0.9c3.3,0.7,4.9,2.6,4.9,5.7c0,2.2-0.8,3.8-2.5,4.9s-3.7,1.6-6,1.6
			c-2,0-3.8-0.4-5.4-1.2S259.6,425.2,259.1,423.5z"/>
	</g>
</g>
</svg>
