<?xml version="1.0" encoding="utf-8"?>
<!-- Generator: Adobe Illustrator 25.2.3, SVG Export Plug-In . SVG Version: 6.00 Build 0)  -->
<svg version="1.1" xmlns="http://www.w3.org/2000/svg" xmlns:xlink="http://www.w3.org/1999/xlink" x="0px" y="0px"
	 viewBox="0 0 504 360" style="enable-background:new 0 0 504 360;" xml:space="preserve">
<style type="text/css">
	.st0{fill:none;stroke:#000000;stroke-linecap:round;stroke-linejoin:round;stroke-miterlimit:10;}
</style>
<g id="Text">
</g>
<g id="Artwork">
</g>
<g id="Outline">
	<polyline class="st0" points="464.4,284.4 504,284.4 504,68.4 464.4,68.4 	"/>
	<path class="st0" d="M468,318.6"/>
	<line class="st0" x1="464.4" y1="68.4" x2="464.4" y2="41.4"/>
	<line class="st0" x1="464.4" y1="284.4" x2="464.4" y2="311.4"/>
	<line class="st0" x1="464.4" y1="41.4" x2="185.4" y2="41.4"/>
	<line class="st0" x1="464.4" y1="311.4" x2="185.4" y2="311.4"/>
	<line class="st0" x1="176.4" y1="303.2" x2="176.4" y2="49.6"/>
	<path class="st0" d="M185.4,311.4c-5,0-9-3.7-9-8.2"/>
	<path class="st0" d="M176.4,49.6c0-4.5,4-8.2,9-8.2"/>
	<g>
		<path d="M201.7,96.9h-4.9l-8.2-26.7h5.1l6.1,20.4l6.2-20.4h4L201.7,96.9z"/>
		<path d="M217.2,74.9h-4.5v-4.6h4.5V74.9z M217.2,96.9h-4.5V77.2h4.5V96.9z"/>
		<path d="M227,96.9h-4.5V77.2h4v4.7c0.6-1.8,1.4-3.2,2.4-4c1-0.8,2-1.3,3.1-1.3c0.1,0,0.3,0,0.6,0v4.8c-2.3,0-3.8,0.7-4.5,2.2
			c-0.7,1.4-1.1,2.8-1.1,4.2V96.9z"/>
		<path d="M245.8,93.5v3.5c-1.3,0.3-2.4,0.4-3.1,0.4c-1.2,0-2.2-0.2-3.1-0.7s-1.5-1.1-1.9-2c-0.4-0.8-0.6-2.1-0.6-3.8V80.7h-2.5
			v-3.5h2.7l0.4-5.1l3.7-0.3v5.5h4v3.5h-4v9.6c0,1.2,0.2,2.1,0.7,2.5s1.3,0.7,2.5,0.7C245,93.5,245.4,93.5,245.8,93.5z"/>
		<path d="M265.8,96.9h-4.1v-4.3c-1.1,3.1-3.2,4.7-6.2,4.7c-1.8,0-3.2-0.6-4.3-1.7s-1.6-2.7-1.6-4.7V77.2h4.6v12.9
			c0,1.4,0.3,2.4,0.9,2.8c0.6,0.4,1.2,0.7,1.8,0.7c1,0,1.9-0.4,2.9-1.3c1-0.9,1.5-2.7,1.5-5.5v-9.5h4.5V96.9z"/>
		<path d="M288,96.9h-4.2c-0.4-1.2-0.6-2.5-0.7-4c-1.2,2.9-3.4,4.4-6.7,4.4c-2,0-3.5-0.6-4.7-1.7s-1.8-2.6-1.8-4.3
			c0-4.5,4-6.8,11.9-6.8c0.3,0,0.7,0,1.3,0V83c0-2-1.4-3.1-4.2-3.1c-2.7,0-4.2,1-4.6,3.1l-3.8-0.6c0.2-1.6,1.1-3,2.5-4.1
			c1.5-1.1,3.6-1.6,6.4-1.6c1.5,0,2.8,0.1,3.7,0.4c1,0.3,1.8,0.7,2.4,1.3s1.1,1.3,1.4,2c0.3,0.7,0.4,1.9,0.4,3.6v8.9
			C287.4,94.2,287.6,95.6,288,96.9z M283.1,86.9c-5.8,0-8.6,1.4-8.6,4.1c0,0.8,0.3,1.5,0.9,2.1c0.6,0.6,1.5,0.9,2.6,0.9
			c1.7,0,3-0.5,3.8-1.6c0.9-1.1,1.3-2.3,1.3-3.7V86.9z"/>
		<path d="M297.2,96.9h-4.5V70.3h4.5V96.9z"/>
		<path d="M338.9,96.9H334V73.6l-7.4,23.3h-2.5l-7.4-23.3v23.3h-3.9V70.3h7.5l5.6,17.2l5.5-17.2h7.6V96.9z"/>
		<path d="M357.1,90.6l4,0.5c-0.5,1.8-1.5,3.3-3,4.4c-1.5,1.2-3.4,1.7-5.7,1.7c-2.7,0-4.9-0.9-6.6-2.8s-2.5-4.3-2.5-7.5
			c0-3,0.8-5.4,2.5-7.4s4-2.9,6.8-2.9c2.8,0,5,1,6.5,2.9c1.5,1.9,2.3,4.4,2.3,7.4l0,0.5h-13.5c0,1.3,0.1,2.4,0.4,3.2
			c0.3,0.8,0.8,1.5,1.5,2.1c0.8,0.6,1.7,0.9,2.8,0.9C354.8,93.8,356.3,92.8,357.1,90.6z M356.8,84.7c0-1.4-0.4-2.6-1.3-3.5
			s-1.9-1.3-3.1-1.3c-1.2,0-2.2,0.4-3.1,1.3s-1.3,2-1.4,3.6H356.8z"/>
		<path d="M378.1,90.6l4,0.5c-0.5,1.8-1.5,3.3-3,4.4c-1.5,1.2-3.4,1.7-5.7,1.7c-2.7,0-4.9-0.9-6.6-2.8s-2.5-4.3-2.5-7.5
			c0-3,0.8-5.4,2.5-7.4s4-2.9,6.8-2.9c2.8,0,5,1,6.5,2.9c1.5,1.9,2.3,4.4,2.3,7.4l0,0.5h-13.5c0,1.3,0.1,2.4,0.4,3.2
			c0.3,0.8,0.8,1.5,1.5,2.1c0.8,0.6,1.7,0.9,2.8,0.9C375.8,93.8,377.3,92.8,378.1,90.6z M377.8,84.7c0-1.4-0.4-2.6-1.3-3.5
			s-1.9-1.3-3.1-1.3c-1.2,0-2.2,0.4-3.1,1.3s-1.3,2-1.4,3.6H377.8z"/>
		<path d="M395.4,93.5v3.5c-1.3,0.3-2.4,0.4-3.1,0.4c-1.2,0-2.2-0.2-3.1-0.7s-1.5-1.1-1.9-2c-0.4-0.8-0.6-2.1-0.6-3.8V80.7h-2.5
			v-3.5h2.7l0.4-5.1l3.7-0.3v5.5h4v3.5h-4v9.6c0,1.2,0.2,2.1,0.7,2.5s1.3,0.7,2.5,0.7C394.7,93.5,395,93.5,395.4,93.5z"/>
		<path d="M403.6,74.9h-4.5v-4.6h4.5V74.9z M403.6,96.9h-4.5V77.2h4.5V96.9z"/>
		<path d="M425.3,96.9h-4.5V84.6c0-1.3-0.3-2.3-0.9-2.9c-0.6-0.7-1.3-1-2.2-1c-1.2,0-2.2,0.5-3,1.5s-1.3,2.5-1.3,4.6v10.1H409V77.2
			h4.1v4.6c1.4-3.3,3.4-5,6-5c1.7,0,3.2,0.5,4.4,1.6s1.8,3,1.8,5.8V96.9z"/>
		<path d="M448.6,73.4v3.4h-1.4c-0.6,0-1.1,0.1-1.6,0.2c-0.4,0.1-0.9,0.6-1.3,1.4c1.6,1.3,2.3,2.7,2.3,4.3c0,1.7-0.7,3.2-2.2,4.3
			c-1.5,1.1-3.4,1.7-5.8,1.7c-1,0-2.3-0.2-3.7-0.5c-0.9,0.4-1.4,1.1-1.4,1.9c0,0.5,0.2,0.9,0.7,1.3c0.4,0.4,1.1,0.6,2,0.6h5.9
			c2,0,3.6,0.5,4.7,1.6s1.7,2.3,1.7,3.9c0,1.9-0.9,3.4-2.6,4.6c-1.7,1.2-4.3,1.8-7.7,1.8c-6.4,0-9.6-1.8-9.6-5.3c0-1.8,1-3.1,2.9-4
			c-1.2-1-1.8-2.1-1.8-3.3c0-1.7,1-3.1,3.1-4.1c-1.8-1.1-2.7-2.6-2.7-4.6c0-1.6,0.7-3,2-4.2c1.3-1.2,3.4-1.7,6.1-1.7
			c1.2,0,2.5,0.1,3.8,0.4c0.6-2.5,2.2-3.8,4.7-3.8H448.6z M433.6,95.9c-0.6,0.6-1,1.2-1,1.7c0,0.9,0.5,1.7,1.6,2.4s2.8,1,5.1,1
			c3.4,0,5.1-0.9,5.1-2.6c0-0.7-0.3-1.1-0.9-1.5s-1.3-0.5-2.1-0.5h-4.7C435.9,96.3,434.8,96.2,433.6,95.9z M438.5,86.1
			c2.4,0,3.6-1.1,3.6-3.4c0-0.9-0.3-1.6-0.9-2.2c-0.6-0.6-1.5-0.9-2.6-0.9c-1.2,0-2.1,0.3-2.7,0.9s-1,1.4-1,2.3c0,1,0.3,1.7,1,2.3
			C436.5,85.8,437.4,86.1,438.5,86.1z"/>
	</g>
	<g>
		<path d="M374.2,126.5C374.2,126.5,374.2,126.5,374.2,126.5l-103.9,0.3c0,0,0,0,0,0c-8,0-14.5,6.5-14.5,14.5v94.4
			c0,0.1,0,0.1,0,0.2c0,0.1,0,0.2,0,0.3c0,0.1,0,0.2,0.1,0.2c0,0.1,0,0.2,0.1,0.2c0,0.1,0.1,0.1,0.1,0.2c0,0.1,0.1,0.1,0.1,0.2
			c0,0.1,0.1,0.1,0.1,0.2c0,0.1,0.1,0.1,0.2,0.2c0.1,0.1,0.1,0.1,0.2,0.2c0,0,0.1,0.1,0.1,0.1c0,0,0,0,0.1,0c0,0,0.1,0.1,0.1,0.1
			c0.1,0.1,0.2,0.1,0.3,0.1c0,0,0.1,0,0.1,0.1c0.1,0,0.2,0.1,0.3,0.1c0,0,0.1,0,0.1,0c0.2,0,0.3,0,0.5,0c0,0,0,0,0,0c0,0,0,0,0,0
			c0.2,0,0.4,0,0.5-0.1c0,0,0.1,0,0.1,0c0.1,0,0.3-0.1,0.4-0.1c0.1,0,0.1-0.1,0.2-0.1c0.1-0.1,0.2-0.1,0.3-0.2
			c0.1,0,0.1-0.1,0.2-0.1c0.1-0.1,0.2-0.2,0.3-0.3c0,0,0.1-0.1,0.1-0.1l22.9-30.8h91c8,0,14.5-6.5,14.5-14.5V141
			C388.7,133,382.2,126.5,374.2,126.5z M374.2,201.4h-92.3c-0.1,0-0.1,0-0.2,0c-0.1,0-0.2,0-0.3,0c-0.1,0-0.1,0-0.2,0.1
			c-0.1,0-0.2,0-0.2,0.1c-0.1,0-0.1,0.1-0.2,0.1c-0.1,0-0.1,0.1-0.2,0.1c-0.1,0-0.1,0.1-0.2,0.1c-0.1,0-0.1,0.1-0.2,0.2
			c-0.1,0.1-0.1,0.1-0.2,0.2c0,0-0.1,0.1-0.1,0.1l-19.2,25.8v-86.9c0-5.3,4.3-9.5,9.5-9.5c0,0,0,0,0,0l103.9-0.3
			c5.3,0,9.5,4.3,9.5,9.5v50.9C383.7,197.2,379.4,201.4,374.2,201.4z"/>
		<path d="M353.3,154.5c-0.5-0.3-1-0.3-1.5,0l-10.7,5.9v-8.1c0-2.8-2.2-5-5-5h-35.6c-2.8,0-5,2.2-5,5V179c0,2.8,2.2,5,5,5h35.6
			c2.8,0,5-2.2,5-5v-8.8l10.7,5.9c0.2,0.1,0.5,0.2,0.7,0.2c0.3,0,0.5-0.1,0.8-0.2c0.5-0.3,0.7-0.8,0.7-1.3v-18.9
			C354,155.3,353.7,154.8,353.3,154.5z M338.1,179c0,1.1-0.9,2-2,2h-35.6c-1.1,0-2-0.9-2-2v-26.7c0-1.1,0.9-2,2-2h35.6
			c1.1,0,2,0.9,2,2V179z M351,172.2l-9.7-5.4c-0.1,0-0.2-0.1-0.3-0.1v-2.9c0.1,0,0.3-0.1,0.4-0.1l9.5-5.3V172.2z"/>
	</g>
	<g>
		<path d="M232.9,280.6h-4.8V254h4.8V280.6z"/>
		<path d="M254.9,280.6h-4.5v-12.3c0-1.3-0.3-2.3-0.9-2.9s-1.3-1-2.2-1c-1.2,0-2.2,0.5-3,1.5s-1.3,2.5-1.3,4.6v10.1h-4.5v-19.7h4.1
			v4.6c1.4-3.3,3.4-5,6-5c1.7,0,3.2,0.5,4.4,1.6s1.8,3,1.8,5.8V280.6z"/>
		<path d="M275.3,280.6h-4.8V254h10.9c3.1,0,5.4,0.8,6.9,2.4s2.3,3.4,2.3,5.6c0,2.4-0.8,4.4-2.4,5.9s-3.7,2.3-6.2,2.3h-6.7V280.6z
			 M275.3,265.9h5.7c1.5,0,2.6-0.4,3.4-1.1s1.2-1.7,1.2-2.9c0-1.1-0.4-2-1.1-2.8s-2-1.2-3.9-1.2h-5.3V265.9z"/>
		<path d="M298.6,280.6h-4.5v-19.7h4v4.7c0.6-1.8,1.4-3.2,2.4-4s2-1.3,3.1-1.3c0.1,0,0.3,0,0.6,0v4.8c-2.3,0-3.8,0.7-4.5,2.2
			s-1.1,2.8-1.1,4.2V280.6z"/>
		<path d="M314.9,281c-2.9,0-5.1-1-6.7-3.1s-2.3-4.5-2.3-7.2c0-2.9,0.8-5.3,2.5-7.3s3.9-2.9,6.7-2.9c2.6,0,4.8,0.9,6.5,2.8
			s2.5,4.3,2.5,7.4c0,3.1-0.9,5.6-2.6,7.5S317.6,281,314.9,281z M315.1,277.4c3,0,4.5-2.2,4.5-6.7c0-2-0.4-3.6-1.1-4.8
			s-1.8-1.7-3.3-1.7c-1.5,0-2.7,0.6-3.4,1.8s-1.1,2.8-1.1,4.8c0,2.1,0.4,3.8,1.2,4.9S313.7,277.4,315.1,277.4z"/>
		<path d="M346.3,257.1v3.4H345c-0.6,0-1.1,0.1-1.6,0.2s-0.9,0.6-1.3,1.4c1.6,1.3,2.3,2.7,2.3,4.3c0,1.7-0.7,3.2-2.2,4.3
			s-3.4,1.7-5.8,1.7c-1,0-2.3-0.2-3.7-0.5c-0.9,0.4-1.4,1.1-1.4,1.9c0,0.5,0.2,0.9,0.7,1.3s1.1,0.6,2,0.6h5.9c2,0,3.6,0.5,4.7,1.6
			s1.7,2.3,1.7,3.9c0,1.9-0.9,3.4-2.6,4.6s-4.3,1.8-7.7,1.8c-6.4,0-9.6-1.8-9.6-5.3c0-1.8,1-3.1,2.9-4c-1.2-1-1.8-2.1-1.8-3.3
			c0-1.7,1-3.1,3.1-4.1c-1.8-1.1-2.7-2.6-2.7-4.6c0-1.6,0.7-3,2-4.2s3.4-1.7,6.1-1.7c1.2,0,2.5,0.1,3.8,0.4c0.6-2.5,2.2-3.8,4.7-3.8
			H346.3z M331.3,279.5c-0.6,0.6-1,1.2-1,1.7c0,0.9,0.5,1.7,1.6,2.4s2.8,1,5.1,1c3.4,0,5.1-0.9,5.1-2.6c0-0.7-0.3-1.1-0.9-1.5
			s-1.3-0.5-2.1-0.5h-4.7C333.6,280,332.6,279.9,331.3,279.5z M336.2,269.8c2.4,0,3.6-1.1,3.6-3.4c0-0.9-0.3-1.6-0.9-2.2
			s-1.5-0.9-2.6-0.9c-1.2,0-2.1,0.3-2.7,0.9s-1,1.4-1,2.3c0,1,0.3,1.7,1,2.3S335.1,269.8,336.2,269.8z"/>
		<path d="M353.5,280.6h-4.5v-19.7h4v4.7c0.6-1.8,1.4-3.2,2.4-4s2-1.3,3.1-1.3c0.1,0,0.3,0,0.6,0v4.8c-2.3,0-3.8,0.7-4.5,2.2
			s-1.1,2.8-1.1,4.2V280.6z"/>
		<path d="M374.9,274.3l4,0.5c-0.5,1.8-1.5,3.3-3,4.4s-3.4,1.7-5.7,1.7c-2.7,0-4.9-0.9-6.6-2.8s-2.5-4.3-2.5-7.5
			c0-3,0.8-5.4,2.5-7.4s4-2.9,6.8-2.9c2.8,0,5,1,6.5,2.9s2.3,4.4,2.3,7.4l0,0.5h-13.5c0,1.3,0.1,2.4,0.4,3.2s0.8,1.5,1.5,2.1
			s1.7,0.9,2.8,0.9C372.6,277.5,374.1,276.5,374.9,274.3z M374.6,268.4c0-1.4-0.4-2.6-1.3-3.5s-1.9-1.3-3.1-1.3
			c-1.2,0-2.2,0.4-3.1,1.3s-1.3,2-1.4,3.6H374.6z"/>
		<path d="M380.9,276.1l4.2-0.8c0.6,1.6,2,2.4,4.2,2.4c2.8,0,4.1-0.8,4.1-2.4c0-0.5-0.2-1-0.6-1.3s-0.9-0.6-1.5-0.7l-3.6-0.7
			c-4-0.8-6-2.7-6-5.8c0-1.7,0.6-3.2,1.9-4.4s3.1-1.8,5.6-1.8c4.2,0,6.7,1.5,7.6,4.6l-4,0.8c-0.4-1.5-1.6-2.2-3.6-2.2
			c-2.4,0-3.6,0.7-3.6,2.2c0,1,1,1.7,2.9,2.1l4.2,0.9c3.3,0.7,4.9,2.6,4.9,5.7c0,2.2-0.8,3.8-2.5,4.9s-3.7,1.6-6,1.6
			c-2,0-3.8-0.4-5.4-1.2S381.4,277.8,380.9,276.1z"/>
		<path d="M399.1,276.1l4.2-0.8c0.6,1.6,2,2.4,4.2,2.4c2.8,0,4.1-0.8,4.1-2.4c0-0.5-0.2-1-0.6-1.3s-0.9-0.6-1.5-0.7l-3.6-0.7
			c-4-0.8-6-2.7-6-5.8c0-1.7,0.6-3.2,1.9-4.4s3.1-1.8,5.6-1.8c4.2,0,6.7,1.5,7.6,4.6l-4,0.8c-0.4-1.5-1.6-2.2-3.6-2.2
			c-2.4,0-3.6,0.7-3.6,2.2c0,1,1,1.7,2.9,2.1l4.2,0.9c3.3,0.7,4.9,2.6,4.9,5.7c0,2.2-0.8,3.8-2.5,4.9s-3.7,1.6-6,1.6
			c-2,0-3.8-0.4-5.4-1.2S399.5,277.8,399.1,276.1z"/>
	</g>
</g>
</svg>
