<?xml version="1.0" encoding="utf-8"?>
<!-- Generator: Adobe Illustrator 25.2.3, SVG Export Plug-In . SVG Version: 6.00 Build 0)  -->
<svg version="1.1" xmlns="http://www.w3.org/2000/svg" xmlns:xlink="http://www.w3.org/1999/xlink" x="0px" y="0px"
	 viewBox="0 0 360 504" style="enable-background:new 0 0 360 504;" xml:space="preserve">
<style type="text/css">
	.st0{fill:none;stroke:#000000;stroke-width:5;stroke-linecap:round;stroke-linejoin:round;stroke-miterlimit:10;}
	.st1{fill:none;stroke:#000000;stroke-width:3;stroke-linecap:round;stroke-linejoin:round;stroke-miterlimit:10;}
	.st2{fill:none;stroke:#000000;stroke-linecap:round;stroke-linejoin:round;stroke-miterlimit:10;}
</style>
<g id="Text">
	<g>
		<path d="M62.1,239.3h-4.9L49,212.7h5.1l6.1,20.4l6.2-20.4h4L62.1,239.3z"/>
		<path d="M77.6,217.3h-4.5v-4.6h4.5V217.3z M77.6,239.3h-4.5v-19.7h4.5V239.3z"/>
		<path d="M87.4,239.3H83v-19.7h4v4.7c0.6-1.8,1.4-3.2,2.4-4c1-0.8,2-1.3,3.1-1.3c0.1,0,0.3,0,0.6,0v4.8c-2.3,0-3.8,0.7-4.5,2.2
			c-0.7,1.4-1.1,2.8-1.1,4.2V239.3z"/>
		<path d="M106.2,235.9v3.5c-1.3,0.3-2.4,0.4-3.1,0.4c-1.2,0-2.2-0.2-3.1-0.7s-1.5-1.1-1.9-2c-0.4-0.8-0.6-2.1-0.6-3.8v-10.2h-2.5
			v-3.5h2.7l0.4-5.1l3.7-0.3v5.5h4v3.5h-4v9.6c0,1.2,0.2,2.1,0.7,2.5s1.3,0.7,2.5,0.7C105.4,235.9,105.8,235.9,106.2,235.9z"/>
		<path d="M126.2,239.3H122v-4.3c-1.1,3.1-3.2,4.7-6.2,4.7c-1.8,0-3.2-0.6-4.3-1.7s-1.6-2.7-1.6-4.7v-13.8h4.6v12.9
			c0,1.4,0.3,2.4,0.9,2.8c0.6,0.4,1.2,0.7,1.8,0.7c1,0,1.9-0.4,2.9-1.3c1-0.9,1.5-2.7,1.5-5.5v-9.5h4.5V239.3z"/>
		<path d="M148.4,239.3h-4.2c-0.4-1.2-0.6-2.5-0.7-4c-1.2,2.9-3.4,4.4-6.7,4.4c-2,0-3.5-0.6-4.7-1.7s-1.8-2.6-1.8-4.3
			c0-4.5,4-6.8,11.9-6.8c0.3,0,0.7,0,1.3,0v-1.5c0-2-1.4-3.1-4.2-3.1c-2.7,0-4.2,1-4.6,3.1l-3.8-0.6c0.2-1.6,1.1-3,2.5-4.1
			c1.5-1.1,3.6-1.6,6.4-1.6c1.5,0,2.8,0.1,3.7,0.4c1,0.3,1.8,0.7,2.4,1.3s1.1,1.3,1.4,2c0.3,0.7,0.4,1.9,0.4,3.6v8.9
			C147.8,236.6,148,238,148.4,239.3z M143.5,229.3c-5.8,0-8.6,1.4-8.6,4.1c0,0.8,0.3,1.5,0.9,2.1c0.6,0.6,1.5,0.9,2.6,0.9
			c1.7,0,3-0.5,3.8-1.6c0.9-1.1,1.3-2.3,1.3-3.7V229.3z"/>
		<path d="M157.6,239.3h-4.5v-26.7h4.5V239.3z"/>
		<path d="M199.3,239.3h-4.9V216l-7.4,23.3h-2.5l-7.4-23.3v23.3h-3.9v-26.7h7.5l5.6,17.2l5.5-17.2h7.6V239.3z"/>
		<path d="M217.5,233l4,0.5c-0.5,1.8-1.5,3.3-3,4.4c-1.5,1.2-3.4,1.7-5.7,1.7c-2.7,0-4.9-0.9-6.6-2.8s-2.5-4.3-2.5-7.5
			c0-3,0.8-5.4,2.5-7.4s4-2.9,6.8-2.9c2.8,0,5,1,6.5,2.9c1.5,1.9,2.3,4.4,2.3,7.4l0,0.5h-13.5c0,1.3,0.1,2.4,0.4,3.2
			c0.3,0.8,0.8,1.5,1.5,2.1c0.8,0.6,1.7,0.9,2.8,0.9C215.2,236.2,216.7,235.2,217.5,233z M217.2,227.1c0-1.4-0.4-2.6-1.3-3.5
			s-1.9-1.3-3.1-1.3c-1.2,0-2.2,0.4-3.1,1.3s-1.3,2-1.4,3.6H217.2z"/>
		<path d="M238.5,233l4,0.5c-0.5,1.8-1.5,3.3-3,4.4c-1.5,1.2-3.4,1.7-5.7,1.7c-2.7,0-4.9-0.9-6.6-2.8s-2.5-4.3-2.5-7.5
			c0-3,0.8-5.4,2.5-7.4s4-2.9,6.8-2.9c2.8,0,5,1,6.5,2.9c1.5,1.9,2.3,4.4,2.3,7.4l0,0.5h-13.5c0,1.3,0.1,2.4,0.4,3.2
			c0.3,0.8,0.8,1.5,1.5,2.1c0.8,0.6,1.7,0.9,2.8,0.9C236.2,236.2,237.7,235.2,238.5,233z M238.2,227.1c0-1.4-0.4-2.6-1.3-3.5
			s-1.9-1.3-3.1-1.3c-1.2,0-2.2,0.4-3.1,1.3s-1.3,2-1.4,3.6H238.2z"/>
		<path d="M255.8,235.9v3.5c-1.3,0.3-2.4,0.4-3.1,0.4c-1.2,0-2.2-0.2-3.1-0.7s-1.5-1.1-1.9-2c-0.4-0.8-0.6-2.1-0.6-3.8v-10.2h-2.5
			v-3.5h2.7l0.4-5.1l3.7-0.3v5.5h4v3.5h-4v9.6c0,1.2,0.2,2.1,0.7,2.5s1.3,0.7,2.5,0.7C255,235.9,255.4,235.9,255.8,235.9z"/>
		<path d="M264,217.3h-4.5v-4.6h4.5V217.3z M264,239.3h-4.5v-19.7h4.5V239.3z"/>
		<path d="M285.7,239.3h-4.5V227c0-1.3-0.3-2.3-0.9-2.9c-0.6-0.7-1.3-1-2.2-1c-1.2,0-2.2,0.5-3,1.5s-1.3,2.5-1.3,4.6v10.1h-4.5
			v-19.7h4.1v4.6c1.4-3.3,3.4-5,6-5c1.7,0,3.2,0.5,4.4,1.6s1.8,3,1.8,5.8V239.3z"/>
		<path d="M309,215.8v3.4h-1.4c-0.6,0-1.1,0.1-1.6,0.2c-0.4,0.1-0.9,0.6-1.3,1.4c1.6,1.3,2.3,2.7,2.3,4.3c0,1.7-0.7,3.2-2.2,4.3
			c-1.5,1.1-3.4,1.7-5.8,1.7c-1,0-2.3-0.2-3.7-0.5c-0.9,0.4-1.4,1.1-1.4,1.9c0,0.5,0.2,0.9,0.7,1.3c0.4,0.4,1.1,0.6,2,0.6h5.9
			c2,0,3.6,0.5,4.7,1.6s1.7,2.3,1.7,3.9c0,1.9-0.9,3.4-2.6,4.6c-1.7,1.2-4.3,1.8-7.7,1.8c-6.4,0-9.6-1.8-9.6-5.3c0-1.8,1-3.1,2.9-4
			c-1.2-1-1.8-2.1-1.8-3.3c0-1.7,1-3.1,3.1-4.1c-1.8-1.1-2.7-2.6-2.7-4.6c0-1.6,0.7-3,2-4.2c1.3-1.2,3.4-1.7,6.1-1.7
			c1.2,0,2.5,0.1,3.8,0.4c0.6-2.5,2.2-3.8,4.7-3.8H309z M294,238.3c-0.6,0.6-1,1.2-1,1.7c0,0.9,0.5,1.7,1.6,2.4s2.8,1,5.1,1
			c3.4,0,5.1-0.9,5.1-2.6c0-0.7-0.3-1.1-0.9-1.5s-1.3-0.5-2.1-0.5h-4.7C296.3,238.7,295.2,238.6,294,238.3z M298.9,228.5
			c2.4,0,3.6-1.1,3.6-3.4c0-0.9-0.3-1.6-0.9-2.2c-0.6-0.6-1.5-0.9-2.6-0.9c-1.2,0-2.1,0.3-2.7,0.9s-1,1.4-1,2.3c0,1,0.3,1.7,1,2.3
			C296.9,228.2,297.7,228.5,298.9,228.5z"/>
	</g>
	<g>
		<path d="M100.7,428.1h-4.8v-26.7h4.8V428.1z"/>
		<path d="M122.6,428.1h-4.5v-12.3c0-1.3-0.3-2.3-0.9-2.9c-0.6-0.7-1.3-1-2.2-1c-1.2,0-2.2,0.5-3,1.5c-0.9,1-1.3,2.5-1.3,4.6v10.1
			h-4.5v-19.7h4.1v4.6c1.4-3.3,3.4-5,6-5c1.7,0,3.2,0.5,4.4,1.6s1.8,3,1.8,5.8V428.1z"/>
		<path d="M143,428.1h-4.8v-26.7h10.9c3.1,0,5.4,0.8,6.9,2.4c1.5,1.6,2.3,3.4,2.3,5.6c0,2.4-0.8,4.4-2.4,5.9
			c-1.6,1.5-3.7,2.3-6.2,2.3H143V428.1z M143,413.4h5.7c1.5,0,2.6-0.4,3.4-1.1c0.8-0.7,1.2-1.7,1.2-2.9c0-1.1-0.4-2-1.1-2.8
			s-2-1.2-3.9-1.2H143V413.4z"/>
		<path d="M166.4,428.1h-4.5v-19.7h4v4.7c0.6-1.8,1.4-3.2,2.4-4c1-0.8,2-1.3,3.1-1.3c0.1,0,0.3,0,0.6,0v4.8c-2.3,0-3.8,0.7-4.5,2.2
			c-0.7,1.4-1.1,2.8-1.1,4.2V428.1z"/>
		<path d="M182.7,428.5c-2.9,0-5.1-1-6.7-3.1c-1.5-2.1-2.3-4.5-2.3-7.2c0-2.9,0.8-5.3,2.5-7.3c1.7-1.9,3.9-2.9,6.7-2.9
			c2.6,0,4.8,0.9,6.5,2.8c1.7,1.9,2.5,4.3,2.5,7.4c0,3.1-0.9,5.6-2.6,7.5C187.6,427.6,185.4,428.5,182.7,428.5z M182.8,424.9
			c3,0,4.5-2.2,4.5-6.7c0-2-0.4-3.6-1.1-4.8c-0.7-1.2-1.8-1.7-3.3-1.7c-1.5,0-2.7,0.6-3.4,1.8c-0.7,1.2-1.1,2.8-1.1,4.8
			c0,2.1,0.4,3.8,1.2,4.9C180.4,424.3,181.5,424.9,182.8,424.9z"/>
		<path d="M207.5,420.9l3.8,0.4c-0.5,2.5-1.5,4.3-2.9,5.5c-1.4,1.2-3.1,1.8-5.1,1.8c-2.7,0-4.8-1-6.3-3c-1.5-2-2.2-4.4-2.2-7.3
			c0-3,0.8-5.4,2.4-7.4c1.6-1.9,3.7-2.9,6.4-2.9c4.3,0,6.9,2.3,7.7,6.8l-3.8,0.5c-0.3-2.4-1.5-3.7-3.6-3.7c-1.5,0-2.6,0.7-3.3,2
			c-0.7,1.3-1,2.9-1,4.8c0,2,0.4,3.5,1.1,4.6c0.7,1.1,1.7,1.6,3,1.6C205.6,424.7,206.9,423.4,207.5,420.9z"/>
		<path d="M227.3,421.8l4,0.5c-0.5,1.8-1.5,3.3-3,4.4c-1.5,1.2-3.4,1.7-5.7,1.7c-2.7,0-4.9-0.9-6.6-2.8s-2.5-4.3-2.5-7.5
			c0-3,0.8-5.4,2.5-7.4s4-2.9,6.8-2.9c2.8,0,5,1,6.5,2.9c1.5,1.9,2.3,4.4,2.3,7.4l0,0.5h-13.5c0,1.3,0.1,2.4,0.4,3.2
			c0.3,0.8,0.8,1.5,1.5,2.1c0.8,0.6,1.7,0.9,2.8,0.9C225,425,226.5,424,227.3,421.8z M227,415.9c0-1.4-0.4-2.6-1.3-3.5
			s-1.9-1.3-3.1-1.3c-1.2,0-2.2,0.4-3.1,1.3s-1.3,2-1.4,3.6H227z"/>
		<path d="M233.3,423.6l4.2-0.8c0.6,1.6,2,2.4,4.2,2.4c2.8,0,4.1-0.8,4.1-2.4c0-0.5-0.2-1-0.6-1.3c-0.4-0.3-0.9-0.6-1.5-0.7
			l-3.6-0.7c-4-0.8-6-2.7-6-5.8c0-1.7,0.6-3.2,1.9-4.4c1.3-1.2,3.1-1.8,5.6-1.8c4.2,0,6.7,1.5,7.6,4.6l-4,0.8
			c-0.4-1.5-1.6-2.2-3.6-2.2c-2.4,0-3.6,0.7-3.6,2.2c0,1,1,1.7,2.9,2.1l4.2,0.9c3.3,0.7,4.9,2.6,4.9,5.7c0,2.2-0.8,3.8-2.5,4.9
			s-3.7,1.6-6,1.6c-2,0-3.8-0.4-5.4-1.2S233.8,425.3,233.3,423.6z"/>
		<path d="M251.5,423.6l4.2-0.8c0.6,1.6,2,2.4,4.2,2.4c2.8,0,4.1-0.8,4.1-2.4c0-0.5-0.2-1-0.6-1.3c-0.4-0.3-0.9-0.6-1.5-0.7
			l-3.6-0.7c-4-0.8-6-2.7-6-5.8c0-1.7,0.6-3.2,1.9-4.4c1.3-1.2,3.1-1.8,5.6-1.8c4.2,0,6.7,1.5,7.6,4.6l-4,0.8
			c-0.4-1.5-1.6-2.2-3.6-2.2c-2.4,0-3.6,0.7-3.6,2.2c0,1,1,1.7,2.9,2.1l4.2,0.9c3.3,0.7,4.9,2.6,4.9,5.7c0,2.2-0.8,3.8-2.5,4.9
			s-3.7,1.6-6,1.6c-2,0-3.8-0.4-5.4-1.2S252,425.3,251.5,423.6z"/>
	</g>
</g>
<g id="Artwork">
	<line class="st0" x1="118.6" y1="379.2" x2="118.6" y2="284.8"/>
	<line class="st0" x1="130.6" y1="272.7" x2="234.6" y2="272.4"/>
	<line class="st0" x1="142.3" y1="347.3" x2="234.6" y2="347.3"/>
	<line class="st0" x1="246.6" y1="284.4" x2="246.6" y2="335.3"/>
	<line class="st0" x1="118.6" y1="379.2" x2="142.3" y2="347.3"/>
	<path class="st0" d="M132.2,272.4"/>
	<path class="st0" d="M118.6,284.8"/>
	<path class="st0" d="M118.6,284.8c0-6.7,5.4-12,12-12"/>
	<path class="st0" d="M234.6,272.4c6.7,0,12,5.4,12,12"/>
	<path class="st0" d="M246.6,335.3c0,6.7-5.4,12-12,12"/>
	<path class="st1" d="M160.9,295.5"/>
	<path class="st1" d="M155.8,300.7"/>
	<path class="st1" d="M160.9,292.2h35.6c1.9,0,3.5,1.6,3.5,3.5v26.7c0,1.9-1.6,3.5-3.5,3.5h-35.6c-1.9,0-3.5-1.6-3.5-3.5v-26.7
		C157.4,293.8,159,292.2,160.9,292.2z"/>
	<path class="st1" d="M201.1,305.7c3.9-2.2,7.9-4.3,11.8-6.5c0,6.3,0,12.6,0,18.9c-4-2.2-7.9-4.4-11.9-6.6"/>
</g>
<g id="Outline">
	<polyline class="st2" points="72,464.4 72,504 288,504 288,464.4 	"/>
	<path class="st2" d="M37.8,468"/>
	<line class="st2" x1="288" y1="464.4" x2="315" y2="464.4"/>
	<line class="st2" x1="72" y1="464.4" x2="45" y2="464.4"/>
	<line class="st2" x1="315" y1="464.4" x2="315" y2="185.4"/>
	<line class="st2" x1="45" y1="464.4" x2="45" y2="185.4"/>
	<line class="st2" x1="53.2" y1="176.4" x2="306.8" y2="176.4"/>
	<path class="st2" d="M45,185.4c0-5,3.7-9,8.2-9"/>
	<path class="st2" d="M306.8,176.4c4.5,0,8.2,4,8.2,9"/>
</g>
</svg>
