<svg id="Layer_1" data-name="Layer 1" xmlns="http://www.w3.org/2000/svg" viewBox="0 0 325 217"><defs><style>.cls-1{fill:none;}.cls-1,.cls-6,.cls-7{stroke:#231f20;}.cls-1,.cls-6{stroke-miterlimit:10;}.cls-2{font-size:40px;font-family:FranklinGothic-Medium, Franklin Gothic Medium;font-weight:500;}.cls-2,.cls-5,.cls-6,.cls-7,.cls-8{fill:#231f20;}.cls-3{letter-spacing:0.02em;}.cls-4{letter-spacing:-0.01em;}.cls-5{stroke:#ed2024;}.cls-5,.cls-7{stroke-linecap:round;stroke-linejoin:round;stroke-width:0.71px;}.cls-6,.cls-8{fill-rule:evenodd;}</style></defs><path class="cls-1" d="M108,216A108,108,0,0,1,108,0" transform="translate(0.5 0.5)"/><polyline class="cls-1" points="108.5 216.5 324.5 216.5 324.5 0.5 108.5 0.5"/><text class="cls-2" transform="translate(27.86 66.04)">Vi<tspan class="cls-3" x="31.41" y="0">r</tspan><tspan x="45.47" y="0">tual Me</tspan><tspan class="cls-4" x="174.36" y="0">e</tspan><tspan x="195.1" y="0">ting</tspan></text><text class="cls-2" transform="translate(74.42 179.04)">In P<tspan class="cls-4" x="66.29" y="0">r</tspan><tspan x="79.32" y="0">ocess</tspan></text><circle class="cls-1" cx="306.5" cy="18.5" r="5.53"/><circle class="cls-1" cx="306.5" cy="198.5" r="5.53"/><g id="LWPOLYLINE"><polygon class="cls-5" points="81.93 76.33 113.09 76.33 111.46 88.5 98.13 114.3 84.49 116.86 102.58 84.3 77.12 84.3 81.93 76.33"/></g><g id="LWPOLYLINE-2" data-name="LWPOLYLINE"><polygon class="cls-5" points="84.49 116.86 78.02 116.86 71.79 129.63 72.7 129.64 74.93 129.61 76.81 129.54 78.37 129.46 80.43 129.3 82.58 129.08 84.99 128.77 87.68 128.35 90.63 127.78 93.38 127.15 96.28 126.4 99.09 125.55 101.65 124.64 104.69 123.38 107.8 121.86 110.56 120.29 113.51 118.38 115.24 117.11 117.7 115.01 119.54 113.16 120.75 111.79 121.93 110.34 123.06 108.8 123.94 107.39 124.73 105.97 125.28 104.82 125.97 103.26 126.48 101.94 126.99 100.31 127.38 98.69 127.59 97.54 127.82 95.9 127.93 93.98 127.9 92.39 127.75 90.63 127.54 89.28 127.26 88.04 126.87 86.77 126.49 85.74 126.05 84.74 125.57 83.84 124.96 82.86 124.36 82.04 123.65 81.19 122.7 80.23 121.95 79.58 121.2 79.02 119.96 78.24 119.18 77.83 118.16 77.38 117.1 76.99 116.23 76.74 114.9 76.48 114.02 76.37 113.09 76.33 111.46 88.5 111.89 88.46 112.33 88.43 112.84 88.43 113.48 88.46 113.93 88.51 114.55 88.61 115.07 88.73 115.56 88.88 116.1 89.07 116.53 89.3 116.93 89.57 117.33 89.93 117.66 90.31 117.87 90.61 118.04 90.91 118.21 91.27 118.35 91.79 118.44 92.3 118.5 92.94 118.51 93.47 118.47 94.06 118.38 94.67 118.2 95.44 117.98 96.26 117.62 97.44 117.22 98.62 116.95 99.34 116.61 100.16 116.25 101 115.83 101.89 115.35 102.81 114.89 103.65 114.45 104.39 113.94 105.16 113.43 105.88 112.8 106.68 112.09 107.5 111.34 108.28 110.64 108.96 109.92 109.59 108.83 110.44 107.7 111.22 106.47 111.95 105.51 112.44 104.19 113 103.17 113.36 101.87 113.74 100.84 113.97 100.06 114.1 99.31 114.2 98.61 114.27 98.13 114.3 84.49 116.86"/></g><g id="HATCH"><path class="cls-6" d="M84,116.36H77.52l-6.23,12.77c.91,0,3.14,0,3.14,0l1.88-.07,1.56-.08,2.06-.16,2.15-.22,2.41-.31,2.69-.42,2.95-.57,2.75-.63,2.9-.75,2.82-.85,2.55-.91,3-1.26,3.11-1.52,2.75-1.57,3-1.91,1.73-1.27,2.46-2.1,1.84-1.85,1.21-1.37,1.18-1.45,1.13-1.54.88-1.41.79-1.42.56-1.15.68-1.56.51-1.32.51-1.63.39-1.62.21-1.15.23-1.64.11-1.92,0-1.59-.15-1.76L127,88.78l-.28-1.24-.39-1.27-.38-1-.44-1c-.48-.9-1.09-1.88-1.09-1.88-.6-.82-1.31-1.67-1.31-1.67-1-1-1.7-1.61-1.7-1.61-.75-.57-2-1.34-2-1.34-.78-.4-1.8-.86-1.8-.86l-1.06-.39c-.87-.25-2.2-.51-2.2-.51-.88-.11-1.81-.15-1.81-.15L111,88c.87-.08,1.38-.08,1.38-.08.65,0,1.09.08,1.09.08.62.1,1.14.22,1.14.22.49.14,1,.34,1,.34a8.76,8.76,0,0,1,1.23.86,10.52,10.52,0,0,1,.88,1.34c.14.52.23,1,.23,1,.06.64.07,1.17.07,1.17,0,.58-.13,1.2-.13,1.2-.18.77-.4,1.59-.4,1.59l-.36,1.18-.4,1.18c-.27.72-.6,1.54-.6,1.54-.37.84-.79,1.73-.79,1.73-.48.92-.94,1.76-.94,1.76-.44.74-1,1.51-1,1.51-.51.72-1.14,1.52-1.14,1.52-.71.82-1.46,1.6-1.46,1.6-.7.68-1.42,1.31-1.42,1.31l-1.09.85-1.13.78-1.23.73c-1,.49-2.28,1-2.28,1l-1,.36-1.3.38-1,.23c-.77.13-1.53.23-1.53.23-.7.07-1.18.1-1.18.1L84,116.36ZM81.43,75.83h31.16L111,88,97.63,113.8,84,116.36,102.08,83.8H76.62l4.81-8Z" transform="translate(0.5 0.5)"/></g><g id="LWPOLYLINE-3" data-name="LWPOLYLINE"><polygon class="cls-7" points="139.13 99.8 139.94 99.8 139.97 99.8 139.99 99.81 140.02 99.82 140.04 99.85 140.05 99.87 140.06 99.9 140.06 99.91 140.05 99.93 140.05 99.95 139.45 101.08 138.77 102.31 138.11 103.43 137.54 104.38 136.96 105.29 136.44 106.09 135.97 106.79 135.48 107.58 134.65 108.97 134.05 109.98 133.4 111.07 132.85 112 132.29 112.93 132.17 113.15 131.96 113.55 131.52 114.38 131.3 114.8 131.18 115.11 131.11 115.4 131.08 115.66 131.07 115.88 131.09 116.26 131.14 116.54 131.24 116.87 131.41 117.18 131.55 117.36 131.74 117.56 131.96 117.72 132.22 117.86 132.46 117.96 132.72 118.02 132.98 118.05 133.26 118.04 133.62 117.96 133.89 117.85 134.12 117.72 134.44 117.53 134.86 117.24 135.29 116.91 135.7 116.55 135.98 116.25 136.25 115.88 137.65 113.89 138.94 111.85 140.64 109.06 141.82 107.12 142.6 105.84 143.9 103.7 144.79 102.3 145.38 101.41 145.57 101.1 145.63 101.04 145.72 100.97 145.81 100.92 145.96 100.87 146.07 100.86 146.29 100.87 146.54 100.88 147.25 100.89 147.96 100.89 148.65 100.87 149.36 100.85 150.13 100.8 150.98 100.74 151.85 100.66 152.66 100.58 153.56 100.5 154.26 100.43 154.84 100.37 155.23 100.32 155.38 100.3 155.42 100.31 155.44 100.32 155.45 100.34 155.46 100.36 155.46 100.38 155.44 100.42 155.18 100.89 154.86 101.47 154.53 102.07 154.18 102.7 153.81 103.36 153.29 104.27 152.84 105.06 152.41 105.82 151.99 106.56 151.58 107.27 151.08 108.12 150.56 109.01 150.19 109.65 149.77 110.35 149.21 111.29 148.69 112.14 148.18 113 147.88 113.53 147.5 114.21 147.22 114.75 146.99 115.19 146.74 115.69 146.66 115.96 146.63 116.24 146.63 116.5 146.66 116.67 146.72 116.98 146.83 117.29 146.96 117.56 147.13 117.84 147.33 118.09 147.53 118.28 147.79 118.49 148.03 118.63 148.3 118.76 148.58 118.86 148.9 118.93 149.22 118.97 149.51 118.97 149.85 118.89 150.17 118.77 150.52 118.57 150.78 118.35 151.14 118.02 151.46 117.69 151.8 117.29 152.09 116.92 152.55 116.2 152.89 115.6 154.7 112.54 155.97 110.39 156.99 108.65 158.2 106.6 159.24 104.83 160.32 102.99 160.89 102.03 161.25 101.42 161.35 101.28 161.43 101.2 161.52 101.13 161.64 101.07 161.74 101.03 161.84 101.01 161.94 101 162.07 101 162.28 101 162.91 100.99 163.54 100.97 164.5 100.92 165.32 100.86 166.1 100.78 166.81 100.7 167.39 100.63 167.9 100.57 168.47 100.5 168.94 100.45 169.56 100.38 169.94 100.33 170.22 100.3 170.3 100.29 170.36 100.3 170.39 100.31 170.42 100.34 170.44 100.37 170.45 100.4 170.45 100.45 170.44 100.48 170.42 100.51 170.39 100.57 170.18 100.95 169.81 101.61 169.43 102.31 169.11 102.88 168.81 103.42 168.28 104.38 167.49 105.81 166.85 106.97 165.85 108.77 164.99 110.34 164.2 111.73 163.41 113.08 162.8 114.11 162.22 115.06 161.45 116.29 161.03 116.94 160.57 117.57 159.94 118.3 159.63 118.68 159.08 119.31 158.44 120.02 157.75 120.71 157.03 121.33 156.24 121.88 155.57 122.26 154.88 122.61 154.09 122.96 153.25 123.3 152.42 123.59 151.69 123.83 150.65 124.12 149.88 124.29 148.94 124.44 148.11 124.52 147.43 124.55 146.5 124.55 145.63 124.53 144.86 124.48 143.96 124.39 143.14 124.21 142.54 124.01 142.13 123.84 141.58 123.47 141.1 123.06 140.66 122.63 140.26 122.15 140.05 121.92 139.84 121.72 139.6 121.51 139.3 121.29 139.07 121.14 138.84 121.04 138.65 120.99 138.41 120.97 138.16 120.99 137.87 121.06 137.49 121.19 137.02 121.42 136.72 121.61 136.43 121.81 136.06 122.02 135.7 122.22 135.37 122.38 134.81 122.64 134.24 122.87 133.69 123.06 133.06 123.25 132.38 123.42 131.82 123.53 131.25 123.59 130.57 123.65 130.12 123.67 129.63 123.68 128.95 123.68 128.34 123.66 127.68 123.61 127.09 123.52 126.49 123.39 125.96 123.24 125.33 123 124.84 122.77 124.22 122.39 123.82 122.1 123.46 121.8 123.1 121.44 122.83 121.04 122.62 120.65 122.44 120.25 122.28 119.78 122.17 119.29 122.12 118.84 122.1 118.53 122.12 118.02 122.19 117.39 122.28 116.84 122.45 116.21 122.64 115.63 122.82 115.2 123.14 114.54 123.46 113.94 123.84 113.25 124.19 112.67 124.55 112.11 124.91 111.58 125.9 110.14 126.92 108.59 127.7 107.35 128.56 105.95 129.34 104.61 129.82 103.76 130.21 103.05 130.39 102.73 130.47 102.55 130.53 102.38 130.58 102.21 130.62 102.02 130.63 101.83 130.63 101.59 130.62 101.36 130.6 101.12 130.59 101.02 130.59 101 130.85 100.55 130.88 100.51 130.93 100.48 130.97 100.46 131.03 100.45 132.04 100.43 132.96 100.41 133.68 100.4 134.41 100.39 134.9 100.39 135.13 100.38 135.64 100.32 136.38 100.24 137.07 100.14 137.94 100.01 138.58 99.9 139.13 99.8"/></g><g id="HATCH-2" data-name="HATCH"><path class="cls-6" d="M138.63,99.29c.92.16.32,1.29.32,1.29l-.68,1.23-.66,1.12c-.57.95-1.15,1.86-1.15,1.86-.52.8-1,1.5-1,1.5l-1.31,2.18-.6,1-.65,1.09-1.11,1.86-.77,1.45a7.08,7.08,0,0,0-.41,1,6.94,6.94,0,0,0,0,1.14,5,5,0,0,0,.6,1,5.55,5.55,0,0,0,1.24.49,5.07,5.07,0,0,0,1.14-.33c.74-.48,1.17-.81,1.17-.81a9,9,0,0,0,1-1l1.4-2,1.28-2,1.71-2.79,1.18-1.94.78-1.28,1.29-2.14.9-1.4c.59-.89.78-1.2.78-1.2a7.9,7.9,0,0,1,1.68-.21l1.4,0c.71,0,1.48-.07,1.48-.07l1.72-.14,1.7-.16,1.29-.13a1.14,1.14,0,0,1,0,1.1l-.68,1.23-.89,1.57-.88,1.55-.83,1.45-1,1.74c-.37.64-.79,1.34-.79,1.34-.56.94-1.08,1.79-1.08,1.79-.51.86-.81,1.39-.81,1.39-.38.68-.66,1.22-.66,1.22a10.41,10.41,0,0,0-.56,1.21,6.1,6.1,0,0,0,.06,1,6.67,6.67,0,0,0,.61,1.11,7.46,7.46,0,0,0,1.25.77,4.83,4.83,0,0,0,1.27,0,8.2,8.2,0,0,0,1.29-.87c.66-.73,1-1.1,1-1.1.46-.72.8-1.32.8-1.32L154.2,112l1.27-2.15,1-1.74,1.21-2.05,1-1.77,1.08-1.84.93-1.57a3.24,3.24,0,0,1,1-.42l1.26,0,1.78-.11,1.49-.16,1.09-.13,1-.12,1-.12a1.68,1.68,0,0,1-.13,1.28l-.7,1.27-.83,1.5-.79,1.43-.64,1.16-1,1.8-.87,1.57-.78,1.39-.79,1.35-.61,1L161,115.79c-.41.65-.88,1.28-.88,1.28-.63.73-.94,1.11-.94,1.11-.55.64-1.19,1.34-1.19,1.34-.69.69-1.4,1.31-1.4,1.31-.8.55-1.47.93-1.47.93-.69.35-1.48.7-1.48.7-.84.34-1.67.63-1.67.63-.73.24-1.77.53-1.77.53-.77.17-1.71.32-1.71.32-.83.08-1.51.11-1.51.11-.93,0-1.8,0-1.8,0-.77,0-1.67-.14-1.67-.14-.82-.18-1.42-.38-1.42-.38a9.85,9.85,0,0,1-1.44-1l-1-1.14a8.34,8.34,0,0,0-1.21-.88,5.07,5.07,0,0,0-1.35.15c-.77.42-1.06.62-1.06.62-.73.41-1.07.57-1.07.57-.55.26-1.12.49-1.12.49-.55.19-1.18.38-1.18.38-.68.17-1.24.28-1.24.28l-1.25.12c-.93,0-1.62,0-1.62,0-.61,0-1.27-.07-1.27-.07-.59-.09-1.19-.22-1.19-.22-.53-.15-1.16-.39-1.16-.39-.49-.23-1.11-.61-1.11-.61a13.11,13.11,0,0,1-1.12-1,12.51,12.51,0,0,1-.66-1.19,10.07,10.07,0,0,1-.32-1.41c0-.82.07-1.45.07-1.45.09-.55.26-1.18.26-1.18.19-.58.37-1,.37-1,.32-.66.64-1.26.64-1.26.38-.69.73-1.27.73-1.27.35-.56.72-1.09.72-1.09l1-1.44,1-1.55.78-1.24.86-1.4.78-1.34c.48-.85.87-1.56.87-1.56a6.13,6.13,0,0,0,.4-1c0-.9,0-1,0-1a2.14,2.14,0,0,1,1.45-.59l1.63,0h1.23l1.48-.15,1.56-.23,1.19-.22Z" transform="translate(0.5 0.5)"/></g><g id="LWPOLYLINE-4" data-name="LWPOLYLINE"><polygon class="cls-7" points="176.09 100.05 183.41 99.73 182.95 100.63 181.95 102.57 180.95 104.49 179.93 106.47 179.03 108.21 178.16 109.88 177.7 110.78 177.49 111.24 177.22 111.9 176.97 112.62 176.77 113.32 176.59 114.18 176.47 114.92 176.38 115.69 176.37 115.96 176.37 116.17 176.4 116.48 176.45 116.72 176.55 117.03 176.68 117.33 176.84 117.61 177.02 117.84 177.22 118.02 177.44 118.17 177.73 118.31 177.94 118.38 178.15 118.42 178.4 118.44 178.74 118.42 179.11 118.35 179.65 118.22 180.09 118.08 180.65 117.86 181.18 117.6 181.56 117.38 181.99 117.09 182.6 116.62 183.26 116.11 183.83 115.61 184.37 115.09 184.84 114.59 185.36 113.97 185.84 113.32 186.36 112.53 187.47 110.88 188.52 109.3 189.56 107.69 190.49 106.27 191.34 104.94 192.58 103.03 193.55 101.54 194.36 100.3 194.77 99.66 202.68 99.66 190.64 121.37 190.15 122.26 189.43 123.57 188.74 124.79 188.19 125.71 187.58 126.69 186.84 127.84 186.12 128.9 185.43 129.87 184.72 130.83 183.85 131.95 183.14 132.81 182.42 133.63 181.49 134.64 181.15 134.98 180.87 135.27 180.13 136 179.53 136.55 178.93 137.09 178.31 137.63 177.54 138.28 176.65 139 176.04 139.44 175.23 139.99 174.17 140.64 173.24 141.14 172 141.72 171.05 142.12 170.16 142.45 169.39 142.7 168.37 142.97 167.52 143.15 166.61 143.29 165.9 143.37 165.11 143.44 164.38 143.47 163.54 143.46 162.72 143.41 162 143.34 161.24 143.23 160.45 143.08 159.86 142.94 159.15 142.75 158.37 142.5 157.6 142.22 157.05 141.99 156.52 141.74 156.07 141.52 155.87 141.41 163.12 131.03 163.45 131.25 163.91 131.54 164.39 131.82 164.96 132.13 165.38 132.34 165.77 132.52 166.2 132.71 166.61 132.88 167.18 133.08 167.74 133.23 168.23 133.33 168.69 133.4 169.33 133.46 169.94 133.47 170.45 133.46 170.96 133.41 171.46 133.32 172.02 133.18 172.58 133 173.09 132.79 173.53 132.59 173.96 132.37 174.32 132.15 174.71 131.88 175.05 131.62 175.38 131.35 175.72 131.03 176.15 130.6 176.6 130.08 177.01 129.54 177.36 129 177.76 128.4 178.19 127.69 178.59 126.98 178.88 126.41 179.25 125.62 179.55 124.86 179.84 123.99 180.03 123.32 180.13 122.91 179.69 123.02 178.99 123.18 177.91 123.39 177.15 123.55 176.27 123.72 175.47 123.84 174.42 123.94 173.58 124 172.61 124.05 171.86 124.04 171.34 124.01 170.71 123.95 170.06 123.88 169.17 123.69 168.66 123.52 168.12 123.29 167.73 123.08 167.21 122.7 167.07 122.58 166.83 122.32 166.52 121.9 166.36 121.64 166.19 121.27 166.1 120.98 166 120.58 165.94 120.17 165.9 119.81 165.88 119.32 165.91 118.8 165.95 118.45 166.06 117.83 166.18 117.26 166.37 116.47 166.52 115.98 166.7 115.41 166.93 114.8 167.17 114.21 167.41 113.67 167.68 113.08 167.97 112.47 168.31 111.78 168.6 111.22 168.93 110.59 169.24 110.03 169.79 109.06 170.17 108.42 170.6 107.72 171.23 106.75 171.77 105.94 172.29 105.16 172.89 104.31 173.52 103.43 173.86 102.96 174.56 102.02 175.12 101.28 175.71 100.53 176.09 100.05"/></g><g id="HATCH-3" data-name="HATCH"><path class="cls-6" d="M175.59,99.55l7.32-.31-1.46,2.83-1,1.92-1,2-.9,1.74-.87,1.67c-.46.9-.67,1.36-.67,1.36-.27.66-.52,1.38-.52,1.38-.2.7-.38,1.56-.38,1.56-.12.74-.21,1.51-.21,1.51a7.1,7.1,0,0,0,.07,1,6.26,6.26,0,0,0,.57,1.12,5.65,5.65,0,0,0,1.12.58,10.31,10.31,0,0,0,1.51-.2c.44-.14,1-.36,1-.36.91-.48,1.34-.77,1.34-.77l1.27-1c.57-.5,1.11-1,1.11-1,.47-.5,1-1.12,1-1.12.48-.65,1-1.44,1-1.44l1.12-1.65,1-1.58,1-1.61.93-1.42.85-1.33,1.24-1.91,1-1.49.81-1.24c.41-.64,8.32-.64,8.32-.64l-12,21.71-1.21,2.2-.69,1.22c-.55.92-1.16,1.9-1.16,1.9l-.74,1.15-.72,1.06c-.69,1-1.4,1.93-1.4,1.93l-.87,1.12c-.71.86-1.43,1.68-1.43,1.68l-.93,1c-.62.63-1.37,1.36-1.37,1.36l-1.19,1.09L177,137.78c-.89.71-1.5,1.17-1.5,1.17-.81.54-1.87,1.19-1.87,1.19-.94.5-2.16,1.08-2.16,1.08-1,.4-1.85.73-1.85.73-.77.25-1.79.52-1.79.52-.85.18-1.76.32-1.76.32l-1.5.15c-.73,0-1.57,0-1.57,0-.82-.05-1.54-.12-1.54-.12-.77-.11-1.55-.26-1.55-.26-.59-.13-1.31-.33-1.31-.33-.77-.25-1.53-.53-1.53-.53l-1.09-.48c-.65-.33,6.6-10.71,6.6-10.71.79.51,1.27.79,1.27.79,1,.52,1.38.7,1.38.7.84.36,1.41.56,1.41.56.56.15,1,.25,1,.25.46.07,1.1.13,1.1.13.61,0,1.12,0,1.12,0,.51,0,1-.13,1-.13.56-.14,1.12-.32,1.12-.32.95-.41,1.38-.63,1.38-.63.75-.49,1.09-.75,1.09-.75.67-.59,1.1-1,1.1-1,.45-.52.86-1.06.86-1.06l.75-1.14c.43-.71.83-1.42.83-1.42.29-.57.66-1.36.66-1.36.3-.76.59-1.63.59-1.63.19-.67.29-1.08.29-1.08l-1.14.27-1.08.21-1.64.33c-.8.12-1.85.22-1.85.22l-1.81.11c-.75,0-1.27,0-1.27,0l-1.28-.13a14.4,14.4,0,0,1-1.4-.36,9.75,9.75,0,0,1-1.45-.82,10.76,10.76,0,0,1-.85-1.06,9.54,9.54,0,0,1-.36-1.06c-.1-.78-.12-1.26-.12-1.26.07-.87.18-1.48.18-1.48.12-.58.31-1.37.31-1.37l.33-1.06c.23-.61.47-1.2.47-1.2l.51-1.13c.29-.61.63-1.3.63-1.3l.62-1.19.86-1.53c.38-.64.81-1.34.81-1.34.63-1,1.17-1.78,1.17-1.78.52-.78,1.12-1.63,1.12-1.63l1-1.35,1.26-1.68c.58-.75,1-1.23,1-1.23Z" transform="translate(0.5 0.5)"/></g><g id="LWPOLYLINE-5" data-name="LWPOLYLINE"><polygon class="cls-7" points="214.97 99.6 215.33 99.54 215.83 99.47 216.33 99.42 216.87 99.38 217.4 99.37 217.91 99.39 218.45 99.43 219.15 99.52 219.78 99.62 220.35 99.73 220.99 99.88 221.7 100.07 222.2 100.23 222.67 100.41 223.09 100.59 223.44 100.76 223.85 100.99 224.23 101.21 224.68 101.51 225.09 101.81 225.38 102.07 225.61 102.29 225.87 102.58 226.04 102.82 226.25 103.13 226.44 103.47 226.61 103.81 226.75 104.14 226.85 104.44 226.93 104.77 227.01 105.22 227.04 105.67 227.03 106.27 226.99 106.86 226.91 107.33 226.81 107.76 226.64 108.3 226.51 108.64 226.39 108.9 226.23 109.2 226 109.59 225.72 109.99 225.48 110.33 225.16 110.75 224.84 111.13 224.57 111.41 224.31 111.67 223.98 111.97 223.54 112.33 223.06 112.68 222.68 112.93 222.11 113.26 221.66 113.51 221.16 113.76 220.82 113.93 220.34 114.14 220.01 114.27 219.63 114.41 218.89 114.65 218.31 114.8 217.52 115 217.12 115.09 216.5 115.19 216.2 115.2 215.77 115.2 214.91 115.17 214.04 115.1 213.38 115.03 212.46 114.89 212.13 114.83 211.38 114.68 210.75 114.53 210.51 114.47 210.35 114.43 210.17 114.4 211.68 109.32 211.88 109.37 212.08 109.42 212.27 109.45 212.51 109.49 212.8 109.52 213.09 109.54 213.4 109.54 213.69 109.53 213.99 109.5 214.28 109.45 214.61 109.39 214.96 109.29 215.34 109.18 215.7 109.05 216.07 108.89 216.44 108.71 216.74 108.55 217.11 108.32 217.45 108.09 217.72 107.89 217.91 107.72 218.15 107.52 218.34 107.33 218.47 107.18 218.61 106.99 218.73 106.78 218.83 106.55 218.91 106.32 218.95 106.06 218.94 105.82 218.91 105.62 218.85 105.43 218.78 105.28 218.7 105.14 218.59 105.01 218.47 104.88 218.33 104.77 218.19 104.67 218.02 104.57 217.87 104.5 217.66 104.43 217.49 104.38 217.28 104.35 217.07 104.34 216.79 104.36 216.57 104.39 216.25 104.44 215.93 104.5 215.67 104.57 214.97 99.6"/></g><g id="LWPOLYLINE-6" data-name="LWPOLYLINE"><polygon class="cls-7" points="214.97 99.6 214.53 99.67 213.96 99.8 213.62 99.88 212.98 100.05 212.44 100.22 211.92 100.4 211.43 100.58 211.08 100.71 210.57 100.9 210.14 101.07 209.67 101.27 209.3 101.44 208.89 101.63 208.53 101.81 208.26 101.95 208.02 102.07 207.61 102.3 207.22 102.53 206.85 102.75 206.37 103.05 205.96 103.33 205.53 103.63 205.14 103.92 204.74 104.22 204.39 104.5 204.1 104.74 203.78 105.02 203.46 105.31 203.12 105.66 202.75 106.05 202.41 106.43 202.15 106.75 201.86 107.14 201.67 107.38 201.46 107.7 201.24 108.03 200.96 108.48 200.72 108.89 200.51 109.28 200.35 109.62 200.15 110.07 199.99 110.48 199.91 110.69 199.8 111.01 199.68 111.41 199.57 111.81 199.48 112.19 199.4 112.64 199.31 113.22 199.28 113.47 199.22 113.97 199.19 114.51 199.17 115.08 199.17 115.38 199.18 115.77 199.21 116.32 199.24 116.64 199.29 117.19 199.33 117.57 199.39 117.94 199.47 118.34 199.58 118.78 199.71 119.19 199.87 119.6 200.06 119.92 200.26 120.23 200.49 120.55 200.72 120.83 201.1 121.24 201.58 121.68 201.95 121.96 202.55 122.37 202.9 122.59 203.3 122.82 203.65 123 204.28 123.31 204.95 123.58 205.44 123.75 206.05 123.94 206.52 124.06 207.2 124.2 207.43 124.24 208.05 124.34 208.69 124.42 209.43 124.47 210.12 124.48 210.76 124.47 211.6 124.4 212.15 124.34 212.71 124.25 213.13 124.17 213.79 124.05 214.38 123.9 214.87 123.75 215.49 123.53 216.02 123.3 216.45 123.09 216.79 122.91 217.08 122.75 217.44 122.53 217.75 122.31 218.13 122.03 218.54 121.69 218.8 121.45 219.06 121.19 219.35 120.84 219.59 120.48 219.83 120.08 219.98 119.78 220.13 119.44 220.24 119.12 220.3 118.85 220.32 118.65 220.34 118.44 220.34 118.29 220.32 118.16 220.28 118.05 220.25 117.98 220.2 117.92 220.16 117.87 220.13 117.85 220.12 117.83 219.86 117.95 219.49 118.12 219.17 118.25 218.87 118.37 218.59 118.47 218.31 118.57 217.94 118.68 217.48 118.81 216.93 118.93 216.51 119.01 216.1 119.08 215.6 119.14 215.16 119.17 214.78 119.2 214.35 119.2 213.89 119.19 213.46 119.15 213.16 119.11 212.74 119.03 212.42 118.96 212.03 118.85 211.72 118.75 211.42 118.64 211.07 118.48 210.67 118.28 210.36 118.1 210.05 117.9 209.67 117.64 209.4 117.42 209.19 117.24 208.96 117.04 208.79 116.85 208.68 116.71 208.57 116.55 208.48 116.37 208.41 116.22 208.38 116.14 208.32 115.94 208.28 115.78 208.27 115.66 208.27 115.49 208.29 115.38 208.33 115.24 208.37 115.14 208.42 115.03 208.5 114.91 208.57 114.82 208.67 114.73 208.77 114.65 208.89 114.59 209.09 114.52 209.24 114.47 209.37 114.44 209.53 114.41 209.73 114.39 209.88 114.38 210.01 114.39 210.12 114.4 210.17 114.4 211.68 109.32 211.59 109.29 211.46 109.22 211.36 109.16 211.27 109.1 211.19 109.02 211.11 108.93 211.06 108.83 211.02 108.75 210.99 108.65 210.97 108.58 210.97 108.51 210.96 108.45 210.97 108.4 210.97 108.34 210.98 108.28 211 108.22 211.02 108.15 211.05 108.07 211.07 108.01 211.1 107.93 211.15 107.83 211.2 107.75 211.23 107.69 211.29 107.6 211.34 107.53 211.43 107.42 211.63 107.19 211.83 106.96 212.08 106.71 212.38 106.43 212.67 106.18 213.04 105.89 213.34 105.68 213.74 105.43 214 105.28 214.32 105.11 214.65 104.94 215.04 104.78 215.39 104.65 215.61 104.59 215.67 104.57 214.97 99.6"/></g><g id="HATCH-4" data-name="HATCH"><path class="cls-6" d="M214.47,99.1c.86-.13,1.36-.18,1.36-.18.54,0,1.07,0,1.07,0l1,.06c.7.09,1.33.19,1.33.19.57.11,1.21.26,1.21.26.71.19,1.21.35,1.21.35.89.36,1.24.53,1.24.53.79.45,1.24.75,1.24.75a12.17,12.17,0,0,1,1.18,1.07c.58.89.75,1.22.75,1.22a11.8,11.8,0,0,1,.4,1.42c0,.45,0,1,0,1,0,.59-.12,1.06-.12,1.06-.27,1-.4,1.31-.4,1.31a15.1,15.1,0,0,1-.79,1.35c-.56.76-.88,1.14-.88,1.14-.86.84-1.3,1.2-1.3,1.2-.86.6-1.43.93-1.43.93l-1.29.67c-.81.34-1.19.48-1.19.48-.74.24-1.32.39-1.32.39l-1.2.29a12.67,12.67,0,0,1-1.34.11c-.86,0-1.73-.1-1.73-.1-.66-.07-1.58-.21-1.58-.21l-1.08-.21-1-.25a51.17,51.17,0,0,1,1.33-5.11c.83.17,1.12.2,1.12.2.89,0,1.18,0,1.18,0,1-.21,1.36-.32,1.36-.32.73-.29,1.1-.47,1.1-.47.67-.39,1-.62,1-.62.89-.76,1-.91,1-.91a5.73,5.73,0,0,0,.48-1.12,3.92,3.92,0,0,0-.36-1,7.58,7.58,0,0,0-1.1-.63,10.32,10.32,0,0,0-1.24.06c-.58.13-1.28-4.84-1.28-4.84Z" transform="translate(0.5 0.5)"/></g><g id="HATCH-5" data-name="HATCH"><path class="cls-6" d="M214.47,99.1c-.44.07-1,.2-1,.2-1,.25-1.52.42-1.52.42l-1,.36-1.29.49-1.25.56c-.87.44-1.28.67-1.28.67l-1.24.75c-.84.58-1.23.87-1.23.87-.75.58-1,.82-1,.82-1,.92-1.35,1.3-1.35,1.3-.6.71-.89,1.1-.89,1.1-.62.89-.9,1.34-.9,1.34-.45.8-.61,1.14-.61,1.14-.36.86-.44,1.07-.44,1.07-.23.72-.34,1.12-.34,1.12-.17.84-.26,1.41-.26,1.41-.09.75-.12,1.29-.12,1.29,0,.87,0,1.25,0,1.25.06.88.11,1.43.11,1.43.1.75.18,1.15.18,1.15.24.85.4,1.26.4,1.26.62,1,.85,1.23.85,1.23a14.89,14.89,0,0,0,1.23,1.13c1,.63,1.35.86,1.35.86,1,.49,1.65.76,1.65.76l1.1.36c.47.12,1.15.26,1.15.26.85.14,1.49.22,1.49.22.74,0,1.43.06,1.43.06.64,0,1.48-.08,1.48-.08.55-.06,1.11-.15,1.11-.15l1.08-.2c.59-.15,1.08-.3,1.08-.3.62-.22,1.15-.45,1.15-.45l1.06-.55c.67-.43,1-.72,1-.72a14,14,0,0,0,1.22-1.19c.48-.76.63-1.06.63-1.06a9.36,9.36,0,0,0,.35-1.13c-.84-.53-1.16-.4-1.16-.4-.86.32-1.23.43-1.23.43l-1,.25c-.83.15-1.33.21-1.33.21-.82.06-1.25.06-1.25.06-.89,0-1.19-.09-1.19-.09-.74-.15-1.13-.26-1.13-.26-1-.37-1.36-.57-1.36-.57-.62-.38-1-.64-1-.64a12.54,12.54,0,0,1-1.1-1.09,5.19,5.19,0,0,1-.3-1.06c.82-1,1-1,1-1,.93-.07,2.44-5.15,2.44-5.15a6,6,0,0,1-.7-1,6.7,6.7,0,0,1,.65-1.09c.75-.76,1-1,1-1,.67-.5,1.07-.75,1.07-.75.91-.49,1.3-.65,1.3-.65.63-.21-.07-5.18-.07-5.18Z" transform="translate(0.5 0.5)"/></g><g id="LWPOLYLINE-7" data-name="LWPOLYLINE"><polygon class="cls-7" points="222.53 124.26 236.44 100.07 243.42 100.07 243.22 101.23 243.61 101.08 244.16 100.89 244.68 100.73 245.26 100.57 245.7 100.47 246.22 100.37 246.61 100.3 247.04 100.24 247.37 100.2 247.79 100.17 248.16 100.14 248.55 100.11 248.89 100.1 249.32 100.1 249.63 100.1 249.97 100.12 250.16 100.13 250.57 100.16 250.94 100.19 251.28 100.24 251.66 100.29 251.96 100.34 252.21 100.39 252.55 100.46 252.84 100.53 253.07 100.59 253.21 100.62 248.09 107.78 247.89 107.71 247.64 107.63 247.28 107.53 246.92 107.44 246.61 107.38 246.28 107.33 245.88 107.27 245.54 107.25 245.12 107.22 244.77 107.22 244.44 107.23 244.12 107.25 243.8 107.28 243.47 107.32 243.12 107.38 242.79 107.45 242.45 107.52 242.2 107.59 242 107.65 241.67 107.78 241.42 107.9 241.13 108.06 240.92 108.18 240.7 108.33 240.49 108.5 240.27 108.69 240.11 108.84 239.96 109.01 239.79 109.2 239.65 109.38 239.49 109.62 239.3 109.93 238.98 110.45 236.77 114.04 235.28 116.48 234.01 118.57 232.77 120.56 231.37 122.81 230.47 124.26 222.53 124.26"/></g><g id="HATCH-6" data-name="HATCH"><path class="cls-6" d="M222,123.76l13.91-24.19h7l-.2,1.16c.94-.34,1.46-.5,1.46-.5.58-.16,1-.26,1-.26.91-.17,1.34-.23,1.34-.23l1.12-.1c.73,0,1.16,0,1.16,0,.84,0,1.25.06,1.25.06l1.09.13c.89.17,1.18.24,1.18.24.37.09-4.75,7.25-4.75,7.25-.81-.25-1.17-.34-1.17-.34l-1-.17c-.75,0-1.1,0-1.1,0-1,.06-1.3.1-1.3.1l-1,.2a10.57,10.57,0,0,0-1,.38,13.1,13.1,0,0,0-1.15.79,13.32,13.32,0,0,0-1,1.24l-2.53,4.11L234.78,116l-1.27,2.08-1.24,2-1.4,2.25-.9,1.45Z" transform="translate(0.5 0.5)"/></g><g id="LWPOLYLINE-8" data-name="LWPOLYLINE"><polygon class="cls-7" points="245.04 116.44 245.04 117.42 244.89 117.42 244.66 117.44 244.41 117.46 244.18 117.49 243.96 117.54 243.69 117.6 243.5 117.66 243.27 117.74 243.06 117.82 242.89 117.89 242.68 117.99 242.5 118.09 242.32 118.19 242.13 118.32 241.96 118.44 241.77 118.59 241.6 118.73 241.44 118.88 241.23 119.1 241.1 119.23 241.01 119.34 240.88 119.52 240.72 119.74 240.58 119.96 240.46 120.18 240.35 120.4 240.24 120.64 240.16 120.85 240.08 121.09 240.01 121.36 239.95 121.64 239.9 121.92 239.88 122.07 239.87 122.3 239.86 122.51 239.86 122.73 239.87 123.02 239.9 123.28 239.92 123.43 239.95 123.59 239.99 123.79 240.06 124.04 240.1 124.2 240.17 124.39 240.23 124.55 240.32 124.76 240.44 125 240.53 125.17 240.65 125.38 240.78 125.56 240.91 125.75 241.06 125.93 241.2 126.09 241.31 126.22 241.47 126.37 241.63 126.52 241.81 126.67 242.05 126.85 242.3 127.02 242.44 127.1 242.64 127.21 242.75 127.27 242.99 127.38 243.27 127.49 243.5 127.57 243.73 127.63 243.96 127.69 244.18 127.73 244.37 127.76 244.59 127.78 244.72 127.79 244.84 127.8 245.04 127.8 245.04 128.78 244.94 128.78 244.8 128.78 244.67 128.77 244.5 128.76 244.3 128.74 244.09 128.71 243.86 128.67 243.62 128.62 243.43 128.57 243.19 128.5 242.95 128.42 242.73 128.34 242.48 128.23 242.3 128.14 242.12 128.05 241.91 127.93 241.75 127.83 241.55 127.7 241.36 127.56 241.16 127.41 240.99 127.27 240.81 127.1 240.64 126.94 240.47 126.76 240.3 126.56 240.15 126.37 240.02 126.2 239.85 125.94 239.71 125.72 239.6 125.52 239.48 125.28 239.34 124.98 239.24 124.72 239.15 124.45 239.06 124.12 239 123.86 238.95 123.56 238.91 123.34 238.89 123.04 238.88 122.78 238.87 122.52 238.88 122.25 238.91 121.94 238.95 121.63 238.99 121.39 239.05 121.12 239.13 120.86 239.19 120.67 239.27 120.42 239.38 120.16 239.53 119.84 239.68 119.57 239.83 119.31 239.94 119.14 240.09 118.93 240.26 118.71 240.47 118.47 240.66 118.27 240.83 118.1 241 117.95 241.15 117.83 241.31 117.69 241.54 117.53 241.73 117.4 241.95 117.27 242.12 117.17 242.32 117.07 242.52 116.98 242.71 116.9 242.94 116.81 243.11 116.75 243.36 116.67 243.53 116.63 243.74 116.58 244.02 116.53 244.25 116.49 244.43 116.47 244.65 116.45 244.85 116.44 244.99 116.44 245.04 116.44"/></g><g id="LWPOLYLINE-9" data-name="LWPOLYLINE"><polygon class="cls-7" points="245.04 116.44 245.04 117.42 245.2 117.42 245.43 117.44 245.69 117.46 245.91 117.49 246.13 117.54 246.4 117.6 246.59 117.66 246.82 117.74 247.03 117.82 247.2 117.89 247.41 117.99 247.59 118.09 247.77 118.19 247.96 118.32 248.13 118.44 248.32 118.59 248.49 118.73 248.65 118.88 248.87 119.1 248.99 119.23 249.08 119.34 249.21 119.52 249.37 119.74 249.51 119.96 249.63 120.18 249.74 120.4 249.85 120.64 249.93 120.85 250.01 121.09 250.08 121.36 250.14 121.64 250.19 121.92 250.21 122.07 250.22 122.3 250.23 122.51 250.23 122.73 250.22 123.02 250.19 123.28 250.17 123.43 250.14 123.59 250.1 123.79 250.03 124.04 249.99 124.2 249.92 124.39 249.86 124.55 249.77 124.76 249.65 125 249.56 125.17 249.44 125.38 249.31 125.56 249.18 125.75 249.04 125.93 248.9 126.09 248.78 126.22 248.62 126.37 248.46 126.52 248.28 126.67 248.04 126.85 247.79 127.02 247.66 127.1 247.45 127.21 247.34 127.27 247.1 127.38 246.82 127.49 246.59 127.57 246.36 127.63 246.13 127.69 245.91 127.73 245.72 127.76 245.5 127.78 245.37 127.79 245.25 127.8 245.04 127.8 245.04 128.78 245.15 128.78 245.29 128.78 245.43 128.77 245.6 128.76 245.79 128.74 246 128.71 246.23 128.67 246.47 128.62 246.66 128.57 246.91 128.5 247.14 128.42 247.36 128.34 247.61 128.23 247.79 128.14 247.97 128.05 248.18 127.93 248.34 127.83 248.54 127.7 248.73 127.56 248.93 127.41 249.1 127.27 249.28 127.1 249.45 126.94 249.62 126.76 249.79 126.56 249.94 126.37 250.07 126.2 250.24 125.94 250.38 125.72 250.49 125.52 250.61 125.28 250.75 124.98 250.85 124.72 250.94 124.45 251.03 124.12 251.09 123.86 251.15 123.56 251.18 123.34 251.2 123.04 251.22 122.78 251.22 122.52 251.21 122.25 251.18 121.94 251.14 121.63 251.1 121.39 251.04 121.12 250.96 120.86 250.91 120.67 250.82 120.42 250.71 120.16 250.56 119.84 250.41 119.57 250.26 119.31 250.15 119.14 250 118.93 249.83 118.71 249.62 118.47 249.43 118.27 249.26 118.1 249.09 117.95 248.95 117.83 248.78 117.69 248.55 117.53 248.36 117.4 248.14 117.27 247.97 117.17 247.77 117.07 247.57 116.98 247.38 116.9 247.15 116.81 246.98 116.75 246.73 116.67 246.56 116.63 246.35 116.58 246.07 116.53 245.84 116.49 245.66 116.47 245.44 116.45 245.24 116.44 245.1 116.44 245.04 116.44"/></g><g id="LWPOLYLINE-10" data-name="LWPOLYLINE"><polygon class="cls-7" points="245.33 119.43 244.93 120.22 243.31 120.22 243.31 122.26 243.41 122.27 243.54 122.29 243.69 122.31 243.84 122.32 243.97 122.33 244.17 122.34 244.33 122.34 244.47 122.34 244.22 123.18 243.31 123.18 243.31 125.96 242.41 125.96 242.41 119.43 245.33 119.43"/></g><g id="LWPOLYLINE-11" data-name="LWPOLYLINE"><polygon class="cls-7" points="245.33 119.43 245.41 119.43 245.47 119.44 245.54 119.44 245.64 119.45 245.74 119.47 245.81 119.48 245.91 119.5 246.04 119.54 246.16 119.57 246.28 119.62 246.4 119.67 246.48 119.71 246.55 119.75 246.65 119.81 246.73 119.86 246.85 119.94 246.9 119.99 246.96 120.05 247.02 120.11 247.07 120.16 247.12 120.23 247.16 120.3 247.21 120.39 247.25 120.46 247.27 120.51 247.29 120.57 247.31 120.64 247.34 120.71 247.36 120.78 247.38 120.84 247.39 120.9 247.4 120.96 247.41 121.03 247.42 121.11 247.43 121.17 247.43 121.25 247.43 121.34 247.42 121.43 247.41 121.51 247.39 121.57 247.37 121.68 247.34 121.77 247.31 121.86 247.27 121.94 247.24 122 247.19 122.09 247.14 122.17 247.08 122.25 247.04 122.31 246.99 122.36 246.94 122.42 246.88 122.48 246.81 122.55 246.75 122.6 246.69 122.65 246.61 122.7 246.55 122.74 246.48 122.78 246.39 122.83 246.31 122.86 246.25 122.89 246.14 122.92 246.05 122.95 245.96 122.97 245.88 122.98 245.79 123 245.72 123 245.66 123 245.61 123.01 245.58 123.01 245.64 123.06 245.71 123.13 245.78 123.19 245.84 123.25 245.9 123.31 245.97 123.38 246.01 123.43 246.08 123.51 246.16 123.59 246.21 123.65 246.29 123.74 246.35 123.82 246.41 123.9 246.48 124 246.55 124.09 246.63 124.2 246.69 124.3 246.75 124.38 246.81 124.49 246.88 124.6 246.94 124.69 247 124.8 247.05 124.89 247.1 124.98 247.16 125.09 247.24 125.22 247.3 125.34 247.36 125.47 247.42 125.58 247.47 125.68 247.54 125.81 247.6 125.96 246.44 125.96 246.38 125.83 246.33 125.7 246.27 125.58 246.2 125.42 246.14 125.3 246.06 125.15 245.99 125.01 245.91 124.86 245.82 124.72 245.75 124.6 245.66 124.46 245.59 124.34 245.5 124.21 245.41 124.08 245.3 123.94 245.23 123.83 245.19 123.78 245.15 123.73 245.12 123.7 245.07 123.64 245.03 123.6 244.97 123.55 244.94 123.53 244.91 123.5 244.87 123.47 244.83 123.44 244.79 123.41 244.76 123.39 244.73 123.38 244.68 123.35 244.65 123.33 244.62 123.31 244.58 123.3 244.53 123.28 244.48 123.25 244.44 123.24 244.4 123.22 244.35 123.21 244.3 123.19 244.26 123.19 244.24 123.18 244.22 123.18 244.47 122.34 244.51 122.34 244.57 122.34 244.62 122.34 244.71 122.34 244.77 122.34 244.85 122.33 244.94 122.33 245.03 122.32 245.14 122.31 245.28 122.3 245.37 122.29 245.47 122.28 245.54 122.27 245.61 122.26 245.66 122.25 245.7 122.23 245.75 122.22 245.79 122.2 245.83 122.18 245.87 122.16 245.91 122.14 245.94 122.12 245.98 122.09 246.01 122.07 246.04 122.04 246.08 122.01 246.1 121.98 246.14 121.94 246.17 121.9 246.2 121.87 246.22 121.84 246.25 121.79 246.27 121.75 246.29 121.71 246.31 121.66 246.32 121.64 246.33 121.6 246.34 121.57 246.34 121.53 246.35 121.51 246.35 121.48 246.35 121.44 246.36 121.41 246.36 121.38 246.36 121.35 246.36 121.31 246.35 121.27 246.35 121.24 246.35 121.22 246.34 121.18 246.33 121.13 246.32 121.08 246.31 121.04 246.29 121 246.27 120.95 246.25 120.9 246.22 120.85 246.2 120.81 246.17 120.76 246.14 120.72 246.11 120.68 246.08 120.64 246.04 120.6 246 120.56 245.97 120.54 245.94 120.51 245.9 120.49 245.87 120.47 245.85 120.45 245.82 120.43 245.77 120.41 245.73 120.39 245.68 120.37 245.65 120.36 245.6 120.34 245.56 120.33 245.51 120.32 245.46 120.31 245.42 120.3 245.37 120.28 245.33 120.28 245.28 120.27 245.24 120.26 245.17 120.25 245.11 120.24 245.05 120.23 244.97 120.22 244.93 120.22 245.33 119.43"/></g><g id="HATCH-7" data-name="HATCH"><path class="cls-8" d="M244.55,115.94c-.16,1-.39,1-.39,1-1,.16-1.16.22-1.16.22-.82.33-1,.43-1,.43-.9.64-1.06.79-1.06.79-.72.86-.86,1.08-.86,1.08-.42.89-.5,1.13-.5,1.13a10.71,10.71,0,0,0-.21,1.21c0,1,0,1.13,0,1.13.25,1,.31,1.12.31,1.12.42.82.55,1,.55,1,.85,1,1,1.11,1,1.11a13.55,13.55,0,0,0,1.18.71c1,.31,1.19.35,1.19.35.87.07.87,1.06.87,1.06-1-.08-1.19-.12-1.19-.12-.91-.25-1.13-.33-1.13-.33-1-.51-1.18-.64-1.18-.64-.91-.76-1.08-.94-1.08-.94-.62-.82-.76-1-.76-1-.37-.74-.47-1-.47-1-.24-.86-.29-1.15-.29-1.15-.08-.79-.08-1-.08-1,.08-.89.12-1.13.12-1.13.28-1,.39-1.23.39-1.23.45-.85.56-1,.56-1,.72-.87.89-1,.89-1,.9-.7,1.12-.83,1.12-.83,1-.46,1.16-.52,1.16-.52.91-.23,1.14-.26,1.14-.26Z" transform="translate(0.5 0.5)"/></g><g id="HATCH-8" data-name="HATCH"><path class="cls-8" d="M244.55,115.94c.15,1,.38,1,.38,1,1,.16,1.16.22,1.16.22.82.33,1,.43,1,.43.9.64,1.06.79,1.06.79.72.86.86,1.08.86,1.08.42.89.5,1.13.5,1.13.2,1,.22,1.21.22,1.21,0,1-.06,1.13-.06,1.13-.25,1-.31,1.12-.31,1.12-.42.82-.55,1-.55,1-.85,1-1,1.11-1,1.11a13.55,13.55,0,0,1-1.18.71c-1,.31-1.19.35-1.19.35-.86.07-.86,1.06-.86,1.06.95-.08,1.18-.12,1.18-.12.91-.25,1.13-.33,1.13-.33,1-.51,1.18-.64,1.18-.64.91-.76,1.08-.94,1.08-.94.62-.82.76-1,.76-1,.37-.74.47-1,.47-1,.24-.86.29-1.15.29-1.15.08-.79.08-1,.08-1-.08-.89-.12-1.13-.12-1.13-.28-1-.39-1.23-.39-1.23-.45-.85-.56-1-.56-1-.72-.87-.89-1-.89-1-.9-.7-1.12-.83-1.12-.83-1-.46-1.16-.52-1.16-.52-.91-.23-1.14-.26-1.14-.26Z" transform="translate(0.5 0.5)"/></g><g id="HATCH-9" data-name="HATCH"><path class="cls-8" d="M244.83,118.93c-.4.79-2,.79-2,.79v2c.86.08,1,.08,1,.08a1,1,0,0,1-1,.84v2.78c-.9,0-.9-6.53-.9-6.53Z" transform="translate(0.5 0.5)"/></g><g id="HATCH-10" data-name="HATCH"><path class="cls-8" d="M244.83,118.93a10,10,0,0,1,1.07.24,13.12,13.12,0,0,1,.94,1,6.62,6.62,0,0,1,0,1.06,10.73,10.73,0,0,1-.86,1c-.19,1-.13,1-.13,1l.7,1.06c.49.93.55,1.08.55,1.08h-1.17c-.44-.95-.52-1.1-.52-1.1l-.68-1c-1-.65-1-.65-1-.65.92-.87,1.06-.88,1.06-.88a8.84,8.84,0,0,0,1-.59,6.87,6.87,0,0,0-.15-1c-1-.47-1-.48-1-.48Z" transform="translate(0.5 0.5)"/></g></svg>