<svg xmlns="http://www.w3.org/2000/svg" width="3.76in" height="4.56in" viewBox="0 0 271 328.6">
  <defs>
    <style>
      .cls-1 {
        fill: none;
        stroke: #231f20;
        stroke-linecap: round;
        stroke-linejoin: round;
      }
    </style>
  </defs>
  <g id="Outline">
    <polyline class="cls-1" points="23.9 288.5 23.9 328.1 247.1 328.1 247.1 288.5"/>
    <path class="cls-1" d="M37.81,468" transform="translate(-44.5 -175.9)"/>
    <line class="cls-1" x1="247.1" y1="288.5" x2="270.5" y2="288.5"/>
    <line class="cls-1" x1="23.9" y1="288.5" x2="0.5" y2="288.5"/>
    <line class="cls-1" x1="270.5" y1="288.5" x2="270.5" y2="9.5"/>
    <line class="cls-1" x1="0.5" y1="288.5" x2="0.5" y2="9.5"/>
    <line class="cls-1" x1="8.73" y1="0.5" x2="262.27" y2="0.5"/>
    <path class="cls-1" d="M45,185.4c0-5,3.68-9,8.23-9" transform="translate(-44.5 -175.9)"/>
    <path class="cls-1" d="M306.77,176.4c4.55,0,8.23,4,8.23,9" transform="translate(-44.5 -175.9)"/>
    <path d="M87.75,344.89a5.07,5.07,0,0,0,.13-.87c.05-.95.08-1.91.12-2.87q.38-10,.74-20c.18-5.12.33-10.24.49-15.36,0-.27,0-.54.06-.93a6.63,6.63,0,0,0,3.52-1.78,4.88,4.88,0,0,0,1.79-2.88,18,18,0,0,0,.31-2.84,17.28,17.28,0,0,0-.6-4.57c-.5-2.12.33-2.89,1.74-3.44l.14-.05,9.8-3.11a4.54,4.54,0,0,1,3.3.21,4.79,4.79,0,0,0,1,.32,1.06,1.06,0,0,0,1.47-.9,5.39,5.39,0,0,0-.13-3.18c-.49-1.44-1-2.88-1.53-4.29a6.81,6.81,0,0,0-.86-1.53,2.16,2.16,0,0,0-2.16-1,9,9,0,0,0-1.93.4,29.41,29.41,0,0,0-2.82,1.24q-4.27,2.06-8.52,4.16a4,4,0,0,1-4.35-.49,3.66,3.66,0,0,1-1.49-3.61c.24-2.86.46-5.72.69-8.58.1-1.24.2-2.49.31-3.73.07-.84.25-1,1.12-1.14,1.29-.15,2.58-.26,3.88-.4a26.08,26.08,0,0,1,9.48.59c2.86.76,5.69,1.64,8.54,2.46.89.25,1.78.54,2.69.73,1.09.24,1.76-.21,1.86-1.3a18.39,18.39,0,0,1,1.3-4.65c.45-1.19.83-2.4,1.17-3.63a10.61,10.61,0,0,0,.24-2,1,1,0,0,0-.64-1.06c-.32-.16-.67-.3-1-.43a86.86,86.86,0,0,0-16.49-4.18c-2.2-.32-4.43-.48-6.65-.69-1-.1-1.91-.11-2.85-.24s-1.18-.43-1.16-1.37c0-.76.09-1.51.15-2.27.34-4.2.66-8.4,1-12.6.12-1.44.23-2.88.45-4.31a4.41,4.41,0,0,1,2-3.25,4,4,0,0,0,1.5-1.68l.61-1.17c.8-1.49,1.6-3,2.38-4.48a2.78,2.78,0,0,0,.4-2,1.29,1.29,0,0,0-1.77-1.13,20.35,20.35,0,0,1-5.09.64,46.9,46.9,0,0,1-12.78-1,19.06,19.06,0,0,1-4.42-1.32,3.11,3.11,0,0,0-1.21-.24,1.07,1.07,0,0,0-1.19,1,12.4,12.4,0,0,0-.08,1.83,57.78,57.78,0,0,1-.24,6.31c-.14,1.69-.26,3.38-.25,5.07q0,7.93.16,15.88c.05,2.64.2,5.28.31,7.93,0,.85.17,1.71.17,2.56a2.24,2.24,0,0,1-2.66,2.31c-.54-.06-1.06-.19-1.6-.26a5.75,5.75,0,0,0-1.24-.08,3.31,3.31,0,0,0-2.25,1.12c-.44.46-.19,1.07-.24,1.61a.75.75,0,0,0,0,.15c0,.83,0,1.67,0,2.5,0,.53-.24.76-.69.75s-.61-.18-.63-.71c0-.84,0-1.67,0-2.5,0-.49,0-1,0-1.47-.06-.89-.44-1.3-1.34-1.32-1.79,0-3.58,0-5.36,0-.8,0-1.13.37-1.11,1.15a18.81,18.81,0,0,0,.21,2c.11.82.29,1.64.35,2.46s0,.84-.78,1.09a.69.69,0,0,0-.56.81,4.51,4.51,0,0,1,0,.52.77.77,0,0,0,.54.91,1,1,0,0,1,.71,1c0,.61.1,1.22.09,1.83q-.08,6.92-.17,13.82a10.45,10.45,0,0,1-.21,1.67,5.59,5.59,0,0,1-.88,2.09,1,1,0,0,0,0,1.29,1.06,1.06,0,0,0,1.18.39c.19,0,.38-.11.57-.16a33.65,33.65,0,0,0,5-2.07l1.78-.87a.77.77,0,0,0,.52-.8c0-.24,0-.49,0-.73,0-.91,0-1.82.08-2.72,0-.46.14-.56.59-.56a6.62,6.62,0,0,1,.76.11v1.24c0,.81,0,1.62,0,2.43a2.45,2.45,0,0,0,1.49,2.26c.62.3,1,.1,1.14-.55,0-.17.06-.34.1-.5.2-.66.42-.75,1-.36a2.24,2.24,0,0,0,1.32.39,6.47,6.47,0,0,1,.88,0,1.76,1.76,0,0,1,1.74,1.6,11.55,11.55,0,0,1,.23,2.11c0,3.26,0,6.52.06,9.78a11.76,11.76,0,0,1-.12,1.68,10.69,10.69,0,0,1-1.52,4,5.66,5.66,0,0,0-.79,3.3q.21,4.22.32,8.44c0,2,0,4.07,0,6.1a21,21,0,0,0,.43,5.48,5.84,5.84,0,0,1,.1.84l-.68.28a1.37,1.37,0,0,0-1,1.58c0,.53.1,1.07.16,1.6.09.75.27.91,1,1,.56.05,1.13.06,1.68.14a1.11,1.11,0,0,1,.61.33c.44.52.85,1.07,1.27,1.62a3.47,3.47,0,0,1,.73,2.4c0,.32,0,.64-.06,1a57.66,57.66,0,0,0,.06,7.2,3,3,0,0,0,.11.65,1.73,1.73,0,0,0,1.19,1.28c1,.33,1,.4,1,1.42,0,1.87,0,3.73,0,5.59,0,1.55.05,3.09,0,4.63a4.3,4.3,0,0,1-.36,1.63,1.93,1.93,0,0,0,0,1.82,3.51,3.51,0,0,1,.37,1.77q-.12,4.82-.21,9.63c0,.83,0,1.67,0,2.5,0,.64.18.83.83.89s1.47.07,2.2.07c1.37,0,1.63-.3,1.49-1.68-.08-.83-.19-1.66-.25-2.49-.19-2.81-.37-5.62-.56-8.43a3.35,3.35,0,0,1,.25-1.65,4.17,4.17,0,0,0,.15-2.87,7.27,7.27,0,0,1-.28-1.59c-.07-1.81-.12-3.62-.13-5.43,0-1.28.07-2.55.1-3.82A1.69,1.69,0,0,1,83,346.6l.44-.06c1-.13,2-.25,3-.41A1.5,1.5,0,0,0,87.75,344.89Zm1-52.37c1.22,0,2.45,0,3.66.08,1,.07,1.28.37,1.51,1.38a12,12,0,0,1-.13,5.75,5.48,5.48,0,0,1-4.6,4c-.1-.66-.19-1.33-.28-2-.19-1.51-.38-3-.56-4.52a1.68,1.68,0,0,1,1.91-2,3.2,3.2,0,0,1,2.07,1c.56.53.58.52,1.24.49a1.32,1.32,0,0,0-.24-1.22,2.29,2.29,0,0,0-1.32-1c-.86-.25-1.74-.48-2.61-.74a3,3,0,0,1-1.79-1.06A10.2,10.2,0,0,1,88.78,292.52ZM68,268.06a4.35,4.35,0,0,1,.52-3.17,5.17,5.17,0,0,1,.48-.59l.17.1a6.94,6.94,0,0,1-.22.78,2.13,2.13,0,0,0,.5,2.6,5.57,5.57,0,0,1,.56.81C69.07,269.37,68.14,269.1,68,268.06Zm5.89,41.67h0c0,1.49,0,3,0,4.47,0,.69-.18.95-.63,1a.71.71,0,0,1-.85-.62,10.58,10.58,0,0,1-.17-1.6c0-1.44,0-2.88,0-4.33a9.18,9.18,0,0,1,.12-1.38c.08-.58.31-.8.76-.8s.75.23.78.85C73.88,308.12,73.84,308.93,73.84,309.73Zm2.22-29.93a.49.49,0,0,1-.89-.29,6.75,6.75,0,0,1,.08-1.09h0v-.94a.46.46,0,0,1,.47-.53.48.48,0,0,1,.55.46,13.26,13.26,0,0,1,.11,1.67A1.22,1.22,0,0,1,76.06,279.8Zm179.64,5.62c.21,0,.44.06.65.11a1,1,0,0,1,.93,1,9.36,9.36,0,0,1,.08,1.18q0,8.26,0,16.54c0,5.73-.06,11.47-.09,17.2a6.89,6.89,0,0,0,2,5c.66.69,1.31,1.4,1.92,2.13a2.46,2.46,0,0,0,1.85,1,1.26,1.26,0,0,1,1.21,1,7.84,7.84,0,0,1,.23,1.37c.24,2.75.53,5.51.67,8.27.11,2.15.06,4.31,0,6.47,0,1.37-.15,2.73-.25,4.33.16,2,.26,4.28.53,6.52.47,3.86,1.06,7.71,1.59,11.57.08.58.15,1.17.26,1.74a1.38,1.38,0,0,0,1.78,1.28,3.86,3.86,0,0,0,.57-.12,57.79,57.79,0,0,1,11.25-1.68,24.48,24.48,0,0,0,2.7-.29c1.13-.19,1.5-.77,1.28-1.88a13,13,0,0,0-.43-1.63c-2.29-6.72-4.57-13.45-6.91-20.15-1.62-4.67-3.33-9.32-5-14a7.52,7.52,0,0,1-.55-2.65,2.16,2.16,0,0,1,1.43-2.11,5.94,5.94,0,0,1,3.09-.45,13.41,13.41,0,0,1,3.69,1.2c2.53,1.1,5.06,2.23,7.6,3.33a6.25,6.25,0,0,0,1.17.41,1.08,1.08,0,0,0,1.39-.66,2.55,2.55,0,0,0,.2-.48c.55-1.8,1.12-3.59,1.63-5.41.41-1.5,0-2-1.56-2.18a28.16,28.16,0,0,1-3.78-.52,15.17,15.17,0,0,1-6.37-3.52c-1.93-1.64-2.08-2-2.06-4.47s.05-4.95.07-7.43c0-1,0-2,0-3,0-1.27-.5-1.77-1.77-1.88-1.05-.1-2.1-.13-3.16-.19-.34,0-.68,0-1,0s-.6-.12-.63-.49a.56.56,0,0,1,.53-.6,8.46,8.46,0,0,1,1.23-.17,40.81,40.81,0,0,0,5.61-.73,48.25,48.25,0,0,0,27.38-16.17,5,5,0,0,0,.62-.91.81.81,0,0,0-.26-1.22,10.25,10.25,0,0,0-1.3-.83c-1.46-.8-2.93-1.58-4.4-2.37-.95-.51-1.89-1-2.85-1.52a1.58,1.58,0,0,0-2.23.36c-.56.58-1.1,1.19-1.63,1.8a26.65,26.65,0,0,1-8.13,6.44,36.42,36.42,0,0,1-10.52,3.36c-1,.17-2.08.33-3.13.41-.82.06-1.11-.22-1.24-1s-.29-1.74-.4-2.62a5.85,5.85,0,0,1,1-4.2,6.14,6.14,0,0,0,.52-6.78,17.72,17.72,0,0,1-1.11-2.95,18.7,18.7,0,0,1-.53-5.53q.11-6.48.2-12.94a6.7,6.7,0,0,0-.07-1.1,1.23,1.23,0,0,0-1.28-1.17c-.29,0-.59,0-.88,0a1,1,0,0,1-1.08-1,6.82,6.82,0,0,1-.06-1.1q.12-10.69.25-21.4c0-3.57.06-7.15,0-10.73a29.26,29.26,0,0,1,.08-5.21c.08-.45-.1-.68-.54-.83s-.86-.22-1.28-.35a2,2,0,0,0-2,.46,4.92,4.92,0,0,1-1.47.81,5.06,5.06,0,0,1-1.51.22c-1.42.06-2.84.07-4.26.12-.72,0-1,.38-1,1.09a1.11,1.11,0,0,0,.57,1c.29.17.6.31.91.46,1.6.75,3.21,1.48,4.79,2.25a2.71,2.71,0,0,1,1.62,3.06,40.34,40.34,0,0,0-.16,4.26,37,37,0,0,1-.23,5.86,22.76,22.76,0,0,1-.74,3.37,4.89,4.89,0,0,1-3.24,3.35l-.48.18a.89.89,0,0,0-.63.82,6.47,6.47,0,0,0,0,.88c-.07,2.35-.05,4.71-.2,7.06-.31,4.81-.73,9.62-1.05,14.44a67.55,67.55,0,0,0,0,9.11,13.89,13.89,0,0,1-.39,4.72,7.63,7.63,0,0,0,.49,5.72,7.65,7.65,0,0,1,.54,1.37,1.12,1.12,0,0,1-.73,1.48c-.32.13-.65.21-1,.31s-.48.1-.71.18a1,1,0,0,0-.74,1.13A1,1,0,0,0,255.7,285.42Zm15.54,28.66c0-1.93.05-3.86.09-5.79,0-1.57.19-1.77,1.73-2a20,20,0,0,1,2.57-.1,1.08,1.08,0,0,1,1.2,1,10,10,0,0,1,.17,1.53c0,.81,0,1.61,0,2.42h.13c-.05,1.32-.06,2.64-.17,4-.14,1.57-.63,2-2.2,2a9.85,9.85,0,0,1-2.23-.33,1.59,1.59,0,0,1-1.28-1.67C271.24,314.81,271.24,314.45,271.24,314.08Zm-88.9-4.42a6.8,6.8,0,0,0,1,.13,9.17,9.17,0,0,1,2.93.65,2.91,2.91,0,0,1,1.79,1.83,3.1,3.1,0,0,1,0,2c-.28.88-.66,1.73-1,2.59-.14.34-.35.65-.48,1s-.05.7.43.91l.83.35c-.23.57-.4,1.05-.62,1.52q-2.28,4.89-4.58,9.77c-.74,1.57-.44,2.08,1.26,2.24,2.19.21,4.38.46,6.58.67s4.39.43,6.58.61c1.2.1,1.57-.2,1.9-1.35.73-2.52,1.45-5,2.18-7.55q.9-3.11,1.84-6.2a3.57,3.57,0,0,1,3.54-2.68c1.08-.05,2.15-.08,3.23-.15,1.71-.12,3.42-.23,5.12-.4a3.46,3.46,0,0,0,3.16-2.84c.18-.69.35-1.38.55-2.06a2.72,2.72,0,0,1,2.95-2.32c2.82-.1,5.64-.17,8.45-.31,1.49-.07,3-.2,4.46-.41a38.07,38.07,0,0,1,7.69-.45c.66,0,1.32.1,2,.1,1.58,0,2.16-.51,2.41-2.07a4.21,4.21,0,0,0,0-.51c0-1.4.05-2.79,0-4.19a6.71,6.71,0,0,0-.32-1.64,1.34,1.34,0,0,0-1.17-1,12.65,12.65,0,0,0-1.75-.14l-20.65.28a22.24,22.24,0,0,0-7.36,1.22,4.33,4.33,0,0,1-2.17.23c-.45-.07-.9-.23-1.35-.31l-4.47-.85-15.73.16a1.87,1.87,0,0,0-1.4.55,3.64,3.64,0,0,1-3.65,1c-.51-.11-1-.16-1.58-.24,0,.53.28.7.57.88.68.44,1.4.82,2,1.32a2.7,2.7,0,0,1,.85,3,2.47,2.47,0,0,1-2.11,1.9c-.69.12-1.4.21-2.1.29a6,6,0,0,0-2.1.65,1,1,0,0,0,.22,1.89Zm24.36,1.51a2.13,2.13,0,0,1,1.22-1.56,7,7,0,0,1,1.66-.54,13.19,13.19,0,0,1,4.52,0,4.16,4.16,0,0,1,1,.28,2.9,2.9,0,0,1,.94,4.74,2.85,2.85,0,0,1-1.13.62,6.48,6.48,0,0,1-1.52.21c-.59,0-1.18,0-1.76,0v0c-.71,0-1.42,0-2.13,0A3.08,3.08,0,0,1,206.7,311.17Zm8.44,60.28a20.93,20.93,0,0,0,3.31.69c2.26.22,4.54.42,6.81.45,6.23.09,12.45.08,18.68.11a7.41,7.41,0,0,0,1.24-.1,1.42,1.42,0,0,0,1.37-1.53c0-.81.09-1.62.1-2.43a15.06,15.06,0,0,0-.37-3.72c-.29-1.27-.69-1.62-2-1.59a94.89,94.89,0,0,1-10.93-.51,99.14,99.14,0,0,0-11.16-.52,8.69,8.69,0,0,1-1.53-.12,2.11,2.11,0,0,1-1.79-1.55c-.26-.84-.53-1.68-.74-2.54a3.63,3.63,0,0,0-3.34-3c-1.22-.13-2.44-.2-3.66-.3-1.8-.15-3.61-.27-5.41-.46a2.67,2.67,0,0,1-2.33-1.78c-.19-.48-.39-1-.54-1.45-.36-1.14-.69-2.29-1-3.44-.93-3.13-1.85-6.25-2.79-9.37-.44-1.47-.84-1.73-2.34-1.58-1.32.13-2.63.28-3.95.42l-9.94,1a9.65,9.65,0,0,0-1.06.22c2.08,4.42,4.09,8.71,6.11,13-.34.2-.62.36-.88.54a1,1,0,0,0-.3,1.56,3,3,0,0,0,.28.34,5.52,5.52,0,0,1,1.31,3.66,2.58,2.58,0,0,1-1.55,2.54,5.46,5.46,0,0,1-1.46.49c-.84.15-1.7.2-2.55.31s-1.13.47-1.13,1.1.34.95,1.06,1.11l.8.14c.91.16,1.83.31,2.74.49a2.65,2.65,0,0,1,2.3,2.27,2.82,2.82,0,0,1-1.38,3.07c-.29.18-.6.32-.91.48a6,6,0,0,0-.89.5c-.14.12-.29.39-.24.53a.59.59,0,0,0,.49.32,4.38,4.38,0,0,0,1.29-.23,2.39,2.39,0,0,1,2.76.57,3.44,3.44,0,0,0,2.54,1c.36,0,.73,0,1.1,0,.85,0,1.71-.11,2.57-.08,2.32.09,4.65.23,7,.34a24,24,0,0,0,8-.83A7.78,7.78,0,0,1,215.14,371.45Zm-8.46-12.94a2.69,2.69,0,0,1,2.36-2.82,27.26,27.26,0,0,1,3-.07c.64,0,1.28,0,1.91,0a2.83,2.83,0,0,1,2.74,3.91,2.42,2.42,0,0,1-2.09,1.83c-.82.11-1.65.12-2.65.19-.94-.09-2-.13-3.12-.33A2.36,2.36,0,0,1,206.68,358.51Zm11.85,68.69a6.33,6.33,0,0,0,1-.15v-.87q0-6.84,0-13.68a3.65,3.65,0,0,1,0-.66c.08-.46.21-.57.68-.57q4.83,0,9.64,0a7.35,7.35,0,0,1,1,.13c0,.28.05.5.05.72,0,.46,0,.93,0,1.39V426.1c0,1,.09,1.08,1.09,1.08h8.75c.69,0,.75-.08.79-.76s.06-1.42.06-2.13c0-6.38.05-12.75,0-19.12,0-5.05-.09-10.1-.14-15.14,0-.61,0-1.21-.09-1.85-.33,0-.57-.07-.81-.07H232a9,9,0,0,0-1,.12v14.53c0,.94,0,1-1,1l-9.49,0c-.26,0-.52-.05-.83-.08,0-.52-.11-1-.11-1.44,0-4.37,0-8.73,0-13.09,0-.94-.08-1-1-1h-9c-.47,0-.55.11-.58.58s0,.83,0,1.25q0,9.26,0,18.52v17.35a2.07,2.07,0,0,0,.26,1.3c.21,0,.43.06.65.06ZM92.34,423.46A20.36,20.36,0,0,0,104.22,427a19.47,19.47,0,0,0,13.86-5.52c5.8-6.1,7.63-13.2,4.89-21.27a18.74,18.74,0,0,0-12-12.17A20.77,20.77,0,0,0,97.77,388,18.6,18.6,0,0,0,87,396.31a20.2,20.2,0,0,0-2.8,14.17A18.58,18.58,0,0,0,92.34,423.46Zm3.22-24.52A10.73,10.73,0,0,1,110,396.8c3.57,2.39,5.44,5.73,5.42,11.7a11.61,11.61,0,0,1-3.38,7.2,10.67,10.67,0,0,1-9.29,3.25c-5-.53-8.58-4.07-9.65-9.15A12.42,12.42,0,0,1,95.56,398.94ZM273.21,427.8a19.56,19.56,0,0,0,8.08-3.7c5-4.08,7.35-9.45,7.6-16.14-.12-1-.2-2.39-.44-3.71a18.21,18.21,0,0,0-5.24-10.14c-5.26-5.14-11.6-6.77-18.69-5.41-6.92,1.33-11.62,5.58-14.43,11.95a19.36,19.36,0,0,0-1.39,9.64,18.23,18.23,0,0,0,2.76,8.51A20.09,20.09,0,0,0,273.21,427.8Zm-13-11.35a13.92,13.92,0,0,1-2.79-8.65,11.7,11.7,0,0,1,3.57-8.51,10.41,10.41,0,0,1,7.63-3.08,10.75,10.75,0,0,1,9.59,5.62,13,13,0,0,1-1,14.44,10.38,10.38,0,0,1-7.28,4,12.65,12.65,0,0,1-4.93-.47A8.79,8.79,0,0,1,260.25,416.45ZM138.38,373.33c.18.92.55,1.09,1.43.77s1.64-.64,2.44-1c3.86-1.75,7.57-3.81,11.29-5.83,1.53-.82,3.09-1.6,4.68-2.3a4,4,0,0,0,2.53-3.18,15.93,15.93,0,0,1,1.61-4.63,15.6,15.6,0,0,0,2-5.36,6.19,6.19,0,0,0,2.88,1,4,4,0,0,1,2,.76,2,2,0,0,0,.39.17c.13-.91,0-1.22-.83-1.48-.37-.12-.76-.19-1.13-.32-.66-.25-.8-.65-.44-1.27.17-.29.39-.56.58-.84a1.29,1.29,0,0,0,.22-1.19,5.31,5.31,0,0,0-.55-1.27,3.11,3.11,0,0,0-.89-.84.75.75,0,0,0-1.05.2.74.74,0,0,0,0,1,3.19,3.19,0,0,1,.35.47,3.38,3.38,0,0,1,.34.95c0,.49-.33.71-.77.52a1,1,0,0,1-.71-1.13c.11-1.59.15-3.18.21-4.77,0-.89.05-1.77.07-2.65a1.17,1.17,0,0,1,.58-1.11,1.28,1.28,0,0,0,.63-1.24,13,13,0,0,0-.65-4.41,7.19,7.19,0,0,1-.4-1.63c-.12-1.56-.24-3.13-.25-4.69,0-7.38,0-14.75,0-22.13a10.57,10.57,0,0,1,.13-1.08h1.11c.62,0,.93-.23,1-.85a5.5,5.5,0,0,0,0-1.67c-.1-.63-.41-.82-1-.79-.38,0-.77.07-1.18.12-.12-.38-.24-.72-.34-1.07a1.41,1.41,0,0,0-.86-.95,3.13,3.13,0,0,0-3,.32,1.91,1.91,0,0,1-1.47.44,5.93,5.93,0,0,0-.73,0c-.77,0-1,.2-1.12.94-.32,3.24-.62,6.48-.62,9.74,0,3.9-.05,7.79-.15,11.69-.05,2-.25,4-.37,6-.18,2.84-.37,5.67-.51,8.51-.08,1.61-.09,3.23-.13,4.85a5.29,5.29,0,0,1-.07.8c-.19,1.11-.71,1.46-1.8,1.26-.51-.09-1-.17-1.53-.21a2.57,2.57,0,0,0-2.22.9,5,5,0,0,0-1.3,3.71c0,.46.08.93.11,1.39a8.21,8.21,0,0,1-.2,2.92,2.06,2.06,0,0,1-2.13,1.66c-.42,0-.83-.06-1.25-.06a4.55,4.55,0,0,0-.74.11l0,.18a4.75,4.75,0,0,0,.77.34,4.06,4.06,0,0,0,2.66-.2,8.23,8.23,0,0,1,1.16-.46,3.18,3.18,0,0,1,3.57,1.05,1.42,1.42,0,0,1,.06,2.11c-.57.74-1.17,1.45-1.78,2.15a10.48,10.48,0,0,1-3.72,2.7,14.19,14.19,0,0,1-5,1.15c-.78,0-1.57,0-2.35.07a2,2,0,0,0-2.11,2.22,29,29,0,0,0,0,3.23C137.89,370.53,138.11,371.94,138.38,373.33Zm11.82-27.39a2.67,2.67,0,0,1,3-1.12,4.56,4.56,0,0,1,1.44.69,1.73,1.73,0,0,1,.68,1.76,1,1,0,0,1-.84.91c-.66.15-1.34.26-2,.39a3.11,3.11,0,0,1-2-.6C149.68,347.22,149.69,346.74,150.2,345.94Zm.94,6.78a5.46,5.46,0,0,0-.54-.13l.18.93c-1,.19-1.23,0-1.25-.9,0-1.22,0-2.44,0-3.67a2.53,2.53,0,0,1,.07-.48c.08,0,.14-.05.16,0a8.43,8.43,0,0,0,4.54,1.21c1.14,0,1.2.08,1.13,1.23a8.75,8.75,0,0,1-.09.88c-.16.92-.48,1.2-1.42,1.25A6.92,6.92,0,0,1,151.14,352.72Zm-33.7-8.51a6.6,6.6,0,0,1-.13-.82c-.08-1.61-.13-3.22-.21-4.84-.07-1.34-.16-2.69-.23-4-.17-3.18-.27-6.37-.5-9.54A100.91,100.91,0,0,1,116,314.4a108.88,108.88,0,0,0-.49-12.77c-.09-1-.46-1.29-1.44-1.14a3.12,3.12,0,0,0-.44.09.55.55,0,0,1-.65-.16,3.55,3.55,0,0,0-3.33-.88,1.61,1.61,0,0,0-1.43,1.18c-.32.94-.44,1-1.39.84a3.11,3.11,0,0,0-.43,0,.56.56,0,0,0-.6.45,4.64,4.64,0,0,0,.17,2.68c.37,0,.69,0,1,0,.9,0,1.19.31,1.23,1.21s.06,2,.05,3c-.06,4.06-.14,8.13-.18,12.2,0,3.26,0,6.52,0,9.78a3.8,3.8,0,0,1-.74,2.4,3.53,3.53,0,0,0-.58,1.4,10.82,10.82,0,0,0-.1,3.59,4.2,4.2,0,0,0,.7,1.83,3.06,3.06,0,0,1,.58,1.47c.08,2.35.08,4.7.1,7.05a2.15,2.15,0,0,1,0,.51.66.66,0,1,1-1.24-.4c.08-.17.21-.33.31-.5a8.27,8.27,0,0,0,.45-.75c.23-.52.05-.81-.5-.86a1.52,1.52,0,0,0-1.69,1.12,3.71,3.71,0,0,0,.26,3.12c.13.24.26.46.45.78l-1.2.4a2.93,2.93,0,0,0-1.41,1c-.17.21-.36.46-.18.73l5.15-1.68c.13.35.26.66.37,1,.3.9.59,1.82.91,2.72a19.1,19.1,0,0,0,2.31,4.74,3.92,3.92,0,0,1,.77,3c-.15.82.07,1.06.89,1.2a13.53,13.53,0,0,1,4,1.41c1,.53,2,1.09,2.95,1.66a101.73,101.73,0,0,0,11.79,6,5.6,5.6,0,0,0,1.18.38.85.85,0,0,0,1.05-.59,2.36,2.36,0,0,0,.19-.64,31.18,31.18,0,0,0,.46-7.09c-.15-1.72-.41-2-2.12-2.14-1.27-.08-2.55-.1-3.81-.28a12,12,0,0,1-8.74-5.48,5.21,5.21,0,0,1-.47-.83,1.46,1.46,0,0,1,.43-1.91,3.68,3.68,0,0,1,3.72-.69c.3.1.59.26.89.34a2.27,2.27,0,0,0,1.34.13c-.09-.4-.4-.39-.64-.47a2.08,2.08,0,0,1-1.53-1.71,10,10,0,0,1-.12-1.46c-.06-1.42-.06-2.84-.15-4.25a3.41,3.41,0,0,0-3.16-3.23,7.34,7.34,0,0,0-3,.29A1.41,1.41,0,0,1,117.44,344.21Zm6.06,8c0,.09,0,.19,0,.29-.09.87-.37,1.31-1.4,1l.13-.67a6.52,6.52,0,0,0-1.54.06c-.39,0-.78.09-1.17.09a2.16,2.16,0,0,1-2.06-2.61c.12-.55.36-.78.9-.75a9.13,9.13,0,0,0,4.12-.82c.26-.11.54-.17.87-.28a4.08,4.08,0,0,1,.11.64C123.47,350.19,123.49,351.2,123.5,352.2ZM119,345a8.37,8.37,0,0,1,1.57-.3A2.67,2.67,0,0,1,123.1,346a1.37,1.37,0,0,1,.16.32c.24,1,.24,1.24-.7,1.63a6.13,6.13,0,0,1-4.22.24c-.45-.14-.73-.37-.72-.87,0-.12,0-.25,0-.37A1.72,1.72,0,0,1,119,345ZM79,386.28H71a8.19,8.19,0,0,0-.95.12v2.1q0,13.13,0,26.24a11.82,11.82,0,0,1-.08,1.69c-.32,2.11-1.3,3.66-3.62,3.89s-3.84-.44-4.7-2.3a2.62,2.62,0,0,0-.3-.51c-.19-.27-.39-.53-.62-.83l-8.15,5.86c.65.89,1.22,1.72,1.84,2.51A11.92,11.92,0,0,0,59,428.63a16.28,16.28,0,0,0,11.33.81A12.16,12.16,0,0,0,79,421.21a17.76,17.76,0,0,0,.89-5.78V387.57a4.35,4.35,0,0,0,0-.51C79.76,386.35,79.69,386.28,79,386.28ZM175.92,410a2.16,2.16,0,0,0-.43.17v6.76a14.5,14.5,0,0,1-5.25,0v-.78c0-1.64,0-3.28,0-4.92a10.94,10.94,0,0,0-.11-1.19,11.39,11.39,0,0,0-4.86.07c0,.19-.05.41-.05.62,0,5.46,0,10.93,0,16.39a6.1,6.1,0,0,0,.16,1c1.4,0,2.69,0,4,0,.74,0,.84-.15.85-.87,0-1.79,0-3.58,0-5.37a10.14,10.14,0,0,1,.1-1.07,17.2,17.2,0,0,1,5.17.09v1.34c0,1.57,0,3.13,0,4.7a8.8,8.8,0,0,0,.09,1,14.26,14.26,0,0,0,4.79,0c0-.62.11-1.2.11-1.78,0-5,0-10.05,0-15.07,0-.17,0-.34,0-.51a.54.54,0,0,0-.57-.62A18.1,18.1,0,0,0,175.92,410Zm131.52,12.15a1,1,0,0,0-1-1,10.44,10.44,0,0,0-1.25,0c-4.85,0-9.7,0-14.55,0a2.28,2.28,0,0,0-2.09,1.06,28.65,28.65,0,0,1-6.57,6.57c-.21.15-.41.33-.76.61.5.05.83.11,1.15.11l23.37,0a5.51,5.51,0,0,0,.81,0,.87.87,0,0,0,.88-.9,5.83,5.83,0,0,0,0-.59v-5.29A2.91,2.91,0,0,0,307.44,422.12ZM183,407c.22,0,.34,0,.46,0,2.05,0,4.11,0,6.17,0a10.71,10.71,0,0,0,2.1-.28,5.22,5.22,0,0,0,3.23-2,10.05,10.05,0,0,0,1.25-2.15,12.91,12.91,0,0,0,.28-8.71,6,6,0,0,0-4.5-4.42,10,10,0,0,0-2-.36c-2.1-.09-4.21-.11-6.31-.13a3.33,3.33,0,0,0-.77.19v16.75C182.9,406.21,183,406.57,183,407Zm4.5-14.56a3.06,3.06,0,0,1,3.94,1.19,6.3,6.3,0,0,1,.8,2.73A13,13,0,0,1,192,401a6.74,6.74,0,0,1-.36,1,2.67,2.67,0,0,1-2.09,1.66,19.32,19.32,0,0,1-1.93.13,7.25,7.25,0,0,1-.12-.88q0-4.89,0-9.78C187.46,392.88,187.49,392.64,187.51,392.43Zm-45.7,35.75c.72,0,.77-.07.77-.76,0-2.25,0-4.5,0-6.75,0-.83-.06-.89-.86-.9h-5.37c-3.67,0-7.34,0-11,0a1,1,0,0,0-.92.45c-.3.47-.67.9-1,1.35a21.43,21.43,0,0,1-6.2,5.76,7.27,7.27,0,0,0-.7.56,8.69,8.69,0,0,0,.88.1c1.78.05,3.57.14,5.36.13,3.7,0,7.39,0,11.09.12C136.47,428.34,139.14,428.22,141.81,428.18Zm164.44-32.76a1,1,0,0,0,.89-1,3.82,3.82,0,0,0,0-.59V388.6a4.86,4.86,0,0,0,0-.66.88.88,0,0,0-.78-.84,7,7,0,0,0-1-.09H281.76l-.12.22c.2.19.4.38.61.56,1,.86,2.08,1.65,3,2.59a35.75,35.75,0,0,1,3.11,3.62,3.44,3.44,0,0,0,3.2,1.53c1.91-.09,3.82-.11,5.73-.11,2.62,0,5.24.06,7.87.09A5.73,5.73,0,0,0,306.25,395.42Zm-140.44-5.51q0,8,0,16a10.07,10.07,0,0,0,.12,1,11.63,11.63,0,0,0,3.33-.09v-12.3l.16,0c.6,1.23,1.21,2.45,1.8,3.69q2,4.11,3.87,8.25a.82.82,0,0,0,.88.57c.76,0,1.52,0,2.28,0,1.05,0,1.09-.06,1.12-1.13v-.22c0-5.27,0-10.54,0-15.81a1.56,1.56,0,0,0-.09-.65.61.61,0,0,0-.41-.33c-1,0-1.9,0-3,0,0,.58-.08,1-.09,1.45,0,2.84,0,5.69,0,8.53,0,.13,0,.27,0,.4l-.15,0c-1.69-3.43-3.18-7-4.85-10.39h-4.9C165.87,389.29,165.81,389.6,165.81,389.91ZM116.09,386c.18.13.24.2.31.24a14.9,14.9,0,0,1,2.73,1.85,21.35,21.35,0,0,1,5.16,5.48,1,1,0,0,0,.95.51c2.64,0,5.29.05,7.93.08l8.53.12c.79,0,.84-.05.86-.82,0-1.64.06-3.28.08-4.92,0-.56,0-1.13,0-1.69s-.2-.78-.79-.83-1,0-1.55,0h-4.19l-19.47,0A4.06,4.06,0,0,0,116.09,386Zm82.15,42a9.81,9.81,0,0,0,.08-2.47c0-.61-.15-.7-.76-.74h-7.13c-.23,0-.47,0-.72,0v-4.4h6.65c0-.93,0-1.71,0-2.49a.62.62,0,0,0-.64-.65,3.24,3.24,0,0,0-.44,0l-4.92,0c-.21,0-.42,0-.7-.07a30.88,30.88,0,0,1,.12-4c.53,0,1-.08,1.5-.09h5.88a3.75,3.75,0,0,0,.58,0,.54.54,0,0,0,.56-.56c0-.82,0-1.65,0-2.51a8.84,8.84,0,0,0-1-.12H185.68a7.68,7.68,0,0,0-.88.12c0,.77-.07,1.48-.07,2.18q0,7.39-.06,14.77a8.5,8.5,0,0,0,.13,1.09,9.37,9.37,0,0,0,.95.09h11.54A8.67,8.67,0,0,0,198.24,428Zm-39.6-38.71c-.09-.22-.19-.39-.47-.39h-4c-.6,1.22-5.94,17.43-6,18.08h3.93c.15-.46.29-.9.42-1.34s.33-1.18.5-1.76a.6.6,0,0,1,.63-.51c1.51,0,3,.05,4.55.06a.64.64,0,0,1,.67.55c.08.33.18.66.28,1,.15.51.3,1,.44,1.55a.66.66,0,0,0,.75.52c1.1,0,2.21,0,3.31,0a3.64,3.64,0,0,0,.55-.09,12.83,12.83,0,0,0-.29-1.25q-2.39-7.49-4.79-14.95C159,390.24,158.81,389.77,158.64,389.29Zm-1,10.74h-3.31a26.65,26.65,0,0,1,1.56-6.43A24.77,24.77,0,0,1,157.65,400Zm.64,28a3.78,3.78,0,0,0,.77-.16V417.24c0-1,0-2,0-3,0-.72.14-.87.85-.89s1.32,0,2,0c.42,0,.83,0,1.25-.06a.46.46,0,0,0,.47-.47,23.9,23.9,0,0,0,0-2.81c-1.44-.34-12.57-.29-14,.08,0,.79,0,1.62,0,2.44,0,.63.16.77.8.79.81,0,1.62,0,2.42,0,.39,0,.77.06,1.22.1v13.71c0,.79,0,.87.81.89C156,428.07,157.14,428,158.29,428Zm-29.52-17,8.59.06h1.47c.66,0,.83-.17.86-.81s0-1.22,0-1.83c0-1.66,0-3.33,0-5,0-.77-.12-.86-.92-.85-3,0-6.07,0-9.11,0-.58,0-1.15.07-1.81.12a19,19,0,0,1-.09,8.19C128.14,411,128.46,411,128.77,411Zm163.82.23c.05.69.32,1,1,1,.24,0,.49,0,.74,0h3.89v0h4.18a5.71,5.71,0,0,0,1.09-.14.92.92,0,0,0,.76-.8c0-.24.06-.48.07-.73.05-1.66.08-3.32.13-5,0-1.42-.25-1.74-1.67-1.74h-8.66c-1.5,0-1.68.2-1.51,1.67a22.41,22.41,0,0,1,0,5A5.93,5.93,0,0,0,292.59,411.25ZM209.05,314a15.43,15.43,0,0,1-.26-2,14.83,14.83,0,0,1,.25-2.06c-1.33.3-1.9.94-1.88,2A2,2,0,0,0,209.05,314Zm-1.89,44.63a1.76,1.76,0,0,0,2,1.88,5.08,5.08,0,0,1,0-3.92A1.84,1.84,0,0,0,207.16,358.62Z" transform="translate(-44.5 -175.9)"/>
  </g>
</svg>
