<?xml version="1.0" encoding="utf-8"?>
<!-- Generator: Adobe Illustrator 26.0.1, SVG Export Plug-In . SVG Version: 6.00 Build 0)  -->
<svg version="1.1" id="Layer_1" xmlns="http://www.w3.org/2000/svg" xmlns:xlink="http://www.w3.org/1999/xlink" x="0px" y="0px"
	 viewBox="0 0 522 378" style="enable-background:new 0 0 522 378;" xml:space="preserve">
<style type="text/css">
	.st0{fill:none;stroke:#000000;stroke-linecap:round;stroke-linejoin:round;stroke-miterlimit:10;}
	.st1{fill:#010101;}
</style>
<path class="st0" d="M0,198c0,9.9,8.1,18,18,18"/>
<path class="st0" d="M504,216c9.9,0,18-8.1,18-18"/>
<path class="st0" d="M522,18c0-9.9-8.1-18-18-18"/>
<path class="st0" d="M18,0C8.1,0,0,8.1,0,18"/>
<line class="st0" x1="18" y1="0" x2="504" y2="0"/>
<line class="st0" x1="0" y1="18" x2="0" y2="198"/>
<line class="st0" x1="522" y1="18" x2="522" y2="198"/>
<line class="st0" x1="149.4" y1="255.6" x2="372.6" y2="255.6"/>
<line class="st0" x1="149.4" y1="255.6" x2="149.4" y2="216"/>
<line class="st0" x1="372.6" y1="255.6" x2="372.6" y2="216"/>
<line class="st0" x1="18" y1="216" x2="149.4" y2="216"/>
<line class="st0" x1="372.6" y1="216" x2="504" y2="216"/>
<g>
	<g transform="translate(0.000000,3300.000000) scale(0.100000,-0.100000)">
		<path class="st1" d="M2578,32901.9c-4.5-0.6-18.4-2.5-30.6-4.2c-30.1-3.9-73-15-101.7-25.9c-175.8-68-293.4-222.6-312.3-411.2
			c-3.1-29.8-1.7-89.7,2.2-105l1.4-6.4h-892.4c-703,0-894.1-0.8-899.4-3.6c-3.6-1.7-9.5-7-12.5-11.1l-5.9-7.8v-519.3v-519.3l5.9-7.8
			c3.1-4.2,8.9-9.5,12.5-11.1c5.3-2.8,478.1-3.6,2264.9-3.6s2259.6,0.8,2264.9,3.6c3.6,1.7,9.5,7,12.5,11.1l5.9,7.8v519.3v519.3
			l-5.9,7.8c-3.1,4.2-8.9,9.5-12.5,11.1c-5.3,2.8-195,3.6-892.4,3.6c-842.3,0-885.5,0.3-883.5,5c0.8,2.5,2.5,22.3,3.3,43.7
			c5.9,142.4-51,279.5-155.7,375.9c-66.6,61.6-154.4,105.6-242.4,121.5C2674.1,32900.8,2597.7,32904.7,2578,32901.9z
			 M2674.1,32869.1c197.8-26.5,351.3-170.5,390.6-367.2c9.8-49,8.6-142.1-2.2-178.3c-1.4-4.7,42.6-5,898.5-5h900.2v-511.3V31296
			H2610H358.8v511.3v511.3h907.2c862.6,0,906.9,0.3,905.5,5c-9.5,34.3-11.4,126.5-3.6,169.7c22,117.3,82.8,217.3,175,287
			C2437.8,32852.1,2558.5,32884.4,2674.1,32869.1z"/>
		<path class="st1" d="M2623.1,32766.5c-3.9-8.6-7.8-18.1-8.6-21.2c-1.7-4.5-5.3-5.9-19.2-7.5c-29.8-3.1-29.8-2.8-11.7-20.9
			l16.2-16.4l-3.9-18.9l-3.9-18.9l-36.2-0.8l-36.2-0.8l8.1-6.4l8.1-6.4l-6.4-8.6c-17.8-24.2,6.4-54.6,30.1-37.9
			c3.6,2.5,7,3.9,7.8,3.1c1.4-1.4-9.5-32.6-12.8-36.2c-1.1-1.4-7.5,1.4-14.2,5.9c-6.7,4.7-23.4,13.1-37.3,18.7
			c-13.7,5.6-28.7,12-33.4,13.9c-9.5,4.2-27.6,10-55.7,18.7c-15.6,4.7-27.9,6.1-62.7,6.4c-28.7,0.6-46.8-0.6-54.3-2.8
			c-6.1-1.9-15-4.2-19.8-5c-10.6-2-34-15.6-35.9-21.2c-3.3-8.4,3.6-9.8,20.1-4.5c19.8,6.4,52.4,6.4,76.9,0
			c29.5-7.5,50.7-21.5,80-52.7c46-48.8,77.2-78.8,86.4-82.8c7.2-3.3,8.4-5,7-10.9c-1.1-3.9-2.2-7.5-2.8-8.1
			c-1.4-1.1-31.5,16.2-33.4,19.5c-2.2,3.3-14.5,3.3-21.2-0.3c-4.2-2.5-7.5-1.4-15.6,4.2c-17.3,11.7-28.7,7.5-28.7-10.6
			c0-5.9,1.1-6.7,7.5-5.3c5,0.8,8.4-0.3,11.1-3.6c4.7-6.7,5-15,0.3-10.3c-4.5,4.5-18.9,4.2-18.9-0.3c0-7.8,47.1-46,52.7-42.6
			c1.4,0.8,4.2-0.6,6.1-3.3c3.6-4.5,3.3-4.5-1.7-0.8c-3.1,2-1.1-0.6,4.7-6.1l10-9.8l-18.7-48.5c-22.3-56.8-25.1-62.4-35.9-72.7
			l-8.4-8.1l-5,10.3c-8.9,18.9-36.2,23.4-48.5,7.8c-7.8-9.8-7.8-30.4,0.3-38.7l5.6-6.1l-31.5-18.9l-31.5-19.2l56.6-0.8l56.8-0.6
			l8.4,7c14.8,12.5,28.4,12.5,43.5,0c7.8-6.4,10.3-7,37.6-7h29.5l7.5-10c4.2-5.3,12.3-12.3,17.6-15c10.6-5.3,35.9-30.4,41.8-41.2
			l3.3-6.1l13.4,6.7c20.1,10.3,61.3,38.7,76.6,52.9l13.7,12.8h27.3c25.1,0,27.9,0.6,34.8,7c13.7,12.5,29.5,12,44.6-1.7
			c5.3-5,10-5.3,63.2-4.7l57.4,0.8l-32,19.2c-25.6,15.3-30.9,19.8-27.6,22.3c7,5.6,10,18.1,7,29.3c-3.9,15-12,21.2-27,21.2
			c-10.6,0-13.7-1.4-20.6-9.2c-4.5-5-8.1-11.1-8.1-13.9c0-3.1,2-1.7,5.6,4.2c10.3,17,26.2,19.5,39.3,6.7c10.9-11.1,10.9-22.8,0-34
			l-8.4-8.1l10.3-6.7c5.6-3.6,17.8-10.6,27-15.9l16.7-9.5l-48.2-0.8c-47.9-0.6-48.5-0.6-56.6,6.1c-4.5,3.9-10.6,7.8-13.9,8.6
			c-9.2,3.1-23.4-0.8-30.4-8.4c-6.1-6.4-8.1-7-31.8-6.4l-25.4,0.3l23.7,1.7c20.9,1.4,24.5,2.5,31.8,9.2c8.6,8.4,22.6,12.3,32.9,9.2
			c3.3-1.1,10.6-5.9,15.6-10c8.9-8.1,9.5-8.1,45.1-8.1c20.1,0,36.2,0.6,36.2,1.4c0,0.6-9.5,7.5-20.9,15.3
			c-11.4,7.8-20.9,15-20.9,16.4c0,1.1,4.2,3.9,9.2,6.1c17.8,7.8,11.1,35.9-8.9,35.9c-13.1,0-21.2-8.6-20.6-22
			c0.3-6.1-0.6-11.4-1.7-11.4c-5.9,0-25.4,17.3-33.2,29.5c-6.7,10.6-39.6,89.2-39.6,94.7c0,0.6,1.1,1.1,2.5,1.1
			c1.1,0,8.9-17.3,16.7-38.2c16.7-44,23.7-56.8,37.6-70.2c15-14.5,14.5-8.9-0.6,7c-12.5,13.1-28.4,43.7-24.8,47.6
			c1.4,1.4,10.9-2.5,34.5-13.7c3.3-1.7,7.5-2,9.8-0.6c2,1.4,5.9,1.9,8.9,1.4c13.1-2-6.1,29.3-60.7,99.5c-2.2,3.1-1.4,3.6,2.5,2.8
			c3.6-0.6,6.4,1.4,8.4,5.3c2,4.5,4.2,5.9,8.4,4.7c7-1.7,14.2,5.3,10.9,10.3c-1.4,2.5,0,2.8,4.5,1.7c3.6-0.8,8.9-0.3,11.7,1.1
			c4.2,2.2,8.1,1.7,15.3-1.7c5.3-2.5,12-4.2,14.8-3.3c2.5,0.6,7,0,9.5-1.4c2.8-1.4,6.4-1.4,9.2,0.3c3.6,2,6.7,0.8,12.8-4.2
			c4.5-3.6,11.4-6.7,15.9-6.7c4.2,0,9.2-2,11.4-4.5c2.2-2.8,6.1-3.9,11.1-2.8c5.6,1.1,8.9-0.3,13.9-5.6c6.4-6.7,20.9-16.2,22.8-14.5
			c0.3,0.6,8.4-5.9,17.8-14.2c9.5-8.4,21.2-17.6,26.2-20.6l8.9-5.8l-1.7,8.6c-2,10.6-18.4,38.2-42.1,71.3
			c-15,20.9-37.9,47.6-85,97.8c-29.3,31.8-104.5,63.2-140.1,59.3c-7-0.8-19.2-4.7-27-8.6c-7.8-3.9-15-7.2-16.2-7.2
			c-2.5,0-20.3,46.3-20.3,52.4c0,2.8,1.4,2.5,6.1-0.6c12-8.6,28.1-5.3,34.3,7c6.1,11.4,5,20.3-3.3,30.4l-7.2,8.9l8.1,6.4l8.1,6.7
			l-35.1,0.3h-35.1l-3.3,15.9c-5,24.8-4.5,26.5,12.5,41.2c17.8,15.3,17.3,16.4-10.3,19.2l-18.4,1.9l-9.8,21.5l-9.8,21.5
			L2623.1,32766.5z M2629.5,32742.8v-24.5l-7,10.3l-7,10l6.4,14.2c3.3,7.8,6.4,14.2,7,14.2
			C2629.2,32767.1,2629.5,32756.2,2629.5,32742.8z M2618.4,32725c3.3-4.5,5.9-8.6,5.3-9.2c-0.6-0.3-10.6,2.8-22,7
			c-21.5,7.5-21.5,9.8,0.6,10.6C2610.6,32733.6,2613.3,32732.3,2618.4,32725z M2673.8,32731.7c5.9-1.4,3.3-2.8-13.9-9.2
			c-11.4-3.9-21.2-7-21.7-6.7c-0.6,0.6,2,4.7,5.3,9.2C2649.6,32733.9,2658.5,32735.9,2673.8,32731.7z M2619.5,32698.3
			c-14.5-22.6-18.7-28.7-19.8-28.7s1.4,17,3.9,25.9c1.4,5,9.5,9.8,17.3,10C2623.7,32705.8,2623.4,32704.1,2619.5,32698.3z
			 M2648.2,32702.7c7.2-2.5,8.9-4.7,11.4-17.3c1.7-8.1,2.5-14.8,2.2-15c-0.3-0.6-6.7,7.2-13.7,17.3
			C2634.5,32706.6,2634.5,32707.7,2648.2,32702.7z M2645.1,32669.3c8.4-4.7,15-9.5,15-10.6c0-3.9-12.8-14.2-21.7-17.3
			c-6.4-2.2-11.1-2.2-18.1,0c-10,3.3-24.8,17-20.1,18.9c1.7,0.6,8.4,4.7,15.3,9.2c7,4.5,13.1,8.1,13.7,8.1
			C2629.8,32677.9,2637,32674,2645.1,32669.3z M2602.8,32650.3c16.7-17.6,36.5-18.1,53.2-1.7c9.2,9.5,10,9.8,31.8,9.8
			c16.7,0,23.1-1.1,25.9-4.5c2-2.2,7-8.1,11.4-12.5c8.6-9.5,10-22.8,3.1-32.6c-6.4-9.2-24.5-8.6-30.6,0.8c-5,7.5-9.5,7-9.5-1.7
			c0-3.1,4.5-17.8,10.3-32.6c5.6-14.8,10-29.3,9.8-32.3c-0.3-4.5,0.3-4.7,4.5-0.8c2.8,2.5,12.3,7.8,21.2,12
			c14.8,6.7,18.7,7.2,37.6,5.8c24.2-1.7,52.4-10.9,81.1-25.9c21.5-11.1,47.4-32.6,47.4-39c0-6.1-2.2-4.7-18.7,10
			c-8.4,7.8-17,13.9-19.2,13.9c-4.5,0-35.4,15.3-46.3,22.8c-8.9,6.1-10.9,6.4-8.9,0.8c1.4-3.6,0.6-3.9-5.9-1.4
			c-13.9,5.3-44,3.3-56.6-3.3c-15.6-8.9-36.8-28.4-36.8-34.3c0-2.5-2.5-5.3-5.6-6.1c-3.1-0.8-5.6-2.8-5.3-4.7
			c0.6-6.1-3.9-15.6-7.2-15.6c-3.3,0-7-5.6-8.4-12.5c-2-9.5-5.3-15.3-8.9-15.3c-2.8,0-3.3-1.7-2.2-6.1c1.7-4.7,1.1-5.6-2.5-4.2
			c-2.8,1.1-4.5,0.3-4.5-2.2c0-2.2-1.4-4.2-3.1-4.2c-1.7,0-2.5-2-1.4-4.2c1.7-4.7,1.1-5-5-2.5s-5.9,5.3,5,27.3
			c5.3,10.9,11.7,24.8,14.5,30.9c2.8,6.1,5.6,12.3,6.1,13.4c0.6,1.4-1.4,0.8-4.7-1.4c-9.2-5.9-14.2-0.3-26.7,29.3
			c-6.1,14.8-12.5,28.1-14.5,30.1c-4.2,4.2-10-4.7-17.3-26.2c-5.3-15.3-5.3-24.2,0-24.2c1.4,0,2.5-2,2.5-4.2s1.4-4.2,2.8-4.2
			c1.7,0,2.8-1.1,2.8-2.8c0-1.4-4.7-2.8-10.6-2.8H2603l-8.1-22.8c-9.2-26.5-11.4-30.1-18.7-30.1c-3.1,0-5.3-1.1-5.3-2.8
			c0-1.4,1.4-2.8,2.8-2.8c1.7,0,2.8-2,2.8-4.2c0-2.8,3.1-4.2,9.8-4.2c5.3,0,9.8-1.1,9.8-2.8c0-1.4-1.7-2.8-3.9-2.8
			c-4.2,0-8.6-5-6.4-7.2c2.2-2.2,18.7,8.4,18.7,12.3c0,1.7,2.8,3.3,6.4,3.3c3.3,0,9.2,3.3,12.8,7l6.4,7h-6.7c-3.6,0-9.2-2-12.3-4.2
			c-6.1-4.7-9.5-5.3-9.5-1.7c0,1.4,2.5,3.6,5.6,4.5c4.5,1.4,5.3,3.3,3.9,7.5c-1.4,4.5-0.8,5.6,2.8,4.2c2.2-0.8,5-0.6,5.9,0.8
			c1.1,1.7,8.4,2.5,16.2,2.5l14.5-0.3l-11.7-3.1c-6.7-1.4-12-3.9-12-5.3c0-1.4,2.2-1.9,5.3-0.8c2.8,0.8,7,0.8,9.5-0.3
			c7.5-2.8-1.7-17.6-12-19.8c-8.4-1.4-11.7-6.4-4.7-6.4c6.4-0.3-14.8-16.7-21.7-16.7c-9.2,0-8.9,2.2,0.8,5.9
			c4.2,1.7,6.1,3.6,4.2,4.5c-2,0.6-6.7-0.6-10.9-2.5c-6.1-3.1-7.5-5.6-8.1-17.6c-0.6-10,0.3-14.5,3.6-17.3c4.5-3.1,4.5-3.3,0-3.6
			c-3.9,0-4.5-1.7-3.3-7.5c1.4-7,0.6-7.8-6.1-8.4c-5.3-0.3-6.4,0.3-3.6,2.2c2.2,1.4,2.8,2.5,1.4,2.5c-1.4,0-0.8,1.7,0.8,3.9
			c2.5,3.1,1.1,4.2-8.1,6.7c-11.7,2.8-15.9-0.6-5-4.7c4.2-1.4,5-2.8,2.5-4.2c-1.7-1.1-5-1.4-7.2-0.6s-4.2,0.3-4.2-1.1
			s2.2-3.1,5.3-4.2c3.1-0.8,5.3-4.2,5.3-8.4c0-3.9-1.4-6.1-2.8-5.3s-5.6-0.3-9.2-2.8c-4.2-2.8-7.2-3.3-8.4-1.7
			c-0.8,1.7,0.3,2.8,2.5,2.8c8.4,0,4.5,5.9-6.7,10.6c-6.1,2.5-11.1,5.6-11.1,7c0,3.1,5,2.2,14.8-2.5l8.9-4.7l-5.3,5.8
			c-5,5.9-5,6.1,1.4,8.6c5,2,5.6,2.8,2.5,3.9c-8.6,3.1-19.5,3.9-19.5,1.7c0-3.9-4.7-3.1-9.5,1.7c-2.5,2.5-4.7,3.1-5.9,1.4
			c-3.9-6.4-20.9-1.1-20.9,6.7c0,1.7,1.4,1.4,3.3-0.6c2-1.9,5-3.3,7.2-3.3c2,0-6.4,7.5-18.4,16.7c-12.3,9.2-24.2,16.7-26.5,16.7
			c-3.9,0-7.5,5.6-7.5,11.4c0,3.9,8.9,3.1,27.3-2.8c15.6-4.7,16.7-4.7,20.1-0.3c2,2.8,5.6,4.5,8.1,3.9c17-3.1,22.6-3.3,22.6-1.1
			c0,1.7-3.3,2.8-7.5,2.8c-3.9,0-9.5,1.7-11.7,3.9c-2.5,2.2-8.1,5-12.5,6.1c-7.2,1.7-7.5,1.4-4.7-4.2c5.9-10.9-9.5-7.2-27.9,6.7
			c-9.2,7-17.3,12.5-18.1,12.5c-0.8,0-0.6-5.9,0.6-12.8l2-12.8l-9.8,6.4c-5.3,3.3-12,10.9-15,16.2c-3.6,7-7.5,10.3-12.5,10.9
			c-5.9,0.6-7.2,2-6.1,6.1c3.1,12,15.9,9.5,21.7-4.5c3.6-8.6,14.2-14.2,10.9-5.8c-0.8,2.5,2.2,4.7,8.9,7c9.8,2.8,11.7,2.5,25.9-6.1
			c23.7-14.5,47.4-24,58.5-23.7l10,0.3l-11.4,3.9c-6.4,2.2-14.5,7.2-18.1,11.1l-6.4,7l5,14.5c2.8,8.1,15.6,41.2,28.4,73.8
			c25.6,65.2,30.6,89.4,14.5,68.8c-11.4-14.5-35.7-5.3-35.7,13.4c0,5,3.1,10.9,8.4,16.4c4.7,4.5,8.4,9.2,8.4,10.3
			c0,6.1,8.4,8.6,29.3,8.6C2593.8,32658.4,2595.5,32657.9,2602.8,32650.3z M2374.8,32626.4c15.9-4.7,17.8-5,12.3-1.4
			c-15.9,10.3,47.1-8.4,93.3-27.9c4.7-1.9,10.6-4.5,13.1-5.8c2.8-1.4,7-2.5,9.2-2.5s4.2-1.1,4.2-2.5s3.9-3.1,8.4-4.2
			c11.1-2,36.2-18.7,36.2-23.4c0-2.2-1.7-3.3-3.9-2.5c-2.2,0.8-4.5,0.6-5-1.1c-0.6-1.4-5.3,1.1-10.6,5.6
			c-11.4,9.8-17.3,11.4-9.5,2.8c5.3-6.1,5.3-6.1-1.7-4.2c-3.9,1.1-9.2,2.8-11.7,3.3c-2.8,0.8-5,3.6-5,6.1c0,2.8-2.8,6.4-6.1,8.6
			c-5,2.8-5.6,3.1-2.8,0c4.5-5,4.2-10.9-0.8-10.9c-2.2,0-5.9,3.6-8.1,8.1c-2.2,4.2-7.8,10-12,12.8c-7.5,4.7-7.5,4.7,1.4-4.7
			c14.5-15.3,10.6-18.9-5.3-4.7c-5.3,4.7-12,9.8-15,11.1c-3.1,1.7-1.4-0.6,3.6-5c10-8.9,11.1-12,3.9-12c-2.8,0-7.8,3.6-11.1,8.1
			c-5.6,7.8-30.9,24-33.2,21.5c-0.8-0.8,4.2-4.7,10.9-8.9c13.7-8.4,24.5-17.8,24.5-20.9c0-1.4-4.2-1.7-8.9-0.8l-9.2,1.4l8.6-4.2
			c5-2.2,12.8-9.8,17.6-16.7c5-7,10-12.8,11.4-12.8c1.7,0,2.8-1.9,2.8-4.2c0-5-4.7-5.6-6.1-0.8c-0.8,2-3.6,3.6-6.1,3.6
			c-3.3,0-6.1,3.3-8.4,9.8c-2,5.8-5.3,10-8.6,10.9c-2.8,0.6-12,6.4-20.1,13.1c-24.2,19.5-53.8,36.5-73.3,42.1
			c-13.1,3.6-27.6,4.7-52.9,4.7l-34.8-0.3l16.7,4.2c33.4,8.1,59.1,7,89.2-3.3c3.1-1.1,0.8,0.6-4.7,3.9
			C2350,32631.4,2353.1,32633.1,2374.8,32626.4z M2346.4,32609.4c41-10.6,73.8-36.2,124-96.7c11.1-13.7,24.5-27.3,29.8-30.4
			c7-3.9,8.9-6.7,7-8.6c-5.3-5.3-16.7,3.9-48.8,38.4c-61,65.8-74.4,76.9-107.5,88c-24.8,8.4-63.5,10.3-84.1,4.2
			c-18.1-5.3-18.9-5.3-18.9-1.9C2247.8,32612.7,2315.5,32617.5,2346.4,32609.4z M2471.5,32561.5c6.4-4.5,13.9-8.6,16.7-9.8
			c2.5-1.1,4.7-3.1,4.7-4.7c0-3.6-4.7-3.6-7,0c-3.3,5.3-7.2,3.1-4.2-2.5c1.7-3.6,1.7-6.1,0.3-7.2c-1.7-0.8-4.2,1.4-6.1,4.7
			c-2,3.6-7,11.1-11.4,17C2454.8,32571.2,2456.2,32571.8,2471.5,32561.5z M2481.8,32562.3c5.6-6.7,1.7-7.8-4.2-1.4
			c-2.8,3.1-3.6,5.6-2.2,5.6C2477.1,32566.5,2479.9,32564.5,2481.8,32562.3z M2501.3,32553.9c3.6-3.9,5.3-7,3.6-7
			c-1.4,0-5.6,3.1-9.2,7s-5.3,7-3.6,7C2493.5,32560.9,2497.7,32557.8,2501.3,32553.9z M2523.6,32540.3c0-1.4-4.5,1.4-9.8,6.7
			c-5.3,5.3-9.8,10.6-9.8,12.3c0,1.4,4.5-1.4,9.8-6.7C2519.2,32547.3,2523.6,32542,2523.6,32540.3z M2529.2,32546.4
			c0-1.7-2-1.4-4.2,0.6c-2.2,1.9-4.2,4.7-4.2,6.1c0,1.7,2,1.4,4.2-0.6C2527.2,32550.6,2529.2,32547.8,2529.2,32546.4z
			 M2647.3,32512.7c7-19.5,12.8-37.9,12.8-41c0-8.6-5-9.2-10.3-0.8c-7,11.1-9.8,14.5-17,21.2c-3.6,3.3-9.2,9.5-12.3,13.9
			c-5.3,7.2-5.3,8.1-0.6,22.3c6.1,19.2,9.5,25.4,12.3,22.6C2633.4,32549.5,2640.4,32532.2,2647.3,32512.7z M2539.8,32544.2
			c2-3.1,2.5-5.6,1.1-5.6c-1.1,0-3.6,2.5-5.6,5.6c-2,3.1-2.5,5.6-1.1,5.6C2535.3,32549.8,2537.8,32547.3,2539.8,32544.2z
			 M2511.6,32539.7c-0.8-1.1-3.9-0.8-6.7,0c-4.2,1.7-4.2,2.2-0.8,4.5C2508.6,32547,2515,32543.1,2511.6,32539.7z M2505.5,32527.5
			c7.5-8.4,3.3-9.5-4.2-1.4c-3.6,3.9-5.3,7-3.6,7C2499.1,32533,2502.7,32530.5,2505.5,32527.5z M2780.5,32520.5
			c5.3-7.2,1.4-7.2-6.1,0c-9.8,9.2-11.4,15.9-2,8.1C2775.8,32525.8,2779.4,32522.2,2780.5,32520.5z M2770.5,32514.4
			c-2.2-2.5-12.8,8.9-12.8,13.9c0,2,3.3-0.3,7.5-4.2C2769.4,32519.9,2771.6,32515.5,2770.5,32514.4z M2791.7,32522.7
			c5-4.5,6.7-9.2,3.1-9.2c-2.8,0.3-12.8,13.9-10.3,13.9C2785.5,32527.5,2788.9,32525.5,2791.7,32522.7z M2537.6,32521.9
			c0-1.4-1.4-2.8-3.1-2.8c-1.4,0-2,1.4-1.1,2.8c0.8,1.7,2.2,2.8,3.1,2.8C2537,32524.7,2537.6,32523.6,2537.6,32521.9z M2807,32520.5
			c2.5-7-1.1-8.1-4.7-1.7c-2,4.2-2,5.8,0,5.8C2803.9,32524.7,2805.9,32522.7,2807,32520.5z M2493.3,32506.6
			c4.7-5.3,10.3-9.8,12.3-9.8c6.7,0,18.4-12.3,15.6-16.2c-1.7-3.1-7,0.3-20.9,13.4c-16.4,15.3-21.5,22.3-17,22.3
			C2484.1,32516.3,2488.5,32511.9,2493.3,32506.6z M2756.3,32513.5c0.8-1.4,0.6-2.8-1.1-2.8c-1.4,0-3.6,1.4-4.5,2.8
			c-0.8,1.7-0.6,2.8,1.1,2.8C2753.2,32516.3,2755.4,32515.2,2756.3,32513.5z M2829.3,32508c4.2,0,10-7.5,8.6-11.4
			c-1.1-3.6-21.7,13.1-21.7,17.8c0,1.4,2.2,0.8,5-1.7C2824,32509.9,2827.6,32508,2829.3,32508z M2515.3,32506.3
			c0-0.6-2.5-1.1-5.6-1.1c-3.1,0-5.6,1.1-5.6,2.5c0,1.4,2.5,1.9,5.6,1.1C2512.8,32508,2515.3,32506.9,2515.3,32506.3z
			 M2804.8,32498.5c6.4-6.7,6.4-7.2,1.4-7.2c-6.1,0-21.7,14.5-18.9,17.6C2789.7,32511.3,2796.7,32507.1,2804.8,32498.5z
			 M2868.8,32497.9c0.6-0.6,0.6-1.7-0.3-2.5c-2-2-27.3,10-27.3,12.8C2841.3,32510.2,2865.5,32501,2868.8,32497.9z M2745.4,32500.2
			c-6.1-1.4-8.4,0.8-5.9,5c1.4,2.2,3.1,1.9,6.1-0.6C2749.9,32501.3,2749.6,32501,2745.4,32500.2z M2821.2,32495.4
			c-3.1-3.1-12.8,5-11.4,9.2c1.4,3.1,2.8,2.5,7.2-1.9C2820.4,32499.6,2822,32496.3,2821.2,32495.4z M2782.7,32495.4
			c5-5.3,8.6-10.6,7.5-11.7c-2.2-1.9-15,9.2-18.9,16.7C2766.9,32508.2,2772.7,32505.7,2782.7,32495.4z M2734.8,32486.5
			c0.6-2-0.6-3.6-2.8-3.6c-2,0-5.6-2.5-7.8-5.6c-4.7-6.7-7.2-7-9.5-1.1c-1.1,2.8,0.6,6.7,4.5,10
			C2725.9,32491.8,2732.9,32492.1,2734.8,32486.5z M2841.3,32480.1c-2.8-1.7-2-4.5,3.6-11.1c9.2-10.6,9.5-13.9,1.7-13.9
			c-4.5,0-5.3,1.1-4.2,4.7c1.1,2.5-0.3,7-3.3,10.3c-2.8,3.3-6.4,9.2-8.4,13.7l-3.3,7.5l8.9-4.5
			C2842.4,32483.4,2843.8,32481.8,2841.3,32480.1z M2632.3,32485.7c0-1.4-1.7-2.8-3.9-2.8s-5,1.4-5.9,2.8c-0.8,1.7,0.8,2.8,3.9,2.8
			C2629.8,32488.5,2632.3,32487.3,2632.3,32485.7z M2897,32467.3c0,3.1,2.5,1.7,8.1-4.5c4.5-5,7.5-10,7-11.1
			c-2.5-4.2-17.3,5.9-28.7,19.5c-15.3,18.4-14.5,22.3,1.1,5.3C2892.2,32467.8,2897,32464.5,2897,32467.3z M2819.2,32480.1
			c5.3-4.2,5.6-5.3,2.2-5.6c-2.5,0-7.5,2.5-11.1,5.6c-5.3,4.2-5.6,5.3-2.2,5.6C2810.6,32485.7,2815.6,32483.2,2819.2,32480.1z
			 M2636.5,32477.3c0.8-1.4-0.3-2.8-2.5-2.8c-2.5,0-4.5,1.4-4.5,2.8c0,1.7,1.1,2.8,2.5,2.8
			C2633.7,32480.1,2635.6,32479,2636.5,32477.3z M2710.3,32475.9c0-2.2-1.1-4.2-2.8-4.2c-1.4,0-2.8,2-2.8,4.2s1.4,4.2,2.8,4.2
			C2709.2,32480.1,2710.3,32478.2,2710.3,32475.9z M2763.2,32475.9c0-4.7-0.6-5-6.7-2.5c-6.4,2.5-5.6,6.7,1.1,6.7
			C2760.7,32480.1,2763.2,32478.2,2763.2,32475.9z M2751.8,32468.7c3.6-4.7,5.6-9.2,4.5-10.3c-2-2.2-15.3,12-15.3,16.4
			C2741,32479.5,2745.1,32477,2751.8,32468.7z M2795,32468.7c3.9-3.1,7.2-8.4,7.2-11.7c-0.3-5.6-0.6-5.6-4.5,1.7
			c-2.2,4.2-5,7.5-6.1,7.5c-1.4,0-4.7,2-7.8,4.2c-4.5,3.3-4.5,3.9-0.8,4.2C2785.5,32474.5,2790.8,32472,2795,32468.7z
			 M2913.7,32468.4c0-3.6-6.4-1.4-7.8,2.8c-0.6,2,0.6,2.8,3.3,1.7C2911.7,32472,2913.7,32469.8,2913.7,32468.4z M2742.1,32460.6
			c3.9-6.1,6.4-11.1,5.3-11.1c-4.2,0-14.8,12.3-14.8,17.3C2732.6,32474,2733.7,32473.1,2742.1,32460.6z M2871.9,32455.6
			c-5.6-1.9-10.3,1.7-11.7,9.2l-1.4,7.2l8.1-7.8C2871.3,32460,2873.6,32456.1,2871.9,32455.6z M2880,32465.9
			c3.6-3.1,5.9-6.4,4.7-7.2c-1.1-1.1-5.3,1.4-9.5,5.6C2866.6,32472.9,2870,32474.3,2880,32465.9z M2646.5,32464.2
			c3.6-4.2,3.1-4.5-4.5-2.5c-11.4,2.8-15.6,7.2-6.4,7.2C2639.5,32469,2644.5,32467,2646.5,32464.2z M2976.7,32409.9
			c17-23.7,42.9-65.8,42.9-69.7c0-3.6-15.6,7.8-31.2,22.8c-7.2,7-15,12.3-17.6,11.7c-2.8-0.6-10.3,4.7-18.1,12.8
			c-12,12.3-13.7,13.4-15,8.4l-1.4-5.9l-9.8,5.9c-5.6,3.3-11.7,5.3-13.9,4.5s-8.6,2.8-14.5,7.8c-6.7,5.9-10.9,8.1-11.7,5.6
			c-1.4-4.5-9.5-4.5-13.9,0c-2.8,2.8-3.9,2.8-5.9,0c-1.4-2.5-5.3-1.7-15.9,3.6c-16.2,8.4-15,8.1-15,2.5c0-3.6-2-4.2-9.8-3.1
			c-8.9,1.4-9.8,1.1-9.8-5.6c0-5.9-1.1-7-6.1-5.6c-3.6,0.6-8.6,2.2-11.1,3.3c-4.5,1.7-4.7,0.8-3.3-6.7c1.4-6.7,0.8-8.6-2.8-8.6
			c-5.6,0-15.6,9.8-15.6,15.3c0,2.5,1.7,5,3.9,5.9c2.2,0.8,4.7,4.7,5.9,8.6c1.4,6.4,2.8,7,11.7,5.6c9.5-1.7,9.8-1.4,5.3,3.3
			c-4.5,4.7-4.5,5.6-0.3,9.8c4.7,4.7,7.5,3.9,16.2-3.3c6.1-5.3,6.1-1.4,0,5.6c-4.2,4.7-4.2,5,3.1,5c5,0,12-4.2,21.2-12.8
			c15.3-14.5,18.4-13.4,5.3,1.7l-8.4,9.8l7.5,0.8c4.2,0.6,8.4,0,9.2-1.4c6.4-9.8,14.5-18.1,16.2-16.4c0.8,0.8-0.8,4.5-4.2,8.1
			c-13.1,13.9-3.3,14.2,14.5,0.6c15.3-11.7,17.3-8.4,2.5,3.9c-6.7,5.6-8.9,8.6-5.9,8.6c2.5,0,11.4-6.7,20.1-14.5
			c20.6-19.5,32.3-28.4,32.3-24.8c0,1.4-3.3,5.3-7.5,8.4c-10,7.5-23.1,20.6-23.1,23.4c0,9.2,23.1-9.5,45.4-36.8
			c13.1-15.9,10.9-7.8-2.5,10.6c-7.2,9.5-12.3,17.8-11.7,18.7c3.1,2.8,9.8-2.5,21.5-17.3c18.4-22.8,17.3-15.6-1.1,9.2
			c-28.1,37.6-30.4,41.8-11.4,21.7C2952.7,32440.3,2968,32421.6,2976.7,32409.9z M2792.8,32456.4c7.8-10.3,7.5-14.5-0.8-11.4
			c-3.6,1.4-3.9,2.5-1.4,4.2c2.8,1.7,1.7,3.3-3.3,7c-3.9,2.5-7.2,5.9-7.2,7.2C2780,32469,2785.5,32465.9,2792.8,32456.4z
			 M2825.9,32463.1c3.1-4.7-0.3-5.9-4.2-1.1c-2.2,2.5-2.2,4.2-0.6,4.2C2822.9,32466.2,2825.1,32464.8,2825.9,32463.1z
			 M2816.2,32460.6c2.2-1.4,3.1-3.3,2-4.5c-1.1-1.1-4.2,0-6.7,2.5C2806.4,32463.7,2809.2,32465.1,2816.2,32460.6z M2694.7,32456.4
			c0.8-2.2,0.3-4.2-1.1-4.2c-1.7,0-2.8,1.9-2.8,4.2c0,2.2,0.6,4.2,1.1,4.2C2692.5,32460.6,2693.6,32458.7,2694.7,32456.4z
			 M2733.7,32450.8c5.3-7.8,5.6-9.8,1.7-9.8c-1.4,0-4.5,3.9-7,8.4C2723.1,32459.5,2727.3,32460.6,2733.7,32450.8z M2781.1,32447.8
			c4.5-5.3,7.2-10.3,6.7-11.1c-2.5-2.2-10.6,2.2-10.6,5.9c0,1.9-2,5-4.2,7c-4.5,3.6-5.6,8.6-2,8.1
			C2772.2,32457.5,2776.6,32453.1,2781.1,32447.8z M2929,32452.2c2.8-3.1,4.5-6.1,3.9-7c-2-1.7-13.7,6.7-13.7,10
			C2919.3,32459.5,2923.7,32458.1,2929,32452.2z M2729.8,32435c0-1.1-1.4-2.8-2.8-3.6c-2.8-1.7-8.4,9.5-8.4,16.2
			C2718.7,32450.8,2729.5,32438.6,2729.8,32435z M2713.9,32441.9c0.6-2.8,2.2-7.2,3.3-10.3c1.7-3.9,1.1-4.7-1.7-3.9
			c-2,0.6-4.5,5.3-5.6,10C2708.1,32446.9,2711.4,32450.3,2713.9,32441.9z M2780.5,32426.1c-1.7-2.8-17.3,13.4-17.3,17.8
			c0,1.7,4.2-1.1,9.5-6.1C2777.7,32432.7,2781.4,32427.4,2780.5,32426.1z M2596.1,32435.2c0-3.3-2-5.3-5.6-5.3c-4.7,0-5,0.8-2.2,7
			C2591.6,32444.4,2596.1,32443.6,2596.1,32435.2z M2433.6,32430c6.7-0.3,16.4-7.8,13.4-10.3c-1.1-1.4-2.8-0.6-3.3,1.1
			c-0.8,2.8-2.8,2.8-6.7,0.6c-6.7-3.3-17,2.2-22,11.7c-3.1,5.6-3.1,5.6,5.3,1.4C2424.7,32431.9,2430.8,32430,2433.6,32430z
			 M2707.5,32424.7c0-5.9-4.5-0.6-6.7,8.1c-2,6.7-1.7,6.7,2.2,1.7C2705.6,32431.3,2707.5,32426.9,2707.5,32424.7z M2753.5,32432.5
			c2.8-4.2-0.3-6.4-5.6-4.2c-2.5,0.8-3.6,2.8-2.8,4.5C2747.4,32436.4,2751.3,32436.4,2753.5,32432.5z M2696.4,32420.8
			c0-1.4-1.1-1.4-2.8-0.6c-1.4,0.8-2.8,3.9-2.8,6.4c0,4.2,0.6,4.2,2.8,0.6C2695,32424.9,2696.4,32421.9,2696.4,32420.8z
			 M2774.4,32415.7c0-1.4-1.4-2.5-2.8-2.5c-2.8,0-8.4,11.4-8.4,16.2C2763.5,32432.2,2774.4,32418.5,2774.4,32415.7z M2651.8,32421.9
			c2-3.6,2-7.8,0-12.5c-3.3-9.2-7.2-9.2-8.9-0.3c-0.8,3.9-0.3,7,1.1,7c1.4,0,1.7,2.5,0.8,5.6
			C2642.6,32428.8,2647.9,32428.8,2651.8,32421.9z M2733.7,32425.5c2.5-0.8,4.5-3.3,4.5-5.6c0-4.7-3.3-5-7.8-0.6
			C2724.2,32425.5,2725.9,32428.6,2733.7,32425.5z M2686.9,32414.1c-2-1.9-7.2,2-7.2,5.3c0,1.7,1.7,1.7,4.2-0.6
			C2686.3,32416.9,2687.5,32414.6,2686.9,32414.1z M2723.7,32412.1c0.8-3.3-0.3-4.7-2.8-3.9c-2,0.8-4.2,3.6-4.5,6.1
			c-0.8,3.3,0.3,4.7,2.8,3.9C2721.2,32417.4,2723.4,32414.6,2723.7,32412.1z M2681,32408.2c-2-2.2-9.8,2-9.8,5c0,1.7,2,1.7,5.6-0.6
			C2679.7,32410.7,2681.6,32408.8,2681,32408.2z M2765.2,32409.1c0.8-2.5,0.8-5.3-0.3-6.1c-2-2-10,4.5-10,7.8
			C2754.9,32414.9,2763.2,32413.5,2765.2,32409.1z M2449.8,32407.7c0.8-1.4,0.6-2.8-1.1-2.8c-1.4,0-3.6,1.4-4.5,2.8
			c-0.8,1.7-0.6,2.8,1.1,2.8C2446.7,32410.5,2449,32409.3,2449.8,32407.7z M2757.7,32393.2c0-4.5-5-1.9-9.5,4.7
			c-7,10.6-5,14.8,2.5,5.6C2754.6,32399,2757.7,32394.3,2757.7,32393.2z M2711.4,32403.2c2.5-6.1,2.2-6.7-2.5-6.7
			c-2.2,0-4.2,2.5-4.2,5.6C2704.7,32408.8,2708.9,32409.6,2711.4,32403.2z M2742.1,32396.2c2.8-6.1,4.5-11.7,3.9-12.5
			c-2.2-2.2-10,8.4-12,16.4C2730.9,32411.3,2735.9,32409.1,2742.1,32396.2z M2481.8,32395.1c3.9-4.5,2.8-5-3.9-2.5
			c-2.5,0.8-4.5,2.8-4.5,4.2C2473.5,32400.7,2477.9,32399.9,2481.8,32395.1z M2696.4,32393.5c0-1.4-1.1-2.5-2.8-2.5
			c-1.4,0-2.8,2-2.8,4.5c0,2.2,1.4,3.3,2.8,2.5C2695.3,32397.1,2696.4,32395.1,2696.4,32393.5z M2776.9,32390.9
			c1.4-4.5,2-8.4,1.1-8.4c-3.3,0-12,9.2-12,13.1C2766,32402.6,2773.8,32399.3,2776.9,32390.9z M2673.8,32391.2c1.7-2.8,2-5.9,1.1-7
			c-2.5-2.2-9.2,3.9-9.2,8.4C2665.7,32398.2,2670.7,32397.4,2673.8,32391.2z M2611.4,32390.9c-0.8-1.4-2.8-2.8-4.5-2.8
			c-1.4,0-2.5,1.4-2.5,2.8c0,1.7,2,2.8,4.5,2.8C2611.1,32393.7,2612.2,32392.6,2611.4,32390.9z M2733.4,32385.4
			c4.2-7,4.5-8.4,1.1-8.4c-2.2,0-5.6,3.9-7.2,8.4c-1.4,4.7-2,8.4-0.8,8.4S2730.9,32390.1,2733.4,32385.4z M2767.4,32379.8
			c6.1-12,5-15.9-2.8-8.4c-7,6.4-9.5,16.7-4.2,16.7C2761.8,32388.2,2764.9,32384.5,2767.4,32379.8z M2713.1,32380.6
			c0-2.8,0.8-8.1,2-12c1.7-6.1,1.4-6.7-2.8-3.1c-5,3.9-6.7,19.8-2,19.8C2712,32385.4,2713.1,32383.1,2713.1,32380.6z
			 M2725.3,32368.4c-2.5-4.5-6.7,2.8-6.4,11.4v7l4.2-7.8C2725.3,32374.8,2726.5,32370.1,2725.3,32368.4z M2494.4,32377
			c2.8-3.1,4.2-6.4,3.3-7.5c-2.2-2-13.1,7-13.1,10.9S2489.1,32382.9,2494.4,32377z M2756.3,32371.4c2.2-4.5,4.2-9.8,4.2-11.7
			c-0.3-5-13.9,10.9-13.9,16.2C2746.5,32382.6,2751.8,32380.4,2756.3,32371.4z M2703.1,32369.8c2.5-10-0.3-12-3.9-2.8
			c-3.3,9.2-3.3,10-0.3,10C2700.3,32377,2702.2,32373.7,2703.1,32369.8z M2745.4,32361.7c2.8-7,3.3-11.4,1.4-14.8
			c-3.1-5.6-4.2-3.3-7.2,14.2C2737.3,32374.2,2740.1,32374.5,2745.4,32361.7z M2486.6,32365.3c-0.6-2-9.2-23.7-18.7-48.2
			c-19.2-48.8-31.8-70.5-45.7-79.4c-12.3-7.2-12.8-7.2-12.8,3.3c0,12.5-9.5,21.7-22.3,21.7c-13.7,0-20.1-7.2-18.9-21.2
			c0.6-8.9,2.2-11.7,9.5-15c4.7-2.2,8.1-5.6,7.5-7.5c-0.6-2-12-9.5-25.1-16.7l-24-13.4l41.2-0.8c41-0.8,41.5-0.6,48.8,6.4
			c14.8,14.2,36.5,14.2,50.7,0c6.1-5.8,9.8-7,31.8-7.8l24.8-0.8l-27-0.6c-24-0.6-27.3,0-29.8,4.7c-7.2,13.4-34.3,14.5-47.6,1.7
			l-7.5-7l-48.5,0.6l-48.5,0.8l28.7,16.4l28.7,16.4l-8.4,5c-4.5,2.8-8.9,7.5-10,10.9c-4.7,15,8.1,33.4,24,33.4
			c11.1,0,24.8-12.5,24.8-22.6c0-9.5,0.6-9.5,9.8-3.6c12,7.8,25.4,32.3,43.5,79.7c9.8,25.9,18.9,46.8,20.3,46.8
			C2486.9,32368.7,2487.4,32367,2486.6,32365.3z M2621.1,32364.5c0-2.2-1.1-4.2-2.5-4.2c-3.6,0-6.1,4.5-3.9,6.7
			C2617.8,32370.1,2621.1,32368.7,2621.1,32364.5z M2693.6,32359.5c0-1.4-1.1-1.4-2.8-0.6c-1.4,0.8-2.8,3.9-2.8,6.4
			c0,4.2,0.6,4.2,2.8,0.6C2692.2,32363.6,2693.6,32360.6,2693.6,32359.5z M2682.4,32360c0-1.7-1.1-1.9-2.8-1.1
			c-1.4,0.8-2.8,3.1-2.8,4.5c0,1.7,1.4,2,2.8,1.1C2681.3,32363.6,2682.4,32361.4,2682.4,32360z M2505.8,32348.3
			c2-9.5,11.1-13.7,22.6-10.6c5.3,1.7,10.6,0.8,16.2-1.9c17.3-8.6,37.1-12.3,73.8-13.1c20.6-0.6,39-1.4,40.4-2
			c1.7-0.3-28.4-1.4-66.9-2.2l-69.7-1.4l-12-30.6c-9.5-24.5-11.7-33.4-10.9-44c0.8-10.9,0.3-13.9-4.5-17.3c-3.3-2.2-5.3-4.5-4.5-5
			c0.6-0.6,5.6-3.6,11.1-7c5.3-3.3,12.3-8.4,15-11.7c5-5.6,5-5.6-13.1-5.6c-13.1,0-19.2,1.1-22,4.5c-13.1,15.6-42.9,16.4-58.2,1.1
			c-5-5-8.6-5.6-31.5-5l-25.6,0.8l11.7,6.7c7.2,4.2,12.8,9.8,14.5,14.8c2.5,7.5,2.2,8.1-7.5,12.8c-12.3,5.6-14.5,13.9-6.1,21.5
			c4.5,4.2,7.2,4.7,13.4,2.5c7-2.5,7.5-3.9,7.5-18.7c0-18.9,2.5-20.1,21.7-7.2c23.4,15.3,33.4,31.8,57.7,95
			c13.4,34.5,15,37.6,19.8,34.8C2501.6,32357.8,2504.7,32352.8,2505.8,32348.3z M2733.4,32361.1c0.8-1.4,2.2-6.4,3.3-11.1
			c1.4-7.2,0.8-9.2-2.5-9.2c-2.5,0-4.5,1.1-4.5,2.5c0,1.4-0.8,6.4-1.7,11.1C2726.5,32362.2,2730.1,32366.7,2733.4,32361.1z
			 M2527.8,32356.7c6.4-5,3.1-11.4-3.9-7.5c-6.4,3.3-9.8,11.1-5,11.1C2520.8,32360.3,2524.7,32358.6,2527.8,32356.7z
			 M2671.3,32357.5c0-1.4-0.6-2.8-1.1-2.8c-0.8,0-2.2,1.4-3.1,2.8c-0.8,1.7-0.3,2.8,1.1,2.8
			C2669.9,32360.3,2671.3,32359.2,2671.3,32357.5z M2723.7,32345.5c0.6-7.8-0.3-10.3-3.3-10.3c-3.3,0-4.5,3.1-4.5,11.4
			C2715.9,32361.1,2722.6,32360,2723.7,32345.5z M2586,32347.8c-2-4.7-5.6-5.6-7.8-1.7c-1.1,1.4,0,3.3,1.7,3.9
			C2586.3,32352.5,2587.7,32351.9,2586,32347.8z M2710.3,32340.8c0-7.8-1.1-11.1-3.9-11.1c-5,0-9.2,12-4.7,13.4
			c1.7,0.6,3.1,2.8,3.1,5c0,2.2,1.4,3.9,2.8,3.9C2709.2,32351.9,2710.3,32346.9,2710.3,32340.8z M2771.6,32320.7
			c24.5-64.9,36.8-84.1,59.9-94.5c16.4-7.5,17.6-7,15.9,8.1c-0.8,10.3,0,14.8,3.6,18.1c5.9,5.9,13.7,6.1,19.5,0.3
			c6.7-7,4.2-15.9-6.1-20.6c-13.4-6.1-12.3-14.8,3.6-25.9l12.8-8.9l-24.5-0.8c-20.9-0.6-25.1,0-30.1,4.7
			c-16.4,15.3-46.8,14.8-59.9-0.8c-4.2-5-38.2-6.7-35.1-1.7c0.8,1.7,6.7,2.8,12.8,2.8c10.3,0,10.9,0.6,8.1,5.6
			c-2.5,4.7-2.2,5.6,2.2,5.6c2.8,0,7.5,1.9,10.6,4.2c5.3,4.2,5.3,4.2-1.4,10c-5.6,4.7-6.7,7.8-6.1,17.6c0.6,8.4-2.5,20.3-9.5,39.6
			c-5.9,15.3-11.7,29.3-13.1,31.2c-2,2-10.6,3.3-22.8,3.6l-19.8,0.3l15.3,3.3c8.4,2,19.8,6.1,25.1,9.5c5.3,3.3,12.5,7.2,16.2,8.9
			c3.3,1.4,6.1,4.5,6.1,7C2754.9,32358.6,2760.7,32349.4,2771.6,32320.7z M2670.7,32341.6c-4.2-10-10.6-17.6-10.6-12.3
			c0,4.7,8.9,19.8,11.7,19.8C2673,32349.2,2672.4,32345.8,2670.7,32341.6z M2526.4,32343.6c0-1.4-2-2.8-4.2-2.8s-4.2,1.4-4.2,2.8
			c0,1.7,2,2.8,4.2,2.8S2526.4,32345.3,2526.4,32343.6z M2545.9,32343.6c0-1.4-1.1-2.8-2.8-2.8c-1.4,0-2.8,1.4-2.8,2.8
			c0,1.7,1.4,2.8,2.8,2.8C2544.8,32346.4,2545.9,32345.3,2545.9,32343.6z M2693,32341.4c2-1.4,2.8-4.5,1.7-7c-2-5-6.7-6.4-6.7-2.2
			c0,1.4-0.8,4.5-1.7,7C2684.4,32343.9,2687.2,32344.7,2693,32341.4z M2680.8,32331.3c-1.7-4.5-6.7-6.4-6.7-2.2
			c0,2.8,6.1,9.2,7.5,7.8C2682.2,32336.3,2681.9,32333.8,2680.8,32331.3z M2824,32314.3c9.5-11.1,17.3-21.2,17.3-22
			c0-5.3-9.5,0.3-24.5,13.9c-14.2,12.8-16.7,16.4-14.5,20.3c1.4,2.8,1.7,5.9,0.8,7c-0.8,0.8-0.6,1.7,0.8,1.4
			C2805.3,32334.9,2814.2,32325.5,2824,32314.3z M2798.1,32316.3c-1.7-2-9.5,8.1-9.5,12c0,1.7,2.5-0.3,5.6-3.9
			C2797.2,32320.7,2798.9,32317.1,2798.1,32316.3z M2839,32312.9c5.9-8.1,9.8-15.6,8.9-16.4c-2.2-2.2-26.2,25.1-26.2,29.8
			C2821.8,32333.3,2828.7,32328,2839,32312.9z M2686.1,32319.3c-3.6-0.6-9.8-0.6-13.9,0c-4.5,0.6-1.4,1.1,6.1,1.1
			C2686.1,32320.5,2689.4,32319.9,2686.1,32319.3z M2738.2,32281.2c8.6-26.7,10.3-46.3,3.6-48.2c-2.2-0.8-2.8,1.7-1.7,8.6
			c1.1,7.2-0.8,16.7-7.5,35.1l-9.2,25.1l-97.8-0.6l-97.8-0.8l-7.8-19.5c-8.4-20.9-9.8-29.8-6.4-39.6c1.4-4.7,1.1-6.4-2.2-6.4
			c-5,0-8.4,9.5-6.1,18.4c1.1,3.6,5.6,17.3,10.3,30.4l8.6,23.7h102.5h102.5L2738.2,32281.2z M2617,32289.5c5.3-3.9,8.6-7.5,7.2-8.6
			c-3.3-2-1.1-9.2,4.5-15.9c4.5-5,0.6-9.5-6.1-6.7c-4.7,1.7-2.8-16.2,3.1-25.4c4.5-7,2.5-14.8-3.6-14.8c-2.2,0-8.9-3.6-14.8-8.4
			c-10.9-8.6-16.7-10.6-16.7-5.3c0,1.4,3.9,4.2,8.4,5.9c4.7,1.4,9.8,5.3,11.4,8.4c2.5,4.5,2.2,5-2.2,2.5c-8.9-5-26.7-11.4-28.1-10.3
			c-3.3,3.6,2.5,10.3,7.5,8.6c3.1-0.8,6.1-0.3,7.2,1.4c0.8,1.4,3.6,2.8,6.1,2.8c13.7,0,18.9,20.6,10.9,40.1
			c-4.2,10.3-8.6,32.3-6.1,32.3C2606.4,32296.2,2611.4,32293.2,2617,32289.5z M2691.1,32290.4l6.7-5.9l-6.1,1.4
			c-4.2,1.1-6.4,0-6.4-2.5c0-2.2-2.8-3.9-6.1-3.9h-5.9l5.9-6.4c4.5-4.7,5.3-7.2,3.1-9.5c-2.2-2.2-1.4-3.9,2.8-6.1
			c8.1-4.5,7.8-12-0.3-10.9c-5,0.6-7.5,4.7-12.5,20.3c-8.6,27.3-8.4,29.3,3.1,29.3C2680.8,32296.2,2687.2,32294,2691.1,32290.4z
			 M2605.3,32266.1c5.3-12.3,6.1-20.1,2-20.1c-1.4,0-2.8,2.2-2.8,4.7s-3.3,8.4-7.5,12.5c-6.4,6.7-7,8.4-3.6,10.6
			C2599.7,32277.8,2600.2,32277.5,2605.3,32266.1z M2669.9,32258c1.1-5.8,3.1-12,4.7-13.9c3.6-4.5,1.7-16.2-2.5-15.9
			c-2,0.3-8.1,0.6-13.7,0.8c-8.6,0.3-9.8,0.8-6.7,4.5c2,2.2,5.3,4.2,7.2,4.2c4.7,0,5,3.3,0.6,7.8c-4.5,4.5-13.1,4.2-22.8-0.8
			c-10-5.3-10-5.3-10,1.4c0,4.7,2,5.6,10.9,5.6c6.1,0,12,1.4,12.8,2.8c0.8,1.7,4.2,2.8,7.2,2.8c3.3,0,5.3,2,5.3,5.6
			C2662.9,32272.3,2667.7,32268.9,2669.9,32258z M2587.7,32258.6c3.6-3.9,5.3-7,3.6-7c-1.4,0-5.6,3.1-9.2,7s-5.3,7-3.6,7
			C2579.9,32265.6,2584.1,32262.5,2587.7,32258.6z M2576.6,32258.6c2-2.5,2.8-5,2-6.1c-2.2-1.9-10.3,4.2-10.3,7.8
			C2568.2,32264.2,2572.7,32263.3,2576.6,32258.6z M2566.3,32251.9c-3.9-2.8-3.9-15-0.3-17.3c2.8-1.9,2.8-3.1,0-5.8
			c-5-5-4.2-7.8,2.2-7.8c4.5,0,5.6-1.9,5.6-9.8c0-10,2.2-12,7.5-6.7c2.5,2.5,3.9,1.4,5.3-4.2l1.7-7.2l14.5,8.4
			c13.7,7.5,15,7.8,20.6,3.9c3.9-2.8,6.1-7.2,6.4-13.1c0-5,0.8-7.2,1.7-5.3c2.5,6.1,9.5,3.6,12.3-4.7c2-5.6,4.2-7.5,7.5-6.7
			c2.8,0.6,7.8-2,11.7-6.1c5.9-6.1,6.1-7.8,2.8-10c-17-11.1-50.2-30.4-52.4-30.4c-1.4,0-5.9,4.7-10,10.9
			c-4.2,5.9-14.5,15.6-23.1,21.5c-15.6,10.9-20.3,15.3-41.8,38.2c-6.7,7-17,14.8-23.1,17.8c-5.9,2.8-11.1,5.6-11.1,6.4
			s12.8,9.2,28.7,18.7c21.2,12.8,29.3,16.4,32,14.2C2566.8,32255,2567.4,32252.8,2566.3,32251.9z M2735.4,32249.7
			c0-22.3-5.6-28.4-15.3-17.6c-6.1,6.7-11.7,7-18.7,0.8c-5.6-5-7-4.7-8.4,3.3c-0.8,4.7,0.8,5.6,12.3,6.4c10.6,0.6,13.4,2,15,7
			C2724.5,32263.6,2735.4,32263.6,2735.4,32249.7z M2586.3,32246.1c2-3.3-3.3-3.3-11.1,0c-5,2.2-4.7,2.5,2,2.5
			C2581.3,32248.9,2585.5,32247.7,2586.3,32246.1z M2603,32243.3c0.8-1.4-0.3-2.8-2.5-2.8c-2.2,0-5,1.4-5.9,2.8
			c-0.8,1.7,0.3,2.8,2.5,2.8C2599.4,32246.1,2602.2,32245,2603,32243.3z M2587.4,32238.8c0.6-0.6-3.3-1.1-8.9-1.1
			c-5.6,0-10.3,1.1-10.3,2.8C2568.2,32242.7,2584.4,32241.3,2587.4,32238.8z M2646.5,32237.7c-6.4-5.6-14.2-7.5-14.2-3.3
			c0,2.5,10.9,8.1,16.7,8.4C2651.8,32243,2651,32241.3,2646.5,32237.7z M2688.6,32230.7c1.1-7,11.1-8.6,17-3.1
			c4.5,4.7,10.3,5.9,10.3,2.2c0-1.1-3.6-3.6-8.4-5.6c-4.5-2.2-17.6-12.5-29-23.1c-20.3-18.9-30.9-24.2-29-14.2
			c0.6,2.5,3.6,5,6.7,5.6c3.3,0.6,8.9,4.2,12.5,8.1l6.7,7.2l-9.2-4.7c-5-2.8-10.9-4.2-12.5-3.6c-2,0.8,1.4,3.3,7,5.9
			c12,5.3,18.9,13.9,18.9,24.2C2679.7,32242.2,2686.3,32243,2688.6,32230.7z M2606.7,32234.4c-0.8-2-3.1-3.6-5-3.6
			c-2,0-4.2,1.7-4.7,3.6c-0.8,1.9,1.1,3.3,4.7,3.3S2607.2,32236.3,2606.7,32234.4z M2578.5,32224.9c-0.8-0.8-3.3-1.1-5.3-0.3
			c-2.2,0.8-1.4,1.7,1.7,1.7C2578,32226.6,2579.6,32225.7,2578.5,32224.9z M2747.9,32223.8c0.8-1.4-0.8-2.8-3.9-2.8
			c-3.3,0-5.9,1.4-5.9,2.8c0,1.7,1.7,2.8,3.9,2.8S2747.1,32225.4,2747.9,32223.8z M2671.3,32221c0-3.6-30.6-3.6-36.2,0
			c-2.8,2,2,2.8,16.2,2.8C2662.7,32223.8,2671.3,32222.7,2671.3,32221z M2724.2,32218.5c0-4.7-5.6-6.4-13.4-4.5
			c-5.6,1.4-6.4,2.2-3.1,4.5C2713.1,32221.8,2724.2,32221.8,2724.2,32218.5z M2634.8,32211.5c3.9-4.7,0-8.1-6.4-5.6
			c-4.7,2-5.6,4.5-2.5,7.5C2628.7,32216.5,2631.2,32215.7,2634.8,32211.5z M2658.5,32212.9c2.8-4.2-12-5.3-15.3-1.4
			c-2.5,3.1-1.7,3.9,5.3,3.9C2653.2,32215.4,2657.6,32214.3,2658.5,32212.9z M2735.4,32209.8c0-1.4-2.5-2.2-5.6-1.9
			c-5.6,0.3-7,2.2-3.9,5.6C2728.1,32215.4,2735.4,32212.6,2735.4,32209.8z M2715.9,32207.1c0-3.3-19.2-25.1-22.3-25.1
			c-1.4,0-3.1,2.5-4.2,5.6c-1.4,4.5-2.5,5-7,2.2c-10-6.4-8.9,0,2,10c8.1,7.5,13.1,10,21.2,10
			C2711.1,32209.8,2715.9,32208.7,2715.9,32207.1z M2545.4,32186.4c12.8-17.8,10.9-17.8-6.4-0.3c-8.4,8.6-15.3,17-15.3,18.4
			C2523.6,32209.6,2536.7,32198.7,2545.4,32186.4z M2649,32199c0-1.7-1.1-3.3-2.5-4.2c-3.6-2.2-11.7,1.1-9.8,4.2
			C2638.7,32202.3,2649,32202.3,2649,32199z M2672.7,32179.2c-1.1-3.1-0.6-5.6,1.1-5.6c1.7,0,3.1-1.1,3.1-2.8
			c0-4.2-7.2-3.3-11.1,1.4c-2.8,3.3-2.8,5,0,8.4C2670.7,32186.4,2674.6,32185.9,2672.7,32179.2z M2689.1,32180.3
			c2.2-6.1,2.2-6.7-2.2-6.7c-5,0-8.1,4.5-5.9,8.4C2683.6,32186.2,2687.2,32185.3,2689.1,32180.3z M2688,32161.1
			c-7.2-7.8-11.1-8.9-11.1-3.3c0,5.3,5.9,10.3,12.3,10.3C2694.1,32168.1,2694.1,32167.8,2688,32161.1z M2601.6,32136.3
			c4.5-7,8.4-13.9,8.4-15.9c0-4.2-22,20.1-22.3,24.8C2587.7,32151.9,2593.3,32148.3,2601.6,32136.3z"/>
		<path class="st1" d="M2548.7,32647.8c0-3.1-3.1-6.7-7-8.4c-8.1-3.9-11.7-15-7.2-24.5c4.5-9.8,18.1-9.2,24.5,1.1
			c2.5,4.2,5,8.1,5.6,8.6c2.2,3.1,12-9.8,12-15.6c0-3.9-12.5-39.6-27.9-79.1c-15.3-39.8-27.9-74.4-27.9-76.3
			c0-7.2,14.2-13.9,30.4-14.2c27-0.8,27.6,0,49,60.7c17.6,50.2,23.7,63.5,29.8,63.5c5.6,0,13.4-12.3,23.1-37.1c7.2-18.4,12-27,15-27
			c2.5,0.3,11.7,10,20.3,22l16.2,21.7l-11.1,29.8c-12.5,33.2-13.1,36.8-6.7,45.7c5.6,8.1,7.2,7.8,12.8-2.5c4.2-7,6.4-8.4,13.9-7.5
			c12.5,1.1,18.7,13.1,12.3,23.1c-2.2,3.6-6.7,7.2-9.8,8.4c-2.8,0.8-5,3.6-4.7,6.4c0.3,4.2-2.8,4.7-21.7,5.6
			c-21.2,0.8-22.3,0.6-30.9-7.8c-17.3-16.7-38.2-17-56.6-1.1c-10.6,8.9-12.3,9.5-32.3,9.5
			C2551.2,32652.8,2548.7,32652.3,2548.7,32647.8z M2597.7,32638.9c19.5-17,44-17,63.5,0c8.4,7.2,11.4,8.4,26.7,8.4
			c14.8,0,17-0.6,14.2-3.9c-2.8-3.3-1.7-4.2,5.3-5.9c10.9-2.5,17.6-11.4,13.7-18.7c-5.3-9.8-15.9-4.7-20.3,9.8
			c-1.4,4.5-2.2,4.7-10,0.6c-17-8.9-17.6-20.6-2-60.2l9.5-24.2l-14.8-20.1l-14.8-20.3l-4.5,10.9c-20.6,50.7-25.9,57.7-39,51.8
			c-8.9-4.2-11.7-10-30.9-65.8c-8.6-25.9-18.4-49-21.2-51.8c-8.1-7.2-46.8-4.7-46.8,3.3c0,1.4,12,33.7,26.7,71.3
			c30.1,77.7,32.9,90.8,23.1,100c-10.9,9.8-17,9.2-19.8-1.4c-2.2-8.1-3.6-9.2-10-8.4c-5.9,0.6-7.8,2.5-8.4,8.6
			c-0.8,6.7,0.6,8.4,10.3,12.5c8.6,3.9,10.6,5.9,8.1,8.4s0.8,3.3,14.2,3.3C2586.3,32647.3,2589.4,32646.4,2597.7,32638.9z"/>
		<path class="st1" d="M2556.5,32432.2c2.5-2.5,4.2-2.5,6.7,0c2.5,2.5,2,3.3-3.3,3.3C2554.6,32435.5,2554,32434.7,2556.5,32432.2z"
			/>
		<path class="st1" d="M2927.9,32245.2c-10.3-5-13.4-17.6-6.7-26.7c10.9-14.2,31.5-8.4,31.5,8.9c0,10.6-2,13.9-10.3,18.4
			C2935.1,32249.4,2936,32249.4,2927.9,32245.2z M2945.5,32238.8c6.1-5.8,5.6-13.9-1.1-20.6s-8.1-6.7-16.2-1.1
			c-6.7,4.5-7.8,12.3-3.3,20.9C2928.5,32244.4,2939.6,32245,2945.5,32238.8z"/>
		<path class="st1" d="M2929.6,32238.5c-3.1-2.8-2.2-20.3,0.8-20.3c1.7,0,2.8,2.2,2.8,5c0.3,4.5,0.3,4.5,3.9,0c2-2.8,4.7-5,5.9-5
			s0.3,2-1.7,4.7c-3.1,3.6-3.1,4.7-0.3,5.6c4.7,1.7,4.2,8.4-1.1,10.3C2934.3,32241.1,2931.8,32241.1,2929.6,32238.5z"/>
		<path class="st1" d="M414.5,32233.5v-7h894.4c492,0,894.4,0.8,894.4,1.7s-1.4,3.9-2.8,7c-3.1,5.3-15.9,5.3-894.4,5.3H414.5
			V32233.5z"/>
		<path class="st1" d="M3036.8,32233.5l-3.3-7h894.4h894.4v7v7h-891h-891.3L3036.8,32233.5z"/>
		<path class="st1" d="M1332.5,32166.9c-52.7-10.6-104.2-39.3-153.5-86.1l-18.7-17.6l-35.4,12.5l-35.7,12.5l2.8,7.2
			c1.4,4.2,8.6,15.3,16.2,24.8l13.9,17h-57.1h-57.1l-8.9-9.8l-9.2-10l-27.9,7c-207,51.3-382.5,42.4-486.2-24.5
			c-82.2-53.2-90.6-127.3-20.9-183.6c63.2-51,150.7-75.2,239.6-66.6c19.2,2,43.5,5.9,54.3,8.6c10.6,2.5,19.5,4.2,19.5,3.1
			c0-1.1-27.9-33.4-61.9-72.4c-34.3-38.7-69.4-78.8-78.3-88.9c-37.9-43.5-73.8-106.4-81.9-143.2c-7.5-35.1,2-53.5,34-66
			c12-4.7,22.8-6.4,37.9-6.7c34.3-0.3,55.2,11.7,140.4,81.4c21.5,17.6,43.2,35.9,48.2,40.4l8.9,8.6v-18.1
			c0-35.4,14.5-64.9,39.6-81.9c19.5-12.8,57.7-22.6,104.5-26.5c73.6-6.7,150.7,8.1,222.9,41.8c50.7,24,85.5,49.9,207,154.4
			c26.7,23.1,46,38.2,42.4,33.7c-24-30.9-34.3-55.7-34.5-81.1c0-29.8,17.3-52.7,46.5-61c37.6-11.1,102,13.4,164.7,62.7
			c9.8,7.5,19.2,14.2,20.9,14.5c2.2,0.6,3.6-5.3,4.2-18.1c1.7-49.3,39.8-74.9,85.5-57.7c23.4,8.9,135.4,84.1,161.9,108.9l22,20.6
			l-1.7-15.6c-4.2-34.8,7.5-80.8,25.4-100.6c12.3-13.7,20.9-18.1,39-20.6c41.2-5.3,102,19.5,145.4,59.9c8.4,7.8,15,14.2,15.3,14.2
			c0,0,0.3-8.1,0.6-17.8c0.3-20.3,5-30.9,18.7-42.9c10.9-9.5,33.2-15.6,48.8-12.8c45.1,7.5,99.7,41,180,110.1
			c49,42.3,73.8,62.1,75.8,60.2c0.8-1.1-3.3-7.8-9.5-15c-19.5-24-26.2-34-34.8-52.4c-7.5-16.2-8.4-20.6-7.2-38.7
			c1.1-24,9.2-38.7,27.9-51c9.5-6.4,15.3-8.1,32.6-8.6c44.3-2.2,82.8,15,146,64.4c15,12,27.6,21.5,28.1,21.5s0.6-7.5-0.3-16.7
			c-5.9-62.1,46-87.8,124.5-61.3c30.9,10.3,55.4,22.3,102,50.4l36.2,22h33.4c47.9,0,71,7.8,107.8,35.9c10,7.8,19.2,12.8,20.1,11.4
			c0.8-1.4,0.8-8.6-0.3-16.2c-3.6-27.9,13.7-69.7,36.5-88.3c42.1-34.3,98.6-34.8,167.2-1.7c51.3,24.8,105.6,65.5,188.6,141.8
			c13.1,12,11.7,4.7-2.2-12.5c-48.8-59.9-56-104.2-22-134c35.4-31.2,79.4-24.5,151.3,22.6c36.8,24,78,57.4,148.2,120.4
			c115.9,103.6,129.6,115.3,132.1,112.6c2-2.2-7-73.8-11.1-90.3c-16.7-67.1-92.8-154.6-134-154.6c-13.1,0-16.7,9.5-7.8,20.1
			c3.3,4.2,7.2,12,8.1,17.3c6.4,33.7-41.8,43.5-67.7,13.9c-17.8-20.1-12.8-47.9,12-64.4c18.9-12.8,32.3-15.9,65.8-15.9
			c69.9,0.6,120.4,24,207,97c20.9,17.8,38.7,32.3,39.3,32.3c0.6,0,1.7-11.4,2.2-25.4c1.4-21.7,3.1-27.9,11.7-45.7
			c13.7-27.9,31.8-44,58.2-51.8c31.2-9.8,78-5.3,122,11.4c40.4,15,109.8,65.8,192,140.7c101.7,92.5,150.5,127.9,183.9,133.7
			c20.3,3.3,21.5-7.5,3.3-31.5c-5.9-7.8-37.6-44-70.8-80.5c-76.9-84.7-149.9-168.3-149.9-171.1c0-0.6,23.4,0.3,51.8,2
			c51,3.3,51.8,3.3,60.5,11.1c4.7,4.5,25.9,24.5,47.1,44.9c48.8,46.8,114,103.9,119,103.9c2.5,0,3.1-1.7,1.7-4.7
			c-12.5-29.5-13.1-46.5-2.2-59.6c10.6-12.3,22.3-16.4,47.6-16.4c28.7,0,51,6.1,72.2,19.8c17.3,11.1,42.6,35.9,42.6,41.5
			c0,4.7-10.9,13.9-16.2,13.9c-2.8,0-8.1-3.3-12-7.2c-11.7-12.8-40.4-34.3-52.9-40.1c-25.6-11.4-53.5-4.2-56.8,15
			c-1.4,7.2-0.3,13.4,5,24.5c12.8,28.1,30.1,43.5,95.3,83c61.6,37.3,77.5,57.1,58.2,72.2c-6.1,4.7-11.4,5.9-30.4,5.9
			c-43.2,0-65.5-12.8-90.8-52.9c-7.5-11.4-15.6-23.7-17.8-27.3c-2.5-3.6-19.2-17.3-36.8-30.6c-17.8-13.4-35.4-26.5-39-29.3
			c-9.8-7.8-7.8-2.8,4.7,11.1c14.8,17,24,36.5,29.5,63.2c5,24,3.9,34-4.5,47.9c-16.7,26.7-59.1,27-104.5,0.6
			c-37.1-21.7-116.5-84.7-178.3-141.5c-56.8-52.1-119.2-97.5-161-117c-52.9-24.8-95.8-20.6-105.3,10.9c-3.3,11.7,0.6,41,6.7,46.5
			c1.7,1.7,10.9,4.7,20.1,6.4c25.4,5.3,82.5,24.5,117,39c64.9,27.6,115.6,64.9,131.2,96.7c6.1,12.8,7.2,17.8,6.1,32
			c-1.1,15.9-2.2,18.1-12.5,27.9c-15.3,14.2-28.7,17.6-66.3,15.6c-88.6-4.2-160.8-45.4-327.1-187c-19.2-16.2-35.1-29-35.7-28.4
			c-0.6,0.6,0.3,6.7,2.2,13.9c2,8.1,2.5,22.8,1.4,40.1c-4.2,69.7-5,122.3-2,127.9c1.7,3.3,7.8,7.5,13.4,9.2
			c27.3,8.9,42.6,23.7,42.6,41.5c0,11.7-8.1,18.9-23.7,21.5c-20.9,3.1-32.3-2-49.3-21.7c-24.2-28.1-34-37.3-105-98.4
			c-37.6-32.3-82.8-71.6-100.3-87.5c-63.2-56.8-124.3-102.5-155.2-116.2c-16.4-7.2-39.6-8.9-45.1-3.3c-6.7,6.7-3.6,18.4,10,36.2
			c7.2,9.8,34.8,42.6,61,73.3c73.6,86.1,148.2,175.5,147.1,176.4c-0.6,0.6-25.6-0.6-56.3-2.2c-45.7-2.8-56-4.2-60.7-8.4
			c-48.2-42.3-204.2-176.4-225.4-193.4c-60.5-48.8-112-76.9-152.4-83.6c-17-3.1-39,2.8-47.6,12.3c-6.7,7-7.8,10.9-7.8,24
			c0,8.4,1.4,20.9,3.1,27.6l3.1,12l26.7,6.1c88,20.3,186.7,66.3,222.6,103.6c36.5,37.9,33.2,86.1-7,101.7
			c-18.9,7.2-58.8,6.4-89.7-1.7c-52.1-13.7-115.3-46.2-168-86.7c-14.2-10.6-45.7-36.2-69.9-56.8c-55.2-46.5-86.1-63-119.5-63h-10.6
			l27.9,27.9c49.9,49.9,92.2,113.4,96.4,144.9c2.2,16.2-4.7,30.4-18.1,36.8c-35.1,17.6-69.4-12.3-84.7-73.6
			c-7-28.4-14.8-48.8-25.4-68.5c-29.3-52.9-76.6-97.5-133.7-125.9c-43.7-21.7-80-27.9-94.7-16.2c-6.7,5-7.5,7.2-6.1,16.7
			c2.2,17,17,38.2,57.7,82.5c20.6,22.6,47.1,51.8,58.8,64.9c22.8,25.1,100.3,117.6,99.2,118.1c-1.4,1.1-104.8-5.9-105.9-7
			c-0.6-0.8-7-9.5-14.5-19.5c-55.4-73.8-144.3-164.7-209.8-214c-52.1-39.3-100-57.1-114.5-42.6c-3.3,3.3-5.9,9.5-5.9,13.9
			c0,16.4,37.3,63,141.5,175.5c33.4,35.9,65.2,70.8,71,77.5l10.9,12H2622H2569l-26.2-21.7c-14.5-12-40.7-35.1-58.2-51
			c-110.3-99.5-209.5-176.9-258-200.6c-34-16.7-39.8-0.6-14.8,41c14.2,23.1,74.1,102.3,210.4,276.9
			c67.4,86.7,123.7,159.1,124.8,161.3c2.2,3.3-0.3,3.6-13.9,2.2c-8.9-1.1-32.3-2-52.1-2.2l-35.4-0.3l-88-122
			c-48.2-67.1-89.7-122.9-91.9-123.7c-2.8-1.1-3.9,0.8-3.9,8.4c0,14.8-7.8,25.4-24.5,33.7c-13.7,6.7-16.4,7-43.2,5.6
			c-38.7-2-68.5-11.1-123.1-37.9c-65.8-32.3-137.6-82.5-199.2-138.8c-32.9-30.1-119.5-92.5-149.9-107.8c-18.9-9.5-34.8-9.2-36.2,0.8
			c-2.5,16.7,5,26.7,96.7,129.8c56,62.7,122.9,142.4,122.9,146.3c0,1.7-61.6,0.6-85.3-1.7l-17.3-1.4l-30.1-36.8
			c-38.4-46.5-129.3-138.2-170.8-171.6c-71-57.7-126.2-85.5-140.4-71.3c-15.3,15-4.7,29.8,147.1,204.8
			c35.1,40.7,65.2,74.7,66.6,75.8c1.7,1.1,2.2,2.5,1.7,3.1c-0.8,0.6-25.9,0.6-56-0.3l-54.9-1.1l-28.7-25.6
			c-15.9-14.2-60.7-55.4-99.7-91.7c-38.7-36.5-71-65.8-71.6-65.2c-0.8,0.6,0.8,6.7,3.3,13.4c2.8,7.2,4.7,21.2,4.7,34.8
			c0.3,20.1-0.8,24.8-8.6,41c-11.1,22.3-37.3,47.6-61.9,60.2c-18.7,9.2-18.7,9.2,8.4,14.2c25.4,4.5,64.1,17.8,90.6,30.9
			c76.3,38.4,121.8,104.5,117.6,171.4c-1.7,27-8.9,45.4-24.5,61.3c-12.5,12.8-44.3,29-70.8,35.9
			C1401.1,32170.3,1356.5,32171.7,1332.5,32166.9z M1406.6,32135.5c13.7-5.3,23.7-17,27.9-32.3c9.5-34.3-25.9-103.4-77.7-152.7
			c-44.6-42.6-90.8-60.2-148.2-57.1c-16.2,1.1-42.4,2.5-58.5,3.3c-18.9,1.1-33.7,0.6-41.5-1.7c-29.5-7.8-39-37.9-14.2-44.6
			c7.8-2,16.2-1.7,33.7,1.7c40.1,7.8,61,8.1,83,1.4c47.4-14.5,72.7-52.1,65.2-97c-11.1-64.6-73-133.5-159.1-176.6
			c-29-14.5-81.9-32.9-114.8-40.1c-32.9-7-90-8.6-109.2-3.1c-16.7,4.7-31.2,17.8-34.5,31.2c-8.4,33.4,26.7,102,67.1,130.7
			c21.2,15.3,36.8,22.3,63.2,29c20.9,5.3,25.9,10,18.9,18.4c-5.3,6.4-40.7,4.5-65.2-3.1c-2.8-0.8,13.4,19.5,35.9,45.1
			c50.4,57.7,140.4,165.2,169.7,203.1c12,15.3,22.8,29,24,30.4c1.4,1.1,19.8-3.9,41-11.7c51-18.7,63.2-21.7,72.2-17.8
			c17.8,8.4,1.4,20.3-62.1,46.5c-14.2,5.8-25.9,11.4-25.9,12.5c0,0.8,9.8,11.1,21.7,22.8c25.1,24.5,48.2,40.1,76.6,51.8
			c17.6,7.2,28.4,10,60.5,15.6C1367.6,32143.3,1395.2,32140.2,1406.6,32135.5z M810.1,32120.7c20.6-1.7,49-4.7,62.7-7.2
			c30.6-5,88-17.8,92.2-20.1c3.1-1.9-18.1-27.3-117.3-141.5l-34-39l-24.8-6.1c-41.2-10-68.5-12.5-118.1-10.9
			c-61.9,2.2-100.6,11.4-144.9,34.3c-29.3,15-49.3,32.3-59.6,51.3c-7,12.8-7.8,16.7-6.4,30.9c4.5,49.3,59.1,85.5,153.2,101.7
			C665,32122.9,743.8,32125.7,810.1,32120.7z M1101.3,32050.8c13.4-4.7,27.3-9.8,30.9-10.9c6.4-2.5,6.1-3.1-14.5-29.8
			c-102.3-132.6-172.5-213.1-282.2-324.6c-88.9-90.6-153.8-148.2-180.8-161.6c-37.1-17.8-62.1-1.9-46.3,29.3
			c5.6,10.6-1.1,2.8,111.2,129c173.3,194.8,226.2,250.8,266.9,281.7c27.6,21.5,49.9,44.9,73,77.5c7.2,10,14.2,18.1,15.3,18.1
			C1076.2,32059.4,1088.2,32055.5,1101.3,32050.8z M3356.7,31862.1c4.7-3.9,5.9-7,4.7-12c-7.5-30.1-76.1-90.6-133.5-117.6
			c-22.8-10.9-55.2-21.5-65.5-21.5h-6.7l6.7,11.4c39.3,65.8,135.4,143.2,179.2,144.3C3346.7,31867.1,3353.4,31864.9,3356.7,31862.1z
			 M4270.6,31861.6c7-7,7-12-0.3-26.7c-12.5-26.2-66.9-70.8-116.5-95.8c-33.7-16.7-83.9-32.6-83.9-26.5c0,0.8,4.2,8.1,9.2,16.2
			c38.4,59.9,138.2,138.2,176.9,138.5C4261.4,31867.1,4267.2,31864.9,4270.6,31861.6z M2224.1,31856c5.9-5.3,7-9.2,7-21.7
			c0-30.1-30.6-76.1-90.6-135.7c-71.3-71.3-130.4-105.6-159.9-93.3c-51.5,21.2,64.6,190.3,166.9,242.4
			C2181.5,31865.2,2211,31868.3,2224.1,31856z"/>
		<path class="st1" d="M3723.1,32073.6c-23.4-10.6-40.1-37.1-36.8-58c1.1-7.2,5-13.7,11.7-19.5c8.4-7.8,11.7-9.2,23.7-9.2
			c17.3,0,32,7,44.3,21.2c10.9,12.3,14.2,20.3,14.2,34.8C3780.2,32072.5,3752.6,32087.3,3723.1,32073.6z"/>
		<path class="st1" d="M414.5,31397.7v-7h2198.3h2198.3v7v7H2612.8H414.5V31397.7z"/>
	</g>
</g>
</svg>
