<?xml version="1.0" encoding="utf-8"?>
<!-- Generator: Adobe Illustrator 25.2.3, SVG Export Plug-In . SVG Version: 6.00 Build 0)  -->
<svg version="1.1" xmlns="http://www.w3.org/2000/svg" xmlns:xlink="http://www.w3.org/1999/xlink" x="0px" y="0px"
	 viewBox="0 0 360 504" style="enable-background:new 0 0 360 504;" xml:space="preserve">
<style type="text/css">
	.st0{fill:none;stroke:#000000;stroke-linecap:round;stroke-linejoin:round;stroke-miterlimit:10;}
</style>
<g id="Outline">
	<polyline class="st0" points="68.4,464.4 68.4,504 291.6,504 291.6,464.4 	"/>
	<path class="st0" d="M37.8,468"/>
	<path class="st0" d="M291.6,464.4H315c-0.1-118.1,45-133.2,45-266.4"/>
	<line class="st0" x1="68.4" y1="464.4" x2="45" y2="464.4"/>
	<path class="st0" d="M0,198C0,98.6,80.6,18,180,18s180,80.6,180,180"/>
	<path class="st0" d="M45,464.4C45.1,346.3,0,331.2,0,198"/>
</g>
<g id="Artwork">
	<g>
		<path d="M179,40.4c-86.3,0-156.4,70.2-156.4,156.4S92.7,353.3,179,353.3c86.3,0,156.4-70.2,156.4-156.4S265.2,40.4,179,40.4z
			 M179,48.4c80.5,0,146.2,64.4,148.4,144.4H223.5c-2-22.7-21.2-40.6-44.5-40.6c-23.3,0-42.4,17.9-44.5,40.6H30.6
			C32.8,112.8,98.5,48.4,179,48.4z M215.6,196.8c0,20.2-16.4,36.6-36.6,36.6s-36.6-16.4-36.6-36.6s16.4-36.6,36.6-36.6
			S215.6,176.6,215.6,196.8z M179,345.3c-80.5,0-146.2-64.4-148.4-144.4h103.9c2,22.8,21.2,40.6,44.5,40.6
			c23.3,0,42.4-17.9,44.5-40.6h103.9C325.2,280.8,259.5,345.3,179,345.3z"/>
		<path d="M179,173.5c-12.9,0-23.4,10.5-23.4,23.4s10.5,23.4,23.4,23.4s23.4-10.5,23.4-23.4S191.9,173.5,179,173.5z M179,219.2
			c-12.3,0-22.4-10-22.4-22.4s10-22.4,22.4-22.4c12.3,0,22.4,10,22.4,22.4S191.3,219.2,179,219.2z"/>
	</g>
</g>
<g id="Text">
	<g>
		<path d="M119.8,164.7L84.6,138l-2.1,3.6L72.3,132l18.9-30.5l10.2,7.7L91,126.7l7.3,5.5l7.9-13.1l8.5,6.3L107,139l21.3,15.8
			c-0.4,0.6-1,1.6-2,3c-0.9,1.4-1.9,2.6-2.8,3.6C122.1,163.1,120.9,164.2,119.8,164.7z"/>
		<g>
			<path d="M205.8,92.1c0.2-0.7,0.6-1.7,1-2.9c0.4-1.2,0.7-2.2,1-2.8c0.3-0.7,0.5-1.1,0.6-1.3c1.3-1.8,2.5-2.6,3.8-2.3
				c0.9,0.2,1.6,0.8,2.3,2c0.6,1.1,1.1,2.3,1.3,3.7l11.5-4.3c0-2.1-0.4-3.8-1-4.9c-0.6-1.1-1.7-2.3-3.3-3.4
				c-1.5-1.2-3.7-2.1-6.4-2.7c-2.9-0.6-5.7-0.8-8.5-0.6c-5.3,0.3-9.2,1.7-11.6,4.1c-2.4,2.4-4,5.2-4.7,8.4c-0.1,0.6-0.3,1.7-0.5,3.2
				l-8.6-2.9l-0.7,7.5c-1.8-1.2-3.9-2-6.1-2.4c-2.3-0.5-4.7-0.5-7.2-0.1c-1.9,0.3-3.7,0.8-5.4,1.5c-1.7,0.7-3.3,1.6-4.8,2.8
				c-1.5,1.1-2.9,2.5-4.1,4c-1,1.3-1.8,3.4-2.5,6.4c-0.6,3-0.7,5.9-0.3,8.8c0,0,0,0,0,0l-5-2c0,1.7-0.2,3.3-0.7,4.8
				c-0.4,1.5-1,2.8-1.9,3.9c-0.8,1.1-1.9,2-3.1,2.7l4.9-24.6c-2.2-0.5-4.5-0.6-6.8-0.2c-2.3,0.4-4.6,1.2-6.8,2.4
				c-1.7,0.9-3.2,2-4.5,3.3c-1.4,1.3-2.6,2.7-3.6,4.3c-1,1.6-1.9,3.3-2.5,5.2c-0.5,1.6-0.5,3.9-0.1,6.9c0.4,3,1.4,5.8,2.8,8.4
				c1.8,3.3,4.1,5.5,6.9,6.7c1.6,0.7,3.5,0.9,5.6,0.5c2.1-0.4,4.3-1.2,6.5-2.4c2.6-1.4,4.9-3.1,7.1-5.2c2.1-2,3.7-4.1,4.9-6.2
				c0.1,0.1,0.3,0.3,0.4,0.4c1.3,1.2,3,2,5.1,2.4s4.4,0.4,7,0c2.9-0.4,5.7-1.2,8.5-2.5c2.8-1.2,5.1-2.7,7-4.3
				c0.6-0.5,1.1-1.1,1.6-1.6c-0.4,2.2-0.8,4.6-1.3,7.2c-0.5,2.7-0.8,4.5-0.9,5.5l14.4,1.5c0.1-1.1,0.4-2.9,0.9-5.3
				c0.4-2.4,1-5.1,1.6-8c0.6-2.9,1.1-5.3,1.5-7.1c0.7-3.2,1.2-5.5,1.6-6.9l8.3,1.6l2.5-11L205.8,92.1z M133.6,123.7
				c-0.8-0.8-1.4-1.4-1.9-1.9c-0.4-0.5-0.8-1-1.1-1.6c-0.9-1.6-1.2-3.4-0.9-5.4c0.1-0.7,0.4-1.5,1.1-2.3c0.7-0.9,1.4-1.5,2.4-2
				c0.9-0.5,1.8-0.7,2.9-0.8L133.6,123.7z M162,112.2c-0.5-1-0.8-1.8-1.1-2.4c-0.2-0.6-0.4-1.2-0.5-1.9c-0.3-1.9,0.1-3.6,1-5.4
				c0.3-0.6,0.9-1.2,1.8-1.8c0.9-0.6,1.9-0.9,2.9-1.1c1-0.1,2,0,3,0.3L162,112.2z M186.1,109.4c-0.2,0.9-0.3,1.7-0.5,2.6l-7.3-6.6
				c-0.6,1.6-1.4,3-2.3,4.3c-0.9,1.2-1.9,2.3-3.1,3c-1.2,0.8-2.5,1.3-3.9,1.5l12.8-20.9l-0.5,5.4l6.7,1.5
				C187.2,104.2,186.5,107.2,186.1,109.4z"/>
			<path d="M278.2,142.7c-0.1-1.7-0.7-3.3-1.9-4.9c-0.6-0.8-1.2-1.5-1.9-2.2c-0.7-0.7-1.6-1.5-2.5-2.2c-0.9-0.8-2-1.6-3.2-2.4
				l0.6-2.5l-7.8-8.6l-13.7,10.3c-1.2,0.7-2.1,1.3-2.7,1.8c-1.1,0.8-2.3,1.7-3.5,2.6l-0.6-6.2c-1.5,0.8-3,1.3-4.5,1.6
				c-1.5,0.3-3,0.4-4.4,0.2c-1.4-0.2-2.7-0.7-3.9-1.5l24-7c-0.6-2.2-1.6-4.2-3-6.1c-1.4-1.9-3.2-3.5-5.2-4.9c-1.6-1.1-3.2-1.9-5-2.5
				c-1.7-0.6-3.6-1-5.4-1.2c-1.9-0.2-3.8-0.1-5.7,0.2c-1.6,0.3-3.7,1.3-6.1,3.1c-2.5,1.8-4.5,3.9-6.1,6.3c-2.1,3.1-3,6.1-2.7,9.2
				c0.1,1.8,0.9,3.5,2.2,5.2c1.3,1.7,3,3.3,5.2,4.7c2.4,1.6,5.1,2.9,7.9,3.9c2.1,0.7,4.2,1.2,6.1,1.4c-0.6,0.5-1.1,1-1.7,1.5
				l9.7,10.8c3.6-3,6.8-5.4,9.6-7.4c4-2.8,7-4.4,9.1-4.9c2.2-0.5,3.6-0.2,4.4,0.9c0.5,0.7,0.6,1.7,0.4,2.9c-0.3,1.2-0.8,2.4-1.6,3.6
				l11.5,4.6c1.4-1.5,2.2-3.1,2.5-4.6S278.4,144.8,278.2,142.7z M224.3,122.4c0.3-1.1,0.6-1.9,0.8-2.5c0.2-0.6,0.5-1.2,0.9-1.7
				c1-1.6,2.5-2.7,4.4-3.3c0.7-0.3,1.5-0.3,2.6-0.1c1.1,0.2,2,0.6,2.9,1.2c0.8,0.6,1.5,1.3,2,2.2L224.3,122.4z"/>
		</g>
	</g>
	<g>
		<path d="M117.1,415.2l9.4-0.6l2.5,4.1l2.2-5.6l6.1-0.2l7.2,33.4l-11.1-1.1l-2-11.4l-2.2,4.2l-3-5.3l-1,9.7l-10.8,0.8L117.1,415.2z
			 M126.5,416l-8.7,0.5l-2,25.6l8.7-0.6l1.1-11.5c0.2,0.5,0.6,1.1,1,2s0.9,1.8,1.5,2.8c0.6,1,0.9,1.6,0.9,1.6c0.1,0,0.5-0.9,1.4-2.6
			c0.9-1.8,1.4-2.6,1.4-2.7l2.3,13.4l9.1,1.1c-0.3-1.3-0.8-3.7-1.5-7.2s-1.5-7.1-2.3-10.8c-0.8-3.7-1.5-6.9-2-9.6
			c-0.6-2.7-0.8-4.1-0.8-4.3l-4.8,0.2L129,421L126.5,416z"/>
		<path d="M140.5,425l7.6-3.6l7.7,14.2l4.7-13.1l8.4,3.3l-14.2,34.3l-7.5-2.8l4.4-11.9L140.5,425z M142.2,425.5l10.6,19.7l-4.4,11.5
			l5.8,1.9l13.3-32.4l-6.2-2.5l-5.5,14.8l-8.3-15.4L142.2,425.5z"/>
		<path d="M189.2,429.1c-0.4-0.1-1.3-0.4-2.8-0.9c-1.5-0.5-2.8-0.8-3.9-1.2c-1.1-0.3-2.4-0.6-3.8-1s-2.5-0.5-3.2-0.5
			c-0.4,0-0.7,0.1-0.9,0.2c-0.6,0.5-0.9,0.9-0.9,1.3c0,0.6,0.6,1.2,1.9,1.6c1.2,0.5,2.8,0.8,4.5,1c2.4,0.3,4.4,0.8,5.9,1.7
			c1.5,0.9,2.6,1.9,3.3,3.1c0.7,1.2,1,2.4,1,3.6c0,0.9-0.2,1.7-0.5,2.4c-1.5,3.1-4.3,4.7-8.5,4.7c-1.1,0-2.4-0.1-3.9-0.4
			c-1.4-0.2-2.8-0.6-4.1-0.9c-1.3-0.4-2.7-0.8-4.2-1.3s-2.9-0.9-4.2-1.4c0.3-0.7,0.7-1.5,1.3-2.5c0.5-1,1-1.9,1.5-2.8
			c0.5-0.9,0.7-1.4,0.7-1.5c0.4,0.3,0.8,0.6,1.4,0.8c0.6,0.2,1.4,0.5,2.4,0.7c1.1,0.3,1.9,0.5,2.4,0.8c1.2,0.5,2.5,0.7,3.8,0.7
			c0.8,0,1.6-0.1,2.3-0.3c0.7-0.2,1.1-0.3,1.2-0.4c0-0.3-0.6-0.7-1.7-1c-1.1-0.3-2.4-0.6-3.8-0.8c-1.6-0.2-3.2-0.6-4.8-1.2
			c-1.6-0.6-2.9-1.5-4.1-2.6s-1.7-2.6-1.7-4.2c0-1.3,0.3-2.6,1-4c0.7-1.6,1.8-2.7,3.2-3.4c1.4-0.7,3.1-1.1,5.1-1.1
			c2.3,0,4.6,0.3,7.1,1s5.7,1.7,9.9,3c-0.1,0.2-0.4,1-1,2.4c-0.6,1.4-1.1,2.5-1.4,3.1S189.3,429.1,189.2,429.1z M188.7,427.8
			l2.2-4.5c-1.9-0.6-3.5-1-4.7-1.4s-2.6-0.7-4-1c-1.4-0.3-2.7-0.5-3.9-0.7c-1.2-0.2-2.3-0.2-3.4-0.2c-3.5,0-5.7,1-6.6,3.1
			c-0.6,1.4-0.9,2.6-0.9,3.8c0,1.8,0.7,3.2,2.1,4.3c1.4,1.1,3.2,1.9,5.6,2.3c2.2,0.2,3.8,0.4,4.8,0.6s1.9,0.5,2.7,0.9
			c0.7,0.5,1.1,1.2,1.1,2.1c-0.1,0.6-0.5,1-1.2,1.3c-0.8,0.3-1.8,0.4-3,0.4c-1.3,0-2.7-0.1-4.2-0.4c-1.6-0.3-3-0.7-4.2-1.1
			s-2-0.8-2.5-1l-2,4.4c1.5,0.5,3,0.9,4.3,1.3c1.3,0.4,2.7,0.7,4.1,1.1c1.4,0.3,2.7,0.6,3.8,0.8c1.2,0.2,2.2,0.3,3.2,0.3
			c1.6,0,3-0.3,4.1-0.9c1.1-0.6,2-1.5,2.5-2.8c0.3-0.6,0.4-1.4,0.4-2.2c0-1-0.3-2.1-0.8-3.1c-0.6-1-1.5-1.9-2.9-2.7
			s-3.2-1.2-5.6-1.4c-0.8-0.1-1.7-0.3-2.9-0.6c-1.1-0.3-2.2-0.8-3.1-1.3s-1.3-1.1-1.3-1.8c0-0.7,0.5-1.4,1.6-2
			c0.3-0.2,1-0.3,1.9-0.3c0.8,0,1.8,0.1,3.1,0.3c1.2,0.2,2.5,0.4,3.7,0.7c1.2,0.3,2.3,0.6,3.5,1C187.1,427.1,188,427.5,188.7,427.8z
			"/>
		<path d="M193.3,410.2l8.3-3.8l-0.1,12.8l6.2,0.2v7.3l-6.4,0.1c-0.2,1.8-0.3,3.5-0.3,5.1c0,1.3,0.1,2.4,0.2,3.3
			c0.1,0.7,0.4,1.3,1,1.6s1.1,0.6,1.8,0.6c0.7,0,1.4-0.2,2-0.7c0.6-0.4,0.8-1.1,0.8-1.8c0-0.1,0-0.3-0.1-0.7l6.2-4.1
			c0.3,0.5,0.6,1.3,1,2.5c0.4,1.2,0.6,2.4,0.6,3.8c0,1.7-0.4,3.2-1.3,4.5s-2.4,2.4-4.5,3.1c-1.5,0.5-2.9,0.7-4.2,0.7
			c-2,0-3.7-0.4-5.3-1.3c-1.5-0.9-2.8-1.9-3.8-3.2c-0.5-0.6-0.8-1.5-1.1-2.8c-0.3-1.3-0.4-2.7-0.5-4.1s-0.1-2.9-0.1-4.3v-2.2
			l-5.6,0.2l-1.4-8.6l7.1,0.5L193.3,410.2z M194.6,411l0.1,9.3l-6.6-0.5l1.2,6.2l5.3-0.3c0,0.9,0,2.2,0,3.9c0,2,0.1,3.8,0.2,5.2
			c0.2,1.4,0.5,2.7,0.9,3.7c1.4,3.2,4.1,5,8.1,5.1c1,0,2-0.2,3.1-0.5c1.1-0.3,2.2-0.8,3.1-1.4s1.7-1.5,2.4-2.5
			c0.6-1,0.9-2.2,0.9-3.4c0-1.4-0.3-2.8-0.9-4.2l-4.8,3c0,0.9-0.2,1.7-0.6,2.3c-0.4,0.6-0.8,1-1.4,1.3c-0.6,0.3-1.2,0.4-1.8,0.4
			c-0.6,0-1.2-0.1-1.7-0.4c-0.8-0.2-1.4-1-1.7-2.2c-0.3-1.2-0.5-2.7-0.5-4.5c0-0.7,0-1.7,0.1-3s0.1-2.2,0.1-2.6h6.7l-0.2-5.6
			l-6.4,0.2l0.1-12.3L194.6,411z"/>
		<path d="M224.8,447.2l-8.6,0.5l-0.5-20.4l-2.8,0.6l0.9-4.7l9.7-4.1L224.8,447.2z M223.6,446.2l-0.9-25.7l-7.8,3.3l-0.6,2.6
			l2.6-1.4l0.5,21.7L223.6,446.2z M218.6,407.6c0.9,0,1.7,0.1,2.3,0.4c0.7,0.3,1.2,0.7,1.6,1.1c0.4,0.4,0.7,0.8,0.9,1.1
			c0.2,0.3,0.2,0.7,0.2,1.1c0,0.6-0.1,1.3-0.4,1.9c-0.3,0.6-0.6,1.2-1,1.6c-0.4,0.5-0.7,0.7-1.1,0.8c-0.7,0.1-1.2,0.2-1.5,0.2
			c-0.8,0-1.6-0.1-2.2-0.4c-0.6-0.3-1.1-0.7-1.5-1.3s-0.6-1.2-0.7-2c0-1.1,0.3-2.1,0.8-3C216.6,408.2,217.4,407.7,218.6,407.6z
			 M218.9,408.8c-1.4,0.4-2.2,1.5-2.2,3.3c0.1,0.8,0.5,1.4,1.2,1.8c0.7,0.4,1.4,0.6,2.2,0.6c0.7-0.1,1.3-0.5,1.6-1.1
			c0.4-0.6,0.5-1.4,0.5-2.3c-0.1-0.5-0.4-1.1-1.1-1.6c-0.6-0.5-1.3-0.8-1.9-0.8C219.2,408.7,219.1,408.8,218.9,408.8z"/>
		<path d="M241.2,421c0.8,0.5,1.5,1.2,2.2,2.2c0.7,0.9,1.2,1.8,1.5,2.6c0.4,0.8,0.6,1.3,0.7,1.7l-7.1,1.6c-0.1-0.6-0.5-1.1-1-1.3
			s-1.1-0.3-1.8-0.3c-3.2,0.3-4.8,2.2-4.8,5.8c0.1,2.8,1,4.4,2.6,4.7c0.8,0,1.5-0.2,2.2-0.6c0.6-0.4,1.2-0.9,1.7-1.6
			c0.5-0.7,0.8-1.4,1.2-2.2l7.1,1.4c-0.1,0.3-0.3,0.8-0.6,1.5c-0.3,0.9-1.1,2-2.3,3.4c-1.2,1.4-2.6,2.4-4,3c-1.8,0.7-3.6,1-5.3,1
			c-2.8,0-5.3-0.9-7.5-2.8c-1-0.9-1.7-1.9-2.2-3c-0.5-1.1-0.7-2.3-0.7-3.6c0-1.3,0.2-2.6,0.6-3.9c0.4-1.3,0.8-2.5,1.4-3.5
			c0.7-1.4,1.5-2.5,2.3-3.5c0.8-1,1.7-1.8,2.6-2.4c0.9-0.6,1.9-1.1,2.8-1.4c1-0.3,1.9-0.4,2.9-0.4
			C237.6,419.4,239.5,419.9,241.2,421z M240.4,421.9c-1.5-0.8-3-1.3-4.7-1.3c-1.8,0-3.5,0.5-5.2,1.6c-1.6,1.1-3.1,2.8-4.3,5.1
			c-0.5,1.1-1,2.2-1.4,3.4s-0.6,2.5-0.6,3.7c0,2.7,1.1,4.9,3.2,6.4c1.8,1.3,3.7,1.9,5.9,1.9c1.9,0,3.9-0.5,6-1.6
			c0.5-0.3,1.1-0.7,1.7-1.4c0.7-0.7,1.3-1.4,1.9-2.1c0.6-0.7,0.9-1.3,1.1-1.7l-4.5-1c-0.4,0.8-0.9,1.5-1.5,2.1s-1.1,1-1.8,1.4
			s-1.3,0.5-1.9,0.5c-1.1,0-2-0.4-2.9-1.1c-1-0.9-1.6-2.2-1.6-4c0-1.3,0.3-2.6,0.8-3.8c0.5-1.2,1.3-2.3,2.3-3.1
			c1-0.8,2.1-1.2,3.4-1.2c0.8,0,1.4,0.1,2,0.4c0.5,0.3,0.9,0.8,1.1,1.6l4.6-1.2c0-0.2-0.1-0.5-0.2-1s-0.5-1.1-1-1.8
			C242.1,423.1,241.4,422.5,240.4,421.9z"/>
	</g>
	<g>
		<path d="M146.5,378.6l1.1,25.6h-1.2c-0.8,0-1.7,0-2.9-0.1c-1.2,0-2.2-0.1-3.2-0.2c-1-0.1-1.7-0.3-2.1-0.5l-1.3-24.5l-11.9,0.2
			l0.2-7.5l30.4-2l0.5,8.3L146.5,378.6z M145.2,377.4l9.8-0.3l-0.3-6.4l-28.7,1.6l0.2,5.9l11.5-0.5l1.6,24.8
			c0.6,0.1,1.4,0.3,2.6,0.4s2.1,0.2,2.9,0.2c1.1,0,1.6-0.2,1.6-0.5c0,0,0,0,0,0L145.2,377.4z"/>
		<path d="M168.2,393.2l4.6,5.5c-0.4,1.1-1.2,2-2.6,2.9s-3,1.6-4.9,2.1c-1.9,0.5-3.8,0.8-5.7,0.8c-1.7,0-3.2-0.2-4.5-0.7
			c-1.3-0.4-2.3-1.1-3-2c-1.2-1.5-1.8-3.5-1.8-5.9c0-1.9,0.3-3.8,1-5.6c0.7-1.8,1.4-3.1,2.2-3.9c0.9-0.9,1.9-1.6,3-2.2
			c1.1-0.6,2.2-1,3.4-1.3c1.2-0.3,2.4-0.4,3.6-0.4c1.6,0,3.1,0.3,4.6,0.8c1.5,0.5,2.7,1.3,3.8,2.2L161.4,398c0.9,0,1.8-0.2,2.6-0.6
			c0.8-0.4,1.6-0.9,2.3-1.7C167.1,395,167.7,394.2,168.2,393.2z M168.4,394.2c0,0.6-0.5,1.3-1.4,2.1c-0.9,0.8-2,1.5-3.3,2
			s-2.5,0.8-3.5,0.8c-0.4,0-0.7,0-0.9-0.1l11.3-13.6c-1.1-0.6-2.3-1.2-3.6-1.5s-2.7-0.6-4-0.6c-1.6,0-3.1,0.3-4.6,0.9
			s-2.8,1.5-4,2.8c-0.6,0.6-1.1,1.4-1.5,2.3c-0.5,0.9-0.8,2-1.1,3.1s-0.4,2.3-0.4,3.4c0,2.4,0.6,4.3,1.9,5.5
			c1.6,1.5,3.8,2.3,6.5,2.3c1.7,0,3.3-0.3,5.1-0.8c1.7-0.5,3.2-1.2,4.5-2s2.1-1.6,2.4-2.4L168.4,394.2z M157,397.4
			c-0.4-0.2-0.7-0.7-0.9-1.6c-0.3-0.9-0.4-1.8-0.4-2.8c0-1.9,0.4-3.3,1.3-4.3c0.4-0.4,0.9-0.8,1.5-1c0.6-0.3,1.3-0.4,2.1-0.4
			c1.3,0,2.5,0.4,3.6,1.2L157,397.4z M163,388.8c-0.6-0.3-1.3-0.5-1.9-0.5c-0.7,0-1.3,0.1-2,0.4c-0.6,0.3-1.1,0.6-1.4,1
			c-0.8,1-1.2,2.1-1.2,3.4c0,0.4,0,0.9,0.1,1.3s0.2,1,0.5,1.7L163,388.8z"/>
		<path d="M183.4,381.7l8-3.6l0.2,10.6c0.1,0.7,0.2,1.4,0.2,2.2c0,0.7,0,1.3-0.1,1.6l0.2,11.7l-8.6,0.5v-1.2
			c-1.4,0.6-2.8,0.9-4.2,0.9c-1.1,0-2.1-0.2-3.1-0.5c-1-0.3-1.8-0.8-2.5-1.3c-1.1-0.9-2-2.2-2.6-3.8c-0.6-1.6-1-3.3-1-5.1
			c0-3.1,0.9-5.5,2.6-7.4c1.5-1.6,3.1-2.8,4.7-3.6c1.6-0.8,3.3-1.2,5-1.2c0.5,0,0.8,0,1.1,0L183.4,381.7z M184.3,382.2v0.5
			c-0.2,0-0.5,0-0.9,0c-0.8,0-1.6,0.1-2.4,0.3c-0.8,0.2-1.6,0.5-2.5,0.9c-0.9,0.4-1.7,0.9-2.5,1.5c-0.8,0.6-1.6,1.3-2.2,2
			c-0.6,0.7-1.1,1.4-1.5,2.1c-0.4,0.8-0.7,1.5-0.9,2.4c-0.2,0.8-0.3,1.6-0.3,2.5c0,1.6,0.3,3.1,0.9,4.5c0.6,1.4,1.5,2.4,2.6,3.2
			c0.9,0.6,2.1,0.9,3.7,0.9c2.1,0,4.1-0.5,6.1-1.4v2.4l6.2-0.5l-0.2-23.9L184.3,382.2z M183.3,385.1c-1,0.7-1.5,1.6-1.5,2.9
			c0,0.9,0.2,1.4,0.6,1.8c0.3,0.2,0.6,0.3,0.9,0.3v4.1c-0.3,0.1-0.6,0.1-0.8,0.1c-1,0-2-0.3-2.9-1c-1.1-0.7-1.6-1.7-1.6-2.8
			c0-0.6,0.1-1.1,0.4-1.7c0.3-0.6,0.7-1.1,1.1-1.6s1.1-0.9,1.7-1.3C181.9,385.4,182.6,385.2,183.3,385.1z"/>
		<path d="M207.8,381.9c3.3-1,5.7-1.6,7.3-1.6c1.3,0,2.4,0.3,3.3,0.8c1.1,0.6,2.3,1.8,3.7,3.3s2.1,3,2.4,4.3c0.7,2.7,1,5.1,1,7.1
			c0,1.1-0.1,2.2-0.2,3.4c-0.1,1.2-0.4,2.7-0.6,4.5l-8,0.5c0-0.6,0-1.5,0-2.7c0-5-0.7-9.2-2.1-12.7c-0.3-0.6-0.6-1.1-0.9-1.5
			s-0.6-0.5-0.9-0.5c-0.3,0-0.4,0.2-0.4,0.6c0,0.2,0,0.4,0.1,0.6c0.1,0.2,0.2,0.5,0.3,0.8c0.7,2.8,1,5.1,1,7.1c0,1-0.1,2-0.2,3
			c-0.1,1.1-0.3,2.7-0.7,4.8l-8,0.5c0-0.6,0-1.5,0-2.7c0-5-0.7-9.2-2.1-12.7c-0.2-0.4-0.3-0.8-0.4-1.3c-0.1-0.5-0.2-0.7-0.2-0.7
			c-0.1,0-0.2,0.3-0.4,0.9s-0.5,1.2-0.8,1.8c-0.2,0.4-0.3,1-0.5,1.5c-0.1,0.6-0.2,1.2-0.3,1.9c-0.1,0.7-0.1,1.5-0.1,2.5
			c0,2,0.1,4.4,0.3,7.4l-9.4,1.1c-0.2-1.1-0.3-2.2-0.4-3.3c-0.1-1.1-0.2-2.1-0.3-3.1c-0.1-0.9-0.1-2-0.1-3.1c0-0.5,0-1.1,0.1-2
			l-0.3-11.1l7.5-1l1.1,1.3c2-0.6,3.6-1,4.9-1C205.1,380.8,206.5,381.1,207.8,381.9z M207.9,383.4c-1.4-1.1-2.9-1.7-4.6-1.7
			c-0.7,0-1.5,0.1-2.3,0.3c-0.8,0.2-1.7,0.5-2.7,0.9l-0.8-1.2l-6.2,0.8l0.3,8.4c0.1,0.7,0.2,1.5,0.2,2.4c0,0.9,0.1,2.2,0.2,3.9
			c0.1,1.7,0.1,2.8,0.2,3.4c0,0.6,0.1,1.3,0.2,2.1l7.2-0.8c-0.3-2.1-0.4-4.1-0.4-5.9c0-2.5,0.2-4.8,0.7-7c0.5-2.4,1.2-3.5,2.1-3.5
			c0.9,0,1.8,1.2,2.6,3.7c0.4,1.2,0.8,2.9,1.1,5c0.3,2.2,0.5,4.2,0.5,6c0,0.7-0.1,1.5-0.2,2.4l5.8-0.2c0-0.4,0-0.9,0.1-1.4
			c0.1-0.6,0.1-1.2,0.2-1.9c0.1-0.7,0.2-1.4,0.2-2.1s0.1-1.5,0.1-2.3c0-2.5-0.5-4.6-1.4-6.5c0.2-1,0.6-1.8,1-2.3s0.8-0.8,1.3-0.8
			c0.5,0,1,0.4,1.6,1.1c0.6,0.7,1.1,1.7,1.5,3c0.4,1.2,0.8,2.9,1.1,5c0.3,2.2,0.5,4.2,0.5,6c0,0.7-0.1,1.5-0.2,2.4l5.8-0.2
			c0-0.4,0.1-1.4,0.3-3.2c0.2-1.7,0.3-3.2,0.3-4.5c0-2.4-0.5-4.6-1.4-6.5c-0.8-1.7-1.5-2.9-2-3.6c-0.5-0.7-1.3-1.5-2.4-2.1
			c-0.9-0.5-2-0.8-3.2-0.8C213.3,381.7,210.9,382.3,207.9,383.4z"/>
	</g>
</g>
</svg>
