<?xml version="1.0" encoding="utf-8"?>
<!-- Generator: Adobe Illustrator 25.2.3, SVG Export Plug-In . SVG Version: 6.00 Build 0)  -->
<svg version="1.1" id="Layer_1" xmlns="http://www.w3.org/2000/svg" xmlns:xlink="http://www.w3.org/1999/xlink" x="0px" y="0px"
	 viewBox="0 0 522 378" style="enable-background:new 0 0 522 378;" xml:space="preserve">
<style type="text/css">
	.st0{fill:none;stroke:#000000;stroke-linecap:round;stroke-linejoin:round;stroke-miterlimit:10;}
</style>
<path class="st0" d="M0,198c0,9.9,8.1,18,18,18"/>
<path class="st0" d="M504,216c9.9,0,18-8.1,18-18"/>
<path class="st0" d="M522,18c0-9.9-8.1-18-18-18"/>
<path class="st0" d="M18,0C8.1,0,0,8.1,0,18"/>
<line class="st0" x1="18" y1="0" x2="504" y2="0"/>
<line class="st0" x1="0" y1="18" x2="0" y2="198"/>
<line class="st0" x1="522" y1="18" x2="522" y2="198"/>
<line class="st0" x1="149.4" y1="255.6" x2="372.6" y2="255.6"/>
<line class="st0" x1="149.4" y1="255.6" x2="149.4" y2="216"/>
<line class="st0" x1="372.6" y1="255.6" x2="372.6" y2="216"/>
<line class="st0" x1="18" y1="216" x2="149.4" y2="216"/>
<line class="st0" x1="372.6" y1="216" x2="504" y2="216"/>
<g>
	<path d="M26.1,132.1C26.4,88.3,26,69.2,26,69.2c11.1,0.5,17,0.5,17,0.5c-0.4,47,0,62.7,0,62.7C31.9,132,26.1,132.1,26.1,132.1z"/>
	<path d="M45.8,109.8c0,0,5.5,0.6,17.1,1.1c-1,8.4,0.3,11.2,2.9,11.2c1.9,0,3.4-1.3,3.4-6.9c0-3.4-1-5.3-2.2-6.3
		c-1.3-1.1-3.9-1.6-8.5-1.2c0,0-0.1-4.2-0.6-13.1c4.6,0.2,7.6-0.4,9-1.6c1.1-0.9,1.9-2.8,1.9-6.3c0-4.6-1.1-6.8-2.9-6.8
		c-2.8,0-3.7,3.5-3,11.4c-10.1,0.6-17.1,1-17.1,1C43.7,72.7,52,65.7,67.6,65.7c12.5,0,18.9,8.9,18.9,19.7c0,6.8-3.1,11.5-8.1,14.3
		c5.4,2.2,9.2,7.9,9.2,15.9c0,14.2-9.9,20.7-21,20.7C48.5,136.3,43.7,125.4,45.8,109.8z"/>
	<path d="M89.8,110.6c0,0,5.9,0.4,17.2,0.5c-1,8.4,0.3,10.7,2.9,10.7c1.9,0,3.4-0.9,3.4-6.4c0-3.4-1-5.3-2.2-6.3
		c-1.3-1.1-3.9-1.6-8.5-1.2c0,0-0.1-4.2-0.6-13.1c4.6,0.2,7.6-0.4,9-1.6c1.1-0.9,1.9-1.8,1.9-5.4c0-4.6-1.1-6.8-2.9-6.8
		c-2.8,0-3.7,2.6-3,10.4c-10.2,0-17.1,0.4-17.1,0.4c-1.8-16,5.1-24.9,21.6-24.9c13.7,0,18.9,9.7,18.9,19.7c0,5.8-2.8,10.4-8.1,13.3
		c5.8,2.4,9.2,8.4,9.2,15.9c0,13.4-9.1,20.2-21,20.2C94,135.9,87.5,127.2,89.8,110.6z"/>
	<path d="M151.7,84.6c-12.5,0.2-19.2,0.5-19.2,0.5c0.4-10.2,0.4-17.1,0.4-17.1c30.3-0.4,34.9-0.8,34.9-0.8
		c-0.1,14.8,0.3,19.6,0.3,19.6c-8.8,11.9-11.9,26.7-10.9,49.6c-12.8-0.6-17.9-0.7-17.9-0.7C138.1,112.1,143.3,93.7,151.7,84.6z"/>
	<path d="M169,132.1c14.8,0.3,27.1,0.2,27.1,0.2c-0.4,9.1-0.3,12.8-0.3,12.8c-12.4-0.2-26.7,0-26.7,0
		C169.2,136.2,169,132.1,169,132.1z"/>
	<path d="M197.5,110c0-13.4,5.7-24.4,20.5-24.4c16.6,0,21.1,12.5,19.9,28.7c0,0-9.1,0-23,0.2c0.3,6.4,1.2,8.7,3.3,8.7
		c1.5,0,2.6-1.3,2.8-5.5c0,0,8.9,0.1,17.2,0.4c-1.4,10.9-9.2,17-20.1,17C201.9,135.1,197.5,123.9,197.5,110z M215,106.2
		c2,0,3.6,0,5.6-0.1c0.1-6.5-0.9-9.5-2.6-9.5C216,96.6,215.2,98.5,215,106.2z"/>
	<path d="M262.4,104c0-2.2-0.6-3.2-2-3.2c-1.6,0-2,1.1-2.1,3.2c-0.2,7-0.1,28.6-0.1,28.6s-7.7-0.1-17,0c0,0,0.4-17.9,0.2-45.1
		c0,0,5.6,0.2,13.2-0.1c0,0-0.2,3.8-0.1,7.3c2.2-5.1,7.4-8.9,12.9-8.9c7.5,0,11.4,5.2,11.7,14.2c0.2,5.2,0.2,35.8,0.2,35.8
		c-5.8-0.1-17,0.1-17,0.1S262.4,119.1,262.4,104z"/>
	<path d="M281.2,147.2c0-4.7,3.6-8.5,8.4-9.7c-3.2-1.9-4.6-4.7-4.6-7.5c0-2.9,1.9-5.9,5.7-8.2c-5.9-3-9-8.8-9-18.2
		c0-11.7,7-19.3,19.5-19.3c0.6,0,1.7,0.1,1.7,0.1c0.3-3,0.9-7.9,1.5-15.1c0,0,4.6,1.3,15,3.5c0,0-2.5,4.9-7,14.5
		c5,3.2,7.7,8.9,7.7,16.4c0,13.9-7.9,20.4-18,20.4c-1.5,0-2.9-0.1-4.2-0.2c-0.3,0.3-0.5,0.8-0.5,1.1c0,1.1,1,1.5,7.6,2.3
		c12.7,1.4,17.1,6.8,17.1,14.8c0,11.9-10.4,17-21.3,17C288.6,159.1,281.2,154.9,281.2,147.2z M298.8,141.4c-1.3,0.9-2.2,2.6-2.2,3.8
		c0,2.2,1.8,3.5,4.8,3.5c3.1,0,5.1-1.2,5.1-3.6S303.6,141.5,298.8,141.4z M303.7,105.6c0-7-1.1-10.2-2.6-10.2c-1.6,0-3,2.3-3,10.1
		c0,7.8,1.2,9.7,3,9.7C302.3,115.2,303.7,113.6,303.7,105.6z"/>
	<path d="M321.2,71.9c0-5.9,3.8-9.4,10.3-9.4c6.4,0,9.9,4.3,9.9,9.6c0,5.6-3.3,10-9.9,10C324.6,82,321.2,78.4,321.2,71.9z
		 M322.9,85.7c0,0,5.6,0.1,16.8-0.1c0,0-0.1,17,0.4,48.4c0,0-7.2,0-16.9,0.1C323.2,134,323.3,120.8,322.9,85.7z"/>
	<path d="M365.1,105.3c0-2.2-0.6-3.2-2-3.2c-1.6,0-2,1.1-2.1,3.2c-0.2,7-0.1,29.4-0.1,29.4s-7.7-0.1-17,0c0,0,0.4-19.3,0.2-46.5
		c0,0,5.6,0.2,13.2-0.1c0,0-0.2,4.3-0.1,7.9c2.2-5.1,7.4-8.9,12.9-8.9c7.5,0,11.4,5.2,11.7,14.2c0.2,5.2,0.2,32.3,0.2,32.3
		c-5.8-0.1-17,0.1-17,0.1S365.1,120.4,365.1,105.3z"/>
	<path d="M384.3,110.7c0-13.5,6.1-23.8,20.5-23.8c15.5,0,21.2,10.1,19.9,27.8c0,0-8.5,0-23,0.3c0.3,7,1.2,8.8,3.3,8.8
		c1.7,0,2.7-2.1,2.9-5.9c0,0,7.7,0.8,17.1,1.1c-1.1,9.1-8.6,16.6-20.1,16.6C392.1,135.4,384.3,127.7,384.3,110.7z M401.8,106.5
		c1.7,0,3.5-0.1,5.6-0.2c0.1-7.1-0.7-9.1-2.6-9.1C402.8,97.2,401.9,98.7,401.8,106.5z"/>
	<path d="M426.9,110c0-13.4,5.7-24.4,20.5-24.4c16.6,0,21.1,12.5,19.9,28.7c0,0-9.1,0-23,0.2c0.3,6.4,1.2,8.7,3.3,8.7
		c1.5,0,2.6-1.3,2.8-5.5c0,0,8.9,0.1,17.2,0.4c-1.4,10.9-9.2,17-20.1,17C431.3,135.1,426.9,123.9,426.9,110z M444.4,106.2
		c2,0,3.6,0,5.6-0.1c0.1-6.5-0.9-9.5-2.6-9.5C445.4,96.6,444.6,98.5,444.4,106.2z"/>
	<path d="M470.5,86.1c0,0,2.5,0.2,14-0.1c0,0-0.3,3.5-0.4,8.4c2.5-5.7,8.3-9.7,13.8-9.6c0,0-0.5,4.6-0.7,17.2
		c-7.2,1.1-9.5,5.4-9.7,12.4c-0.2,7.9,0.1,19.9,0.1,19.9s-4.3-0.1-17,0.1C470.7,134.5,470.9,110.1,470.5,86.1z"/>
</g>
</svg>
