<?xml version="1.0" encoding="utf-8"?>
<!-- Generator: Adobe Illustrator 26.0.2, SVG Export Plug-In . SVG Version: 6.00 Build 0)  -->
<svg version="1.1" id="_x30_" xmlns="http://www.w3.org/2000/svg" xmlns:xlink="http://www.w3.org/1999/xlink" x="0px" y="0px"
	 viewBox="0 0 1404 792" style="enable-background:new 0 0 1404 792;" xml:space="preserve">
<style type="text/css">
	.st0{fill:none;stroke:#000000;stroke-width:0.7087;stroke-linecap:round;stroke-linejoin:round;stroke-miterlimit:10;}
	.st1{fill:none;stroke:#231F20;stroke-miterlimit:10;}
</style>
<g id="LWPOLYLINE">
	<path class="st0" d="M25.8,0"/>
	<path class="st0" d="M0,0"/>
	<path class="st0" d="M186.2,213.4H159v4.3h4.3v6H159v7.1h4.3v5h-14.6c3-3.2,3-8.2,0-11.5c-3.2-3.4-8.5-3.6-11.9-0.4
		c-3.4,3.2-3.6,8.5-0.4,11.9H120v-6.2c0-7-5.7-12.8-12.8-12.8s-12.8,5.7-12.8,12.8v6.2H78.2c3-3.2,3-8.2,0-11.5
		c-3.2-3.4-8.5-3.6-11.9-0.4c-3.4,3.2-3.6,8.5-0.4,11.9H51.3v-5h4.3v-7.1h-4.3v-6h4.3v-4.3H28.3"/>
	<line class="st0" x1="28.3" y1="0" x2="186.2" y2="0"/>
</g>
<path class="st0" d="M0,16.6"/>
<path class="st0" d="M0,28.3C0,12.7,12.7,0,28.3,0"/>
<path class="st0" d="M28.3,213.4C12.7,213.4,0,200.8,0,185.1"/>
<path class="st0" d="M214.6,185.1c0,15.7-12.7,28.3-28.3,28.3"/>
<path class="st0" d="M214.6,28.3c0-15.7-12.7-28.3-28.3-28.3"/>
<line class="st0" x1="0" y1="185.1" x2="0" y2="28.3"/>
<line class="st0" x1="214.6" y1="185.1" x2="214.6" y2="28.3"/>
<g>
	<g>
		<g>
			<g>
				<g>
					<g>
						<path class="st1" d="M180.4,202.6H34.1c-8.1,0-14.8-6.6-14.8-14.8v-30.5c0-8.1,6.6-14.8,14.8-14.8h146.3
							c8.1,0,14.8,6.6,14.8,14.8v30.5C195.2,196,188.6,202.6,180.4,202.6z M34.1,144.8c-6.9,0-12.6,5.6-12.6,12.6v30.5
							c0,6.9,5.6,12.6,12.6,12.6h146.3c6.9,0,12.6-5.6,12.6-12.6v-30.5c0-6.9-5.6-12.6-12.6-12.6H34.1z"/>
					</g>
				</g>
			</g>
		</g>
	</g>
</g>
<g>
	<g>
		<g>
			<g>
				<g>
					<path class="st1" d="M44.3,97.9c0.1-0.1,0.2-0.2,0.3-0.4C46,92.4,48,87.4,48.7,82c1.3-10,6-18.3,14.7-24
						c2.3-1.5,4.4-2.3,6.2-2.4c-0.1,0.3-0.4,0.3-0.6,0.4c-8.7,3.4-14,9.9-17.2,18.3c-1.1,3-1.9,6.1-2,9.2c-0.2,3.2-1,6.2-2.1,9.1
						c-0.7,2-1.5,4.1-1.8,6.2c-0.4,2.5,0.2,4.7,1.5,6.8c1.9,2.9,4.5,5.1,7.5,6.9c0.6,0.4,0.8,0.1,1-0.4c0.6-1.4,1.5-2.5,2.8-3.4
						c0.4-0.3,0.8-0.6,1.4-0.5c-1.1,1.9-2.3,3.5-3.9,5c3.3,1.8,6.8,2.9,10.4,3.5c9.2,1.6,18.4,1.2,27.4-1.5
						c4.5-1.3,8.4-3.8,11.6-7.2c0.8-0.9,1.5-1.9,2.3-2.9c-0.8,1.9-2.1,3.5-3.6,4.9c-1.5,1.4-3.2,2.6-5,3.7c4.1,3.8,3.3,8.3,2.3,13
						c3.9,0,7.6,0.6,10.1,4.1c-4.1-3.8-8.8-3.8-13.8-2.2c-1.1,0.4-2.1,1-2.9,1.8c-1.9,1.9-1.7,4.3,0.6,5.9c-0.3-2.7,0.4-3.8,2.3-3.9
						c-1.1,1-1,2.3-1.1,3.6c-0.1,1.1,0.4,1.6,1.4,1.8c1.3,0.4,2.6,0.4,4.1,0.4c-0.5-1.1-1.2-2.2-0.5-3.4c0.2-0.4,0.5-0.7,1.1-0.7
						c-0.4,1.3,0.2,2.4,0.4,3.6c0.1,0.5,0.3,0.5,0.7,0.5c5-0.3,10-0.9,14.7-3.1c2.1-1,3.7-2.4,5.1-4.3c1.4-1.9,2.8-3.8,4.3-5.8
						c0.1,0.6-0.3,0.8-0.4,1.1c-0.7,1.1-1.5,2.1-2,3.2c-2.7,5.4-7.5,7.9-13.1,9.1c-3.9,0.9-7.9,1.3-11.9,1.1
						c-2.3-0.1-4.4-0.8-6.1-2.4c-1.4-1.3-2.2-2.8-1.9-4.8c0.1-0.6-0.1-0.8-0.6-0.9c-3.8-0.7-7.1-2.5-10-5c-1.2-1.1-2.4-1.2-3.8-1
						c-2.5,0.4-4.9,3.2-5,5.8c0,0.6,0.1,1.2,0.6,1.8c0.1-1.6,0.6-2.9,2.4-3.6c-0.9,1.8-1.5,3.6-0.4,5c0.8,1,2.4,0.9,3.9,1.2
						c-0.8-1.4-1.2-2.7,0.2-4.1c0.3,1.3,0.5,2.4,0.8,3.5c0.1,0.4,0.2,0.7,0.8,0.7c2.3,0,4.6-0.3,6.8-1.2c1.2-0.5,2.2-1.3,2.8-2.5
						c-0.2,1.3-1,2.2-2,2.8c-2.6,1.7-5.5,2.1-8.5,2.1c-1.8,0-3.6-0.3-5.2-1.1c-3.2-1.4-4.2-4.2-2.5-7.3c1.5-2.8,3.8-4.3,7.3-4.1
						c-1.5-1.9-3.1-3.6-3.9-5.8c4.3,4.9,9.2,9,15.1,11.9c1.5,0.7,1.5,0.7,2.6-0.5c0.5-0.6,1.1-1.1,1.8-1.5c1.5-0.9,3.1-1.5,4.8-1.7
						c0.9-0.1,1.1-0.4,1.1-1.3c0-2,0-4-0.2-6c-0.2-1.6-0.4-3.2-1.3-4.7c-0.4-0.8-0.8-1-1.8-0.5c-2.6,1.4-5.4,2.5-8.4,3
						c-4.5,0.8-9.1,1.3-13.7,1.4c-4.5-0.1-8.9-0.4-13.3-1.7c-5.3-1.5-10.1-3.7-14-7.8c-1.7-1.8-3.1-3.7-3.8-6.1
						c-0.1-0.3-0.2-0.5-0.4-0.6C44.3,101.1,44.3,99.5,44.3,97.9z"/>
				</g>
			</g>
		</g>
		<g>
			<g>
				<g>
					<path class="st1" d="M170.9,103.1c-0.5,1.2-0.9,2.3-1.9,3.2c-1.1,1-2.3,1.6-3.9,1.4c-0.2,0-0.5-0.1-0.6,0
						c-0.9,0.4-1.8,0.4-2.5-0.4c-1,2.3-1.1,4.8-1.5,7.1c-1,5.5-3.5,10.2-7.1,14.3c-0.2,0.2-0.4,0.6-0.9,0.6c0.8-1.3,1.6-2.5,2.4-3.7
						c3-4.6,5.1-9.6,4.9-15.2c-0.2-5.5-1.9-10.6-5.2-15c-5.2-7.2-14-8.2-20.9-2.6c-8,6.4-10.7,18.2-5.9,27.1
						c2.8,5.2,6.7,9.2,12.8,10.5c0.9,0.2,1.8,0.1,3,0.2c-1.3,0.3-2.3,0.2-3.4,0c-3.7-0.7-6.8-2.6-9.4-5.4c-3-3.2-5.2-6.7-5.9-11
						c-1.5-9.5,1.4-17.4,9.1-23.2c7.5-5.7,17.4-3.5,22.5,4.7c2.2,3.5,3.7,8.2,4.4,13c0.5-0.2,0.4-0.6,0.4-0.9
						c1.2-8.7,0.3-17-4.9-24.3c-3.6-5.1-8.5-8.6-14.2-11c-3.9-1.7-8-3.1-12.2-3.8c-2.8-0.5-5.6-0.2-8.5-0.1c-2,0.1-3.9,0.3-5.8,0.7
						c2.4-0.9,4.8-1.2,7.3-1.5c5.6-0.7,10.9,0.2,16.1,2c6.9,2.4,13,5.9,17.5,11.8c2.9,3.7,4.6,7.9,5.5,12.6c0,0.2,0.1,0.4,0.2,0.8
						c1.1-0.9,2.3-1.3,3.6-1c1,0.2,1.9,0.6,2.6,1.4c0.6,0.6,1.2,1.2,1.1,2c-0.1,1.5,0.8,2.6,1.4,3.8
						C170.9,101.9,170.9,102.5,170.9,103.1z M164.9,106.7c2.5,0.1,4.9-2.5,4.6-4.9c-0.1-0.6-0.3-1.1-0.8-1.4
						c-0.5-0.3-0.6-0.6-0.5-1.1c0.5-1.5-0.1-2.7-1.3-3.6c-1.2-1-2.6-1.3-4.1-0.7c-0.6,0.2-0.7,0.6-0.7,1.2c0.4,3.3,0.4,6.7-0.2,10
						c-0.1,0.5,0.1,0.9,0.5,1.1c0.4,0.2,1,0.3,1.2-0.2C164.1,106.5,164.5,106.7,164.9,106.7z"/>
				</g>
			</g>
		</g>
		<g>
			<g>
				<g>
					<path class="st1" d="M69.1,54.5c-2.4-5.5-4.7-11.1-2.6-17.4c1.6-4.9,4.2-9.2,8.1-12.6c3.3-3,7-5.4,11.2-7c1.7-0.6,3.3-1.3,5-2
						c2.8-1.2,5.3-2.7,7.4-5c0.7-0.8,1.5-1.5,2.3-2.2c0.8-0.8,1.7-1.4,2.7-2c2.3-1.2,4.1-0.5,4.9,2c0.9,2.5,0.8,5.1,0.1,7.7
						c-0.6,2.4-1.5,4.7-2.8,6.8c-4.8,7.4-8.9,15.2-13.2,22.8c-0.6,1-1.3,2-2,3.2c6.7-4.1,13.3-8.1,18.2-14.3
						c2.9-3.6,5.9-7.1,9.5-10.1c2.9-2.4,5.9-4.4,9.5-5.6c3.2-1,5,0.1,5.5,3.5c0.3,2.2,0,4.4-0.3,6.6c-0.4,3.3-0.4,6.5-1,9.8
						c-1.5,8.3-6.4,14.1-13,18.7c-3.3,2.3-6.9,3.9-10.8,5.1c3.6,2.7,5.5,6.4,6.3,10.6c0.9,4.7-0.2,9.3-1.8,13.8
						c0.3-2.6,0.6-5.1,0.8-7.7c0.4-4.7-0.7-9.1-2.9-13.2c-0.2-0.5-0.6-0.9-0.8-1.3c-0.9-1.5-2-2.2-3.9-1.6c-2.8,0.9-5.8,1-8.7,0.8
						c3.5-0.2,6.9-0.7,10.3-1.7c7.2-2.2,13.3-6.3,18.2-12c3.7-4.3,5.2-9.5,5.8-15.1c0.3-3.2,0.6-6.4,0.8-9.6
						c0.1-1.3,0.1-2.6-0.2-3.9c-0.4-1.5-1.3-2.1-2.8-1.8c-2,0.4-3.8,1.4-5.6,2.4c-4.4,2.6-8,6.2-11.4,10c-1.6,1.8-3.3,3.6-5,5.4
						c-2.7,2.9-5.7,5.2-9.1,7.1c-1.4,0.8-2.8,1.6-4.3,2.4c-2.2,1.3-4.3,2.7-5.8,4.9c-0.3,0.5-0.8,1-1.4,1.3c0.5-0.7,0.9-1.5,1.4-2.1
						c2.1-2.4,3.7-5.2,5.2-8c3.6-6.9,7.2-13.9,11.3-20.5c1.7-2.8,3-5.8,3.4-9.2c0.2-1.7,0.1-3.4-0.5-5.1c-0.6-1.7-1.5-2-3.1-1.2
						c-1.4,0.8-2.6,1.8-3.6,2.9c-3.2,3.6-7.3,5.9-11.9,7.5c-6.1,2-11.3,5.3-15.6,10.1c-3.5,3.9-5.6,8.4-6.2,13.6
						c-0.3,2.4,0.3,4.7,1,7C67.9,50.6,68.8,52.5,69.1,54.5z"/>
				</g>
			</g>
		</g>
		<g>
			<g>
				<g>
					<path class="st1" d="M81.9,83.2c0.3-1.1,1.1-1.8,1.9-2.6c-2.2,0.1-3.8,2.1-4.4,5.3c-0.3-1.6,0.2-3.2,1.5-4.5
						c2.8-2.8,8.1-2.8,10.8,0.1c2.8,2.9,2.2,6.9-1.3,8.8c-1.6,0.9-3.3,1.6-5.2,1.2c0.8-0.2,1.6,0.1,2.4-0.5
						c-2.4,0.1-4.2-0.7-5.4-2.7C81.2,86.7,81.1,84.9,81.9,83.2c0,0.3-0.1,0.7-0.1,1.1c0,1.2,0.9,2,2.1,2c1.2-0.1,2.1-1.1,1.9-2.3
						c-0.1-1.1-1.1-1.9-2.3-1.7C82.8,82.3,82.4,82.8,81.9,83.2z M91.4,89.1c1.7-1.5,2-3.5,1.1-5.3C92.9,85.6,92.5,87.3,91.4,89.1z"
						/>
				</g>
			</g>
		</g>
		<g>
			<g>
				<g>
					<path class="st1" d="M60,91.6c-2.8,0.4-5-0.6-7-2.5c-1.8-1.7-1.8-4.7-0.3-6.9c2.7-3.7,9.1-3.9,11.9-0.3c1,1.2,1.3,2.6,1,4.4
						c-0.2-1.2-0.1-2.3-1.1-3.5c1,3.2,0.5,5.8-2.3,7.5c-2,1.2-4.1,1.1-6-0.2c-2-1.4-2.6-3.4-2.2-5.8c0.3,0.6,0.5,1.3,1.2,1.6
						c0.7,0.3,1.3,0.3,1.9,0c1-0.5,1.3-1.7,0.8-2.7c-0.6-1.2-1.8-1.4-3.5-0.5c0.6-1.2,1.6-1.9,2.6-2.6c-2.4,0.5-4.2,1.7-4.9,4.1
						c-0.7,2.1,0.1,4.2,2,5.4C56.1,90.8,57.9,91.7,60,91.6z"/>
				</g>
			</g>
		</g>
		<g>
			<g>
				<g>
					<path class="st1" d="M152.2,130.6c0.5,1.1,0.1,1.9-0.6,2.6c-1,1.1-2.2,1.6-3.5,2c-5.2,1.6-10.5,1.8-15.9,1.3
						c-0.7-0.1-1.4-0.3-2-0.6c-1.9-0.7-3.3-1.9-3.5-4.1c-0.2-2.1,1.5-4.8,3.2-5.6c0.3-0.1,0.5-0.3,0.8-0.1c-2.8,1.7-4.1,5.1-2.5,7.1
						c0.3-1.8,1-3.2,3.2-3.7c-0.9,1.4-1.6,2.6-2.2,3.8c-0.4,0.7-0.1,1.1,0.5,1.3c1,0.4,2.1,0.6,3.2,0.8c0.5,0.1,0.6-0.1,0.5-0.6
						c-0.2-1.1-0.1-2.1,0.8-3.1c0.6,1,0.6,2,0.3,3c-0.1,0.5,0,0.7,0.6,0.7c4.2-0.2,8.4-0.2,12.5-1.3
						C149.9,133.7,151.1,133.4,152.2,130.6z"/>
				</g>
			</g>
		</g>
		<g>
			<g>
				<g>
					<path class="st1" d="M126.7,33c0.2-1,0.4-2,0.2-3.1c-0.1-0.8-0.4-1.1-1.2-0.7c-1.1,0.5-2.1,1.2-2.9,2.1
						c-1.7,1.8-3.5,3.7-5.1,5.6c-5.5,7-12.7,11.4-21,14.1c-1.7,0.6-3.4,1.4-4.8,2.6c0.4-0.8,1.2-1.4,1.9-1.9
						c1.5-1.1,3.2-1.7,4.9-2.4c6.5-2.8,12.3-6.5,16.9-12c1.9-2.3,4-4.4,6.2-6.5c1.3-1.2,2.7-2.2,4.5-2.6c0.7-0.1,1,0.1,1.1,0.8
						C127.6,30.5,127.5,31.8,126.7,33z"/>
				</g>
			</g>
		</g>
		<g>
			<g>
				<g>
					<path class="st1" d="M73.2,106.3c-1.7-0.8-2.2-2.4-2.4-4c-0.2-1.5,0.5-2.7,1.2-4.1c-0.6-0.1-1-0.1-1.5-0.2
						c-1.5-0.3-2.6-1.5-2.8-3c-0.2-1.4,0.6-2.2,2-2c1,0.1,2,0.8,3.2,0.5c-0.8,0.6-1.6,0.3-2.3,0.2c-0.6,0-1.5-0.4-1.8,0.3
						c-0.4,0.7,0,1.4,0.5,2.1c0.9,1.2,2.8,1.6,4.1,0.8c0.2-0.1,0.5-0.3,1-0.6c-0.4,0.8-0.9,1.2-1.4,1.3c-1,0.2-1,0.9-1.1,1.6
						C71.3,101.8,72,104.1,73.2,106.3L73.2,106.3z"/>
				</g>
			</g>
		</g>
		<g>
			<g>
				<g>
					<path class="st1" d="M70.1,36c-1,3.7-1.6,7.2-0.5,10.8C66.8,45.1,67,39.3,70.1,36z"/>
				</g>
			</g>
		</g>
		<g>
			<g>
				<g>
					<path class="st1" d="M92.6,102c-3.5-1.1-7.2,0.6-10.8-0.6C85.5,100.9,89.2,99.2,92.6,102z"/>
				</g>
			</g>
		</g>
		<g>
			<g>
				<g>
					<path class="st1" d="M62.9,101.4c-1.2,0.6-2.3,0.6-3.4,0.5c-1.5-0.1-3-0.1-4.5-0.2c-1.1,0-2.1,0-3.2,0.4c0.6-1,1.5-1.3,2.5-1.5
						c1.9-0.4,3.7-0.2,5.5,0.2C60.8,101,61.7,101.2,62.9,101.4z"/>
				</g>
			</g>
		</g>
		<g>
			<g>
				<g>
					<path class="st1" d="M92.9,108.7c-3.1-1.5-6.2-2.4-9.2-3.7C86,103.9,91.5,106.1,92.9,108.7z"/>
				</g>
			</g>
		</g>
		<g>
			<g>
				<g>
					<path class="st1" d="M60.8,104.9c-3,1.3-6.2,2.2-9.1,3.6C52.5,106.3,58.1,104,60.8,104.9z"/>
				</g>
			</g>
		</g>
		<g>
			<g>
				<g>
					<path class="st1" d="M84.6,108.3c2.4,0.9,3.7,2.8,4.6,5.5C86.9,112.3,85.7,110.3,84.6,108.3z"/>
				</g>
			</g>
		</g>
		<g>
			<g>
				<g>
					<path class="st1" d="M73.2,106.3c0.9,0.8,1.6,0.5,2.7-0.8c0.4,0.7,0.2,1.3-0.3,1.8c-0.5,0.5-1.2,0.5-1.7,0.1
						c-0.5-0.4-0.7-0.4-1.2,0.1c-0.9,0.8-2,0.1-2.2-1.1C71.3,106.5,72.3,107.3,73.2,106.3C73.2,106.3,73.2,106.3,73.2,106.3z"/>
				</g>
			</g>
		</g>
	</g>
	<g>
		<g>
			<g>
				<path class="st1" d="M186.1,112.7c-0.3-0.9-0.6-1.8-0.9-2.5c-0.8-2-2-3.7-4.3-4.3c-0.9-0.2-1.9-0.1-2.8,0.1
					c-1,0.3-1.9,0.7-2.8,1.2c-1.6,1-2.1,2.6-2.2,4.3c-0.1,2.8,0.8,5.4,1.8,8c1.4,3.7,3.2,7.1,5.2,10.5c0.1,0.2,0.3,0.5,0.3,0.8
					c-0.3-0.4-0.6-0.8-0.9-1.2c-3-4.3-5.7-8.7-7.3-13.7c-0.7-2.2-1.1-4.4-0.5-6.7c0.4-1.7,1.3-2.9,2.8-3.8c1.4-0.8,2.8-1.5,4.4-1.7
					c2.6-0.4,4.8,0.4,6.5,2.3c0.3,0.4,0.6,0.7,1,1.2c0.6-0.8,1.1-1.5,1.7-2.3c2.1-2.5,4.5-4.6,7.8-5.4c6.1-1.6,12.4,2.6,13.4,8.8
					c0.7,4.9-0.9,8.7-5,11.5c-1.9,1.3-4,2.3-6.1,3.2c-5.8,2.6-11.2,5.9-15.9,10.2c-1.3,1.1-2.5,2.3-3.6,3.6c0.5-0.9,1.2-1.8,1.9-2.6
					c4.5-5.3,10-9.2,16.1-12.4c2.4-1.2,4.8-2.4,6.9-4c4.8-3.8,4.7-11.2-0.2-14.6c-2.9-2-6.8-2-10,0.2c-2.6,1.8-4.5,4.2-6,7
					C187,111.1,186.6,111.8,186.1,112.7z"/>
			</g>
		</g>
	</g>
	<g>
		<g>
			<g>
				<path class="st1" d="M152.2,39.3c-0.3-0.9-0.6-1.8-0.9-2.5c-0.8-2-2-3.7-4.3-4.3c-0.9-0.2-1.9-0.1-2.8,0.1
					c-1,0.3-1.9,0.7-2.8,1.2c-1.6,1-2.1,2.6-2.2,4.3c-0.1,2.8,0.8,5.4,1.8,8c1.4,3.7,3.2,7.1,5.2,10.5c0.1,0.2,0.3,0.5,0.3,0.8
					c-0.3-0.4-0.6-0.8-0.9-1.2c-3-4.3-5.7-8.7-7.3-13.7c-0.7-2.2-1.1-4.4-0.5-6.7c0.4-1.7,1.3-2.9,2.8-3.8c1.4-0.8,2.8-1.5,4.4-1.7
					c2.6-0.4,4.8,0.4,6.5,2.3c0.3,0.4,0.6,0.7,1,1.2c0.6-0.8,1.1-1.5,1.7-2.3c2.1-2.5,4.5-4.6,7.8-5.4c6.1-1.6,12.4,2.6,13.4,8.8
					c0.7,4.9-0.9,8.7-5,11.5c-1.9,1.3-4,2.3-6.1,3.2c-5.8,2.6-11.2,5.9-15.9,10.2c-1.3,1.1-2.5,2.3-3.6,3.6c0.5-0.9,1.2-1.8,1.9-2.6
					c4.5-5.3,10-9.2,16.1-12.4c2.4-1.2,4.8-2.4,6.9-4c4.8-3.8,4.7-11.2-0.2-14.6c-2.9-2-6.8-2-10,0.2c-2.6,1.8-4.5,4.2-6,7
					C153.1,37.7,152.7,38.4,152.2,39.3z"/>
			</g>
		</g>
	</g>
	<g>
		<g>
			<g>
				<path class="st1" d="M28.4,112.7c0.3-0.9,0.6-1.8,0.9-2.5c0.8-2,2-3.7,4.3-4.3c0.9-0.2,1.9-0.1,2.8,0.1c1,0.3,1.9,0.7,2.8,1.2
					c1.6,1,2.1,2.6,2.2,4.3c0.1,2.8-0.8,5.4-1.8,8c-1.4,3.7-3.2,7.1-5.2,10.5c-0.1,0.2-0.3,0.5-0.3,0.8c0.3-0.4,0.6-0.8,0.9-1.2
					c3-4.3,5.7-8.7,7.3-13.7c0.7-2.2,1.1-4.4,0.5-6.7c-0.4-1.7-1.3-2.9-2.8-3.8c-1.4-0.8-2.8-1.5-4.4-1.7c-2.6-0.4-4.8,0.4-6.5,2.3
					c-0.3,0.4-0.6,0.7-1,1.2c-0.6-0.8-1.1-1.5-1.7-2.3c-2.1-2.5-4.5-4.6-7.8-5.4c-6.1-1.6-12.4,2.6-13.4,8.8
					c-0.7,4.9,0.9,8.7,5,11.5c1.9,1.3,4,2.3,6.1,3.2c5.8,2.6,11.2,5.9,15.9,10.2c1.3,1.1,2.5,2.3,3.6,3.6c-0.5-0.9-1.2-1.8-1.9-2.6
					c-4.5-5.3-10-9.2-16.1-12.4c-2.4-1.2-4.8-2.4-6.9-4c-4.8-3.8-4.7-11.2,0.2-14.6c2.9-2,6.8-2,10,0.2c2.6,1.8,4.5,4.2,6,7
					C27.6,111.1,28,111.8,28.4,112.7z"/>
			</g>
		</g>
	</g>
</g>
<g>
	<path d="M58,189.4l-4.8,0c-0.6,0-1.1-0.2-1.5-0.5c-0.4-0.3-0.6-0.7-0.7-1.2c-0.4-3-0.8-5.8-1.3-8.6l-10.4-0.2
		c-0.7,3.4-1.3,6.4-1.7,8.8c-0.1,0.5-0.3,0.9-0.8,1.2c-0.4,0.3-0.9,0.5-1.4,0.5l-4.3-0.1c-0.6,0-1.2-0.2-1.5-0.6
		c-0.4-0.4-0.6-0.8-0.6-1.3c0,0,0-0.1,0-0.2c0-0.1,0.1-0.7,0.3-1.9c0.6-3.8,1.4-7.5,2.5-11.3c1.5-5.5,3.2-10,5.3-13.5
		c2.5-4.3,5.3-6.5,8.4-6.5h0.2c3.8,0.2,6.9,3.9,9.5,11.1c2.1,6,3.8,13.4,5,22.3l0,0.2c0,0.5-0.2,0.9-0.6,1.3
		C59.3,189.1,58.7,189.3,58,189.4z M48.5,172.1c-1.2-5.5-2.4-9-3.6-10.6c-1.1,1.5-2.3,4.9-3.8,10.4L48.5,172.1z"/>
	<path d="M75,189.3c-0.6,0-1.3-0.1-1.9-0.3c-1.8-0.7-3.4-2.1-4.6-4.2c-2.1-3.6-3.5-8.6-4.4-14.8c-0.4-2.7-0.6-4.4-0.6-5
		c0-0.5,0.2-1,0.6-1.4c0.4-0.4,0.9-0.6,1.6-0.6h4.9c0.6,0,1.1,0.2,1.5,0.5c0.4,0.4,0.6,0.8,0.7,1.3c0.1,2.8,0.4,5.7,1,8.6
		c0.6,2.9,1.2,5.3,2,7.3c0.7-1.7,1.3-4.1,2-7c0.7-3,1.3-6,1.7-9c0.1-0.5,0.3-0.9,0.7-1.2c0.4-0.3,0.9-0.5,1.4-0.5h4.2
		c0.7,0,1.2,0.2,1.7,0.7c0.4,0.4,0.5,0.8,0.5,1.3c0,0.4-0.4,2.2-1.2,5.5c-0.7,2.8-1.6,5.8-2.8,9c-1.2,3.2-2.6,5.7-4.2,7.6l0,0
		C78.5,188.5,76.8,189.3,75,189.3z"/>
	<path d="M110.1,189c-0.8,0-1.4-0.2-1.9-0.6c-0.3-0.2-0.5-0.6-0.7-1.1c-2,1.1-4.2,1.7-6.5,1.7c-0.3,0-0.7,0-1.1,0
		c-3.4-0.3-5.8-1.6-7.2-3.8c-0.6-1.1-0.9-2.3-0.9-3.5c0-1.6,0.5-3.2,1.6-4.9c2-2.9,5.5-4.3,10.3-4.5h0.3c1.4,0,2.7,0.2,4.1,0.5
		c-0.1-1.7-0.4-2.9-0.8-3.6c-0.6-1.1-1.8-1.6-3.4-1.6c-0.1,0-0.3,0-0.7,0c-0.4,0-0.9,0.2-1.5,0.5c-0.6,0.3-0.9,0.7-0.9,1.1
		c-0.1,0.5-0.3,0.9-0.7,1.3c-0.4,0.3-0.9,0.5-1.5,0.5l-3.2,0c-0.6,0-1.2-0.2-1.6-0.6c-0.4-0.4-0.6-0.8-0.6-1.4
		c0.2-3.2,2.2-5.5,6.1-6.6c1.7-0.4,3.4-0.6,5.1-0.6c1.1,0,2.7,0.2,4.8,0.5c2.1,0.3,3.8,1.2,5.1,2.5c1.1,1.3,1.8,3,2.2,5.1
		c0.3,1.7,0.5,3.6,0.5,5.6c0,2.4-0.2,5.3-0.5,8.6c-0.1,0.9-0.2,1.6-0.2,2.2c-0.1,0.7-0.4,1.3-1,1.9s-1.4,0.9-2.3,1l-2.7,0L110.1,189
		z M102.4,184.2c1.9,0,3.3-0.5,4.2-1.5c0.6-0.8,1.1-1.7,1.3-2.8l0.1-1.8c-0.8-0.6-2-0.9-3.8-0.9c-1.8,0.1-3.1,0.6-4,1.5
		c-0.7,0.9-1.1,1.7-1.1,2.5c0,1,0.4,1.8,1.3,2.5C100.8,184.1,101.5,184.2,102.4,184.2L102.4,184.2z"/>
	<path d="M127.4,189.1h-4c-0.6,0-1.1-0.2-1.5-0.6c-0.4-0.4-0.6-0.8-0.7-1.4c0.1-9.6,0.2-17,0.4-22.3c0-0.5,0.3-1,0.7-1.3
		c0.4-0.4,0.9-0.5,1.5-0.5l5,0c0.8,0,1.3,0.3,1.4,1c1.2-0.7,2.7-1,4.5-1c2.3,0,4.3,0.6,5.9,1.9c2.5,2.1,3.7,5.5,3.7,10.2v0.3
		c0,0.5-0.3,1-0.7,1.3c-0.4,0.3-0.9,0.5-1.6,0.5l-3.6-0.1c-0.6,0-1.1-0.2-1.5-0.5s-0.6-0.8-0.7-1.3c-0.1-2.1-0.3-3.5-0.6-4.4
		c-0.3-0.9-0.9-1.3-1.6-1.3h-0.2c-0.6,0-1.1,0.2-1.5,0.5c-1.1,0.8-1.8,3-2.3,6.5c-0.1,4.4-0.2,7.9-0.4,10.6c0,0.5-0.3,1-0.7,1.3
		C128.5,188.9,128,189.1,127.4,189.1z"/>
	<path d="M154.1,189.1h-4c-0.6,0-1.1-0.2-1.5-0.6c-0.4-0.4-0.6-0.8-0.7-1.4c0.1-9.1,0.2-16.2,0.4-21.1c0-0.5,0.3-1,0.7-1.3
		c0.4-0.4,0.9-0.5,1.5-0.5h4.2c0.6,0,1.1,0.2,1.5,0.6c0.4,0.4,0.6,0.8,0.7,1.4v1.2c0,2.4,0,5.7-0.1,9.8c-0.1,4.1-0.2,7.5-0.4,10.2
		c-0.1,0.5-0.3,1-0.7,1.3C155.1,188.9,154.6,189.1,154.1,189.1z M152.3,161.9c-1.3,0-2.2-0.3-3-0.9c-0.9-0.7-1.4-1.7-1.4-2.8
		c0.1-2.5,1.5-3.9,4-4.4c0.3,0,0.5,0,0.8,0c1.2,0,2.2,0.4,3.1,1.1c0.9,0.8,1.4,1.7,1.4,2.8v0.1c-0.2,2.3-1.5,3.7-4,4.1
		C152.8,161.9,152.5,161.9,152.3,161.9z"/>
	<path d="M174.9,188.9c-2.5,0-5-0.5-7.6-1.6c-2.1-0.9-3.6-2.3-4.7-4.2c-1.3-2.1-1.9-4.6-1.9-7.3c0-1.7,0.3-3.4,0.8-4.9
		c1.1-3.1,3-5.3,5.5-6.8c2.1-1.2,4.5-1.8,7.2-1.8c0.6,0,1.3,0,2,0.1c2.4,0.3,4.3,1,5.6,2c1.3,1,2.2,2.1,2.8,3.3
		c0.4,1.1,0.7,2,0.7,2.9v0.3l0.1,1.4c0.1,0.9,0.1,1.5,0.1,1.8c0,0.4-0.1,0.7-0.3,1.1c-0.2,0.4-0.4,0.7-0.8,0.9
		c-0.7,0.5-1.5,0.8-2.5,0.9l-1.9,0.2c-5.6,0.6-9.1,0.9-10.7,1.1c0.2,0.8,0.4,1.6,0.8,2.3c0.9,1.7,2.2,2.6,3.9,2.7l0.7,0
		c2,0,3.3-0.6,3.7-1.8c0.2-0.4,0.4-0.8,0.8-1s0.8-0.4,1.3-0.4l2.6,0.1c0.6,0,1.2,0.3,1.5,0.6s0.5,0.8,0.5,1.3v0.2
		c-0.3,2.4-1.8,4.2-4.4,5.5C178.8,188.5,176.9,188.9,174.9,188.9z M169.5,172.1l8.8-0.9c0-0.1,0-0.2,0-0.3c0-0.1-0.1-0.4-0.2-0.8
		c-0.1-0.4-0.4-0.9-0.8-1.3c-0.4-0.4-1-0.7-1.9-0.9c-0.3,0-0.5,0-0.8,0c-1.4,0-2.6,0.6-3.6,1.7C170.4,170.2,169.9,171.1,169.5,172.1
		z"/>
</g>
</svg>
