<?xml version="1.0" encoding="UTF-8"?>
<svg xmlns="http://www.w3.org/2000/svg" width="3.66in" height="4.18in" viewBox="0 0 263.83 300.83">
  <defs>
    <style>
      .cls-1 {
        fill: none;
        stroke: #231f20;
        stroke-linecap: round;
        stroke-linejoin: round;
      }

      .cls-2 {
        fill: #231f20;
      }
    </style>
  </defs>
  <g id="Text">
    <g>
      <path class="cls-2" d="M36.38,56.97h-4.38l-7.38-23.92h4.56l5.49,18.33,5.61-18.33h3.59l-7.48,23.92Z"/>
      <path class="cls-2" d="M50.33,37.2h-4v-4.15h4v4.15Zm0,19.77h-4v-17.7h4v17.7Z"/>
      <path class="cls-2" d="M59.13,56.97h-4v-17.7h3.61v4.22c.51-1.65,1.22-2.85,2.12-3.61,.9-.76,1.82-1.14,2.77-1.14,.13,0,.3,0,.53,.02v4.29c-2.03,0-3.38,.65-4.04,1.95-.66,1.3-.99,2.55-.99,3.77v8.2Z"/>
      <path class="cls-2" d="M75.95,53.85v3.12c-1.19,.26-2.11,.39-2.77,.39-1.08,0-2-.21-2.77-.64s-1.34-1.01-1.69-1.75c-.36-.74-.53-1.88-.53-3.43v-9.17h-2.21v-3.1h2.44l.37-4.61,3.28-.3v4.91h3.56v3.1h-3.56v8.64c0,1.11,.2,1.87,.6,2.27s1.17,.6,2.29,.6c.32,0,.65-.01,1-.04Z"/>
      <path class="cls-2" d="M93.88,56.97h-3.72v-3.82c-1.01,2.79-2.87,4.19-5.59,4.19-1.61,0-2.89-.5-3.84-1.5s-1.42-2.39-1.42-4.18v-12.39h4.08v11.53c0,1.27,.28,2.11,.84,2.51,.56,.4,1.11,.6,1.65,.6,.86,0,1.75-.39,2.65-1.17,.9-.78,1.35-2.43,1.35-4.97v-8.5h4v17.7Z"/>
      <path class="cls-2" d="M113.83,56.97h-3.8c-.34-1.07-.54-2.27-.61-3.58-1.06,2.63-3.06,3.94-5.99,3.94-1.76,0-3.18-.52-4.25-1.55s-1.6-2.33-1.6-3.9c0-4.07,3.57-6.1,10.71-6.1,.28,0,.66,0,1.14,.02v-1.33c0-1.83-1.25-2.75-3.75-2.75s-3.81,.92-4.14,2.75l-3.4-.51c.19-1.47,.95-2.68,2.28-3.64,1.33-.95,3.26-1.43,5.78-1.43,1.37,0,2.48,.11,3.35,.34,.86,.23,1.59,.61,2.19,1.16s1.01,1.13,1.24,1.77c.23,.64,.34,1.71,.34,3.23v7.99c0,1.16,.18,2.35,.53,3.58Zm-4.42-9.01c-5.16,0-7.75,1.23-7.75,3.7,0,.74,.26,1.36,.78,1.88,.52,.52,1.31,.78,2.36,.78,1.52,0,2.67-.48,3.44-1.45,.78-.96,1.17-2.06,1.17-3.29v-1.63Z"/>
      <path class="cls-2" d="M122.06,56.97h-4v-23.92h4v23.92Z"/>
      <path class="cls-2" d="M159.54,56.97h-4.4v-20.94l-6.62,20.94h-2.26l-6.66-20.94v20.94h-3.52v-23.92h6.75l5.01,15.41,4.92-15.41h6.78v23.92Z"/>
      <path class="cls-2" d="M175.83,51.33l3.61,.49c-.47,1.6-1.38,2.92-2.73,3.96-1.36,1.04-3.06,1.56-5.1,1.56-2.45,0-4.43-.82-5.92-2.47s-2.24-3.88-2.24-6.69,.75-4.89,2.26-6.64,3.55-2.63,6.13-2.63,4.48,.86,5.85,2.59c1.38,1.73,2.07,3.95,2.07,6.66l-.02,.46h-12.15c0,1.2,.11,2.17,.34,2.89,.23,.72,.68,1.36,1.36,1.89,.68,.54,1.52,.81,2.54,.81,1.97,0,3.31-.96,4-2.87Zm-.25-5.29c-.01-1.27-.39-2.31-1.15-3.12s-1.69-1.21-2.8-1.21-2.02,.38-2.75,1.13-1.17,1.82-1.3,3.2h7.99Z"/>
      <path class="cls-2" d="M194.66,51.33l3.61,.49c-.47,1.6-1.38,2.92-2.73,3.96-1.36,1.04-3.06,1.56-5.1,1.56-2.45,0-4.43-.82-5.92-2.47s-2.24-3.88-2.24-6.69,.75-4.89,2.26-6.64,3.55-2.63,6.13-2.63,4.48,.86,5.85,2.59c1.38,1.73,2.07,3.95,2.07,6.66l-.02,.46h-12.15c0,1.2,.11,2.17,.34,2.89,.23,.72,.68,1.36,1.36,1.89,.68,.54,1.52,.81,2.54,.81,1.97,0,3.31-.96,4-2.87Zm-.25-5.29c-.01-1.27-.39-2.31-1.15-3.12s-1.69-1.21-2.8-1.21-2.02,.38-2.75,1.13-1.17,1.82-1.3,3.2h7.99Z"/>
      <path class="cls-2" d="M210.22,53.85v3.12c-1.19,.26-2.11,.39-2.77,.39-1.08,0-2-.21-2.77-.64s-1.33-1.01-1.69-1.75c-.36-.74-.53-1.88-.53-3.43v-9.17h-2.21v-3.1h2.44l.37-4.61,3.28-.3v4.91h3.56v3.1h-3.56v8.64c0,1.11,.2,1.87,.6,2.27s1.17,.6,2.29,.6c.32,0,.65-.01,1-.04Z"/>
      <path class="cls-2" d="M217.56,37.2h-4v-4.15h4v4.15Zm0,19.77h-4v-17.7h4v17.7Z"/>
      <path class="cls-2" d="M237.02,56.97h-4v-11.06c0-1.17-.27-2.05-.81-2.64-.54-.59-1.19-.89-1.95-.89-1.04,0-1.95,.46-2.73,1.37s-1.17,2.28-1.17,4.12v9.1h-4v-17.7h3.65v4.1c1.27-2.98,3.06-4.47,5.36-4.47,1.55,0,2.88,.49,3.99,1.47s1.66,2.71,1.66,5.17v11.43Z"/>
      <path class="cls-2" d="M257.94,35.89v3.07h-1.23c-.54,0-1.01,.06-1.41,.19-.4,.13-.8,.54-1.18,1.24,1.4,1.15,2.1,2.42,2.1,3.82,0,1.57-.66,2.86-1.97,3.89-1.31,1.03-3.05,1.54-5.21,1.54-.94,0-2.03-.15-3.28-.46-.82,.37-1.23,.95-1.23,1.74,0,.43,.2,.83,.6,1.19,.4,.36,1,.54,1.81,.54h5.26c1.8,0,3.21,.46,4.23,1.39s1.53,2.08,1.53,3.46c0,1.67-.77,3.06-2.32,4.15-1.55,1.1-3.84,1.65-6.88,1.65-5.71,0-8.57-1.59-8.57-4.78,0-1.58,.86-2.77,2.58-3.59-1.1-.93-1.65-1.91-1.65-2.93,0-1.54,.94-2.77,2.82-3.68-1.64-.99-2.45-2.36-2.45-4.1,0-1.47,.6-2.73,1.81-3.77,1.2-1.04,3.03-1.56,5.49-1.56,1.12,0,2.26,.12,3.42,.37,.54-2.25,1.96-3.38,4.26-3.38h1.49Zm-13.46,20.12c-.57,.53-.86,1.03-.86,1.52,0,.81,.48,1.52,1.44,2.13s2.48,.92,4.57,.92c3.07,0,4.61-.79,4.61-2.37,0-.58-.27-1.03-.81-1.32s-1.15-.45-1.84-.45h-4.24c-.81,0-1.76-.15-2.87-.44Zm4.38-8.73c2.17,0,3.26-1.02,3.26-3.07,0-.78-.27-1.44-.81-1.98-.54-.54-1.33-.81-2.37-.81s-1.87,.28-2.44,.84-.87,1.26-.87,2.1,.29,1.57,.86,2.1c.57,.54,1.37,.81,2.38,.81Z"/>
    </g>
  </g>
  <g id="Artwork">
    <g>
      <path class="cls-2" d="M191.15,84.4h0l-93.26,.3s0,0,0,0c-7.19,0-13.03,5.86-13.03,13.05v84.73c0,.05,.01,.1,.01,.15,0,.08,.01,.16,.02,.24,.01,.07,.03,.14,.05,.21,.02,.07,.04,.14,.07,.21,.03,.07,.06,.13,.09,.2,.03,.07,.06,.13,.1,.19,.04,.06,.08,.12,.13,.18,.04,.06,.09,.11,.14,.17,.06,.06,.12,.11,.18,.16,.04,.03,.07,.07,.11,.1,.02,.01,.03,.02,.05,.03,.04,.03,.08,.05,.12,.08,.08,.05,.15,.09,.23,.13,.04,.02,.09,.04,.13,.06,.09,.03,.18,.06,.27,.08,.04,.01,.08,.02,.12,.03,.14,.02,.27,.04,.41,.04,0,0,0,0,0,0,0,0,0,0,0,0,.17,0,.33-.02,.48-.06,.04,0,.08-.03,.12-.04,.11-.03,.23-.07,.33-.12,.05-.02,.1-.05,.15-.08,.09-.05,.18-.11,.27-.17,.05-.04,.09-.07,.14-.11,.09-.08,.17-.16,.24-.25,.02-.03,.05-.05,.07-.08l20.57-27.68h81.69c7.19,0,13.05-5.85,13.05-13.05v-45.65c0-7.19-5.85-13.05-13.05-13.05Zm0,67.25H108.32s-.09,.01-.14,.01c-.09,0-.17,.01-.25,.03-.07,.01-.13,.03-.2,.05-.07,.02-.15,.04-.22,.07-.07,.03-.13,.06-.19,.09-.07,.03-.13,.07-.2,.11-.06,.04-.12,.08-.17,.13-.06,.04-.11,.09-.17,.14-.06,.06-.11,.12-.16,.18-.03,.04-.07,.07-.1,.11l-17.2,23.14V97.75c0-4.72,3.84-8.56,8.56-8.56h0l93.25-.3c4.72,0,8.56,3.84,8.56,8.56v45.65c0,4.72-3.84,8.56-8.56,8.56Z"/>
      <path class="cls-2" d="M172.41,109.54c-.41-.24-.92-.25-1.33-.02l-9.61,5.32v-7.3c0-2.48-2.02-4.5-4.5-4.5h-31.91c-2.48,0-4.5,2.02-4.5,4.5v23.93c0,2.48,2.02,4.5,4.5,4.5h31.91c2.48,0,4.5-2.02,4.5-4.5v-7.93l9.61,5.32c.2,.11,.43,.17,.65,.17,.24,0,.47-.06,.68-.19,.41-.24,.66-.68,.66-1.16v-16.98c0-.48-.25-.92-.66-1.16Zm-13.64,21.93c0,1-.81,1.81-1.81,1.81h-31.91c-1,0-1.81-.81-1.81-1.81v-23.93c0-1,.81-1.81,1.81-1.81h31.91c1,0,1.81,.81,1.81,1.81v23.93Zm11.61-6.08l-8.69-4.81c-.07-.04-.15-.07-.23-.1v-2.64c.12-.03,.24-.07,.35-.13l8.57-4.74v12.41Z"/>
    </g>
  </g>
  <g id="Outline">
    <polyline class="cls-1" points="45.28 258.93 45.28 300.33 239.1 300.33 239.1 258.93"/>
    <line class="cls-1" x1="239.1" y1="258.93" x2="263.33" y2="258.93"/>
    <line class="cls-1" x1="45.28" y1="258.93" x2="21.05" y2="258.93"/>
    <line class="cls-1" x1="263.33" y1="258.93" x2="263.33" y2="8.58"/>
    <line class="cls-1" x1="21.05" y1="258.93" x2="21.05" y2="8.58"/>
    <line class="cls-1" x1="28.44" y1=".5" x2="255.95" y2=".5"/>
    <path class="cls-1" d="M21.05,8.58c0-4.46,3.3-8.08,7.39-8.08"/>
    <path class="cls-1" d="M255.95,.5c4.08,0,7.39,3.61,7.39,8.08"/>
    <g>
      <path class="cls-2" d="M64.09,226.28h-4.31v-23.92h4.31v23.92Z"/>
      <path class="cls-2" d="M83.77,226.28h-4v-11.06c0-1.17-.27-2.05-.81-2.64s-1.19-.89-1.95-.89c-1.04,0-1.95,.46-2.73,1.37s-1.17,2.28-1.17,4.12v9.1h-4v-17.7h3.65v4.1c1.27-2.98,3.06-4.47,5.36-4.47,1.55,0,2.88,.49,3.99,1.47s1.66,2.71,1.66,5.17v11.43Z"/>
      <path class="cls-2" d="M102.07,226.28h-4.31v-23.92h9.8c2.79,0,4.86,.7,6.21,2.11s2.02,3.07,2.02,4.99c0,2.18-.73,3.95-2.19,5.31s-3.31,2.03-5.56,2.03h-5.98v9.48Zm0-13.18h5.1c1.33,0,2.35-.33,3.05-.98s1.05-1.52,1.05-2.61c0-.98-.32-1.82-.97-2.52s-1.82-1.05-3.51-1.05h-4.71v7.17Z"/>
      <path class="cls-2" d="M123.03,226.28h-4v-17.7h3.61v4.22c.51-1.65,1.22-2.85,2.12-3.61s1.82-1.14,2.77-1.14c.13,0,.3,0,.53,.02v4.29c-2.03,0-3.38,.65-4.04,1.95s-.99,2.55-.99,3.77v8.2Z"/>
      <path class="cls-2" d="M137.65,226.65c-2.62,0-4.62-.94-5.99-2.82s-2.07-4.04-2.07-6.47c0-2.62,.76-4.8,2.29-6.54s3.54-2.61,6.04-2.61,4.32,.85,5.84,2.54,2.29,3.9,2.29,6.61-.79,5.04-2.37,6.74-3.59,2.55-6.02,2.55Zm.14-3.29c2.69,0,4.03-2,4.03-6.01,0-1.81-.32-3.24-.96-4.29s-1.63-1.57-2.96-1.57-2.4,.54-3.07,1.62-1,2.51-1,4.3c0,1.93,.35,3.4,1.06,4.42s1.67,1.52,2.9,1.52Z"/>
      <path class="cls-2" d="M165.85,205.2v3.07h-1.23c-.54,0-1.01,.06-1.41,.19s-.8,.54-1.18,1.24c1.4,1.15,2.1,2.42,2.1,3.82,0,1.57-.66,2.86-1.97,3.89s-3.05,1.54-5.21,1.54c-.94,0-2.03-.15-3.28-.46-.82,.37-1.23,.95-1.23,1.74,0,.43,.2,.83,.6,1.19s1,.54,1.81,.54h5.26c1.8,0,3.21,.46,4.23,1.39s1.53,2.08,1.53,3.46c0,1.67-.77,3.06-2.32,4.15s-3.84,1.65-6.88,1.65c-5.71,0-8.57-1.59-8.57-4.78,0-1.58,.86-2.78,2.58-3.59-1.1-.94-1.65-1.91-1.65-2.93,0-1.54,.94-2.77,2.82-3.68-1.64-.99-2.45-2.36-2.45-4.1,0-1.47,.6-2.73,1.81-3.77s3.03-1.56,5.49-1.56c1.12,0,2.26,.12,3.42,.37,.54-2.25,1.96-3.38,4.26-3.38h1.49Zm-13.46,20.12c-.57,.53-.86,1.03-.86,1.52,0,.81,.48,1.52,1.44,2.13s2.48,.92,4.57,.92c3.07,0,4.61-.79,4.61-2.37,0-.58-.27-1.03-.81-1.32s-1.15-.45-1.84-.45h-4.24c-.81,0-1.76-.15-2.87-.44Zm4.38-8.73c2.17,0,3.26-1.02,3.26-3.07,0-.78-.27-1.44-.81-1.98s-1.33-.81-2.37-.81-1.87,.28-2.44,.84-.87,1.26-.87,2.1,.29,1.57,.86,2.1,1.37,.81,2.38,.81Z"/>
      <path class="cls-2" d="M172.3,226.28h-4v-17.7h3.61v4.22c.51-1.65,1.22-2.85,2.12-3.61s1.82-1.14,2.77-1.14c.13,0,.3,0,.53,.02v4.29c-2.03,0-3.38,.65-4.04,1.95s-.99,2.55-.99,3.77v8.2Z"/>
      <path class="cls-2" d="M191.45,220.64l3.61,.49c-.47,1.6-1.38,2.92-2.73,3.96s-3.06,1.56-5.1,1.56c-2.45,0-4.43-.82-5.92-2.47s-2.24-3.88-2.24-6.69,.75-4.89,2.26-6.64,3.55-2.63,6.13-2.63,4.48,.86,5.85,2.59,2.07,3.95,2.07,6.66l-.02,.46h-12.15c0,1.2,.11,2.17,.34,2.89s.68,1.36,1.36,1.89,1.52,.81,2.54,.81c1.97,0,3.31-.96,4-2.87Zm-.25-5.29c-.01-1.27-.39-2.31-1.15-3.12s-1.69-1.21-2.8-1.21-2.02,.38-2.75,1.13-1.17,1.82-1.3,3.2h7.99Z"/>
      <path class="cls-2" d="M196.87,222.22l3.75-.72c.57,1.44,1.83,2.16,3.79,2.16,2.48,0,3.72-.73,3.72-2.19,0-.47-.19-.85-.58-1.16s-.84-.51-1.37-.61l-3.22-.61c-3.58-.69-5.36-2.44-5.36-5.24,0-1.57,.57-2.89,1.7-3.99s2.82-1.64,5.07-1.64c3.74,0,6.02,1.37,6.85,4.12l-3.56,.72c-.37-1.33-1.44-2-3.19-2-2.13,0-3.19,.67-3.19,2,0,.92,.86,1.56,2.58,1.91l3.8,.79c2.96,.61,4.43,2.3,4.43,5.08,0,1.95-.76,3.41-2.28,4.37s-3.32,1.45-5.42,1.45c-1.81,0-3.41-.37-4.8-1.1s-2.3-1.84-2.72-3.34Z"/>
      <path class="cls-2" d="M213.17,222.22l3.75-.72c.57,1.44,1.83,2.16,3.79,2.16,2.48,0,3.72-.73,3.72-2.19,0-.47-.19-.85-.58-1.16s-.84-.51-1.37-.61l-3.22-.61c-3.58-.69-5.36-2.44-5.36-5.24,0-1.57,.57-2.89,1.7-3.99s2.82-1.64,5.07-1.64c3.74,0,6.02,1.37,6.85,4.12l-3.56,.72c-.37-1.33-1.44-2-3.19-2-2.13,0-3.19,.67-3.19,2,0,.92,.86,1.56,2.58,1.91l3.8,.79c2.96,.61,4.43,2.3,4.43,5.08,0,1.95-.76,3.41-2.28,4.37s-3.32,1.45-5.42,1.45c-1.81,0-3.41-.37-4.8-1.1s-2.3-1.84-2.72-3.34Z"/>
    </g>
  </g>
</svg>