<?xml version="1.0" encoding="utf-8"?>
<!-- Generator: Adobe Illustrator 26.0.2, SVG Export Plug-In . SVG Version: 6.00 Build 0)  -->
<svg version="1.1" xmlns="http://www.w3.org/2000/svg" xmlns:xlink="http://www.w3.org/1999/xlink" x="0px" y="0px"
	 viewBox="0 0 414 504" style="enable-background:new 0 0 414 504;" xml:space="preserve">
<style type="text/css">
	.st0{fill:none;stroke:#000000;stroke-linecap:round;stroke-linejoin:round;stroke-miterlimit:10;}
	.st1{fill:none;stroke:#010101;}
	.st2{fill:#010101;}
	.st3{fill:none;stroke:#010101;stroke-width:6;}
</style>
<g id="Text">
</g>
<g id="Artwork">
</g>
<g id="Outline">
	<polyline class="st0" points="95.4,464.4 95.4,504 318.6,504 318.6,464.4 	"/>
	<path class="st0" d="M64.8,468"/>
	<path class="st0" d="M318.6,464.4H342c-0.1-39.3-0.6-70.1,3.3-99.2c3.9-28.6,7.3-50,29.5-67.3"/>
	<g id="layer1" transform="translate(-381.97191,-279.52095)">
		<path class="st1" d="M399.6,710.2c-5.2-6.9-4.6-16,1.8-22c3.3-3.1,7.4-4.8,11.6-4.8c0.1,0,0.1,0,0.2,0c0-0.3,0-0.6,0-0.9
			c0.1-8,4.3-15.1,11.1-18.6c3.1-1.6,6.7-2.5,10.2-2.5c1.1,0,2.1,0.1,3.1,0.2c-1.2-6.3-0.4-13.1,2.8-19.1c5.2-9.7,15-15.8,25.7-16.2
			c-4.6-6.8-8.1-14.5-10.4-22.7c-0.8,0.1-1.7,0.1-2.6,0.2c-1.4,0.1-2.8,0.1-4.2,0.1c-15.7,0-28.9-5.8-40.3-17.7
			c-7.2-7.6-10.6-13.4-13.5-23.2c-4.1-13.9-1.7-32.1,5.8-44.4c4.8-7.8,14.7-17,22.5-20.9l1.4-0.7l0.3-1.7
			c5.4-28.1,30.3-49.5,58.7-51c3.9-26.5,24-50.3,50.9-59.7c7.1-2.5,11.3-2.8,23.3-2.8s16.2,0.4,23.3,2.8c20.3,7.1,36.7,22,45.3,40.9
			c5.9-2,13.9-3.2,22.2-3.2c5.5,0,10.5,0.5,14.7,1.5c20,4.7,37.8,18.5,46.6,36.1c4.4-0.4,8.9-0.5,10.7-0.5c3.3,0,8,0.1,11.5,0.8
			c11.6,2.2,23.4,8.5,32.6,17.3c12.7,12.3,19.9,28.4,20.1,45.4c0.3,17-6.3,33.4-18.6,46.1c-3,3.1-6.2,5.8-9.5,8.2"/>
		<path class="st1" d="M399.6,710.2"/>
		<path class="st1" d="M400.2,710.9"/>
		<path class="st1" d="M400.8,711.6"/>
		<path class="st1" d="M406,715.4"/>
		<path class="st1" d="M406,715.4"/>
		<path class="st2" d="M412.8,711.1c0,0-0.1,0-0.1,0c-2.8,0-5.4-1.3-7.5-3.5c-4.3-4.6-4.2-11,0.3-15.2c4.6-4.3,11-4.2,15.2,0.3
			c2.1,2.2,3.2,4.9,3.2,7.7c0,2.8-1.3,5.4-3.5,7.5C418.1,710,415.5,711.1,412.8,711.1z M413,697.3c-0.6,0-1.3,0.2-2,1
			c-0.5,0.4-1.9,1.8,0,3.9c0.4,0.4,1,0.9,1.8,1c0,0,0,0,0,0c0.8,0,1.5-0.5,2-1c0.4-0.4,0.9-1,1-1.8c0-0.8-0.5-1.6-1-2.1
			C414.5,697.9,413.9,697.3,413,697.3z M434.4,698.1c-2.6,0-5.2-0.7-7.7-2c-4.8-2.6-7.7-7.8-7.7-13.6c0.1-5.8,3.1-10.9,7.9-13.4
			c7.7-4,17.1-1.2,20.9,6.2c3.3,6.3,2.2,13.5-2.8,18.4C442.1,696.6,438.3,698.1,434.4,698.1z M434.5,675.3c-1.3,0-2.6,0.3-3.8,0.9
			c-2.2,1.2-3.6,3.5-3.6,6.4c0,2.8,1.3,5.3,3.5,6.5l0,0c3.7,2,7.1,0.7,9-1.1c1.9-1.9,3.3-5.2,1.3-9
			C439.6,676.6,437.1,675.3,434.5,675.3z M466.7,680.1c-3.6,0-7.3-0.9-10.7-2.7l0,0c-11.8-6.3-16.5-20.8-10.4-32.2
			c6.3-11.8,20.8-16.5,32.2-10.4c11.8,6.3,16.5,20.8,10.4,32.2C483.7,675.4,475.3,680.1,466.7,680.1z M459.8,670.4
			c7.5,4,17.1,0.8,21.3-7.1c4-7.5,0.8-17.1-7.1-21.3c-7.5-4-17.1-0.8-21.3,7.1C448.6,656.6,451.8,666.2,459.8,670.4L459.8,670.4z
			 M623.5,661.1c-0.2,0-0.4,0-0.6,0c-5.6,0-12.9-0.7-16.7-1.5l0,0c-13.3-2.9-22.1-6.5-32.3-13.4l-3.4-2.3l-7.1,3.5
			c-5.4,2.7-12.9,5.4-17.1,6.3c-5,1-10.1,1.6-15,1.6c-32.5,0-61.8-21.8-70.2-54.3c-0.4-1.6-0.8-2.8-1-3.5c-2.7,0.3-6.4,0.5-7.3,0.6
			c-15.8,1-28.8-4.1-39.8-15.7c-6.6-6.9-9.5-11.9-12.1-20.8c-3.6-12.2-1.5-28.9,5.1-39.6c4.2-6.9,13.2-15.3,20.1-18.7l4-2l0.9-4.6
			c5.1-26.4,29.1-46.2,56-46.2h2.2l0.3-2.5c2.7-25.4,21.7-48.4,47.3-57.4c6.3-2.2,10-2.5,21.3-2.5s15,0.3,21.3,2.5
			c19.3,6.7,34.7,21,42.5,39.3c0.6,1.5,1.2,2.6,1.7,3.4c1.2-0.4,2.8-0.9,4.7-1.6c8.9-3.2,24.2-4,34-1.7c18.7,4.4,35.3,17.4,43.2,34
			c0.7,1.4,1.1,2.2,1.4,2.8c5.9-1.2,18.7-1.4,24.5-0.3c10.4,2,21.2,7.7,29.6,15.7c11.6,11.2,18.1,25.8,18.3,41.3
			c0.3,15.5-5.8,30.3-17,41.9c-12.3,12.8-27.7,18.8-45.5,17.8l-5-0.3l-0.6,3.9C703.9,629.8,667.2,661.1,623.5,661.1z M571,634.6
			l7.3,4.9c9.4,6.4,17.2,9.6,29.6,12.3h0c3.2,0.7,10.1,1.3,15.1,1.4c0.2,0,0.4,0,0.5,0c39.8,0,73.2-28.4,79.5-67.8l1.8-11l12.2,0.7
			c15.4,0.8,28.7-4.3,39.3-15.4c9.7-10.1,14.9-22.9,14.7-36.3c-0.2-13.3-5.9-26-15.9-35.7c-7.1-6.9-16.7-12-25.5-13.6
			c-5.4-1-18.6-0.6-22.2,0.5c-5.3,1.5-7.5-3.2-9.5-7.4c-6.9-14.4-21.4-25.8-37.8-29.7c-8.3-1.9-22-1.3-29.5,1.4
			c-0.7,0.2-6.4,2.3-8,2.6c-2.3,0.4-4.9-0.5-8.4-8.8c-6.9-16.2-20.6-28.9-37.8-34.8c-5-1.8-7.7-2-18.7-2s-13.6,0.3-18.7,2
			c-22.8,8-39.7,28.3-42,50.7l-1,9.7h-9.4c-23.1,0-43.8,17.1-48.1,39.8l-1.6,8.4l-7.5,3.8c-5.6,2.8-13.5,10.2-16.9,15.8
			c-5.4,8.9-7.3,23.2-4.3,33.2c2.3,7.6,4.6,11.6,10.3,17.5c9.5,9.9,20.1,14.1,33.5,13.3c4.5-0.3,7.9-0.6,8.6-0.8
			c1.2-0.3,2.4-0.1,3.4,0.5c1.9,1.1,3.1,3.4,4.6,9.1c8.6,33.4,41.9,54,75.8,47c3.5-0.7,10.5-3.3,15.2-5.7L571,634.6z"/>
	</g>
	<path class="st3" d="M193,93.3"/>
	<path class="st0" d="M17.6,430.7c8.3,10.9,33.1,14.9,36.3,15.5c17,3.1,18.1,18.2,18.1,18.2h23.4"/>
	<g>
		<path d="M138.4,191.6c0,0.3-0.1,0.5-0.3,0.8s-0.4,0.3-0.7,0.3c-0.1,0-0.6-0.2-1.5-0.5s-1.7-0.5-2.5-0.5c-0.3,0-0.5,0-0.8,0.1
			c-0.3,1.4-0.5,2.6-0.5,3.8c0,1.5,0.2,2.6,0.7,3.4s1.2,1.2,2.1,1.2c0.3,0,0.6-0.1,1.1-0.3s0.8-0.3,1-0.3c0.7,0,1,0.4,1,1.2
			c0,0.5-0.3,0.9-0.8,1.3s-1.3,0.5-2.3,0.5c-3.6,0-5.4-2.4-5.4-7.2c0-1,0.1-2.1,0.4-3.3c-0.2,0-0.7,0.1-1.5,0.3
			c-0.5,0.1-0.9,0.2-1.1,0.2c-0.9,0-1.4-0.3-1.4-1c0-0.9,1.6-1.6,4.7-1.9c0.6-2,1.4-3.1,2.4-3.1c0.3,0,0.5,0.1,0.7,0.3
			s0.3,0.5,0.3,0.8c0,0.2-0.1,0.5-0.2,0.8s-0.3,0.7-0.4,1C136.8,189.5,138.4,190.2,138.4,191.6z"/>
		<path d="M153.2,196.1c0,2.4-0.2,4.4-0.7,5.8c-0.4,1.4-1,2.1-1.7,2.1c-0.4,0-0.7-0.1-1-0.3s-0.4-0.5-0.4-0.8c0.8-3,1.2-5.2,1.2-6.8
			c0-2.3-0.3-4-0.8-5c-0.5-1.1-1.4-1.6-2.6-1.6c-0.6,0-1.3,0.2-2,0.5s-1.2,0.7-1.5,1.1c-0.4,0.6-0.7,1.4-0.7,2.6v0.8
			c0,2.2,0.1,4.3,0.2,6.3s0.2,3,0.2,2.8c0,0.8-0.4,1.3-1.2,1.3c-0.4,0-0.8-0.1-1-0.4c-0.2-0.2-0.3-0.7-0.4-1.4
			c-0.3-2-0.4-4.6-0.4-7.9c0-2.9,0.3-6.2,1-9.9c0.1-0.8,0.3-1.3,0.4-1.6c0.2-0.4,0.5-0.5,1-0.5c0.3,0,0.6,0.1,0.8,0.4
			s0.3,0.5,0.3,0.9c0,0-0.2,1.4-0.6,4.3c1.1-1,2.5-1.6,4.1-1.6C151.3,187.2,153.2,190.2,153.2,196.1z"/>
		<path d="M170.2,194.2c0,2.5-0.7,4.5-2.2,5.9c-1.5,1.5-3.4,2.2-5.8,2.2c-2,0-3.6-0.7-4.7-2.1s-1.7-3.3-1.7-5.7c0-2.6,0.7-4.6,2.1-6
			c1.4-1.4,3.2-2.1,5.6-2.1c2,0,3.6,0.7,4.9,2.1S170.2,191.8,170.2,194.2z M167.7,194.2c0-1.7-0.4-3-1.2-4c-0.8-1-2-1.4-3.4-1.4
			c-3.2,0-4.8,1.9-4.8,5.8c0,1.8,0.3,3.1,1,4.1s1.7,1.4,3,1.4c1.7,0,3-0.5,3.9-1.5C167.2,197.4,167.7,196,167.7,194.2z"/>
		<path d="M182.2,189.6c0,0.8-0.4,1.3-1.3,1.3c-0.3,0-0.5-0.1-0.7-0.3c-0.1-0.2-0.2-0.4-0.4-0.6c-0.5-0.7-1.2-1-2.1-1
			c-1.5,0-2.2,0.9-2.2,2.6c0,0.6,0.1,1.1,0.4,1.5c0.2,0.4,0.6,0.8,1.2,1.2c1.3,1,2.2,1.7,2.5,2.1c0.7,0.8,1,1.7,1,2.7
			c0,1.4-0.4,2.5-1.3,3.3s-2,1.3-3.4,1.3c-1.3,0-2.5-0.4-3.3-1.1c-0.8-0.7-1.3-1.5-1.3-2.6c0-1,0.5-1.6,1.4-1.6
			c0.8,0,1.1,0.6,1.2,1.7c0.6,0.7,1.3,1.1,2.1,1.1c0.6,0,1.1-0.2,1.5-0.6c0.4-0.4,0.6-0.9,0.6-1.4c0-0.5-0.2-1-0.7-1.5
			c0,0-0.6-0.5-1.9-1.5c-1.7-1.4-2.6-2.9-2.6-4.8c0-1.5,0.5-2.7,1.4-3.6c0.9-0.9,2.1-1.4,3.6-1.4c1.2,0,2.2,0.3,3.1,1
			C181.8,188.2,182.2,188.9,182.2,189.6z"/>
		<path d="M196.8,192.5c0,0.9-0.3,1.5-0.9,2c-0.3,0.2-1.1,0.4-2.6,0.7c-1.9,0.4-3.6,0.6-4.9,0.6c-0.6,0-1.4,0-2.2-0.1
			c0,3.2,1.2,4.8,3.6,4.8c0.7,0,1.3-0.2,1.8-0.6c0.3-0.2,0.8-0.6,1.5-1.4c0.3-0.3,0.5-0.4,0.8-0.4c0.4,0,0.7,0.1,0.9,0.4
			c0.3,0.3,0.4,0.6,0.4,1c0,0.3-0.1,0.6-0.4,0.9c-1.5,1.6-3.2,2.4-5.1,2.4c-4,0-6.1-2.3-6.1-7c0-2.4,0.6-4.5,1.9-6.2
			c1.5-2,3.3-3,5.4-3c1.7,0,3.1,0.6,4.2,1.7S196.8,190.8,196.8,192.5z M194.2,192.7c-0.1-1.2-0.4-2.1-0.9-2.8c-0.6-0.7-1.3-1-2.1-1
			c-1.1,0-2.1,0.4-2.9,1.2c-0.9,0.8-1.5,1.9-1.9,3.4c0.6,0.1,1.2,0.1,1.9,0.1C189.9,193.5,191.9,193.3,194.2,192.7z"/>
		<path d="M220.3,194.2c0,2.5-0.7,4.5-2.2,5.9s-3.4,2.2-5.8,2.2c-2,0-3.6-0.7-4.7-2.1s-1.7-3.3-1.7-5.7c0-2.6,0.7-4.6,2.1-6
			c1.4-1.4,3.2-2.1,5.6-2.1c2,0,3.6,0.7,4.9,2.1S220.3,191.8,220.3,194.2z M217.8,194.2c0-1.7-0.4-3-1.2-4c-0.8-1-2-1.4-3.4-1.4
			c-3.2,0-4.8,1.9-4.8,5.8c0,1.8,0.3,3.1,1,4.1s1.7,1.4,3,1.4c1.7,0,3-0.5,3.9-1.5S217.8,196,217.8,194.2z"/>
		<path d="M235.1,186.7c0,0.3-0.1,0.6-0.3,0.8s-0.5,0.4-0.8,0.4c-0.1,0-0.5-0.2-1.4-0.6s-1.7-0.6-2.7-0.6c-1.4,0-2.4,0.6-3,1.8
			c-0.3,0.6-0.4,1.4-0.5,2.5c0,1.2-0.1,2.4-0.1,3.6c2.3,0.2,3.8,0.4,4.6,0.6c1,0.3,1.5,0.7,1.5,1.3c0,0.3-0.1,0.6-0.3,0.8
			c-0.2,0.2-0.4,0.3-0.6,0.3c-0.1,0-0.7-0.1-1.8-0.3c-1.2-0.2-2.3-0.3-3.4-0.4c-0.1,3.8-0.3,6.2-0.4,7c-0.2,1.5-0.7,2.3-1.5,2.3
			c-0.8,0-1.2-0.5-1.2-1.4l0.3-2.6c0.2-1.8,0.3-3.6,0.3-5.4c-1,0-1.7-0.1-2-0.2c-0.4-0.2-0.6-0.5-0.6-1c0-0.7,0.4-1.1,1.2-1.1h0.1
			l1.5,0.1c0-1.1,0.1-2.2,0.1-3.4c0.1-1.1,0.2-1.9,0.3-2.4c0.9-2.8,2.7-4.3,5.6-4.3c1.6,0,2.9,0.2,3.9,0.7
			C234.7,185.5,235.1,186.1,235.1,186.7z"/>
		<path d="M252.6,187.2c0,1.1-0.4,2.9-1.3,5.5c-0.8,2.4-2.2,5.5-4.3,9.2c-0.4,0.8-0.8,1.7-1.3,2.5c-0.4,0.7-0.8,1-1.3,1
			c-0.3,0-0.6-0.1-0.8-0.4c-0.2-0.3-0.4-0.5-0.4-0.8c0-0.6,0.4-1.5,1.1-2.8c1.7-3,2.6-4.5,2.6-4.6c-1.7-2.2-3-4.3-3.9-6.2
			c-0.8-1.5-1.2-2.6-1.2-3.1c0-0.8,0.4-1.1,1.1-1.1c0.5,0,0.9,0.4,1.4,1.2c0.4,0.9,0.8,1.8,1.2,2.7c0.7,1.5,1.6,3,2.5,4.3
			c0.6-1.6,1.1-3.3,1.5-5.1c0.4-1.8,0.6-2.7,0.6-2.8c0.2-0.7,0.6-1,1.1-1C252.2,185.7,252.6,186.2,252.6,187.2z"/>
		<path d="M268.4,194.2c0,2.5-0.7,4.5-2.2,5.9s-3.4,2.2-5.8,2.2c-2,0-3.6-0.7-4.7-2.1s-1.7-3.3-1.7-5.7c0-2.6,0.7-4.6,2.1-6
			c1.4-1.4,3.2-2.1,5.6-2.1c2,0,3.6,0.7,4.9,2.1S268.4,191.8,268.4,194.2z M265.9,194.2c0-1.7-0.4-3-1.2-4c-0.8-1-2-1.4-3.4-1.4
			c-3.2,0-4.8,1.9-4.8,5.8c0,1.8,0.3,3.1,1,4.1s1.7,1.4,3,1.4c1.7,0,3-0.5,3.9-1.5S265.9,196,265.9,194.2z"/>
		<path d="M284.3,202.1c0,0.4-0.1,0.7-0.4,1s-0.5,0.4-0.9,0.4c-0.7,0-1.2-1-1.7-3.1c-1.4,2-3.2,2.9-5.2,2.9c-3.4,0-5.1-2.7-5.1-8.1
			c0-2.8,0.2-5.2,0.5-7.2c0.2-1.3,0.8-1.9,1.6-1.9c0.3,0,0.6,0.1,0.8,0.3s0.3,0.5,0.3,0.8c0,0.3-0.1,1.3-0.4,3.1s-0.4,3.5-0.4,5.1
			c0,3.6,1,5.4,3,5.4c1.3,0,2.3-0.5,3.1-1.5c0.8-1,1.1-2.4,1.1-4.2v-0.7c0-2.8,0.1-4.7,0.2-5.5c0.2-1.2,0.7-1.7,1.4-1.7
			c0.7,0,1.1,0.5,1.1,1.5c0,0.2,0,0.8-0.1,1.9c-0.1,1.1-0.1,2.1-0.1,3c0,2.2,0.2,4.1,0.5,6S284.3,202.4,284.3,202.1z"/>
	</g>
	<g>
		<path d="M69.9,250.5c0,0.7-0.4,1.3-1.2,1.7c-0.8,0.4-2,0.6-3.5,0.6c-1.5,0-2.6-0.2-3.4-0.5c-0.8-0.3-1.2-0.7-1.2-1.3
			c0-0.9,0.4-1.3,1.3-1.3c0.2,0,0.5,0.1,0.9,0.2c0.6,0.2,1,0.3,1.1,0.3c0.3-3.4,0.5-6.2,0.5-8.4c0-3.6-0.5-7-1.4-10
			c-0.4,0.1-0.8,0.2-1.3,0.3c-0.4,0.2-0.7,0.2-0.9,0.2c-0.3,0-0.5-0.1-0.7-0.4s-0.3-0.5-0.3-0.9c0-1.2,1.3-1.8,3.9-1.8
			c1.7,0,3.1,0.2,4.1,0.7c0.9,0.4,1.4,1,1.4,1.8c0,0.7-0.3,1-0.8,1c-0.1,0-0.4-0.1-1-0.2c-0.7-0.2-1.2-0.4-1.8-0.5
			c0.9,3.1,1.3,6.3,1.3,9.7c0,2.2-0.2,5-0.6,8.5c0.3-0.1,0.8-0.3,1.4-0.5c0.5-0.2,0.8-0.3,1-0.3c0.3,0,0.5,0.1,0.8,0.3
			C69.8,249.9,69.9,250.2,69.9,250.5z"/>
		<path d="M92.5,242.2c0,2.4-0.2,4.4-0.7,5.8c-0.4,1.4-1,2.1-1.7,2.1c-0.4,0-0.7-0.1-1-0.3c-0.3-0.2-0.4-0.5-0.4-0.8
			c0.8-3,1.2-5.2,1.2-6.8c0-2.3-0.3-4-0.8-5c-0.5-1.1-1.4-1.6-2.6-1.6c-0.6,0-1.3,0.2-2,0.5s-1.2,0.7-1.5,1.1
			c-0.4,0.6-0.7,1.4-0.7,2.6v0.8c0,2.2,0.1,4.3,0.2,6.3s0.2,3,0.2,2.8c0,0.8-0.4,1.3-1.2,1.3c-0.4,0-0.8-0.1-1-0.4
			c-0.2-0.2-0.3-0.7-0.4-1.4c-0.3-2-0.4-4.6-0.4-7.9c0-2.9,0.3-6.2,1-9.9c0.1-0.8,0.3-1.3,0.4-1.6c0.2-0.4,0.5-0.5,1-0.5
			c0.3,0,0.6,0.1,0.8,0.4s0.3,0.5,0.3,0.9c0,0-0.2,1.4-0.6,4.3c1.1-1,2.5-1.6,4.1-1.6C90.6,233.2,92.5,236.2,92.5,242.2z"/>
		<path d="M106.8,241.7c0,2.3-0.3,4.7-1,7.3c-0.3,1.3-0.8,1.9-1.5,1.9c-0.7,0-1-0.4-1-1.2c0-0.2,0-0.3,0-0.4
			c-0.9,0.5-1.8,0.7-2.7,0.7c-1.6,0-2.9-0.5-3.8-1.4c-0.9-0.9-1.4-2.2-1.4-3.9c0-1.7,0.5-3,1.5-4s2.3-1.5,3.9-1.5
			c1.4,0,2.6,0.5,3.6,1.4c-0.2-3.3-1.4-5-3.7-5c-0.5,0-1.1,0.2-1.7,0.5s-1,0.5-1.1,0.5c-0.3,0-0.5-0.1-0.8-0.4s-0.3-0.5-0.3-0.8
			c0-0.5,0.4-1,1.1-1.4c0.8-0.5,1.7-0.7,2.8-0.7C104.8,233.4,106.8,236.2,106.8,241.7z M104.2,244.7c0-2.1-1-3.2-3-3.2
			c-2.2,0-3.3,1.1-3.3,3.2c0,2.1,1.1,3.2,3.3,3.2c1,0,1.7-0.3,2.2-0.8S104.2,245.7,104.2,244.7z"/>
		<path d="M121.6,233.5c0,0.7-0.2,1.8-0.5,3.2c-0.4,1.6-0.7,2.7-0.9,3.4c-0.6,1.9-1.4,3.8-2.3,5.8c-1.1,2.2-2,3.3-2.8,3.3
			c-0.5,0-0.9-0.5-1.1-1.4c-0.3-1.3-0.7-2.6-1-3.9c-1.2-3.8-2.5-6.9-3.8-9.4c-0.2-0.3-0.4-0.6-0.5-0.9s-0.3-0.6-0.3-0.8
			c0-0.8,0.4-1.1,1.1-1.1c0.9,0,1.8,1.1,2.8,3.3c1,2.1,2.1,5.5,3.4,10c1.4-2.8,2.5-6.3,3.2-10.7c0.2-1.1,0.3-1.8,0.4-2
			c0.2-0.4,0.5-0.7,1-0.7C121.1,231.7,121.6,232.3,121.6,233.5z"/>
		<path d="M136.4,238.6c0,0.9-0.3,1.5-0.9,2c-0.3,0.2-1.1,0.4-2.6,0.7c-1.9,0.4-3.6,0.6-4.9,0.6c-0.6,0-1.4,0-2.2-0.1
			c0,3.2,1.2,4.8,3.6,4.8c0.7,0,1.3-0.2,1.8-0.6c0.3-0.2,0.8-0.6,1.5-1.4c0.3-0.3,0.5-0.4,0.8-0.4c0.4,0,0.7,0.1,0.9,0.4
			s0.4,0.6,0.4,1c0,0.3-0.1,0.6-0.4,0.9c-1.5,1.6-3.2,2.4-5.1,2.4c-4,0-6.1-2.3-6.1-7c0-2.4,0.6-4.5,1.9-6.2c1.5-2,3.3-3,5.4-3
			c1.7,0,3.1,0.6,4.2,1.7S136.4,236.9,136.4,238.6z M133.9,238.7c-0.1-1.2-0.4-2.1-0.9-2.8s-1.3-1-2.1-1c-1.1,0-2.1,0.4-2.9,1.2
			c-0.9,0.8-1.5,1.9-1.9,3.4c0.6,0.1,1.2,0.1,1.9,0.1C129.6,239.6,131.6,239.3,133.9,238.7z"/>
	</g>
	<g>
		<path d="M77.2,286.7c0,2.6-0.7,4.7-2,6.1c-1.3,1.5-3.1,2.2-5.4,2.2c-1.3,0-2.4-0.4-3.4-1.2c0,0.7-0.1,1.2-0.2,1.5
			c-0.2,0.5-0.6,0.8-1.1,0.8c-0.8,0-1.2-0.5-1.2-1.5c0,0,0-0.4,0.1-1.3c0.1-1.1,0.1-2.2,0.1-3.4c0-1.7,0.1-3.5,0.1-5.4
			c0-2.9-0.1-5-0.3-6.4c-0.1-0.5-0.2-1.1-0.3-1.8c-0.1-0.5-0.2-0.9-0.2-1c0-0.3,0.1-0.5,0.4-0.7c0.2-0.2,0.5-0.3,0.8-0.3
			c0.7,0,1.2,0.5,1.4,1.6c0.2,0.7,0.3,2.4,0.5,5c1.4-1,2.8-1.5,4.3-1.5c1.9,0,3.5,0.7,4.6,2S77.2,284.4,77.2,286.7z M74.7,286.8
			c0-1.6-0.4-2.9-1.1-3.8s-1.7-1.4-3-1.4c-1.8,0-3.1,0.7-3.9,2.1v2c0,0.9,0,1.9,0,3c0,1.1,0,1.7,0,1.8v0c0.7,1.6,1.8,2.4,3.4,2.4
			c1.4,0,2.5-0.5,3.4-1.6S74.7,288.6,74.7,286.8z"/>
		<path d="M92,284c0,0.9-0.3,1.5-0.9,2c-0.3,0.2-1.1,0.4-2.6,0.7c-1.9,0.4-3.6,0.6-4.9,0.6c-0.6,0-1.4,0-2.2-0.1
			c0,3.2,1.2,4.8,3.6,4.8c0.7,0,1.3-0.2,1.8-0.6c0.3-0.2,0.8-0.6,1.5-1.4c0.3-0.3,0.5-0.4,0.8-0.4c0.4,0,0.7,0.1,0.9,0.4
			c0.3,0.3,0.4,0.6,0.4,1c0,0.3-0.1,0.6-0.4,0.9c-1.5,1.6-3.2,2.4-5.1,2.4c-4,0-6.1-2.3-6.1-7c0-2.4,0.6-4.5,1.9-6.2
			c1.5-2,3.3-3,5.4-3c1.7,0,3.1,0.6,4.2,1.7S92,282.3,92,284z M89.5,284.2c-0.1-1.2-0.4-2.1-0.9-2.8s-1.3-1-2.1-1
			c-1.1,0-2.1,0.4-2.9,1.2c-0.9,0.8-1.5,1.9-1.9,3.4c0.6,0.1,1.2,0.1,1.9,0.1C85.2,285,87.2,284.7,89.5,284.2z"/>
		<path d="M115,286.7c0,2.2-0.6,3.9-1.9,5.2c-1.3,1.3-3,1.9-5.2,1.9c-1.2,0-2.4-0.3-3.5-0.8c-0.2,2-0.3,3.2-0.5,3.7
			c-0.2,0.7-0.6,1.1-1.2,1.1c-0.4,0-0.7-0.1-0.9-0.3c-0.2-0.2-0.4-0.5-0.4-0.8c0,0.1,0.1-0.5,0.2-1.6c0.2-1.3,0.3-2.7,0.4-4.3
			c0.1-2.2,0.2-4.6,0.2-7.1c0-0.5,0-1.1,0-1.7c0-0.7,0-1.1,0-1.2c0-1.1,0.4-1.7,1.2-1.7c0.8,0,1.2,0.4,1.3,1.2l0,0.8
			c1-1,2.3-1.5,3.9-1.5c1.9,0,3.5,0.6,4.6,1.9C114.4,282.7,115,284.4,115,286.7z M112.5,286.7c0-1.5-0.4-2.8-1.1-3.6s-1.7-1.3-3-1.3
			c-2,0-3.2,0.6-3.7,1.9v1.3c0,2-0.1,3.9-0.2,5.8c1.1,0.5,2.2,0.8,3.3,0.8c1.5,0,2.6-0.4,3.4-1.3S112.5,288.2,112.5,286.7z"/>
		<path d="M128.3,287.2c0,2.3-0.3,4.7-1,7.3c-0.3,1.3-0.8,1.9-1.5,1.9c-0.7,0-1-0.4-1-1.2c0-0.2,0-0.3,0-0.4
			c-0.9,0.5-1.8,0.7-2.7,0.7c-1.6,0-2.9-0.5-3.8-1.4s-1.4-2.2-1.4-3.9c0-1.7,0.5-3,1.5-4c1-1,2.3-1.5,3.9-1.5c1.4,0,2.6,0.5,3.6,1.4
			c-0.2-3.3-1.4-5-3.7-5c-0.5,0-1.1,0.2-1.7,0.5c-0.6,0.3-1,0.5-1.1,0.5c-0.3,0-0.5-0.1-0.8-0.4s-0.3-0.5-0.3-0.8
			c0-0.5,0.4-1,1.1-1.4c0.8-0.5,1.7-0.7,2.8-0.7C126.3,278.8,128.3,281.6,128.3,287.2z M125.8,290.1c0-2.1-1-3.2-3-3.2
			c-2.2,0-3.3,1.1-3.3,3.2c0,2.1,1.1,3.2,3.3,3.2c1,0,1.7-0.3,2.2-0.8C125.5,291.9,125.8,291.2,125.8,290.1z"/>
		<path d="M142.1,283c0,0.3-0.1,0.5-0.3,0.8c-0.2,0.2-0.4,0.3-0.7,0.3c-0.1,0-0.6-0.2-1.5-0.5s-1.7-0.5-2.5-0.5
			c-0.3,0-0.5,0-0.8,0.1c-0.3,1.4-0.5,2.6-0.5,3.8c0,1.5,0.2,2.6,0.7,3.4s1.2,1.2,2.1,1.2c0.3,0,0.6-0.1,1.1-0.3
			c0.4-0.2,0.8-0.3,1-0.3c0.7,0,1,0.4,1,1.2c0,0.5-0.3,0.9-0.8,1.3s-1.3,0.5-2.3,0.5c-3.6,0-5.4-2.4-5.4-7.2c0-1,0.1-2.1,0.4-3.3
			c-0.2,0-0.7,0.1-1.5,0.3c-0.5,0.1-0.9,0.2-1.1,0.2c-0.9,0-1.4-0.3-1.4-1c0-0.9,1.6-1.6,4.7-1.9c0.6-2,1.4-3.1,2.4-3.1
			c0.3,0,0.5,0.1,0.7,0.3c0.2,0.2,0.3,0.5,0.3,0.8c0,0.2-0.1,0.5-0.2,0.8c-0.1,0.3-0.3,0.7-0.4,1C140.5,281,142.1,281.7,142.1,283z"
			/>
		<path d="M147.2,280.4c0,5.1-0.2,8.9-0.5,11.3c-0.1,1-0.3,1.6-0.5,2c-0.2,0.4-0.6,0.7-1.1,0.7c-0.3,0-0.6-0.1-0.9-0.3
			c-0.2-0.2-0.4-0.5-0.4-0.8c0,0,0.1-0.2,0.2-0.9c0.2-0.7,0.3-1.5,0.4-2.4c0.1-1.3,0.2-2.7,0.2-4.3c0-0.7,0-1.4,0-2.2s0-1.2,0-1.3
			c0-1.1,0.1-1.9,0.3-2.4c0.2-0.5,0.6-0.7,1.1-0.7C146.8,279.1,147.2,279.5,147.2,280.4z M147.7,275.6c0,1.2-0.6,1.8-1.8,1.8
			c-0.5,0-0.9-0.2-1.2-0.5s-0.5-0.7-0.5-1.2c0-0.5,0.2-0.9,0.5-1.3s0.8-0.5,1.3-0.5c0.5,0,0.9,0.2,1.2,0.5S147.7,275.1,147.7,275.6z
			"/>
		<path d="M163.5,284c0,0.9-0.3,1.5-0.9,2c-0.3,0.2-1.1,0.4-2.6,0.7c-1.9,0.4-3.6,0.6-4.9,0.6c-0.6,0-1.4,0-2.2-0.1
			c0,3.2,1.2,4.8,3.6,4.8c0.7,0,1.3-0.2,1.8-0.6c0.3-0.2,0.8-0.6,1.5-1.4c0.3-0.3,0.5-0.4,0.8-0.4c0.4,0,0.7,0.1,0.9,0.4
			c0.3,0.3,0.4,0.6,0.4,1c0,0.3-0.1,0.6-0.4,0.9c-1.5,1.6-3.2,2.4-5.1,2.4c-4,0-6.1-2.3-6.1-7c0-2.4,0.6-4.5,1.9-6.2
			c1.5-2,3.3-3,5.4-3c1.7,0,3.1,0.6,4.2,1.7C163,280.8,163.5,282.3,163.5,284z M161,284.2c-0.1-1.2-0.4-2.1-0.9-2.8s-1.3-1-2.1-1
			c-1.1,0-2.1,0.4-2.9,1.2c-0.9,0.8-1.5,1.9-1.9,3.4c0.6,0.1,1.2,0.1,1.9,0.1C156.7,285,158.7,284.7,161,284.2z"/>
		<path d="M178.1,286.2c0,2-0.3,4-1,6c-0.4,1.2-0.9,1.9-1.5,1.9c-0.3,0-0.6-0.1-0.8-0.3c-0.2-0.2-0.3-0.4-0.3-0.7
			c0-0.1,0.2-0.8,0.6-2.3c0.4-1.5,0.6-2.9,0.6-4.4c0-3.3-1-4.9-3.1-4.9c-1.2,0-2.1,0.4-2.9,1.3c-0.8,0.9-1.2,2.1-1.2,3.6
			c0,0.8,0.1,2,0.3,3.4c0.2,1.5,0.3,2.5,0.3,3.1c0,1.5-0.4,2.2-1.2,2.2c-0.4,0-0.7-0.1-0.9-0.3c-0.1-0.1-0.2-0.4-0.3-0.9
			c0-0.5-0.1-2-0.3-4.5c-0.3-3.5-0.5-6-0.5-7.5c0-2.6,0.5-3.8,1.5-3.8c0.3,0,0.6,0.1,0.8,0.3c0.2,0.2,0.3,0.4,0.3,0.7
			c0,0.2-0.1,0.5-0.2,1.1s-0.2,1-0.2,1.3v0.3c1.3-1.7,2.8-2.6,4.6-2.6c1.7,0,2.9,0.6,3.9,1.8C177.6,282.2,178.1,283.9,178.1,286.2z"
			/>
		<path d="M191.6,283c0,0.3-0.1,0.5-0.3,0.8c-0.2,0.2-0.4,0.3-0.7,0.3c-0.1,0-0.6-0.2-1.5-0.5c-0.8-0.3-1.7-0.5-2.5-0.5
			c-0.3,0-0.5,0-0.8,0.1c-0.3,1.4-0.5,2.6-0.5,3.8c0,1.5,0.2,2.6,0.7,3.4s1.2,1.2,2.1,1.2c0.3,0,0.6-0.1,1.1-0.3
			c0.4-0.2,0.8-0.3,1-0.3c0.7,0,1,0.4,1,1.2c0,0.5-0.3,0.9-0.8,1.3s-1.3,0.5-2.3,0.5c-3.6,0-5.4-2.4-5.4-7.2c0-1,0.1-2.1,0.4-3.3
			c-0.2,0-0.7,0.1-1.5,0.3c-0.5,0.1-0.9,0.2-1.1,0.2c-0.9,0-1.4-0.3-1.4-1c0-0.9,1.6-1.6,4.7-1.9c0.6-2,1.4-3.1,2.4-3.1
			c0.3,0,0.5,0.1,0.7,0.3c0.2,0.2,0.3,0.5,0.3,0.8c0,0.2-0.1,0.5-0.2,0.8c-0.1,0.3-0.3,0.7-0.4,1C190,281,191.6,281.7,191.6,283z"/>
		<path d="M212.2,287.2c0,2.3-0.3,4.7-1,7.3c-0.3,1.3-0.8,1.9-1.5,1.9c-0.7,0-1-0.4-1-1.2c0-0.2,0-0.3,0-0.4
			c-0.9,0.5-1.8,0.7-2.7,0.7c-1.6,0-2.9-0.5-3.8-1.4c-0.9-0.9-1.4-2.2-1.4-3.9c0-1.7,0.5-3,1.5-4c1-1,2.3-1.5,3.9-1.5
			c1.4,0,2.6,0.5,3.6,1.4c-0.2-3.3-1.4-5-3.7-5c-0.5,0-1.1,0.2-1.7,0.5c-0.6,0.3-1,0.5-1.1,0.5c-0.3,0-0.5-0.1-0.8-0.4
			s-0.3-0.5-0.3-0.8c0-0.5,0.4-1,1.1-1.4c0.8-0.5,1.7-0.7,2.8-0.7C210.1,278.8,212.2,281.6,212.2,287.2z M209.6,290.1
			c0-2.1-1-3.2-3-3.2c-2.2,0-3.3,1.1-3.3,3.2c0,2.1,1.1,3.2,3.3,3.2c1,0,1.7-0.3,2.2-0.8C209.3,291.9,209.6,291.2,209.6,290.1z"/>
		<path d="M227.9,286.2c0,2-0.3,4-1,6c-0.4,1.2-0.9,1.9-1.5,1.9c-0.3,0-0.6-0.1-0.8-0.3c-0.2-0.2-0.3-0.4-0.3-0.7
			c0-0.1,0.2-0.8,0.6-2.3c0.4-1.5,0.6-2.9,0.6-4.4c0-3.3-1-4.9-3.1-4.9c-1.2,0-2.1,0.4-2.9,1.3c-0.8,0.9-1.2,2.1-1.2,3.6
			c0,0.8,0.1,2,0.3,3.4c0.2,1.5,0.3,2.5,0.3,3.1c0,1.5-0.4,2.2-1.2,2.2c-0.4,0-0.7-0.1-0.9-0.3c-0.1-0.1-0.2-0.4-0.3-0.9
			c0-0.5-0.1-2-0.3-4.5c-0.3-3.5-0.5-6-0.5-7.5c0-2.6,0.5-3.8,1.5-3.8c0.3,0,0.6,0.1,0.8,0.3c0.2,0.2,0.3,0.4,0.3,0.7
			c0,0.2-0.1,0.5-0.2,1.1s-0.2,1-0.2,1.3v0.3c1.3-1.7,2.8-2.6,4.6-2.6c1.7,0,2.9,0.6,3.9,1.8C227.5,282.2,227.9,283.9,227.9,286.2z"
			/>
		<path d="M244.5,275.6c0-0.1-0.1,0.6-0.2,1.9c-0.1,1.5-0.2,3.2-0.3,4.9c-0.1,2.5-0.1,5.1-0.1,7.9c0,0.6,0,1.2,0,1.8
			c0,0.6,0,0.9,0,1c0,1.3-0.4,1.9-1.2,1.9c-0.9,0-1.3-0.7-1.3-2.1c0-0.3,0-0.6,0-0.8c-1.6,1.6-3.4,2.4-5.6,2.4
			c-1.8,0-3.2-0.6-4.2-1.7c-1-1.1-1.5-2.7-1.5-4.7c0-2.7,0.7-4.9,2.2-6.6s3.4-2.5,5.9-2.5c1.1,0,2.3,0.3,3.5,0.8
			c0.1-2.3,0.1-3.7,0.2-4.2c0.2-0.9,0.7-1.3,1.4-1.3C244.1,274.3,244.5,274.7,244.5,275.6z M241.7,282.2c-1.1-0.7-2.2-1-3.3-1
			c-1.7,0-3.1,0.6-4.1,1.8c-1,1.2-1.5,2.8-1.5,4.8c0,1.4,0.3,2.5,1,3.3c0.7,0.8,1.6,1.2,2.8,1.2c1.5,0,2.6-0.5,3.4-1.5
			c0.2-0.3,0.4-0.7,0.6-1c0.2-0.4,0.6-0.6,0.9-0.6C241.5,286.8,241.6,284.5,241.7,282.2z"/>
		<path d="M264.1,295.9c0,0.7-0.4,1.3-1.2,1.7c-0.8,0.4-2,0.6-3.5,0.6c-1.5,0-2.6-0.2-3.4-0.5c-0.8-0.3-1.2-0.7-1.2-1.3
			c0-0.9,0.4-1.3,1.3-1.3c0.2,0,0.5,0.1,0.9,0.2c0.6,0.2,1,0.3,1.1,0.3c0.3-3.4,0.5-6.2,0.5-8.4c0-3.6-0.5-7-1.4-10
			c-0.4,0.1-0.8,0.2-1.3,0.3c-0.4,0.2-0.7,0.2-0.9,0.2c-0.3,0-0.5-0.1-0.7-0.4c-0.2-0.2-0.3-0.5-0.3-0.9c0-1.2,1.3-1.8,3.9-1.8
			c1.7,0,3.1,0.2,4.1,0.7c0.9,0.4,1.4,1,1.4,1.8c0,0.7-0.3,1-0.8,1c-0.1,0-0.4-0.1-1-0.2c-0.7-0.2-1.2-0.4-1.8-0.5
			c0.9,3.1,1.3,6.3,1.3,9.7c0,2.2-0.2,5-0.6,8.5c0.3-0.1,0.8-0.3,1.4-0.5c0.5-0.2,0.8-0.3,1-0.3c0.3,0,0.5,0.1,0.8,0.3
			C264,295.3,264.1,295.6,264.1,295.9z"/>
		<path d="M291.7,286.6c0,2.6-0.5,4.7-1.4,6.1c-0.9,1.4-2.2,2.1-3.8,2.1c-2,0-3.4-1-4.2-3c-1,1.5-2.1,2.3-3.3,2.3
			c-1.6,0-3-0.9-4.1-2.6c-1.2-1.9-1.7-4.3-1.7-7.4c0-4.2,0.6-6.3,1.9-6.3c0.3,0,0.6,0.1,0.9,0.4c0.3,0.2,0.4,0.5,0.4,0.9
			c0-0.1-0.1,0.5-0.3,1.7c-0.2,1.2-0.3,2.4-0.3,3.6c0,2.1,0.3,3.8,1,5.1c0.6,1.2,1.4,1.8,2.3,1.8c0.6,0,1.1-0.3,1.6-1
			c0.4-0.7,0.7-1.6,0.7-2.7c0-0.6-0.1-1.4-0.2-2.5c-0.1-1-0.2-1.8-0.2-2.2c0-1.1,0.5-1.7,1.4-1.7c1,0,1.4,0.6,1.4,1.8
			c0,0.2,0,0.5,0,1c0,0.5,0,0.8,0,1.1c0,2.4,0.1,3.9,0.2,4.6c0.3,1.9,1.1,2.9,2.4,2.9c0.8,0,1.5-0.4,2-1.3c0.5-0.9,0.8-2.1,0.8-3.7
			c0-1.8-0.2-3.6-0.6-5.4c-0.4-1.8-0.6-2.7-0.6-2.8c0-0.7,0.4-1,1.1-1c0.8,0,1.4,0.7,1.9,2.2C291.4,281.8,291.7,283.9,291.7,286.6z"
			/>
		<path d="M297.6,280.4c0,5.1-0.2,8.9-0.5,11.3c-0.1,1-0.3,1.6-0.5,2c-0.2,0.4-0.6,0.7-1.1,0.7c-0.3,0-0.6-0.1-0.9-0.3
			c-0.2-0.2-0.4-0.5-0.4-0.8c0,0,0.1-0.2,0.2-0.9c0.2-0.7,0.3-1.5,0.4-2.4c0.1-1.3,0.2-2.7,0.2-4.3c0-0.7,0-1.4,0-2.2
			c0-0.8,0-1.2,0-1.3c0-1.1,0.1-1.9,0.3-2.4c0.2-0.5,0.6-0.7,1.1-0.7C297.2,279.1,297.6,279.5,297.6,280.4z M298.1,275.6
			c0,1.2-0.6,1.8-1.8,1.8c-0.5,0-0.9-0.2-1.2-0.5c-0.3-0.3-0.5-0.7-0.5-1.2c0-0.5,0.2-0.9,0.5-1.3s0.8-0.5,1.3-0.5
			c0.5,0,0.9,0.2,1.2,0.5C298,274.7,298.1,275.1,298.1,275.6z"/>
		<path d="M304.9,294.7c0,0.6,0,1-0.1,1.2c-0.1,0.4-0.5,0.6-0.9,0.6c-0.8,0-1.3-0.7-1.4-2c-0.2-2.2-0.4-5.2-0.4-9
			c0-4.3,0.1-6.9,0.2-7.9c0.1-1.1,0.6-1.6,1.3-1.6c0.8,0,1.3,0.5,1.3,1.5c0,0.3,0,1.3-0.1,3c-0.1,1.8-0.1,3.4-0.1,4.9
			c0,1.3,0.1,3,0.2,5.1C304.9,292.5,304.9,293.9,304.9,294.7z"/>
		<path d="M311.9,294.7c0,0.6,0,1-0.1,1.2c-0.1,0.4-0.5,0.6-0.9,0.6c-0.8,0-1.3-0.7-1.4-2c-0.2-2.2-0.4-5.2-0.4-9
			c0-4.3,0.1-6.9,0.2-7.9c0.1-1.1,0.6-1.6,1.3-1.6c0.8,0,1.3,0.5,1.3,1.5c0,0.3,0,1.3-0.1,3c-0.1,1.8-0.1,3.4-0.1,4.9
			c0,1.3,0.1,3,0.2,5.1C311.9,292.5,311.9,293.9,311.9,294.7z"/>
	</g>
	<g>
		<path d="M144,318.8c0,0.7-0.4,1-1.1,1c-0.1,0-0.3,0-0.6-0.1c-0.4,0-0.8-0.1-1.1-0.1c1,1.1,1.5,2.5,1.5,4c0,1.5-0.5,2.7-1.6,3.7
			c-1.1,1-2.4,1.5-4.1,1.5c-0.4,0-1,0-1.8-0.1c-0.7,0.5-1.3,1.2-1.7,1.9c1.7-0.2,2.7-0.3,3.3-0.3c3.5,0,5.2,1.2,5.2,3.6
			c0,1.4-0.7,2.6-2,3.4c-1.3,0.8-3.1,1.2-5.5,1.2c-1.5,0-2.6-0.3-3.5-0.9c-0.8-0.5-1.2-1.2-1.2-2c0-0.3,0.1-0.5,0.4-0.7
			s0.5-0.3,0.9-0.3c0.2,0,0.4,0.1,0.7,0.3c0.2,0.2,0.4,0.5,0.6,0.7c0.4,0.4,1.2,0.6,2.4,0.6c1.5,0,2.6-0.2,3.5-0.6
			c0.8-0.4,1.2-0.9,1.2-1.5c0-1-1.1-1.4-3.3-1.4c-0.5,0-1.2,0-2.1,0.1c-0.9,0.1-1.5,0.1-1.8,0.1c-0.8,0-1.2-0.3-1.2-0.9
			c0-0.8,0.8-2.2,2.4-4.1c-1.3-0.9-2-2.3-2-4c0-1.6,0.6-3,1.7-4.1s2.6-1.7,4.2-1.7c0.4,0,0.8,0,1.2,0.1c0.3-0.4,1.2-0.6,2.7-0.6
			C143.1,317.7,144,318,144,318.8z M140.3,323.4c0-0.9-0.3-1.7-0.8-2.3s-1.3-0.9-2.2-0.9c-1,0-1.8,0.3-2.5,1c-0.6,0.7-1,1.6-1,2.7
			c0,1.8,1.1,2.7,3.2,2.7c1.1,0,1.9-0.3,2.5-0.8C140.1,325.2,140.3,324.4,140.3,323.4z"/>
		<path d="M157.8,324.8c0,0.9-0.3,1.5-0.9,2c-0.3,0.2-1.1,0.4-2.6,0.7c-1.9,0.4-3.6,0.6-4.9,0.6c-0.6,0-1.4,0-2.2-0.1
			c0,3.2,1.2,4.8,3.6,4.8c0.7,0,1.3-0.2,1.8-0.6c0.3-0.2,0.8-0.6,1.5-1.4c0.3-0.3,0.5-0.4,0.8-0.4c0.4,0,0.7,0.1,0.9,0.4
			c0.3,0.3,0.4,0.6,0.4,1c0,0.3-0.1,0.6-0.4,0.9c-1.5,1.6-3.2,2.4-5.1,2.4c-4,0-6.1-2.3-6.1-7c0-2.4,0.6-4.5,1.9-6.2
			c1.5-2,3.3-3,5.4-3c1.7,0,3.1,0.6,4.2,1.7S157.8,323.1,157.8,324.8z M155.3,325c-0.1-1.2-0.4-2.1-0.9-2.8s-1.3-1-2.1-1
			c-1.1,0-2.1,0.4-2.9,1.2c-0.9,0.8-1.5,1.9-1.9,3.4c0.6,0.1,1.2,0.1,1.9,0.1C151,325.8,153,325.5,155.3,325z"/>
		<path d="M170.4,323.8c0,0.3-0.1,0.5-0.3,0.8c-0.2,0.2-0.4,0.3-0.7,0.3c-0.1,0-0.6-0.2-1.5-0.5s-1.7-0.5-2.5-0.5
			c-0.3,0-0.5,0-0.8,0.1c-0.3,1.4-0.5,2.6-0.5,3.8c0,1.5,0.2,2.6,0.7,3.4s1.2,1.2,2.1,1.2c0.3,0,0.6-0.1,1.1-0.3
			c0.4-0.2,0.8-0.3,1-0.3c0.7,0,1,0.4,1,1.2c0,0.5-0.3,0.9-0.8,1.3s-1.3,0.5-2.3,0.5c-3.6,0-5.4-2.4-5.4-7.2c0-1,0.1-2.1,0.4-3.3
			c-0.2,0-0.7,0.1-1.5,0.3c-0.5,0.1-0.9,0.2-1.1,0.2c-0.9,0-1.4-0.3-1.4-1c0-0.9,1.6-1.6,4.7-1.9c0.6-2,1.4-3.1,2.4-3.1
			c0.3,0,0.5,0.1,0.7,0.3c0.2,0.2,0.3,0.5,0.3,0.8c0,0.2-0.1,0.5-0.2,0.8c-0.1,0.3-0.3,0.7-0.4,1
			C168.8,321.8,170.4,322.5,170.4,323.8z"/>
		<path d="M190.4,323.8c0,0.3-0.1,0.5-0.3,0.8c-0.2,0.2-0.4,0.3-0.7,0.3c-0.1,0-0.6-0.2-1.5-0.5s-1.7-0.5-2.5-0.5
			c-0.3,0-0.5,0-0.8,0.1c-0.3,1.4-0.5,2.6-0.5,3.8c0,1.5,0.2,2.6,0.7,3.4s1.2,1.2,2.1,1.2c0.3,0,0.6-0.1,1.1-0.3
			c0.4-0.2,0.8-0.3,1-0.3c0.7,0,1,0.4,1,1.2c0,0.5-0.3,0.9-0.8,1.3s-1.3,0.5-2.3,0.5c-3.6,0-5.4-2.4-5.4-7.2c0-1,0.1-2.1,0.4-3.3
			c-0.2,0-0.7,0.1-1.5,0.3c-0.5,0.1-0.9,0.2-1.1,0.2c-0.9,0-1.4-0.3-1.4-1c0-0.9,1.6-1.6,4.7-1.9c0.6-2,1.4-3.1,2.4-3.1
			c0.3,0,0.5,0.1,0.7,0.3c0.2,0.2,0.3,0.5,0.3,0.8c0,0.2-0.1,0.5-0.2,0.8c-0.1,0.3-0.3,0.7-0.4,1
			C188.8,321.8,190.4,322.5,190.4,323.8z"/>
		<path d="M205.8,326.4c0,2.5-0.7,4.5-2.2,5.9c-1.5,1.5-3.4,2.2-5.8,2.2c-2,0-3.6-0.7-4.7-2.1c-1.1-1.4-1.7-3.3-1.7-5.7
			c0-2.6,0.7-4.6,2.1-6c1.4-1.4,3.2-2.1,5.6-2.1c2,0,3.6,0.7,4.9,2.1S205.8,324.1,205.8,326.4z M203.3,326.4c0-1.7-0.4-3-1.2-4
			c-0.8-1-2-1.4-3.4-1.4c-3.2,0-4.8,1.9-4.8,5.8c0,1.8,0.3,3.1,1,4.1c0.7,1,1.7,1.4,3,1.4c1.7,0,3-0.5,3.9-1.5
			S203.3,328.3,203.3,326.4z"/>
		<path d="M225.4,319.5c0,1.1-0.4,2.9-1.3,5.5c-0.8,2.4-2.2,5.5-4.3,9.2c-0.4,0.8-0.8,1.7-1.3,2.5c-0.4,0.7-0.8,1-1.3,1
			c-0.3,0-0.6-0.1-0.8-0.4s-0.4-0.5-0.4-0.8c0-0.5,0.4-1.5,1.1-2.8c1.7-3,2.6-4.5,2.6-4.6c-1.7-2.2-3-4.3-3.9-6.2
			c-0.8-1.5-1.2-2.6-1.2-3.1c0-0.8,0.4-1.1,1.1-1.1c0.5,0,0.9,0.4,1.4,1.2c0.4,0.9,0.8,1.8,1.2,2.7c0.7,1.5,1.6,3,2.5,4.3
			c0.6-1.6,1.1-3.3,1.5-5.1c0.4-1.8,0.6-2.7,0.6-2.8c0.2-0.7,0.6-1,1.1-1C225,318,225.4,318.5,225.4,319.5z"/>
		<path d="M241.1,326.4c0,2.5-0.7,4.5-2.2,5.9c-1.5,1.5-3.4,2.2-5.8,2.2c-2,0-3.6-0.7-4.7-2.1c-1.1-1.4-1.7-3.3-1.7-5.7
			c0-2.6,0.7-4.6,2.1-6c1.4-1.4,3.2-2.1,5.6-2.1c2,0,3.6,0.7,4.9,2.1S241.1,324.1,241.1,326.4z M238.6,326.4c0-1.7-0.4-3-1.2-4
			c-0.8-1-2-1.4-3.4-1.4c-3.2,0-4.8,1.9-4.8,5.8c0,1.8,0.3,3.1,1,4.1c0.7,1,1.7,1.4,3,1.4c1.7,0,3-0.5,3.9-1.5
			S238.6,328.3,238.6,326.4z"/>
		<path d="M257.1,334.4c0,0.4-0.1,0.7-0.4,1s-0.5,0.4-0.9,0.4c-0.7,0-1.2-1-1.7-3.1c-1.4,2-3.2,2.9-5.2,2.9c-3.4,0-5.1-2.7-5.1-8.1
			c0-2.8,0.2-5.2,0.5-7.2c0.2-1.3,0.8-1.9,1.6-1.9c0.3,0,0.6,0.1,0.8,0.3s0.3,0.5,0.3,0.8c0,0.3-0.1,1.3-0.4,3.1s-0.4,3.5-0.4,5.1
			c0,3.6,1,5.4,3,5.4c1.3,0,2.3-0.5,3.1-1.5c0.8-1,1.1-2.4,1.1-4.2v-0.7c0-2.8,0.1-4.7,0.2-5.5c0.2-1.2,0.7-1.7,1.4-1.7
			c0.7,0,1.1,0.5,1.1,1.5c0,0.2,0,0.8-0.1,1.9c-0.1,1.1-0.1,2.1-0.1,3c0,2.2,0.2,4.1,0.5,6C256.9,333.9,257.1,334.7,257.1,334.4z"/>
		<path d="M264.4,318.2c0,0.2-0.2,1.1-0.6,2.6c-0.6,2.2-0.9,4.6-1,7.2c-0.1,1.2-0.1,1.8-0.2,2c-0.1,0.5-0.4,0.7-0.9,0.7
			c-0.5,0-0.8-0.3-1-0.8c-0.2-0.5-0.3-1.4-0.3-2.7c0-2.2,0.4-4.8,1.3-7.7c0.4-1.5,1-2.2,1.8-2.2
			C264.1,317.3,264.4,317.6,264.4,318.2z M263.5,334.2c0,0.4-0.1,0.8-0.4,1.1c-0.3,0.3-0.6,0.4-1,0.4s-0.7-0.1-1-0.4
			c-0.3-0.3-0.4-0.6-0.4-1.1c0-0.4,0.1-0.7,0.4-1s0.6-0.4,1-0.4s0.7,0.1,1,0.4C263.4,333.4,263.5,333.8,263.5,334.2z"/>
	</g>
	<g>
		<path d="M167.8,140.6c0,1-0.7,1.5-2,1.5c0.2,0-1-0.1-3.6-0.4c-2.7-0.3-5.5-0.5-8.4-0.5c0.4,1.9,0.6,4.5,0.7,7.8c0.5,0,1.1,0,2,0
			c1.4,0,2.8-0.1,4.1-0.2c1.3-0.1,1.9-0.2,1.8-0.2c1.3,0,1.9,0.6,1.9,1.7c0,1-1,1.6-3.1,1.8c-0.6,0.1-2.1,0.1-4.5,0.1h-2.2
			c-0.1,5.4-0.2,9.1-0.5,10.9c-0.3,2.3-1,3.5-2,3.5c-1,0-1.6-0.5-1.6-1.6c0,0.4,0.1-0.9,0.4-3.7c0.3-2.9,0.4-5.9,0.4-9.2
			c0-4.8-0.2-8.4-0.7-10.7c-1.3,0.3-2.2,0.4-2.7,0.4c-1.2,0-1.8-0.6-1.8-1.7c0-1.5,3.1-2.2,9.2-2.2c4,0,7.3,0.2,10.1,0.7
			C167,138.9,167.8,139.6,167.8,140.6z"/>
		<path d="M185.8,151.3c0,3.3-1,5.8-2.9,7.8c-1.9,1.9-4.4,2.9-7.6,2.9c-2.6,0-4.7-0.9-6.2-2.7c-1.5-1.8-2.2-4.3-2.2-7.5
			c0-3.4,0.9-6,2.7-7.8c1.8-1.8,4.2-2.7,7.4-2.7c2.6,0,4.8,0.9,6.4,2.8C185,145.8,185.8,148.2,185.8,151.3z M182.5,151.3
			c0-2.2-0.5-4-1.6-5.2c-1.1-1.3-2.6-1.9-4.4-1.9c-4.2,0-6.3,2.5-6.3,7.5c0,2.3,0.5,4.1,1.4,5.3c0.9,1.2,2.2,1.9,3.9,1.9
			c2.2,0,3.9-0.7,5.2-2C181.9,155.6,182.5,153.7,182.5,151.3z"/>
		<path d="M201.5,146.8c0,0.4-0.1,0.8-0.4,1.1c-0.3,0.3-0.6,0.4-0.9,0.4c-0.3,0-0.7-0.2-1.2-0.6c-0.5-0.4-1-0.6-1.4-0.6
			c-1.1,0-1.9,0.5-2.6,1.4c-0.7,0.9-1,2.2-1,3.7v2.2c0,2.4-0.3,4.3-0.8,5.8c-0.5,1.3-1.1,2-1.8,2c-1,0-1.5-0.5-1.5-1.5
			c0-0.2,0.2-0.9,0.5-2.2c0.3-1.3,0.5-2.5,0.5-3.6c0-3.1-0.4-5.6-1.3-7.4c0-0.1-0.3-0.6-0.9-1.7c-0.3-0.5-0.4-1-0.4-1.3
			c0-0.4,0.2-0.7,0.5-1c0.3-0.3,0.7-0.5,1.1-0.5c1.2,0,2.1,1.4,2.9,4.3c1.2-2.2,2.8-3.3,5-3.3c1.1,0,2,0.3,2.7,0.8
			S201.5,146,201.5,146.8z"/>
	</g>
	<g>
		<path d="M265,240.2c0,2.5-0.7,4.5-2.2,5.9c-1.5,1.5-3.4,2.2-5.8,2.2c-2,0-3.6-0.7-4.7-2.1s-1.7-3.3-1.7-5.7c0-2.6,0.7-4.6,2.1-6
			c1.4-1.4,3.2-2.1,5.6-2.1c2,0,3.6,0.7,4.9,2.1S265,237.9,265,240.2z M262.4,240.2c0-1.7-0.4-3-1.2-4s-2-1.4-3.4-1.4
			c-3.2,0-4.8,1.9-4.8,5.8c0,1.8,0.3,3.1,1,4.1c0.7,1,1.7,1.4,3,1.4c1.7,0,3-0.5,3.9-1.5C262,243.5,262.4,242.1,262.4,240.2z"/>
		<path d="M279.8,232.7c0,0.3-0.1,0.6-0.3,0.8s-0.5,0.4-0.8,0.4c-0.1,0-0.5-0.2-1.4-0.6c-0.9-0.4-1.7-0.6-2.7-0.6
			c-1.4,0-2.4,0.6-3,1.8c-0.3,0.6-0.4,1.4-0.5,2.5c0,1.2-0.1,2.4-0.1,3.6c2.3,0.2,3.8,0.4,4.6,0.6c1,0.3,1.5,0.7,1.5,1.3
			c0,0.3-0.1,0.6-0.3,0.8c-0.2,0.2-0.4,0.3-0.6,0.3c-0.1,0-0.7-0.1-1.8-0.3c-1.2-0.2-2.3-0.3-3.4-0.4c-0.1,3.8-0.3,6.2-0.4,7
			c-0.2,1.5-0.7,2.3-1.5,2.3c-0.8,0-1.2-0.5-1.2-1.4l0.3-2.6c0.2-1.8,0.3-3.6,0.3-5.4c-1,0-1.7-0.1-2-0.2c-0.4-0.2-0.6-0.5-0.6-1
			c0-0.7,0.4-1.1,1.2-1.1h0.1l1.5,0.1c0-1.1,0.1-2.2,0.1-3.4c0.1-1.1,0.2-1.9,0.3-2.4c0.9-2.8,2.7-4.3,5.6-4.3
			c1.6,0,2.9,0.2,3.9,0.7C279.3,231.6,279.8,232.1,279.8,232.7z"/>
		<path d="M292.5,232.7c0,0.3-0.1,0.6-0.3,0.8s-0.5,0.4-0.8,0.4c-0.1,0-0.5-0.2-1.4-0.6c-0.9-0.4-1.7-0.6-2.7-0.6
			c-1.4,0-2.4,0.6-3,1.8c-0.3,0.6-0.4,1.4-0.5,2.5c0,1.2-0.1,2.4-0.1,3.6c2.3,0.2,3.8,0.4,4.6,0.6c1,0.3,1.5,0.7,1.5,1.3
			c0,0.3-0.1,0.6-0.3,0.8c-0.2,0.2-0.4,0.3-0.6,0.3c-0.1,0-0.7-0.1-1.8-0.3c-1.2-0.2-2.3-0.3-3.4-0.4c-0.1,3.8-0.3,6.2-0.4,7
			c-0.2,1.5-0.7,2.3-1.5,2.3c-0.8,0-1.2-0.5-1.2-1.4l0.3-2.6c0.2-1.8,0.3-3.6,0.3-5.4c-1,0-1.7-0.1-2-0.2c-0.4-0.2-0.6-0.5-0.6-1
			c0-0.7,0.4-1.1,1.2-1.1h0.1l1.5,0.1c0-1.1,0.1-2.2,0.1-3.4c0.1-1.1,0.2-1.9,0.3-2.4c0.9-2.8,2.7-4.3,5.6-4.3
			c1.6,0,2.9,0.2,3.9,0.7C292,231.6,292.5,232.1,292.5,232.7z"/>
		<path d="M305.2,238.6c0,0.9-0.3,1.5-0.9,2c-0.3,0.2-1.1,0.4-2.6,0.7c-1.9,0.4-3.6,0.6-4.9,0.6c-0.6,0-1.4,0-2.2-0.1
			c0,3.2,1.2,4.8,3.6,4.8c0.7,0,1.3-0.2,1.8-0.6c0.3-0.2,0.8-0.6,1.5-1.4c0.3-0.3,0.5-0.4,0.8-0.4c0.4,0,0.7,0.1,0.9,0.4
			c0.3,0.3,0.4,0.6,0.4,1c0,0.3-0.1,0.6-0.4,0.9c-1.5,1.6-3.2,2.4-5.1,2.4c-4,0-6.1-2.3-6.1-7c0-2.4,0.6-4.5,1.9-6.2
			c1.5-2,3.3-3,5.4-3c1.7,0,3.1,0.6,4.2,1.7S305.2,236.9,305.2,238.6z M302.6,238.7c-0.1-1.2-0.4-2.1-0.9-2.8c-0.6-0.7-1.3-1-2.1-1
			c-1.1,0-2.1,0.4-2.9,1.2c-0.9,0.8-1.5,1.9-1.9,3.4c0.6,0.1,1.2,0.1,1.9,0.1C298.3,239.6,300.3,239.3,302.6,238.7z"/>
		<path d="M319.7,240.8c0,2-0.3,4-1,6c-0.4,1.2-0.9,1.9-1.5,1.9c-0.3,0-0.6-0.1-0.8-0.3c-0.2-0.2-0.3-0.4-0.3-0.7
			c0-0.1,0.2-0.8,0.6-2.3s0.6-2.9,0.6-4.4c0-3.3-1-4.9-3.1-4.9c-1.2,0-2.1,0.4-2.9,1.3c-0.8,0.9-1.2,2.1-1.2,3.6
			c0,0.8,0.1,2,0.3,3.4c0.2,1.5,0.3,2.5,0.3,3.1c0,1.5-0.4,2.2-1.2,2.2c-0.4,0-0.7-0.1-0.9-0.3c-0.1-0.1-0.2-0.4-0.3-0.9
			c0-0.5-0.1-2-0.3-4.5c-0.3-3.5-0.5-6-0.5-7.5c0-2.6,0.5-3.8,1.5-3.8c0.3,0,0.6,0.1,0.8,0.3s0.3,0.4,0.3,0.7c0,0.2-0.1,0.5-0.2,1.1
			s-0.2,1-0.2,1.3v0.3c1.3-1.7,2.8-2.6,4.6-2.6c1.7,0,2.9,0.6,3.9,1.8C319.3,236.8,319.7,238.5,319.7,240.8z"/>
		<path d="M336.3,230.2c0-0.1-0.1,0.6-0.2,1.9c-0.1,1.5-0.2,3.2-0.3,4.9c-0.1,2.5-0.1,5.1-0.1,7.9c0,0.6,0,1.2,0,1.8
			c0,0.6,0,0.9,0,1c0,1.3-0.4,1.9-1.2,1.9c-0.9,0-1.3-0.7-1.3-2.1c0-0.3,0-0.6,0-0.8c-1.6,1.6-3.4,2.4-5.6,2.4
			c-1.8,0-3.2-0.6-4.2-1.7c-1-1.1-1.5-2.7-1.5-4.7c0-2.7,0.7-4.9,2.2-6.6s3.4-2.5,5.9-2.5c1.1,0,2.3,0.3,3.5,0.8
			c0.1-2.3,0.1-3.7,0.2-4.2c0.2-0.9,0.7-1.3,1.4-1.3C336,228.8,336.3,229.3,336.3,230.2z M333.5,236.8c-1.1-0.7-2.2-1-3.3-1
			c-1.7,0-3.1,0.6-4.1,1.8c-1,1.2-1.5,2.8-1.5,4.8c0,1.4,0.3,2.5,1,3.3s1.6,1.2,2.8,1.2c1.5,0,2.6-0.5,3.4-1.5
			c0.2-0.3,0.4-0.7,0.6-1c0.2-0.4,0.5-0.6,0.9-0.6C333.3,241.3,333.4,239,333.5,236.8z"/>
		<path d="M352,238.6c0,0.9-0.3,1.5-0.9,2c-0.3,0.2-1.1,0.4-2.6,0.7c-1.9,0.4-3.6,0.6-4.9,0.6c-0.6,0-1.4,0-2.2-0.1
			c0,3.2,1.2,4.8,3.6,4.8c0.7,0,1.3-0.2,1.8-0.6c0.3-0.2,0.8-0.6,1.5-1.4c0.3-0.3,0.5-0.4,0.8-0.4c0.4,0,0.7,0.1,0.9,0.4
			c0.3,0.3,0.4,0.6,0.4,1c0,0.3-0.1,0.6-0.4,0.9c-1.5,1.6-3.2,2.4-5.1,2.4c-4,0-6.1-2.3-6.1-7c0-2.4,0.6-4.5,1.9-6.2
			c1.5-2,3.3-3,5.4-3c1.7,0,3.1,0.6,4.2,1.7S352,236.9,352,238.6z M349.5,238.7c-0.1-1.2-0.4-2.1-0.9-2.8c-0.6-0.7-1.3-1-2.1-1
			c-1.1,0-2.1,0.4-2.9,1.2c-0.9,0.8-1.5,1.9-1.9,3.4c0.6,0.1,1.2,0.1,1.9,0.1C345.2,239.6,347.1,239.3,349.5,238.7z"/>
		<path d="M367.6,230.2c0-0.1-0.1,0.6-0.2,1.9c-0.1,1.5-0.2,3.2-0.3,4.9c-0.1,2.5-0.1,5.1-0.1,7.9c0,0.6,0,1.2,0,1.8
			c0,0.6,0,0.9,0,1c0,1.3-0.4,1.9-1.2,1.9c-0.9,0-1.3-0.7-1.3-2.1c0-0.3,0-0.6,0-0.8c-1.6,1.6-3.4,2.4-5.6,2.4
			c-1.8,0-3.2-0.6-4.2-1.7c-1-1.1-1.5-2.7-1.5-4.7c0-2.7,0.7-4.9,2.2-6.6s3.4-2.5,5.9-2.5c1.1,0,2.3,0.3,3.5,0.8
			c0.1-2.3,0.1-3.7,0.2-4.2c0.2-0.9,0.7-1.3,1.4-1.3C367.3,228.8,367.6,229.3,367.6,230.2z M364.8,236.8c-1.1-0.7-2.2-1-3.3-1
			c-1.7,0-3.1,0.6-4.1,1.8c-1,1.2-1.5,2.8-1.5,4.8c0,1.4,0.3,2.5,1,3.3s1.6,1.2,2.8,1.2c1.5,0,2.6-0.5,3.4-1.5
			c0.2-0.3,0.4-0.7,0.6-1c0.2-0.4,0.5-0.6,0.9-0.6C364.6,241.3,364.7,239,364.8,236.8z"/>
		<path d="M375.5,246.9c0,1.2-0.3,2.3-0.9,3.2c-0.5,0.8-1,1.2-1.5,1.2c-0.6,0-0.8-0.3-0.8-0.8c0-0.2,0.2-0.6,0.6-1.3
			c0.4-0.7,0.6-1.3,0.6-2c0,0,0-0.1,0-0.2s0-0.1,0-0.2c-0.3,0.1-0.6,0.2-0.9,0.2c-1,0-1.5-0.6-1.5-1.7c0-1.2,0.7-1.7,2-1.7
			c0.7,0,1.3,0.3,1.8,0.9S375.5,245.9,375.5,246.9z"/>
	</g>
	<g>
		<path d="M181.6,227.4c0,0.4-0.1,1.4-0.4,3c-0.3,2-0.6,3.7-0.7,5.2c-0.4,4.1-0.6,7.4-0.6,10c0,0.7,0,1.6,0.1,2.7s0.1,1.8,0.1,2.1
			c0,1.3-0.5,2-1.6,2c-0.7,0-1.4-0.3-2.2-1c-0.6-0.6-1.5-1.6-2.5-3c-3.6-5-6.9-10.6-9.8-16.9c-1,3.7-1.6,8.7-1.8,15.2
			c-0.1,2.8-0.1,4.3-0.2,4.5c-0.1,0.9-0.6,1.4-1.4,1.4s-1.3-0.5-1.5-1.5c-0.1-0.4-0.1-1.2-0.1-2.4c0-5.3,0.7-11.1,2-17.7
			c0.4-1.8,0.7-3.1,1.1-3.8c0.4-0.9,1-1.3,1.7-1.3c0.5,0,0.8,0.3,1.1,0.8c0,0,0.4,0.8,1,2.3c3.3,7.5,7,13.7,10.9,18.4v-1.1
			c0-6.1,0.5-11.8,1.4-17.1c0.2-1.3,0.5-2.2,0.7-2.7c0.3-0.6,0.7-0.9,1.2-0.9C181.2,225.7,181.6,226.3,181.6,227.4z"/>
		<path d="M208.9,240c0,4.1-1.1,7.4-3.4,9.7s-5.3,3.5-9.2,3.5c-3.5,0-6.3-1.2-8.5-3.6c-2.2-2.3-3.2-5.5-3.2-9.4
			c0-4.1,0.9-7.5,2.8-10c2.1-2.8,5-4.1,9-4.1c3.9,0,7,1.2,9.2,3.7S208.9,235.6,208.9,240z M205.8,240.1c0-3.6-0.8-6.4-2.4-8.3
			s-3.9-2.9-7-2.9c-2.9,0-5,0.9-6.5,2.8s-2.2,4.6-2.2,8.2c0,3.1,0.8,5.6,2.5,7.5c1.7,1.9,3.8,2.8,6.4,2.8c2.8,0,5-0.9,6.7-2.7
			C205,245.8,205.8,243.3,205.8,240.1z"/>
		<path d="M233.3,230.4c0,0.4-0.1,0.7-0.4,1s-0.6,0.5-0.9,0.5c-0.2,0-0.5-0.1-0.9-0.2c-0.5-0.2-0.7-0.4-0.8-0.4
			c-1.3-0.4-3.8-0.7-7.4-0.9c0.1,4.5,0.2,7.8,0.2,9.9c0,4.1-0.1,7.6-0.3,10.5c-0.1,0.9-0.2,1.6-0.4,2c-0.2,0.4-0.6,0.6-1.2,0.6
			c-0.9,0-1.4-0.6-1.4-1.9c0,0,0.1-1.4,0.2-3.9c0.2-2.6,0.2-5.1,0.2-7.6c0-1.4,0-4.6-0.1-9.6c-3.6,0-6.1,0.5-7.6,1.3
			c-0.2,2-0.8,2.9-1.8,2.9c-0.8,0-1.2-0.6-1.2-1.8c0-2,0.6-3.2,1.9-3.8c2.1-1,5.3-1.5,9.7-1.5C229.1,227.4,233.3,228.4,233.3,230.4z
			"/>
	</g>
</g>
</svg>
