<?xml version="1.0" encoding="utf-8"?>
<!-- Generator: Adobe Illustrator 26.0.3, SVG Export Plug-In . SVG Version: 6.00 Build 0)  -->
<svg version="1.1" id="_x30_" xmlns="http://www.w3.org/2000/svg" xmlns:xlink="http://www.w3.org/1999/xlink" x="0px" y="0px"
	 viewBox="0 0 1404 792" style="enable-background:new 0 0 1404 792;" xml:space="preserve">
<style type="text/css">
	.st0{fill:none;stroke:#000000;stroke-width:0.7087;stroke-linecap:round;stroke-linejoin:round;stroke-miterlimit:10;}
	.st1{fill:#231F20;stroke:#231F20;stroke-miterlimit:10;}
</style>
<g id="LWPOLYLINE">
	<path class="st0" d="M25.8,0"/>
	<path class="st0" d="M0,0"/>
	<path class="st0" d="M186.2,213.4H159v4.3h4.3v6H159v7.1h4.3v5h-14.6c3-3.2,3-8.2,0-11.5c-3.2-3.4-8.5-3.6-11.9-0.4
		c-3.4,3.2-3.6,8.5-0.4,11.9H120v-6.2c0-7-5.7-12.8-12.8-12.8s-12.8,5.7-12.8,12.8v6.2H78.2c3-3.2,3-8.2,0-11.5
		c-3.2-3.4-8.5-3.6-11.9-0.4c-3.4,3.2-3.6,8.5-0.4,11.9H51.3v-5h4.3v-7.1h-4.3v-6h4.3v-4.3H28.3"/>
	<line class="st0" x1="28.3" y1="0" x2="186.2" y2="0"/>
</g>
<path class="st0" d="M0,16.6"/>
<path class="st0" d="M0,28.3C0,12.7,12.7,0,28.3,0"/>
<path class="st0" d="M28.3,213.4C12.7,213.4,0,200.8,0,185.1"/>
<path class="st0" d="M214.6,185.1c0,15.7-12.7,28.3-28.3,28.3"/>
<path class="st0" d="M214.6,28.3c0-15.7-12.7-28.3-28.3-28.3"/>
<line class="st0" x1="0" y1="185.1" x2="0" y2="28.3"/>
<line class="st0" x1="214.6" y1="185.1" x2="214.6" y2="28.3"/>
<g>
	<g>
		<g>
			<g>
				<g>
					<g>
						<path class="st1" d="M180.4,202.6H34.1c-8.1,0-14.8-6.6-14.8-14.8v-30.5c0-8.1,6.6-14.8,14.8-14.8h146.3
							c8.1,0,14.8,6.6,14.8,14.8v30.5C195.2,196,188.6,202.6,180.4,202.6z M34.1,144.8c-6.9,0-12.6,5.6-12.6,12.6v30.5
							c0,6.9,5.6,12.6,12.6,12.6h146.3c6.9,0,12.6-5.6,12.6-12.6v-30.5c0-6.9-5.6-12.6-12.6-12.6H34.1z"/>
					</g>
				</g>
			</g>
		</g>
	</g>
</g>
<g>
	<g>
		<g>
			<g>
				<path class="st1" d="M107,4.4c8.1,0.2,16.2,0.9,23.9,3.9c6.4,2.5,11.9,6.2,15.6,12c1.4,2.1,3.1,3,5.5,3.3c5.1,0.7,10,2.1,14.8,4
					c10.4,4.2,14.1,11.4,11.9,22.5c-1.6,7.8-4.8,14.8-10.3,20.7c-1.3,1.4-2,2.9-2.1,4.9C166.1,88,162,99,154.8,108.9
					c-1.2,1.6-1.6,2.9-0.8,5c1.8,4.5,2.2,9.4,2,14.2c-0.2,6.2-3,10.5-8.9,12.1c-9.3,2.5-19.4,3.7-28-0.4c-7.8-3.7-14-1.4-21,0.4
					c-9.4,2.5-18.9,2.6-28.2-0.1c-5.7-1.6-8.5-5.8-8.7-11.8c-0.1-2.4-0.4-5,0.3-7.2c1.9-5.5,0-9.3-3.3-13.7
					C51.1,98,47.8,87,47.5,75.2c0-2.1-0.6-3.7-2-5.3c-5.1-5.8-8.1-12.7-9.6-20.1C33.7,39.2,37.5,32,47.4,27.8
					c4.8-2.1,9.9-3.4,15.1-4.2c1.6-0.3,3.2-0.4,4.4-2.1c7-10.9,17.8-14.8,29.9-16.4C100.2,4.6,103.6,4.6,107,4.4z M74.7,83.3
					c0.4-2.1,0.6-3.6,1-5.1c1.1-4.4,4.8-6.6,9-5.4c4.7,1.4,6.7,5.4,5,9.9c-0.9,2.4-2.3,4.6-3.8,6.6c-1.3,1.7-0.6,2.4,1.1,3
					c2.5,0.9,4.7,3.2,7.7,2c0.2-0.1,0-1.3-0.1-2c-0.5-3.7-0.9-7.3-1.6-10.9c-0.7-3.7-1.8-7.3-2.8-11.5c6.4,6.2,9.4,45.5,4.1,52.3
					c0-3.6,0-6.7,0-10.1c-4.7,4.9-5.7,10.5-3.2,16c2.4,5.4,7.6,8.6,13.6,8.4c5.8-0.2,10.9-3.9,12.9-9.5c1.2-3.4,0.7-6.7,0.4-10.1
					c-1.3-14.1-1-28.1,2.9-41.8c0.5-1.7,0.7-3.7,3.4-5.5c-1.9,6.7-3.7,12.5-4.2,18.5c-0.2,2.2-1.9,5.2,0.1,6.3
					c1.9,1.1,4.4-1.1,6.6-2c2-0.8,2.2-1.7,0.9-3.4c-1.6-2.1-3.1-4.4-3.9-7c-1.3-4.1,0.8-7.9,5.2-9.2c4-1.2,7.8,0.8,9,4.8
					c0.5,1.7,0.7,3.5,1.1,5.4c1.9-1,2.8-2.4,3.8-3.8c11-14.6,11.2-30.8,6.9-47.5c-3.1-12.1-11.2-19.6-23.1-22.8
					C114.5,5.6,102.2,5.6,90,8.3c-14.3,3.2-23.2,11.9-26.5,26.2c-2.1,9.2-2.7,18.6-0.5,27.9C64.9,70.3,68.5,77.2,74.7,83.3z
					 M149.7,25.2c5.5,17.8,7,34.8-2.6,51.1c-1,1.8,0.4,1.9,1.6,1.9c4.1,0.2,7.9-0.9,11.3-3.1c11.5-7.5,16.8-18.4,17.2-31.9
					c0.1-3.7-1.3-7-4.1-9.5C166.5,28,158.4,26.6,149.7,25.2z M64.7,25.1c-8.5,1.8-16.5,3-22.9,8.4c-3,2.5-4.5,5.9-4.4,9.8
					c0.4,13.3,5.8,24.1,16.9,31.7c3,2,6.4,3,10,3.3c2.6,0.2,3.4-0.5,1.9-3c-5.4-9-6.8-18.8-6.2-29.1C60.5,39.1,61.8,32.4,64.7,25.1z
					 M64,111.4c6.1-7.8,11.2-9.5,20.6-6.8c2.7,0.8,5.4,1.8,8,2.9c1.7,0.7,2.4,0.8,2.6-1.4c0.7-7.5,0.5-8-6.3-10.9
					c-0.4-0.2-0.8-0.3-1.2-0.6c-2.5-1.4-4.8-2.5-7.4,0.4c-2,2.2-4.1,1.2-4.8-1.9c-0.2-1-0.6-2-0.5-2.9c0.2-3.1-1.6-5.1-3.2-7.5
					c-2.1-3.1-4.8-2.8-7.7-2.9c-4-0.1-7.7-1.6-11.2-3.7c-1-0.6-1.8-1.9-3.3-1.5C49.1,86.8,55.2,102.7,64,111.4z M119.4,110.2
					c4.6-2.4,8.6-4.4,13-5.5c6.7-1.8,13-2,18.1,3.5c1.5,1.6,2.1,0.4,2.9-0.6c4.1-5.5,7.1-11.6,8.9-18.3c1.2-4.6,2.5-9.2,1.8-14.5
					c-4.5,2.8-8.9,5.7-13.7,5.1c-5.2-0.7-7.7,2.1-10.4,5.4c-2,2.3-0.9,5.2-1.7,7.7c-1.2,3.6-2.3,4.1-5.4,2c-1.2-0.8-1.7-2.4-3.9-1.6
					c-10,3.4-10,3.4-9.8,13.8C119.3,107.9,119.3,108.7,119.4,110.2z M152.5,134.4c2.8-7.3,1.7-14.2-0.8-20.9
					c-2.2-5.8-6.4-8.3-12.6-8c-6.4,0.2-12.1,2.6-17.6,5.8c-1.5,0.9-2.3,1.9-2,3.8c0.8,4.7,1.1,9.5-0.6,14.1c0.4,0.2,0.5,0.3,0.6,0.3
					c5.7,0.6,11.5,1.1,17.2,1.8c0.8,0.1,1.3,0.7,2.3,0.2C146.9,127.6,147.4,127.7,152.5,134.4z M65.4,135.1c1.4-3.6,3.7-6.6,6.6-5.9
					c4.9,1.2,9.7,1.1,14.5,1.5c1,0.1,1.7,1.8,2.9,0.5c1.1-1.1,0.1-2.2-0.3-3.1c-1.8-4.5-1.4-8.8,0.5-13.2c0.8-1.9,3.8-3.4,2.6-5.2
					c-1.1-1.6-3.9-2-6.1-2.8c-3.4-1.2-6.9-1.7-10.5-1.5c-3,0.2-5.5,1.4-7.5,3.5C63.1,114.4,61.4,127.6,65.4,135.1z M76.5,85.9
					c0.2,2,0.4,3.9,0.6,5.9c0.3,2.6,1.4,2.9,3.2,1.1c3.3-3.2,6.1-6.7,7.8-11.1c1.3-3.3-0.2-6.2-3.7-7.3c-3.4-1.1-6.1,0.5-7,4.1
					C76.9,81.1,76.5,83.5,76.5,85.9z M137.1,87c0.1-3-0.1-5.6-0.8-8.1c-0.9-3.6-3.6-5.3-6.9-4.3c-3.6,1.1-5,4.1-3.7,7.6
					c0.9,2.6,2.4,4.8,4.2,6.9c1.6,1.9,3.4,5.4,5.5,4.7C137.8,92.9,136.8,89.1,137.1,87z M133.2,140c2.2-0.3,5.3,0.5,5.2-3.3
					c-0.1-2.9-2-4.6-5-4.7c-3.1-0.1-5.3,1.4-5.4,4.7C127.7,140.5,130.9,139.6,133.2,140z M83.4,140c2.2-0.3,5.3,0.5,5.2-3.2
					c-0.1-3.2-2.2-4.8-5.4-4.7c-3,0.1-4.9,1.6-5,4.6C78.1,140.4,81.1,139.7,83.4,140z M139.8,134.6c0.8,1.9-0.3,5.1,3.3,4.3
					c2.6-0.6,6.3-0.2,6.6-3.9c0.2-2.9-2.2-4.5-5.1-4.4C142,130.7,140,131.8,139.8,134.6z M73.1,130.7c-3,0.3-5.5,1.6-5.3,4.6
					c0.2,3.5,3.7,3.4,6.2,3.8c4.4,0.6,2.2-3.5,2.8-5.1C77.6,131.4,74.7,131.3,73.1,130.7z M123.8,139.3c3.7-0.3,2-3.7,2.6-5.5
					c0.7-2.2-1.9-2.9-3.6-3c-2.8-0.2-5.3,1.1-5.3,4.1C117.4,139.1,121.3,138.1,123.8,139.3z M97.7,137.5c-1.9-1.5-3.7-3-5.5-4.5
					c-1.6-1.2-1.9,0.1-2,1.3C89.8,139.2,91.8,140.1,97.7,137.5z"/>
			</g>
		</g>
		<g>
			<g>
				<path class="st1" d="M134,42.9c0.1,7.1-5.9,13.1-13,13c-7.1,0-13-6-13-13.1c0-6.9,5.9-12.7,12.8-12.9
					C128,29.8,134,35.7,134,42.9z M132.2,43c0-6-4.9-11.2-11-11.3c-6.1-0.1-11.5,5.2-11.4,11.4c0.1,6,5.1,11,11.2,11
					C127.3,54,132.2,49.1,132.2,43z"/>
			</g>
		</g>
		<g>
			<g>
				<path class="st1" d="M92.9,30c7.1,0,13,6,12.9,13.1c-0.1,7-5.8,12.7-12.8,12.8C86,56,80,50.1,79.9,43
					C79.9,35.9,85.8,29.9,92.9,30z M104,43.1c0.1-6.1-4.8-11.1-10.9-11.3c-6.2-0.2-11.4,5-11.4,11.3c0,6.1,5,11,11.1,11.1
					C99.1,54.1,104,49.2,104,43.1z"/>
			</g>
		</g>
		<g>
			<g>
				<path class="st1" d="M97.6,65.1c5.9-6.1,14.6-6,17.9-0.2C109.3,63.1,109.3,63.1,97.6,65.1z"/>
			</g>
		</g>
		<g>
			<g>
				<path class="st1" d="M113,77.3c-4-1.6-8-2.5-12,0.3C103.6,73,109.5,72.9,113,77.3z"/>
			</g>
		</g>
		<g>
			<g>
				<path class="st1" d="M101.9,89.2c2.9-3.4,7-3.4,10.9,0.1C108.7,88.6,105.3,87.9,101.9,89.2z"/>
			</g>
		</g>
		<g>
			<g>
				<path class="st1" d="M122.2,45.1c-0.3,2.2-1.4,3.7-3.8,3.7c-2.3,0-3.7-1.4-3.7-3.7c0-2.3,1.4-3.7,3.7-3.7
					C120.8,41.4,121.9,42.8,122.2,45.1z"/>
			</g>
		</g>
		<g>
			<g>
				<path class="st1" d="M99.8,45.1c-0.4,2.5-1.6,3.8-4,3.7c-2.4-0.1-3.7-1.6-3.6-3.9c0.1-2.3,1.6-3.6,3.9-3.5
					C98.5,41.5,99.6,43,99.8,45.1z"/>
			</g>
		</g>
	</g>
	<g>
		<g>
			<g>
				<g>
					<g>
						<path class="st1" d="M168,153.2"/>
						<path class="st1" d="M167.7,152.4"/>
					</g>
				</g>
			</g>
		</g>
	</g>
</g>
<g>
	<path d="M59.1,185.8c-1.5,0-3.1-0.3-4.9-0.8c-2.8-0.9-4.9-2.6-6.5-5c-2.2-3.3-3.2-7.3-3.2-11.9c0-1.9,0.2-3.8,0.6-5.7
		c1-4.3,2.8-7.6,5.4-9.8c2.2-1.9,4.7-2.8,7.6-2.8c0.6,0,1.1,0,1.7,0.1c2.2,0.3,4,1,5.4,2.1c1.3,1.1,2.3,2.4,2.9,3.9
		c0.5,1.4,0.8,2.9,0.8,4.3v1c0,0.4-0.2,0.8-0.5,1.1c-0.3,0.3-0.6,0.4-1.1,0.4l-3.6,0c-0.5,0-0.8-0.2-1.1-0.5c-0.2-0.3-0.4-0.6-0.4-1
		v-0.9c0-0.4-0.1-0.9-0.3-1.5c-0.4-1.2-1.5-1.7-3.1-1.7c-0.3,0-0.7,0-1.1,0.1c-0.3,0-0.6,0.2-1.1,0.4c-0.4,0.2-0.8,0.5-1.2,0.9
		c-0.6,0.6-1.1,1.2-1.4,2c-0.3,0.8-0.6,1.7-0.8,2.9c-0.3,1.7-0.4,3.3-0.4,4.9c0,1.8,0.2,3.6,0.5,5.3c0.4,2,1.4,3.6,2.9,4.5
		c0.8,0.5,1.8,0.7,2.9,0.7h0.4c0.9,0,1.8-0.4,2.6-1.1c0.8-0.7,1.3-2.1,1.5-4.2l0-0.7c0-0.4,0.2-0.8,0.5-1c0.3-0.3,0.6-0.4,1-0.4
		l3.6,0.1c0.4,0,0.8,0.2,1.1,0.5c0.3,0.3,0.4,0.7,0.4,1.1c0,0.3,0,0.6,0,0.9c0,0.6-0.2,1.4-0.4,2.6c-0.7,3.1-2.3,5.6-4.7,7.3
		C63.3,185.2,61.3,185.8,59.1,185.8z"/>
	<path d="M89.4,185.1c-0.7,0-1.2-0.2-1.7-0.6c-0.2-0.2-0.4-0.6-0.6-1.1c-1.7,1.1-3.6,1.7-5.7,1.7c-0.3,0-0.6,0-0.9,0
		c-2.9-0.3-5-1.6-6.3-3.8c-0.5-1.1-0.8-2.3-0.8-3.5c0-1.6,0.5-3.2,1.4-4.9c1.8-2.9,4.8-4.3,8.9-4.5H84c1.2,0,2.4,0.2,3.5,0.5
		c-0.1-1.7-0.3-2.9-0.7-3.6c-0.6-1.1-1.6-1.6-3-1.6c-0.1,0-0.3,0-0.6,0s-0.8,0.2-1.3,0.5c-0.5,0.3-0.7,0.7-0.7,1.1
		c0,0.5-0.2,0.9-0.6,1.3s-0.8,0.5-1.3,0.5l-2.8,0c-0.6,0-1-0.2-1.4-0.6c-0.4-0.4-0.5-0.8-0.5-1.4c0.1-3.2,1.9-5.5,5.3-6.6
		c1.5-0.4,2.9-0.6,4.5-0.6c1,0,2.4,0.2,4.2,0.5c1.8,0.3,3.3,1.2,4.4,2.5c1,1.3,1.6,3,1.9,5.1c0.3,1.7,0.4,3.6,0.4,5.6
		c0,2.4-0.2,5.3-0.5,8.6c-0.1,0.9-0.1,1.6-0.1,2.2c-0.1,0.7-0.4,1.3-0.9,1.9c-0.5,0.5-1.2,0.9-2,1l-2.3,0L89.4,185.1z M82.7,180.3
		c1.7,0,2.9-0.5,3.7-1.5c0.6-0.8,0.9-1.7,1.1-2.8l0.1-1.8c-0.7-0.6-1.8-0.9-3.3-0.9c-1.6,0.1-2.7,0.6-3.4,1.5
		c-0.6,0.9-0.9,1.7-0.9,2.5c0,1,0.4,1.8,1.1,2.5C81.4,180.2,81.9,180.3,82.7,180.3L82.7,180.3z"/>
	<path d="M107.4,185.1c-1.5,0-2.8-0.2-4-0.7c-1.3-0.6-2.2-1.3-2.8-2.2c-0.6-0.9-1-1.8-1.2-2.6c-0.2-0.8-0.3-1.3-0.3-1.5l0-0.9
		c0-0.4,0.1-0.8,0.4-1.1c0.3-0.3,0.7-0.5,1.1-0.5l2.7,0.1c0.4,0,0.7,0.1,1,0.3c0.3,0.2,0.4,0.5,0.5,0.9l0.1,0.6
		c0,0.4,0.2,0.8,0.6,1.1c0.3,0.4,0.9,0.5,1.7,0.5c0.3,0,0.4,0,0.5,0c0.3,0,0.5-0.1,0.7-0.2c0.2-0.1,0.3-0.2,0.3-0.2
		c0-0.1,0.1-0.2,0.1-0.4c0-0.5-0.4-1.2-1.3-1.9c-1.4-1.1-2.8-2.4-4.1-3.9c-2.1-2.2-3.1-4.4-3.1-6.4c0-1.9,0.6-3.5,1.8-5
		c1.2-1.4,2.8-2.3,4.7-2.8c0.8-0.2,1.7-0.3,2.5-0.3c1.1,0,2.1,0.2,3.2,0.5c3.2,1.2,4.8,3.4,5,6.9l0,0.8c0,0.5-0.1,0.8-0.4,1.2
		c-0.3,0.3-0.7,0.5-1.1,0.5l-2.8-0.1c-0.4,0-0.7-0.1-1-0.4s-0.4-0.6-0.5-1l-0.1-0.6c0-0.3-0.2-0.7-0.5-1c-0.3-0.3-0.8-0.5-1.5-0.5
		c-0.4,0-0.7,0.1-1,0.3c-0.3,0.2-0.5,0.5-0.5,1c0,0.7,0.4,1.5,1.1,2.2c0.7,0.7,1.7,1.5,3,2.4c1,0.7,2,1.4,2.9,2.3
		c1.2,1.1,1.9,2.5,2.1,4.2c0,0.3,0.1,0.6,0.1,0.9c0,1.4-0.5,2.8-1.4,4.1c-0.9,1.1-2.1,2-3.7,2.5
		C110.4,184.8,108.9,185.1,107.4,185.1z"/>
	<path d="M129.2,185.1c-1.5,0-2.8-0.2-4-0.7c-1.3-0.6-2.2-1.3-2.8-2.2c-0.6-0.9-1-1.8-1.2-2.6c-0.2-0.8-0.3-1.3-0.3-1.5l0-0.9
		c0-0.4,0.1-0.8,0.4-1.1c0.3-0.3,0.7-0.5,1.1-0.5l2.7,0.1c0.4,0,0.7,0.1,1,0.3c0.3,0.2,0.4,0.5,0.5,0.9l0.1,0.6
		c0,0.4,0.2,0.8,0.6,1.1c0.3,0.4,0.9,0.5,1.7,0.5c0.3,0,0.4,0,0.5,0c0.3,0,0.5-0.1,0.7-0.2c0.2-0.1,0.3-0.2,0.3-0.2
		c0-0.1,0.1-0.2,0.1-0.4c0-0.5-0.4-1.2-1.3-1.9c-1.4-1.1-2.8-2.4-4.1-3.9c-2.1-2.2-3.1-4.4-3.1-6.4c0-1.9,0.6-3.5,1.8-5
		c1.2-1.4,2.8-2.3,4.7-2.8c0.8-0.2,1.7-0.3,2.5-0.3c1.1,0,2.1,0.2,3.2,0.5c3.2,1.2,4.8,3.4,5,6.9l0,0.8c0,0.5-0.1,0.8-0.4,1.2
		c-0.3,0.3-0.7,0.5-1.1,0.5l-2.8-0.1c-0.4,0-0.7-0.1-1-0.4s-0.4-0.6-0.5-1l-0.1-0.6c0-0.3-0.2-0.7-0.5-1c-0.3-0.3-0.8-0.5-1.5-0.5
		c-0.4,0-0.7,0.1-1,0.3c-0.3,0.2-0.5,0.5-0.5,1c0,0.7,0.4,1.5,1.1,2.2c0.7,0.7,1.7,1.5,3,2.4c1,0.7,2,1.4,2.9,2.3
		c1.2,1.1,1.9,2.5,2.1,4.2c0,0.3,0.1,0.6,0.1,0.9c0,1.4-0.5,2.8-1.4,4.1c-0.9,1.1-2.1,2-3.7,2.5
		C132.3,184.8,130.7,185.1,129.2,185.1z"/>
	<path d="M153.1,198.7c-1.5,0-2.9-0.3-4.4-0.8c-1.4-0.5-2.6-1.2-3.6-2.2c-0.3-0.3-0.5-0.7-0.5-1.2c0-0.2,0.1-0.5,0.2-0.7l1.7-3
		c0.3-0.5,0.8-0.8,1.3-0.8c0.3,0,0.6,0.1,0.9,0.3c0.3,0.2,0.5,0.4,0.7,0.5c0.8,0.5,1.6,0.8,2.5,0.8l0.6,0c0.5,0,0.9,0,1.2-0.1
		c1.7-0.7,2.9-3.1,3.6-7.1c-1,0.3-2.4,0.5-4,0.5c-1.6,0-3-0.3-4.4-1c-1.4-0.7-2.5-1.6-3.4-2.7c-1.9-2.7-2.8-6.7-2.8-11.9
		c0-2.2,0.1-4.2,0.2-6.1l0.1-1.8c0-0.5,0.2-1,0.6-1.3c0.4-0.3,0.8-0.5,1.3-0.5h4.3c0.5,0,1,0.2,1.4,0.6c0.4,0.4,0.6,0.8,0.6,1.4
		c-0.1,2.1-0.1,4.9-0.1,8.3v2.4c0.1,3.8,1.1,5.7,3,5.8c0.7,0,1.2-0.2,1.4-0.5c0.9-0.9,1.4-2.7,1.6-5.4c0.2-2.5,0.3-5.2,0.3-8.2v-2.5
		c0-0.5,0.2-1,0.6-1.3c0.4-0.4,0.8-0.5,1.3-0.5l3.9-0.1c0.5,0,1,0.2,1.3,0.5c0.4,0.3,0.6,0.7,0.6,1.2c0.1,0.5,0.2,1.9,0.3,4.2
		c0.2,3,0.3,6.1,0.3,9.4c0,8.5-0.9,14.5-2.6,18.1c-1,1.9-2.4,3.3-4.1,4.3C157.2,198.2,155.2,198.7,153.1,198.7z"/>
</g>
</svg>
