<?xml version="1.0" encoding="utf-8"?>
<!-- Generator: Adobe Illustrator 26.0.2, SVG Export Plug-In . SVG Version: 6.00 Build 0)  -->
<svg version="1.1" id="_x30_" xmlns="http://www.w3.org/2000/svg" xmlns:xlink="http://www.w3.org/1999/xlink" x="0px" y="0px"
	 viewBox="0 0 1404 792" style="enable-background:new 0 0 1404 792;" xml:space="preserve">
<style type="text/css">
	.st0{fill:none;stroke:#000000;stroke-width:0.7087;stroke-linecap:round;stroke-linejoin:round;stroke-miterlimit:10;}
	.st1{fill:none;stroke:#231F20;stroke-miterlimit:10;}
</style>
<g id="LWPOLYLINE">
	<path class="st0" d="M715.3,507.7c0-7-5.7-12.8-12.8-12.8s-12.8,5.7-12.8,12.8v6.2h-16.3c3-3.2,3-8.2,0-11.5
		c-3.2-3.4-8.5-3.6-11.9-0.4c-3.4,3.2-3.6,8.5-0.4,11.9h-14.6v-5h4.3v-7.1h-4.3v-6h4.3v-4.3h-55.6V278.1h214.6v213.4h-55.6v4.3h4.3
		v6h-4.3v7.1h4.3v5h-14.6c3-3.2,3-8.2,0-11.5c-3.2-3.4-8.5-3.6-11.9-0.4c-3.4,3.2-3.6,8.5-0.4,11.9h-16.3V507.7z"/>
</g>
<g>
	<g>
		<g>
			<g>
				<g>
					<g>
						<path class="st1" d="M775.7,478.1H629.3c-8.1,0-14.8-6.6-14.8-14.8v-30.5c0-8.1,6.6-14.8,14.8-14.8h146.3
							c8.1,0,14.8,6.6,14.8,14.8v30.5C790.4,471.4,783.8,478.1,775.7,478.1z M629.3,420.2c-6.9,0-12.6,5.6-12.6,12.6v30.5
							c0,6.9,5.6,12.6,12.6,12.6h146.3c6.9,0,12.6-5.6,12.6-12.6v-30.5c0-6.9-5.6-12.6-12.6-12.6H629.3z"/>
					</g>
				</g>
			</g>
		</g>
	</g>
</g>
<g>
	<g>
		<g>
			<g>
				<g>
					<path class="st1" d="M698.9,282.5c-0.1,0.7-0.5,1.3-0.8,1.9c-0.6,1.5-1,3.1-1,5c1.4-1.7,3.2-2.5,5.3-2.9
						c-0.5,1.1-0.9,2.3-1.2,3.6c0.9-0.6,1.8-1.1,2.7-1.5c3.6-1.4,7.2-1.2,10.8,0.1c2.6,0.9,5.1,2,7.6,3.1c2.3,1,4.5,1,6.6-0.5
						c0.2-0.2,0.5-0.3,0.7-0.4c0.1,0,0.1,0,0.2,0c-0.6,1.9-1.3,3.6-2.9,4.9c4.3,1.1,7.4,3.5,9.1,7.6c-0.1,0.1-0.1,0-0.2-0.1
						c-0.1,0-0.1-0.1-0.3,0c2.3,2.3,3.6,5.1,4.4,8.2c0.9,3,1,6.2,1.3,9.3c-0.4-1-0.9-2.1-1.3-3.1c-0.4-1.1-1-2.1-1.6-3.1
						c-0.6-1-1.3-2-2.1-2.8c0.6,1.6,1.1,3.2,1.4,4.8c0.3,1.7,0.4,3.4,0.5,5.1c-0.8-1.2-1.5-2.4-2.3-3.6c0.5,2,0.8,4,0.7,6.1
						c-0.1,2.9-0.3,5.8-1.3,8.5c-1.4,4-4.4,6.7-8,8.8c-0.4,0.2-0.5,0.5-0.5,1c0.1,1,0.4,1.9,0.8,2.8c0.1,0.3,0.2,0.6,0.4,1
						c-0.5-0.3-0.9-0.4-1.3-0.6c1.4,2.3,2.2,4.8,3.7,6.9c0.7,1,1.4,1.9,2.7,2.1c0.2,0,0.2,0.2,0.3,0.3c0.1,0.6,0,1.3-0.6,1.6
						c-0.4,0.3-0.4,0.4-0.1,0.8c2.6,4.3,4.7,8.8,6.1,13.6c0.3,1.1,0.4,2.2,0.9,3.2c0.5,0.9,1.8,1.2,2.6,1.9c3.6,2.9,5.8,6.7,7.2,11
						c0.4,1.3,0.7,2.6,1,4.2c-0.5-0.5-0.9-1-1.3-1.4c0,0-0.1,0-0.1,0.1c0.1,0.4,0.2,0.8,0.2,1.2c0.7,3.3,0.7,6.7-0.6,9.9
						c-0.1,0.4-0.1,0.5,0.3,0.6c2.9,0.5,4.3,3,3.4,5.8c-0.2,0.5,0.3,0.9,0.5,1.4c0,0.4,0,0.8,0,1.2c-0.8,2.4-2.5,2.8-4.4,2.7
						c-0.3,0-0.7,0-1-0.1c-2.7-0.7-5.4-1-8.2-0.9c-1.1,0.1-2.1,0-3.2,0c-2.5,0.1-4.9,0.1-7.3,0.3c-0.8,0.1-1.3,0.3-1.5,1.1
						c-0.1,0.3-0.2,0.5-0.1,0.8c0.1,0.9,0.2,1.8,0.1,2.7c-0.1,0.8-0.4,1.4-1.1,1.7c-1.4,0.8-2.9,1-4.5,0.8c-0.2,0-0.4-0.2-0.5,0
						c-0.7,0.7-1.5,0.7-2.4,1c-0.8,0-1.6,0-2.3,0c-0.9-0.3-1.9-0.4-2.6-1.1c-0.1-0.1-0.2-0.1-0.4,0c-1.2,0.4-2.5,0.2-3.6-0.2
						c-1.6-0.5-2.1-1.2-2.2-2.9c-0.1-1.6,0-3.2,0.4-4.8c0.1-0.4,0-0.5-0.4-0.4c-0.9,0.2-1.8,0.2-2.7,0.2c-2.3,0-4.5-0.1-6.7-0.4
						c-0.3,0-0.6-0.1-0.7,0.4c-0.7,2.1-2.2,3.5-4.2,4.3c-1.2,0.5-2.5,0.8-3.8,0.9c-0.7,0.1-1.3,0.1-2-0.2c-0.6-0.3-1.2-0.2-1.9-0.1
						c-2,0.5-4.1,0.4-6.1,0.1c-0.5-0.1-1.1-0.2-1.3-0.6c-0.4-0.7-1-0.9-1.6-1.2c-0.8-0.5-1.4-1.1-1.3-2.1c0.1-0.6-0.2-0.6-0.7-0.6
						c-2.1,0.1-4.3,0.1-6.4,0.2c-1.1,0-2.2,0.1-3.3,0.5c-1.2,0.4-2.5,0.6-3.8,0.4c-0.7-0.1-1.4,0-2,0c-1.9,0.1-3.7,0.1-5.3-1.2
						c-0.1-0.1-0.3-0.1-0.4-0.1c-1.3-0.2-2.3-0.8-2.6-2.2c0-0.6,0-1.3,0-1.9c0-0.1,0.1-0.2,0.1-0.2c0.3-2.8,2.1-4.1,4.5-4.8
						c1.7-0.5,3.5-0.4,5.3-0.5c0.6,0,0.7-0.1,0.4-0.7c-0.7-1.1-0.8-2.4-0.8-3.7c-0.3,0-0.4,0.3-0.7,0.4c-0.6-1.9-0.5-3.8,0-5.6
						c0.2-0.7,0.5-1.4,0.8-2.1c0.1-0.2,0.2-0.4-0.2-0.4c-1.4-0.3-2-0.6-3.1-1.7c0.1-0.2,0.3-0.1,0.5-0.2c1.4-0.1,2.4-0.9,3.1-2
						c0.7-1.1,1-2.4,1.3-3.7c1.4-6.2,5.4-9.8,11.5-11.3c0.5-0.1,0.7-0.3,0.6-0.8c0-1.4,0-2.8,0-4.1c-0.1,0.1-0.3,0.3-0.5,0.6
						c-0.3-1.1-0.4-2.1-0.5-3.2c-0.3-4.9,0.9-9.4,3.4-13.5c0.3-0.5,0.2-0.6-0.2-0.8c-2.1-0.9-4-2.3-5.5-4.1c-0.9-1-2-1.9-2.9-3.1
						c-1.8-2.4-3-5-3.2-8c0-0.1,0-0.2-0.1-0.3c-0.7-1.1-1.1-2.3-1.4-3.6c-0.1,0-0.1,0-0.2,0c-0.2,1.7-0.4,3.5-0.6,5.2
						c0,0-0.1,0-0.1,0c-0.2-1.1-0.4-2.2-0.6-3.3c-0.4-2.1-0.9-4.3-1-6.4c-0.1-2.9,0.2-5.8,1.4-8.5c-0.2-0.1-0.3,0.1-0.4,0.1
						c0.2-3.3,1.2-6.8,6-10.3c-1.9-0.7-3.1-2-4.4-3.6c0.7,0.1,1.4,0.1,2,0.2c1.7,0.2,3.2-0.2,4.5-1.3c1.8-1.6,3.6-3.3,5.5-4.9
						c1.9-1.7,3.9-3.3,6.4-4.1c2-0.7,4-0.9,6-0.6c0.1,0,0.2,0,0.4,0.1c-0.7-1.8-2.5-2.3-4-3.1c2.9-1.2,5.7-1.2,8.3,0.4
						c0.6,0.3,0.7,0.3,0.9-0.3c0.5-2.2,1.7-3.9,3.6-5.2c0.7-0.4,1.4-0.8,1.9-1.4C698.8,282.5,698.8,282.5,698.9,282.5z M675.9,361.6
						c0,0,0.1,0,0.1,0.1c0,0.2-0.1,0.5-0.1,0.7c-0.6,4.4-0.7,8.8-0.1,13.2c0.2,1.5,0.8,3,0.9,4.5c0.1,1.4,0.3,2.9-0.4,4.3
						c-0.3,0.7-0.3,0.8,0.5,0.8c0.2,0,0.5-0.1,0.7-0.2c0.4-0.2,0.6-0.1,0.6,0.4c0.1,1.6,0.3,3.1,0.5,4.7c0.5,5,1,10,1.4,15
						c0.1,1.2,0.1,2.4-0.4,3.5c-0.2,0.5-0.5,0.8-1,0.9c-1.2,0.2-1.9,1-2,2.3c0,0.5,0.1,0.8,0.5,1.1c0.2,0.1,0.3,0.3,0.5,0.2
						c0.2-0.1,0.1-0.3,0.1-0.5c0.1-0.4,0.2-0.9,0.4-1.3c0.4-1,1.1-1.4,2.4-1.4c-1.3,0.9-1.2,2.1-1.2,3.3c0,1,0.1,1.1,1.1,1.3
						c1.5,0.2,3,0.2,4.5,0.2c0.7,0,0.9-0.2,0.9-0.9c0-0.9,0-1.8,0.2-2.8c0.6,0.8,0.9,1.5,1,2.4c0.1,1.1,0.2,1.2,1.3,1.3
						c0.4,0,0.7,0,1.1,0c1.3-0.2,2.7-0.4,4-0.8c1.7-0.6,2-1,1.5-2.8c0-0.1,0-0.1,0-0.2c0.4,0.3,0.7,0.7,1,1c0.8-1.2,0.8-2.4,0.7-3.7
						c-0.2-4.1-0.3-8.3,0-12.4c0.2-2.3,0.5-4.6,0.7-6.9c0-0.3,0.1-0.5-0.3-0.7c-1.4-0.7-2.5-1.9-3.5-3.2c-0.3,0.4-0.6,0.8-1,1.2
						c-0.2-0.7-0.4-1.3-0.7-1.8c-0.8-1.8-2-3.2-3.3-4.5c-1.8-1.8-2.5-4-2.2-6.5c0-0.1,0-0.2,0.2-0.2c0,0.1,0,0.2,0.1,0.3
						c0.4,2.3,1.2,4.4,3,5.9c1.3,1.1,2.4,2.4,3.2,3.9c0,0.1,0.1,0.1,0.2,0.1c0.5-0.8,0.9-1.7,0.6-2.8c0.7,0.7,0.8,1.5,0.6,2.3
						c-0.1,0.3,0,0.6,0.1,0.9c1.2,2.1,3,3.7,5.4,4.4c0.9,0.3,1.7,0.5,2.8,0.8c-1.2,0.3-2.3,0.2-3.4,0c-0.4-0.1-0.5,0-0.5,0.4
						c-0.1,0.8-0.2,1.5-0.3,2.3c-0.7,5.7-0.7,11.5-0.4,17.2c0,0.4,0.2,0.5,0.5,0.5c0.7,0.1,1.4,0.2,2.1,0.2c2.6,0.3,5.2,0.4,7.8-0.2
						c0.6-0.1,0.8-0.5,0.8-1c0-0.6,0-1.2,0-1.9c0-5.2-0.1-10.4-0.5-15.6c-0.1-1.1-0.1-2.2-0.3-3.4c-0.8,0.7-1.6,1.2-2.4,1.6
						c-0.1-0.1-0.1-0.2,0-0.4c0.4-2,0.2-4-0.2-5.9c-0.2-1-0.2-2-0.1-2.9c0.2-1.5,0.7-2.9,1.7-4.1c0.1,0.1,0.1,0.2,0,0.3
						c-0.5,1.8-0.8,3.5-0.6,5.4c0.3,1.6,0.8,3.2,0.8,5c0.5-0.4,0.7-0.9,0.7-1.4c-0.2-1.4-0.1-2.9,0.2-4.3c0.5-2,2.1-3.4,4.1-3.6
						c-0.2,0.2-0.4,0.3-0.6,0.5c-1,0.7-1.7,1.6-2.1,2.7c-0.5,1.3-0.6,2.6-0.4,3.9c0.6,3.9,0.8,7.9,1.1,11.9
						c0.3,4.2,0.1,8.4-0.1,12.6c0,0.2-0.1,0.5-0.2,0.7c-1,2.3-1,4.7-0.9,7.1c0,0.5,0.3,0.7,0.7,0.9c0.7,0.3,1.5,0.5,2.3,0.6
						c0.6,0.1,0.9-0.1,1-0.7c0.2-1.3,0.4-2.6,0-4.1c0.7,0.4,1,1,1.1,1.6c0.2,0.7,0.2,1.5,0.1,2.3c-0.1,0.9,0.1,1.2,1,1.5
						c1.3,0.4,2.7,0.4,4.1,0.1c0.6-0.1,0.9-0.5,0.9-1c0.1-1.9,0.6-3.9-0.7-5.7c1,0.6,1.5,1.3,1.7,2.2c0.2,1.1,0.3,2.1,0.2,3.2
						c0,0.4,0.1,0.5,0.5,0.6c1.1,0,2.1-0.1,3.2-0.6c0.4-0.2,0.6-0.4,0.6-0.8c0.1-1.7,0.4-3.4-0.5-5c0,0,0-0.1,0.1-0.1
						c0.4,0,0.6,0.4,0.9,0.5c0.5-1.2,0.5-2.4,0.3-3.6c-0.3-1.7-0.3-3.4,0.2-5.1c1.2-4.8,2.8-9.4,4.6-14c0.1-0.2,0.3-0.4,0.2-0.7
						c-1.1,0.1-1.9,0.6-2.7,1.5c0.1-0.6,0.3-0.9,0.6-1.2c0.3-0.4,0.7-0.6,0.9-1c0.7-1.3,1-2.7,1.3-4.1c-1.4,0.6-1.5,0.6-2.1,0.4
						c1.4-1.4,1.5-1.5,1.7-3.4c0.2-2.1-0.1-4.1-0.5-6.1c-0.1-0.4-0.3-0.7-0.7-0.8c-1.3-0.5-2.1-1.5-2.4-3c1.8,1.8,2.4,2.2,3.7,2
						c-1.3-2.6-1.4-3-1.4-4.6c0-0.9,0-1.8,0-2.8c0-0.8-0.1-1.7-0.2-2.5c-0.6-2.7-2-4-4.9-4.6c-0.2,0-0.5,0-0.7-0.3
						c2.2-0.5,4-0.1,5.5,1.6c0.9,1,1.2,2.1,1.5,3.3c0.4,2,0.2,3.9,0.3,5.9c0.1,1.2,0.5,2.3,1.3,3.2c0.2,0.2,0.4,0.4,0.8,0.4
						c1.4,0.1,2.8,0.4,4.2,0.9c0.1,0,0.3,0.2,0.5,0c-1.6-6.5-4.5-12.4-8.3-18c0.7,0.1,1.3,0.2,2.1,0.3c-2.1-1.7-2.8-2.6-4-5.1
						c-0.9-1.9-2-3.8-3.2-5.6c-0.3-0.4-0.6-0.9-0.9-1.3c0,2-0.2,4-0.7,6c-0.1-0.2-0.1-0.3-0.2-0.4c-0.1-0.3-0.2-0.5-0.3-0.8
						c-0.6-2.1-1.9-3.8-3.5-5.2c-0.3-0.2-0.6-0.7-0.9-0.6c-0.2,0-0.3,0.6-0.4,0.9c-0.1,0.1-0.1,0.3-0.2,0.4c-1.2,2-2.9,3.2-5,4.2
						c-0.4,0.2-0.4,0-0.4-0.3c0-0.3,0-0.7,0-1.1c-1.6,0.8-3.1,1.4-4.7,1.4c-0.4,0-0.9-0.2-1.1,0c-0.2,0.2,0.1,0.7,0.1,1.1
						c0,0.4-0.1,0.4-0.4,0.2c-0.7-0.3-1.3-0.6-1.9-1c-0.4-0.3-0.8-1-1.1-0.9c-0.4,0-0.7,0.7-1.1,1c-2.1,1.6-4.6,2.3-7.1,2.6
						c-0.9,0.1-0.9,0.1-0.6-0.8c0.1-0.2,0.2-0.4,0.2-0.7c-1.3,0.2-2.6,0-3.8-0.4c-0.1,0-0.3-0.2-0.3,0.1c0.1,0.6-0.3,0.3-0.5,0.2
						c-1.4-0.4-2.6-0.9-3.7-1.9c-1.2,2.2-2.2,4.5-3.1,6.8c-0.4-1.4-1-2.7-1.3-4.3c-0.6,0.6-1.1,1.2-1.8,1.6
						c-0.7,0.4-1.4,0.8-2.2,1.3c0.4-1.1,0.8-2,1-2.9c0.1-0.3,0.2-0.6-0.2-0.8c-0.4-0.2-0.5,0.2-0.7,0.4c-1.8,3.1-3,6.4-3.3,10
						c-0.1,1.1-0.1,2.1,0,3.3C675,362.6,675.4,362.1,675.9,361.6z M676,329.6c0.2-1.6,0.3-3,1.1-4.2c0.2-0.3,0.3-0.6,0.3-1
						c-0.3-3.7-0.2-7.3,0.6-10.9c0.5-2,1.2-3.9,2.6-5.6c0.6-0.7,1.4-1.2,2.3-1.4c-1.6,1.4-2.7,3.2-3.3,5.2c-0.4,1.4-0.7,2.9-0.8,4.3
						c-0.3,2.4-0.2,4.8-0.2,7.2c0,0.4,0.1,0.5,0.4,0.3c0.4-0.2,0.8-0.4,1.3-0.4c-1.1,1.1-2.3,2.1-2.6,3.6c1.1-0.1,2.1-0.5,3.2-0.8
						c-2,3.2-2.4,4.1-2.3,5.2c0.8-0.3,1.5-0.6,2.4-0.5c-2.3,1.2-2.8,1.7-3.1,2.5c0.5-0.1,1-0.2,1.5-0.2c-2,2-3,4.3-3,7.1
						c0,2.7,0.9,5.1,2.3,7.6c0-1.5,0-2.8,0-4.1c0.1-2.1,0.4-4.1,1.8-5.8c0.4-0.5,0.8-0.9,1.6-1.2c-0.8,0.9-1.2,1.8-1.5,2.7
						c-0.5,1.4-0.6,2.9-0.5,4.3c0.1,2.1,0.4,4.2,0,6.4c0.8-0.7,1.3-1.5,1.4-2.6c0-0.9,0.2-1.8,0.5-2.6c0.4-1.4,1.3-2.9,2.2-3.5
						c-1.2,2.9-1.6,5.9-0.9,9.1c0.9-2,1.9-3.8,3.1-5.4c1.2-1.7,2.5-3.2,4.3-4.3c-1.1,1.5-2.2,2.9-3.1,4.4c-0.9,1.6-0.9,1.8,0.9,2.6
						c0,0,0.1,0,0.2,0c-0.1-0.4-0.1-0.8-0.2-1.3c1.3,1,2.5,1.7,4,2c1.5,0.3,2.9-0.3,4.3-0.9c-0.3,0.8-0.5,1.5-0.8,2.3
						c2.8-0.7,5.5-1.4,6.8-4.3c0.1-0.2,0.1-0.5,0.4-0.4c0.2,0,0.2,0.3,0.3,0.5c0.3,0.6,0.6,1.2,1.3,1.6c0-0.5-0.2-0.9-0.1-1.4
						c1.4,1.2,3,1.3,4.7,0.9c1.3-0.4,2.5-1,3.7-1.8c0.4-0.3,0.6-0.2,0.5,0.3c0,0.4,0,0.8,0,1.2c1.6-0.8,3-2.4,3.4-3.8
						c0.1-0.5,0.1-0.8-0.4-1.1c-0.8-0.5-1.5-1-2.3-1.5c-0.5-0.3-1.1-0.7-1.6-1c3.9,1,7.3,2.9,10,6.1c-0.2-4.3-1.8-7.9-4.3-11.1
						c1.8,1.4,3.1,3.1,4.2,5.3c-0.3-3.6-2-6.3-6.4-9.9c0.2-0.1,0.3,0,0.4,0.1c3.5,1.6,5.8,4.3,6.9,8c0.3,1.1,0.4,2.3,0.7,3.4
						c0.3,1,0.8,2,1.7,2.8c-0.2-1.7-0.2-3.2,0-4.8c0.5-4.3-0.9-7.7-4.1-10.5c-0.2-0.1-0.3-0.2-0.5-0.4c-0.2-0.1-0.4-0.2-0.5-0.5
						c4.4,2.2,6.3,5.8,6.6,10.4c1.8-4.6,0.7-8.5-3.1-11.7c0.3-0.1,0.6-0.2,0.9-0.3c-1.6-1.3-3.3-2.1-5.4-2.3
						c1.4-0.3,2.8-0.2,4.3,0.4c0.6,0.2,0.7,0.2,0.6-0.5c-0.2-1.3-1-2.1-2-2.8c-0.4-0.3-0.8-0.6-1.3-0.9c0.7-0.1,1.3,0,1.8,0.2
						c0.5,0.2,1,0.4,1.6,0.7c-0.4-0.9-1-1.6-1.6-2.2c-0.7-0.6-1.4-1-2.2-1.5c0.6-0.1,1.1,0.1,1.7,0.2c-0.3-0.9-0.8-1.5-1.3-2.2
						c0.5,0.2,0.8,0.6,1.3,0.9c-1.1-3-2.3-5.7-3.9-8.2c-1.6-2.5-3.5-4.7-6.6-5.9c1.1-0.1,1.9,0.2,2.6,0.7c2.1,1.2,3.7,3,5,4.9
						c2.2,3.3,3.7,6.9,5,10.7c0.1,0.4,0.3,0.7,0.5,1c0.9,1,1.2,2.3,1.3,3.6c0,0.6-0.3,0.3-0.5,0.3c0.1,0.6,0.2,1.1,0,1.5
						c-0.1,0.4,0,0.6,0.3,0.8c0.5,0.4,0.9,0.8,1.3,1.3c-0.3,0.1-0.6,0.2-0.9,0.3c3.3,4.2,3.4,8.6,0.8,13.3c1.5-1,2.7-2,3.8-3.2
						c1.6-1.7,2.8-3.7,3.3-5.9c0.7-2.8,0.3-5.6-0.6-8.2c-0.6-1.6-1.3-3.2-2-4.8c1.5,1.5,2.5,3.3,3.3,5.3c-0.1-5-1.8-9.2-5.8-12.3
						c3,1,4.6,3.6,6.8,5.8c-1.4-5.8-4.3-10.2-10.4-11.9c0.3-0.2,0.5-0.1,0.7-0.1c2.1,0,3.9,0.8,5.6,2c0.6,0.4,1.1,1,1.6,1.3
						c1.6,1,3,2.3,4.2,3.9c0.3,0.5,0.7,0.9,1,1.4c-0.5-2.5-1.3-4.7-2.7-6.8c-1.7-2.5-4-4.3-7-4.8c-0.6-0.1-1.2-0.3-2-0.5
						c2-1,3.9-0.5,5.7-0.1c0.1-0.2-0.1-0.2-0.1-0.3c-1.8-1.9-4-2.9-6.4-3.5c-0.5-0.1-1.1-0.2-1.6,0c-1.2,0.3-2.1,0.2-2.8-0.4
						c3-0.8,4.3-1.6,5-3c-1.7,0.5-3.2,0.1-4.8-0.5c-2.8-1.1-5.5-2.4-8.3-3.3c-4.1-1.4-8.1-1.2-11.8,1.2c-0.7,0.4-1.5,0.8-1,1.9
						c-0.7-0.6-1-1.3-1.1-2.1c-0.1-0.8,0-1.5,0-2.3c-1.9,1-2.8,2.6-3.6,4.5c-0.7-2.3-0.9-4.6-0.2-7c-0.6,0.5-0.9,1-1.1,1.5
						c-0.8,1.4-1,3-1.1,4.8c-1-0.8-1.8-1.6-2.9-2.2c-1.1-0.5-2.2-0.8-3.6-0.7c0.6,0.6,1.2,1.1,1.4,1.7c0.3,0.9,0.7,1.8,1.7,2.2
						c0,0,0,0,0,0.1c0,0,0,0-0.1,0c-0.5-0.1-1-0.1-1.5-0.2c-4.4-0.7-8.3,0.4-11.6,3.4c-1.4,1.2-2.8,2.5-4.1,3.7
						c-1.9,1.7-3.6,3.7-6.5,3.9c1.9,1.3,3.8,1.5,5.8,1c-0.6,0.8-1.4,1.2-2.3,1.3c-0.7,0-1.3,0.3-1.8,0.7c-0.7,0.5-1.4,1-2,1.5
						c-1.3,1.2-2.3,2.6-3,4.3c1.7-1.1,3.3-2.2,5.4-1.9c-6.4,3.2-7.5,8.8-6.9,15c0.5-1.5,1-2.9,1.8-4.3c0.8-1.4,1.8-2.5,3.4-3.2
						c-3.9,4.8-3.5,8-2.6,11.2c0.5-2.7,1.3-5.2,3.3-7.1c-1,2.6-2.1,5.3-2.2,8.1c-0.1,2.9,0.7,5.6,2.3,8.2
						c-1.1-5.3,0.3-10.6,1.9-12.9c0.1,0.3-0.1,0.5-0.1,0.7c-0.7,2.8-1.1,5.5-1,8.4c0.1,3.3,1.1,6.3,3.4,8.7c1.4,1.4,3,2.5,5,3.4
						c-2.2-4.2-3-8.4-0.9-12.8c-0.3-0.1-0.5,0.1-0.7-0.1c0,0,0-0.1,0-0.1c0.1-0.1,0.1-0.3,0.2-0.4c0.6-1.1,1.2-2.2,1.2-3.5
						c0-0.9,0.4-1.6,0.8-2.6C677.2,328.7,676.7,329.1,676,329.6z M674.4,401.7c-1.5,0.6-3,0.7-4.4,0.8c-4.1,0.2-8.2,0.5-12.2,0.7
						c-1.2,0.1-2.4,0.4-3.5,1c-0.5,0.3-1,0.6-1.3,1.2c-0.6,1.1-0.8,2.3-0.7,3.6c0,0.4,0.3,0.7,0.6,0.8c0.4,0.2,0.5,0.1,0.5-0.3
						c-0.1-1.2,0-2.3,0.5-3.4c0.8-1.9,3.3-3,5.2-2.3c-0.9,0.3-1.8,0.5-2.6,0.9c-0.9,0.5-1.5,1.2-1.7,2.2c-0.2,1-0.2,2,0,3.1
						c0.1,0.4,0.3,0.7,0.7,0.8c1.1,0.3,2.2,0.4,3.3,0.4c0.4,0,0.4-0.2,0.3-0.5c-0.2-0.5-0.3-1-0.3-1.5c-0.2-3.2,2-5.3,5.6-4.6
						c-0.7,0.2-1.4,0.5-2.1,0.7c-1.4,0.5-2.1,1.5-2.2,3c0,0.8,0.2,1.4,0.4,2.1c0.1,0.4,0.4,0.5,0.8,0.6c2,0.2,3.9-0.2,5.8-1
						c0.9-0.4,1.7-0.9,2-2.1c0.3,1-0.1,1.6-0.4,2.1c2.2,0,4.4,0,6.6,0c0.5,0,0.8-0.1,1.1-0.6c0.4-0.7,1-1.1,1.8-1.3
						c0.4-0.1,0.5-0.3,0.6-0.6c0.3-0.9,0.2-1.9,0.2-2.8c-0.6-6-1.2-12-1.7-17.9c0-0.4-0.2-0.5-0.6-0.6c-1-0.1-1.7-0.7-2.1-1.6
						c-0.1-0.2-0.2-0.4,0.1-0.5c0.6-0.2,0.8-0.7,0.9-1.2c0.3-1.5,0.1-2.9-0.2-4.4c-0.4-1.9-0.8-3.7-1-5.6c-0.1-1.4-0.1-1.5-1.6-1
						c-5.3,1.6-8.4,5.1-9.5,10.5c-0.4,2.1-1.2,4-2.9,5.4c0,0,0,0.1,0,0.1c1.1,0.3,2-0.5,3-0.6c-2.3,4-3.1,6.4-2.6,7.7
						c0.6-0.5,1.2-1,1.9-1.5c-0.2,0.8-0.5,1.5-0.6,2.1c-0.4,1.9-0.3,3.6,0.9,5.2c0.2,0.3,0.5,0.5,0.9,0.4c2.1-0.1,4.1-0.1,6.2-0.2
						C671.3,401.2,672.8,401.3,674.4,401.7z M732.1,387.3c0.5,0,0.9,0,1.3,0c0.4,0,0.5,0.1,0.3,0.5c-1.6,3.3-2.8,6.7-3.9,10.2
						c-0.5,1.5-1.1,3-1.4,4.7c0.2-0.1,0.3-0.1,0.3-0.1c3.8-1.7,7.8-3,12-3.5c2-0.2,4-0.3,6,0.5c1.1,0.4,1.1,0.4,1.4-0.7
						c1-4.1,0.3-8.1-1.3-11.9c-0.4-0.9-0.8-1.9-1.3-2.8c0,0,0.1,0,0.1-0.1c0.8,0.8,1.6,1.7,2.5,2.6c0-0.1,0-0.2,0-0.3
						c-0.7-2-1.7-3.8-2.8-5.5c-2.6-3.7-6-6.3-10.6-7c-0.6-0.1-1.2-0.2-1.8-0.1c-0.5,0-0.6,0.2-0.5,0.7c0.5,1.9,0.6,3.9,0.4,5.9
						c0,0.2-0.1,0.3,0,0.5c0.4-0.5,0.7-1,1.1-1.4C733.6,382.2,733.4,384.8,732.1,387.3z M744.9,410.7c2,1,5,1.1,6.1,0.1
						c-1,0.4-1.9,0.5-2.9,0.4c-0.9-0.1-1.4-0.7-1.1-1.4c0.2-0.6,0.1-0.8-0.5-0.8c0.1-0.3,0.3-0.2,0.5-0.3c1.2-0.4,2.4-0.6,3.4-1.2
						c0.4-0.2,0.9-0.4,1-0.9c0.2-1.2-0.1-2.2-1-3.1c-0.8-0.8-1.7-0.8-2.7-0.3c-1,0.5-2,1-3,1.5c-0.5,0.3-1.1,0.5-1.7,0.6
						c-0.8,0.1-1.2-0.2-1.3-1c-0.1-1.2,0.6-2.4,1.7-3c1.1-0.6,2.3-0.4,3.3,0.6c0.3,0.3,0.5,0.3,0.8,0.1c0.3-0.3-0.1-0.5-0.3-0.6
						c-0.9-0.7-2-0.9-3.1-0.9c-5.5-0.2-10.6,1.6-15.5,3.9c-0.2,0.1-0.3,0.3-0.4,0.5c-0.1,1-0.1,1.9,0,2.9c0.2,0.9,0.3,1.9,0.1,2.8
						c0,0.3,0,0.5,0.4,0.4c3.9-0.4,7.8-0.4,11.7-0.3c0.1,0,0.3,0.1,0.4-0.2c-0.6-0.6-0.7-1.4-0.5-2.2c0.2-1.5,1.4-2.5,2.7-2.3
						C744.4,406.1,746.5,409,744.9,410.7z M742,409c0.7-0.1,1.4,0,2-0.3c0.2-0.1,0.5-0.1,0.3-0.5c-0.4-0.7-0.8-1.3-1.6-1.5
						c-0.7-0.1-1.6,0.6-1.7,1.6C741,409.1,741.8,408.7,742,409z M742.5,403.7c1-0.5,2-0.9,2.7-1.7
						C744,401.5,742.8,402.3,742.5,403.7z M747.8,410c0.9,0,1.8,0.1,2.6-0.2c0.1,0,0.3,0,0.3-0.3c0-0.2-0.1-0.3-0.3-0.4
						C749.8,408.8,748.2,409.3,747.8,410z"/>
				</g>
			</g>
		</g>
		<g>
			<g>
				<g>
					<path class="st1" d="M712.8,332.9c0.4,2.2-1.4,4.4-3.7,4.7c-2.1,0.3-4.1-0.3-6.1-0.9c-0.7-0.2-1.5-0.5-2.2-0.9
						c-0.4-0.2-0.6-0.1-0.8,0.2c-1.2,1.2-2.4,2.3-3.9,3.1c-2.3,1.3-5.3,0.3-6.4-2.1c0.8,0.6,1.5,1.1,2.4,1.5
						c1.3,0.5,2.5,0.4,3.6-0.4c1.4-1,2.6-2.1,3.7-3.3c0.4-0.5,0-1.7-0.6-1.9c-1.4-0.5-2.7-1.2-3.9-2.2c-1.5-1.3-1.3-3.3,0.4-4.2
						c2.2-1.2,4.6-1.5,7.1-1.1c1.8,0.3,2.7,2.3,1.6,3.9c-0.9,1.3-1.9,2.4-3.2,3.3c-0.5,0.4-0.4,1.6,0.2,1.8c2.2,0.9,4.4,1.7,6.7,1.9
						c1.9,0.2,3.3-0.5,4.2-2.1C712.2,333.9,712.5,333.4,712.8,332.9z"/>
				</g>
			</g>
		</g>
		<g>
			<g>
				<g>
					<path class="st1" d="M709.7,323.8c1-1.1,2.3-1.1,3.5-1.8c-2.2-0.3-4.1,0.2-5.8,1.2c0.4-0.5,1-0.9,1.6-1.3c-1-0.2-1.6,0-5.6,1.8
						c0.5-0.8,1.2-1.4,1.9-1.8c0.5-0.3,0.5-0.5,0.3-0.9c-0.6-1.2-0.9-2.4-0.7-3.7c0.3-2.4,2.2-4,4.8-4.2c3.9-0.2,6.5,3,5.7,7
						c-0.2,1.1-0.2,1.1,0.8,1.7c-0.2,0.3-0.7,0.2-0.9,0.6c1,0.3,1.9,0.6,2.7,1.4C715.2,323.1,712.5,323.3,709.7,323.8z M708.2,314.4
						c-1.4,0.6-2.2,1.5-2.4,2.9c-0.1,1.2,0.2,2.4,0.7,3.5c0.1,0.2,0.3,0.3,0.5,0.3c0.5-0.1,1-0.2,1.5-0.4
						C706.9,318.7,706.7,316.7,708.2,314.4z M713.3,316.5c0-0.7-0.5-1.3-1.2-1.3c-0.7,0-1.2,0.5-1.2,1.1c0,0.7,0.5,1.3,1.2,1.3
						C712.8,317.7,713.3,317.2,713.3,316.5z M710.1,319.4c0.1,0.4,0.3,0.8,0.8,0.8c0.4,0,0.8-0.3,0.7-0.7c0-0.4-0.2-0.8-0.7-0.8
						C710.4,318.7,710.2,318.9,710.1,319.4z"/>
				</g>
			</g>
		</g>
		<g>
			<g>
				<g>
					<path class="st1" d="M684.7,327.4c-0.4,0-0.8-0.1-1.4-0.1c1.4-0.7,0.7-1.3,0.3-2c-1.5-2.5-1.2-5.4,0.8-7.2
						c1.5-1.4,3.4-1.8,5.3-1.5c1.8,0.3,2.7,1.7,3.2,3.3c0.3,0.9,0.4,1.8,0.3,2.8c-0.1,0.5,0,0.8,0.6,0.9c0.8,0.1,1.6,0.4,2.4,1.1
						c-1.7-0.3-3.2-0.5-4.7-0.2c-0.4,0.1-0.8,0.1-1.2,0.4c0.7,0.3,1.4,0.3,2.1,0.8c-2.1-0.3-4-0.2-6,0.8c1.4,0.2,2.6-0.2,3.9,0.4
						c-1.4,0.3-2.8,0.6-4,1c-1.3,0.5-2.5,1.1-3.6,1.9C682.9,328.8,683.3,328.4,684.7,327.4z M686.9,317.8c-1.2,0.3-2.1,0.9-2.6,1.8
						c-1,2-0.7,3.9,0.6,5.7c0.1,0.2,0.3,0.4,0.6,0.2c0.4-0.2,0.8-0.4,1.3-0.6C684.5,322.7,684.8,319.8,686.9,317.8z M690.7,319.8
						c0-0.8-0.5-1.3-1.3-1.3c-0.7,0-1.3,0.6-1.3,1.2c0,0.8,0.5,1.4,1.3,1.4C690.1,321.1,690.7,320.6,690.7,319.8z M689.1,322.9
						c0-0.4-0.2-0.7-0.7-0.8c-0.5,0-0.7,0.2-0.8,0.7c0,0.5,0.2,0.8,0.7,0.8C688.8,323.6,689.1,323.4,689.1,322.9z"/>
				</g>
			</g>
		</g>
		<g>
			<g>
				<g>
					<path class="st1" d="M705.2,314.8c0.2-2.1-0.5-4.4,0.9-6.3c-0.3,1-0.5,2-0.4,3c0.7-1.4,1.5-2.6,2.8-3.4
						c0.4-0.3,0.9-0.5,1.5-0.5C707.4,309.3,706.3,312.1,705.2,314.8z"/>
				</g>
			</g>
		</g>
		<g>
			<g>
				<g>
					<path class="st1" d="M704.5,338.2c-1.3,2-5.2,2.4-6.6,1.2C700.2,339.3,702.4,338.9,704.5,338.2z"/>
				</g>
			</g>
		</g>
		<g>
			<g>
				<g>
					<path class="st1" d="M687.6,309.2c2.6-0.1,4.7,2.5,3.9,5.4C691.1,312.1,689.9,310.3,687.6,309.2z"/>
				</g>
			</g>
		</g>
		<g>
			<g>
				<g>
					<path class="st1" d="M705.2,306.1c-1.5,1.9-1.6,4.2-2.1,6.4C702.2,311.1,702.8,306.7,705.2,306.1z"/>
				</g>
			</g>
		</g>
		<g>
			<g>
				<g>
					<path class="st1" d="M688.9,313.3c-0.2-0.4-0.4-0.8-0.7-1.3c0.7,0.5,1,1,1.4,3c-1.3-1.4-2.9-2.4-4.7-3
						C686,311.6,687.4,312.1,688.9,313.3z"/>
				</g>
			</g>
		</g>
		<g>
			<g>
				<g>
					<path class="st1" d="M747.7,408c-0.4,0-0.8,0-1.2-0.2c-1.2-0.4-1.5-1.5-0.7-2.5c0.9-1.1,3.3-1.5,4.5-0.8
						c1.1,0.7,1.2,1.8,0.1,2.6C749.7,407.7,748.7,408,747.7,408z M747.1,406.4c0.8-0.1,1.6-0.2,2.3-0.7c0.2-0.1,0.4-0.2,0.4-0.4
						c0-0.2-0.3-0.3-0.5-0.3c-0.9-0.1-1.7,0-2.5,0.4c-0.2,0.1-0.6,0.4-0.5,0.7C746.5,406.5,746.8,406.4,747.1,406.4z"/>
				</g>
			</g>
		</g>
	</g>
</g>
<g>
	<path d="M646.1,466.7c-0.3,0-0.6-0.1-0.9-0.2c-3.8-1.8-7.6-4.5-11.3-8.1c-0.1,2.4-0.1,4.5-0.2,6.1c0,0.6-0.2,1-0.6,1.4
		c-0.4,0.4-0.8,0.5-1.4,0.5H628c-0.6,0-1-0.2-1.4-0.6c-0.4-0.4-0.6-0.9-0.6-1.4c0.1-12.5,0.2-23.4,0.4-32.9c0-0.6,0.2-1,0.6-1.4
		c0.4-0.4,0.8-0.6,1.4-0.6h4c0.5,0,1,0.2,1.4,0.6c0.4,0.4,0.6,0.8,0.6,1.4c0,0.5,0,1.1,0,1.7c0,3,0,6.8-0.1,11.4
		c1.7-1.7,3.5-3.7,5.4-6c1.9-2.3,3.5-4.5,4.8-6.6c0.4-0.6,1-1,1.7-1c0.4,0,0.7,0.1,1.1,0.3l2.5,1.6c0.6,0.4,0.9,1,0.9,1.7
		c0,0.3-0.1,0.7-0.3,1c-2.8,4.5-7,9.7-12.7,15.5c1.5,1.5,3.2,3,5.1,4.5c2,1.5,3.9,2.8,5.7,3.8c0.4,0.3,0.8,0.6,0.9,1.1
		c0.1,0.2,0.1,0.4,0.1,0.7c0,0.2-0.1,0.5-0.2,0.7l-1.4,3.4c-0.2,0.5-0.6,0.9-1.1,1.1C646.6,466.7,646.3,466.7,646.1,466.7z"/>
	<path d="M666.8,466.3c-2.2,0-4.5-0.6-6.9-1.7c-1.9-1-3.3-2.4-4.3-4.3c-1.2-2.2-1.8-4.7-1.8-7.6c0-1.8,0.2-3.5,0.7-5.1
		c1-3.2,2.7-5.5,5-7.1c1.9-1.3,4-1.9,6.5-1.9c0.6,0,1.2,0,1.8,0.1c2.2,0.3,3.9,1,5.1,2c1.2,1,2,2.2,2.5,3.5c0.4,1.1,0.6,2.1,0.6,3
		v0.3l0.1,1.4c0.1,0.9,0.1,1.5,0.1,1.9c0,0.4-0.1,0.8-0.2,1.1c-0.2,0.4-0.4,0.7-0.7,1c-0.6,0.6-1.4,0.9-2.2,0.9l-1.7,0.2
		c-5,0.6-8.2,1-9.7,1.1c0.2,0.9,0.4,1.7,0.7,2.4c0.8,1.8,2,2.7,3.5,2.8l0.6,0c1.8,0,2.9-0.6,3.3-1.9c0.1-0.4,0.4-0.8,0.7-1
		c0.4-0.2,0.8-0.4,1.2-0.4l2.3,0.1c0.6,0.1,1,0.3,1.4,0.7c0.3,0.4,0.5,0.8,0.5,1.3v0.2c-0.3,2.5-1.6,4.4-4,5.7
		C670.3,465.9,668.6,466.3,666.8,466.3z M661.9,448.8l7.9-0.9c0-0.1,0-0.2,0-0.3c0-0.1-0.1-0.4-0.2-0.9c-0.1-0.5-0.4-0.9-0.8-1.4
		c-0.4-0.5-0.9-0.8-1.7-0.9c-0.2,0-0.5-0.1-0.7-0.1c-1.3,0-2.3,0.6-3.2,1.7C662.7,446.9,662.2,447.8,661.9,448.8z"/>
	<path d="M699.9,466.5h-4.5c-0.6,0-1-0.2-1.4-0.6s-0.6-0.9-0.6-1.4c0.1-2.3,0.1-5.1,0.1-8.6l0-2.5c-0.1-4-1.2-6-3.3-6
		c-1.7,0-2.7,2-3,6c-0.1,3.8-0.2,7-0.3,9.8l0,2.2c0,0.3-0.1,0.6-0.3,0.9c-0.2,0.2-0.5,0.3-0.8,0.3h-5.3c-0.3,0-0.6-0.1-0.9-0.4
		c-0.2-0.2-0.3-0.5-0.3-0.9v-0.8c0.1-8.9,0.2-16.6,0.4-23.2c0-0.5,0.2-1,0.6-1.4c0.4-0.4,0.8-0.6,1.4-0.6h4.5c0.4,0,0.7,0.1,0.9,0.3
		c0.2,0.2,0.3,0.5,0.3,0.8c1-0.3,2.3-0.4,3.8-0.4c1.6,0,3.1,0.4,4.5,1.1c1.4,0.7,2.6,1.6,3.5,2.8c2,2.8,2.9,7,2.9,12.4
		c0,2.2-0.1,4.3-0.2,6.4c0,0.1-0.1,0.7-0.1,1.9c0,0.5-0.2,1-0.6,1.4C700.9,466.3,700.4,466.5,699.9,466.5z"/>
	<path d="M715.6,466.7c-2.2,0-3.9,0-5.2-0.1c-1.2-0.1-2.2-0.1-2.8-0.2c-0.6-0.1-1-0.2-1.3-0.4c-0.2-0.2-0.4-0.4-0.5-0.6
		c-0.2-0.4-0.3-0.7-0.3-1.1c0-0.3,0.1-0.5,0.2-0.8c0.9-2,2.4-4.4,4.4-7.1c2-2.7,4-5.3,5.9-7.7l1.2-1.5l-8.2,0.2
		c-0.6,0-1.1-0.2-1.5-0.6s-0.6-0.9-0.6-1.5l0.1-3.7c0-0.5,0.2-1,0.6-1.4c0.4-0.4,0.8-0.5,1.4-0.6l10.5,0c2.5,0,4.6,0,6.2,0.1h0.1
		c1,0,1.9,0.7,2.5,2c0.3,0.6,0.4,1.3,0.5,2.2l0,0.4c0,0.7-0.2,1.4-0.7,2c-1.5,1.8-3.3,4-5.2,6.5c-2,2.5-3.7,4.8-5.3,6.9l3,0
		c1.7,0,3.4,0,5.1-0.1c0.5,0,1,0.2,1.4,0.5c0.4,0.4,0.6,0.8,0.6,1.4l0.2,3.2c0,0.6-0.2,1-0.5,1.4s-0.8,0.6-1.4,0.6
		C721.6,466.7,718.2,466.7,715.6,466.7z"/>
	<path d="M745.1,466.3c-2.2,0-4.5-0.6-6.9-1.7c-1.9-1-3.3-2.4-4.3-4.3c-1.2-2.2-1.8-4.7-1.8-7.6c0-1.8,0.2-3.5,0.7-5.1
		c1-3.2,2.7-5.5,5-7.1c1.9-1.3,4-1.9,6.5-1.9c0.6,0,1.2,0,1.8,0.1c2.2,0.3,3.9,1,5.1,2c1.2,1,2,2.2,2.5,3.5c0.4,1.1,0.6,2.1,0.6,3
		v0.3l0.1,1.4c0.1,0.9,0.1,1.5,0.1,1.9c0,0.4-0.1,0.8-0.2,1.1c-0.2,0.4-0.4,0.7-0.7,1c-0.6,0.6-1.4,0.9-2.2,0.9l-1.7,0.2
		c-5,0.6-8.2,1-9.7,1.1c0.2,0.9,0.4,1.7,0.7,2.4c0.8,1.8,2,2.7,3.5,2.8l0.6,0c1.8,0,2.9-0.6,3.3-1.9c0.1-0.4,0.4-0.8,0.7-1
		c0.4-0.2,0.8-0.4,1.2-0.4l2.3,0.1c0.6,0.1,1,0.3,1.4,0.7c0.3,0.4,0.5,0.8,0.5,1.3v0.2c-0.3,2.5-1.6,4.4-4,5.7
		C748.7,465.9,747,466.3,745.1,466.3z M740.3,448.8l7.9-0.9c0-0.1,0-0.2,0-0.3c0-0.1-0.1-0.4-0.2-0.9c-0.1-0.5-0.4-0.9-0.8-1.4
		c-0.4-0.5-0.9-0.8-1.7-0.9c-0.2,0-0.5-0.1-0.7-0.1c-1.3,0-2.3,0.6-3.2,1.7C741,446.9,740.6,447.8,740.3,448.8z"/>
	<path d="M770.5,466.3c-2.2,0-4.5-0.6-6.9-1.7c-1.9-1-3.3-2.4-4.3-4.3c-1.2-2.2-1.8-4.7-1.8-7.6c0-1.8,0.2-3.5,0.7-5.1
		c1-3.2,2.7-5.5,5-7.1c1.9-1.3,4-1.9,6.5-1.9c0.6,0,1.2,0,1.8,0.1c2.2,0.3,3.9,1,5.1,2c1.2,1,2,2.2,2.5,3.5c0.4,1.1,0.6,2.1,0.6,3
		v0.3l0.1,1.4c0.1,0.9,0.1,1.5,0.1,1.9c0,0.4-0.1,0.8-0.2,1.1c-0.2,0.4-0.4,0.7-0.7,1c-0.6,0.6-1.4,0.9-2.2,0.9L775,454
		c-5,0.6-8.2,1-9.7,1.1c0.2,0.9,0.4,1.7,0.7,2.4c0.8,1.8,2,2.7,3.5,2.8l0.6,0c1.8,0,2.9-0.6,3.3-1.9c0.1-0.4,0.4-0.8,0.7-1
		c0.4-0.2,0.8-0.4,1.2-0.4l2.3,0.1c0.6,0.1,1,0.3,1.4,0.7c0.3,0.4,0.5,0.8,0.5,1.3v0.2c-0.3,2.5-1.6,4.4-4,5.7
		C774.1,465.9,772.4,466.3,770.5,466.3z M765.6,448.8l7.9-0.9c0-0.1,0-0.2,0-0.3c0-0.1-0.1-0.4-0.2-0.9c-0.1-0.5-0.4-0.9-0.8-1.4
		c-0.4-0.5-0.9-0.8-1.7-0.9c-0.2,0-0.5-0.1-0.7-0.1c-1.3,0-2.3,0.6-3.2,1.7C766.4,446.9,766,447.8,765.6,448.8z"/>
</g>
</svg>
