<?xml version="1.0" encoding="utf-8"?>
<!-- Generator: Adobe Illustrator 26.0.2, SVG Export Plug-In . SVG Version: 6.00 Build 0)  -->
<svg version="1.1" id="_x30_" xmlns="http://www.w3.org/2000/svg" xmlns:xlink="http://www.w3.org/1999/xlink" x="0px" y="0px"
	 viewBox="0 0 1404 792" style="enable-background:new 0 0 1404 792;" xml:space="preserve">
<style type="text/css">
	.st0{fill:none;stroke:#000000;stroke-width:0.7087;stroke-linecap:round;stroke-linejoin:round;stroke-miterlimit:10;}
	.st1{fill:none;stroke:#231F20;stroke-miterlimit:10;}
</style>
<g id="LWPOLYLINE">
	<path class="st0" d="M715.3,507.7c0-7-5.7-12.8-12.8-12.8s-12.8,5.7-12.8,12.8v6.2h-16.3c3-3.2,3-8.2,0-11.5
		c-3.2-3.4-8.5-3.6-11.9-0.4c-3.4,3.2-3.6,8.5-0.4,11.9h-14.6v-5h4.3v-7.1h-4.3v-6h4.3v-4.3h-55.6V278.1h214.6v213.4h-55.6v4.3h4.3
		v6h-4.3v7.1h4.3v5h-14.6c3-3.2,3-8.2,0-11.5c-3.2-3.4-8.5-3.6-11.9-0.4c-3.4,3.2-3.6,8.5-0.4,11.9h-16.3V507.7z"/>
</g>
<g>
	<g>
		<g>
			<g>
				<path class="st1" d="M668.9,294.1c0.6-0.4,0.7-1,0.7-1.7c0-1.3-0.1-2.5,0-3.8c0-1.3,0.8-2.1,2.1-2.2c1.2-0.1,1.9,0.5,2.1,1.9
					c0.1,1.3,0.1,2.5,0.1,3.8c0,0.8,0.2,1.1,1,0.8c1-0.4,2-0.3,2.8,0.4c0.8,0.6,1.2,0.3,1.5-0.5c0.5-1.3,1-2.5,1.7-3.7
					c0.8-1.4,1.9-1.7,3-1.1c1.1,0.6,1.3,1.4,0.7,2.9c-0.5,1.1-1,2.2-1.5,3.2c-0.2,0.5-0.4,1.1-0.1,1.7c3.2-1.8,6.3-0.6,9.3,0.6
					c1.6,0.6,1.6,1.7,0.1,2.5c-2.4,1.4-4.9,2.5-7.8,2c-0.2,0-0.5-0.1-0.6,0.2c-0.4,0.8-0.1,2.2,0.7,2.8c0.2,0.2,0.5,0.4,0.5,0.5
					c-0.2,1.1,0.6,1.9,0.6,2.9c0,0.6,0.2,0.9,0.5,1.3c0.3,0.3,0.7,0.7,0.3,1.2c-0.3,0.3-0.2,0.5,0.1,0.7c0.1,0.1,0.4,0.4,0.3,0.5
					c-0.6,1.1,0.2,2,0.2,3c0,0.5,0.1,0.9,0.1,1.3c-0.2,1.2,1.1,2.3,0.2,3.5c0,0.1-0.1,0.2-0.1,0.2c1.4,0.7,0.8,2.2,1,3.3
					c0.2,1.2,1.5,2.3,0.5,3.6c-0.2,0.3,0.1,0.4,0.2,0.6c0.4,0.5,0.7,1.1,0.2,1.7c-0.1,0.1-0.1,0.3-0.1,0.3c1.4,2,0.2,4.2,0.7,6.3
					c0,0.1,0,0.4-0.1,0.5c-1.3,0.8-0.5,1.8-0.3,2.8c0.8,4.1,2.3,7.8,5.2,10.8c2.8,3,6.3,4.1,10.1,4.7c5.6,0.8,11.3,1.4,16.9,2.8
					c2.8,0.7,5.4,1.7,7.5,4c0.9,1,2.1,1.6,3.1,2.5c2.7,2.4,4.7,5.4,6.2,8.7c0.2,0.4,0.4,0.7,0.6,1.1c0.7,1.6,1.7,2.7,3.4,3.3
					c3.1,1.2,4.6,3.7,4.8,7c0.1,1.4,0.1,2.9-0.2,4.3c-0.1,0.3-0.3,0.9-0.5,0.4c-0.6-1.1-1.8-1-2.6-1.6c-0.7-0.5-1.5-0.9-2.3-1.4
					c-2.5-1.8-3.3-4.3-2.8-7.3c0.2-1,0-1.8-0.6-2.6c-1.7-2.4-2.9-5.2-4.8-7.5c-0.5-0.6-0.9-1.2-1.7-1.8c0.5,2.7,0.7,5.2,0.8,7.7
					c0,2.4-0.3,4.7-0.5,7.1c-0.1,1.4,0,2.8,0.8,4c0.4,0.7,0.6,1.4,1,2.1c1.1,2.4,1.3,4.9,0.5,7.5c-1,3.2-2.1,6.4-2.7,9.6
					c-0.3,1.4-0.2,2.9-0.3,4.3c-0.2,2.9-0.8,5.7-0.4,8.6c0.1,1.2-0.4,1.9-1.7,2.1c-2.6,0.4-5.1,0.7-7.7,0.1c-1.8-0.4-2.2-1.2-1.4-3
					c0.1-0.2,0.2-0.5,0.4-0.7c2.6-3.1,3.2-7,4.7-10.6c1.5-3.6,2.5-7.5,3.4-11.3c0.4-1.6,0.1-2.7-1.3-3.6c-1.2-0.8-2.2-1.7-3.4-2.5
					c-2.3,4.3-4.8,8.3-6.2,12.9c-0.4,1.4-0.9,2.7-0.5,4.2c0.1,0.4,0,0.9-0.1,1.4c-0.3,1.2-0.4,2.4-0.1,3.6c0.3,2-0.5,3.2-2.4,3.7
					c-2.2,0.6-4.5,0.7-6.8,0.2c-1.8-0.4-2.1-1.1-1.3-2.7c0.2-0.5,0.5-1,0.8-1.5c1-1.6,1.9-3.2,2.2-5.2c0.3-2.1,1.7-3.9,2.7-5.8
					c1.4-2.8,2.8-5.5,4.1-8.3c0.6-1.3,0.3-2.3-0.7-3.3c-1.3-1.3-2.5-2.1-4.5-2.2c-4-0.3-7.8-1.6-11.4-3.3c-0.8-0.4-1.1-0.3-1.2,0.6
					c-0.2,1.6-0.4,3.2-0.7,4.8c-0.1,0.5-0.1,0.9,0.2,1.3c1.3,1.8,1.2,3.7,0.3,5.5c-0.7,1.3-0.8,2.7-0.9,4.2
					c-0.2,4.4,0.2,8.7,0.2,13.1c0,1,0.4,2.1,0.6,3.1c0.1,0.6,0.2,1.3,0.2,1.9c0,1.8-0.5,2.6-2.3,3c-2.4,0.5-4.7,0.4-7-0.3
					c-1.2-0.3-1.3-1.3-1-2.2c0.4-1.7,1.3-3.3,2.2-4.9c0.4-0.7,0.6-1.4,0.6-2.3c0-1.2,0.4-2.4,0.8-3.6c0.2-0.6,0.1-1-0.5-1.2
					c-3-0.9-4.5-3.2-5.6-5.9c-0.9-2.3-2.3-4.4-4-6.3c-2.2-2.5-2.7-5.2-1.7-8.5c1.4-4.5,2.8-8.9,4.3-13.4c0.2-0.5,0.4-0.9,0.1-1.4
					c-2.4-3.7-3.1-7.9-3.8-12.1c-1.8-11.3-3.1-22.7-4.4-34.1c-0.1-1.1-0.4-1.5-1.6-1.1c-3.4,1.3-6.4,0.7-9-1.9
					c-1.6-1.6-1.9-3-0.5-4.8c0.7-0.9,0.8-1.8,0.7-2.8c-0.2-4.3-0.6-8.6,0-12.9c0.1-0.6-0.2-0.6-0.6-0.7c-3.1-0.6-5.4-2.4-7.4-4.8
					c-0.6-0.7-0.5-1.3,0.3-1.8c1.9-1.1,8-0.4,9.6,1C668.2,293.2,668.5,293.6,668.9,294.1z M715.7,367.1c0.1,0.2,0.1,0.2,0.1,0.3
					c0,0.2,0,0.3-0.1,0.5c-1.3,3.1-0.8,6.1,0.3,9.1c1.4,3.6,4.1,6.2,7,8.5c1.8,1.4,3.6,2.8,5.4,4.2c1.1,0.8,1.5,1.9,1.1,3.2
					c-0.3,1.1-0.4,2.2-0.7,3.2c-1.2,4.4-2.4,8.7-4.4,12.8c-0.7,1.5-0.3,2.4,1.2,3c0.8,0.4,1.7,0.3,2.6,0.3c1.3,0.1,1.8-0.5,2-1.8
					c0.3-2,0-4.1,0.3-6.1c0.7-3.7,2-7.2,3-10.7c0.5-1.9,0.5-3.7-0.2-5.5c-0.5-1.3-1.2-2.6-1.7-3.9c-0.3-0.7-0.6-1-1.3-1.1
					c-0.4-0.1-1.2-0.2-1-0.8c0.2-0.5,0.3-1.5,1.3-1.1c0.5,0.2,0.5-0.1,0.5-0.4c0.1-0.9,0.2-1.8,0.3-2.6c0-0.4,0-0.7-0.3-1
					c-0.9-0.9-0.8-1.8,0-2.7c0.5-0.6,0.6-1.3,0.6-2c-0.1-1.2-0.2-2.4-0.3-3.5c0-0.6-0.2-0.9-0.9-0.7c-0.6,0.2-1.3,0.3-1.6-0.4
					c-0.7-1.3,0.1-2.8,1.6-2.9c-0.3-0.9-0.4-1.9-1.6-0.9c-0.1,0.1-0.3,0.1-0.5,0.2c-1,0.3-2.7-0.8-3-2.1c-0.3-1.2,1-1,1.5-1.4
					c0.2-0.1,0.5-0.1,0.6-0.4c-0.7-0.9-1.3-1.4-2.6-0.5c-2.2,1.5-3.6,0.7-4-2.1c-0.1-0.4-0.3-0.5-0.6-0.5c-0.9-0.2-1.7-0.3-2.8-0.5
					c0.7,1.4-0.2,1.9-1.1,2.3c-0.9,0.4-1.8,0.9-2.8,1.3c-0.3,0.1-0.7,0.3-1,0.1c-1-0.7-2.3-1.5-2.6-2.7c-0.3-1,1.2-1,1.8-1.7
					c0,0,0-0.1,0.1-0.2c-0.8-0.4-1.5-0.3-2.3,0c-0.7,0.3-1.5,0.6-2,0c-0.8-0.8-1.7-1-2.7-1.1c-0.8-0.1-1.5-0.5-1.4,0.9
					c0,0.4-0.4,0.6-0.8,0.7c-0.9,0.4-1.8,0.7-2.7,1c-0.8,0.3-1.4,0.2-1.9-0.5c-0.6-0.9-1.6-2-0.9-2.8c1.1-1.3,0.2-1.6-0.6-2.2
					c-0.3-0.2-0.7-0.5-1-0.8c-0.6-0.5-1.2-1.4-1.8-0.1c-0.1,0.3-0.5,0.3-0.8,0.3c-0.6-0.1-1.6,0.1-1.8-0.7c-0.3-1-0.8-2.1,0.1-3
					c0.6-0.6,0.5-1,0.1-1.6c-1.1-1.8-1.8-3.7-2.2-5.8c-0.3-1.4-0.7-2.8-1-4.3c-0.3,0.3-0.4,0.5-0.5,0.6c-0.6,0.8-1.3,1.4-2.5,0.8
					c-1.2-0.6-1.2-1.4-1-2.5c0.4-1.8,0.4-1.8,2.3-1.8c0.4,0,1.1,0.3,0.9-0.6c-0.3-1.2-0.5-2.4-0.8-3.7c-0.3,0.3-0.4,0.4-0.5,0.6
					c-0.3,0.5-0.7,0.9-1.3,0.6c-0.7-0.4-1.6-0.6-1.7-1.7c-0.1-1.1,1-2.6,2-2.9c0.3-0.1,0.7,0,0.8-0.5c0.1-1.1-0.8-2.7-1.9-3.3
					c-1.5-0.7-2-4.1-0.8-5.1c0.9-0.7,1-2,0.1-2.6c-1.1-0.8-1.2-2-0.8-3.1c0.4-1,0.1-1.8-0.3-2.9c-0.5,1.1-1,1.9-0.6,3.1
					c0.5,1.2,0.2,1.5-1.1,1.5c-0.2,0-0.4,0-0.5,0.2c-0.6,1.6-2,2.9-1.5,4.8c0.3,1.1,0,2.1-1.1,2.8c-0.5,0.3-0.6,0.7-0.5,1.3
					c0.2,1.4,0.4,2.9,0.5,4.3c1.3,10.9,2.5,21.8,4.3,32.6c1,5.8,3.2,11,7.4,15.2c0.2,0.2,0.4,0.6,1,0.6c-0.2-3.7-1-7.4-1.1-11.3
					c0.6,0.5,0.6,0.9,0.6,1.3c0.1,0.9,0.5,1.3,1.3,1.3c0.8,0.1,1.2,0.5,1.2,1.3c-0.1,0.8,0.3,1.9-1.1,2.1c-0.4,0.1-0.8,0.1-0.7,0.7
					c0.3,2.3,0.6,4.5,0.9,6.8c0,0.3,0,0.7,0.5,0.5c0.8-0.3,1.1,0.3,1.4,0.8c0.4,0.6,0.1,1.2-0.4,1.6c-1,0.8-1,1.8-0.8,2.9
					c0.3,2.6,1.1,5.2,0.1,7.9c-0.5,1.4,0.1,2.6,1,3.6c0.5,0.6,0.6,1.1,0.6,1.9c0.2,4.2-0.4,8.3-1.7,12.4c-0.5,1.6-0.1,2.2,1.6,2.6
					c2.5,0.7,3.3,0.1,3.1-2.5c-0.3-3.8-0.3-7.7-0.2-11.5c0-1.1,0.2-2.2,0.7-3.2c0.9-1.8,1.1-3.6-0.3-5.2c-0.3-0.4-0.3-0.8-0.2-1.3
					c0.3-1.8,0.8-3.6,0.7-5.4c-0.1-1.4-0.1-2.3,0.8-3.6c1.4-2.2,2.5-4.7,2.2-7.5c0-0.2,0-0.4,0.3-0.5c0.3,0.6,0.5,1.2,0.5,1.9
					c0,1.4-0.3,2.8-0.9,4.1c-0.4,1-0.8,2-1.2,2.9c-0.4,0.8-0.1,1.3,0.8,1.6c2.1,0.9,4.2,1.8,6.4,2.4c3.7,1,7.3,1.6,11.1,0.7
					c1-0.3,1.3-0.4,0.5-1.4c-2.7-3.2-4.2-6.9-3.9-11.2C714.1,369.3,714.3,368,715.7,367.1z M671.6,295.1c1.5-1.9,1.5-1.9,1.5-4.4
					c0-0.2,0-0.4,0-0.6c0.1-0.9-0.1-1.5-1.2-1.4c-0.9,0.1-1.6,0.3-1.4,1.5c0.5,2.4-0.3,4.4-2.2,6.1c-1.9,1.7-1.8,4.2-1.9,6.5
					c0,0.4,0.3,0.5,0.6,0.7c1.1,0.6,1.2,1.5,0.1,2.1c-1.1,0.6-0.9,1.2-0.2,2c0.2,0.2,0.5,0.5,0.3,0.7c-1.2,1-0.6,2.2-0.5,3.3
					c0.1,1.4-0.1,2.5-1,3.6c-1,1.3-0.8,2.2,0.3,3.4c2.4,2.6,5.3,3,8.6,1.9c3.3-1.1,3.7-1.9,2.4-5.1c-0.2-0.5-0.5-1-0.2-1.6
					c0.6,0.1,0.6,0.8,1.1,1c0.5-1.2,1.1-2.4,1.6-3.5c0.1-0.2,0.2-0.5,0.1-0.6c-0.8-0.7-0.2-1.1,0.4-1.4c0.8-0.6,1.4-1.2,0.3-2
					c-0.5-0.4-0.6-1-0.2-1.6c0.3-0.5,0.8-1.1,1.4-0.8c0.7,0.4,0.7,0,0.9-0.5c0.8-2.2,1.1-4.5,0.2-6.7c-0.8-2.1-0.5-3.9,0.6-5.7
					c0.1-0.3,0.2-0.6,0.4-0.8c0.5-0.7,0-1.1-0.5-1.3c-0.6-0.2-1.3-0.7-1.8,0.3c-0.4,1.1-0.8,2.3-1.4,3.2c-0.6,0.9-0.8,1.5-0.2,2.4
					c0,0-0.1,0.1-0.1,0.2c-1.2-0.9-1.8-2.7-3.5-2.7C674.5,293.4,673.3,294.6,671.6,295.1z M688.2,401.2c0.9-1.2,1.5-2.3,2-3.5
					c0.5-1,0.4-1.9-0.4-2.8c-1.3-1.5-2.6-3.1-3.9-4.7c-2.5-3-2.6-3.3-0.4-6.6c1.4-2.2,2.9-4.4,4.5-6.6c0.6-0.8,0.5-1.3-0.3-1.9
					c-0.4-0.3-0.8-0.7-1.3-0.5c-0.7,0.2-1-0.2-1-0.8c0-1.6-1.3-2.3-2-3.5c-0.4,0.6-0.4,1-0.1,1.4c0.7,0.9,1.2,1.8-0.7,1.8
					c-0.6,0-0.5,0.6-0.7,1c-0.1,0.3,0.1,0.3,0.4,0.3c1.1-0.2,1.2,0.7,1.1,1.4c-0.1,0.8-0.7,1.2-1.6,1c-0.3,0-0.7-0.4-0.8,0.1
					c-0.2,0.8-0.8,1.6-0.5,2.5c0.1,0.3,0.2,0.7,0,0.8c-1.4,0.8-1.2,2.3-1.6,3.5c-1,2.6-0.4,4.8,1.4,6.8c2.2,2.5,3.8,5.5,5.2,8.5
					C687.6,400.1,687.8,400.6,688.2,401.2z M715.3,384.7c0,0,0,0.1-0.1,0.1c0.4,0.4,0.7,0.8,1.1,1.2c1.2,1.2,1.7,2.6,0.8,4.2
					c-0.2,0.3-0.3,0.7-0.4,1c-1.7,3.9-3.9,7.6-5.7,11.4c-1.5,3.3-1.2,3.8,2.4,4.4c2.4,0.4,2.9,0.3,2.8-2.7c0-1.4,0.1-2.8,0.5-4.1
					c1.1-3.6,2.7-7,4.6-10.3c0.5-0.9,1.1-1.8,1.4-2.8c0.1-0.3,0.4-0.9-0.5-0.5c-0.9,0.4-1.4-0.2-1.3-1.2c0-0.3,0.1-0.6-0.1-0.6
					c-1.1,0-1.9-1-3-0.6c-0.4,0.1-0.6,0.2-0.6,0.6c0.1,0.9-0.5,0.7-1,0.4C715.9,385.1,715.6,384.9,715.3,384.7z M690.6,377.8
					c-1.8,2.5-3.4,4.8-4.8,7.1c-1.3,2.1-1.3,2.1,0.3,4.1c1.6,2.1,3.6,4,5,6.2c0.4,0.6,0.9,1.2,1.4,0.8c0.4-0.3,0.3-1.2-0.2-1.7
					c-0.1-0.1-0.1-0.1-0.1-0.2c-1.2-1.5-1.5-3.3-0.9-5.1c0.2-0.6,0.4-1.3,0.3-2C691.3,384.1,691,381.1,690.6,377.8z M693.3,418
					c0.9-0.1,1.8-0.2,2.7-0.3c1-0.2,1.5-0.8,1.5-1.8c0-1.4-0.3-2.7-0.6-4c-0.1-0.4-0.3-0.6-0.8-0.5c-1.3,0.3-2.6,0.1-3.8-0.5
					c-0.4-0.2-0.6-0.1-0.8,0.2c-0.9,1.6-1.8,3.2-2.4,5c-0.3,0.9,0,1.4,1,1.5C691.2,417.7,692.2,417.9,693.3,418z M725.3,418.5
					c0.7,0,1.5-0.1,2.3-0.2c2.5-0.3,2.5-0.3,2.4-2.7c0-0.5-0.1-1-0.1-1.5c0-0.9-0.3-1.2-1.2-1.1c-1.5,0.2-3,0.1-4.2-0.8
					c-0.4-0.3-0.6-0.2-0.8,0.1c-1,1.4-2,2.8-2.8,4.4c-0.4,0.8-0.1,1.2,0.6,1.4C722.8,418.4,724,418.4,725.3,418.5z M746.6,386.2
					c1-4.4-1.5-8.9-5.1-9.4c-0.1,0.7,1,1.4,0.5,1.7c-0.7,0.5-1.1-0.7-1.8-1c-0.1,0-0.2,0-0.2,0c-1,3.5,0.6,7,4.7,8.3
					c0.1-0.4-0.4-0.7-0.1-1.2C745.4,384.9,745.9,385.7,746.6,386.2z M710.7,412.8c1.3,0,2.6-0.1,3.9-0.5c1.4-0.5,2.1-2.8,1.2-4.1
					c-0.2-0.3-0.4-0.2-0.7-0.2c-1.6,0.1-3.2-0.2-4.7-0.9c-0.4-0.2-0.6-0.1-0.8,0.2c-0.8,1.4-1.5,2.7-2.3,4.1
					c-0.4,0.6-0.1,0.9,0.5,1.1C708.7,412.8,709.7,412.8,710.7,412.8z M684.6,305.1c-1-1.1-1.1-1.1-1.6,0.1c-0.2,0.6-0.3,1.1-0.1,1.7
					c1.5,7.3,3.1,14.5,4.5,21.8c0.2,1.1,0.6,1.8,1.9,1.5c-0.1-1.1-1.3-1.3-1.7-2.2c0.4-0.5,1,0.1,1.4-0.4c-0.3-0.7-0.9-1.2-1.5-1.7
					c-0.1-0.1-0.4-0.3-0.3-0.5c0.1-0.3,0.3-0.2,0.5-0.2c0.3,0,0.6,0.3,0.8-0.1c0.1-0.4-0.3-0.6-0.5-0.8c-0.3-0.2-0.6-0.3-0.9-0.5
					c-0.3-0.2-0.4-0.6,0.1-0.6c1.5-0.1,0.6-0.6,0.2-1.1c-0.2-0.2-0.5-0.4-0.8-0.6c-0.2-0.1-0.4-0.2-0.3-0.5c0.1-0.3,0.3-0.2,0.5-0.2
					c0.3,0,0.6,0.2,0.8-0.1c0.1-0.3-0.2-0.5-0.4-0.8c-0.2-0.2-0.4-0.4-0.6-0.6c-0.3-0.3-1-0.4-0.8-1c0.2-0.6,0.8,0,1.2-0.2
					c0.1,0,0.1-0.1,0.1-0.2c-0.1-0.4-0.4-0.5-0.6-0.7c-0.4-0.4-1.4-0.5-1.2-1.1c0.2-0.6,0.9,0.4,1.5-0.2c-0.2-0.6-0.8-0.9-1.3-1.3
					c-0.3-0.2-0.9-0.3-0.7-0.8c0.2-0.5,0.6,0,1,0.1c0.2,0,0.5,0.3,0.7,0c0.1-0.3-0.1-0.5-0.3-0.6c-0.5-0.4-1-0.9-1.6-1.3
					c-0.2-0.1-0.4-0.3-0.3-0.5c0.1-0.2,0.3-0.2,0.6-0.1c0.5,0.1,0.9,0.4,1.5,0.1c-0.6-0.9-1.4-1.2-2.1-1.6c-0.2-0.1-0.4-0.2-0.3-0.5
					c0.1-0.2,0.3-0.2,0.5-0.1c0.4,0.1,0.9,0.5,1.4,0.2c-0.6-1-1.8-1-2.3-1.9c0.4-0.5,1,0.2,1.4-0.3c-0.1-0.4-0.5-0.5-0.8-0.8
					c-0.3-0.3-0.9-0.3-0.8-0.8C683.6,305.1,684.3,305.5,684.6,305.1z M668,295.3c-0.1-1.4-1-2.4-2.6-2.8c-2-0.5-4.1-0.6-6.2-0.2
					c-0.7,0.1-0.9,0.4-0.4,0.9c0.7,0.8,1.5,1.6,2.4,2.2c1.3,0.9,2.7,1.6,4.2,1.9c1,0.2,1.3-0.6,1.7-1.2c0.4-0.6-0.3-0.9-0.6-1.2
					c-0.7-0.7-1.5-1.1-2.4-1.5C665.7,293.5,666.7,294.6,668,295.3z M688.3,297.1c-1.2,0.1-2.3,0-3.4,0.5c-0.7,0.3-1.3,0.5-1.1,1.5
					c0.2,1,0.9,1,1.6,1.1c2.4,0.2,4.5-0.8,6.6-2c0.9-0.5,0.3-0.8-0.2-1c-1.8-0.8-3.7-1.3-5.6-1.3c-0.8,0-1.5,0.2-2.1,0.7
					c-0.3,0.2-0.6,0.4-0.4,0.8c0.2,0.3,0.5,0,0.8,0C685.7,296.8,687,296.8,688.3,297.1z M692.7,399.8c0-0.7,0-1.3,0-1.8
					c0-0.6-0.4-0.7-0.9-0.9c-0.6-0.2-0.7,0.2-0.9,0.6c-0.3,0.7-0.6,1.3-0.9,2c-0.3,0.8-1.6,1.5-1,2.3c0.4,0.7,1.6,0.9,2.4,1.4
					c0.7,0.4,0.9,0.1,0.9-0.6C692.5,401.7,692.6,400.6,692.7,399.8z M739,374.5c-1.9-4.4-4-8.6-8.1-11.4
					C734,366.6,736.8,370.4,739,374.5z M671.7,288.3c0.4,0.1,1,0.6,1-0.3c0-0.5-0.4-0.8-1-0.7c-0.6,0-1.4,0.2-1.2,0.9
					C670.8,289.1,671.4,288.1,671.7,288.3z M683,288.6c-0.3-0.1-0.9,0-0.9,0.4c0,1,1.3,0.1,1.5,1c0,0.2,0.4,0.1,0.5-0.1
					c0.1-0.2,0-0.5-0.1-0.7C683.8,288.8,683.4,288.6,683,288.6z"/>
			</g>
		</g>
		<g>
			<g>
				<path class="st1" d="M704.9,358c1,0.2,1.8,0.7,2.4,1.5c0.3,0.5,0.3,1-0.1,1.5c-0.1,0.1-0.2,0.2-0.3,0.3
					c-2.7,2.6-4.7,2.2-6.1-1.3c-0.1-0.3-0.4-0.7,0.1-0.9C702.2,358.6,703.5,358.1,704.9,358z"/>
			</g>
		</g>
		<g>
			<g>
				<path class="st1" d="M692,358.2c-1.5-0.1-3.1-1.9-2.8-3.4c0.2-1.2,1.1-1.8,2.3-1.6c0.5,0.1,1.1,0.2,1.6,0.4
					c1.6,0.5,2.1,1.1,2.1,2.8c0,0.8-0.2,1.3-1.1,1.4C693.4,358,692.7,358.1,692,358.2z"/>
			</g>
		</g>
		<g>
			<g>
				<path class="st1" d="M723.1,369.2c0.1,1.2-2.5,2.8-3.5,2.2c-0.7-0.4-1.3-0.8-1.6-1.5c-0.4-0.7-0.8-1.5,0-2.2
					c0.7-0.6,1.6-1,2.6-0.5c0.7,0.4,1.3,0.8,2,1.2C722.8,368.7,723.1,369,723.1,369.2z"/>
			</g>
		</g>
		<g>
			<g>
				<path class="st1" d="M685.2,347.7c1.9,0,2.3,0.4,2.3,2.1c0,1.5-0.4,1.8-2.3,1.8c-1.2,0-1.5-0.6-1.6-2.6
					C683.7,347.8,684.5,347.7,685.2,347.7z"/>
			</g>
		</g>
		<g>
			<g>
				<path class="st1" d="M689.6,344.7c0,0.7-0.3,1.4-1,1.7c-0.8,0.4-1.3-0.3-1.9-0.7c-0.7-0.5-0.5-1.1-0.3-1.7
					c0.1-0.4,0.3-0.7,0.4-1.1c0.1-0.7,0.5-1.2,1.3-1c0.7,0.1,1.4,0.3,1.4,1.3C689.5,343.6,689.6,344.1,689.6,344.7z"/>
			</g>
		</g>
		<g>
			<g>
				<path class="st1" d="M694.5,360.4c0.8,0,1.9,1.3,2,2.3c0,0.7-1.4,1.7-2.4,1.7c-0.6,0-1.8-1.7-1.6-2.7
					C692.7,360.4,693.9,360.8,694.5,360.4z"/>
			</g>
		</g>
		<g>
			<g>
				<path class="st1" d="M718.2,360.7c0.8,0,2,1.1,2,1.8c0,0.7-1.3,1.8-2.1,1.7c-0.8,0-2.8-1.5-2.8-2
					C715.5,361.8,717.6,360.7,718.2,360.7z"/>
			</g>
		</g>
		<g>
			<g>
				<path class="st1" d="M683.9,338.5c1.1,0,2.4,1,2.5,1.8c0,0.8-1.1,2.1-1.8,2.2c-0.7,0-2.2-1.6-2.2-2.5
					C682.4,339,683.2,338.7,683.9,338.5z"/>
			</g>
		</g>
		<g>
			<g>
				<path class="st1" d="M723.5,363.8c1.2,0,2.3,1,2.3,2.1c0,0.7-1,1.4-2.1,1.4c-0.9,0-2-1.3-1.9-2.4
					C721.9,363.7,722.9,364.1,723.5,363.8z"/>
			</g>
		</g>
		<g>
			<g>
				<path class="st1" d="M698.8,365.7c0-0.9,1-2.4,1.5-2.4c0.7,0,2.3,1.8,2.2,2.5c-0.1,0.9-0.7,1.4-1.6,1.5
					C700,367.4,698.8,366.4,698.8,365.7z"/>
			</g>
		</g>
		<g>
			<g>
				<path class="st1" d="M694.4,368.3c0-1.1,0.9-2.2,1.7-2.2c0.6,0,1.9,1.6,1.9,2.5c0,0.6-1.5,1.5-2.4,1.4
					C694.6,369.9,694.5,369,694.4,368.3z"/>
			</g>
		</g>
		<g>
			<g>
				<path class="st1" d="M722.9,377.5c-0.7,0-2.5-1.8-2.3-2.4c0.2-0.8,0.9-1.3,1.8-1.4c0.9-0.1,2.1,1,2.1,1.7
					C724.5,376.1,723.5,377.5,722.9,377.5z"/>
			</g>
		</g>
		<g>
			<g>
				<path class="st1" d="M729.1,372.6c-0.2,0.7-0.3,1.7-1.4,1.8c-0.8,0.1-2.2-1.3-2.2-2c0.1-0.7,1.2-2,1.8-2
					C728.1,370.5,729.1,371.8,729.1,372.6z"/>
			</g>
		</g>
		<g>
			<g>
				<path class="st1" d="M710.9,365.7c-1-0.3-1.6-1-2.1-1.8c-0.4-0.5,0-0.8,0.4-1.2c0.7-0.7,1.5-0.6,2.3-0.1
					c0.6,0.4,1.5,0.7,1.3,1.7C712.6,365.1,711.7,365.3,710.9,365.7z"/>
			</g>
		</g>
		<g>
			<g>
				<path class="st1" d="M691.4,372.3c-0.1-0.7,0.4-1.1,0.9-1.4c0.6-0.3,1,0.2,1.2,0.6c0.4,0.6,1.2,1.2,0.7,2.1
					c-0.3,0.5-0.5,1.2-1.2,1.1c-0.7-0.1-1.3-0.5-1.4-1.3C691.6,373.1,691.5,372.7,691.4,372.3z"/>
			</g>
		</g>
		<g>
			<g>
				<path class="st1" d="M682.9,323.5c-0.2,0.6-0.1,1.5-1,1.8c-0.7,0.2-2.1-1.3-2-1.9c0.1-0.8,0.1-1.8,1.2-1.9
					C681.8,321.3,682.9,322.7,682.9,323.5z"/>
			</g>
		</g>
		<g>
			<g>
				<path class="st1" d="M680.5,332c0.2-0.6,0.1-1.5,1-1.8c0.4-0.1,2.1,1.8,2.1,2.2c0,0.4-1.2,1.7-1.6,1.7
					C681.6,334,680.5,332.7,680.5,332z"/>
			</g>
		</g>
		<g>
			<g>
				<path class="st1" d="M699.1,373.3c0,0.9-1,2.2-1.5,2c-0.8-0.4-1.2-1.2-1.2-2c0-0.9,0.7-1.6,1.5-1.6
					C698.9,371.7,698.9,372.8,699.1,373.3z"/>
			</g>
		</g>
		<g>
			<g>
				<path class="st1" d="M679.2,316.5c0.1-0.6,0.3-1.4,1-1.9c0.5-0.3,0.9,0.1,1.2,0.4c0.9,0.8,0.2,1.6-0.1,2.4
					c-0.2,0.5-0.6,0.9-1.2,0.6C679.5,317.7,679.1,317.3,679.2,316.5z"/>
			</g>
		</g>
		<g>
			<g>
				<path class="st1" d="M729.3,378.9c0,0.6-0.2,1.1-1,1c-0.8-0.2-1.8,0-2.3-0.9c-0.1-0.3,1.4-2,1.8-2
					C728.4,376.9,729.3,378.1,729.3,378.9z"/>
			</g>
		</g>
		<g>
			<g>
				<path class="st1" d="M719.3,377.8c1.3,0,2.3,1.4,2,2.6c-0.2,0.6-0.5,0.6-0.9,0.3c-0.6-0.5-1.2-1-1.7-1.5c-0.2-0.2-0.6-0.5-0.4-1
					C718.4,377.9,718.9,377.9,719.3,377.8z"/>
			</g>
		</g>
		<g>
			<g>
				<path class="st1" d="M718.3,373.2c-0.2,0.6-0.2,1.4-1,1.6c-0.5,0.1-1.7-1-1.6-1.6c0.1-0.6,0.2-1.5,1.1-1.5
					C717.4,371.8,718.1,372.3,718.3,373.2z"/>
			</g>
		</g>
		<g>
			<g>
				<path class="st1" d="M694,382.7c0.2-0.5,0.1-1.5,1.1-1.5c0.7,0,1.3,0.6,1.5,1.3c0.1,0.5-1.1,1.6-1.6,1.6
					C694.4,384.1,693.9,383.5,694,382.7z"/>
			</g>
		</g>
		<g>
			<g>
				<path class="st1" d="M726.5,382.3c-0.2,0.4,0,1.1-0.7,1.2c-0.5,0.1-1.9-1.3-1.8-1.7c0.1-0.5,0.4-1,1.1-1
					C725.8,380.8,726.5,381.6,726.5,382.3z"/>
			</g>
		</g>
		<g>
			<g>
				<path class="st1" d="M687.8,360.5c0.1-0.6-0.1-1.2,0.7-1.1c0.7,0.1,1.6,0.1,1.6,1.2c0,1-0.7,1.2-1.4,1.2
					C687.6,362,688,361,687.8,360.5z"/>
			</g>
		</g>
		<g>
			<g>
				<path class="st1" d="M687,355.2c-0.2,0.5-0.1,1.8-0.6,1.7c-1-0.2-1-1.5-1.2-2.4c-0.1-0.4,0.1-0.7,0.5-0.7
					C686.3,354,687,354.2,687,355.2z"/>
			</g>
		</g>
		<g>
			<g>
				<path class="st1" d="M696.6,377.9c-0.1,0.6-0.1,1.4-0.9,1.3c-0.8-0.1-1.1-1-1.2-1.7c0-0.5,0.3-1.1,0.9-1
					C696.1,376.6,696.5,377.1,696.6,377.9z"/>
			</g>
		</g>
		<g>
			<g>
				<path class="st1" d="M729.4,386.4c0,0.3,0,0.6-0.5,0.5c-0.9-0.2-1.5-0.6-1.5-1.6c0-0.5,0.1-0.7,0.6-0.7
					C728.9,384.7,729.4,385.3,729.4,386.4z"/>
			</g>
		</g>
		<g>
			<g>
				<path class="st1" d="M681.2,301.7c0,0.9-0.9,1.8-1.8,1.8c-0.9,0-1.7-0.8-1.7-1.9c0-1.1,1-2.1,2-2.1
					C680.6,299.6,681.2,300.4,681.2,301.7z"/>
			</g>
		</g>
		<g>
			<g>
				<path class="st1" d="M669.5,302c-0.9,0-1.6-0.7-1.6-1.7c0-0.9,0.8-1.9,1.5-1.9c0.6,0,1.6,1.2,1.6,1.9
					C671,301.2,670.3,302,669.5,302z"/>
			</g>
		</g>
		<g>
			<g>
				<path class="st1" d="M670.2,315.5c-0.7-0.3-1.2-0.8-1.3-1.5c-0.1-0.4,0.1-0.9,0.5-1c0.4-0.1,0.6,0.3,0.6,0.6
					C670.2,314.2,670.4,314.8,670.2,315.5z"/>
			</g>
		</g>
		<g>
			<g>
				<path class="st1" d="M672.1,315.8c0-0.8,0.4-1.2,0.7-1.7c0.2-0.3,0.5-0.7,0.9-0.4c0.4,0.3,0.3,0.8,0.1,1.1
					C673.4,315.5,672.9,315.7,672.1,315.8z"/>
			</g>
		</g>
		<g>
			<g>
				<path class="st1" d="M669.1,306.8c-0.1,0.4-0.3,0.7-0.7,0.8c-0.3,0-0.6-0.2-0.6-0.5c0-0.4,0.3-0.7,0.7-0.7
					C668.9,306.3,669.1,306.5,669.1,306.8z"/>
			</g>
		</g>
		<g>
			<g>
				<path class="st1" d="M678.8,307.4c0.4,0.2,0.7,0.3,0.7,0.8c0,0.4-0.4,0.5-0.6,0.5c-0.5,0-0.7-0.3-0.6-0.7
					C678.3,307.6,678.5,307.4,678.8,307.4z"/>
			</g>
		</g>
		<g>
			<g>
				<path class="st1" d="M673.4,312.4c0.6-0.4,1.1-0.2,1.5,0.2c0.4,0.4,0.5,0.9,0.1,1.6c0-1.2-0.6-1.7-1.6-1.7
					C673.4,312.5,673.4,312.5,673.4,312.4z"/>
			</g>
		</g>
		<g>
			<g>
				<path class="st1" d="M688.2,377.3c0.1,0.5-0.1,0.7-0.6,0.7c-0.5,0-1-0.1-0.9-0.7c0-0.5,0.3-0.9,0.8-0.9
					C688.1,376.4,688.1,376.9,688.2,377.3z"/>
			</g>
		</g>
		<g>
			<g>
				<path class="st1" d="M684.9,380.1c-0.6,0.2-0.7-0.2-0.8-0.6c-0.1-0.5,0.3-0.8,0.7-0.8c0.6,0,0.8,0.5,0.8,0.9
					C685.7,380.2,685.1,380,684.9,380.1z"/>
			</g>
		</g>
		<g>
			<g>
				<path class="st1" d="M684.4,381.5c0.6-0.4,1.1-0.7,1.6-0.2c0.2,0.2,0,0.5-0.2,0.7C685.2,382.4,685,381.6,684.4,381.5z"/>
			</g>
		</g>
		<g>
			<g>
				<path class="st1" d="M718.6,385.9c0.6,0,0.8,0.4,0.9,0.9c0.1,0.5-0.2,0.5-0.6,0.6c-0.5,0-0.9-0.2-0.9-0.7
					C717.9,386.1,718.3,386,718.6,385.9z"/>
			</g>
		</g>
	</g>
	<g>
		<g>
			<g>
				<g>
					<g>
						<path class="st1" d="M775.7,478.1H629.3c-8.1,0-14.8-6.6-14.8-14.8v-30.5c0-8.1,6.6-14.8,14.8-14.8h146.3
							c8.1,0,14.8,6.6,14.8,14.8v30.5C790.4,471.4,783.8,478.1,775.7,478.1z M629.3,420.2c-6.9,0-12.6,5.6-12.6,12.6v30.5
							c0,6.9,5.6,12.6,12.6,12.6h146.3c6.9,0,12.6-5.6,12.6-12.6v-30.5c0-6.9-5.6-12.6-12.6-12.6H629.3z"/>
					</g>
				</g>
			</g>
		</g>
	</g>
</g>
<g>
	<path d="M635.3,466.8h-4.7c-0.5,0-0.8-0.2-1.1-0.5c-0.3-0.3-0.5-0.7-0.5-1.2v-0.4c0.1-12.9,0.2-24.1,0.4-33.7v-0.4
		c0-0.5,0.2-0.8,0.5-1.1c0.3-0.3,0.7-0.5,1.1-0.5l3.3-0.1l0.4,0c2.7,0,5.3,0.4,7.9,1.1c1.8,0.5,3.3,1.4,4.6,2.5
		c1.4,1.5,2.4,3,2.9,4.5c0.6,2,0.9,4.1,0.9,6.5c0,4.7-1.4,8.4-4.3,11.3c-2.1,2-5.3,3.1-9.5,3.2c-0.1,3.9-0.2,6.3-0.2,7.1
		c0,0.4-0.2,0.8-0.5,1.1C636.1,466.6,635.8,466.8,635.3,466.8z M637.3,451.4c0.5-0.1,1.2-0.3,2.1-0.5c1.1-0.4,2-1.2,2.7-2.3
		c0.9-1.6,1.4-3.5,1.4-5.6c0-1.8-0.4-3.4-1.1-4.9c-0.4-0.8-1-1.4-1.8-1.9c-0.7-0.5-1.6-0.7-2.6-0.7h-0.4
		C637.4,440.2,637.4,445.6,637.3,451.4z"/>
	<path d="M671.3,466.5c-0.7,0-1.3-0.2-1.8-0.7c-0.3-0.2-0.5-0.6-0.6-1.1c-1.8,1.2-3.8,1.8-6.1,1.8c-0.3,0-0.6,0-1-0.1
		c-3.1-0.3-5.4-1.7-6.7-4.1c-0.6-1.2-0.9-2.4-0.9-3.7c0-1.7,0.5-3.4,1.5-5.2c1.9-3,5.1-4.6,9.5-4.8h0.3c1.3,0,2.5,0.2,3.8,0.6
		c-0.1-1.8-0.4-3.1-0.7-3.8c-0.6-1.1-1.7-1.7-3.2-1.7c-0.1,0-0.3,0-0.7,0c-0.4,0-0.8,0.2-1.3,0.5c-0.5,0.3-0.8,0.7-0.8,1.1
		c-0.1,0.5-0.3,1-0.6,1.3c-0.4,0.3-0.8,0.5-1.3,0.5l-3,0c-0.6,0-1.1-0.2-1.5-0.6c-0.4-0.4-0.6-0.9-0.6-1.5c0.1-3.5,2-5.8,5.7-7.1
		c1.5-0.5,3.1-0.7,4.8-0.7c1.1,0,2.5,0.2,4.5,0.5c1.9,0.3,3.5,1.2,4.7,2.7c1,1.4,1.7,3.2,2.1,5.4c0.3,1.8,0.4,3.8,0.4,5.9
		c0,2.6-0.2,5.6-0.5,9.1c-0.1,1-0.1,1.7-0.2,2.3c-0.1,0.8-0.4,1.4-1,2c-0.6,0.6-1.3,0.9-2.1,1l-2.5,0L671.3,466.5z M664.1,461.4
		c1.8,0,3.1-0.6,3.9-1.6c0.6-0.8,1-1.8,1.2-3l0.1-1.9c-0.7-0.7-1.9-1-3.5-1c-1.7,0.1-2.9,0.6-3.7,1.6c-0.7,0.9-1,1.8-1,2.7
		c0,1.1,0.4,2,1.2,2.6C662.7,461.2,663.3,461.4,664.1,461.4L664.1,461.4z"/>
	<path d="M687.3,466.6h-3.7c-0.6,0-1-0.2-1.4-0.6c-0.4-0.4-0.6-0.9-0.6-1.5c0.1-10.2,0.2-18.1,0.4-23.7c0-0.6,0.2-1,0.6-1.4
		c0.4-0.4,0.9-0.6,1.4-0.6l4.6,0c0.7,0,1.2,0.4,1.3,1.1c1.1-0.7,2.5-1.1,4.1-1.1c2.2,0,4,0.7,5.4,2c2.3,2.2,3.5,5.8,3.5,10.9v0.3
		c0,0.6-0.2,1.1-0.6,1.4c-0.4,0.4-0.9,0.6-1.5,0.6l-3.4-0.1c-0.6,0-1-0.2-1.4-0.6c-0.4-0.4-0.6-0.8-0.6-1.4
		c-0.1-2.2-0.3-3.8-0.6-4.7c-0.3-0.9-0.8-1.4-1.5-1.4h-0.2c-0.6,0-1.1,0.2-1.4,0.5c-1,0.8-1.7,3.2-2.2,6.9
		c-0.1,4.7-0.2,8.4-0.3,11.3c0,0.6-0.2,1-0.6,1.4C688.3,466.4,687.8,466.6,687.3,466.6z"/>
	<path d="M723.7,466.6c-0.5,0-1-0.2-1.3-0.5c-3.6-3.2-6.3-6.1-8-8.7c-0.1,2.9-0.1,5.3-0.2,7.2c0,0.6-0.2,1-0.6,1.4
		c-0.4,0.4-0.9,0.6-1.4,0.6h-3.9c-0.6,0-1-0.2-1.4-0.6s-0.6-0.9-0.6-1.5c0.1-12.7,0.2-23.7,0.4-33.1c0-0.6,0.2-1,0.6-1.4
		s0.9-0.6,1.4-0.6h4.1c0.6,0,1,0.2,1.4,0.6c0.4,0.4,0.6,0.9,0.6,1.5c0,0.6,0,1.2,0,1.9c0,3.4,0,7.7-0.1,12.9c2-1.8,4.1-4,6.1-6.7
		c0.4-0.5,1-0.8,1.6-0.8c0.4,0,0.8,0.1,1.1,0.3l2.6,1.7c0.6,0.4,0.9,1,0.9,1.7c0,0.4-0.1,0.9-0.4,1.2c-2.6,3.3-5.2,6-7.6,8
		c2.2,2.8,5,5.9,8.5,9.1c0.4,0.4,0.7,0.9,0.7,1.5s-0.2,1.1-0.7,1.5l-2.3,2.1C724.6,466.5,724.2,466.6,723.7,466.6z"/>
	<path d="M744.6,466.3c-2.3,0-4.6-0.6-7.1-1.7c-1.9-1-3.4-2.5-4.4-4.4c-1.2-2.3-1.8-4.9-1.8-7.8c0-1.8,0.3-3.6,0.8-5.3
		c1-3.3,2.7-5.7,5.1-7.3c1.9-1.3,4.1-1.9,6.6-1.9c0.6,0,1.2,0,1.8,0.1c2.2,0.3,4,1,5.2,2.1c1.2,1.1,2.1,2.3,2.5,3.6
		c0.4,1.1,0.6,2.2,0.6,3.1v0.3l0.1,1.5c0.1,1,0.1,1.6,0.1,1.9c0,0.4-0.1,0.8-0.3,1.2c-0.2,0.4-0.4,0.7-0.7,1c-0.7,0.6-1.4,0.9-2.3,1
		l-1.8,0.2c-5.1,0.6-8.4,1-9.9,1.1c0.2,0.9,0.4,1.7,0.8,2.5c0.8,1.8,2,2.8,3.6,2.9l0.6,0c1.9,0,3-0.6,3.4-1.9
		c0.1-0.5,0.4-0.8,0.8-1.1c0.4-0.3,0.8-0.4,1.2-0.4l2.4,0.1c0.6,0.1,1.1,0.3,1.4,0.7c0.3,0.4,0.5,0.8,0.5,1.3v0.2
		c-0.3,2.5-1.7,4.5-4.1,5.8C748.3,465.9,746.5,466.3,744.6,466.3z M739.6,448.4l8.1-0.9c0-0.1,0-0.2,0-0.4c0-0.1-0.1-0.4-0.2-0.9
		s-0.4-0.9-0.8-1.4c-0.4-0.5-1-0.8-1.7-0.9c-0.2,0-0.5-0.1-0.7-0.1c-1.3,0-2.4,0.6-3.3,1.8C740.4,446.4,740,447.4,739.6,448.4z"/>
	<path d="M763.2,466.6h-3.7c-0.6,0-1-0.2-1.4-0.6c-0.4-0.4-0.6-0.9-0.6-1.5c0.1-10.2,0.2-18.1,0.4-23.7c0-0.6,0.2-1,0.6-1.4
		s0.9-0.6,1.4-0.6l4.6,0c0.7,0,1.2,0.4,1.3,1.1c1.1-0.7,2.5-1.1,4.1-1.1c2.2,0,4,0.7,5.4,2c2.3,2.2,3.5,5.8,3.5,10.9v0.3
		c0,0.6-0.2,1.1-0.6,1.4c-0.4,0.4-0.9,0.6-1.5,0.6l-3.4-0.1c-0.6,0-1-0.2-1.4-0.6s-0.6-0.8-0.6-1.4c-0.1-2.2-0.3-3.8-0.6-4.7
		c-0.3-0.9-0.8-1.4-1.5-1.4h-0.2c-0.6,0-1.1,0.2-1.4,0.5c-1,0.8-1.7,3.2-2.2,6.9c-0.1,4.7-0.2,8.4-0.3,11.3c0,0.6-0.2,1-0.6,1.4
		S763.8,466.6,763.2,466.6z"/>
</g>
</svg>
