<svg xmlns="http://www.w3.org/2000/svg" width="12.88in" height="9.01in" viewBox="0 0 927.5 649">
  <defs>
    <style>
      .cls-1 {
        fill: #231f20;
      }

      .cls-2 {
        fill: none;
        stroke: #231f20;
        stroke-miterlimit: 10;
      }
    </style>
  </defs>
  <g id="Guts">
    <path class="cls-1" d="M94.24,294.2l.37-.12h1.67c.5,0,1.22-.58,2.17-1.73a28.89,28.89,0,0,1,3.3-1.18l.25-.25c.58-.49,1-.82,1.24-1h1.19a4.38,4.38,0,0,0,1-.58,13.65,13.65,0,0,1,3.69-1.33,18.37,18.37,0,0,0,3.68-1.24,22.51,22.51,0,0,1,2.73-.37l1.73-.31,1.36.12c2.19,0,3.75,1.45,4.7,4.33a1.9,1.9,0,0,0,.31.78,1.74,1.74,0,0,1,.31.77,8.38,8.38,0,0,1-2.53,5.44l-.87,2.29a3.61,3.61,0,0,1-.65.93,9.14,9.14,0,0,0-1.15,1.89,13.87,13.87,0,0,1-2.66,3.25c-.24.49-.59,1.26-1,2.32a7.92,7.92,0,0,1-1.14,2.07,36,36,0,0,0-2.42,3.71,15.22,15.22,0,0,0-1.94,3.78,3.58,3.58,0,0,0-1.27,2.28,8.9,8.9,0,0,1-1.27,3l-.12.43c1.31-.45,2-1.18,2-2.17,0-.12.35-.43,1-.92l.5-.87a2.71,2.71,0,0,1,1.3-1c.08-.33.51-.81,1.29-1.45s1.31-1.09,1.58-1.33a4.88,4.88,0,0,1,1.33-.78q.93-.4,2.1-3.06c.08-.33.4-.6,1-.8a3.14,3.14,0,0,0,1.39-1,4.64,4.64,0,0,1,.92-.95l.5-.75a5.23,5.23,0,0,1,.93-.74l3-3.71c1.61-1,2.5-1.84,2.66-2.41l.5-.13h.37c.66-.53,1.09-.91,1.3-1.11a2.38,2.38,0,0,1,1.39-2.45,4.66,4.66,0,0,0,2-1.42,1.72,1.72,0,0,1,1.36-.83,1.51,1.51,0,0,1,.68.37h.13c.12,0,.24-.21.37-.62v-.62a2.43,2.43,0,0,1,.62-1.73,2.9,2.9,0,0,1,1.67-.9,3.55,3.55,0,0,0,2-1.58,3,3,0,0,1,2.26-1.42,1.79,1.79,0,0,0,1.7-1,5.59,5.59,0,0,1,2.66-2,15.76,15.76,0,0,1,2.78-1.18,3.15,3.15,0,0,0,1-.34,2.07,2.07,0,0,1,1-.24,6.4,6.4,0,0,1,1.79.37l1.11.24a6.83,6.83,0,0,1,2.66,2.29l.62.62v.25l.13,1.05v.5c.53.24.8.49.8.74l-.43.8a2,2,0,0,0-.25,1,11.51,11.51,0,0,1-.06,1.18c0,.39-.1.76-.16,1.11a6,6,0,0,1-.25,1,6.85,6.85,0,0,1-.34.87,4.86,4.86,0,0,1-.43.77l-.49,2a8.71,8.71,0,0,1-1.33,2.82,9.88,9.88,0,0,0-1.27,2.29,7.93,7.93,0,0,1-.87,1.76l.13.37v.87c1.28-.17,1.92-.66,1.92-1.49a2.07,2.07,0,0,1,1.56-1.92l1.36-1.11a7.76,7.76,0,0,1,4-3.71,2.87,2.87,0,0,1,1.18-2l2.36-2.23,1.67-.93a5.06,5.06,0,0,1,2.55-2.78l1.37-.87c.82-.41,1.29-.81,1.39-1.21a2.48,2.48,0,0,1,1-1.2c.54-.41,1.32-1.09,2.36-2l.49-.25.62-.62a7.59,7.59,0,0,1,1.55-.62l.49-.25a9.83,9.83,0,0,1,2.79-1.57,14.59,14.59,0,0,0,2.78-1.33l2.17-.31a3.77,3.77,0,0,1,1-.25q5.87,0,5.87,6.62l-.12,1,.12,3.59a29.13,29.13,0,0,0-1.54,2.66l.12,1.11a5.12,5.12,0,0,1-.8,1.46c-.54.8-.86,1.29-1,1.45a14.75,14.75,0,0,1-1.15,1.3l-.62,1.86a3.32,3.32,0,0,1-1.05,1.17v.74c0,.62-.8,1.55-2.41,2.79a4.59,4.59,0,0,1-1.08,2.38,5.93,5.93,0,0,0-1.18,1.61,5.05,5.05,0,0,1-1.27,1.58,7,7,0,0,1-1.05,2.72,10.43,10.43,0,0,1-1.64,2.44,5.86,5.86,0,0,0-1.2,1.83l-.56.24q-.37,2.35-.87,2.67l-1-.13v.25a.89.89,0,0,0,.25.43,1.12,1.12,0,0,1,.25.68.94.94,0,0,1-.37.74,1.18,1.18,0,0,0-.44.62,1.5,1.5,0,0,1-.28.62,2.68,2.68,0,0,0-.28,1.21,6.35,6.35,0,0,1-.93,2.44,7.16,7.16,0,0,0-.93,2.11,3.89,3.89,0,0,1-.19.92,2.45,2.45,0,0,0-.12.75,13.94,13.94,0,0,1-.31,1.91q1.17,2.79,1.68,3.78a4,4,0,0,1,.49,1.3,6.08,6.08,0,0,1-.62,3.31c-.41.56-1.43.83-3,.83a3.79,3.79,0,0,1-2.7-1.08,3.23,3.23,0,0,0-2-1.08v-1.12l-.12-.12h-1a5.51,5.51,0,0,0-.53-.43,3.72,3.72,0,0,1-.77-.87l-.37-.37a5.66,5.66,0,0,1-.87-2l-.37-1.24.12-1-.12-1.55a3.34,3.34,0,0,1,.12-1l.13-1.67a5,5,0,0,1,.25-1.08,9.46,9.46,0,0,0,.31-2,3,3,0,0,1,.55-1.76,2.35,2.35,0,0,0,.56-1.05,1.22,1.22,0,0,1,.34-.72,2.86,2.86,0,0,0,.46-1.39,2.58,2.58,0,0,1,1.3-1.79,21.72,21.72,0,0,0,1.05-2.11,18.1,18.1,0,0,1,1.37-1.79h.86a3.18,3.18,0,0,1-.62-.87c0-1.11.44-1.67,1.3-1.67a2.15,2.15,0,0,1,.62.13l.25-.5-.25-1.05c0-.7.54-1.4,1.61-2.1A4.18,4.18,0,0,1,174,307l-.12-1a8.64,8.64,0,0,0,1-1.64,16.79,16.79,0,0,1,1.73-2.57l1.92-2.91.86-1s0,.05,0,0a1.43,1.43,0,0,0,.12-.25c.06-.15.13-.36.22-.65l.37-.93.43-.49c1.07-.29,1.61-.66,1.61-1.12a3,3,0,0,0-.5-.8v-.25a2,2,0,0,1,.75-1.24,7.59,7.59,0,0,0,1.39-2.07,6.2,6.2,0,0,0,.65-1.64.23.23,0,0,0-.25-.25,2.66,2.66,0,0,0-2.66,1.43c0,.24-.8.74-2.41,1.48l-.62.93a2.13,2.13,0,0,1-1.3.68,2.64,2.64,0,0,0-1.45.71q-.9.72-3.93,3.22a42.31,42.31,0,0,0-4.46,4.11l-1.42,1c-.58.29-.87.52-.87.68,0,.42-.35.95-1.06,1.61l-.74.93a6,6,0,0,0-1-.31,1.44,1.44,0,0,0-1.18.68c.33.33.49.54.49.62q0,1-1.86,2l-2.67,2.79a10.36,10.36,0,0,1-.93.68,3.51,3.51,0,0,0-1.21,1.39,17.27,17.27,0,0,1-2.2,2.91,17.62,17.62,0,0,1-2.11,2.22,2.46,2.46,0,0,0-.75.84,11.56,11.56,0,0,1-1.8,1.92,4.37,4.37,0,0,0-1.55,2.72c-.79.29-1.18.54-1.18.74l-.37.62-.5.25a2.6,2.6,0,0,0-.19.83c0,.4-.86,1.1-2.47,2.11a9.27,9.27,0,0,1-3,1.51,1.25,1.25,0,0,0-.56.25,1.24,1.24,0,0,1-.49.25,8.64,8.64,0,0,1-1.64-.74c-1-.5-1.69-1.65-2.14-3.47l.5-1.61-.25-1.3a1.72,1.72,0,0,1,.59-1,2.15,2.15,0,0,0,.58-1.54c.66-1.49,1.16-2.54,1.49-3.16l.12-1a6.41,6.41,0,0,1,.84-1.39,3.57,3.57,0,0,0,.71-1.73,1.32,1.32,0,0,1,.8-1.21q.69-.24,5-7.49v-.86l1.79-3.1c.53-.9,1.2-1.93,2-3.09l.56-1.42a21,21,0,0,0-2.05-.75,1.59,1.59,0,0,0-.92.5c0,.7-1.22,1.42-3.65,2.17a6.79,6.79,0,0,0-1.92,1.79l-1.73,1a10.2,10.2,0,0,0-1.18,1l-.86.8a4.87,4.87,0,0,0-2.66,1.74l-1.67,1.17a7.35,7.35,0,0,0-1,.93,10.79,10.79,0,0,1-2.29,1.36l-1,1-.92.5a14.21,14.21,0,0,0-1.49,1.79,1.9,1.9,0,0,1-1.3.87l-1.36.49a5.71,5.71,0,0,1-2.28,3.09l-1.8,2.23a8.6,8.6,0,0,1-.86.68,1.52,1.52,0,0,1-.87.87c-.54.66-.89,1.11-1,1.36l-.74.56c-1.12.41-1.67.74-1.67,1l.12,1.11c0,.45-.49.89-1.48,1.3a1.25,1.25,0,0,0-.71,1,4.73,4.73,0,0,1-.47,1.42h-1.11a4.43,4.43,0,0,0-1.17.62.35.35,0,0,0-.25.12l.25,1.43a2.67,2.67,0,0,1-1,1.7,13.1,13.1,0,0,0-1.52,1.7c-.35.5-.61.74-.77.74H105l-.37.25A3.43,3.43,0,0,1,103.1,336l-.74.93a21.72,21.72,0,0,0-2.11,3.09A33.53,33.53,0,0,1,97,344.57a9.42,9.42,0,0,1-2.84,2.32q-1.31.58-2.79,1.2l-2.53-.49a2.93,2.93,0,0,0-1.09-1.12c-.47-.28-.71-.59-.71-.92l-.74-2.17a4.75,4.75,0,0,1,.68-2.13,9.14,9.14,0,0,0,.84-2,9.64,9.64,0,0,1,.71-1.92A9,9,0,0,0,89,336c0-1.12.18-1.81.53-2.08L92,332.13c.08,0,.13-.08.13-.25v-.12L92,330.71c1-1.61,1.55-2.42,1.8-2.42a1.83,1.83,0,0,1,.49.13l-.37-1.36c0-.17.23-.44.68-.81a4.21,4.21,0,0,0,1-1.24l-.25-.74V324a3.35,3.35,0,0,1,1.55-2.41c.17-.33.5-1.17,1-2.54l1.62-2.84a3.86,3.86,0,0,1,1.31-1.58,1.33,1.33,0,0,0,.74-1,3.44,3.44,0,0,1,.44-1.24c0,.21,0,.22.09,0s.17-.59.31-1.21a2.33,2.33,0,0,1,1.4-1.49c1-2.43,1.71-3.65,2.25-3.65a1.63,1.63,0,0,1,.68.25H107c.66,0,1-.25,1-.74a.22.22,0,0,0-.25-.25,1.5,1.5,0,0,1-1,.62c-.29,0-.44-.08-.44-.25s.07-.16.19-.25l1.37-2.78.12-1.17a8,8,0,0,1,1-1.12L110,299v-.62a8.79,8.79,0,0,1,.56-1.27,9.87,9.87,0,0,0,.8-2.26l1-1.54a4.23,4.23,0,0,0,.25-1.36c0-.62-.08-.93-.25-.93l-3.58.68a37.94,37.94,0,0,0-4.16,2.35l-1.44.31a13.3,13.3,0,0,0-1.65.83,6.78,6.78,0,0,1-2.67.93,3.26,3.26,0,0,0-2,.9l-.25.12H95.48a11.45,11.45,0,0,0-.93,1.21c-.16.27-.31.4-.43.4-4.17,2.76-6.81,4.44-7.92,5a15.33,15.33,0,0,0-2.54,1.58,7.93,7.93,0,0,1-1.48,1v.74a3.57,3.57,0,0,1-1.52,2.39A4.38,4.38,0,0,1,78,310.85a2.85,2.85,0,0,1-1.14-.41,5.35,5.35,0,0,0-1.74-.52c-.64-.08-1-.87-1-2.35q0-3.17,5.19-5.76a8.39,8.39,0,0,0,1.49-.86,43.23,43.23,0,0,1,5.5-2.42l1.8-.86a5.7,5.7,0,0,1,2.07-1.15c1-.35,1.73-.65,2.29-.89a8.44,8.44,0,0,1,1.33-.5Zm58.07,15,.61-1.12v-.12c0-.08-.08-.13-.24-.13-.42,0-.74.42-1,1.24.08.25.16.37.25.37A.41.41,0,0,0,152.31,309.18Z" transform="translate(0.5 -143.5)"/>
    <path class="cls-1" d="M187,324.64l1-.86h.37c.29,0,.72-.31,1.3-.93l.62-.25a5.12,5.12,0,0,1,2.17-2.16l1-.75a2.05,2.05,0,0,1,.71-.43,5.93,5.93,0,0,0,1.49-1.21c.68-.68,1.22-1,1.64-1a3,3,0,0,1,1,.13,4,4,0,0,1,1.48-1.46,6,6,0,0,0,1.8-1.7l.81-.37a6.7,6.7,0,0,0,1.76-1.27,2.76,2.76,0,0,1,2-.77,5.67,5.67,0,0,1,3.74,1.82,5.06,5.06,0,0,1,1.95,3.5l-1,4.83c-.7,3.54-1.49,5.4-2.35,5.56l-.25,1.3q-.87.63-.87,1l.37,1.49c0,.2-.22.51-.68.93-.08,0-.12.12-.12.37v2.53c0,.46-.29.83-.87,1.12a1.69,1.69,0,0,0,.37.24,2.6,2.6,0,0,1,1.68-.37l1,.13,1.36-1.36a6.07,6.07,0,0,0,1.21-.59,20.7,20.7,0,0,1,2.62-1.21l8.1-6.19c1.11-1.11,2-1.67,2.53-1.67s.93.4.93,1.18a4.42,4.42,0,0,1-.53,2.26,12.21,12.21,0,0,0-1,2.16,4,4,0,0,1-1,1.77,4.84,4.84,0,0,0-1,1.08,7.57,7.57,0,0,1-2,1.7,19.12,19.12,0,0,0-2.78,2.26,13.27,13.27,0,0,1-1.89,1.64L213,341l-.37.62a5.93,5.93,0,0,1-1.14.52,7.72,7.72,0,0,0-1.83,1l-1.11.62a2.54,2.54,0,0,1-1.21.31,2.19,2.19,0,0,0-1.45.71c-.41.43-.74.65-1,.65l-.93-.12-1.23.37a4.35,4.35,0,0,1-2.57-1.27,3.55,3.55,0,0,1-1.52-2.69v-.37l.13-.87a5.82,5.82,0,0,0-.38-1.27,9.32,9.32,0,0,1-.37-1.14l.13-.87-.13-.37a5.42,5.42,0,0,1,.25-2.1,3.46,3.46,0,0,0,.37-1.21c.08-.51.17-.94.25-1.27l.31-1.54a1.78,1.78,0,0,1,.62-1c.08-.33.25-.89.49-1.67l.25-1.12.62-.86a2.22,2.22,0,0,0,.59-1.33,4.42,4.42,0,0,1,.65-1.77,4.06,4.06,0,0,0,.55-1.11.65.65,0,0,0-.74-.74,5.54,5.54,0,0,0-1.55,1l-1.11-.37c-.08,0-.31.2-.68.61,0,.17-.19.29-.56.38a1.82,1.82,0,0,0-1.05.92l-.5.13-.8-.37h-.25c-.41,0-.66.45-.74,1.36a3.14,3.14,0,0,1-1.8,1.3l-1.36.37a1.69,1.69,0,0,0-1,1.11,3.53,3.53,0,0,1-1.23,1.58,3.13,3.13,0,0,1-1.24.71q-1.74,0-1.74-1.92l.5-2.91Zm26.72-30.93-.37-2.42v-.37c0-1.93.66-3,2-3.21a22.53,22.53,0,0,0,2.6-.81,4.42,4.42,0,0,1,2.32,2,5.43,5.43,0,0,1,1.21,3,1.91,1.91,0,0,1-.19.56,5.93,5.93,0,0,0-.25,1.64,2.82,2.82,0,0,1-1.2,2.1,3.91,3.91,0,0,1-2.45.9,3.7,3.7,0,0,1-2.19-1.21A4,4,0,0,1,213.74,293.71Z" transform="translate(0.5 -143.5)"/>
    <path class="cls-1" d="M250.76,318l1.74-.8a7,7,0,0,0,1.67-1.61l2.17-1.55a6.65,6.65,0,0,1,2.41-1.24l1,.38q.12,0,.78-.78a1.94,1.94,0,0,1,1.51-.77c.75,0,1.76.56,3,1.67s1.92,2.1,1.92,3l-.25,2.1a20.35,20.35,0,0,0,.49,2.79v.49L267,323.1l.24,1.54-.68,3c0,.79.27,1.18.81,1.18a4.63,4.63,0,0,1,1.79-1.18l.87-.86c.33-.33.58-.5.74-.5s.38-.19.65-.58a2.23,2.23,0,0,1,1-.84,1.49,1.49,0,0,0,.87-.87c2.31-2.51,4.08-4,5.32-4.33.16,0,.44-.2.84-.62a2.93,2.93,0,0,1,1-.74l1.37-1.05.55.25h.13a4.62,4.62,0,0,0,1-.62,2.76,2.76,0,0,1,1.23-.62,5.14,5.14,0,0,1,3.87,1.58c1,1.05,1.52,1.86,1.52,2.44l-.31,1.43.43,1.91v1.24l-.31,1.3a2,2,0,0,0,.53,1.05,2.19,2.19,0,0,1,.52.93c-.49.54-.74.89-.74,1.05l.13,1.11-.31,3.41a2.9,2.9,0,0,0,.8,1.42,3.78,3.78,0,0,1,1.05-.43,5.16,5.16,0,0,0,1.05-.4,2,2,0,0,0,.37-.25s0,0-.06,0a3.73,3.73,0,0,1,.74.24h.24c.33,0,.52-.31.56-1a2,2,0,0,1,1.23-1.58l1.48.12a4.83,4.83,0,0,0,.53-1,9.7,9.7,0,0,1,2.59-2.66c1.46-1.18,2.58-1.76,3.36-1.76s1,.29,1,.86a7.9,7.9,0,0,1-.25,1.3,3.18,3.18,0,0,1,.5,1.49c0,.78-.67,1.63-2,2.53a9.15,9.15,0,0,0-3.06,3.41l-.25.24-1.23-.12c-.08,0-.28.32-.59,1s-.67,1-1.08,1.08a1.78,1.78,0,0,0-.86.37l-1.3.81a27.49,27.49,0,0,0-2.44,2.5c-1.38,1.51-2.55,2.26-3.49,2.26a7.09,7.09,0,0,1-2.23-.65,5.38,5.38,0,0,1-2.16-1.33,12.33,12.33,0,0,0-1.58-1.54c-.68-.58-1-1.67-1-3.28,0-.09.12-.23.34-.44s.34-.37.34-.49a5.7,5.7,0,0,1-1.42-2.66,3.06,3.06,0,0,1,.12-.81,2.62,2.62,0,0,0,.13-.8l-.13-2.17.25-1.11-.12-.68.37-3.16c0-.49-.29-.74-.87-.74-.16,0-.39.17-.68.5a3,3,0,0,1-1.08.77,3.65,3.65,0,0,0-1.4,1.76,4.62,4.62,0,0,0-1.52,1.21c-.26.39-.48.59-.65.59a1.83,1.83,0,0,1-.49-.13,1.37,1.37,0,0,0-.74,1.12v.24l.12.5q0,.56-.93,1.05a8,8,0,0,0-2.29,2.54,2.23,2.23,0,0,0-.87.12l-.74,1.49a3.53,3.53,0,0,0-1.18,1.3l-.74.37a10.05,10.05,0,0,1-.87,1.36l-.37.68c-1.78,2.1-3,3.16-3.72,3.16s-1.55-.93-2.54-2.79a10.23,10.23,0,0,1-1.48-4.33l.24-2.29a4.62,4.62,0,0,0-.49-1v-.25a11.36,11.36,0,0,1,.49-1.42V329a1,1,0,0,0-.12-.37v-.31a4.41,4.41,0,0,1,.5-1l-.38-1.79.25-1-.12-2.17.25-1.91a1.52,1.52,0,0,0-.34-.65c-.23-.31-.39-.47-.47-.47a9,9,0,0,0-2.56,1.43A17.89,17.89,0,0,0,253.1,323c-.49.54-1.15,1.18-2,1.92-.87.41-1.47,1.46-1.8,3.16q0,.12-.24.12c0-.08-.13-.16-.37-.25h-.25c-.21,0-.85.89-1.92,2.66l-.24.25-1.18-.25c-1,0-1.48,1.05-1.48,3.16,0,.37-.26.62-.77.74a1.83,1.83,0,0,0-1.21,1,10.53,10.53,0,0,1-1.17,1.8,4.58,4.58,0,0,0-1.62.92,22.24,22.24,0,0,1-1.36,1.86,19.31,19.31,0,0,0-1.49,2.1,2,2,0,0,1-.84.72c-.48.26-.72.5-.72.71l.19,1.05q0,1-1.92,1-3.72,0-3.72-7.73a3.43,3.43,0,0,1,.77-1.95,17.8,17.8,0,0,0,1.52-2.63,29.25,29.25,0,0,0,2.78-3.41,29.45,29.45,0,0,1,2.41-3l.81-1.3a1.69,1.69,0,0,1,.31-1.11,1.45,1.45,0,0,0,.31-.93c0-.66-.17-1-.5-1a2.74,2.74,0,0,0-1.85.59,4,4,0,0,1-1.52.83,1.54,1.54,0,0,0-1.08.87,5.06,5.06,0,0,0-1.83,1.58c-.64.8-1.06,1.31-1.26,1.51a3.35,3.35,0,0,0-.59.84,1,1,0,0,1-.71.59,1.41,1.41,0,0,0-.81.43,1.56,1.56,0,0,1-1.17.37q-.56,0-1-1.14a6,6,0,0,1-.46-1.4q0-4.51,6-7.79a6,6,0,0,0,1.27-.87,4.23,4.23,0,0,1,1-.68l.25-.43q.49-.75,3.72-2.1h.86l4.15-1.06c1.78-.41,2.66,1.59,2.66,6l-.12,1.11.25.49a21.1,21.1,0,0,1,2.13-1.76,7.71,7.71,0,0,0,1.58-1.39A5.09,5.09,0,0,1,250.76,318Z" transform="translate(0.5 -143.5)"/>
    <path class="cls-1" d="M304.94,324.64l1-.86h.37c.29,0,.73-.31,1.3-.93l.62-.25a5.18,5.18,0,0,1,2.17-2.16l1-.75a2.21,2.21,0,0,1,.72-.43,5.94,5.94,0,0,0,1.48-1.21,2.8,2.8,0,0,1,1.64-1,2.93,2.93,0,0,1,1,.13,4.07,4.07,0,0,1,1.49-1.46,6.24,6.24,0,0,0,1.8-1.7l.8-.37a6.75,6.75,0,0,0,1.77-1.27,2.72,2.72,0,0,1,2-.77,5.67,5.67,0,0,1,3.75,1.82,5.08,5.08,0,0,1,1.94,3.5l-1,4.83c-.7,3.54-1.48,5.4-2.35,5.56l-.25,1.3c-.57.42-.86.75-.86,1l.37,1.49c0,.2-.23.51-.68.93-.08,0-.12.12-.12.37v2.53c0,.46-.29.83-.87,1.12a1.48,1.48,0,0,0,.37.24,2.57,2.57,0,0,1,1.67-.37l1,.13,1.36-1.36a5.8,5.8,0,0,0,1.2-.59,21,21,0,0,1,2.63-1.21l8.09-6.19c1.12-1.11,2-1.67,2.54-1.67s.92.4.92,1.18a4.42,4.42,0,0,1-.52,2.26,12.21,12.21,0,0,0-1,2.16,4,4,0,0,1-1,1.77,4.84,4.84,0,0,0-1,1.08,7.94,7.94,0,0,1-2,1.7,19.12,19.12,0,0,0-2.78,2.26,14.48,14.48,0,0,1-1.89,1.64L330.93,341l-.37.62a6.2,6.2,0,0,1-1.15.52,7.46,7.46,0,0,0-1.82,1l-1.11.62a2.54,2.54,0,0,1-1.21.31,2.16,2.16,0,0,0-1.45.71c-.42.43-.75.65-1,.65l-.93-.12-1.24.37a4.38,4.38,0,0,1-2.57-1.27,3.54,3.54,0,0,1-1.51-2.69v-.37l.12-.87a5.55,5.55,0,0,0-.37-1.27,7.63,7.63,0,0,1-.37-1.14l.12-.87-.12-.37a5.22,5.22,0,0,1,.25-2.1,3.69,3.69,0,0,0,.37-1.21,12.41,12.41,0,0,1,.25-1.27l.3-1.54a1.89,1.89,0,0,1,.62-1c.09-.33.25-.89.5-1.67l.25-1.12.61-.86a2.16,2.16,0,0,0,.59-1.33,4.42,4.42,0,0,1,.65-1.77,4.26,4.26,0,0,0,.56-1.11.65.65,0,0,0-.74-.74,5.4,5.4,0,0,0-1.55,1l-1.12-.37c-.08,0-.3.2-.68.61,0,.17-.18.29-.55.38a1.82,1.82,0,0,0-1,.92l-.5.13-.8-.37h-.25c-.41,0-.66.45-.74,1.36a3.21,3.21,0,0,1-1.8,1.3l-1.36.37a1.66,1.66,0,0,0-1,1.11,3.56,3.56,0,0,1-1.24,1.58,3.06,3.06,0,0,1-1.24.71c-1.15,0-1.73-.64-1.73-1.92l.5-2.91Zm26.73-30.93-.37-2.42v-.37c0-1.93.66-3,2-3.21a23.19,23.19,0,0,0,2.6-.81,4.45,4.45,0,0,1,2.32,2,5.48,5.48,0,0,1,1.2,3,2.11,2.11,0,0,1-.18.56,5.24,5.24,0,0,0-.25,1.64,2.8,2.8,0,0,1-1.21,2.1,3.86,3.86,0,0,1-2.44.9,3.72,3.72,0,0,1-2.2-1.21A3.94,3.94,0,0,1,331.67,293.71Z" transform="translate(0.5 -143.5)"/>
    <path class="cls-1" d="M237.67,228.09c0,1.62-.78,2.43-2.33,2.43-1.08,0-2.28-1-3.58-3.05q-1.44-2.25-4.68-8.95-9.45-.15-21.39-4.41Q196.2,224,192.75,224a2.16,2.16,0,0,1-1.56-.65,2.11,2.11,0,0,1-.67-1.57c0-.68.55-1.45,1.65-2.32l3.28-2.58a59,59,0,0,0,5.32-4.83c-2.84-1.12-4.26-2.28-4.26-3.46a2.49,2.49,0,0,1,.67-1.75,2.12,2.12,0,0,1,1.61-.73,6,6,0,0,1,2.25.69q2.63,1.18,3.12,1.38,10-13.08,11.21-19.09.34-2.06.72-4.14a2.17,2.17,0,0,1,2.32-1.53,2,2,0,0,1,2,1.26,10.38,10.38,0,0,1,.5,2.25,22.14,22.14,0,0,0,.42,2.6q2.34,9.57,9.1,24.06c.76,0,1.5-.06,2.21-.13l1-.07c1.83,0,2.74.83,2.74,2.48s-.94,2.57-2.84,2.57h-.72c.64,1.32,1.76,3.34,3.34,6.06A9.27,9.27,0,0,1,237.67,228.09Zm-12.91-14.52a141.13,141.13,0,0,1-6.91-18.26A70.91,70.91,0,0,1,209,210.09,60.62,60.62,0,0,0,224.76,213.57Z" transform="translate(0.5 -143.5)"/>
    <path class="cls-1" d="M175.51,416.28a57.61,57.61,0,0,1-2.08,14.86q-1,3.9-3.09,3.9c-1.4,0-2.1-.8-2.1-2.39a4,4,0,0,1,.06-.81,11.44,11.44,0,0,1-5.48,1.43c-3.34,0-5.94-.94-7.82-2.83s-2.81-4.52-2.81-7.91a11,11,0,0,1,3-8.18,10.9,10.9,0,0,1,8.07-3,10.15,10.15,0,0,1,7.39,2.93q-.5-10.25-7.6-10.25a7.33,7.33,0,0,0-3.38.95,7.26,7.26,0,0,1-2.35.94,2.14,2.14,0,0,1-1.58-.72,2.33,2.33,0,0,1-.7-1.66q0-1.56,2.25-2.88a11.14,11.14,0,0,1,5.76-1.43Q175.5,399.21,175.51,416.28Zm-5.27,6.1q0-6.6-6.2-6.59-6.79,0-6.8,6.53t6.75,6.59a6.08,6.08,0,0,0,4.59-1.72A6.65,6.65,0,0,0,170.24,422.38Z" transform="translate(0.5 -143.5)"/>
    <path class="cls-1" d="M225.81,392.75c0-.1-.11,1.2-.32,3.89q-.33,4.69-.57,10-.28,7.62-.28,16.24c0,1.17,0,2.38,0,3.62s0,1.89,0,2q0,3.85-2.45,3.86-2.69,0-2.69-4.36c0-.67,0-1.2.06-1.58a15.69,15.69,0,0,1-11.35,4.83,10.94,10.94,0,0,1-8.54-3.49q-3.15-3.49-3.15-9.59,0-8.3,4.57-13.41a15.32,15.32,0,0,1,12-5.11,18,18,0,0,1,7.12,1.58,73,73,0,0,1,.5-8.61c.38-1.76,1.34-2.65,2.87-2.65S225.81,390.87,225.81,392.75ZM220,406.24a12.7,12.7,0,0,0-6.81-2.13,10.32,10.32,0,0,0-8.34,3.65q-3.06,3.64-3.06,9.9a9.84,9.84,0,0,0,2.06,6.65,7.15,7.15,0,0,0,5.69,2.37,8.3,8.3,0,0,0,6.94-3c.45-.68.89-1.36,1.32-2a2.89,2.89,0,0,1,1.87-1.3Q219.66,413,220,406.24Z" transform="translate(0.5 -143.5)"/>
    <path class="cls-1" d="M254.91,416.28a57.58,57.58,0,0,1-2.07,14.86q-1.05,3.9-3.09,3.9c-1.4,0-2.1-.8-2.1-2.39a4.2,4.2,0,0,1,0-.81,11.4,11.4,0,0,1-5.47,1.43q-5,0-7.83-2.83t-2.81-7.91a10.44,10.44,0,0,1,11.1-11.2,10.17,10.17,0,0,1,7.4,2.93q-.5-10.25-7.6-10.25a7.34,7.34,0,0,0-3.39.95,7.1,7.1,0,0,1-2.35.94,2.15,2.15,0,0,1-1.58-.72,2.33,2.33,0,0,1-.7-1.66c0-1,.75-2,2.26-2.88a11.09,11.09,0,0,1,5.76-1.43Q254.91,399.21,254.91,416.28Zm-5.26,6.1q0-6.6-6.2-6.59-6.81,0-6.8,6.53t6.74,6.59a6,6,0,0,0,4.59-1.72A6.65,6.65,0,0,0,249.65,422.38Z" transform="translate(0.5 -143.5)"/>
    <path class="cls-1" d="M281,399q0,3.27-2.65,11.31a113.92,113.92,0,0,1-8.76,18.81q-1.27,2.56-2.57,5.14c-.74,1.33-1.63,2-2.65,2a2.21,2.21,0,0,1-1.64-.77,2.42,2.42,0,0,1-.74-1.72q0-1.68,2.28-5.63l5.41-9.43a88,88,0,0,1-8-12.74q-2.36-4.69-2.36-6.36c0-1.56.74-2.33,2.23-2.33.94,0,1.87.81,2.81,2.43l2.52,5.45a57.2,57.2,0,0,0,5.11,8.85A67,67,0,0,0,275,403.67c.81-3.71,1.23-5.61,1.25-5.68q.75-2.13,2.34-2.13C280.18,395.86,281,396.91,281,399Z" transform="translate(0.5 -143.5)"/>
    <path class="cls-1" d="M102.34,458.19s-.19.52-.57,1.66a30,30,0,0,0-1,4.38,47.51,47.51,0,0,0-.57,7.66q0,2.36.33,7.13c.21,3.18.32,5.59.32,7.21a13.73,13.73,0,0,1-.62,4.9,2.42,2.42,0,0,1-2.41,1.59,1.81,1.81,0,0,1-1.87-1.07,6.78,6.78,0,0,1-.26-2.28q0-1.29,0-3.24c0-1.3,0-2.16,0-2.6q0-2.67-.23-7t-.24-6.12a37.13,37.13,0,0,1,1.25-10.82q1.22-3.74,3.27-3.74a2.62,2.62,0,0,1,1.8.73A2.19,2.19,0,0,1,102.34,458.19Zm18.16,5.23c0,1.07-1.12,2.2-3.37,3.37l-9.85,4.67a89.46,89.46,0,0,1,9.51,11.09c2,2.9,3,5,3,6.33a2.77,2.77,0,0,1-.74,1.92,2.28,2.28,0,0,1-1.7.8,2.18,2.18,0,0,1-1.82-1.22q-1.91-3.06-5.53-8.56a48.17,48.17,0,0,0-6.84-7.49c-1-.9-1.52-1.37-1.56-1.41a3.44,3.44,0,0,1-.78-2.25c0-.8.55-1.48,1.64-2.05l4.56-2.05c1.47-.71,3.83-2,7.06-3.84,1.95-1.12,3.25-1.69,3.89-1.69C119.67,461,120.5,461.84,120.5,463.42Z" transform="translate(0.5 -143.5)"/>
    <path class="cls-1" d="M150.1,472.85a4.5,4.5,0,0,1-1.87,4q-.82.57-5.27,1.48a50.93,50.93,0,0,1-10,1.22c-1.27,0-2.79-.09-4.57-.26q0,9.78,7.45,9.78a6.26,6.26,0,0,0,3.7-1.17,25.73,25.73,0,0,0,3-2.77,2.27,2.27,0,0,1,1.63-.81,2.51,2.51,0,0,1,1.88.82,2.75,2.75,0,0,1,.79,2,2.67,2.67,0,0,1-.75,1.82,13.74,13.74,0,0,1-10.45,4.87q-12.4,0-12.4-14.34a21,21,0,0,1,3.94-12.77q4.48-6.09,11.1-6.09a11.35,11.35,0,0,1,8.51,3.45A12.08,12.08,0,0,1,150.1,472.85Zm-5.16.31a9.43,9.43,0,0,0-1.88-5.71,5.37,5.37,0,0,0-4.32-2.1,8.4,8.4,0,0,0-5.94,2.41,14.77,14.77,0,0,0-4,6.9,34.75,34.75,0,0,0,3.92.21A53.67,53.67,0,0,0,144.94,473.16Z" transform="translate(0.5 -143.5)"/>
    <path class="cls-1" d="M179.8,472.85a4.5,4.5,0,0,1-1.87,4c-.55.38-2.31.87-5.26,1.48a51.11,51.11,0,0,1-10,1.22c-1.27,0-2.79-.09-4.57-.26q0,9.78,7.45,9.78a6.31,6.31,0,0,0,3.71-1.17,26.82,26.82,0,0,0,3-2.77,2.27,2.27,0,0,1,1.63-.81,2.49,2.49,0,0,1,1.88.82,2.76,2.76,0,0,1,.8,2,2.68,2.68,0,0,1-.76,1.82,13.74,13.74,0,0,1-10.45,4.87q-12.41,0-12.4-14.34a21,21,0,0,1,3.94-12.77q4.49-6.09,11.11-6.09a11.33,11.33,0,0,1,8.5,3.45A12.08,12.08,0,0,1,179.8,472.85Zm-5.16.31a9.43,9.43,0,0,0-1.88-5.71,5.37,5.37,0,0,0-4.32-2.1,8.4,8.4,0,0,0-5.94,2.41,14.77,14.77,0,0,0-3.95,6.9,34.75,34.75,0,0,0,3.92.21A53.59,53.59,0,0,0,174.64,473.16Z" transform="translate(0.5 -143.5)"/>
    <path class="cls-1" d="M210.88,478.27q0,6.64-4,10.6t-10.6,3.95a17,17,0,0,1-7.23-1.63,66.84,66.84,0,0,1-1,7.47c-.44,1.52-1.23,2.28-2.38,2.28a2.68,2.68,0,0,1-1.85-.67,2.16,2.16,0,0,1-.75-1.66c0,.1.13-1,.41-3.3.35-2.7.61-5.61.81-8.74q.4-6.75.41-14.58c0-1,0-2.23-.05-3.57s0-2.14,0-2.42c0-2.3.8-3.45,2.41-3.45s2.54.79,2.59,2.39l.06,1.58a11.09,11.09,0,0,1,8.06-3,12.1,12.1,0,0,1,9.45,3.94Q210.88,471.47,210.88,478.27Zm-5.17,0c0-3.17-.73-5.62-2.2-7.37a7.59,7.59,0,0,0-6.12-2.62q-6.12,0-7.55,3.87v2.56q0,6-.31,11.83a15.41,15.41,0,0,0,6.79,1.61,9.09,9.09,0,0,0,6.94-2.57C204.9,483.87,205.71,481.43,205.71,478.27Z" transform="translate(0.5 -143.5)"/>
    <path class="cls-1" d="M235.47,466.91a2.3,2.3,0,0,1-2.62,2.59,1.74,1.74,0,0,1-1.43-.65l-.75-1.22a5.15,5.15,0,0,0-4.28-2.07q-4.59,0-4.59,5.21a5.58,5.58,0,0,0,.83,3.11,10.31,10.31,0,0,0,2.51,2.52,40.08,40.08,0,0,1,5.11,4.33,8.29,8.29,0,0,1,2.13,5.61,9,9,0,0,1-2.7,6.75,9.68,9.68,0,0,1-7,2.61,10.42,10.42,0,0,1-6.77-2.15,6.48,6.48,0,0,1-2.57-5.24c0-2.13.93-3.19,2.77-3.19,1.54,0,2.34,1.18,2.4,3.55a5.38,5.38,0,0,0,4.19,2.23,4.34,4.34,0,0,0,3.16-1.18,3.92,3.92,0,0,0,1.23-2.94,4.19,4.19,0,0,0-1.5-3s-1.29-1-3.81-3q-5.25-4.15-5.24-9.73a10,10,0,0,1,2.78-7.34,9.86,9.86,0,0,1,7.31-2.8,10.46,10.46,0,0,1,6.35,1.94C234.63,464,235.47,465.38,235.47,466.91Z" transform="translate(0.5 -143.5)"/>
    <path class="cls-1" d="M277.15,470.82a2.25,2.25,0,0,1-.57,1.55,1.76,1.76,0,0,1-1.35.63,16.43,16.43,0,0,1-3-1,13.84,13.84,0,0,0-5-1,13.59,13.59,0,0,0-1.64.1,35.3,35.3,0,0,0-1,7.76,13.09,13.09,0,0,0,1.54,7,4.78,4.78,0,0,0,4.25,2.44,6.36,6.36,0,0,0,2.19-.54,6.44,6.44,0,0,1,2-.53c1.38,0,2.08.81,2.08,2.44a2.93,2.93,0,0,1-1.72,2.57,9.32,9.32,0,0,1-4.67,1q-11,0-11-14.65a34.65,34.65,0,0,1,.76-6.8c-.49.07-1.53.27-3.14.6a13.24,13.24,0,0,1-2.34.31c-1.85,0-2.77-.71-2.77-2.13q0-2.89,9.57-3.79c1.31-4.16,2.92-6.25,4.83-6.25a2.06,2.06,0,0,1,1.5.64,2.14,2.14,0,0,1,.62,1.54,5,5,0,0,1-.39,1.7c-.26.69-.52,1.37-.77,2.06Q277.15,466.76,277.15,470.82Z" transform="translate(0.5 -143.5)"/>
    <path class="cls-1" d="M307.35,480.19a40.23,40.23,0,0,1-1.43,11.88c-.9,2.84-2,4.25-3.4,4.25a2.91,2.91,0,0,1-2-.71,2.15,2.15,0,0,1-.8-1.62q2.43-9.11,2.44-13.8,0-7-1.61-10.22a5.63,5.63,0,0,0-5.4-3.3,9.46,9.46,0,0,0-4,1A8.75,8.75,0,0,0,288,470a8.37,8.37,0,0,0-1.38,5.26v1.66q0,6.62.51,12.83c.34,4.14.5,6.07.5,5.8,0,1.71-.79,2.57-2.38,2.57a2.17,2.17,0,0,1-1.95-.86,8.08,8.08,0,0,1-.83-2.93,116.08,116.08,0,0,1-.88-16.08,120.12,120.12,0,0,1,2-20.13,13.43,13.43,0,0,1,.83-3.22,2,2,0,0,1,1.94-1.09,2.16,2.16,0,0,1,1.66.73,2.62,2.62,0,0,1,.68,1.87s-.45,2.87-1.33,8.71a11.77,11.77,0,0,1,8.33-3.19Q307.35,461.9,307.35,480.19Z" transform="translate(0.5 -143.5)"/>
    <path class="cls-1" d="M339.54,472.85a4.5,4.5,0,0,1-1.87,4c-.55.38-2.31.87-5.26,1.48a51.11,51.11,0,0,1-10,1.22c-1.27,0-2.79-.09-4.57-.26q0,9.78,7.45,9.78a6.31,6.31,0,0,0,3.71-1.17,26.82,26.82,0,0,0,3-2.77,2.27,2.27,0,0,1,1.63-.81,2.49,2.49,0,0,1,1.88.82,2.76,2.76,0,0,1,.8,2,2.64,2.64,0,0,1-.76,1.82A13.74,13.74,0,0,1,325,493.83q-12.41,0-12.4-14.34a21,21,0,0,1,3.94-12.77q4.49-6.09,11.11-6.09a11.33,11.33,0,0,1,8.5,3.45A12.08,12.08,0,0,1,339.54,472.85Zm-5.16.31a9.43,9.43,0,0,0-1.88-5.71,5.37,5.37,0,0,0-4.32-2.1,8.4,8.4,0,0,0-5.94,2.41,14.77,14.77,0,0,0-3.95,6.9,34.75,34.75,0,0,0,3.92.21A53.59,53.59,0,0,0,334.38,473.16Z" transform="translate(0.5 -143.5)"/>
    <path class="cls-1" d="M49.73,573.69h.47l-.26-.68h-.31c-.28,0-.42-.17-.42-.52a3.24,3.24,0,0,1,.89-1.82v-.52c0-.59.66-1.61,2-3.07l.78.11-.11-1.09.32-.73a10.05,10.05,0,0,0,.41-1.2l.63-.1.1-.63v-.52a1.14,1.14,0,0,1,1.09-1.3,3.61,3.61,0,0,1-.2-.83,1.12,1.12,0,0,1,.41-.73l.32-.67a4.36,4.36,0,0,1,.91-1.22,4.1,4.1,0,0,0,.91-1.38,4.71,4.71,0,0,1,.73-1.3l.1-.47a11.63,11.63,0,0,1,1.77-2.34L62,550.86c.24-.07.5-.48.78-1.22s.64-1.12,1.09-1.12h.21c.14.14.24.21.31.21a.1.1,0,0,0,.11-.11l-.11-.83c.7-.69,1-1.16,1-1.4q0-.84,2.61-2.55c.21-.07.39-.29.54-.67a5.39,5.39,0,0,1,1.7-1.67l.41-.42c.59-.48,1-.83,1.36-1a3.82,3.82,0,0,1,3.12-2.33l.31-.26a1.33,1.33,0,0,1,1.3-1.15,4.55,4.55,0,0,1,3.48-1.82,1.91,1.91,0,0,1-.1-.62c0-.45.24-.68.73-.68a4.71,4.71,0,0,1,.78.26A3.11,3.11,0,0,1,83,531.93a3,3,0,0,0,1-.57,1.9,1.9,0,0,1,.68-.41,1.7,1.7,0,0,1,.7-.21,3,3,0,0,0,1.43-.94,3.53,3.53,0,0,0,1.09-.52h.31l.21.11a3.06,3.06,0,0,1,1.82-1l1.45-.52a1.65,1.65,0,0,1,.66.15,1.3,1.3,0,0,0,.44.16,3.67,3.67,0,0,0,1-.42H94a4,4,0,0,0,2,.47c.85,0,1.42.63,1.69,1.77l.63,1.3a2.42,2.42,0,0,1,.31,1,2.54,2.54,0,0,0,.29,1.4,1.31,1.31,0,0,1,.28.63,2.08,2.08,0,0,1-.28.86,2.93,2.93,0,0,0-.29,1.37,2.9,2.9,0,0,1-.42,1.1l-.41.93q-1.41,4.79-2.65,4.78c-2,0-3-.64-3-1.92s1-2.84,3-4.58a4.4,4.4,0,0,0,.93-1.37,4.88,4.88,0,0,0,.63-1.48c0-.66-.32-1-.94-1a2.6,2.6,0,0,0-1.48.44,3.54,3.54,0,0,1-1.56.55,2.85,2.85,0,0,0-1.22.31l-.83.41a28.8,28.8,0,0,0-3.12,1.93l-14,11.18-.2.83a4.12,4.12,0,0,1-.86.62,2.58,2.58,0,0,0-1.07,1.51,9.46,9.46,0,0,1-2.23,2.81l-1.82,2.44-.42.94c-.49.21-1.73,1.66-3.74,4.37A6.32,6.32,0,0,1,61.3,563c-.07,0-.11,0-.11.1l.21.83v.21q0,.57-3.43,5.46l-.1.21a8.16,8.16,0,0,1-1,3,6.17,6.17,0,0,0-.8,1.66,3.78,3.78,0,0,1-.58,1.22,7.11,7.11,0,0,0-.75,1.56,6.82,6.82,0,0,1-.65,1.43,2,2,0,0,0-.36,1,4.58,4.58,0,0,1-.68,1.54,8.75,8.75,0,0,1,.31,1.09c0,.14-.27,1.33-.83,3.59v.2a2.63,2.63,0,0,0,.42,1.3c.27.49.52.73.73.73a10.82,10.82,0,0,0,2.7-1.35,10.9,10.9,0,0,0,3.27-2.7l1.25-.63.78-.73a7.23,7.23,0,0,0,1.35-.2c.62-1.49,1.16-2.34,1.61-2.55h1a1.81,1.81,0,0,0,.52-1.4c0-.21.49-.84,1.48-1.88s1.73-1.85,2.23-2.44a5.7,5.7,0,0,1,1-1,5.84,5.84,0,0,1,1.5-1.9A6.1,6.1,0,0,0,74,569.29q.39-1,1.17-1c.48,0,.73-.1.73-.31a2.39,2.39,0,0,1,.31-.83l.1-.42A7.3,7.3,0,0,1,77.87,565l.42-.52a2.38,2.38,0,0,1,.78-1.09l.62-.62a2,2,0,0,1,.68-1.2,7.3,7.3,0,0,0,1.27-1.79,10.85,10.85,0,0,1,1.53-2.16,5.37,5.37,0,0,0,2-2.89,6.2,6.2,0,0,1,2.06-3l1.28-2.13a2.76,2.76,0,0,1,2.23-1.2c.73,0,1.66.76,2.79,2.26a7.4,7.4,0,0,1,1.69,4.35L94.75,557a8.89,8.89,0,0,1-1.2,3.66,4.67,4.67,0,0,0-.91,1.85,3.82,3.82,0,0,1-.86,1.71,8.4,8.4,0,0,0-1.24,3L89,570.05l-.42,1.19c-.38,1.32-.59,2.1-.62,2.34a2.63,2.63,0,0,1-.18.45,3.3,3.3,0,0,1-.29.41,2.07,2.07,0,0,0-.31.57,2.59,2.59,0,0,1-.18.39s0,0,0,0a5.94,5.94,0,0,0-.62,1.4c0,.35.1.53.31.53s.6-.21,1-.63a3.71,3.71,0,0,1,1.07-.88,1.3,1.3,0,0,0,.67-.7,2.32,2.32,0,0,1,1-1,3.57,3.57,0,0,1,1.07-.52h.41a6.28,6.28,0,0,0,1.83-1.45,7.53,7.53,0,0,1,1.66-.94l1.57-.73a7.63,7.63,0,0,0,2.65-1.92l.63.1a4.29,4.29,0,0,1,1.09-.41c.21,0,.31.36.31,1.09a1.09,1.09,0,0,1-.7,1,2,2,0,0,0-.8.57l.1.36v.21a3.79,3.79,0,0,1-.78,1.95,2.8,2.8,0,0,1-1.71,1.35,1.72,1.72,0,0,0-1.3.94,2.37,2.37,0,0,1-.57.86,2.44,2.44,0,0,0-.73-.31h-.21a1.46,1.46,0,0,0-1,.57,10.75,10.75,0,0,1-2,1.45l-.83.73a.9.9,0,0,1-.73.42,34.29,34.29,0,0,0-3.11,2.23,6.48,6.48,0,0,0-3.48,2.55l-1,1.61a7,7,0,0,1-.73,1.2l-.83,3.17a6.26,6.26,0,0,1-1.09,1.61v.11l.21,1.14a6.47,6.47,0,0,1-.81,1.12,10.58,10.58,0,0,0-1.43,3.51l-.93,3.17-.52.83a5.21,5.21,0,0,0-1,1.41,3.47,3.47,0,0,1-1.4,2.65c-.07.21-.38.95-.94,2.23l-.62,2.13-1,1.2-.21.83c-.21.28-.5.67-.89,1.17a6.64,6.64,0,0,0-1,2,5.13,5.13,0,0,1-1.41,2.18c-.68.64-1,1.14-1,1.48a12.66,12.66,0,0,1-1.75,2.55,11.82,11.82,0,0,0-1.95,3.12,1.3,1.3,0,0,1-1.31.94,2.61,2.61,0,0,0-.26.91,1.07,1.07,0,0,1-.81,1,1.56,1.56,0,0,0-1,.91,1.28,1.28,0,0,1-1.25.75c-.69,0-1.13.16-1.3.47A.78.78,0,0,1,57,630a3.64,3.64,0,0,1-4-3,2.1,2.1,0,0,0-.5-1,1.69,1.69,0,0,1-.44-1,5.77,5.77,0,0,0-.57-1.66v-.11l.21-.62c.06,0,.1-.07.1-.21l-.31-1.09a7.8,7.8,0,0,0,.52-1.93l-.11-1.24c-.1-.77.51-2.48,1.82-5.15a19.13,19.13,0,0,0,2.35-5.62,7,7,0,0,1,.88-1.09l1-1.87.42-.47a1.14,1.14,0,0,1-.11-.52c0-.41.34-.84,1-1.27a3.67,3.67,0,0,0,1.22-1.07l.68-.83.62-1.09c.14-1,.56-1.46,1.25-1.46a1.19,1.19,0,0,1,.36.11,1.64,1.64,0,0,0,.32-.89v-.21l-.11-.52a4.64,4.64,0,0,1,.94-1.14l1.92-1.92.53-.89,3.22-2.75a10.74,10.74,0,0,0,.94-1.2l4.89-4.89.42-.21c.31-.13.46-.24.46-.31a4.27,4.27,0,0,1,.68-2.21,10.52,10.52,0,0,0,1-2.05v-.63a4.9,4.9,0,0,0,.47-.77l.52-.42a1.39,1.39,0,0,1,.41-.83l-.1-1.09a7.08,7.08,0,0,0,1.2-1.82,6,6,0,0,1,1-2.66v-.41a2.42,2.42,0,0,1,1-1.93c.1,0,.27-.34.52-1s.36-1.05.36-1.09l-.1-.62a8.11,8.11,0,0,1-3,2.75,24.92,24.92,0,0,0-3.27,3.7c-.28.45-.49.67-.63.67h-.67c-.14,0-.38.17-.73.5s-.52.56-.52.7l.31,1a5.68,5.68,0,0,0-.62.78l-.11.1-.57-.1-.21.31.11.73a2.21,2.21,0,0,0-.24.36,5.65,5.65,0,0,1-1.53,1.14c-.45.87-.87,1.35-1.25,1.43s-.57.29-.57.6c0,.87-.61,1.61-1.82,2.24a1.46,1.46,0,0,0-.47.47,10.66,10.66,0,0,1-.83,1l-.31.58a.76.76,0,0,0-.31.1l-.62.1c-.18.07-.4.52-.68,1.36l-.21.2-.62.11a2.32,2.32,0,0,0-.42,1l-3.53,3.48-2.34.78a8.19,8.19,0,0,1-2.39.42,3.29,3.29,0,0,1-2.5-.94c-.07,0-.14-.05-.21-.16L52,591c-.24,0-.79-.4-1.66-1.2l-1-.52s-.44-.57-1.32-1.61-1.33-1.75-1.33-2.13l-.1-1.82.1-.94-.1-2.13a4.27,4.27,0,0,1,.41-1.48,6.24,6.24,0,0,0,.47-1.3,1.65,1.65,0,0,1,.42-.75l.1-.73a1.24,1.24,0,0,1,.37-1,4,4,0,0,0,.57-.65l.21-.21.83.1-.31-.83C49.63,573.72,49.66,573.69,49.73,573.69ZM56,619.24l-.31.67.31,1.25-.2,2.24c0,.79.17,1.19.52,1.19a7.57,7.57,0,0,0,2.5-2.21,15.44,15.44,0,0,1,1.35-1.74,6,6,0,0,0,1-1.74c.36-.89.61-1.33.75-1.33h.52c.28,0,.42-.5.42-1.51a19.21,19.21,0,0,1,.49-1.87c.33-1.14.67-1.77,1-1.87a3.37,3.37,0,0,0,.21-.83l.72-.94a5.49,5.49,0,0,0,.58-1.09l.31-1.3c.69-2.08,1.54-3.27,2.55-3.59a.47.47,0,0,0,.2-.46l.47-1.56A3,3,0,0,1,71.16,600v-.11a3.5,3.5,0,0,0-.1-.67v-.31a1.38,1.38,0,0,1,.26-.73,4.46,4.46,0,0,0,.46-1.22,4.61,4.61,0,0,1,1.1-1.8v-.62a1.64,1.64,0,0,1,.85-1.59,1.3,1.3,0,0,0,.86-1.17l-.26-1.19-.21.1c0,.66-.44,1.21-1.32,1.66a3.94,3.94,0,0,0-1.69,1.33,1.62,1.62,0,0,1-1.07.81c-.47.1-.74.69-.8,1.76a3.45,3.45,0,0,1-1.54.73,2,2,0,0,0-1.48,1.82c-.1.94-.35,1.47-.73,1.61l-1.25.21a1.5,1.5,0,0,0-.65.83,18.36,18.36,0,0,1-1.9,2.92l-.78,1.87-.52.57a11.44,11.44,0,0,0-1.36,3.9l-.88,1.51a2,2,0,0,0-.73,1.4,7.6,7.6,0,0,1-1,2.55V617a3.53,3.53,0,0,0-.52,1.09Z" transform="translate(0.5 -143.5)"/>
    <path class="cls-1" d="M103.61,567.08l.78-.2.31-.68a13.78,13.78,0,0,0,3.64-2.86,1.16,1.16,0,0,1,.47-.42,2.93,2.93,0,0,0,.78-.72,6.23,6.23,0,0,1,4.58-1.93c2.08,0,3.18,1.27,3.32,3.8l.32.78a21.5,21.5,0,0,1,1.17,3,13.35,13.35,0,0,1,.75,2.76,5.34,5.34,0,0,1-.88,2.81q-.73.36-3.49,3.9l-.52.36a10.65,10.65,0,0,1-1.09,1.87c-.69.24-1,.5-1,.78v.94a1.08,1.08,0,0,1-.23.41,7.05,7.05,0,0,0-.65,1.2l-.42.62a2.33,2.33,0,0,0-.42.86,4,4,0,0,1-.59,1.17,1.57,1.57,0,0,0-.39.83c0,.52.67.78,2,.78a3.66,3.66,0,0,0,.78-.31l.73.21a1.46,1.46,0,0,0,.52-.34,3.35,3.35,0,0,1,1.28-.55,4.6,4.6,0,0,0,1.5-.62,7.54,7.54,0,0,1,1.56-.73,5.33,5.33,0,0,0,1.74-1,5.93,5.93,0,0,1,1.64-1,4.49,4.49,0,0,0,1.51-1,11.89,11.89,0,0,1,1.59-1.22,20.39,20.39,0,0,0,2.8-2.5A6.23,6.23,0,0,1,129.4,577a6.28,6.28,0,0,0,.91-1.38c.54-.91,1.15-1.37,1.84-1.37s1.1.34,1.1,1a1.57,1.57,0,0,1-.52,1.09v.31l.1.83a.86.86,0,0,1,.11.47c0,.14-.14.35-.4.63a2.23,2.23,0,0,0-.54,1.06,1.19,1.19,0,0,1-1,.86c-.21.76-.48,1.19-.8,1.3a4.09,4.09,0,0,0-1.38,1,22.91,22.91,0,0,1-2.5,2.08,18.39,18.39,0,0,0-2.21,1.84c-.4.44-.66.65-.8.65a1,1,0,0,1-.42-.2,1.08,1.08,0,0,0-.42-.21c-.2,0-.34.24-.41.73l-.21.52a3.53,3.53,0,0,1-.78.41l-.31-.1h-.21c-.41,0-.62.15-.62.47l.31.52v.1c0,.49-.28.73-.83.73q-.57,0-3.33,1.92l-1.51.31-1.24.68a2.61,2.61,0,0,0-.78-.36l-.84.26-1.5.1s-.67-.35-1.9-1a4.52,4.52,0,0,1-2.21-2.08,15.39,15.39,0,0,0-.94-2.11,4,4,0,0,1-.57-1.48A10.68,10.68,0,0,1,105,583a11.55,11.55,0,0,0,.52-1.59,2.66,2.66,0,0,1,.6-1.11,5,5,0,0,0,.8-2,26.14,26.14,0,0,1,2.08-3.7,4.61,4.61,0,0,0,.88-1.66l.68-.93a2.87,2.87,0,0,0,.31-.81c.14-.47.32-.74.52-.81a2.74,2.74,0,0,0,.42-.93c0-1-.45-1.51-1.35-1.51-.18,0-.37.18-.58.55a3.06,3.06,0,0,1-1.42,1.06,6,6,0,0,0-1.38.78,4.53,4.53,0,0,1-1.12.65,3.83,3.83,0,0,0-1.48,1.22l-.89.42c-.28.66-.52,1-.73,1.09s-.85.24-1.92.52a3.17,3.17,0,0,0-.52.63,1.4,1.4,0,0,1-1.2.57A14.56,14.56,0,0,0,98,577a4.22,4.22,0,0,0-1.09.42l-1,.26a4.76,4.76,0,0,0-.91,1,2.15,2.15,0,0,1-1.85.67c-.52,0-.77-.41-.77-1.25a5,5,0,0,1,1.79-4,6.43,6.43,0,0,1,2.62-1.61,1.16,1.16,0,0,0,1.05-.63,1.67,1.67,0,0,1,1-.85,5.93,5.93,0,0,0,1.87-1.51,5.51,5.51,0,0,1,2.32-1.59Z" transform="translate(0.5 -143.5)"/>
    <path class="cls-1" d="M136.12,571.24l.73.32a2.12,2.12,0,0,1,1-1.51h.41c.35,0,.8-.47,1.36-1.41l.89-.52a1.45,1.45,0,0,0,.63.11q.3,0,.6-.42a17.77,17.77,0,0,1,1.43-1.61h.21a1.22,1.22,0,0,0,.76-.47,1.54,1.54,0,0,1,1.17-.47l1.78-.46a8.22,8.22,0,0,1,.94-.21c.31-.11,1.07.53,2.28,1.9a6.08,6.08,0,0,1,1.82,4,1.22,1.22,0,0,1-1.14,1.3l-.26.21v1l-.88,1.93a1.78,1.78,0,0,1-.89,1c-.31.56-.54.94-.67,1.15l-.73.1-.31.31v1.3a15,15,0,0,0-1.36,2.73,10.08,10.08,0,0,0-.88,2.68q0,1,.42,1a1,1,0,0,0,.62-.26,8.54,8.54,0,0,1,.86-.6,2.69,2.69,0,0,0,.8-.7,2.29,2.29,0,0,1,1.09-.65,3.81,3.81,0,0,0,1.56-1.07c.49-.52.83-.86,1-1a4.57,4.57,0,0,0,.68-.7c.24-.29.4-.44.47-.44a3.81,3.81,0,0,0,1-.21,4.6,4.6,0,0,1,.21-.83l1.25-.63,3-2.7.42-.52a7.22,7.22,0,0,0,1-.31,3.39,3.39,0,0,1,1.4-2c0-.14.17-.24.52-.31a3.74,3.74,0,0,1,1.06-1.33,3.93,3.93,0,0,0,1.07-1.22l1.2-1a1.31,1.31,0,0,0,.72-.62,29.35,29.35,0,0,1,3.35-2.73,4.81,4.81,0,0,1,2.11-.34,2.88,2.88,0,0,1,2.36,1.12,6.57,6.57,0,0,0,2,1.69,2.24,2.24,0,0,1,1.06,2.18q0,1.51-2.34,5.77a33.28,33.28,0,0,0-1.56,5.49c0,.68-.19,1.07-.46,1.17s-.42.23-.42.36v.21c0,.83.14,1.25.42,1.25a1.5,1.5,0,0,0,.85-.52,7,7,0,0,1,2.21-1.14l.47.1c1-1.52,1.67-2.35,2-2.47a2.26,2.26,0,0,0,1-.94,1.66,1.66,0,0,1,1.27-.8,1.67,1.67,0,0,0,1-.26c0-.83.72-1.77,2-2.81a9.52,9.52,0,0,1,2.3-1.56c.35,0,.63.26.83.78a2.86,2.86,0,0,0,.65,1.07c.22.19.34.35.34.49v.94a.86.86,0,0,1-.68.88,2.79,2.79,0,0,1-.93,1.35l-.93-.1q-.27.31-.45.57c-.12.17-.2.24-.23.21-.28.07-.77.53-1.48,1.38s-1.34,1.55-1.89,2.1l-.21.31a2.51,2.51,0,0,1-.78.42l-.93.78a2.37,2.37,0,0,0-.62-.31c-.07,0-.22.14-.45.41a5.69,5.69,0,0,1-1.35,1.07,4.79,4.79,0,0,0-1.52,1.48l-.84.83-1.08.16c-.11,0-.28.16-.52.47l-.94,1.19a2.5,2.5,0,0,1-2.12.89c-.21,0-.48-.18-.81-.55s-.64-.67-.93-.93a23.24,23.24,0,0,1-2-2.34,20.12,20.12,0,0,1-1.53-2.06l.31-1.82-.1-1.25a2.4,2.4,0,0,1,.49-1.11,7.09,7.09,0,0,0,.5-.81l-.11-2A1.18,1.18,0,0,0,165,578l.73-1.2a5.65,5.65,0,0,1-.11-1.14l.21-1.71a3.7,3.7,0,0,0-1.64,1.68,2.08,2.08,0,0,1-1.84,1.28c-.66,1.18-1.16,1.75-1.51,1.72a1.43,1.43,0,0,0-.31.41l-.73.42-.88-.11-.32,1.3a4.51,4.51,0,0,0-1.48,1.12,4.21,4.21,0,0,1-1.07,1l-.88.84h-.83a3.41,3.41,0,0,1-1.62,2.34l-.41.52-.94-.11a3.12,3.12,0,0,1-1.3,2c-.59,0-1.39.54-2.42,1.61s-1.74,1.61-2.15,1.61q-4.53,0-7.34-5.66a8,8,0,0,0-.49-.78,3.18,3.18,0,0,1-.39-1.77,5,5,0,0,1,.54-2.76,13.92,13.92,0,0,0,1.41-2.73c.57-1.33,1-1.91,1.27-1.74a1.4,1.4,0,0,0,.11-.62,2.88,2.88,0,0,0,.83-1.51.19.19,0,0,0-.21-.21,2.42,2.42,0,0,0-.62.31l-.73.32a1,1,0,0,0-.68.41,2,2,0,0,1-.74.6c-.34.19-.62.36-.83.49h-.16c-.21-.21-.35-.31-.42-.31a3.38,3.38,0,0,1-.52,1l-.63.1c-.76.8-1.25,1.2-1.46,1.2a3.11,3.11,0,0,1-.94-.36c-.49-.25-.73-.49-.73-.73l.36-2v-.93q0-.1.42-.42a4.57,4.57,0,0,0,.84-1.12A2.09,2.09,0,0,1,136.12,571.24Z" transform="translate(0.5 -143.5)"/>
    <path class="cls-1" d="M205.59,568.7l1.46-.68a5.69,5.69,0,0,0,1.4-1.35l1.83-1.3a5.37,5.37,0,0,1,2-1l.83.31c.07,0,.28-.22.65-.65a1.63,1.63,0,0,1,1.27-.65,4.58,4.58,0,0,1,2.55,1.4,3.76,3.76,0,0,1,1.62,2.5L219,569a18,18,0,0,0,.41,2.34v.41l-.2,1.25.2,1.3-.57,2.55c0,.66.23,1,.68,1a3.69,3.69,0,0,1,1.51-1l.72-.73q.42-.42.63-.42c.14,0,.32-.16.54-.49a1.93,1.93,0,0,1,.86-.7,1.25,1.25,0,0,0,.73-.73c1.94-2.11,3.43-3.33,4.47-3.64.14,0,.38-.17.71-.52a2.29,2.29,0,0,1,.8-.62l1.15-.89.46.21h.11a3.62,3.62,0,0,0,.83-.52,2.34,2.34,0,0,1,1-.52,4.29,4.29,0,0,1,3.25,1.33,3.67,3.67,0,0,1,1.27,2l-.26,1.2.37,1.61v1l-.26,1.09a1.77,1.77,0,0,0,.44.89,1.84,1.84,0,0,1,.44.78c-.41.45-.62.74-.62.88l.1.93-.26,2.87a2.5,2.5,0,0,0,.68,1.19,3,3,0,0,1,.88-.36,4.15,4.15,0,0,0,.88-.34c.21-.12.31-.19.31-.21s0,0,0,0a2.75,2.75,0,0,1,.62.21h.21c.28,0,.43-.27.47-.8a1.65,1.65,0,0,1,1-1.33l1.25.1a4.42,4.42,0,0,0,.44-.85,8.06,8.06,0,0,1,2.18-2.24,5.37,5.37,0,0,1,2.82-1.48c.56,0,.83.24.83.73a6.53,6.53,0,0,1-.2,1.09,2.67,2.67,0,0,1,.41,1.25c0,.66-.56,1.37-1.69,2.13a7.65,7.65,0,0,0-2.57,2.86l-.2.21-1-.11c-.07,0-.24.27-.5.81s-.56.84-.91.91a1.42,1.42,0,0,0-.72.31l-1.09.68a24.09,24.09,0,0,0-2.05,2.1c-1.16,1.27-2.14,1.9-2.94,1.9a6,6,0,0,1-1.87-.55,4.67,4.67,0,0,1-1.82-1.11,10.2,10.2,0,0,0-1.32-1.3,3.54,3.54,0,0,1-.86-2.76c0-.07.1-.19.29-.36s.28-.32.28-.42a4.81,4.81,0,0,1-1.19-2.23,2.43,2.43,0,0,1,.1-.68,2.47,2.47,0,0,0,.11-.68l-.11-1.82.21-.93-.1-.57.31-2.66c0-.41-.24-.62-.73-.62q-.21,0-.57.42a2.74,2.74,0,0,1-.91.65,2.92,2.92,0,0,0-1.17,1.48,3.66,3.66,0,0,0-1.28,1c-.23.33-.41.49-.55.49a1.59,1.59,0,0,1-.41-.1,1.16,1.16,0,0,0-.63.94v.2l.11.42c0,.31-.26.61-.78.88a6.63,6.63,0,0,0-1.93,2.14,1.79,1.79,0,0,0-.73.1l-.62,1.25a3,3,0,0,0-1,1.09l-.63.31a7.91,7.91,0,0,1-.73,1.15l-.31.57c-1.49,1.77-2.53,2.65-3.12,2.65s-1.3-.78-2.14-2.34a8.63,8.63,0,0,1-1.25-3.64l.21-1.92a4,4,0,0,0-.41-.83v-.21a8.55,8.55,0,0,1,.41-1.2V578a.76.76,0,0,0-.1-.31v-.26a4,4,0,0,1,.41-.83l-.31-1.51.21-.83-.1-1.82.2-1.61a1.19,1.19,0,0,0-.28-.55q-.28-.39-.39-.39A7.58,7.58,0,0,0,210,571a14.24,14.24,0,0,0-2.41,1.87c-.42.45-1,1-1.66,1.61-.73.35-1.23,1.23-1.51,2.65,0,.07-.07.11-.21.11s-.1-.14-.31-.21h-.21c-.17,0-.71.74-1.61,2.23l-.2.21-1-.21c-.83,0-1.25.89-1.25,2.66,0,.31-.21.51-.65.62a1.53,1.53,0,0,0-1,.88,8.56,8.56,0,0,1-1,1.51,3.73,3.73,0,0,0-1.36.78s-.39.56-1.15,1.56a15.41,15.41,0,0,0-1.25,1.77,1.66,1.66,0,0,1-.71.6c-.4.22-.6.42-.6.59l.16.89c0,.55-.54.83-1.62.83q-3.12,0-3.12-6.5a2.9,2.9,0,0,1,.65-1.64,15.08,15.08,0,0,0,1.27-2.21,23.9,23.9,0,0,0,2.34-2.86,23.83,23.83,0,0,1,2-2.54l.67-1.1a1.45,1.45,0,0,1,.26-.93,1.15,1.15,0,0,0,.26-.78c0-.56-.13-.83-.41-.83a2.3,2.3,0,0,0-1.56.49,3.42,3.42,0,0,1-1.28.7,1.31,1.31,0,0,0-.91.73,4.39,4.39,0,0,0-1.53,1.32c-.54.68-.89,1.11-1.06,1.28a2.87,2.87,0,0,0-.5.7.78.78,0,0,1-.59.49,1.22,1.22,0,0,0-.68.37,1.35,1.35,0,0,1-1,.31c-.31,0-.59-.32-.85-1a5.09,5.09,0,0,1-.39-1.17q0-3.79,5-6.55a5.1,5.1,0,0,0,1.06-.73A3.52,3.52,0,0,1,191,569l.21-.37a8.72,8.72,0,0,1,3.12-1.76H195l3.48-.89c1.5-.34,2.24,1.34,2.24,5l-.1.93.21.42a15.94,15.94,0,0,1,1.79-1.48,7.22,7.22,0,0,0,1.33-1.17A4.15,4.15,0,0,1,205.59,568.7Z" transform="translate(0.5 -143.5)"/>
    <path class="cls-1" d="M256.73,589.34l.58-.78a1.58,1.58,0,0,0,.31-.94l1.25-3.69c.45-1.32.71-2,.78-2.18l.2-1,.63-1.2.21-1.35a18.61,18.61,0,0,1,1.5-4.47l.11-.78.41-1.15v-.2c0-.35-.1-.52-.31-.52H262c-.63,0-1,.13-1,.41l-.37,1.46q0,.78-.93.78a2.86,2.86,0,0,1-.55-.16,2.54,2.54,0,0,0-.55-.15c-.2.41-.48.93-.83,1.56A8.91,8.91,0,0,0,256,576l-.52.1a8,8,0,0,1-1.72,1.72l-.2.31a2.3,2.3,0,0,1-2,1.14c-1.14,0-1.72-.78-1.72-2.34a2.4,2.4,0,0,1,1.41-2.21,5.43,5.43,0,0,0,1.82-1.35,7.65,7.65,0,0,1,2.23-1.64l.52-.72c.28-.39.52-.58.73-.58l.88-.31a1.41,1.41,0,0,1,.94-.21l-.1-.72c0-.21.43-.44,1.3-.68A13.49,13.49,0,0,1,261,567.4a27.85,27.85,0,0,0,3.87-4.48,1.52,1.52,0,0,1,.8-.8,3.83,3.83,0,0,0,1-.7h1c.27,0,.9.46,1.87,1.4a4.77,4.77,0,0,1,1.45,3.59l-1.5,6.71.1.46-.1.42a.18.18,0,0,0,.2.21c.14,0,.44-.28.89-.83a2.51,2.51,0,0,1,1.28-1.51,4.53,4.53,0,0,0,1.43-1.12,4.56,4.56,0,0,1,1.27-1.07,18.55,18.55,0,0,0,2.14-1.53,4.79,4.79,0,0,1,2.42-1.17l.52-.31.21-.78a16.26,16.26,0,0,1,2-1.35l1.25-1a12,12,0,0,1,3.34-.73,1.27,1.27,0,0,0,.93-.42l1.2.52c.07,0,.21-.1.42-.31,0-.07.07-.1.21-.1a4.67,4.67,0,0,1,3.62,1.66,5.35,5.35,0,0,1,1.48,3.64,1.53,1.53,0,0,1-.16.47,1.68,1.68,0,0,0-.15.62l.31.84v.1l-1.14,3q-.17.53-.63,2.91a20.12,20.12,0,0,1-2.31,3,12.81,12.81,0,0,0-1.74,2.13.55.55,0,0,0,.36.21c.31,0,.76-.31,1.35-.94l2.45-1.5.41.2a18.15,18.15,0,0,0,1.51-1.19,2.53,2.53,0,0,1,1.34-.73,6.56,6.56,0,0,1,1.09-1l.52-.57a1.17,1.17,0,0,0,.73-.37,2,2,0,0,1,1-.46,2,2,0,0,0,1.11-.81,2.25,2.25,0,0,1,1-.81.63.63,0,0,0,.49-.41,6.29,6.29,0,0,1,2.75-1.93l.62-.21a.34.34,0,0,1,.21-.1c.38,0,.67.37.88,1.09l-.67,1v.52l.15.58a2.45,2.45,0,0,1-.62,1.32,1.77,1.77,0,0,1-1.4.81,1.93,1.93,0,0,0-1.07.91,4.37,4.37,0,0,1-1.53,1.43,4.83,4.83,0,0,0-1.67,1.63c-.21.47-.5.71-.88.71l-.94-.31c-.79,1-1.33,1.52-1.61,1.45h-.31l-.21.1-.62,1.3a2.41,2.41,0,0,0-.89.32l-.52-.11c-2.11,2.12-3.46,3.17-4.05,3.17l-.94-.1c-.07,0-.23.2-.49.6a6.21,6.21,0,0,1-.65.86,8.33,8.33,0,0,0-.67.78h-1.1a3.68,3.68,0,0,0-1.56.88c0,.07,0,.1-.1.1l-.78-.31h-.1a2.27,2.27,0,0,0-1.35.83l-1.62.63c0,.07,0,.1-.1.1l-1.09-.21a1.89,1.89,0,0,0-.94.52l-.41.26a2.66,2.66,0,0,0-1.1.52l-1.66.63a1.27,1.27,0,0,0-.47-.11l-.93.11-.83-.21c-.18,0-.44.24-.78.73,0,.07-.07.1-.21.1a2.91,2.91,0,0,1-.52-.1h-.62l-1.2.31a3.33,3.33,0,0,1-1.48-.83,4.68,4.68,0,0,1-1.38-1.51l-.52-.83a2.71,2.71,0,0,1-1-.63l-.41.21a2.25,2.25,0,0,1-.44.68,1.41,1.41,0,0,0-.39.67,4.78,4.78,0,0,1-.5,1.8c-.33.74-.81,2.07-1.43,4l-.68.83a.81.81,0,0,0-.21.52,3.65,3.65,0,0,1-.83,1.61,4.79,4.79,0,0,1-1,2.6l-.2.52v.73a13.72,13.72,0,0,1-1,2.55l-.1,1.09c-.21,0-.57.72-1.07,2.05a12.85,12.85,0,0,1-1.79,3.35l-.47,1.72-.52.94-.31,1a1,1,0,0,1-.31.42L253,617l-.31.21a5,5,0,0,1-1,2.6c0,.14-.17.38-.52.73a10.12,10.12,0,0,0-1.19,1.53,6.58,6.58,0,0,1-2,1.85l-2.24,1.4a3.46,3.46,0,0,1-3.43-2.65,12.24,12.24,0,0,0-1-1.72,7.66,7.66,0,0,1-.91-4.16l.47-2.13a9.44,9.44,0,0,1,1-3.59l.62-1.4a2.65,2.65,0,0,1,.36-.81,5.41,5.41,0,0,0,.55-1.19,3.3,3.3,0,0,1,1.43-1.54,20.32,20.32,0,0,1,1.51-2.86l.73-1.4c0-.42.36-.87,1.09-1.35a9.31,9.31,0,0,1,1.3-2,11.13,11.13,0,0,1,1.09-1.23,2.61,2.61,0,0,0,.47-1.32,1.62,1.62,0,0,1,.91-1.38c.47-.17.73-.4.8-.68l.52-.88a4.39,4.39,0,0,0,1-1.3,2.41,2.41,0,0,1,1.12-1.14C255.94,589.75,256.35,589.34,256.73,589.34Zm-12.21,28.75a33.91,33.91,0,0,0,2.66-4.05l.52-1a9.05,9.05,0,0,1,.88-1.35l.1-.42a2.69,2.69,0,0,0,.52-.78l2.86-7.54c.42-1.11.69-1.9.81-2.36s.6-1.92,1.43-4.35c-.21.07-.42.32-.62.76s-.39.65-.52.65l-.78.1a8.7,8.7,0,0,0-.84,1.87l-.2.26a1.19,1.19,0,0,0-1,.84l-.89,1.82v.72c0,.84-.6,1.62-1.82,2.34-.38,1-.62,1.51-.73,1.51h-.52l.21.94a3.13,3.13,0,0,1-.7,2.05,4.53,4.53,0,0,0-.7,1l.1,1-.1.94a9.42,9.42,0,0,0-.63,3.64Zm25-34.73,1.82-.31c1-.21,1.51-.32,1.61-.32a1.89,1.89,0,0,1,.47.16,8.13,8.13,0,0,0,.81.31,2.38,2.38,0,0,1,1,1.15,14.13,14.13,0,0,0,3.07-1.72,1.39,1.39,0,0,1,.88-.52,1,1,0,0,1,.31.1l.26-.62a2.74,2.74,0,0,1,.76-.86,13.18,13.18,0,0,0,1.84-2.26l1.72-1.92,1.82-2.65a10.69,10.69,0,0,0,1.14-2.45l.31-.67a4.4,4.4,0,0,0,.21-.73,5.45,5.45,0,0,0-.73-1.72l-1.3.57v-.1a1.89,1.89,0,0,0-1-.47.73.73,0,0,0-.57.39,1.14,1.14,0,0,1-.75.5,1.68,1.68,0,0,0-.86.46,1.43,1.43,0,0,1-1,.42,2.27,2.27,0,0,0-1.33.78l-.62-.1L279,571l-.62-.16a10.29,10.29,0,0,1-1.53,1.53,5.59,5.59,0,0,0-1.23,1.38h-.72c-.28,0-.54.38-.78,1.15a3.61,3.61,0,0,0-1,1l-1.3.52a3.42,3.42,0,0,1-.94,1l-2,2.6a.85.85,0,0,1-.47.26,3.84,3.84,0,0,0-.52.16l.26,1h-.15a3.19,3.19,0,0,0-1.56,2.39l-.31,1.25c0,.21.07.31.2.31s.33-.12.58-.36a10.19,10.19,0,0,1,1.3-1A3.49,3.49,0,0,1,269.55,583.36Z" transform="translate(0.5 -143.5)"/>
    <path class="cls-1" d="M299,574.31l.83-.73h.32c.24,0,.6-.26,1.09-.78l.52-.2a4.36,4.36,0,0,1,1.82-1.82l.84-.63a1.57,1.57,0,0,1,.59-.36,4.87,4.87,0,0,0,1.25-1,2.32,2.32,0,0,1,1.38-.85,2.75,2.75,0,0,1,.84.1,3.28,3.28,0,0,1,1.24-1.22,5.18,5.18,0,0,0,1.51-1.43l.68-.31a5.66,5.66,0,0,0,1.48-1.07,2.32,2.32,0,0,1,1.7-.65,4.74,4.74,0,0,1,3.14,1.53,4.24,4.24,0,0,1,1.64,2.94l-.88,4.06q-.88,4.47-2,4.68l-.21,1.09c-.48.35-.72.62-.72.83l.31,1.25q0,.25-.57.78c-.07,0-.11.1-.11.31v2.13a1.08,1.08,0,0,1-.73.94,1.26,1.26,0,0,0,.32.21,2.07,2.07,0,0,1,1.4-.32l.83.11,1.14-1.15a4.25,4.25,0,0,0,1-.49,16,16,0,0,1,2.2-1l6.81-5.2c.93-.94,1.64-1.41,2.12-1.41s.78.33.78,1a3.66,3.66,0,0,1-.44,1.9,10.09,10.09,0,0,0-.8,1.82,3.41,3.41,0,0,1-.86,1.48,4,4,0,0,0-.81.91,6.52,6.52,0,0,1-1.69,1.43,15.77,15.77,0,0,0-2.34,1.9,12,12,0,0,1-1.58,1.38L320.8,588l-.31.52a4.49,4.49,0,0,1-1,.44,6.38,6.38,0,0,0-1.54.86l-.93.52a2.25,2.25,0,0,1-1,.26,1.81,1.81,0,0,0-1.23.6c-.34.36-.62.54-.83.54l-.78-.1-1,.31a3.67,3.67,0,0,1-2.15-1.07,3,3,0,0,1-1.28-2.26v-.31l.1-.73a4.53,4.53,0,0,0-.31-1.06,8.22,8.22,0,0,1-.31-1l.11-.72-.11-.32a4.41,4.41,0,0,1,.21-1.76,3.08,3.08,0,0,0,.31-1c.07-.43.14-.79.21-1.06l.26-1.3a1.5,1.5,0,0,1,.52-.83q.11-.42.42-1.41l.2-.93.52-.73a1.85,1.85,0,0,0,.5-1.12,3.67,3.67,0,0,1,.54-1.48,3.43,3.43,0,0,0,.47-.94.55.55,0,0,0-.62-.62,4.4,4.4,0,0,0-1.3.83l-.94-.31c-.07,0-.26.17-.57.52,0,.14-.16.24-.47.31a1.51,1.51,0,0,0-.88.78l-.42.1-.68-.31h-.2c-.35,0-.56.38-.63,1.15a2.67,2.67,0,0,1-1.51,1.09l-1.14.31a1.42,1.42,0,0,0-.83.93,3,3,0,0,1-1,1.33,2.56,2.56,0,0,1-1,.6c-1,0-1.46-.54-1.46-1.61l.42-2.45Zm22.46-26-.31-2V546c0-1.63.56-2.53,1.67-2.7a20.79,20.79,0,0,0,2.18-.68,3.73,3.73,0,0,1,2,1.64,4.51,4.51,0,0,1,1,2.52,1.71,1.71,0,0,1-.15.47,4.27,4.27,0,0,0-.21,1.38,2.41,2.41,0,0,1-1,1.77,3.31,3.31,0,0,1-2.06.75,3.15,3.15,0,0,1-1.84-1A3.35,3.35,0,0,1,321.42,548.31Z" transform="translate(0.5 -143.5)"/>
    <path class="cls-1" d="M338.29,571.14l1.09-.89a1.29,1.29,0,0,0,1.35-1.29,2.81,2.81,0,0,1,1.72-2.08l.62-.89a14.2,14.2,0,0,1,4.26-2,4.07,4.07,0,0,0,1.2-.93.31.31,0,0,1,.21-.11l.83.21a5.71,5.71,0,0,0,1.74-.36,6.4,6.4,0,0,1,2.05-.37l2.18-.1a2.61,2.61,0,0,1,.86.31,3.61,3.61,0,0,0,1.59.31,2.84,2.84,0,0,1,2.1,1,3,3,0,0,1,1,1.93,4.74,4.74,0,0,1-1.66,3.27,6.42,6.42,0,0,1-2.64,1.88,6.34,6.34,0,0,1-1.35,1.11,3.59,3.59,0,0,0-1,.73,1.37,1.37,0,0,1-.81.5.39.39,0,0,1-.31-.13.36.36,0,0,0-.31-.13c-.56,0-1.16.67-1.82,2l-.93-.1a2.71,2.71,0,0,0-1.14,1.25A1.05,1.05,0,0,1,348,577c-1.28,1.29-2.15,1.93-2.6,1.93a4.4,4.4,0,0,1-.73-.21,1.76,1.76,0,0,0-.41,1.09c0,.42-.28.66-.83.73l-.68.62-.51-.1-1,1.09a3,3,0,0,0-1.61.52c-.07.42-.18,1-.31,1.59s-.21,1-.21,1.06c0,1,.92,1.51,2.75,1.51l2.5-.36a3.59,3.59,0,0,0,1.85-.52,3.44,3.44,0,0,1,1.84-.52,3.31,3.31,0,0,0,.94-.21l.52.21a3.46,3.46,0,0,1,1.35-1.41,3.32,3.32,0,0,1,1.56-.62l.52-.31a1.35,1.35,0,0,1,.63-.84l.41-.36a1.17,1.17,0,0,1,.78-.42h.73l.21-.1a2.48,2.48,0,0,1,1.74-1.58,2,2,0,0,0,1.4-.76,1.27,1.27,0,0,1,1-.62,1.94,1.94,0,0,0,1.22-.7,6.3,6.3,0,0,1,1.22-1.12q.73-.52,1-.78a.76.76,0,0,1,.49-.26c.21,0,.31.15.31.46s.07.47.21.47a.18.18,0,0,0,.21-.2,2.09,2.09,0,0,0-.1-.53v-.36a1,1,0,0,1,.83-1l2.34-1.51c.07-.72.27-1.15.6-1.27a2.28,2.28,0,0,0,.75-.42.85.85,0,0,1,.57-.23c.45,0,.68.26.68.78l-.26,1.35.26,1.41a1.55,1.55,0,0,1-.5.85,3.71,3.71,0,0,0-.75,1.67c-.18.74-.4,1.15-.68,1.22H368a4.37,4.37,0,0,1-1.48,1.17,1.61,1.61,0,0,0-.86.65l-1.77,2c-.35.34-.64.66-.89.93s-.43.42-.57.42l-.41-.42c0-.07-.07-.1-.21-.1-.35,0-.57.21-.65.62a2.31,2.31,0,0,1-.55,1.09,5.56,5.56,0,0,0-2,1.36l-.31.1h-.94c-.45,0-.76.34-.94,1a1.54,1.54,0,0,1-1.48,1.17,3.31,3.31,0,0,0-1.74.63,1.22,1.22,0,0,1-.47.21,7.06,7.06,0,0,0-1.46.83l-4.37,1.56a2.31,2.31,0,0,1-.67.26l-1.46.21a.85.85,0,0,1-.63-.42c-.2-.28-.34-.42-.41-.42l-.94.32a7.14,7.14,0,0,1-2,.31,2.24,2.24,0,0,1-1.14-.37c-.42-.24-.75-.41-1-.52q-1.51,0-2.13-2.34l-.63.11c-.14,0-.6-1.23-1.4-3.69a1.75,1.75,0,0,0-1-.6.92.92,0,0,1-.68-1c0-1.56.34-2.6,1-3.14s1.05-.94,1.12-1.22l.72-2.71a2.65,2.65,0,0,0,.52-1l1.2-2.18C337.5,572.72,337.81,572.11,338.29,571.14Zm11-3.12-.62.31a12.1,12.1,0,0,0-1.23.91,11.7,11.7,0,0,1-2,1.3,5.64,5.64,0,0,0-2,2.58,11.84,11.84,0,0,0-1,2.39.28.28,0,0,0,.31.31l1.77-.78a8.08,8.08,0,0,0,1.84-1.2,26.63,26.63,0,0,1,2.47-1.76l.42-.42a3.32,3.32,0,0,1,1-.75,5.14,5.14,0,0,0,1.27-1.07l.52-.21a3.81,3.81,0,0,1,1.8-1.71c.6-.21.91-.42.91-.63,0-.41-.33-.62-1-.62a2.74,2.74,0,0,0-1.25.52h-1.19a3.89,3.89,0,0,0-1.15.62Z" transform="translate(0.5 -143.5)"/>
    <path class="cls-1" d="M374,567.5l.73-1.3a6.67,6.67,0,0,1,.81-1,6.9,6.9,0,0,0,1.07-2.55,7.3,7.3,0,0,1,1.27-2.83,2.63,2.63,0,0,1,2.06-.78,4.41,4.41,0,0,1,2.05.75c.85.5,1.69,2,2.5,4.55a20.65,20.65,0,0,1,1.23,5.36,4.74,4.74,0,0,0,.36,1.58,11,11,0,0,1,.47,1.48,5.88,5.88,0,0,0-.42,1l.11,2.13-.63,1.72v1.25a4.12,4.12,0,0,0-.62,1.3,1.12,1.12,0,0,0,.21.62,9,9,0,0,0,3-1.69,2.31,2.31,0,0,1,1-.81,5.27,5.27,0,0,0,1.63-1.35l1-.52c.35-.41.64-.78.88-1.11a2.07,2.07,0,0,1,.86-.71,5.37,5.37,0,0,0,1.17-.72,13.11,13.11,0,0,1,2-1.2l.52-.62a5.91,5.91,0,0,1,1.84-1.41,8.85,8.85,0,0,1,1.17-.52q.36,0,.75,1a5,5,0,0,1,.39,1.9,2.37,2.37,0,0,1-1,1.74A14.26,14.26,0,0,0,398.9,576a3.4,3.4,0,0,1-1.66.72c-.07,0-.64.75-1.71,2.14l-1,.62-.52.68c-.07.14-.54.27-1.41.41a1.56,1.56,0,0,0-.23.52c-.12.35-.49.59-1.12.73a15.71,15.71,0,0,0-1.92,1.92l-1.09.21a3.7,3.7,0,0,1-.52,1.2c-.83.21-1.3.55-1.4,1a2,2,0,0,1-.52.21l-.21.15a5.32,5.32,0,0,1-2.34,1.15L382,588l-.42.62c0,.18-.42.4-1.27.68a4.64,4.64,0,0,0-1.89,1l-.89.67a5.15,5.15,0,0,0-2,1.15h-.73a4.93,4.93,0,0,0-2.29,1.06,5,5,0,0,1-2.49,1.07,8,8,0,0,1-4.13-.75,6.59,6.59,0,0,1-1.84-1.88,16.33,16.33,0,0,0-1.33-1.79,1.9,1.9,0,0,1-.6-1.09,1,1,0,0,1,.5-.73,4.32,4.32,0,0,0,1.06-1.48c.38-.75,1.35-1.22,2.91-1.43a4.23,4.23,0,0,0,.76-.31,2.57,2.57,0,0,1,1.06-.32c.35,0,.78.32,1.3.94,0,.07.07.1.21.1l.83-.1a1.83,1.83,0,0,0,.78.42,4.15,4.15,0,0,0,2.65-1.25l.2-.11h.42c.1,0,.28-.29.52-.88l.88-1.82,1.82-2.34V579a4.41,4.41,0,0,1,.31-.94v-.77q0-.48.63-.6c.41-.09.62-.31.62-.65l-.11-.42a1.77,1.77,0,0,1-.41-.88l.52-1-.11-1.09.21-.42a6.36,6.36,0,0,1-.21-.83l.21-1.3s-.09-.37-.28-1-.34-.94-.45-.94-.86.54-2,1.62a10.42,10.42,0,0,0-2,2.28,2.93,2.93,0,0,1-1.33,1.23,3.18,3.18,0,0,0-1.38,1.22,1.36,1.36,0,0,1-.88.78l-3.49,2.8-3.8,2.81c-.28.31-.45.47-.52.47-1.29,0-1.93-.71-1.93-2.13a7.6,7.6,0,0,1,.78-2.45l.55-.31q.18-.11.18-.15s0,0-.1,0l.31.2h.1a16.41,16.41,0,0,1,2.5-1.5,2.13,2.13,0,0,0,1-1.15l2.19-1.56a31.37,31.37,0,0,0,2.55-2.29A15,15,0,0,0,374,567.5Z" transform="translate(0.5 -143.5)"/>
    <path class="cls-1" d="M185.38,687.17c0,1.66-.8,2.48-2.38,2.48-1.12,0-2.34-1-3.68-3.11q-1.47-2.31-4.79-9.18-9.67-.15-21.91-4.51Q142.89,683,139.37,683a2.19,2.19,0,0,1-1.6-.67,2.16,2.16,0,0,1-.69-1.61c0-.69.57-1.48,1.69-2.37l3.36-2.65a59,59,0,0,0,5.45-4.94c-2.91-1.15-4.36-2.34-4.36-3.55a2.6,2.6,0,0,1,.68-1.79,2.17,2.17,0,0,1,1.65-.75,6.26,6.26,0,0,1,2.31.71c1.79.81,2.85,1.28,3.19,1.41q10.22-13.39,11.49-19.56c.23-1.4.48-2.81.73-4.23a2.22,2.22,0,0,1,2.38-1.57,2,2,0,0,1,2.08,1.29,10,10,0,0,1,.51,2.31,21.12,21.12,0,0,0,.43,2.66q2.42,9.79,9.33,24.64c.78,0,1.53-.06,2.26-.13l1-.07c1.88,0,2.81.85,2.81,2.54s-1,2.63-2.91,2.63h-.74q1,2,3.43,6.21A9.49,9.49,0,0,1,185.38,687.17Zm-13.23-14.88a143.48,143.48,0,0,1-7.07-18.71A72.63,72.63,0,0,1,156,668.73,61.89,61.89,0,0,0,172.15,672.29Z" transform="translate(0.5 -143.5)"/>
    <path class="cls-1" d="M225.46,667.55q0,7.88-2.82,12.22a8.51,8.51,0,0,1-7.5,4.18q-5.88,0-8.42-6-3,4.64-6.64,4.63-4.85,0-8.11-5.27-3.48-5.6-3.48-14.78,0-12.62,3.73-12.62a2.43,2.43,0,0,1,1.75.75,2.36,2.36,0,0,1,.76,1.76c0-.12-.18,1-.54,3.29a46,46,0,0,0-.55,7.25,22.31,22.31,0,0,0,2,10.19q1.88,3.66,4.51,3.66a3.77,3.77,0,0,0,3.18-2.1,9.93,9.93,0,0,0,1.33-5.43,47.18,47.18,0,0,0-.34-4.92c-.23-2.08-.34-3.55-.34-4.41q0-3.43,2.81-3.43t2.87,3.68c0,.37,0,1,0,1.93s0,1.62,0,2.13a72.87,72.87,0,0,0,.33,9.1q1,5.73,4.87,5.73a4.54,4.54,0,0,0,4-2.63,14.9,14.9,0,0,0,1.51-7.39,52.32,52.32,0,0,0-1.14-10.81q-1.14-5.41-1.14-5.64c0-1.35.71-2,2.13-2q2.4,0,3.8,4.34Q225.45,659.42,225.46,667.55Z" transform="translate(0.5 -143.5)"/>
    <path class="cls-1" d="M252.51,668.64a56.21,56.21,0,0,1-2,14.52c-.68,2.54-1.68,3.81-3,3.81s-2.05-.78-2.05-2.34a3.86,3.86,0,0,1,.05-.78,11.15,11.15,0,0,1-5.35,1.39,10.3,10.3,0,0,1-7.64-2.76c-1.84-1.84-2.75-4.42-2.75-7.73a10.2,10.2,0,0,1,10.85-11,10,10,0,0,1,7.22,2.87q-.48-10-7.43-10a7.26,7.26,0,0,0-3.31.92,7,7,0,0,1-2.29.93,2.13,2.13,0,0,1-1.55-.71,2.32,2.32,0,0,1-.68-1.62c0-1,.73-2,2.2-2.82a10.88,10.88,0,0,1,5.63-1.39Q252.51,652,252.51,668.64Zm-5.15,6q0-6.44-6.06-6.43-6.65,0-6.64,6.38t6.59,6.44a6,6,0,0,0,4.49-1.68A6.52,6.52,0,0,0,247.36,674.59Z" transform="translate(0.5 -143.5)"/>
    <path class="cls-1" d="M278,651.75q0,3.19-2.58,11.06a112.79,112.79,0,0,1-8.57,18.38l-2.51,5c-.73,1.3-1.59,1.95-2.59,1.95a2.21,2.21,0,0,1-1.61-.76,2.4,2.4,0,0,1-.72-1.68q0-1.65,2.24-5.5l5.28-9.22a85,85,0,0,1-7.85-12.45q-2.31-4.59-2.31-6.21,0-2.28,2.19-2.28c.91,0,1.82.79,2.74,2.38.83,1.77,1.65,3.55,2.46,5.32a55.92,55.92,0,0,0,5,8.65,65.36,65.36,0,0,0,3-10.09q1.19-5.46,1.22-5.56.74-2.07,2.28-2.07Q278,648.69,278,651.75Z" transform="translate(0.5 -143.5)"/>
    <path class="cls-1" d="M290.51,649.22a38.27,38.27,0,0,1-1.14,5.15,67.3,67.3,0,0,0-2.08,14.37,39.92,39.92,0,0,1-.31,4,1.66,1.66,0,0,1-1.77,1.37,2.1,2.1,0,0,1-2-1.67,18.91,18.91,0,0,1-.53-5.35,54.66,54.66,0,0,1,2.61-15.42c.86-2.9,2.05-4.36,3.57-4.36C290,647.34,290.51,648,290.51,649.22Zm-1.78,31.86a3.07,3.07,0,0,1-.78,2.17,2.59,2.59,0,0,1-2,.85,2.7,2.7,0,0,1-2-.86,3,3,0,0,1-.82-2.16,2.77,2.77,0,0,1,2.84-2.83,2.69,2.69,0,0,1,2,.78A2.83,2.83,0,0,1,288.73,681.08Z" transform="translate(0.5 -143.5)"/>
    <text x="0.5" y="-143.5"/>  </g>
  <g id="Outline">
    <circle class="cls-2" cx="360.5" cy="612.5" r="4.82"/>
    <circle class="cls-2" cx="72.5" cy="612.5" r="4.82"/>
    <circle class="cls-2" cx="216.5" cy="612.5" r="4.82"/>
    <circle class="cls-2" cx="288.5" cy="612.5" r="4.82"/>
    <circle class="cls-2" cx="144.5" cy="612.5" r="4.82"/>
    <path class="cls-2" d="M0,360C0,240.71,96.71,144,216,144s216,96.71,216,216" transform="translate(0.5 -143.5)"/>
    <line class="cls-2" x1="432.5" y1="648.5" x2="432.5" y2="216.5"/>
    <line class="cls-2" x1="0.5" y1="648.5" x2="0.5" y2="216.5"/>
    <line class="cls-2" x1="0.5" y1="648.5" x2="432.5" y2="648.5"/>
  </g>
</svg>
